<svg width="50" height="46" viewBox="0 0 50 46" fill="none" xmlns="http://www.w3.org/2000/svg">
<path d="M16.25 9.25C16.25 6.92936 17.1719 4.70376 18.8128 3.06282C20.4538 1.42187 22.6794 0.5 25 0.5C27.3207 0.5 29.5463 1.42187 31.1872 3.06282C32.8282 4.70376 33.75 6.92936 33.75 9.25C33.75 11.5706 32.8282 13.7962 31.1872 15.4372C29.5463 17.0781 27.3207 18 25 18C22.6794 18 20.4538 17.0781 18.8128 15.4372C17.1719 13.7962 16.25 11.5706 16.25 9.25ZM19.75 21.5C18.3576 21.5 17.0223 22.0531 16.0377 23.0377C15.0531 24.0223 14.5 25.3576 14.5 26.75V35.5C14.5 38.2848 15.6063 40.9555 17.5754 42.9246C19.5445 44.8938 22.2153 46 25 46C27.7848 46 30.4555 44.8938 32.4246 42.9246C34.3938 40.9555 35.5 38.2848 35.5 35.5V26.75C35.5 25.3576 34.9469 24.0223 33.9623 23.0377C32.9778 22.0531 31.6424 21.5 30.25 21.5H19.75ZM11.196 24.895C11.0648 25.5046 10.9991 26.1264 11 26.75V35.5C10.9997 37.3732 11.3752 39.2274 12.1045 40.9529C12.8337 42.6783 13.9018 44.2398 15.2455 45.545L14.8955 45.643C12.2064 46.3625 9.34161 45.9847 6.93095 44.5926C4.52029 43.2006 2.76107 40.9082 2.04002 38.2195L0.678524 33.1445C0.500166 32.4785 0.454738 31.7839 0.544835 31.1003C0.634931 30.4168 0.858787 29.7577 1.20362 29.1606C1.54845 28.5636 2.00751 28.0403 2.55458 27.6207C3.10165 27.2011 3.72601 26.8933 4.39202 26.715L11.196 24.895ZM34.751 45.545C36.0953 44.2401 37.1641 42.6787 37.8939 40.9533C38.6238 39.2278 38.9999 37.3735 39 35.5V26.75C38.9977 26.1107 38.9324 25.4923 38.804 24.895L45.6045 26.715C46.2709 26.8933 46.8956 27.2012 47.443 27.621C47.9903 28.0409 48.4496 28.5645 48.7944 29.1619C49.1393 29.7594 49.363 30.4189 49.4529 31.1029C49.5427 31.7868 49.4969 32.4818 49.318 33.148L47.96 38.2195C47.5953 39.5806 46.9603 40.8544 46.093 41.9649C45.2256 43.0755 44.1435 44.0001 42.9113 44.6837C41.6791 45.3672 40.3218 45.7957 38.9205 45.9437C37.5192 46.0917 36.0989 45.9561 34.751 45.545ZM0.500024 14.5C0.500024 12.6435 1.23752 10.863 2.55028 9.55025C3.86303 8.2375 5.64351 7.5 7.50002 7.5C9.35654 7.5 11.137 8.2375 12.4498 9.55025C13.7625 10.863 14.5 12.6435 14.5 14.5C14.5 16.3565 13.7625 18.137 12.4498 19.4497C11.137 20.7625 9.35654 21.5 7.50002 21.5C5.64351 21.5 3.86303 20.7625 2.55028 19.4497C1.23752 18.137 0.500024 16.3565 0.500024 14.5ZM35.5 14.5C35.5 12.6435 36.2375 10.863 37.5503 9.55025C38.863 8.2375 40.6435 7.5 42.5 7.5C44.3565 7.5 46.137 8.2375 47.4498 9.55025C48.7625 10.863 49.5 12.6435 49.5 14.5C49.5 16.3565 48.7625 18.137 47.4498 19.4497C46.137 20.7625 44.3565 21.5 42.5 21.5C40.6435 21.5 38.863 20.7625 37.5503 19.4497C36.2375 18.137 35.5 16.3565 35.5 14.5Z" fill="black"/>
</svg>
