<svg width="52" height="49" viewBox="0 0 52 49" fill="none" xmlns="http://www.w3.org/2000/svg">
<path d="M26 48.2499L22.2541 44.8915C17.9055 40.9735 14.3104 37.5936 11.4687 34.752C8.62704 31.9103 6.36663 29.3588 4.68746 27.0975C3.00829 24.8363 1.83546 22.7593 1.16896 20.8665C0.502459 18.9738 0.168348 17.0363 0.166626 15.054C0.166626 11.0068 1.52288 7.62695 4.23538 4.91445C6.94788 2.20195 10.3277 0.845703 14.375 0.845703C16.6138 0.845703 18.7451 1.31931 20.7687 2.26654C22.7923 3.21376 24.5361 4.54848 26 6.2707C27.4638 4.54848 29.2076 3.21376 31.2312 2.26654C33.2548 1.31931 35.3861 0.845703 37.625 0.845703C41.6722 0.845703 45.052 2.20195 47.7645 4.91445C50.477 7.62695 51.8333 11.0068 51.8333 15.054C51.8333 17.0346 51.5 18.9721 50.8335 20.8665C50.167 22.761 48.9933 24.838 47.3125 27.0975C45.6316 29.3571 43.3712 31.9086 40.5312 34.752C37.6913 37.5953 34.0961 40.9752 29.7458 44.8915L26 48.2499Z" fill="black"/>
</svg>
