<svg width="16" height="14" viewBox="0 0 16 14" fill="none" xmlns="http://www.w3.org/2000/svg">
<path d="M15.337 5.60044C15.3535 5.54144 15.373 5.48394 15.387 5.42394L15.394 5.38794C15.537 4.81137 15.5365 4.20855 15.3926 3.63222C15.2487 3.05588 14.9657 2.52359 14.5685 2.08194C14.2025 1.58935 13.7255 1.19007 13.1761 0.91657C12.6268 0.64307 12.0206 0.503064 11.407 0.507935H11.381C11.331 0.507935 11.275 0.511436 11.222 0.512936H11.1615C10.1048 0.571942 9.05454 0.714724 8.02048 0.939936L5.78198 0.582435H5.76448C4.6983 0.398043 3.60107 0.573965 2.64598 1.08244C2.10819 1.40715 1.64616 1.84326 1.29098 2.36144L1.27048 2.38894L1.25798 2.40644C0.788609 3.10272 0.533376 3.92119 0.523779 4.76085C0.514183 5.60051 0.750645 6.42461 1.20398 7.13143C1.19448 7.14843 1.18898 7.16744 1.17998 7.18494C1.13669 7.27164 1.09976 7.36138 1.06948 7.45344C1.05348 7.50344 1.04148 7.55644 1.02998 7.60844C1.02065 7.65077 1.01265 7.6931 1.00598 7.73544C0.999482 7.78837 0.99581 7.84161 0.994982 7.89494C0.994982 7.93794 0.989982 7.97994 0.991982 8.02244C0.995315 8.07844 1.00165 8.1341 1.01098 8.18944C1.01698 8.22894 1.01998 8.26844 1.02898 8.30744C1.04431 8.3691 1.06365 8.42944 1.08698 8.48844C1.09848 8.51994 1.10598 8.55244 1.11998 8.58344C1.16098 8.6751 1.21098 8.76144 1.26998 8.84244C1.49626 9.16629 1.83003 9.39943 2.21198 9.50044C2.19781 9.71364 2.23333 9.92722 2.31576 10.1243C2.39819 10.3215 2.52527 10.4968 2.68698 10.6364C2.97353 10.8874 3.32492 11.0527 3.70098 11.1134C3.77848 11.3649 3.91448 11.5944 4.09748 11.7834C4.3472 12.0541 4.6846 12.2276 5.04998 12.2734C5.13698 12.5699 5.30198 12.8379 5.52798 13.0484C5.80648 13.3224 6.17948 13.4784 6.56998 13.4834C6.85709 13.4815 7.13902 13.4068 7.38948 13.2664C7.76148 13.4794 8.19748 13.5514 8.61848 13.4694C8.83949 13.4291 9.0489 13.3406 9.23184 13.2102C9.41478 13.0798 9.56676 12.9107 9.67698 12.7149C9.68748 12.6984 9.69348 12.6839 9.70298 12.6674C10.128 12.7544 10.5705 12.6779 10.942 12.4534C11.2687 12.269 11.5174 11.9723 11.642 11.6184C12.089 11.6244 12.522 11.4634 12.8555 11.1659C13.0381 11.0061 13.1798 10.805 13.2691 10.5793C13.3583 10.3536 13.3924 10.1099 13.3685 9.86844C13.3685 9.85444 13.365 9.84344 13.364 9.82994C13.6249 9.75174 13.8597 9.60395 14.043 9.40244C14.28 9.15253 14.4326 8.83453 14.4792 8.49329C14.5258 8.15205 14.4642 7.80478 14.303 7.50044C14.7527 6.98116 15.0928 6.3764 15.303 5.72244C15.315 5.68394 15.325 5.64194 15.337 5.60044ZM14.481 4.75044C14.4559 5.00181 14.4007 5.24925 14.3165 5.48744L14.3005 5.53744C14.1342 5.98218 13.8945 6.3959 13.5915 6.76144C12.023 5.39244 9.74148 3.39444 9.55398 3.21544C9.33738 3.00818 9.04976 2.89156 8.74998 2.88944C8.65699 2.88834 8.56439 2.90167 8.47548 2.92894C8.15848 3.02894 7.37948 3.27894 6.69948 3.53144C6.43948 3.62794 6.14248 3.38144 6.05198 3.17144C5.99198 3.04544 5.98198 2.90144 6.02298 2.76844C6.10448 2.62094 6.24148 2.51144 6.40348 2.46444C7.94159 1.9238 9.54858 1.60395 11.1765 1.51444H11.237C11.2925 1.51444 11.3475 1.51044 11.3985 1.50944C11.7719 1.50357 12.1426 1.57384 12.488 1.71594C13.0004 1.94877 13.4501 2.3001 13.8 2.74094C14.1133 3.09449 14.3321 3.52157 14.436 3.98244L14.4405 4.00544C14.465 4.12845 14.4802 4.25314 14.486 4.37844C14.4875 4.41894 14.49 4.46994 14.49 4.51494C14.49 4.58744 14.49 4.65944 14.4815 4.73094L14.481 4.75044ZM2.00348 8.07994C2.00048 8.05794 1.99931 8.03544 1.99998 8.01244C1.99457 7.96425 1.99457 7.91562 1.99998 7.86743C2.00593 7.83914 2.0131 7.81111 2.02148 7.78344C2.03181 7.73877 2.04615 7.6956 2.06448 7.65393C2.08115 7.62393 2.09998 7.59527 2.12098 7.56794C2.15098 7.5186 2.18681 7.47444 2.22848 7.43544L2.23148 7.43294L3.17198 6.63544C3.23447 6.58732 3.30583 6.55199 3.38198 6.53147C3.45813 6.51095 3.53758 6.50565 3.61579 6.51587C3.69399 6.52609 3.76941 6.55162 3.83774 6.59101C3.90606 6.6304 3.96595 6.68288 4.01398 6.74544C4.0492 6.79652 4.07205 6.8551 4.08073 6.91654C4.08941 6.97798 4.08368 7.04059 4.06398 7.09944L2.58898 8.53644C2.48718 8.53816 2.38666 8.51351 2.2972 8.46489C2.20775 8.41626 2.1324 8.34531 2.07848 8.25894C2.04076 8.20543 2.01516 8.14435 2.00348 8.07994ZM3.26148 9.27744L4.87998 7.70044L4.87248 7.69294C4.96369 7.64802 5.06642 7.63197 5.16698 7.64693C5.29548 7.68193 5.41148 7.75394 5.49998 7.85394C5.58798 7.92894 5.64698 8.03194 5.66698 8.14594C5.67442 8.26143 5.64912 8.37668 5.59398 8.47844L5.58098 8.52094L3.94548 10.1144C3.83072 10.1195 3.71621 10.0998 3.60974 10.0567C3.50327 10.0135 3.40735 9.94796 3.32848 9.86444C3.26371 9.78256 3.22311 9.68421 3.21127 9.58049C3.19943 9.47677 3.21682 9.3718 3.26148 9.27744ZM4.65398 10.8199L6.34398 9.17544C6.45148 9.19694 6.54998 9.25194 6.62498 9.33244C6.72863 9.42319 6.80077 9.54452 6.83098 9.67894C6.83862 9.73676 6.83608 9.79548 6.82348 9.85244L5.36198 11.2749C5.26448 11.2929 5.164 11.2859 5.06997 11.2544C4.97595 11.2229 4.89148 11.168 4.82448 11.0949C4.74635 11.0183 4.68786 10.924 4.65398 10.8199ZM6.22248 12.3259C6.13183 12.2463 6.06038 12.1471 6.01348 12.0359L7.39398 10.6924C7.49248 10.7249 7.58248 10.7784 7.65798 10.8489C7.72848 10.9052 7.78168 10.9803 7.81148 11.0654C7.82847 11.1285 7.82847 11.1949 7.81148 11.2579C7.74929 11.4597 7.64518 11.6461 7.50598 11.8049L7.12798 12.2449H7.13098C7.11848 12.2529 7.10448 12.2564 7.09298 12.2654C6.95204 12.3941 6.77062 12.4696 6.57998 12.4789C6.4454 12.4766 6.31707 12.4217 6.22248 12.3259ZM8.45948 12.4794C8.38548 12.4911 8.31115 12.4944 8.23648 12.4894L8.27348 12.4464L8.28548 12.4319L8.28598 12.4324C8.43737 12.245 8.56562 12.04 8.66798 11.8219L8.88898 12.0559C8.87065 12.1033 8.84898 12.1488 8.82398 12.1924C8.78837 12.2644 8.73718 12.3274 8.67412 12.3771C8.61107 12.4267 8.53775 12.4617 8.45948 12.4794ZM11.6595 10.6169L10.77 9.63144C10.6936 9.54207 10.5881 9.4825 10.4722 9.46323C10.3562 9.44395 10.2372 9.46619 10.136 9.52604C10.0348 9.58589 9.95795 9.67952 9.919 9.79043C9.88004 9.90135 9.88145 10.0225 9.92298 10.1324C9.94613 10.1948 9.98149 10.2519 10.027 10.3004L10.745 11.1004C10.74 11.1518 10.7295 11.2018 10.7135 11.2504C10.6718 11.392 10.5768 11.512 10.4485 11.5849C10.2922 11.6875 10.1025 11.7261 9.91848 11.6929L9.31848 11.0559C9.25381 10.9877 9.17102 10.9392 9.07982 10.9163C8.98861 10.8933 8.89276 10.8969 8.80348 10.9264C8.79535 10.8779 8.78484 10.8299 8.77198 10.7824C8.68934 10.5212 8.53581 10.2881 8.32848 10.1089C8.18333 9.97617 8.01683 9.86884 7.83598 9.79144C7.83878 9.69843 7.83292 9.60536 7.81848 9.51344C7.75392 9.17299 7.58285 8.86185 7.32998 8.62494C7.14613 8.43872 6.91879 8.30125 6.66848 8.22494C6.67115 8.15827 6.66865 8.0916 6.66098 8.02494C6.61413 7.68821 6.45317 7.37776 6.20498 7.14544C5.97892 6.9087 5.68846 6.74339 5.36948 6.66994C5.26098 6.64898 5.15032 6.64142 5.03998 6.64744C5.00083 6.46168 4.92147 6.28674 4.80748 6.13493C4.67912 5.96824 4.51914 5.82849 4.3367 5.7237C4.15426 5.61891 3.95294 5.55113 3.74428 5.52424C3.53561 5.49735 3.32369 5.51188 3.12064 5.56699C2.9176 5.62211 2.72741 5.71673 2.56098 5.84544L2.54348 5.85944L1.92598 6.37944C1.63633 5.8522 1.49773 5.25528 1.52543 4.65435C1.55313 4.05343 1.74605 3.47179 2.08298 2.97344L2.09348 2.95844C2.36734 2.55031 2.72642 2.20641 3.14598 1.95044C3.91144 1.5517 4.788 1.41956 5.63698 1.57494L5.86898 1.61194C5.52633 1.76654 5.25259 2.04189 5.09998 2.38544C5.02623 2.57397 4.99115 2.77542 4.99682 2.97779C5.00249 3.18016 5.04879 3.37932 5.13298 3.56344C5.28275 3.9257 5.56208 4.21919 5.91649 4.38669C6.27091 4.55419 6.675 4.58369 7.04998 4.46944C7.70998 4.22494 8.46698 3.97944 8.74998 3.88994C8.77249 3.88919 8.79487 3.89353 8.81547 3.90262C8.83607 3.9117 8.85436 3.92531 8.86898 3.94244C9.11348 4.17244 12.065 6.75594 13.298 7.83044L13.398 7.91594C13.4756 8.0417 13.5088 8.18988 13.4922 8.33675C13.4756 8.48362 13.4102 8.62066 13.3065 8.72594C13.2352 8.80272 13.1417 8.85519 13.039 8.87594L12.1725 7.99744C12.0782 7.90766 11.9527 7.85805 11.8225 7.85905C11.6923 7.86006 11.5676 7.91162 11.4747 8.00283C11.3818 8.09405 11.3279 8.2178 11.3245 8.34796C11.3211 8.47812 11.3685 8.6045 11.4565 8.70044L12.2845 9.53944C12.2878 9.55444 12.2918 9.56927 12.2965 9.58394L12.3025 9.59944C12.3399 9.70621 12.3626 9.81756 12.37 9.93044C12.3839 10.0162 12.3766 10.104 12.3486 10.1862C12.3206 10.2684 12.2728 10.3425 12.2095 10.4019C12.06 10.5419 11.8625 10.6189 11.658 10.6169H11.6595Z" fill="black"/>
</svg>
