<svg width="344" height="745" viewBox="0 0 344 745" fill="none" xmlns="http://www.w3.org/2000/svg">
<rect width="343.723" height="745" fill="white"/>
<path d="M32.7381 47.0655C32.0631 47.0655 31.4414 46.947 30.8729 46.7102C30.3163 46.4733 29.8308 46.1477 29.4163 45.7332V46.7812H26.7518V29.7283H29.8426V36.7982C30.2334 36.4903 30.6716 36.2534 31.1571 36.0876C31.6427 35.9218 32.1697 35.839 32.7381 35.839C33.7328 35.839 34.6329 36.0936 35.4381 36.6028C36.2434 37.1002 36.8829 37.7752 37.3566 38.6278C37.8421 39.4805 38.0849 40.4219 38.0849 41.4522C38.0849 42.4825 37.8421 43.424 37.3566 44.2766C36.8829 45.1174 36.2434 45.7924 35.4381 46.3016C34.6329 46.8109 33.7328 47.0655 32.7381 47.0655ZM32.3828 44.3477C32.9039 44.3477 33.3776 44.2174 33.8039 43.9569C34.2302 43.6963 34.5677 43.347 34.8164 42.9088C35.0769 42.4706 35.2072 41.9851 35.2072 41.4522C35.2072 40.9193 35.0769 40.4338 34.8164 39.9956C34.5677 39.5574 34.2302 39.2081 33.8039 38.9476C33.3776 38.687 32.9039 38.5568 32.3828 38.5568C31.8618 38.5568 31.3881 38.687 30.9617 38.9476C30.5354 39.2081 30.192 39.5574 29.9315 39.9956C29.6828 40.4338 29.5584 40.9193 29.5584 41.4522C29.5584 41.9851 29.6828 42.4706 29.9315 42.9088C30.192 43.347 30.5354 43.6963 30.9617 43.9569C31.3881 44.2174 31.8618 44.3477 32.3828 44.3477ZM49.5084 47.1365C48.3123 47.1365 47.2583 46.8878 46.3465 46.3905C45.4346 45.8931 44.7241 45.2121 44.2148 44.3477C43.7056 43.4713 43.451 42.4706 43.451 41.3456C43.451 40.268 43.6997 39.3147 44.1971 38.4857C44.6945 37.6449 45.3635 36.9817 46.2044 36.4962C47.057 36.0107 47.9985 35.7679 49.0287 35.7679C50.0827 35.7679 51.0242 36.0107 51.8531 36.4962C52.6821 36.9699 53.3334 37.6212 53.8071 38.4502C54.2927 39.2791 54.5354 40.2206 54.5354 41.2746V42.3581H48.034C47.7379 42.3581 47.4537 42.3404 47.1813 42.3049C46.909 42.2693 46.6366 42.2279 46.3642 42.1805C46.5063 42.891 46.8557 43.4713 47.4123 43.9213C47.9807 44.3595 48.7031 44.5786 49.5794 44.5786C50.2544 44.5786 50.8584 44.4424 51.3913 44.17C51.936 43.8976 52.3801 43.5601 52.7235 43.1575L53.3986 45.9286C52.8657 46.3312 52.2617 46.6332 51.5867 46.8345C50.9235 47.0359 50.2307 47.1365 49.5084 47.1365ZM46.2932 40.3153C46.8853 40.1851 47.4656 40.1199 48.034 40.1199H49.9169C50.2485 40.1199 50.5623 40.1318 50.8584 40.1555C51.1544 40.1792 51.4327 40.2206 51.6933 40.2798C51.5156 39.6403 51.19 39.137 50.7163 38.7699C50.2544 38.4028 49.6801 38.2193 48.9932 38.2193C48.3419 38.2193 47.7735 38.4087 47.2879 38.7877C46.8142 39.1548 46.4826 39.664 46.2932 40.3153ZM65.1379 47.0655C64.155 47.0655 63.2609 46.8109 62.4556 46.3016C61.6503 45.7924 61.0049 45.1174 60.5194 44.2766C60.0457 43.424 59.8088 42.4825 59.8088 41.4522C59.8088 40.4219 60.0457 39.4805 60.5194 38.6278C61.0049 37.7752 61.6503 37.1002 62.4556 36.6028C63.2609 36.0936 64.155 35.839 65.1379 35.839C65.8247 35.839 66.4524 35.9633 67.0208 36.212C67.5892 36.4488 68.0748 36.7804 68.4774 37.2067V36.1232H71.1419V46.7812H68.4774V45.6977C68.0748 46.124 67.5892 46.4615 67.0208 46.7102C66.4524 46.947 65.8247 47.0655 65.1379 47.0655ZM65.5109 44.3477C66.032 44.3477 66.5057 44.2174 66.932 43.9569C67.3583 43.6963 67.6958 43.347 67.9445 42.9088C68.205 42.4706 68.3353 41.9851 68.3353 41.4522C68.3353 40.9193 68.205 40.4338 67.9445 39.9956C67.6958 39.5574 67.3583 39.2081 66.932 38.9476C66.5057 38.687 66.032 38.5568 65.5109 38.5568C64.9899 38.5568 64.5162 38.687 64.0898 38.9476C63.6635 39.2081 63.3201 39.5574 63.0596 39.9956C62.8109 40.4338 62.6865 40.9193 62.6865 41.4522C62.6865 41.9851 62.8109 42.4706 63.0596 42.9088C63.3201 43.347 63.6635 43.6963 64.0898 43.9569C64.5162 44.2174 64.9899 44.3477 65.5109 44.3477ZM82.7963 47.1365C81.7424 47.1365 80.7772 46.8819 79.9009 46.3727C79.0245 45.8635 78.3259 45.1766 77.8048 44.3121C77.2956 43.4476 77.041 42.4943 77.041 41.4522C77.041 40.3982 77.2956 39.4449 77.8048 38.5923C78.3259 37.7278 79.0245 37.0409 79.9009 36.5317C80.7772 36.0225 81.7424 35.7679 82.7963 35.7679C83.5305 35.7679 84.2233 35.8922 84.8747 36.1409C85.5378 36.3778 86.124 36.733 86.6332 37.2067L85.8339 40.3509C85.5378 39.8653 85.1411 39.4449 84.6437 39.0897C84.1582 38.7226 83.5838 38.539 82.9207 38.539C82.3641 38.539 81.8667 38.6693 81.4285 38.9298C80.9904 39.1903 80.6469 39.5397 80.3983 39.9778C80.1496 40.416 80.0252 40.9075 80.0252 41.4522C80.0252 41.9851 80.1496 42.4766 80.3983 42.9266C80.6469 43.3647 80.9904 43.7141 81.4285 43.9746C81.8667 44.2352 82.3641 44.3654 82.9207 44.3654C83.5838 44.3654 84.1582 44.1878 84.6437 43.8325C85.1411 43.4654 85.5378 43.0391 85.8339 42.5535L86.6332 45.6977C86.124 46.1714 85.5378 46.5326 84.8747 46.7812C84.2233 47.0181 83.5305 47.1365 82.7963 47.1365ZM97.5554 47.1365C96.5015 47.1365 95.5363 46.8819 94.66 46.3727C93.7837 45.8635 93.085 45.1766 92.5639 44.3121C92.0547 43.4476 91.8001 42.4943 91.8001 41.4522C91.8001 40.3982 92.0547 39.4449 92.5639 38.5923C93.085 37.7278 93.7837 37.0409 94.66 36.5317C95.5363 36.0225 96.5015 35.7679 97.5554 35.7679C98.6212 35.7679 99.5864 36.0225 100.451 36.5317C101.327 37.0409 102.02 37.7278 102.529 38.5923C103.05 39.4449 103.311 40.3982 103.311 41.4522C103.311 42.4943 103.05 43.4476 102.529 44.3121C102.02 45.1766 101.327 45.8635 100.451 46.3727C99.5864 46.8819 98.6212 47.1365 97.5554 47.1365ZM97.5554 44.3654C98.0883 44.3654 98.568 44.2352 98.9943 43.9746C99.4324 43.7141 99.7759 43.3647 100.025 42.9266C100.285 42.4766 100.415 41.9851 100.415 41.4522C100.415 40.9075 100.285 40.416 100.025 39.9778C99.7759 39.5397 99.4324 39.1903 98.9943 38.9298C98.568 38.6693 98.0883 38.539 97.5554 38.539C97.0225 38.539 96.537 38.6693 96.0988 38.9298C95.6725 39.1903 95.3291 39.5397 95.0686 39.9778C94.8199 40.416 94.6955 40.9075 94.6955 41.4522C94.6955 41.9851 94.8199 42.4766 95.0686 42.9266C95.3291 43.3647 95.6725 43.7141 96.0988 43.9746C96.537 44.2352 97.0225 44.3654 97.5554 44.3654ZM109.215 46.7812V36.1232H111.986V37.2956C112.365 36.7982 112.833 36.4192 113.39 36.1587C113.946 35.8982 114.544 35.7679 115.184 35.7679C115.942 35.7679 116.646 35.9515 117.298 36.3186C117.961 36.6738 118.494 37.2008 118.896 37.8995C119.311 38.5864 119.518 39.4213 119.518 40.4042V46.7812H116.427V40.8127C116.427 40.2206 116.25 39.6936 115.894 39.2318C115.539 38.7699 115.03 38.539 114.367 38.539C113.834 38.539 113.354 38.7226 112.928 39.0897C112.513 39.4449 112.306 40.0074 112.306 40.7772V46.7812H109.215Z" fill="#FF6060"/>
<rect x="25.9791" y="228.216" width="277.377" height="33.573" rx="5.99517" stroke="black" stroke-width="0.799356"/>
<path d="M43.9646 250.2C45.3835 250.2 46.7615 249.725 47.8791 248.851L51.393 252.365L52.5233 251.234L49.0094 247.72C49.884 246.603 50.3592 245.224 50.3595 243.805C50.3595 240.279 47.4906 237.41 43.9646 237.41C40.4387 237.41 37.5698 240.279 37.5698 243.805C37.5698 247.331 40.4387 250.2 43.9646 250.2ZM43.9646 239.009C46.6097 239.009 48.7607 241.16 48.7607 243.805C48.7607 246.45 46.6097 248.601 43.9646 248.601C41.3195 248.601 39.1685 246.45 39.1685 243.805C39.1685 241.16 41.3195 239.009 43.9646 239.009Z" fill="black"/>
<rect x="25.5794" y="283.77" width="278.176" height="272.58" rx="7.99356" fill="#FFD1D1"/>
<path d="M74.9063 253.677C74.3956 253.677 73.9293 253.603 73.5075 253.455C73.093 253.307 72.7229 253.103 72.3972 252.844L72.7303 251.49C72.9524 251.808 73.2484 252.067 73.6185 252.267C73.9886 252.467 74.4141 252.567 74.8952 252.567C75.6428 252.567 76.246 252.341 76.7049 251.889C77.1712 251.438 77.4043 250.857 77.4043 250.146V249.336C77.1083 249.632 76.7567 249.869 76.3496 250.046C75.9499 250.217 75.5207 250.302 75.0618 250.302C74.4548 250.302 73.8997 250.15 73.3964 249.847C72.8931 249.536 72.4898 249.121 72.1863 248.603C71.8902 248.085 71.7422 247.511 71.7422 246.882C71.7422 246.253 71.8902 245.68 72.1863 245.161C72.4898 244.643 72.8931 244.233 73.3964 243.929C73.8997 243.618 74.4548 243.463 75.0618 243.463C75.5207 243.463 75.9499 243.548 76.3496 243.718C76.7567 243.888 77.1083 244.125 77.4043 244.429V243.552H78.5145V250.213C78.5145 250.938 78.3443 251.56 78.0038 252.078C77.6708 252.596 77.2304 252.992 76.6827 253.266C76.135 253.54 75.5429 253.677 74.9063 253.677ZM75.2172 249.214C75.6391 249.214 76.0203 249.11 76.3607 248.903C76.7086 248.688 76.9824 248.407 77.1823 248.059C77.3895 247.704 77.4931 247.312 77.4931 246.882C77.4931 246.453 77.3895 246.064 77.1823 245.717C76.9824 245.361 76.7086 245.08 76.3607 244.873C76.0203 244.658 75.6391 244.551 75.2172 244.551C74.7953 244.551 74.4104 244.658 74.0626 244.873C73.7221 245.08 73.4483 245.361 73.241 245.717C73.0412 246.064 72.9413 246.453 72.9413 246.882C72.9413 247.312 73.0412 247.704 73.241 248.059C73.4483 248.407 73.7221 248.688 74.0626 248.903C74.4104 249.11 74.7953 249.214 75.2172 249.214ZM80.6392 250.213V239.555H81.8383V250.213H80.6392ZM83.9647 250.213V243.552H85.1637V250.213H83.9647ZM84.5642 242.353C84.3421 242.353 84.1534 242.275 83.998 242.119C83.8425 241.964 83.7648 241.775 83.7648 241.553C83.7648 241.324 83.8425 241.135 83.998 240.987C84.1534 240.832 84.3421 240.754 84.5642 240.754C84.7936 240.754 84.9824 240.832 85.1304 240.987C85.2858 241.135 85.3635 241.324 85.3635 241.553C85.3635 241.775 85.2858 241.964 85.1304 242.119C84.9824 242.275 84.7936 242.353 84.5642 242.353ZM90.3321 250.346C89.6882 250.346 89.0998 250.191 88.5669 249.88C88.034 249.569 87.6084 249.151 87.2901 248.625C86.9793 248.1 86.8238 247.519 86.8238 246.882C86.8238 246.238 86.9793 245.657 87.2901 245.139C87.6084 244.614 88.034 244.196 88.5669 243.885C89.0998 243.574 89.6882 243.418 90.3321 243.418C90.9834 243.418 91.5718 243.574 92.0974 243.885C92.6303 244.196 93.0521 244.614 93.363 245.139C93.6813 245.657 93.8404 246.238 93.8404 246.882C93.8404 247.519 93.6813 248.1 93.363 248.625C93.0521 249.151 92.6303 249.569 92.0974 249.88C91.5718 250.191 90.9834 250.346 90.3321 250.346ZM90.3321 249.214C90.7614 249.214 91.15 249.11 91.4978 248.903C91.8457 248.688 92.1233 248.407 92.3305 248.059C92.5377 247.704 92.6414 247.312 92.6414 246.882C92.6414 246.453 92.5377 246.064 92.3305 245.717C92.1233 245.361 91.8457 245.08 91.4978 244.873C91.15 244.658 90.7614 244.551 90.3321 244.551C89.9028 244.551 89.5142 244.658 89.1664 244.873C88.8185 245.08 88.541 245.361 88.3337 245.717C88.1265 246.064 88.0229 246.453 88.0229 246.882C88.0229 247.312 88.1265 247.704 88.3337 248.059C88.541 248.407 88.8185 248.688 89.1664 248.903C89.5142 249.11 89.9028 249.214 90.3321 249.214Z" fill="black"/>
<path d="M96.2004 323.153C95.475 323.153 94.7978 323.02 94.1687 322.753C93.5396 322.479 92.9845 322.106 92.5034 321.632C92.0297 321.151 91.6596 320.599 91.3931 319.978C91.1267 319.349 90.9935 318.675 90.9935 317.957C90.9935 317.239 91.1267 316.569 91.3931 315.948C91.667 315.319 92.0408 314.767 92.5145 314.293C92.9956 313.812 93.5507 313.439 94.1798 313.172C94.8089 312.898 95.4861 312.761 96.2115 312.761C96.922 312.761 97.5882 312.895 98.2099 313.161C98.8316 313.42 99.3793 313.779 99.853 314.238L99.4866 315.77C99.1462 315.222 98.6873 314.786 98.11 314.46C97.54 314.127 96.9072 313.96 96.2115 313.96C95.4787 313.96 94.8163 314.142 94.2242 314.504C93.6395 314.86 93.1732 315.341 92.8253 315.948C92.4775 316.547 92.3035 317.217 92.3035 317.957C92.3035 318.682 92.4738 319.349 92.8142 319.956C93.1621 320.562 93.6284 321.047 94.2131 321.41C94.8052 321.773 95.4676 321.954 96.2004 321.954C96.6149 321.954 97.0071 321.906 97.3772 321.81C97.7547 321.706 98.0989 321.562 98.4097 321.377V318.757H95.6564V317.624H99.631V322.021C99.1795 322.398 98.654 322.683 98.0544 322.875C97.4623 323.06 96.8443 323.153 96.2004 323.153ZM101.822 322.953V312.295H103.021V322.953H101.822ZM105.148 322.953V316.292H106.347V322.953H105.148ZM105.747 315.093C105.525 315.093 105.336 315.015 105.181 314.86C105.026 314.704 104.948 314.515 104.948 314.293C104.948 314.064 105.026 313.875 105.181 313.727C105.336 313.572 105.525 313.494 105.747 313.494C105.977 313.494 106.165 313.572 106.313 313.727C106.469 313.875 106.547 314.064 106.547 314.293C106.547 314.515 106.469 314.704 106.313 314.86C106.165 315.015 105.977 315.093 105.747 315.093ZM111.515 323.086C110.871 323.086 110.283 322.931 109.75 322.62C109.217 322.309 108.791 321.891 108.473 321.366C108.162 320.84 108.007 320.259 108.007 319.622C108.007 318.979 108.162 318.398 108.473 317.879C108.791 317.354 109.217 316.936 109.75 316.625C110.283 316.314 110.871 316.159 111.515 316.159C112.166 316.159 112.755 316.314 113.28 316.625C113.813 316.936 114.235 317.354 114.546 317.879C114.864 318.398 115.023 318.979 115.023 319.622C115.023 320.259 114.864 320.84 114.546 321.366C114.235 321.891 113.813 322.309 113.28 322.62C112.755 322.931 112.166 323.086 111.515 323.086ZM111.515 321.954C111.944 321.954 112.333 321.85 112.681 321.643C113.029 321.428 113.306 321.147 113.514 320.799C113.721 320.444 113.824 320.052 113.824 319.622C113.824 319.193 113.721 318.805 113.514 318.457C113.306 318.101 113.029 317.82 112.681 317.613C112.333 317.398 111.944 317.291 111.515 317.291C111.086 317.291 110.697 317.398 110.349 317.613C110.002 317.82 109.724 318.101 109.517 318.457C109.309 318.805 109.206 319.193 109.206 319.622C109.206 320.052 109.309 320.444 109.517 320.799C109.724 321.147 110.002 321.428 110.349 321.643C110.697 321.85 111.086 321.954 111.515 321.954ZM120.138 323.042C119.679 323.042 119.25 322.957 118.85 322.787C118.451 322.609 118.099 322.372 117.795 322.076V322.953H116.685V312.295H117.884V317.08C118.18 316.806 118.521 316.592 118.906 316.436C119.291 316.281 119.701 316.203 120.138 316.203C120.752 316.203 121.307 316.358 121.803 316.669C122.307 316.973 122.706 317.384 123.002 317.902C123.306 318.42 123.458 318.993 123.458 319.622C123.458 320.252 123.306 320.825 123.002 321.343C122.706 321.861 122.307 322.276 121.803 322.587C121.307 322.89 120.752 323.042 120.138 323.042ZM119.983 321.954C120.404 321.954 120.786 321.85 121.126 321.643C121.474 321.428 121.748 321.147 121.948 320.799C122.155 320.444 122.259 320.052 122.259 319.622C122.259 319.193 122.155 318.805 121.948 318.457C121.748 318.101 121.474 317.82 121.126 317.613C120.786 317.398 120.404 317.291 119.983 317.291C119.561 317.291 119.176 317.398 118.828 317.613C118.488 317.82 118.214 318.101 118.006 318.457C117.807 318.805 117.707 319.193 117.707 319.622C117.707 320.052 117.807 320.444 118.006 320.799C118.214 321.147 118.488 321.428 118.828 321.643C119.176 321.85 119.561 321.954 119.983 321.954ZM125.116 322.953V312.295H126.315V322.953H125.116ZM131.295 323.042C130.688 323.042 130.133 322.89 129.629 322.587C129.126 322.276 128.723 321.861 128.419 321.343C128.123 320.825 127.975 320.252 127.975 319.622C127.975 318.993 128.123 318.42 128.419 317.902C128.723 317.384 129.126 316.973 129.629 316.669C130.133 316.358 130.688 316.203 131.295 316.203C131.754 316.203 132.183 316.288 132.583 316.458C132.99 316.629 133.341 316.865 133.637 317.169V316.292H134.747V322.953H133.637V322.076C133.341 322.372 132.99 322.609 132.583 322.787C132.183 322.957 131.754 323.042 131.295 323.042ZM131.45 321.954C131.872 321.954 132.253 321.85 132.594 321.643C132.942 321.428 133.215 321.147 133.415 320.799C133.622 320.444 133.726 320.052 133.726 319.622C133.726 319.193 133.622 318.805 133.415 318.457C133.215 318.101 132.942 317.82 132.594 317.613C132.253 317.398 131.872 317.291 131.45 317.291C131.028 317.291 130.643 317.398 130.295 317.613C129.955 317.82 129.681 318.101 129.474 318.457C129.274 318.805 129.174 319.193 129.174 319.622C129.174 320.052 129.274 320.444 129.474 320.799C129.681 321.147 129.955 321.428 130.295 321.643C130.643 321.85 131.028 321.954 131.45 321.954ZM138.593 323.086C138.253 323.086 137.886 323.023 137.494 322.898C137.109 322.764 136.776 322.546 136.495 322.243L136.828 320.933C137.035 321.28 137.301 321.558 137.627 321.765C137.953 321.965 138.301 322.065 138.671 322.065C139.026 322.065 139.292 321.98 139.47 321.81C139.648 321.632 139.736 321.417 139.736 321.166C139.736 320.877 139.64 320.666 139.448 320.533C139.263 320.4 139.096 320.307 138.948 320.255L138.049 319.911C137.886 319.845 137.69 319.748 137.461 319.622C137.231 319.489 137.031 319.301 136.861 319.056C136.691 318.812 136.606 318.494 136.606 318.101C136.606 317.746 136.691 317.421 136.861 317.124C137.031 316.828 137.272 316.595 137.583 316.425C137.894 316.247 138.26 316.159 138.682 316.159C139.015 316.159 139.363 316.218 139.725 316.336C140.088 316.455 140.395 316.654 140.647 316.936L140.314 318.246C140.136 317.92 139.896 317.661 139.592 317.469C139.289 317.276 138.974 317.18 138.648 317.18C138.345 317.18 138.104 317.265 137.927 317.435C137.757 317.606 137.671 317.802 137.671 318.024C137.671 318.201 137.731 318.361 137.849 318.501C137.968 318.642 138.145 318.757 138.382 318.845L139.281 319.189C139.444 319.249 139.644 319.345 139.881 319.478C140.125 319.611 140.34 319.804 140.525 320.055C140.71 320.307 140.802 320.648 140.802 321.077C140.802 321.676 140.591 322.161 140.169 322.531C139.755 322.901 139.229 323.086 138.593 323.086ZM143.317 322.953V317.291H141.807V316.292H143.35V314.071H144.482V316.292H146.137V317.291H144.516V322.953H143.317ZM150.25 323.086C149.606 323.086 149.017 322.931 148.484 322.62C147.951 322.309 147.526 321.891 147.208 321.366C146.897 320.84 146.741 320.259 146.741 319.622C146.741 318.979 146.897 318.398 147.208 317.879C147.526 317.354 147.951 316.936 148.484 316.625C149.017 316.314 149.606 316.159 150.25 316.159C150.901 316.159 151.489 316.314 152.015 316.625C152.548 316.936 152.97 317.354 153.28 317.879C153.599 318.398 153.758 318.979 153.758 319.622C153.758 320.259 153.599 320.84 153.28 321.366C152.97 321.891 152.548 322.309 152.015 322.62C151.489 322.931 150.901 323.086 150.25 323.086ZM150.25 321.954C150.679 321.954 151.067 321.85 151.415 321.643C151.763 321.428 152.041 321.147 152.248 320.799C152.455 320.444 152.559 320.052 152.559 319.622C152.559 319.193 152.455 318.805 152.248 318.457C152.041 318.101 151.763 317.82 151.415 317.613C151.067 317.398 150.679 317.291 150.25 317.291C149.82 317.291 149.432 317.398 149.084 317.613C148.736 317.82 148.458 318.101 148.251 318.457C148.044 318.805 147.94 319.193 147.94 319.622C147.94 320.052 148.044 320.444 148.251 320.799C148.458 321.147 148.736 321.428 149.084 321.643C149.432 321.85 149.82 321.954 150.25 321.954ZM155.42 322.953V316.292H156.53V317.247C156.774 316.884 157.081 316.614 157.451 316.436C157.829 316.251 158.225 316.159 158.639 316.159C159.091 316.159 159.505 316.266 159.883 316.481C160.26 316.688 160.564 316.98 160.793 317.358C161.052 316.958 161.385 316.658 161.792 316.458C162.207 316.259 162.644 316.159 163.102 316.159C163.606 316.159 164.065 316.277 164.479 316.514C164.901 316.751 165.234 317.084 165.478 317.513C165.73 317.935 165.856 318.435 165.856 319.012V322.953H164.657V319.156C164.657 318.549 164.483 318.09 164.135 317.78C163.794 317.461 163.398 317.302 162.947 317.302C162.666 317.302 162.392 317.365 162.125 317.491C161.866 317.617 161.652 317.813 161.481 318.079C161.319 318.346 161.237 318.694 161.237 319.123V322.953H160.038V319.156C160.038 318.734 159.953 318.386 159.783 318.113C159.62 317.839 159.405 317.635 159.139 317.502C158.88 317.361 158.61 317.291 158.328 317.291C158.055 317.291 157.784 317.354 157.518 317.48C157.259 317.606 157.044 317.802 156.874 318.068C156.704 318.335 156.619 318.686 156.619 319.123V322.953H155.42ZM170.7 323.042C170.094 323.042 169.538 322.89 169.035 322.587C168.532 322.276 168.128 321.861 167.825 321.343C167.529 320.825 167.381 320.252 167.381 319.622C167.381 318.993 167.529 318.42 167.825 317.902C168.128 317.384 168.532 316.973 169.035 316.669C169.538 316.358 170.094 316.203 170.7 316.203C171.159 316.203 171.589 316.288 171.988 316.458C172.395 316.629 172.747 316.865 173.043 317.169V316.292H174.153V322.953H173.043V322.076C172.747 322.372 172.395 322.609 171.988 322.787C171.589 322.957 171.159 323.042 170.7 323.042ZM170.856 321.954C171.278 321.954 171.659 321.85 171.999 321.643C172.347 321.428 172.621 321.147 172.821 320.799C173.028 320.444 173.132 320.052 173.132 319.622C173.132 319.193 173.028 318.805 172.821 318.457C172.621 318.101 172.347 317.82 171.999 317.613C171.659 317.398 171.278 317.291 170.856 317.291C170.434 317.291 170.049 317.398 169.701 317.613C169.361 317.82 169.087 318.101 168.88 318.457C168.68 318.805 168.58 319.193 168.58 319.622C168.58 320.052 168.68 320.444 168.88 320.799C169.087 321.147 169.361 321.428 169.701 321.643C170.049 321.85 170.434 321.954 170.856 321.954Z" fill="black"/>
<path d="M96.2004 367.118C95.475 367.118 94.7978 366.985 94.1687 366.718C93.5396 366.444 92.9845 366.071 92.5034 365.597C92.0297 365.116 91.6596 364.564 91.3931 363.943C91.1267 363.313 90.9935 362.64 90.9935 361.922C90.9935 361.204 91.1267 360.534 91.3931 359.912C91.667 359.283 92.0408 358.732 92.5145 358.258C92.9956 357.777 93.5507 357.403 94.1798 357.137C94.8089 356.863 95.4861 356.726 96.2115 356.726C96.922 356.726 97.5882 356.859 98.2099 357.126C98.8316 357.385 99.3793 357.744 99.853 358.203L99.4866 359.735C99.1462 359.187 98.6873 358.75 98.11 358.425C97.54 358.092 96.9072 357.925 96.2115 357.925C95.4787 357.925 94.8163 358.107 94.2242 358.469C93.6395 358.824 93.1732 359.306 92.8253 359.912C92.4775 360.512 92.3035 361.182 92.3035 361.922C92.3035 362.647 92.4738 363.313 92.8142 363.92C93.1621 364.527 93.6284 365.012 94.2131 365.375C94.8052 365.737 95.4676 365.919 96.2004 365.919C96.6149 365.919 97.0071 365.871 97.3772 365.774C97.7547 365.671 98.0989 365.526 98.4097 365.341V362.721H95.6564V361.589H99.631V365.985C99.1795 366.363 98.654 366.648 98.0544 366.84C97.4623 367.025 96.8443 367.118 96.2004 367.118ZM101.822 366.918V356.26H103.021V366.918H101.822ZM105.148 366.918V360.257H106.347V366.918H105.148ZM105.747 359.058C105.525 359.058 105.336 358.98 105.181 358.824C105.026 358.669 104.948 358.48 104.948 358.258C104.948 358.029 105.026 357.84 105.181 357.692C105.336 357.537 105.525 357.459 105.747 357.459C105.977 357.459 106.165 357.537 106.313 357.692C106.469 357.84 106.547 358.029 106.547 358.258C106.547 358.48 106.469 358.669 106.313 358.824C106.165 358.98 105.977 359.058 105.747 359.058ZM111.515 367.051C110.871 367.051 110.283 366.896 109.75 366.585C109.217 366.274 108.791 365.856 108.473 365.33C108.162 364.805 108.007 364.224 108.007 363.587C108.007 362.943 108.162 362.362 108.473 361.844C108.791 361.319 109.217 360.901 109.75 360.59C110.283 360.279 110.871 360.123 111.515 360.123C112.166 360.123 112.755 360.279 113.28 360.59C113.813 360.901 114.235 361.319 114.546 361.844C114.864 362.362 115.023 362.943 115.023 363.587C115.023 364.224 114.864 364.805 114.546 365.33C114.235 365.856 113.813 366.274 113.28 366.585C112.755 366.896 112.166 367.051 111.515 367.051ZM111.515 365.919C111.944 365.919 112.333 365.815 112.681 365.608C113.029 365.393 113.306 365.112 113.514 364.764C113.721 364.409 113.824 364.017 113.824 363.587C113.824 363.158 113.721 362.769 113.514 362.422C113.306 362.066 113.029 361.785 112.681 361.578C112.333 361.363 111.944 361.256 111.515 361.256C111.086 361.256 110.697 361.363 110.349 361.578C110.002 361.785 109.724 362.066 109.517 362.422C109.309 362.769 109.206 363.158 109.206 363.587C109.206 364.017 109.309 364.409 109.517 364.764C109.724 365.112 110.002 365.393 110.349 365.608C110.697 365.815 111.086 365.919 111.515 365.919ZM116.685 366.918V360.257H117.795V361.211C118.04 360.849 118.347 360.579 118.717 360.401C119.094 360.216 119.49 360.123 119.905 360.123C120.356 360.123 120.771 360.231 121.148 360.445C121.526 360.653 121.829 360.945 122.059 361.322C122.318 360.923 122.651 360.623 123.058 360.423C123.472 360.223 123.909 360.123 124.368 360.123C124.871 360.123 125.33 360.242 125.745 360.479C126.167 360.716 126.5 361.049 126.744 361.478C126.995 361.9 127.121 362.399 127.121 362.977V366.918H125.922V363.121C125.922 362.514 125.748 362.055 125.4 361.744C125.06 361.426 124.664 361.267 124.213 361.267C123.931 361.267 123.657 361.33 123.391 361.456C123.132 361.582 122.917 361.778 122.747 362.044C122.584 362.311 122.503 362.658 122.503 363.088V366.918H121.304V363.121C121.304 362.699 121.219 362.351 121.048 362.077C120.886 361.804 120.671 361.6 120.404 361.467C120.145 361.326 119.875 361.256 119.594 361.256C119.32 361.256 119.05 361.319 118.784 361.445C118.525 361.57 118.31 361.767 118.14 362.033C117.969 362.299 117.884 362.651 117.884 363.088V366.918H116.685ZM131.966 367.007C131.359 367.007 130.804 366.855 130.301 366.552C129.797 366.241 129.394 365.826 129.091 365.308C128.795 364.79 128.646 364.216 128.646 363.587C128.646 362.958 128.795 362.385 129.091 361.866C129.394 361.348 129.797 360.938 130.301 360.634C130.804 360.323 131.359 360.168 131.966 360.168C132.425 360.168 132.854 360.253 133.254 360.423C133.661 360.593 134.013 360.83 134.309 361.134V360.257H135.419V366.918H134.309V366.041C134.013 366.337 133.661 366.574 133.254 366.751C132.854 366.922 132.425 367.007 131.966 367.007ZM132.121 365.919C132.543 365.919 132.925 365.815 133.265 365.608C133.613 365.393 133.887 365.112 134.087 364.764C134.294 364.409 134.397 364.017 134.397 363.587C134.397 363.158 134.294 362.769 134.087 362.422C133.887 362.066 133.613 361.785 133.265 361.578C132.925 361.363 132.543 361.256 132.121 361.256C131.7 361.256 131.315 361.363 130.967 361.578C130.626 361.785 130.353 362.066 130.145 362.422C129.945 362.769 129.846 363.158 129.846 363.587C129.846 364.017 129.945 364.409 130.145 364.764C130.353 365.112 130.626 365.393 130.967 365.608C131.315 365.815 131.7 365.919 132.121 365.919Z" fill="black"/>
<path fill-rule="evenodd" clip-rule="evenodd" d="M54.8559 306.053C53.4779 306.053 52.1563 306.6 51.1819 307.575C50.2075 308.549 49.6601 309.871 49.6601 311.249V312.711C48.5452 313 47.5579 313.651 46.8531 314.562C46.1483 315.473 45.7659 316.592 45.7659 317.744C45.7659 318.895 46.1483 320.014 46.8531 320.925C47.5579 321.836 48.5452 322.487 49.6601 322.776V324.238C49.66 325.294 49.9813 326.324 50.5813 327.192C51.1813 328.061 52.0315 328.726 53.0187 329.099C54.006 329.472 55.0834 329.536 56.1077 329.281C57.1321 329.027 58.0547 328.467 58.7527 327.675C59.4508 328.467 60.3734 329.027 61.3977 329.281C62.422 329.536 63.4995 329.472 64.4867 329.099C65.474 328.726 66.3242 328.061 66.9241 327.192C67.5241 326.324 67.8455 325.294 67.8454 324.238V322.776C68.9602 322.487 69.9475 321.836 70.6524 320.925C71.3572 320.014 71.7396 318.895 71.7396 317.744C71.7396 316.592 71.3572 315.473 70.6524 314.562C69.9475 313.651 68.9602 313 67.8454 312.711V311.249C67.8455 310.193 67.5241 309.163 66.9241 308.295C66.3242 307.427 65.474 306.762 64.4867 306.388C63.4995 306.015 62.422 305.952 61.3977 306.206C60.3734 306.46 59.4508 307.02 58.7527 307.812C58.2651 307.259 57.6655 306.816 56.9936 306.513C56.3217 306.21 55.593 306.053 54.8559 306.053ZM65.2475 313.847V311.249C65.2475 310.56 64.9738 309.899 64.4866 309.412C63.9994 308.925 63.3386 308.651 62.6496 308.651C61.9606 308.651 61.2998 308.925 60.8126 309.412C60.3254 309.899 60.0517 310.56 60.0517 311.249V317.14C60.8417 316.684 61.7376 316.444 62.6496 316.445C62.9941 316.445 63.3245 316.582 63.5681 316.825C63.8117 317.069 63.9486 317.399 63.9486 317.744C63.9486 318.088 63.8117 318.419 63.5681 318.662C63.3245 318.906 62.9941 319.043 62.6496 319.043C61.9606 319.043 61.2998 319.316 60.8126 319.804C60.3254 320.291 60.0517 320.951 60.0517 321.641V324.238C60.0517 324.927 60.3254 325.588 60.8126 326.075C61.2998 326.563 61.9606 326.836 62.6496 326.836C63.3386 326.836 63.9994 326.563 64.4866 326.075C64.9738 325.588 65.2475 324.927 65.2475 324.238V322.776C65.1015 322.738 64.9571 322.694 64.815 322.643C64.4901 322.529 64.2241 322.29 64.0755 321.979C63.9269 321.668 63.9079 321.311 64.0226 320.986C64.1373 320.661 64.3764 320.395 64.6872 320.246C64.9981 320.098 65.3552 320.079 65.6801 320.193C66.0367 320.319 66.4165 320.366 66.793 320.33C67.1695 320.293 67.5335 320.176 67.8597 319.984C68.1859 319.793 68.4663 319.532 68.6814 319.221C68.8965 318.91 69.0411 318.556 69.1051 318.183C69.1691 317.81 69.1509 317.428 69.0518 317.063C68.9528 316.698 68.7752 316.359 68.5315 316.07C68.2879 315.781 67.984 315.548 67.6411 315.388C67.2983 315.229 66.9247 315.146 66.5465 315.146C66.202 315.146 65.8716 315.009 65.628 314.765C65.3844 314.522 65.2475 314.191 65.2475 313.847ZM54.8559 319.043C55.5449 319.043 56.2057 319.316 56.6929 319.804C57.1801 320.291 57.4538 320.951 57.4538 321.641V324.238C57.4538 324.927 57.1801 325.588 56.6929 326.075C56.2057 326.563 55.5449 326.836 54.8559 326.836C54.1669 326.836 53.5061 326.563 53.0189 326.075C52.5317 325.588 52.258 324.927 52.258 324.238V322.776C52.4052 322.738 52.5494 322.694 52.6905 322.643C53.0154 322.529 53.2814 322.29 53.43 321.979C53.5786 321.668 53.5976 321.311 53.4829 320.986C53.3682 320.661 53.1291 320.395 52.8183 320.246C52.5074 320.098 52.1503 320.079 51.8254 320.193C51.4688 320.319 51.0889 320.366 50.7125 320.33C50.336 320.293 49.972 320.176 49.6458 319.984C49.3196 319.793 49.0392 319.532 48.8241 319.221C48.609 318.91 48.4644 318.556 48.4004 318.183C48.3364 317.81 48.3546 317.428 48.4537 317.063C48.5527 316.698 48.7303 316.359 48.974 316.07C49.2176 315.781 49.5215 315.548 49.8644 315.388C50.2072 315.229 50.5808 315.146 50.959 315.146C51.3035 315.146 51.6339 315.009 51.8775 314.765C52.1211 314.522 52.258 314.191 52.258 313.847V311.249C52.258 310.56 52.5317 309.899 53.0189 309.412C53.5061 308.925 54.1669 308.651 54.8559 308.651C55.5449 308.651 56.2057 308.925 56.6929 309.412C57.1801 309.899 57.4538 310.56 57.4538 311.249V317.14C56.6638 316.684 55.7678 316.444 54.8559 316.445C54.5114 316.445 54.181 316.582 53.9374 316.825C53.6938 317.069 53.5569 317.399 53.5569 317.744C53.5569 318.088 53.6938 318.419 53.9374 318.662C54.181 318.906 54.5114 319.043 54.8559 319.043Z" fill="black"/>
<path fill-rule="evenodd" clip-rule="evenodd" d="M54.8559 350.817C53.4779 350.817 52.1563 351.364 51.1819 352.339C50.2075 353.313 49.6601 354.635 49.6601 356.013V357.475C48.5452 357.764 47.5579 358.415 46.8531 359.326C46.1483 360.237 45.7659 361.356 45.7659 362.507C45.7659 363.659 46.1483 364.778 46.8531 365.689C47.5579 366.6 48.5452 367.251 49.6601 367.539V369.002C49.66 370.057 49.9813 371.088 50.5813 371.956C51.1813 372.824 52.0315 373.489 53.0187 373.863C54.006 374.236 55.0834 374.299 56.1077 374.045C57.1321 373.791 58.0547 373.231 58.7527 372.439C59.4508 373.231 60.3734 373.791 61.3977 374.045C62.422 374.299 63.4995 374.236 64.4867 373.863C65.474 373.489 66.3242 372.824 66.9241 371.956C67.5241 371.088 67.8455 370.057 67.8454 369.002V367.539C68.9602 367.251 69.9475 366.6 70.6524 365.689C71.3572 364.778 71.7396 363.659 71.7396 362.507C71.7396 361.356 71.3572 360.237 70.6524 359.326C69.9475 358.415 68.9602 357.764 67.8454 357.475V356.013C67.8455 354.957 67.5241 353.927 66.9241 353.058C66.3242 352.19 65.474 351.525 64.4867 351.152C63.4995 350.779 62.422 350.715 61.3977 350.969C60.3734 351.224 59.4508 351.784 58.7527 352.576C58.2651 352.023 57.6655 351.58 56.9936 351.277C56.3217 350.973 55.593 350.817 54.8559 350.817ZM65.2475 358.61V356.013C65.2475 355.324 64.9738 354.663 64.4866 354.176C63.9994 353.688 63.3386 353.415 62.6496 353.415C61.9606 353.415 61.2998 353.688 60.8126 354.176C60.3254 354.663 60.0517 355.324 60.0517 356.013V361.903C60.8417 361.448 61.7376 361.208 62.6496 361.208C62.9941 361.208 63.3245 361.345 63.5681 361.589C63.8117 361.832 63.9486 362.163 63.9486 362.507C63.9486 362.852 63.8117 363.182 63.5681 363.426C63.3245 363.669 62.9941 363.806 62.6496 363.806C61.9606 363.806 61.2998 364.08 60.8126 364.567C60.3254 365.054 60.0517 365.715 60.0517 366.404V369.002C60.0517 369.691 60.3254 370.352 60.8126 370.839C61.2998 371.326 61.9606 371.6 62.6496 371.6C63.3386 371.6 63.9994 371.326 64.4866 370.839C64.9738 370.352 65.2475 369.691 65.2475 369.002V367.539C65.1015 367.502 64.9571 367.457 64.815 367.407C64.4901 367.292 64.2241 367.053 64.0755 366.742C63.9269 366.432 63.9079 366.074 64.0226 365.75C64.1373 365.425 64.3764 365.159 64.6872 365.01C64.9981 364.861 65.3552 364.842 65.6801 364.957C66.0367 365.083 66.4165 365.129 66.793 365.093C67.1695 365.057 67.5335 364.939 67.8597 364.748C68.1859 364.556 68.4663 364.296 68.6814 363.985C68.8965 363.674 69.0411 363.32 69.1051 362.947C69.1691 362.574 69.1509 362.192 69.0518 361.827C68.9528 361.462 68.7752 361.123 68.5315 360.834C68.2879 360.544 67.984 360.312 67.6411 360.152C67.2983 359.993 66.9247 359.91 66.5465 359.909C66.202 359.909 65.8716 359.773 65.628 359.529C65.3844 359.285 65.2475 358.955 65.2475 358.61ZM54.8559 363.806C55.5449 363.806 56.2057 364.08 56.6929 364.567C57.1801 365.054 57.4538 365.715 57.4538 366.404V369.002C57.4538 369.691 57.1801 370.352 56.6929 370.839C56.2057 371.326 55.5449 371.6 54.8559 371.6C54.1669 371.6 53.5061 371.326 53.0189 370.839C52.5317 370.352 52.258 369.691 52.258 369.002V367.539C52.4052 367.501 52.5494 367.457 52.6905 367.407C53.0154 367.292 53.2814 367.053 53.43 366.742C53.5786 366.432 53.5976 366.074 53.4829 365.75C53.3682 365.425 53.1291 365.159 52.8183 365.01C52.5074 364.861 52.1503 364.842 51.8254 364.957C51.4688 365.083 51.0889 365.129 50.7125 365.093C50.336 365.057 49.972 364.939 49.6458 364.748C49.3196 364.556 49.0392 364.296 48.8241 363.985C48.609 363.674 48.4644 363.32 48.4004 362.947C48.3364 362.574 48.3546 362.192 48.4537 361.827C48.5527 361.462 48.7303 361.123 48.974 360.834C49.2176 360.544 49.5215 360.312 49.8644 360.152C50.2072 359.993 50.5808 359.91 50.959 359.909C51.3035 359.909 51.6339 359.773 51.8775 359.529C52.1211 359.285 52.258 358.955 52.258 358.61V356.013C52.258 355.324 52.5317 354.663 53.0189 354.176C53.5061 353.688 54.1669 353.415 54.8559 353.415C55.5449 353.415 56.2057 353.688 56.6929 354.176C57.1801 354.663 57.4538 355.324 57.4538 356.013V361.903C56.6638 361.448 55.7678 361.208 54.8559 361.208C54.5114 361.208 54.181 361.345 53.9374 361.589C53.6938 361.832 53.5569 362.163 53.5569 362.507C53.5569 362.852 53.6938 363.182 53.9374 363.426C54.181 363.669 54.5114 363.806 54.8559 363.806Z" fill="black"/>
<path d="M35.1717 610.709L29.5762 605.113M29.5762 605.113L35.1717 599.518M29.5762 605.113H40.7672" stroke="black" stroke-width="1.59871" stroke-linecap="round" stroke-linejoin="round"/>
<path d="M53.3571 609.922V599.93H56.1549C56.7914 599.93 57.2947 600.056 57.6648 600.307C58.0422 600.559 58.3124 600.866 58.4752 601.229C58.6381 601.584 58.7195 601.921 58.7195 602.239C58.7195 602.602 58.6344 602.935 58.4641 603.238C58.3013 603.534 58.0792 603.779 57.798 603.971C58.3383 604.215 58.775 604.582 59.108 605.07C59.4485 605.559 59.6187 606.114 59.6187 606.736C59.6187 607.261 59.4855 607.768 59.2191 608.257C58.96 608.745 58.5714 609.145 58.0533 609.456C57.5426 609.766 56.9098 609.922 56.1549 609.922H53.3571ZM54.6228 608.789H56.0661C56.6138 608.789 57.0541 608.682 57.3872 608.467C57.7203 608.253 57.9645 607.983 58.12 607.657C58.2754 607.331 58.3531 607.009 58.3531 606.691C58.3531 606.38 58.2791 606.062 58.1311 605.736C57.983 605.411 57.7425 605.141 57.4094 604.926C57.0764 604.704 56.6286 604.593 56.0661 604.593H54.6228V608.789ZM54.6228 603.527H56.055C56.4916 603.527 56.8432 603.423 57.1097 603.216C57.3835 603.002 57.5204 602.698 57.5204 602.306C57.5204 601.899 57.3872 601.592 57.1208 601.384C56.8543 601.17 56.5138 601.062 56.0994 601.062H54.6228V603.527ZM64.1987 610.011C63.5918 610.011 63.0367 609.859 62.5334 609.556C62.0301 609.245 61.6267 608.83 61.3233 608.312C61.0272 607.794 60.8792 607.22 60.8792 606.591C60.8792 605.962 61.0272 605.388 61.3233 604.87C61.6267 604.352 62.0301 603.942 62.5334 603.638C63.0367 603.327 63.5918 603.172 64.1987 603.172C64.6576 603.172 65.0869 603.257 65.4866 603.427C65.8937 603.597 66.2452 603.834 66.5413 604.138V603.261H67.6515V609.922H66.5413V609.045C66.2452 609.341 65.8937 609.578 65.4866 609.755C65.0869 609.926 64.6576 610.011 64.1987 610.011ZM64.3542 608.923C64.7761 608.923 65.1572 608.819 65.4977 608.612C65.8456 608.397 66.1194 608.116 66.3193 607.768C66.5265 607.413 66.6301 607.021 66.6301 606.591C66.6301 606.162 66.5265 605.773 66.3193 605.425C66.1194 605.07 65.8456 604.789 65.4977 604.582C65.1572 604.367 64.7761 604.26 64.3542 604.26C63.9323 604.26 63.5474 604.367 63.1995 604.582C62.8591 604.789 62.5852 605.07 62.378 605.425C62.1781 605.773 62.0782 606.162 62.0782 606.591C62.0782 607.021 62.1781 607.413 62.378 607.768C62.5852 608.116 62.8591 608.397 63.1995 608.612C63.5474 608.819 63.9323 608.923 64.3542 608.923ZM72.8404 610.055C72.1891 610.055 71.5969 609.9 71.064 609.589C70.5311 609.278 70.1056 608.86 69.7873 608.334C69.469 607.809 69.3099 607.228 69.3099 606.591C69.3099 605.955 69.469 605.374 69.7873 604.848C70.1056 604.323 70.5311 603.904 71.064 603.594C71.5969 603.283 72.1891 603.127 72.8404 603.127C73.3215 603.127 73.773 603.212 74.1949 603.383C74.6167 603.553 74.9868 603.779 75.3051 604.06L74.9387 605.57C74.7537 605.2 74.4724 604.889 74.0949 604.637C73.7249 604.386 73.303 604.26 72.8293 604.26C72.4 604.26 72.0077 604.367 71.6525 604.582C71.3046 604.789 71.027 605.07 70.8198 605.425C70.6126 605.773 70.5089 606.162 70.5089 606.591C70.5089 607.013 70.6126 607.402 70.8198 607.757C71.027 608.112 71.3046 608.397 71.6525 608.612C72.0077 608.819 72.4 608.923 72.8293 608.923C73.303 608.923 73.7249 608.801 74.0949 608.556C74.4724 608.312 74.7537 607.997 74.9387 607.613L75.3051 609.123C74.9868 609.404 74.6167 609.63 74.1949 609.8C73.773 609.97 73.3215 610.055 72.8404 610.055ZM81.1115 609.922L78.1028 606.258L80.5786 603.261H81.9664L79.535 606.169L82.6325 609.922H81.1115ZM76.7706 609.922V599.264H77.9696V609.922H76.7706Z" fill="black"/>
<path d="M294.163 599.518L299.759 605.113M299.759 605.113L294.163 610.709M299.759 605.113H288.568" stroke="black" stroke-width="1.59871" stroke-linecap="round" stroke-linejoin="round"/>
<path d="M246.801 609.922V599.93H251.731V601.062H248.067V603.194H251.398V604.326H248.067V609.922H246.801ZM253.135 609.922V603.261H254.334V609.922H253.135ZM253.734 602.062C253.512 602.062 253.323 601.984 253.168 601.828C253.013 601.673 252.935 601.484 252.935 601.262C252.935 601.033 253.013 600.844 253.168 600.696C253.323 600.541 253.512 600.463 253.734 600.463C253.964 600.463 254.152 600.541 254.3 600.696C254.456 600.844 254.534 601.033 254.534 601.262C254.534 601.484 254.456 601.673 254.3 601.828C254.152 601.984 253.964 602.062 253.734 602.062ZM256.46 609.922V603.261H257.57V604.337C257.815 603.945 258.129 603.645 258.514 603.438C258.906 603.231 259.328 603.127 259.78 603.127C260.253 603.127 260.69 603.246 261.09 603.483C261.497 603.712 261.826 604.049 262.078 604.493C262.329 604.93 262.455 605.463 262.455 606.092V609.922H261.256V606.258C261.256 605.733 261.097 605.27 260.779 604.87C260.468 604.463 260.028 604.26 259.458 604.26C258.991 604.26 258.573 604.43 258.203 604.77C257.84 605.104 257.659 605.588 257.659 606.225V609.922H256.46ZM264.454 609.922V603.261H265.653V609.922H264.454ZM265.053 602.062C264.831 602.062 264.642 601.984 264.487 601.828C264.332 601.673 264.254 601.484 264.254 601.262C264.254 601.033 264.332 600.844 264.487 600.696C264.642 600.541 264.831 600.463 265.053 600.463C265.283 600.463 265.471 600.541 265.619 600.696C265.775 600.844 265.853 601.033 265.853 601.262C265.853 601.484 265.775 601.673 265.619 601.828C265.471 601.984 265.283 602.062 265.053 602.062ZM269.5 610.055C269.159 610.055 268.793 609.992 268.401 609.866C268.016 609.733 267.683 609.515 267.402 609.211L267.735 607.901C267.942 608.249 268.208 608.527 268.534 608.734C268.86 608.934 269.208 609.034 269.578 609.034C269.933 609.034 270.199 608.949 270.377 608.778C270.555 608.601 270.643 608.386 270.643 608.134C270.643 607.846 270.547 607.635 270.355 607.502C270.17 607.368 270.003 607.276 269.855 607.224L268.956 606.88C268.793 606.813 268.597 606.717 268.368 606.591C268.138 606.458 267.938 606.269 267.768 606.025C267.598 605.781 267.513 605.463 267.513 605.07C267.513 604.715 267.598 604.389 267.768 604.093C267.938 603.797 268.179 603.564 268.49 603.394C268.801 603.216 269.167 603.127 269.589 603.127C269.922 603.127 270.27 603.187 270.632 603.305C270.995 603.423 271.302 603.623 271.554 603.904L271.221 605.215C271.043 604.889 270.803 604.63 270.499 604.437C270.196 604.245 269.881 604.149 269.555 604.149C269.252 604.149 269.011 604.234 268.834 604.404C268.664 604.574 268.578 604.77 268.578 604.993C268.578 605.17 268.638 605.329 268.756 605.47C268.875 605.611 269.052 605.725 269.289 605.814L270.188 606.158C270.351 606.217 270.551 606.314 270.788 606.447C271.032 606.58 271.247 606.773 271.432 607.024C271.617 607.276 271.709 607.616 271.709 608.046C271.709 608.645 271.498 609.13 271.076 609.5C270.662 609.87 270.136 610.055 269.5 610.055ZM273.446 609.922V599.264H274.645V604.204C274.897 603.856 275.208 603.59 275.578 603.405C275.948 603.22 276.344 603.127 276.766 603.127C277.24 603.127 277.676 603.246 278.076 603.483C278.483 603.712 278.812 604.049 279.064 604.493C279.316 604.93 279.442 605.463 279.442 606.092V609.922H278.243V606.258C278.243 605.733 278.083 605.27 277.765 604.87C277.454 604.463 277.014 604.26 276.444 604.26C275.978 604.26 275.56 604.43 275.189 604.77C274.827 605.104 274.645 605.588 274.645 606.225V609.922H273.446Z" fill="black"/>
<path d="M31.9565 172.015L25.7926 155.495H27.8531L31.4769 165.088C31.6071 165.419 31.7137 165.739 31.7966 166.047C31.8795 166.343 31.9683 166.698 32.0631 167.113C32.1578 166.698 32.2466 166.343 32.3295 166.047C32.4243 165.739 32.5308 165.419 32.6493 165.088L36.3085 154.962L39.9501 165.088C40.0566 165.384 40.1573 165.686 40.252 165.994C40.3586 166.29 40.4534 166.663 40.5362 167.113C40.631 166.663 40.7257 166.29 40.8205 165.994C40.9152 165.686 41.0218 165.384 41.1402 165.088L44.764 155.495H46.6824L40.5362 172.015L36.8414 161.641C36.7349 161.334 36.6342 161.038 36.5395 160.753C36.4447 160.457 36.35 160.084 36.2553 159.634C36.1605 160.084 36.0658 160.457 35.971 160.753C35.8763 161.038 35.7756 161.334 35.6691 161.641L31.9565 172.015ZM48.5925 171.482V154.429H50.511V162.334C50.9136 161.778 51.411 161.351 52.0031 161.055C52.5952 160.759 53.2288 160.611 53.9038 160.611C54.6617 160.611 55.3604 160.801 55.9999 161.18C56.6512 161.547 57.1782 162.086 57.5809 162.796C57.9835 163.495 58.1848 164.347 58.1848 165.354V171.482H56.2664V165.62C56.2664 164.78 56.0117 164.04 55.5025 163.4C55.0052 162.749 54.3005 162.423 53.3887 162.423C52.6426 162.423 51.9735 162.695 51.3814 163.24C50.8011 163.773 50.511 164.549 50.511 165.567V171.482H48.5925ZM65.9475 171.625C64.9764 171.625 64.0882 171.382 63.2829 170.896C62.4777 170.399 61.8322 169.736 61.3467 168.907C60.873 168.078 60.6362 167.16 60.6362 166.153C60.6362 165.147 60.873 164.229 61.3467 163.4C61.8322 162.571 62.4777 161.914 63.2829 161.428C64.0882 160.931 64.9764 160.682 65.9475 160.682C66.6817 160.682 67.3685 160.818 68.008 161.091C68.6593 161.363 69.2219 161.742 69.6955 162.228V160.824H71.4719V171.482H69.6955V170.079C69.2219 170.553 68.6593 170.932 68.008 171.216C67.3685 171.488 66.6817 171.625 65.9475 171.625ZM66.1961 169.884C66.8712 169.884 67.481 169.718 68.0258 169.386C68.5824 169.043 69.0205 168.593 69.3403 168.036C69.6719 167.468 69.8377 166.84 69.8377 166.153C69.8377 165.467 69.6719 164.845 69.3403 164.288C69.0205 163.72 68.5824 163.27 68.0258 162.938C67.481 162.595 66.8712 162.423 66.1961 162.423C65.5211 162.423 64.9053 162.595 64.3487 162.938C63.804 163.27 63.3658 163.72 63.0342 164.288C62.7145 164.845 62.5546 165.467 62.5546 166.153C62.5546 166.84 62.7145 167.468 63.0342 168.036C63.3658 168.593 63.804 169.043 64.3487 169.386C64.9053 169.718 65.5211 169.884 66.1961 169.884ZM76.1148 171.482V162.423H73.699V160.824H76.1681V157.272H77.98V160.824H80.6267V162.423H78.0333V171.482H76.1148ZM92.0759 172.015L86.6935 160.824H88.8784L91.0278 165.443C91.2291 165.881 91.4186 166.307 91.5962 166.722C91.7857 167.136 91.9693 167.657 92.1469 168.285C92.3364 167.669 92.5259 167.148 92.7153 166.722C92.9167 166.295 93.1061 165.869 93.2838 165.443L95.4331 160.327L97.5648 165.443C97.7424 165.881 97.926 166.307 98.1154 166.722C98.3049 167.136 98.4885 167.657 98.6661 168.285C98.8437 167.657 99.0273 167.136 99.2168 166.722C99.4062 166.295 99.6016 165.869 99.803 165.443L101.988 160.824H104.031L98.6483 172.015L96.4812 167.255C96.2917 166.828 96.1022 166.408 95.9128 165.994C95.7351 165.567 95.5516 165.058 95.3621 164.466C95.1845 165.058 95.0009 165.567 94.8114 165.994C94.6219 166.408 94.4266 166.828 94.2252 167.255L92.0759 172.015ZM110.502 171.696C109.389 171.696 108.388 171.447 107.5 170.95C106.624 170.452 105.931 169.777 105.422 168.924C104.924 168.06 104.676 167.101 104.676 166.047C104.676 165.04 104.918 164.128 105.404 163.311C105.89 162.482 106.541 161.825 107.358 161.339C108.187 160.854 109.099 160.611 110.094 160.611C111.076 160.611 111.976 160.848 112.794 161.322C113.611 161.784 114.262 162.411 114.748 163.205C115.233 163.998 115.476 164.898 115.476 165.905V166.686H108.513C108.205 166.686 107.891 166.674 107.571 166.651C107.251 166.627 106.938 166.592 106.63 166.544C106.76 167.492 107.186 168.285 107.909 168.924C108.643 169.564 109.513 169.884 110.52 169.884C111.195 169.884 111.823 169.73 112.403 169.422C112.983 169.114 113.451 168.705 113.806 168.196L114.339 170.381C113.83 170.796 113.244 171.121 112.58 171.358C111.929 171.583 111.236 171.696 110.502 171.696ZM106.576 165.247C107.216 165.141 107.861 165.088 108.513 165.088H112.048C112.308 165.088 112.563 165.099 112.811 165.123C113.072 165.135 113.332 165.153 113.593 165.176C113.427 164.347 113.013 163.666 112.35 163.134C111.686 162.589 110.934 162.316 110.094 162.316C109.229 162.316 108.471 162.607 107.82 163.187C107.169 163.755 106.754 164.442 106.576 165.247ZM118.037 171.482V160.824H119.813V162.778C120.192 162.151 120.695 161.653 121.323 161.286C121.95 160.907 122.697 160.718 123.561 160.718L124.041 162.636C123.816 162.565 123.555 162.53 123.259 162.53C122.264 162.53 121.465 162.849 120.861 163.489C120.257 164.117 119.955 165.017 119.955 166.189V171.482H118.037ZM130.761 171.696C129.648 171.696 128.647 171.447 127.759 170.95C126.882 170.452 126.19 169.777 125.68 168.924C125.183 168.06 124.934 167.101 124.934 166.047C124.934 165.04 125.177 164.128 125.663 163.311C126.148 162.482 126.8 161.825 127.617 161.339C128.446 160.854 129.357 160.611 130.352 160.611C131.335 160.611 132.235 160.848 133.052 161.322C133.869 161.784 134.521 162.411 135.006 163.205C135.492 163.998 135.735 164.898 135.735 165.905V166.686H128.771C128.463 166.686 128.15 166.674 127.83 166.651C127.51 166.627 127.196 166.592 126.888 166.544C127.019 167.492 127.445 168.285 128.167 168.924C128.902 169.564 129.772 169.884 130.779 169.884C131.454 169.884 132.081 169.73 132.661 169.422C133.242 169.114 133.71 168.705 134.065 168.196L134.598 170.381C134.088 170.796 133.502 171.121 132.839 171.358C132.188 171.583 131.495 171.696 130.761 171.696ZM126.835 165.247C127.475 165.141 128.12 165.088 128.771 165.088H132.306C132.567 165.088 132.821 165.099 133.07 165.123C133.331 165.135 133.591 165.153 133.852 165.176C133.686 164.347 133.271 163.666 132.608 163.134C131.945 162.589 131.193 162.316 130.352 162.316C129.488 162.316 128.73 162.607 128.079 163.187C127.427 163.755 127.013 164.442 126.835 165.247ZM143.172 176.811L146.636 169.919L142.124 160.824H144.291L146.565 165.443C146.766 165.857 146.961 166.266 147.151 166.669C147.34 167.071 147.53 167.557 147.719 168.125C147.921 167.557 148.11 167.071 148.288 166.669C148.477 166.254 148.679 165.845 148.892 165.443L151.201 160.824H153.244L145.25 176.811H143.172ZM159.499 171.696C158.469 171.696 157.528 171.447 156.675 170.95C155.822 170.452 155.141 169.783 154.632 168.942C154.135 168.101 153.886 167.172 153.886 166.153C153.886 165.123 154.135 164.193 154.632 163.365C155.141 162.524 155.822 161.855 156.675 161.357C157.528 160.86 158.469 160.611 159.499 160.611C160.541 160.611 161.483 160.86 162.324 161.357C163.176 161.855 163.851 162.524 164.349 163.365C164.858 164.193 165.113 165.123 165.113 166.153C165.113 167.172 164.858 168.101 164.349 168.942C163.851 169.783 163.176 170.452 162.324 170.95C161.483 171.447 160.541 171.696 159.499 171.696ZM159.499 169.884C160.186 169.884 160.808 169.718 161.364 169.386C161.921 169.043 162.365 168.593 162.697 168.036C163.028 167.468 163.194 166.84 163.194 166.153C163.194 165.467 163.028 164.845 162.697 164.288C162.365 163.72 161.921 163.27 161.364 162.938C160.808 162.595 160.186 162.423 159.499 162.423C158.812 162.423 158.191 162.595 157.634 162.938C157.078 163.27 156.633 163.72 156.302 164.288C155.97 164.845 155.805 165.467 155.805 166.153C155.805 166.84 155.97 167.468 156.302 168.036C156.633 168.593 157.078 169.043 157.634 169.386C158.191 169.718 158.812 169.884 159.499 169.884ZM171.839 171.696C171.093 171.696 170.395 171.512 169.743 171.145C169.092 170.766 168.565 170.221 168.162 169.511C167.76 168.8 167.558 167.947 167.558 166.953V160.824H169.477V166.686C169.477 167.527 169.726 168.273 170.223 168.924C170.732 169.564 171.443 169.884 172.355 169.884C173.101 169.884 173.764 169.617 174.344 169.084C174.936 168.54 175.232 167.758 175.232 166.74V160.824H177.151V171.482H175.374V169.759C174.984 170.387 174.474 170.867 173.847 171.198C173.231 171.53 172.562 171.696 171.839 171.696ZM190.447 171.625C189.476 171.625 188.588 171.382 187.783 170.896C186.977 170.399 186.332 169.736 185.846 168.907C185.373 168.078 185.136 167.16 185.136 166.153C185.136 165.147 185.373 164.229 185.846 163.4C186.332 162.571 186.977 161.914 187.783 161.428C188.588 160.931 189.476 160.682 190.447 160.682C191.146 160.682 191.803 160.807 192.419 161.055C193.035 161.304 193.579 161.647 194.053 162.086V154.429H195.972V171.482H194.195V170.079C193.722 170.553 193.159 170.932 192.508 171.216C191.868 171.488 191.181 171.625 190.447 171.625ZM190.696 169.884C191.371 169.884 191.981 169.718 192.526 169.386C193.082 169.043 193.52 168.593 193.84 168.036C194.172 167.468 194.337 166.84 194.337 166.153C194.337 165.467 194.172 164.845 193.84 164.288C193.52 163.72 193.082 163.27 192.526 162.938C191.981 162.595 191.371 162.423 190.696 162.423C190.021 162.423 189.405 162.595 188.848 162.938C188.304 163.27 187.866 163.72 187.534 164.288C187.214 164.845 187.054 165.467 187.054 166.153C187.054 166.84 187.214 167.468 187.534 168.036C187.866 168.593 188.304 169.043 188.848 169.386C189.405 169.718 190.021 169.884 190.696 169.884ZM199.371 171.482V160.824H201.29V171.482H199.371ZM200.33 158.906C199.975 158.906 199.673 158.782 199.424 158.533C199.176 158.284 199.051 157.982 199.051 157.627C199.051 157.26 199.176 156.958 199.424 156.721C199.673 156.472 199.975 156.348 200.33 156.348C200.697 156.348 200.999 156.472 201.236 156.721C201.485 156.958 201.609 157.26 201.609 157.627C201.609 157.982 201.485 158.284 201.236 158.533C200.999 158.782 200.697 158.906 200.33 158.906ZM209.257 171.625C208.286 171.625 207.398 171.382 206.593 170.896C205.787 170.399 205.142 169.736 204.656 168.907C204.183 168.078 203.946 167.16 203.946 166.153C203.946 165.147 204.183 164.229 204.656 163.4C205.142 162.571 205.787 161.914 206.593 161.428C207.398 160.931 208.286 160.682 209.257 160.682C209.991 160.682 210.678 160.818 211.318 161.091C211.969 161.363 212.531 161.742 213.005 162.228V160.824H214.781V171.482H213.005V170.079C212.531 170.553 211.969 170.932 211.318 171.216C210.678 171.488 209.991 171.625 209.257 171.625ZM209.506 169.884C210.181 169.884 210.791 169.718 211.335 169.386C211.892 169.043 212.33 168.593 212.65 168.036C212.981 167.468 213.147 166.84 213.147 166.153C213.147 165.467 212.981 164.845 212.65 164.288C212.33 163.72 211.892 163.27 211.335 162.938C210.791 162.595 210.181 162.423 209.506 162.423C208.831 162.423 208.215 162.595 207.658 162.938C207.114 163.27 206.675 163.72 206.344 164.288C206.024 164.845 205.864 165.467 205.864 166.153C205.864 166.84 206.024 167.468 206.344 168.036C206.675 168.593 207.114 169.043 207.658 169.386C208.215 169.718 208.831 169.884 209.506 169.884ZM222.497 177.025C221.68 177.025 220.934 176.906 220.259 176.669C219.596 176.433 219.004 176.107 218.483 175.692L219.016 173.525C219.371 174.034 219.845 174.449 220.437 174.769C221.029 175.088 221.71 175.248 222.48 175.248C223.676 175.248 224.641 174.887 225.375 174.165C226.121 173.442 226.494 172.513 226.494 171.376V170.079C226.021 170.553 225.458 170.932 224.807 171.216C224.167 171.488 223.48 171.625 222.746 171.625C221.775 171.625 220.887 171.382 220.082 170.896C219.276 170.399 218.631 169.736 218.145 168.907C217.672 168.078 217.435 167.16 217.435 166.153C217.435 165.147 217.672 164.229 218.145 163.4C218.631 162.571 219.276 161.914 220.082 161.428C220.887 160.931 221.775 160.682 222.746 160.682C223.48 160.682 224.167 160.818 224.807 161.091C225.458 161.363 226.021 161.742 226.494 162.228V160.824H228.271V171.482C228.271 172.643 227.998 173.638 227.453 174.467C226.921 175.296 226.216 175.929 225.34 176.367C224.463 176.806 223.516 177.025 222.497 177.025ZM222.995 169.884C223.67 169.884 224.28 169.718 224.824 169.386C225.381 169.043 225.819 168.593 226.139 168.036C226.471 167.468 226.636 166.84 226.636 166.153C226.636 165.467 226.471 164.845 226.139 164.288C225.819 163.72 225.381 163.27 224.824 162.938C224.28 162.595 223.67 162.423 222.995 162.423C222.32 162.423 221.704 162.595 221.147 162.938C220.603 163.27 220.165 163.72 219.833 164.288C219.513 164.845 219.353 165.467 219.353 166.153C219.353 166.84 219.513 167.468 219.833 168.036C220.165 168.593 220.603 169.043 221.147 169.386C221.704 169.718 222.32 169.884 222.995 169.884ZM231.67 171.482V160.824H233.446V162.547C233.837 161.92 234.341 161.44 234.956 161.109C235.584 160.777 236.259 160.611 236.981 160.611C237.739 160.611 238.438 160.801 239.077 161.18C239.729 161.547 240.256 162.086 240.658 162.796C241.061 163.495 241.262 164.347 241.262 165.354V171.482H239.344V165.62C239.344 164.78 239.089 164.04 238.58 163.4C238.083 162.749 237.378 162.423 236.466 162.423C235.72 162.423 235.051 162.695 234.459 163.24C233.879 163.773 233.589 164.549 233.589 165.567V171.482H231.67ZM249.327 171.696C248.297 171.696 247.355 171.447 246.503 170.95C245.65 170.452 244.969 169.783 244.46 168.942C243.962 168.101 243.714 167.172 243.714 166.153C243.714 165.123 243.962 164.193 244.46 163.365C244.969 162.524 245.65 161.855 246.503 161.357C247.355 160.86 248.297 160.611 249.327 160.611C250.369 160.611 251.311 160.86 252.151 161.357C253.004 161.855 253.679 162.524 254.176 163.365C254.686 164.193 254.94 165.123 254.94 166.153C254.94 167.172 254.686 168.101 254.176 168.942C253.679 169.783 253.004 170.452 252.151 170.95C251.311 171.447 250.369 171.696 249.327 171.696ZM249.327 169.884C250.014 169.884 250.636 169.718 251.192 169.386C251.749 169.043 252.193 168.593 252.524 168.036C252.856 167.468 253.022 166.84 253.022 166.153C253.022 165.467 252.856 164.845 252.524 164.288C252.193 163.72 251.749 163.27 251.192 162.938C250.636 162.595 250.014 162.423 249.327 162.423C248.64 162.423 248.018 162.595 247.462 162.938C246.905 163.27 246.461 163.72 246.13 164.288C245.798 164.845 245.632 165.467 245.632 166.153C245.632 166.84 245.798 167.468 246.13 168.036C246.461 168.593 246.905 169.043 247.462 169.386C248.018 169.718 248.64 169.884 249.327 169.884ZM260.353 171.696C259.808 171.696 259.222 171.595 258.594 171.394C257.978 171.18 257.445 170.831 256.995 170.346L257.528 168.249C257.86 168.806 258.286 169.25 258.807 169.582C259.328 169.901 259.885 170.061 260.477 170.061C261.045 170.061 261.472 169.925 261.756 169.653C262.04 169.369 262.182 169.025 262.182 168.623C262.182 168.161 262.028 167.823 261.72 167.61C261.424 167.397 261.158 167.249 260.921 167.166L259.482 166.615C259.222 166.509 258.908 166.355 258.541 166.153C258.174 165.94 257.854 165.638 257.581 165.247C257.309 164.857 257.173 164.347 257.173 163.72C257.173 163.151 257.309 162.63 257.581 162.157C257.854 161.683 258.239 161.31 258.736 161.038C259.233 160.753 259.82 160.611 260.495 160.611C261.028 160.611 261.584 160.706 262.164 160.895C262.745 161.085 263.236 161.405 263.639 161.855L263.106 163.951C262.822 163.43 262.437 163.015 261.951 162.707C261.466 162.399 260.962 162.245 260.441 162.245C259.956 162.245 259.571 162.382 259.287 162.654C259.014 162.926 258.878 163.24 258.878 163.595C258.878 163.88 258.973 164.134 259.162 164.359C259.352 164.584 259.636 164.768 260.015 164.91L261.454 165.461C261.714 165.555 262.034 165.709 262.413 165.922C262.804 166.136 263.147 166.444 263.443 166.846C263.739 167.249 263.887 167.794 263.887 168.48C263.887 169.44 263.55 170.215 262.875 170.807C262.212 171.4 261.371 171.696 260.353 171.696ZM271.747 171.696C270.634 171.696 269.633 171.447 268.745 170.95C267.869 170.452 267.176 169.777 266.667 168.924C266.17 168.06 265.921 167.101 265.921 166.047C265.921 165.04 266.164 164.128 266.649 163.311C267.135 162.482 267.786 161.825 268.603 161.339C269.432 160.854 270.344 160.611 271.339 160.611C272.322 160.611 273.222 160.848 274.039 161.322C274.856 161.784 275.507 162.411 275.993 163.205C276.478 163.998 276.721 164.898 276.721 165.905V166.686H269.758C269.45 166.686 269.136 166.674 268.816 166.651C268.497 166.627 268.183 166.592 267.875 166.544C268.005 167.492 268.431 168.285 269.154 168.924C269.888 169.564 270.758 169.884 271.765 169.884C272.44 169.884 273.068 169.73 273.648 169.422C274.228 169.114 274.696 168.705 275.051 168.196L275.584 170.381C275.075 170.796 274.489 171.121 273.826 171.358C273.174 171.583 272.481 171.696 271.747 171.696ZM267.822 165.247C268.461 165.141 269.106 165.088 269.758 165.088H273.293C273.553 165.088 273.808 165.099 274.057 165.123C274.317 165.135 274.578 165.153 274.838 165.176C274.672 164.347 274.258 163.666 273.595 163.134C272.931 162.589 272.179 162.316 271.339 162.316C270.474 162.316 269.716 162.607 269.065 163.187C268.414 163.755 267.999 164.442 267.822 165.247ZM283.847 171.625C282.876 171.625 281.988 171.382 281.182 170.896C280.377 170.399 279.732 169.736 279.246 168.907C278.773 168.078 278.536 167.16 278.536 166.153C278.536 165.147 278.773 164.229 279.246 163.4C279.732 162.571 280.377 161.914 281.182 161.428C281.988 160.931 282.876 160.682 283.847 160.682C284.546 160.682 285.203 160.807 285.819 161.055C286.435 161.304 286.979 161.647 287.453 162.086V154.429H289.371V171.482H287.595V170.079C287.121 170.553 286.559 170.932 285.908 171.216C285.268 171.488 284.581 171.625 283.847 171.625ZM284.096 169.884C284.771 169.884 285.381 169.718 285.925 169.386C286.482 169.043 286.92 168.593 287.24 168.036C287.571 167.468 287.737 166.84 287.737 166.153C287.737 165.467 287.571 164.845 287.24 164.288C286.92 163.72 286.482 163.27 285.925 162.938C285.381 162.595 284.771 162.423 284.096 162.423C283.421 162.423 282.805 162.595 282.248 162.938C281.704 163.27 281.265 163.72 280.934 164.288C280.614 164.845 280.454 165.467 280.454 166.153C280.454 166.84 280.614 167.468 280.934 168.036C281.265 168.593 281.704 169.043 282.248 169.386C282.805 169.718 283.421 169.884 284.096 169.884ZM31.1749 206.015L25.7926 194.824H27.9775L30.1269 199.443C30.3282 199.881 30.5177 200.307 30.6953 200.722C30.8848 201.136 31.0683 201.657 31.246 202.285C31.4354 201.669 31.6249 201.148 31.8144 200.722C32.0157 200.295 32.2052 199.869 32.3828 199.443L34.5322 194.327L36.6638 199.443C36.8414 199.881 37.025 200.307 37.2145 200.722C37.404 201.136 37.5875 201.657 37.7651 202.285C37.9428 201.657 38.1263 201.136 38.3158 200.722C38.5053 200.295 38.7007 199.869 38.902 199.443L41.0869 194.824H43.1297L37.7474 206.015L35.5802 201.255C35.3908 200.828 35.2013 200.408 35.0118 199.994C34.8342 199.567 34.6506 199.058 34.4611 198.466C34.2835 199.058 34.1 199.567 33.9105 199.994C33.721 200.408 33.5256 200.828 33.3243 201.255L31.1749 206.015ZM45.0454 205.482V194.824H46.9639V205.482H45.0454ZM46.0046 192.906C45.6494 192.906 45.3474 192.782 45.0987 192.533C44.85 192.284 44.7257 191.982 44.7257 191.627C44.7257 191.26 44.85 190.958 45.0987 190.721C45.3474 190.472 45.6494 190.348 46.0046 190.348C46.3717 190.348 46.6737 190.472 46.9106 190.721C47.1592 190.958 47.2836 191.26 47.2836 191.627C47.2836 191.982 47.1592 192.284 46.9106 192.533C46.6737 192.782 46.3717 192.906 46.0046 192.906ZM51.6096 205.482V196.423H49.1937V194.824H51.6628V191.272H53.4747V194.824H56.1215V196.423H53.528V205.482H51.6096ZM58.3597 205.482V188.429H60.2781V196.334C60.6808 195.778 61.1781 195.351 61.7703 195.055C62.3624 194.759 62.9959 194.611 63.671 194.611C64.4289 194.611 65.1276 194.801 65.767 195.18C66.4184 195.547 66.9454 196.086 67.348 196.796C67.7506 197.495 67.9519 198.347 67.9519 199.354V205.482H66.0335V199.62C66.0335 198.78 65.7789 198.04 65.2697 197.4C64.7723 196.749 64.0677 196.423 63.1558 196.423C62.4097 196.423 61.7407 196.695 61.1485 197.24C60.5683 197.773 60.2781 198.549 60.2781 199.567V205.482H58.3597ZM72.8547 200.153C72.8547 199.289 72.9849 198.543 73.2455 197.915C73.5178 197.288 73.8317 196.725 74.1869 196.228C74.5422 195.73 74.8501 195.245 75.1106 194.771C75.383 194.297 75.5192 193.782 75.5192 193.226C75.5192 192.586 75.3179 192.065 74.9152 191.662C74.5126 191.26 73.9915 191.058 73.352 191.058C72.8902 191.058 72.4579 191.177 72.0553 191.414C71.6527 191.639 71.3152 191.941 71.0428 192.32V190.01C71.3507 189.774 71.7119 189.596 72.1264 189.478C72.5527 189.347 73.0027 189.282 73.4764 189.282C74.2935 189.282 74.9981 189.454 75.5902 189.797C76.1824 190.141 76.6383 190.597 76.958 191.165C77.2778 191.722 77.4376 192.337 77.4376 193.012C77.4376 193.676 77.3015 194.28 77.0291 194.824C76.7567 195.369 76.437 195.902 76.0699 196.423C75.7146 196.944 75.3889 197.501 75.0929 198.093C74.7968 198.685 74.6192 199.372 74.56 200.153H72.8547ZM73.7073 205.696C73.3402 205.696 73.0264 205.565 72.7658 205.305C72.5053 205.044 72.3751 204.73 72.3751 204.363C72.3751 203.984 72.5053 203.671 72.7658 203.422C73.0264 203.161 73.3402 203.031 73.7073 203.031C74.0863 203.031 74.4001 203.161 74.6488 203.422C74.9093 203.671 75.0396 203.984 75.0396 204.363C75.0396 204.73 74.9093 205.044 74.6488 205.305C74.4001 205.565 74.0863 205.696 73.7073 205.696Z" fill="black"/>
</svg>
