<svg width="345" height="745" viewBox="0 0 345 745" fill="none" xmlns="http://www.w3.org/2000/svg">
<rect width="343.723" height="745" transform="translate(0.394775)" fill="white"/>
<path d="M33.1329 47.0655C32.4579 47.0655 31.8362 46.947 31.2678 46.7102C30.7112 46.4733 30.2256 46.1477 29.8112 45.7332V46.7812H27.1466V29.7283H30.2375V36.7982C30.6283 36.4903 31.0664 36.2534 31.552 36.0876C32.0375 35.9218 32.5645 35.839 33.1329 35.839C34.1277 35.839 35.0277 36.0936 35.833 36.6028C36.6382 37.1002 37.2777 37.7752 37.7514 38.6278C38.237 39.4805 38.4797 40.4219 38.4797 41.4522C38.4797 42.4825 38.237 43.424 37.7514 44.2766C37.2777 45.1174 36.6382 45.7924 35.833 46.3016C35.0277 46.8109 34.1277 47.0655 33.1329 47.0655ZM32.7777 44.3477C33.2987 44.3477 33.7724 44.2174 34.1987 43.9569C34.6251 43.6963 34.9626 43.347 35.2112 42.9088C35.4718 42.4706 35.602 41.9851 35.602 41.4522C35.602 40.9193 35.4718 40.4338 35.2112 39.9956C34.9626 39.5574 34.6251 39.2081 34.1987 38.9476C33.7724 38.687 33.2987 38.5568 32.7777 38.5568C32.2566 38.5568 31.7829 38.687 31.3566 38.9476C30.9303 39.2081 30.5868 39.5574 30.3263 39.9956C30.0776 40.4338 29.9533 40.9193 29.9533 41.4522C29.9533 41.9851 30.0776 42.4706 30.3263 42.9088C30.5868 43.347 30.9303 43.6963 31.3566 43.9569C31.7829 44.2174 32.2566 44.3477 32.7777 44.3477ZM49.9032 47.1365C48.7071 47.1365 47.6532 46.8878 46.7413 46.3905C45.8294 45.8931 45.1189 45.2121 44.6097 44.3477C44.1005 43.4713 43.8458 42.4706 43.8458 41.3456C43.8458 40.268 44.0945 39.3147 44.5919 38.4857C45.0893 37.6449 45.7584 36.9817 46.5992 36.4962C47.4518 36.0107 48.3933 35.7679 49.4236 35.7679C50.4775 35.7679 51.419 36.0107 52.248 36.4962C53.0769 36.9699 53.7283 37.6212 54.202 38.4502C54.6875 39.2791 54.9303 40.2206 54.9303 41.2746V42.3581H48.4288C48.1328 42.3581 47.8486 42.3404 47.5762 42.3049C47.3038 42.2693 47.0314 42.2279 46.7591 42.1805C46.9012 42.891 47.2505 43.4713 47.8071 43.9213C48.3755 44.3595 49.0979 44.5786 49.9742 44.5786C50.6493 44.5786 51.2532 44.4424 51.7861 44.17C52.3309 43.8976 52.775 43.5601 53.1184 43.1575L53.7934 45.9286C53.2605 46.3312 52.6565 46.6332 51.9815 46.8345C51.3183 47.0359 50.6256 47.1365 49.9032 47.1365ZM46.688 40.3153C47.2801 40.1851 47.8604 40.1199 48.4288 40.1199H50.3118C50.6433 40.1199 50.9572 40.1318 51.2532 40.1555C51.5493 40.1792 51.8276 40.2206 52.0881 40.2798C51.9105 39.6403 51.5848 39.137 51.1111 38.7699C50.6493 38.4028 50.0749 38.2193 49.3881 38.2193C48.7367 38.2193 48.1683 38.4087 47.6828 38.7877C47.2091 39.1548 46.8775 39.664 46.688 40.3153ZM65.5327 47.0655C64.5498 47.0655 63.6557 46.8109 62.8504 46.3016C62.0452 45.7924 61.3997 45.1174 60.9142 44.2766C60.4405 43.424 60.2037 42.4825 60.2037 41.4522C60.2037 40.4219 60.4405 39.4805 60.9142 38.6278C61.3997 37.7752 62.0452 37.1002 62.8504 36.6028C63.6557 36.0936 64.5498 35.839 65.5327 35.839C66.2196 35.839 66.8472 35.9633 67.4156 36.212C67.9841 36.4488 68.4696 36.7804 68.8722 37.2067V36.1232H71.5368V46.7812H68.8722V45.6977C68.4696 46.124 67.9841 46.4615 67.4156 46.7102C66.8472 46.947 66.2196 47.0655 65.5327 47.0655ZM65.9057 44.3477C66.4268 44.3477 66.9005 44.2174 67.3268 43.9569C67.7532 43.6963 68.0907 43.347 68.3393 42.9088C68.5999 42.4706 68.7301 41.9851 68.7301 41.4522C68.7301 40.9193 68.5999 40.4338 68.3393 39.9956C68.0907 39.5574 67.7532 39.2081 67.3268 38.9476C66.9005 38.687 66.4268 38.5568 65.9057 38.5568C65.3847 38.5568 64.911 38.687 64.4847 38.9476C64.0583 39.2081 63.7149 39.5574 63.4544 39.9956C63.2057 40.4338 63.0814 40.9193 63.0814 41.4522C63.0814 41.9851 63.2057 42.4706 63.4544 42.9088C63.7149 43.347 64.0583 43.6963 64.4847 43.9569C64.911 44.2174 65.3847 44.3477 65.9057 44.3477ZM83.1912 47.1365C82.1372 47.1365 81.172 46.8819 80.2957 46.3727C79.4194 45.8635 78.7207 45.1766 78.1996 44.3121C77.6904 43.4476 77.4358 42.4943 77.4358 41.4522C77.4358 40.3982 77.6904 39.4449 78.1996 38.5923C78.7207 37.7278 79.4194 37.0409 80.2957 36.5317C81.172 36.0225 82.1372 35.7679 83.1912 35.7679C83.9254 35.7679 84.6182 35.8922 85.2695 36.1409C85.9327 36.3778 86.5189 36.733 87.0281 37.2067L86.2287 40.3509C85.9327 39.8653 85.5359 39.4449 85.0386 39.0897C84.553 38.7226 83.9787 38.539 83.3155 38.539C82.7589 38.539 82.2615 38.6693 81.8234 38.9298C81.3852 39.1903 81.0418 39.5397 80.7931 39.9778C80.5444 40.416 80.4201 40.9075 80.4201 41.4522C80.4201 41.9851 80.5444 42.4766 80.7931 42.9266C81.0418 43.3647 81.3852 43.7141 81.8234 43.9746C82.2615 44.2352 82.7589 44.3654 83.3155 44.3654C83.9787 44.3654 84.553 44.1878 85.0386 43.8325C85.5359 43.4654 85.9327 43.0391 86.2287 42.5535L87.0281 45.6977C86.5189 46.1714 85.9327 46.5326 85.2695 46.7812C84.6182 47.0181 83.9254 47.1365 83.1912 47.1365ZM97.9503 47.1365C96.8963 47.1365 95.9312 46.8819 95.0548 46.3727C94.1785 45.8635 93.4798 45.1766 92.9587 44.3121C92.4495 43.4476 92.1949 42.4943 92.1949 41.4522C92.1949 40.3982 92.4495 39.4449 92.9587 38.5923C93.4798 37.7278 94.1785 37.0409 95.0548 36.5317C95.9312 36.0225 96.8963 35.7679 97.9503 35.7679C99.0161 35.7679 99.9812 36.0225 100.846 36.5317C101.722 37.0409 102.415 37.7278 102.924 38.5923C103.445 39.4449 103.706 40.3982 103.706 41.4522C103.706 42.4943 103.445 43.4476 102.924 44.3121C102.415 45.1766 101.722 45.8635 100.846 46.3727C99.9812 46.8819 99.0161 47.1365 97.9503 47.1365ZM97.9503 44.3654C98.4832 44.3654 98.9628 44.2352 99.3891 43.9746C99.8273 43.7141 100.171 43.3647 100.419 42.9266C100.68 42.4766 100.81 41.9851 100.81 41.4522C100.81 40.9075 100.68 40.416 100.419 39.9778C100.171 39.5397 99.8273 39.1903 99.3891 38.9298C98.9628 38.6693 98.4832 38.539 97.9503 38.539C97.4174 38.539 96.9318 38.6693 96.4937 38.9298C96.0673 39.1903 95.7239 39.5397 95.4634 39.9778C95.2147 40.416 95.0904 40.9075 95.0904 41.4522C95.0904 41.9851 95.2147 42.4766 95.4634 42.9266C95.7239 43.3647 96.0673 43.7141 96.4937 43.9746C96.9318 44.2352 97.4174 44.3654 97.9503 44.3654ZM109.61 46.7812V36.1232H112.381V37.2956C112.76 36.7982 113.228 36.4192 113.785 36.1587C114.341 35.8982 114.939 35.7679 115.579 35.7679C116.337 35.7679 117.041 35.9515 117.693 36.3186C118.356 36.6738 118.889 37.2008 119.291 37.8995C119.706 38.5864 119.913 39.4213 119.913 40.4042V46.7812H116.822V40.8127C116.822 40.2206 116.645 39.6936 116.289 39.2318C115.934 38.7699 115.425 38.539 114.762 38.539C114.229 38.539 113.749 38.7226 113.323 39.0897C112.908 39.4449 112.701 40.0074 112.701 40.7772V46.7812H109.61Z" fill="#FF6060"/>
<rect x="26.3739" y="228.216" width="277.377" height="33.573" rx="5.99517" stroke="black" stroke-width="0.799356"/>
<path d="M44.3594 250.2C45.7783 250.2 47.1563 249.725 48.2739 248.851L51.7879 252.365L52.9182 251.234L49.4042 247.72C50.2788 246.603 50.7541 245.224 50.7543 243.805C50.7543 240.279 47.8854 237.41 44.3594 237.41C40.8335 237.41 37.9646 240.279 37.9646 243.805C37.9646 247.331 40.8335 250.2 44.3594 250.2ZM44.3594 239.009C47.0045 239.009 49.1556 241.16 49.1556 243.805C49.1556 246.45 47.0045 248.601 44.3594 248.601C41.7144 248.601 39.5633 246.45 39.5633 243.805C39.5633 241.16 41.7144 239.009 44.3594 239.009Z" fill="black"/>
<rect x="25.9742" y="283.77" width="278.176" height="272.58" rx="7.99356" fill="#FFD1D1"/>
<path d="M75.3012 253.677C74.7905 253.677 74.3242 253.603 73.9024 253.455C73.4879 253.307 73.1178 253.103 72.7921 252.844L73.1252 251.49C73.3473 251.808 73.6433 252.067 74.0134 252.267C74.3835 252.467 74.809 252.567 75.2901 252.567C76.0377 252.567 76.6409 252.341 77.0998 251.889C77.5661 251.438 77.7992 250.857 77.7992 250.146V249.336C77.5032 249.632 77.1516 249.869 76.7445 250.046C76.3448 250.217 75.9156 250.302 75.4567 250.302C74.8497 250.302 74.2946 250.15 73.7913 249.847C73.288 249.536 72.8847 249.121 72.5812 248.603C72.2851 248.085 72.1371 247.511 72.1371 246.882C72.1371 246.253 72.2851 245.68 72.5812 245.161C72.8847 244.643 73.288 244.233 73.7913 243.929C74.2946 243.618 74.8497 243.463 75.4567 243.463C75.9156 243.463 76.3448 243.548 76.7445 243.718C77.1516 243.888 77.5032 244.125 77.7992 244.429V243.552H78.9094V250.213C78.9094 250.938 78.7392 251.56 78.3987 252.078C78.0657 252.596 77.6253 252.992 77.0776 253.266C76.5299 253.54 75.9378 253.677 75.3012 253.677ZM75.6121 249.214C76.034 249.214 76.4152 249.11 76.7556 248.903C77.1035 248.688 77.3773 248.407 77.5772 248.059C77.7844 247.704 77.888 247.312 77.888 246.882C77.888 246.453 77.7844 246.064 77.5772 245.717C77.3773 245.361 77.1035 245.08 76.7556 244.873C76.4152 244.658 76.034 244.551 75.6121 244.551C75.1902 244.551 74.8053 244.658 74.4575 244.873C74.117 245.08 73.8431 245.361 73.6359 245.717C73.4361 246.064 73.3361 246.453 73.3361 246.882C73.3361 247.312 73.4361 247.704 73.6359 248.059C73.8431 248.407 74.117 248.688 74.4575 248.903C74.8053 249.11 75.1902 249.214 75.6121 249.214ZM81.0341 250.213V239.555H82.2332V250.213H81.0341ZM84.3596 250.213V243.552H85.5586V250.213H84.3596ZM84.9591 242.353C84.737 242.353 84.5483 242.275 84.3929 242.119C84.2374 241.964 84.1597 241.775 84.1597 241.553C84.1597 241.324 84.2374 241.135 84.3929 240.987C84.5483 240.832 84.737 240.754 84.9591 240.754C85.1885 240.754 85.3773 240.832 85.5253 240.987C85.6807 241.135 85.7584 241.324 85.7584 241.553C85.7584 241.775 85.6807 241.964 85.5253 242.119C85.3773 242.275 85.1885 242.353 84.9591 242.353ZM90.727 250.346C90.0831 250.346 89.4947 250.191 88.9618 249.88C88.4289 249.569 88.0033 249.151 87.685 248.625C87.3741 248.1 87.2187 247.519 87.2187 246.882C87.2187 246.238 87.3741 245.657 87.685 245.139C88.0033 244.614 88.4289 244.196 88.9618 243.885C89.4947 243.574 90.0831 243.418 90.727 243.418C91.3783 243.418 91.9667 243.574 92.4922 243.885C93.0252 244.196 93.447 244.614 93.7579 245.139C94.0762 245.657 94.2353 246.238 94.2353 246.882C94.2353 247.519 94.0762 248.1 93.7579 248.625C93.447 249.151 93.0252 249.569 92.4922 249.88C91.9667 250.191 91.3783 250.346 90.727 250.346ZM90.727 249.214C91.1563 249.214 91.5449 249.11 91.8927 248.903C92.2406 248.688 92.5182 248.407 92.7254 248.059C92.9326 247.704 93.0363 247.312 93.0363 246.882C93.0363 246.453 92.9326 246.064 92.7254 245.717C92.5182 245.361 92.2406 245.08 91.8927 244.873C91.5449 244.658 91.1563 244.551 90.727 244.551C90.2977 244.551 89.9091 244.658 89.5613 244.873C89.2134 245.08 88.9359 245.361 88.7286 245.717C88.5214 246.064 88.4178 246.453 88.4178 246.882C88.4178 247.312 88.5214 247.704 88.7286 248.059C88.9359 248.407 89.2134 248.688 89.5613 248.903C89.9091 249.11 90.2977 249.214 90.727 249.214Z" fill="black"/>
<path d="M96.5951 323.153C95.8698 323.153 95.1925 323.02 94.5634 322.753C93.9343 322.479 93.3792 322.106 92.8981 321.632C92.4244 321.151 92.0543 320.599 91.7879 319.978C91.5214 319.349 91.3882 318.675 91.3882 317.957C91.3882 317.239 91.5214 316.569 91.7879 315.948C92.0617 315.319 92.4355 314.767 92.9092 314.293C93.3903 313.812 93.9454 313.439 94.5745 313.172C95.2036 312.898 95.8809 312.761 96.6062 312.761C97.3167 312.761 97.9829 312.895 98.6046 313.161C99.2263 313.42 99.774 313.779 100.248 314.238L99.8813 315.77C99.5409 315.222 99.082 314.786 98.5047 314.46C97.9348 314.127 97.3019 313.96 96.6062 313.96C95.8735 313.96 95.211 314.142 94.6189 314.504C94.0342 314.86 93.5679 315.341 93.22 315.948C92.8722 316.547 92.6982 317.217 92.6982 317.957C92.6982 318.682 92.8685 319.349 93.2089 319.956C93.5568 320.562 94.0231 321.047 94.6078 321.41C95.1999 321.773 95.8624 321.954 96.5951 321.954C97.0096 321.954 97.4019 321.906 97.7719 321.81C98.1494 321.706 98.4936 321.562 98.8044 321.377V318.757H96.0511V317.624H100.026V322.021C99.5742 322.398 99.0487 322.683 98.4492 322.875C97.857 323.06 97.239 323.153 96.5951 323.153ZM102.217 322.953V312.295H103.416V322.953H102.217ZM105.542 322.953V316.292H106.741V322.953H105.542ZM106.142 315.093C105.92 315.093 105.731 315.015 105.576 314.86C105.42 314.704 105.343 314.515 105.343 314.293C105.343 314.064 105.42 313.875 105.576 313.727C105.731 313.572 105.92 313.494 106.142 313.494C106.371 313.494 106.56 313.572 106.708 313.727C106.864 313.875 106.941 314.064 106.941 314.293C106.941 314.515 106.864 314.704 106.708 314.86C106.56 315.015 106.371 315.093 106.142 315.093ZM111.91 323.086C111.266 323.086 110.678 322.931 110.145 322.62C109.612 322.309 109.186 321.891 108.868 321.366C108.557 320.84 108.402 320.259 108.402 319.622C108.402 318.979 108.557 318.398 108.868 317.879C109.186 317.354 109.612 316.936 110.145 316.625C110.678 316.314 111.266 316.159 111.91 316.159C112.561 316.159 113.15 316.314 113.675 316.625C114.208 316.936 114.63 317.354 114.941 317.879C115.259 318.398 115.418 318.979 115.418 319.622C115.418 320.259 115.259 320.84 114.941 321.366C114.63 321.891 114.208 322.309 113.675 322.62C113.15 322.931 112.561 323.086 111.91 323.086ZM111.91 321.954C112.339 321.954 112.728 321.85 113.076 321.643C113.423 321.428 113.701 321.147 113.908 320.799C114.115 320.444 114.219 320.052 114.219 319.622C114.219 319.193 114.115 318.805 113.908 318.457C113.701 318.101 113.423 317.82 113.076 317.613C112.728 317.398 112.339 317.291 111.91 317.291C111.481 317.291 111.092 317.398 110.744 317.613C110.396 317.82 110.119 318.101 109.911 318.457C109.704 318.805 109.601 319.193 109.601 319.622C109.601 320.052 109.704 320.444 109.911 320.799C110.119 321.147 110.396 321.428 110.744 321.643C111.092 321.85 111.481 321.954 111.91 321.954ZM120.533 323.042C120.074 323.042 119.645 322.957 119.245 322.787C118.845 322.609 118.494 322.372 118.19 322.076V322.953H117.08V312.295H118.279V317.08C118.575 316.806 118.916 316.592 119.3 316.436C119.685 316.281 120.096 316.203 120.533 316.203C121.147 316.203 121.702 316.358 122.198 316.669C122.701 316.973 123.101 317.384 123.397 317.902C123.701 318.42 123.852 318.993 123.852 319.622C123.852 320.252 123.701 320.825 123.397 321.343C123.101 321.861 122.701 322.276 122.198 322.587C121.702 322.89 121.147 323.042 120.533 323.042ZM120.377 321.954C120.799 321.954 121.18 321.85 121.521 321.643C121.869 321.428 122.143 321.147 122.342 320.799C122.55 320.444 122.653 320.052 122.653 319.622C122.653 319.193 122.55 318.805 122.342 318.457C122.143 318.101 121.869 317.82 121.521 317.613C121.18 317.398 120.799 317.291 120.377 317.291C119.955 317.291 119.571 317.398 119.223 317.613C118.882 317.82 118.608 318.101 118.401 318.457C118.201 318.805 118.101 319.193 118.101 319.622C118.101 320.052 118.201 320.444 118.401 320.799C118.608 321.147 118.882 321.428 119.223 321.643C119.571 321.85 119.955 321.954 120.377 321.954ZM125.511 322.953V312.295H126.71V322.953H125.511ZM131.689 323.042C131.082 323.042 130.527 322.89 130.024 322.587C129.521 322.276 129.117 321.861 128.814 321.343C128.518 320.825 128.37 320.252 128.37 319.622C128.37 318.993 128.518 318.42 128.814 317.902C129.117 317.384 129.521 316.973 130.024 316.669C130.527 316.358 131.082 316.203 131.689 316.203C132.148 316.203 132.578 316.288 132.977 316.458C133.384 316.629 133.736 316.865 134.032 317.169V316.292H135.142V322.953H134.032V322.076C133.736 322.372 133.384 322.609 132.977 322.787C132.578 322.957 132.148 323.042 131.689 323.042ZM131.845 321.954C132.267 321.954 132.648 321.85 132.988 321.643C133.336 321.428 133.61 321.147 133.81 320.799C134.017 320.444 134.121 320.052 134.121 319.622C134.121 319.193 134.017 318.805 133.81 318.457C133.61 318.101 133.336 317.82 132.988 317.613C132.648 317.398 132.267 317.291 131.845 317.291C131.423 317.291 131.038 317.398 130.69 317.613C130.35 317.82 130.076 318.101 129.869 318.457C129.669 318.805 129.569 319.193 129.569 319.622C129.569 320.052 129.669 320.444 129.869 320.799C130.076 321.147 130.35 321.428 130.69 321.643C131.038 321.85 131.423 321.954 131.845 321.954ZM138.988 323.086C138.647 323.086 138.281 323.023 137.889 322.898C137.504 322.764 137.171 322.546 136.889 322.243L137.222 320.933C137.43 321.28 137.696 321.558 138.022 321.765C138.347 321.965 138.695 322.065 139.065 322.065C139.421 322.065 139.687 321.98 139.865 321.81C140.042 321.632 140.131 321.417 140.131 321.166C140.131 320.877 140.035 320.666 139.843 320.533C139.658 320.4 139.491 320.307 139.343 320.255L138.444 319.911C138.281 319.845 138.085 319.748 137.855 319.622C137.626 319.489 137.426 319.301 137.256 319.056C137.086 318.812 137 318.494 137 318.101C137 317.746 137.086 317.421 137.256 317.124C137.426 316.828 137.667 316.595 137.977 316.425C138.288 316.247 138.655 316.159 139.077 316.159C139.41 316.159 139.757 316.218 140.12 316.336C140.483 316.455 140.79 316.654 141.042 316.936L140.709 318.246C140.531 317.92 140.29 317.661 139.987 317.469C139.683 317.276 139.369 317.18 139.043 317.18C138.74 317.18 138.499 317.265 138.322 317.435C138.151 317.606 138.066 317.802 138.066 318.024C138.066 318.201 138.125 318.361 138.244 318.501C138.362 318.642 138.54 318.757 138.777 318.845L139.676 319.189C139.839 319.249 140.039 319.345 140.276 319.478C140.52 319.611 140.734 319.804 140.919 320.055C141.105 320.307 141.197 320.648 141.197 321.077C141.197 321.676 140.986 322.161 140.564 322.531C140.15 322.901 139.624 323.086 138.988 323.086ZM143.711 322.953V317.291H142.201V316.292H143.745V314.071H144.877V316.292H146.531V317.291H144.91V322.953H143.711ZM150.644 323.086C150 323.086 149.412 322.931 148.879 322.62C148.346 322.309 147.921 321.891 147.602 321.366C147.291 320.84 147.136 320.259 147.136 319.622C147.136 318.979 147.291 318.398 147.602 317.879C147.921 317.354 148.346 316.936 148.879 316.625C149.412 316.314 150 316.159 150.644 316.159C151.296 316.159 151.884 316.314 152.41 316.625C152.942 316.936 153.364 317.354 153.675 317.879C153.993 318.398 154.153 318.979 154.153 319.622C154.153 320.259 153.993 320.84 153.675 321.366C153.364 321.891 152.942 322.309 152.41 322.62C151.884 322.931 151.296 323.086 150.644 323.086ZM150.644 321.954C151.074 321.954 151.462 321.85 151.81 321.643C152.158 321.428 152.435 321.147 152.643 320.799C152.85 320.444 152.954 320.052 152.954 319.622C152.954 319.193 152.85 318.805 152.643 318.457C152.435 318.101 152.158 317.82 151.81 317.613C151.462 317.398 151.074 317.291 150.644 317.291C150.215 317.291 149.826 317.398 149.479 317.613C149.131 317.82 148.853 318.101 148.646 318.457C148.439 318.805 148.335 319.193 148.335 319.622C148.335 320.052 148.439 320.444 148.646 320.799C148.853 321.147 149.131 321.428 149.479 321.643C149.826 321.85 150.215 321.954 150.644 321.954ZM155.814 322.953V316.292H156.925V317.247C157.169 316.884 157.476 316.614 157.846 316.436C158.224 316.251 158.62 316.159 159.034 316.159C159.486 316.159 159.9 316.266 160.277 316.481C160.655 316.688 160.958 316.98 161.188 317.358C161.447 316.958 161.78 316.658 162.187 316.458C162.602 316.259 163.038 316.159 163.497 316.159C164 316.159 164.459 316.277 164.874 316.514C165.296 316.751 165.629 317.084 165.873 317.513C166.125 317.935 166.25 318.435 166.25 319.012V322.953H165.051V319.156C165.051 318.549 164.877 318.09 164.53 317.78C164.189 317.461 163.793 317.302 163.342 317.302C163.06 317.302 162.787 317.365 162.52 317.491C162.261 317.617 162.046 317.813 161.876 318.079C161.713 318.346 161.632 318.694 161.632 319.123V322.953H160.433V319.156C160.433 318.734 160.348 318.386 160.178 318.113C160.015 317.839 159.8 317.635 159.534 317.502C159.275 317.361 159.004 317.291 158.723 317.291C158.449 317.291 158.179 317.354 157.913 317.48C157.654 317.606 157.439 317.802 157.269 318.068C157.099 318.335 157.013 318.686 157.013 319.123V322.953H155.814ZM171.095 323.042C170.488 323.042 169.933 322.89 169.43 322.587C168.927 322.276 168.523 321.861 168.22 321.343C167.924 320.825 167.776 320.252 167.776 319.622C167.776 318.993 167.924 318.42 168.22 317.902C168.523 317.384 168.927 316.973 169.43 316.669C169.933 316.358 170.488 316.203 171.095 316.203C171.554 316.203 171.983 316.288 172.383 316.458C172.79 316.629 173.142 316.865 173.438 317.169V316.292H174.548V322.953H173.438V322.076C173.142 322.372 172.79 322.609 172.383 322.787C171.983 322.957 171.554 323.042 171.095 323.042ZM171.251 321.954C171.672 321.954 172.054 321.85 172.394 321.643C172.742 321.428 173.016 321.147 173.216 320.799C173.423 320.444 173.527 320.052 173.527 319.622C173.527 319.193 173.423 318.805 173.216 318.457C173.016 318.101 172.742 317.82 172.394 317.613C172.054 317.398 171.672 317.291 171.251 317.291C170.829 317.291 170.444 317.398 170.096 317.613C169.755 317.82 169.482 318.101 169.274 318.457C169.075 318.805 168.975 319.193 168.975 319.622C168.975 320.052 169.075 320.444 169.274 320.799C169.482 321.147 169.755 321.428 170.096 321.643C170.444 321.85 170.829 321.954 171.251 321.954Z" fill="black"/>
<path d="M96.5951 367.118C95.8698 367.118 95.1925 366.985 94.5634 366.718C93.9343 366.444 93.3792 366.071 92.8981 365.597C92.4244 365.116 92.0543 364.564 91.7879 363.943C91.5214 363.313 91.3882 362.64 91.3882 361.922C91.3882 361.204 91.5214 360.534 91.7879 359.912C92.0617 359.283 92.4355 358.732 92.9092 358.258C93.3903 357.777 93.9454 357.403 94.5745 357.137C95.2036 356.863 95.8809 356.726 96.6062 356.726C97.3167 356.726 97.9829 356.859 98.6046 357.126C99.2263 357.385 99.774 357.744 100.248 358.203L99.8813 359.735C99.5409 359.187 99.082 358.75 98.5047 358.425C97.9348 358.092 97.3019 357.925 96.6062 357.925C95.8735 357.925 95.211 358.107 94.6189 358.469C94.0342 358.824 93.5679 359.306 93.22 359.912C92.8722 360.512 92.6982 361.182 92.6982 361.922C92.6982 362.647 92.8685 363.313 93.2089 363.92C93.5568 364.527 94.0231 365.012 94.6078 365.375C95.1999 365.737 95.8624 365.919 96.5951 365.919C97.0096 365.919 97.4019 365.871 97.7719 365.774C98.1494 365.671 98.4936 365.526 98.8044 365.341V362.721H96.0511V361.589H100.026V365.985C99.5742 366.363 99.0487 366.648 98.4492 366.84C97.857 367.025 97.239 367.118 96.5951 367.118ZM102.217 366.918V356.26H103.416V366.918H102.217ZM105.542 366.918V360.257H106.741V366.918H105.542ZM106.142 359.058C105.92 359.058 105.731 358.98 105.576 358.824C105.42 358.669 105.343 358.48 105.343 358.258C105.343 358.029 105.42 357.84 105.576 357.692C105.731 357.537 105.92 357.459 106.142 357.459C106.371 357.459 106.56 357.537 106.708 357.692C106.864 357.84 106.941 358.029 106.941 358.258C106.941 358.48 106.864 358.669 106.708 358.824C106.56 358.98 106.371 359.058 106.142 359.058ZM111.91 367.051C111.266 367.051 110.678 366.896 110.145 366.585C109.612 366.274 109.186 365.856 108.868 365.33C108.557 364.805 108.402 364.224 108.402 363.587C108.402 362.943 108.557 362.362 108.868 361.844C109.186 361.319 109.612 360.901 110.145 360.59C110.678 360.279 111.266 360.123 111.91 360.123C112.561 360.123 113.15 360.279 113.675 360.59C114.208 360.901 114.63 361.319 114.941 361.844C115.259 362.362 115.418 362.943 115.418 363.587C115.418 364.224 115.259 364.805 114.941 365.33C114.63 365.856 114.208 366.274 113.675 366.585C113.15 366.896 112.561 367.051 111.91 367.051ZM111.91 365.919C112.339 365.919 112.728 365.815 113.076 365.608C113.423 365.393 113.701 365.112 113.908 364.764C114.115 364.409 114.219 364.017 114.219 363.587C114.219 363.158 114.115 362.769 113.908 362.422C113.701 362.066 113.423 361.785 113.076 361.578C112.728 361.363 112.339 361.256 111.91 361.256C111.481 361.256 111.092 361.363 110.744 361.578C110.396 361.785 110.119 362.066 109.911 362.422C109.704 362.769 109.601 363.158 109.601 363.587C109.601 364.017 109.704 364.409 109.911 364.764C110.119 365.112 110.396 365.393 110.744 365.608C111.092 365.815 111.481 365.919 111.91 365.919ZM117.08 366.918V360.257H118.19V361.211C118.434 360.849 118.742 360.579 119.112 360.401C119.489 360.216 119.885 360.123 120.3 360.123C120.751 360.123 121.166 360.231 121.543 360.445C121.921 360.653 122.224 360.945 122.453 361.322C122.712 360.923 123.046 360.623 123.453 360.423C123.867 360.223 124.304 360.123 124.763 360.123C125.266 360.123 125.725 360.242 126.139 360.479C126.561 360.716 126.894 361.049 127.139 361.478C127.39 361.9 127.516 362.399 127.516 362.977V366.918H126.317V363.121C126.317 362.514 126.143 362.055 125.795 361.744C125.455 361.426 125.059 361.267 124.607 361.267C124.326 361.267 124.052 361.33 123.786 361.456C123.527 361.582 123.312 361.778 123.142 362.044C122.979 362.311 122.898 362.658 122.898 363.088V366.918H121.698V363.121C121.698 362.699 121.613 362.351 121.443 362.077C121.28 361.804 121.066 361.6 120.799 361.467C120.54 361.326 120.27 361.256 119.989 361.256C119.715 361.256 119.445 361.319 119.178 361.445C118.919 361.57 118.705 361.767 118.534 362.033C118.364 362.299 118.279 362.651 118.279 363.088V366.918H117.08ZM132.361 367.007C131.754 367.007 131.199 366.855 130.695 366.552C130.192 366.241 129.789 365.826 129.485 365.308C129.189 364.79 129.041 364.216 129.041 363.587C129.041 362.958 129.189 362.385 129.485 361.866C129.789 361.348 130.192 360.938 130.695 360.634C131.199 360.323 131.754 360.168 132.361 360.168C132.82 360.168 133.249 360.253 133.649 360.423C134.056 360.593 134.407 360.83 134.703 361.134V360.257H135.814V366.918H134.703V366.041C134.407 366.337 134.056 366.574 133.649 366.751C133.249 366.922 132.82 367.007 132.361 367.007ZM132.516 365.919C132.938 365.919 133.319 365.815 133.66 365.608C134.008 365.393 134.281 365.112 134.481 364.764C134.688 364.409 134.792 364.017 134.792 363.587C134.792 363.158 134.688 362.769 134.481 362.422C134.281 362.066 134.008 361.785 133.66 361.578C133.319 361.363 132.938 361.256 132.516 361.256C132.094 361.256 131.709 361.363 131.362 361.578C131.021 361.785 130.747 362.066 130.54 362.422C130.34 362.769 130.24 363.158 130.24 363.587C130.24 364.017 130.34 364.409 130.54 364.764C130.747 365.112 131.021 365.393 131.362 365.608C131.709 365.815 132.094 365.919 132.516 365.919Z" fill="black"/>
<path fill-rule="evenodd" clip-rule="evenodd" d="M55.2508 306.053C53.8728 306.053 52.5512 306.6 51.5768 307.575C50.6024 308.549 50.055 309.871 50.055 311.249V312.711C48.9401 313 47.9528 313.651 47.248 314.562C46.5432 315.473 46.1608 316.592 46.1608 317.744C46.1608 318.895 46.5432 320.014 47.248 320.925C47.9528 321.836 48.9401 322.487 50.055 322.776V324.238C50.0549 325.294 50.3762 326.324 50.9762 327.192C51.5762 328.061 52.4264 328.726 53.4136 329.099C54.4009 329.472 55.4783 329.536 56.5026 329.281C57.527 329.027 58.4495 328.467 59.1476 327.675C59.8457 328.467 60.7683 329.027 61.7926 329.281C62.8169 329.536 63.8944 329.472 64.8816 329.099C65.8689 328.726 66.7191 328.061 67.319 327.192C67.919 326.324 68.2404 325.294 68.2403 324.238V322.776C69.3551 322.487 70.3424 321.836 71.0473 320.925C71.7521 320.014 72.1345 318.895 72.1345 317.744C72.1345 316.592 71.7521 315.473 71.0473 314.562C70.3424 313.651 69.3551 313 68.2403 312.711V311.249C68.2404 310.193 67.919 309.163 67.319 308.295C66.7191 307.427 65.8689 306.762 64.8816 306.388C63.8944 306.015 62.8169 305.952 61.7926 306.206C60.7683 306.46 59.8457 307.02 59.1476 307.812C58.66 307.259 58.0604 306.816 57.3885 306.513C56.7166 306.21 55.9879 306.053 55.2508 306.053ZM65.6424 313.847V311.249C65.6424 310.56 65.3687 309.899 64.8815 309.412C64.3943 308.925 63.7335 308.651 63.0445 308.651C62.3555 308.651 61.6947 308.925 61.2075 309.412C60.7203 309.899 60.4466 310.56 60.4466 311.249V317.14C61.2366 316.684 62.1325 316.444 63.0445 316.445C63.389 316.445 63.7194 316.582 63.963 316.825C64.2066 317.069 64.3435 317.399 64.3435 317.744C64.3435 318.088 64.2066 318.419 63.963 318.662C63.7194 318.906 63.389 319.043 63.0445 319.043C62.3555 319.043 61.6947 319.316 61.2075 319.804C60.7203 320.291 60.4466 320.951 60.4466 321.641V324.238C60.4466 324.927 60.7203 325.588 61.2075 326.075C61.6947 326.563 62.3555 326.836 63.0445 326.836C63.7335 326.836 64.3943 326.563 64.8815 326.075C65.3687 325.588 65.6424 324.927 65.6424 324.238V322.776C65.4964 322.738 65.352 322.694 65.2099 322.643C64.885 322.529 64.619 322.29 64.4704 321.979C64.3218 321.668 64.3028 321.311 64.4175 320.986C64.5322 320.661 64.7713 320.395 65.0821 320.246C65.393 320.098 65.7501 320.079 66.075 320.193C66.4316 320.319 66.8114 320.366 67.1879 320.33C67.5644 320.293 67.9284 320.176 68.2546 319.984C68.5808 319.793 68.8612 319.532 69.0763 319.221C69.2914 318.91 69.436 318.556 69.5 318.183C69.564 317.81 69.5458 317.428 69.4467 317.063C69.3476 316.698 69.1701 316.359 68.9264 316.07C68.6828 315.781 68.3789 315.548 68.036 315.388C67.6931 315.229 67.3196 315.146 66.9414 315.146C66.5969 315.146 66.2665 315.009 66.0229 314.765C65.7793 314.522 65.6424 314.191 65.6424 313.847ZM55.2508 319.043C55.9398 319.043 56.6006 319.316 57.0878 319.804C57.575 320.291 57.8487 320.951 57.8487 321.641V324.238C57.8487 324.927 57.575 325.588 57.0878 326.075C56.6006 326.563 55.9398 326.836 55.2508 326.836C54.5618 326.836 53.901 326.563 53.4138 326.075C52.9266 325.588 52.6529 324.927 52.6529 324.238V322.776C52.8001 322.738 52.9443 322.694 53.0854 322.643C53.4103 322.529 53.6763 322.29 53.8249 321.979C53.9735 321.668 53.9925 321.311 53.8778 320.986C53.7631 320.661 53.524 320.395 53.2132 320.246C52.9023 320.098 52.5452 320.079 52.2203 320.193C51.8637 320.319 51.4838 320.366 51.1074 320.33C50.7309 320.293 50.3669 320.176 50.0407 319.984C49.7145 319.793 49.4341 319.532 49.219 319.221C49.0039 318.91 48.8593 318.556 48.7953 318.183C48.7313 317.81 48.7495 317.428 48.8486 317.063C48.9476 316.698 49.1252 316.359 49.3688 316.07C49.6125 315.781 49.9164 315.548 50.2593 315.388C50.6021 315.229 50.9757 315.146 51.3539 315.146C51.6984 315.146 52.0288 315.009 52.2724 314.765C52.516 314.522 52.6529 314.191 52.6529 313.847V311.249C52.6529 310.56 52.9266 309.899 53.4138 309.412C53.901 308.925 54.5618 308.651 55.2508 308.651C55.9398 308.651 56.6006 308.925 57.0878 309.412C57.575 309.899 57.8487 310.56 57.8487 311.249V317.14C57.0587 316.684 56.1627 316.444 55.2508 316.445C54.9063 316.445 54.5759 316.582 54.3323 316.825C54.0887 317.069 53.9518 317.399 53.9518 317.744C53.9518 318.088 54.0887 318.419 54.3323 318.662C54.5759 318.906 54.9063 319.043 55.2508 319.043Z" fill="black"/>
<path fill-rule="evenodd" clip-rule="evenodd" d="M55.2507 350.817C53.8726 350.817 52.5511 351.364 51.5767 352.339C50.6023 353.313 50.0548 354.635 50.0548 356.013V357.475C48.94 357.764 47.9527 358.415 47.2479 359.326C46.5431 360.237 46.1606 361.356 46.1606 362.507C46.1606 363.659 46.5431 364.778 47.2479 365.689C47.9527 366.6 48.94 367.251 50.0548 367.539V369.002C50.0548 370.057 50.3761 371.088 50.9761 371.956C51.5761 372.824 52.4263 373.489 53.4135 373.863C54.4007 374.236 55.4782 374.299 56.5025 374.045C57.5268 373.791 58.4494 373.231 59.1475 372.439C59.8456 373.231 60.7682 373.791 61.7925 374.045C62.8168 374.299 63.8943 374.236 64.8815 373.863C65.8688 373.489 66.7189 372.824 67.3189 371.956C67.9189 371.088 68.2403 370.057 68.2402 369.002V367.539C69.355 367.251 70.3423 366.6 71.0471 365.689C71.752 364.778 72.1344 363.659 72.1344 362.507C72.1344 361.356 71.752 360.237 71.0471 359.326C70.3423 358.415 69.355 357.764 68.2402 357.475V356.013C68.2403 354.957 67.9189 353.927 67.3189 353.058C66.7189 352.19 65.8688 351.525 64.8815 351.152C63.8943 350.779 62.8168 350.715 61.7925 350.969C60.7682 351.224 59.8456 351.784 59.1475 352.576C58.6599 352.023 58.0602 351.58 57.3884 351.277C56.7165 350.973 55.9878 350.817 55.2507 350.817ZM65.6423 358.61V356.013C65.6423 355.324 65.3686 354.663 64.8814 354.176C64.3942 353.688 63.7334 353.415 63.0444 353.415C62.3554 353.415 61.6946 353.688 61.2074 354.176C60.7202 354.663 60.4465 355.324 60.4465 356.013V361.903C61.2364 361.448 62.1324 361.208 63.0444 361.208C63.3889 361.208 63.7193 361.345 63.9629 361.589C64.2065 361.832 64.3433 362.163 64.3433 362.507C64.3433 362.852 64.2065 363.182 63.9629 363.426C63.7193 363.669 63.3889 363.806 63.0444 363.806C62.3554 363.806 61.6946 364.08 61.2074 364.567C60.7202 365.054 60.4465 365.715 60.4465 366.404V369.002C60.4465 369.691 60.7202 370.352 61.2074 370.839C61.6946 371.326 62.3554 371.6 63.0444 371.6C63.7334 371.6 64.3942 371.326 64.8814 370.839C65.3686 370.352 65.6423 369.691 65.6423 369.002V367.539C65.4962 367.502 65.3519 367.457 65.2097 367.407C64.8849 367.292 64.6189 367.053 64.4703 366.742C64.3217 366.432 64.3026 366.074 64.4174 365.75C64.5321 365.425 64.7712 365.159 65.082 365.01C65.3928 364.861 65.75 364.842 66.0748 364.957C66.4315 365.083 66.8113 365.129 67.1878 365.093C67.5643 365.057 67.9283 364.939 68.2545 364.748C68.5806 364.556 68.8611 364.296 69.0762 363.985C69.2913 363.674 69.4359 363.32 69.4999 362.947C69.5638 362.574 69.5457 362.192 69.4466 361.827C69.3475 361.462 69.17 361.123 68.9263 360.834C68.6826 360.544 68.3788 360.312 68.0359 360.152C67.693 359.993 67.3194 359.91 66.9412 359.909C66.5967 359.909 66.2663 359.773 66.0227 359.529C65.7791 359.285 65.6423 358.955 65.6423 358.61ZM55.2507 363.806C55.9397 363.806 56.6004 364.08 57.0876 364.567C57.5749 365.054 57.8486 365.715 57.8486 366.404V369.002C57.8486 369.691 57.5749 370.352 57.0876 370.839C56.6004 371.326 55.9397 371.6 55.2507 371.6C54.5616 371.6 53.9009 371.326 53.4137 370.839C52.9265 370.352 52.6527 369.691 52.6527 369.002V367.539C52.8 367.501 52.9441 367.457 53.0853 367.407C53.4102 367.292 53.6762 367.053 53.8247 366.742C53.9733 366.432 53.9924 366.074 53.8777 365.75C53.7629 365.425 53.5239 365.159 53.213 365.01C52.9022 364.861 52.5451 364.842 52.2202 364.957C51.8635 365.083 51.4837 365.129 51.1072 365.093C50.7308 365.057 50.3667 364.939 50.0406 364.748C49.7144 364.556 49.434 364.296 49.2189 363.985C49.0037 363.674 48.8591 363.32 48.7952 362.947C48.7312 362.574 48.7494 362.192 48.8484 361.827C48.9475 361.462 49.1251 361.123 49.3687 360.834C49.6124 360.544 49.9163 360.312 50.2591 360.152C50.602 359.993 50.9756 359.91 51.3538 359.909C51.6983 359.909 52.0287 359.773 52.2723 359.529C52.5159 359.285 52.6527 358.955 52.6527 358.61V356.013C52.6527 355.324 52.9265 354.663 53.4137 354.176C53.9009 353.688 54.5616 353.415 55.2507 353.415C55.9397 353.415 56.6004 353.688 57.0876 354.176C57.5749 354.663 57.8486 355.324 57.8486 356.013V361.903C57.0586 361.448 56.1626 361.208 55.2507 361.208C54.9061 361.208 54.5758 361.345 54.3322 361.589C54.0886 361.832 53.9517 362.163 53.9517 362.507C53.9517 362.852 54.0886 363.182 54.3322 363.426C54.5758 363.669 54.9061 363.806 55.2507 363.806Z" fill="black"/>
<path d="M32.3513 172.015L26.1874 155.495H28.248L31.8717 165.088C32.002 165.419 32.1086 165.739 32.1915 166.047C32.2744 166.343 32.3632 166.698 32.4579 167.113C32.5526 166.698 32.6415 166.343 32.7244 166.047C32.8191 165.739 32.9257 165.419 33.0441 165.088L36.7034 154.962L40.3449 165.088C40.4515 165.384 40.5521 165.686 40.6469 165.994C40.7535 166.29 40.8482 166.663 40.9311 167.113C41.0258 166.663 41.1206 166.29 41.2153 165.994C41.31 165.686 41.4166 165.384 41.535 165.088L45.1588 155.495H47.0772L40.9311 172.015L37.2363 161.641C37.1297 161.334 37.029 161.038 36.9343 160.753C36.8396 160.457 36.7448 160.084 36.6501 159.634C36.5554 160.084 36.4606 160.457 36.3659 160.753C36.2711 161.038 36.1705 161.334 36.0639 161.641L32.3513 172.015ZM48.9874 171.482V154.429H50.9058V162.334C51.3085 161.778 51.8058 161.351 52.398 161.055C52.9901 160.759 53.6236 160.611 54.2987 160.611C55.0566 160.611 55.7553 160.801 56.3947 161.18C57.0461 161.547 57.5731 162.086 57.9757 162.796C58.3783 163.495 58.5796 164.347 58.5796 165.354V171.482H56.6612V165.62C56.6612 164.78 56.4066 164.04 55.8974 163.4C55.4 162.749 54.6954 162.423 53.7835 162.423C53.0374 162.423 52.3684 162.695 51.7762 163.24C51.196 163.773 50.9058 164.549 50.9058 165.567V171.482H48.9874ZM66.3423 171.625C65.3712 171.625 64.483 171.382 63.6778 170.896C62.8725 170.399 62.2271 169.736 61.7415 168.907C61.2679 168.078 61.031 167.16 61.031 166.153C61.031 165.147 61.2679 164.229 61.7415 163.4C62.2271 162.571 62.8725 161.914 63.6778 161.428C64.483 160.931 65.3712 160.682 66.3423 160.682C67.0765 160.682 67.7634 160.818 68.4028 161.091C69.0542 161.363 69.6167 161.742 70.0904 162.228V160.824H71.8667V171.482H70.0904V170.079C69.6167 170.553 69.0542 170.932 68.4028 171.216C67.7634 171.488 67.0765 171.625 66.3423 171.625ZM66.591 169.884C67.266 169.884 67.8759 169.718 68.4206 169.386C68.9772 169.043 69.4154 168.593 69.7351 168.036C70.0667 167.468 70.2325 166.84 70.2325 166.153C70.2325 165.467 70.0667 164.845 69.7351 164.288C69.4154 163.72 68.9772 163.27 68.4206 162.938C67.8759 162.595 67.266 162.423 66.591 162.423C65.916 162.423 65.3002 162.595 64.7436 162.938C64.1988 163.27 63.7607 163.72 63.4291 164.288C63.1093 164.845 62.9495 165.467 62.9495 166.153C62.9495 166.84 63.1093 167.468 63.4291 168.036C63.7607 168.593 64.1988 169.043 64.7436 169.386C65.3002 169.718 65.916 169.884 66.591 169.884ZM76.5097 171.482V162.423H74.0938V160.824H76.5629V157.272H78.3748V160.824H81.0216V162.423H78.4281V171.482H76.5097ZM93.4832 171.696C92.4411 171.696 91.4937 171.447 90.6411 170.95C89.7884 170.452 89.1075 169.783 88.5983 168.942C88.089 168.101 87.8344 167.172 87.8344 166.153C87.8344 165.135 88.089 164.205 88.5983 163.365C89.1075 162.524 89.7884 161.855 90.6411 161.357C91.4937 160.86 92.4411 160.611 93.4832 160.611C94.253 160.611 94.9753 160.747 95.6504 161.02C96.3254 161.292 96.9175 161.653 97.4267 162.103L96.8405 164.519C96.5444 163.927 96.0944 163.43 95.4905 163.027C94.8984 162.624 94.2234 162.423 93.4654 162.423C92.7786 162.423 92.1509 162.595 91.5825 162.938C91.0259 163.27 90.5818 163.72 90.2503 164.288C89.9187 164.845 89.7529 165.467 89.7529 166.153C89.7529 166.828 89.9187 167.45 90.2503 168.019C90.5818 168.587 91.0259 169.043 91.5825 169.386C92.1509 169.718 92.7786 169.884 93.4654 169.884C94.2234 169.884 94.8984 169.688 95.4905 169.298C96.0944 168.907 96.5444 168.403 96.8405 167.788L97.4267 170.203C96.9175 170.653 96.3254 171.015 95.6504 171.287C94.9753 171.559 94.253 171.696 93.4832 171.696ZM104.337 171.625C103.366 171.625 102.477 171.382 101.672 170.896C100.867 170.399 100.221 169.736 99.736 168.907C99.2623 168.078 99.0254 167.16 99.0254 166.153C99.0254 165.147 99.2623 164.229 99.736 163.4C100.221 162.571 100.867 161.914 101.672 161.428C102.477 160.931 103.366 160.682 104.337 160.682C105.071 160.682 105.758 160.818 106.397 161.091C107.049 161.363 107.611 161.742 108.085 162.228V160.824H109.861V171.482H108.085V170.079C107.611 170.553 107.049 170.932 106.397 171.216C105.758 171.488 105.071 171.625 104.337 171.625ZM104.585 169.884C105.26 169.884 105.87 169.718 106.415 169.386C106.972 169.043 107.41 168.593 107.73 168.036C108.061 167.468 108.227 166.84 108.227 166.153C108.227 165.467 108.061 164.845 107.73 164.288C107.41 163.72 106.972 163.27 106.415 162.938C105.87 162.595 105.26 162.423 104.585 162.423C103.91 162.423 103.295 162.595 102.738 162.938C102.193 163.27 101.755 163.72 101.423 164.288C101.104 164.845 100.944 165.467 100.944 166.153C100.944 166.84 101.104 167.468 101.423 168.036C101.755 168.593 102.193 169.043 102.738 169.386C103.295 169.718 103.91 169.884 104.585 169.884ZM113.261 171.482V160.824H115.037V162.547C115.428 161.92 115.931 161.44 116.547 161.109C117.174 160.777 117.85 160.611 118.572 160.611C119.33 160.611 120.028 160.801 120.668 161.18C121.319 161.547 121.846 162.086 122.249 162.796C122.652 163.495 122.853 164.347 122.853 165.354V171.482H120.934V165.62C120.934 164.78 120.68 164.04 120.171 163.4C119.673 162.749 118.969 162.423 118.057 162.423C117.311 162.423 116.642 162.695 116.049 163.24C115.469 163.773 115.179 164.549 115.179 165.567V171.482H113.261ZM130.953 171.696C129.911 171.696 128.964 171.447 128.111 170.95C127.258 170.452 126.577 169.783 126.068 168.942C125.559 168.101 125.304 167.172 125.304 166.153C125.304 165.135 125.559 164.205 126.068 163.365C126.577 162.524 127.258 161.855 128.111 161.357C128.964 160.86 129.911 160.611 130.953 160.611C131.723 160.611 132.445 160.747 133.12 161.02C133.795 161.292 134.387 161.653 134.897 162.103L134.31 164.519C134.014 163.927 133.564 163.43 132.96 163.027C132.368 162.624 131.693 162.423 130.935 162.423C130.248 162.423 129.621 162.595 129.052 162.938C128.496 163.27 128.052 163.72 127.72 164.288C127.388 164.845 127.223 165.467 127.223 166.153C127.223 166.828 127.388 167.45 127.72 168.019C128.052 168.587 128.496 169.043 129.052 169.386C129.621 169.718 130.248 169.884 130.935 169.884C131.693 169.884 132.368 169.688 132.96 169.298C133.564 168.907 134.014 168.403 134.31 167.788L134.897 170.203C134.387 170.653 133.795 171.015 133.12 171.287C132.445 171.559 131.723 171.696 130.953 171.696ZM142.322 171.696C141.208 171.696 140.208 171.447 139.32 170.95C138.443 170.452 137.751 169.777 137.241 168.924C136.744 168.06 136.495 167.101 136.495 166.047C136.495 165.04 136.738 164.128 137.224 163.311C137.709 162.482 138.36 161.825 139.178 161.339C140.006 160.854 140.918 160.611 141.913 160.611C142.896 160.611 143.796 160.848 144.613 161.322C145.43 161.784 146.082 162.411 146.567 163.205C147.053 163.998 147.295 164.898 147.295 165.905V166.686H140.332C140.024 166.686 139.71 166.674 139.391 166.651C139.071 166.627 138.757 166.592 138.449 166.544C138.579 167.492 139.006 168.285 139.728 168.924C140.462 169.564 141.333 169.884 142.339 169.884C143.014 169.884 143.642 169.73 144.222 169.422C144.803 169.114 145.27 168.705 145.626 168.196L146.159 170.381C145.649 170.796 145.063 171.121 144.4 171.358C143.749 171.583 143.056 171.696 142.322 171.696ZM138.396 165.247C139.035 165.141 139.681 165.088 140.332 165.088H143.867C144.128 165.088 144.382 165.099 144.631 165.123C144.891 165.135 145.152 165.153 145.412 165.176C145.247 164.347 144.832 163.666 144.169 163.134C143.506 162.589 142.754 162.316 141.913 162.316C141.049 162.316 140.291 162.607 139.639 163.187C138.988 163.755 138.574 164.442 138.396 165.247ZM149.856 171.482V160.824H151.632V162.778C152.011 162.151 152.515 161.653 153.142 161.286C153.77 160.907 154.516 160.718 155.381 160.718L155.86 162.636C155.635 162.565 155.375 162.53 155.079 162.53C154.084 162.53 153.284 162.849 152.681 163.489C152.077 164.117 151.775 165.017 151.775 166.189V171.482H149.856ZM167.736 171.625C166.765 171.625 165.876 171.382 165.071 170.896C164.266 170.399 163.62 169.736 163.135 168.907C162.661 168.078 162.424 167.16 162.424 166.153C162.424 165.147 162.661 164.229 163.135 163.4C163.62 162.571 164.266 161.914 165.071 161.428C165.876 160.931 166.765 160.682 167.736 160.682C168.434 160.682 169.092 160.807 169.707 161.055C170.323 161.304 170.868 161.647 171.342 162.086V154.429H173.26V171.482H171.484V170.079C171.01 170.553 170.448 170.932 169.796 171.216C169.157 171.488 168.47 171.625 167.736 171.625ZM167.984 169.884C168.659 169.884 169.269 169.718 169.814 169.386C170.371 169.043 170.809 168.593 171.128 168.036C171.46 167.468 171.626 166.84 171.626 166.153C171.626 165.467 171.46 164.845 171.128 164.288C170.809 163.72 170.371 163.27 169.814 162.938C169.269 162.595 168.659 162.423 167.984 162.423C167.309 162.423 166.694 162.595 166.137 162.938C165.592 163.27 165.154 163.72 164.822 164.288C164.503 164.845 164.343 165.467 164.343 166.153C164.343 166.84 164.503 167.468 164.822 168.036C165.154 168.593 165.592 169.043 166.137 169.386C166.694 169.718 167.309 169.884 167.984 169.884ZM181.527 171.696C180.496 171.696 179.555 171.447 178.702 170.95C177.85 170.452 177.169 169.783 176.66 168.942C176.162 168.101 175.913 167.172 175.913 166.153C175.913 165.123 176.162 164.193 176.66 163.365C177.169 162.524 177.85 161.855 178.702 161.357C179.555 160.86 180.496 160.611 181.527 160.611C182.569 160.611 183.51 160.86 184.351 161.357C185.204 161.855 185.879 162.524 186.376 163.365C186.885 164.193 187.14 165.123 187.14 166.153C187.14 167.172 186.885 168.101 186.376 168.942C185.879 169.783 185.204 170.452 184.351 170.95C183.51 171.447 182.569 171.696 181.527 171.696ZM181.527 169.884C182.214 169.884 182.835 169.718 183.392 169.386C183.948 169.043 184.393 168.593 184.724 168.036C185.056 167.468 185.222 166.84 185.222 166.153C185.222 165.467 185.056 164.845 184.724 164.288C184.393 163.72 183.948 163.27 183.392 162.938C182.835 162.595 182.214 162.423 181.527 162.423C180.84 162.423 180.218 162.595 179.662 162.938C179.105 163.27 178.661 163.72 178.329 164.288C177.998 164.845 177.832 165.467 177.832 166.153C177.832 166.84 177.998 167.468 178.329 168.036C178.661 168.593 179.105 169.043 179.662 169.386C180.218 169.718 180.84 169.884 181.527 169.884ZM194.676 176.811L198.139 169.919L193.628 160.824H195.795L198.068 165.443C198.27 165.857 198.465 166.266 198.655 166.669C198.844 167.071 199.034 167.557 199.223 168.125C199.424 167.557 199.614 167.071 199.791 166.669C199.981 166.254 200.182 165.845 200.395 165.443L202.705 160.824H204.747L196.754 176.811H194.676ZM211.003 171.696C209.973 171.696 209.031 171.447 208.179 170.95C207.326 170.452 206.645 169.783 206.136 168.942C205.638 168.101 205.39 167.172 205.39 166.153C205.39 165.123 205.638 164.193 206.136 163.365C206.645 162.524 207.326 161.855 208.179 161.357C209.031 160.86 209.973 160.611 211.003 160.611C212.045 160.611 212.987 160.86 213.827 161.357C214.68 161.855 215.355 162.524 215.852 163.365C216.362 164.193 216.616 165.123 216.616 166.153C216.616 167.172 216.362 168.101 215.852 168.942C215.355 169.783 214.68 170.452 213.827 170.95C212.987 171.447 212.045 171.696 211.003 171.696ZM211.003 169.884C211.69 169.884 212.312 169.718 212.868 169.386C213.425 169.043 213.869 168.593 214.2 168.036C214.532 167.468 214.698 166.84 214.698 166.153C214.698 165.467 214.532 164.845 214.2 164.288C213.869 163.72 213.425 163.27 212.868 162.938C212.312 162.595 211.69 162.423 211.003 162.423C210.316 162.423 209.694 162.595 209.138 162.938C208.581 163.27 208.137 163.72 207.806 164.288C207.474 164.845 207.308 165.467 207.308 166.153C207.308 166.84 207.474 167.468 207.806 168.036C208.137 168.593 208.581 169.043 209.138 169.386C209.694 169.718 210.316 169.884 211.003 169.884ZM223.343 171.696C222.597 171.696 221.898 171.512 221.247 171.145C220.596 170.766 220.069 170.221 219.666 169.511C219.263 168.8 219.062 167.947 219.062 166.953V160.824H220.981V166.686C220.981 167.527 221.229 168.273 221.727 168.924C222.236 169.564 222.946 169.884 223.858 169.884C224.604 169.884 225.267 169.617 225.848 169.084C226.44 168.54 226.736 167.758 226.736 166.74V160.824H228.654V171.482H226.878V169.759C226.487 170.387 225.978 170.867 225.35 171.198C224.735 171.53 224.065 171.696 223.343 171.696ZM241.276 172.015L235.894 160.824H238.078L240.228 165.443C240.429 165.881 240.619 166.307 240.796 166.722C240.986 167.136 241.169 167.657 241.347 168.285C241.536 167.669 241.726 167.148 241.915 166.722C242.117 166.295 242.306 165.869 242.484 165.443L244.633 160.327L246.765 165.443C246.942 165.881 247.126 166.307 247.315 166.722C247.505 167.136 247.688 167.657 247.866 168.285C248.044 167.657 248.227 167.136 248.417 166.722C248.606 166.295 248.802 165.869 249.003 165.443L251.188 160.824H253.231L247.848 172.015L245.681 167.255C245.492 166.828 245.302 166.408 245.113 165.994C244.935 165.567 244.752 165.058 244.562 164.466C244.384 165.058 244.201 165.567 244.011 165.994C243.822 166.408 243.627 166.828 243.425 167.255L241.276 172.015ZM259.187 171.625C258.216 171.625 257.328 171.382 256.522 170.896C255.717 170.399 255.072 169.736 254.586 168.907C254.113 168.078 253.876 167.16 253.876 166.153C253.876 165.147 254.113 164.229 254.586 163.4C255.072 162.571 255.717 161.914 256.522 161.428C257.328 160.931 258.216 160.682 259.187 160.682C259.921 160.682 260.608 160.818 261.248 161.091C261.899 161.363 262.461 161.742 262.935 162.228V160.824H264.711V171.482H262.935V170.079C262.461 170.553 261.899 170.932 261.248 171.216C260.608 171.488 259.921 171.625 259.187 171.625ZM259.436 169.884C260.111 169.884 260.721 169.718 261.265 169.386C261.822 169.043 262.26 168.593 262.58 168.036C262.911 167.468 263.077 166.84 263.077 166.153C263.077 165.467 262.911 164.845 262.58 164.288C262.26 163.72 261.822 163.27 261.265 162.938C260.721 162.595 260.111 162.423 259.436 162.423C258.761 162.423 258.145 162.595 257.588 162.938C257.044 163.27 256.605 163.72 256.274 164.288C255.954 164.845 255.794 165.467 255.794 166.153C255.794 166.84 255.954 167.468 256.274 168.036C256.605 168.593 257.044 169.043 257.588 169.386C258.145 169.718 258.761 169.884 259.436 169.884ZM268.111 171.482V160.824H269.887V162.547C270.278 161.92 270.781 161.44 271.397 161.109C272.025 160.777 272.7 160.611 273.422 160.611C274.18 160.611 274.879 160.801 275.518 161.18C276.17 161.547 276.697 162.086 277.099 162.796C277.502 163.495 277.703 164.347 277.703 165.354V171.482H275.785V165.62C275.785 164.78 275.53 164.04 275.021 163.4C274.524 162.749 273.819 162.423 272.907 162.423C272.161 162.423 271.492 162.695 270.9 163.24C270.319 163.773 270.029 164.549 270.029 165.567V171.482H268.111ZM281.794 171.482V162.423H279.378V160.824H281.848V157.272H283.659V160.824H286.306V162.423H283.713V171.482H281.794ZM28.923 205.482V196.423H26.5071V194.824H28.9763V191.272H30.7881V194.824H33.4349V196.423H30.8414V205.482H28.923ZM40.0157 205.696C38.9854 205.696 38.044 205.447 37.1913 204.95C36.3387 204.452 35.6577 203.783 35.1485 202.942C34.6511 202.101 34.4025 201.172 34.4025 200.153C34.4025 199.123 34.6511 198.193 35.1485 197.365C35.6577 196.524 36.3387 195.855 37.1913 195.357C38.044 194.86 38.9854 194.611 40.0157 194.611C41.0578 194.611 41.9993 194.86 42.8401 195.357C43.6928 195.855 44.3678 196.524 44.8651 197.365C45.3744 198.193 45.629 199.123 45.629 200.153C45.629 201.172 45.3744 202.101 44.8651 202.942C44.3678 203.783 43.6928 204.452 42.8401 204.95C41.9993 205.447 41.0578 205.696 40.0157 205.696ZM40.0157 203.884C40.7026 203.884 41.3243 203.718 41.8809 203.386C42.4375 203.043 42.8816 202.593 43.2131 202.036C43.5447 201.468 43.7105 200.84 43.7105 200.153C43.7105 199.467 43.5447 198.845 43.2131 198.288C42.8816 197.72 42.4375 197.27 41.8809 196.938C41.3243 196.595 40.7026 196.423 40.0157 196.423C39.3289 196.423 38.7071 196.595 38.1505 196.938C37.594 197.27 37.1499 197.72 36.8183 198.288C36.4867 198.845 36.3209 199.467 36.3209 200.153C36.3209 200.84 36.4867 201.468 36.8183 202.036C37.1499 202.593 37.594 203.043 38.1505 203.386C38.7071 203.718 39.3289 203.884 40.0157 203.884ZM53.6087 205.482V188.429H55.5271V205.482H53.6087ZM64.0097 205.696C62.8965 205.696 61.8959 205.447 61.0077 204.95C60.1314 204.452 59.4386 203.777 58.9294 202.924C58.432 202.06 58.1833 201.101 58.1833 200.047C58.1833 199.04 58.4261 198.128 58.9116 197.311C59.3971 196.482 60.0485 195.825 60.8656 195.339C61.6945 194.854 62.6064 194.611 63.6012 194.611C64.5841 194.611 65.4841 194.848 66.3012 195.322C67.1183 195.784 67.7697 196.411 68.2552 197.205C68.7407 197.998 68.9835 198.898 68.9835 199.905V200.686H62.0202C61.7123 200.686 61.3985 200.674 61.0787 200.651C60.759 200.627 60.4452 200.592 60.1373 200.544C60.2676 201.492 60.6939 202.285 61.4163 202.924C62.1505 203.564 63.0209 203.884 64.0275 203.884C64.7025 203.884 65.3301 203.73 65.9104 203.422C66.4907 203.114 66.9585 202.705 67.3137 202.196L67.8466 204.381C67.3374 204.796 66.7512 205.121 66.088 205.358C65.4367 205.583 64.7439 205.696 64.0097 205.696ZM60.084 199.247C60.7235 199.141 61.3689 199.088 62.0202 199.088H65.5551C65.8157 199.088 66.0703 199.099 66.319 199.123C66.5795 199.135 66.84 199.153 67.1006 199.176C66.9348 198.347 66.5203 197.666 65.8571 197.134C65.194 196.589 64.442 196.316 63.6012 196.316C62.7367 196.316 61.9788 196.607 61.3274 197.187C60.6761 197.755 60.2616 198.442 60.084 199.247ZM76.1094 205.625C75.1384 205.625 74.2502 205.382 73.4449 204.896C72.6396 204.399 71.9942 203.736 71.5087 202.907C71.035 202.078 70.7981 201.16 70.7981 200.153C70.7981 199.147 71.035 198.229 71.5087 197.4C71.9942 196.571 72.6396 195.914 73.4449 195.428C74.2502 194.931 75.1384 194.682 76.1094 194.682C76.8436 194.682 77.5305 194.818 78.17 195.091C78.8213 195.363 79.3838 195.742 79.8575 196.228V194.824H81.6339V205.482H79.8575V204.079C79.3838 204.553 78.8213 204.932 78.17 205.216C77.5305 205.488 76.8436 205.625 76.1094 205.625ZM76.3581 203.884C77.0331 203.884 77.643 203.718 78.1877 203.386C78.7443 203.043 79.1825 202.593 79.5022 202.036C79.8338 201.468 79.9996 200.84 79.9996 200.153C79.9996 199.467 79.8338 198.845 79.5022 198.288C79.1825 197.72 78.7443 197.27 78.1877 196.938C77.643 196.595 77.0331 196.423 76.3581 196.423C75.6831 196.423 75.0673 196.595 74.5107 196.938C73.966 197.27 73.5278 197.72 73.1962 198.288C72.8765 198.845 72.7166 199.467 72.7166 200.153C72.7166 200.84 72.8765 201.468 73.1962 202.036C73.5278 202.593 73.966 203.043 74.5107 203.386C75.0673 203.718 75.6831 203.884 76.3581 203.884ZM85.0333 205.482V194.824H86.8097V196.778C87.1886 196.151 87.6919 195.653 88.3196 195.286C88.9472 194.907 89.6933 194.718 90.5578 194.718L91.0374 196.636C90.8124 196.565 90.5519 196.53 90.2558 196.53C89.2611 196.53 88.4617 196.849 87.8577 197.489C87.2538 198.117 86.9518 199.017 86.9518 200.189V205.482H85.0333ZM93.0269 205.482V194.824H94.8033V196.547C95.1941 195.92 95.6974 195.44 96.3132 195.109C96.9408 194.777 97.6158 194.611 98.3382 194.611C99.0961 194.611 99.7948 194.801 100.434 195.18C101.086 195.547 101.613 196.086 102.015 196.796C102.418 197.495 102.619 198.347 102.619 199.354V205.482H100.701V199.62C100.701 198.78 100.446 198.04 99.9369 197.4C99.4395 196.749 98.7349 196.423 97.823 196.423C97.077 196.423 96.4079 196.695 95.8158 197.24C95.2355 197.773 94.9454 198.549 94.9454 199.567V205.482H93.0269ZM115.703 205.625C114.731 205.625 113.843 205.382 113.038 204.896C112.233 204.399 111.587 203.736 111.102 202.907C110.628 202.078 110.391 201.16 110.391 200.153C110.391 199.147 110.628 198.229 111.102 197.4C111.587 196.571 112.233 195.914 113.038 195.428C113.843 194.931 114.731 194.682 115.703 194.682C116.437 194.682 117.124 194.818 117.763 195.091C118.414 195.363 118.977 195.742 119.451 196.228V194.824H121.227V205.482H119.451V204.079C118.977 204.553 118.414 204.932 117.763 205.216C117.124 205.488 116.437 205.625 115.703 205.625ZM115.951 203.884C116.626 203.884 117.236 203.718 117.781 203.386C118.337 203.043 118.776 202.593 119.095 202.036C119.427 201.468 119.593 200.84 119.593 200.153C119.593 199.467 119.427 198.845 119.095 198.288C118.776 197.72 118.337 197.27 117.781 196.938C117.236 196.595 116.626 196.423 115.951 196.423C115.276 196.423 114.66 196.595 114.104 196.938C113.559 197.27 113.121 197.72 112.789 198.288C112.47 198.845 112.31 199.467 112.31 200.153C112.31 200.84 112.47 201.468 112.789 202.036C113.121 202.593 113.559 203.043 114.104 203.386C114.66 203.718 115.276 203.884 115.951 203.884ZM130.151 205.625C129.417 205.625 128.73 205.488 128.09 205.216C127.451 204.932 126.888 204.553 126.403 204.079V205.482H124.626V188.429H126.545V196.086C127.019 195.647 127.563 195.304 128.179 195.055C128.795 194.807 129.452 194.682 130.151 194.682C131.134 194.682 132.022 194.931 132.815 195.428C133.621 195.914 134.26 196.571 134.734 197.4C135.219 198.229 135.462 199.147 135.462 200.153C135.462 201.16 135.219 202.078 134.734 202.907C134.26 203.736 133.621 204.399 132.815 204.896C132.022 205.382 131.134 205.625 130.151 205.625ZM129.902 203.884C130.577 203.884 131.187 203.718 131.732 203.386C132.288 203.043 132.727 202.593 133.046 202.036C133.378 201.468 133.544 200.84 133.544 200.153C133.544 199.467 133.378 198.845 133.046 198.288C132.727 197.72 132.288 197.27 131.732 196.938C131.187 196.595 130.577 196.423 129.902 196.423C129.227 196.423 128.611 196.595 128.055 196.938C127.51 197.27 127.072 197.72 126.74 198.288C126.421 198.845 126.261 199.467 126.261 200.153C126.261 200.84 126.421 201.468 126.74 202.036C127.072 202.593 127.51 203.043 128.055 203.386C128.611 203.718 129.227 203.884 129.902 203.884ZM142.983 205.696C141.953 205.696 141.011 205.447 140.158 204.95C139.306 204.452 138.625 203.783 138.116 202.942C137.618 202.101 137.37 201.172 137.37 200.153C137.37 199.123 137.618 198.193 138.116 197.365C138.625 196.524 139.306 195.855 140.158 195.357C141.011 194.86 141.953 194.611 142.983 194.611C144.025 194.611 144.966 194.86 145.807 195.357C146.66 195.855 147.335 196.524 147.832 197.365C148.341 198.193 148.596 199.123 148.596 200.153C148.596 201.172 148.341 202.101 147.832 202.942C147.335 203.783 146.66 204.452 145.807 204.95C144.966 205.447 144.025 205.696 142.983 205.696ZM142.983 203.884C143.67 203.884 144.291 203.718 144.848 203.386C145.405 203.043 145.849 202.593 146.18 202.036C146.512 201.468 146.678 200.84 146.678 200.153C146.678 199.467 146.512 198.845 146.18 198.288C145.849 197.72 145.405 197.27 144.848 196.938C144.291 196.595 143.67 196.423 142.983 196.423C142.296 196.423 141.674 196.595 141.118 196.938C140.561 197.27 140.117 197.72 139.785 198.288C139.454 198.845 139.288 199.467 139.288 200.153C139.288 200.84 139.454 201.468 139.785 202.036C140.117 202.593 140.561 203.043 141.118 203.386C141.674 203.718 142.296 203.884 142.983 203.884ZM155.323 205.696C154.577 205.696 153.878 205.512 153.227 205.145C152.575 204.766 152.048 204.221 151.646 203.511C151.243 202.8 151.042 201.947 151.042 200.953V194.824H152.96V200.686C152.96 201.527 153.209 202.273 153.706 202.924C154.216 203.564 154.926 203.884 155.838 203.884C156.584 203.884 157.247 203.617 157.827 203.084C158.42 202.54 158.716 201.758 158.716 200.74V194.824H160.634V205.482H158.858V203.759C158.467 204.387 157.958 204.867 157.33 205.198C156.714 205.53 156.045 205.696 155.323 205.696ZM165.288 205.482V196.423H162.872V194.824H165.341V191.272H167.153V194.824H169.8V196.423H167.207V205.482H165.288ZM173.744 200.153C173.744 199.289 173.874 198.543 174.134 197.915C174.407 197.288 174.721 196.725 175.076 196.228C175.431 195.73 175.739 195.245 176 194.771C176.272 194.297 176.408 193.782 176.408 193.226C176.408 192.586 176.207 192.065 175.804 191.662C175.401 191.26 174.88 191.058 174.241 191.058C173.779 191.058 173.347 191.177 172.944 191.414C172.542 191.639 172.204 191.941 171.932 192.32V190.01C172.24 189.774 172.601 189.596 173.015 189.478C173.442 189.347 173.892 189.282 174.365 189.282C175.182 189.282 175.887 189.454 176.479 189.797C177.071 190.141 177.527 190.597 177.847 191.165C178.167 191.722 178.327 192.337 178.327 193.012C178.327 193.676 178.19 194.28 177.918 194.824C177.646 195.369 177.326 195.902 176.959 196.423C176.603 196.944 176.278 197.501 175.982 198.093C175.686 198.685 175.508 199.372 175.449 200.153H173.744ZM174.596 205.696C174.229 205.696 173.915 205.565 173.655 205.305C173.394 205.044 173.264 204.73 173.264 204.363C173.264 203.984 173.394 203.671 173.655 203.422C173.915 203.161 174.229 203.031 174.596 203.031C174.975 203.031 175.289 203.161 175.538 203.422C175.798 203.671 175.928 203.984 175.928 204.363C175.928 204.73 175.798 205.044 175.538 205.305C175.289 205.565 174.975 205.696 174.596 205.696Z" fill="black"/>
<path d="M35.5666 610.709L29.9711 605.113M29.9711 605.113L35.5666 599.518M29.9711 605.113H41.1621" stroke="black" stroke-width="1.59871" stroke-linecap="round" stroke-linejoin="round"/>
<path d="M53.7519 609.922V599.93H56.5496C57.1862 599.93 57.6895 600.056 58.0595 600.307C58.437 600.559 58.7072 600.866 58.87 601.229C59.0328 601.584 59.1142 601.921 59.1142 602.239C59.1142 602.602 59.0291 602.935 58.8589 603.238C58.6961 603.534 58.474 603.779 58.1928 603.971C58.7331 604.215 59.1698 604.582 59.5028 605.07C59.8433 605.559 60.0135 606.114 60.0135 606.736C60.0135 607.261 59.8803 607.768 59.6138 608.257C59.3548 608.745 58.9662 609.145 58.4481 609.456C57.9374 609.766 57.3046 609.922 56.5496 609.922H53.7519ZM55.0175 608.789H56.4608C57.0085 608.789 57.4489 608.682 57.782 608.467C58.1151 608.253 58.3593 607.983 58.5147 607.657C58.6702 607.331 58.7479 607.009 58.7479 606.691C58.7479 606.38 58.6739 606.062 58.5258 605.736C58.3778 605.411 58.1373 605.141 57.8042 604.926C57.4711 604.704 57.0233 604.593 56.4608 604.593H55.0175V608.789ZM55.0175 603.527H56.4497C56.8864 603.527 57.238 603.423 57.5044 603.216C57.7783 603.002 57.9152 602.698 57.9152 602.306C57.9152 601.899 57.782 601.592 57.5155 601.384C57.2491 601.17 56.9086 601.062 56.4941 601.062H55.0175V603.527ZM64.5935 610.011C63.9866 610.011 63.4315 609.859 62.9282 609.556C62.4249 609.245 62.0215 608.83 61.7181 608.312C61.422 607.794 61.274 607.22 61.274 606.591C61.274 605.962 61.422 605.388 61.7181 604.87C62.0215 604.352 62.4249 603.942 62.9282 603.638C63.4315 603.327 63.9866 603.172 64.5935 603.172C65.0524 603.172 65.4817 603.257 65.8814 603.427C66.2884 603.597 66.64 603.834 66.9361 604.138V603.261H68.0463V609.922H66.9361V609.045C66.64 609.341 66.2884 609.578 65.8814 609.755C65.4817 609.926 65.0524 610.011 64.5935 610.011ZM64.7489 608.923C65.1708 608.923 65.552 608.819 65.8925 608.612C66.2403 608.397 66.5142 608.116 66.714 607.768C66.9213 607.413 67.0249 607.021 67.0249 606.591C67.0249 606.162 66.9213 605.773 66.714 605.425C66.5142 605.07 66.2403 604.789 65.8925 604.582C65.552 604.367 65.1708 604.26 64.7489 604.26C64.3271 604.26 63.9422 604.367 63.5943 604.582C63.2539 604.789 62.98 605.07 62.7728 605.425C62.5729 605.773 62.473 606.162 62.473 606.591C62.473 607.021 62.5729 607.413 62.7728 607.768C62.98 608.116 63.2539 608.397 63.5943 608.612C63.9422 608.819 64.3271 608.923 64.7489 608.923ZM73.2352 610.055C72.5838 610.055 71.9917 609.9 71.4588 609.589C70.9259 609.278 70.5003 608.86 70.1821 608.334C69.8638 607.809 69.7047 607.228 69.7047 606.591C69.7047 605.955 69.8638 605.374 70.1821 604.848C70.5003 604.323 70.9259 603.904 71.4588 603.594C71.9917 603.283 72.5838 603.127 73.2352 603.127C73.7163 603.127 74.1677 603.212 74.5896 603.383C75.0115 603.553 75.3816 603.779 75.6998 604.06L75.3335 605.57C75.1484 605.2 74.8672 604.889 74.4897 604.637C74.1196 604.386 73.6978 604.26 73.2241 604.26C72.7948 604.26 72.4025 604.367 72.0472 604.582C71.6994 604.789 71.4218 605.07 71.2146 605.425C71.0073 605.773 70.9037 606.162 70.9037 606.591C70.9037 607.013 71.0073 607.402 71.2146 607.757C71.4218 608.112 71.6994 608.397 72.0472 608.612C72.4025 608.819 72.7948 608.923 73.2241 608.923C73.6978 608.923 74.1196 608.801 74.4897 608.556C74.8672 608.312 75.1484 607.997 75.3335 607.613L75.6998 609.123C75.3816 609.404 75.0115 609.63 74.5896 609.8C74.1677 609.97 73.7163 610.055 73.2352 610.055ZM81.5063 609.922L78.4976 606.258L80.9734 603.261H82.3612L79.9298 606.169L83.0273 609.922H81.5063ZM77.1653 609.922V599.264H78.3644V609.922H77.1653Z" fill="black"/>
<path d="M294.558 599.518L300.153 605.113M300.153 605.113L294.558 610.709M300.153 605.113H288.962" stroke="black" stroke-width="1.59871" stroke-linecap="round" stroke-linejoin="round"/>
<path d="M247.196 609.922V599.93H252.125V601.062H248.462V603.194H251.792V604.326H248.462V609.922H247.196ZM253.53 609.922V603.261H254.729V609.922H253.53ZM254.129 602.062C253.907 602.062 253.718 601.984 253.563 601.828C253.407 601.673 253.33 601.484 253.33 601.262C253.33 601.033 253.407 600.844 253.563 600.696C253.718 600.541 253.907 600.463 254.129 600.463C254.359 600.463 254.547 600.541 254.695 600.696C254.851 600.844 254.928 601.033 254.928 601.262C254.928 601.484 254.851 601.673 254.695 601.828C254.547 601.984 254.359 602.062 254.129 602.062ZM256.855 609.922V603.261H257.965V604.337C258.209 603.945 258.524 603.645 258.909 603.438C259.301 603.231 259.723 603.127 260.175 603.127C260.648 603.127 261.085 603.246 261.485 603.483C261.892 603.712 262.221 604.049 262.473 604.493C262.724 604.93 262.85 605.463 262.85 606.092V609.922H261.651V606.258C261.651 605.733 261.492 605.27 261.174 604.87C260.863 604.463 260.422 604.26 259.853 604.26C259.386 604.26 258.968 604.43 258.598 604.77C258.235 605.104 258.054 605.588 258.054 606.225V609.922H256.855ZM264.849 609.922V603.261H266.048V609.922H264.849ZM265.448 602.062C265.226 602.062 265.037 601.984 264.882 601.828C264.726 601.673 264.649 601.484 264.649 601.262C264.649 601.033 264.726 600.844 264.882 600.696C265.037 600.541 265.226 600.463 265.448 600.463C265.678 600.463 265.866 600.541 266.014 600.696C266.17 600.844 266.247 601.033 266.247 601.262C266.247 601.484 266.17 601.673 266.014 601.828C265.866 601.984 265.678 602.062 265.448 602.062ZM269.895 610.055C269.554 610.055 269.188 609.992 268.796 609.866C268.411 609.733 268.078 609.515 267.797 609.211L268.13 607.901C268.337 608.249 268.603 608.527 268.929 608.734C269.255 608.934 269.602 609.034 269.973 609.034C270.328 609.034 270.594 608.949 270.772 608.778C270.95 608.601 271.038 608.386 271.038 608.134C271.038 607.846 270.942 607.635 270.75 607.502C270.565 607.368 270.398 607.276 270.25 607.224L269.351 606.88C269.188 606.813 268.992 606.717 268.762 606.591C268.533 606.458 268.333 606.269 268.163 606.025C267.993 605.781 267.908 605.463 267.908 605.07C267.908 604.715 267.993 604.389 268.163 604.093C268.333 603.797 268.574 603.564 268.885 603.394C269.195 603.216 269.562 603.127 269.984 603.127C270.317 603.127 270.665 603.187 271.027 603.305C271.39 603.423 271.697 603.623 271.949 603.904L271.616 605.215C271.438 604.889 271.198 604.63 270.894 604.437C270.591 604.245 270.276 604.149 269.95 604.149C269.647 604.149 269.406 604.234 269.229 604.404C269.058 604.574 268.973 604.77 268.973 604.993C268.973 605.17 269.033 605.329 269.151 605.47C269.269 605.611 269.447 605.725 269.684 605.814L270.583 606.158C270.746 606.217 270.946 606.314 271.183 606.447C271.427 606.58 271.642 606.773 271.827 607.024C272.012 607.276 272.104 607.616 272.104 608.046C272.104 608.645 271.893 609.13 271.471 609.5C271.057 609.87 270.531 610.055 269.895 610.055ZM273.841 609.922V599.264H275.04V604.204C275.292 603.856 275.603 603.59 275.973 603.405C276.343 603.22 276.739 603.127 277.161 603.127C277.635 603.127 278.071 603.246 278.471 603.483C278.878 603.712 279.207 604.049 279.459 604.493C279.711 604.93 279.836 605.463 279.836 606.092V609.922H278.637V606.258C278.637 605.733 278.478 605.27 278.16 604.87C277.849 604.463 277.409 604.26 276.839 604.26C276.373 604.26 275.954 604.43 275.584 604.77C275.222 605.104 275.04 605.588 275.04 606.225V609.922H273.841Z" fill="black"/>
</svg>
