<svg width="430" height="932" viewBox="0 0 430 932" fill="none" xmlns="http://www.w3.org/2000/svg">
<rect width="430" height="932" fill="white"/>
<rect x="32.5" y="285.5" width="347" height="42" rx="7.5" stroke="black"/>
<path d="M55 313C56.775 313 58.4989 312.406 59.897 311.312L64.293 315.708L65.707 314.294L61.311 309.898C62.4051 308.5 62.9997 306.775 63 305C63 300.589 59.411 297 55 297C50.589 297 47 300.589 47 305C47 309.411 50.589 313 55 313ZM55 299C58.309 299 61 301.691 61 305C61 308.309 58.309 311 55 311C51.691 311 49 308.309 49 305C49 301.691 51.691 299 55 299Z" fill="black"/>
<rect x="32" y="355" width="348" height="341" rx="10" fill="#FFD1D1"/>
<path d="M93.7083 317.333C93.0694 317.333 92.4861 317.241 91.9583 317.056C91.4398 316.87 90.9769 316.616 90.5694 316.292L90.9861 314.597C91.2639 314.995 91.6343 315.319 92.0972 315.569C92.5602 315.819 93.0926 315.944 93.6944 315.944C94.6296 315.944 95.3843 315.662 95.9583 315.097C96.5417 314.532 96.8333 313.806 96.8333 312.917V311.903C96.463 312.273 96.0231 312.569 95.5139 312.792C95.0139 313.005 94.4769 313.111 93.9028 313.111C93.1435 313.111 92.4491 312.921 91.8194 312.542C91.1898 312.153 90.6852 311.634 90.3056 310.986C89.9352 310.338 89.75 309.62 89.75 308.833C89.75 308.046 89.9352 307.329 90.3056 306.681C90.6852 306.032 91.1898 305.519 91.8194 305.139C92.4491 304.75 93.1435 304.556 93.9028 304.556C94.4769 304.556 95.0139 304.662 95.5139 304.875C96.0231 305.088 96.463 305.384 96.8333 305.764V304.667H98.2222V313C98.2222 313.907 98.0093 314.685 97.5833 315.333C97.1667 315.981 96.6157 316.477 95.9306 316.819C95.2454 317.162 94.5046 317.333 93.7083 317.333ZM94.0972 311.75C94.625 311.75 95.1019 311.62 95.5278 311.361C95.963 311.093 96.3056 310.741 96.5556 310.306C96.8148 309.861 96.9444 309.37 96.9444 308.833C96.9444 308.296 96.8148 307.81 96.5556 307.375C96.3056 306.931 95.963 306.579 95.5278 306.319C95.1019 306.051 94.625 305.917 94.0972 305.917C93.5694 305.917 93.088 306.051 92.6528 306.319C92.2269 306.579 91.8843 306.931 91.625 307.375C91.375 307.81 91.25 308.296 91.25 308.833C91.25 309.37 91.375 309.861 91.625 310.306C91.8843 310.741 92.2269 311.093 92.6528 311.361C93.088 311.62 93.5694 311.75 94.0972 311.75ZM100.88 313V299.667H102.38V313H100.88ZM105.04 313V304.667H106.54V313H105.04ZM105.79 303.167C105.513 303.167 105.276 303.069 105.082 302.875C104.888 302.681 104.79 302.444 104.79 302.167C104.79 301.88 104.888 301.644 105.082 301.458C105.276 301.264 105.513 301.167 105.79 301.167C106.077 301.167 106.314 301.264 106.499 301.458C106.693 301.644 106.79 301.88 106.79 302.167C106.79 302.444 106.693 302.681 106.499 302.875C106.314 303.069 106.077 303.167 105.79 303.167ZM113.006 313.167C112.201 313.167 111.464 312.972 110.798 312.583C110.131 312.194 109.599 311.671 109.201 311.014C108.812 310.356 108.617 309.63 108.617 308.833C108.617 308.028 108.812 307.301 109.201 306.653C109.599 305.995 110.131 305.472 110.798 305.083C111.464 304.694 112.201 304.5 113.006 304.5C113.821 304.5 114.557 304.694 115.214 305.083C115.881 305.472 116.409 305.995 116.798 306.653C117.196 307.301 117.395 308.028 117.395 308.833C117.395 309.63 117.196 310.356 116.798 311.014C116.409 311.671 115.881 312.194 115.214 312.583C114.557 312.972 113.821 313.167 113.006 313.167ZM113.006 311.75C113.543 311.75 114.029 311.62 114.464 311.361C114.9 311.093 115.247 310.741 115.506 310.306C115.765 309.861 115.895 309.37 115.895 308.833C115.895 308.296 115.765 307.81 115.506 307.375C115.247 306.931 114.9 306.579 114.464 306.319C114.029 306.051 113.543 305.917 113.006 305.917C112.469 305.917 111.983 306.051 111.548 306.319C111.113 306.579 110.765 306.931 110.506 307.375C110.247 307.81 110.117 308.296 110.117 308.833C110.117 309.37 110.247 309.861 110.506 310.306C110.765 310.741 111.113 311.093 111.548 311.361C111.983 311.62 112.469 311.75 113.006 311.75Z" fill="black"/>
<path d="M120.347 404.25C119.44 404.25 118.593 404.083 117.806 403.75C117.019 403.407 116.324 402.94 115.722 402.347C115.13 401.745 114.667 401.056 114.333 400.278C114 399.491 113.833 398.648 113.833 397.75C113.833 396.852 114 396.014 114.333 395.236C114.676 394.449 115.144 393.759 115.736 393.167C116.338 392.565 117.032 392.097 117.819 391.764C118.606 391.421 119.454 391.25 120.361 391.25C121.25 391.25 122.083 391.417 122.861 391.75C123.639 392.074 124.324 392.523 124.917 393.097L124.458 395.014C124.032 394.329 123.458 393.782 122.736 393.375C122.023 392.958 121.231 392.75 120.361 392.75C119.444 392.75 118.616 392.977 117.875 393.431C117.144 393.875 116.56 394.477 116.125 395.236C115.69 395.986 115.472 396.824 115.472 397.75C115.472 398.657 115.685 399.491 116.111 400.25C116.546 401.009 117.13 401.616 117.861 402.069C118.602 402.523 119.431 402.75 120.347 402.75C120.866 402.75 121.356 402.69 121.819 402.569C122.292 402.44 122.722 402.259 123.111 402.028V398.75H119.667V397.333H124.639V402.833C124.074 403.306 123.417 403.662 122.667 403.903C121.926 404.134 121.153 404.25 120.347 404.25ZM127.38 404V390.667H128.88V404H127.38ZM131.54 404V395.667H133.04V404H131.54ZM132.29 394.167C132.013 394.167 131.776 394.069 131.582 393.875C131.388 393.681 131.29 393.444 131.29 393.167C131.29 392.88 131.388 392.644 131.582 392.458C131.776 392.264 132.013 392.167 132.29 392.167C132.577 392.167 132.814 392.264 132.999 392.458C133.193 392.644 133.29 392.88 133.29 393.167C133.29 393.444 133.193 393.681 132.999 393.875C132.814 394.069 132.577 394.167 132.29 394.167ZM139.506 404.167C138.701 404.167 137.964 403.972 137.298 403.583C136.631 403.194 136.099 402.671 135.701 402.014C135.312 401.356 135.117 400.63 135.117 399.833C135.117 399.028 135.312 398.301 135.701 397.653C136.099 396.995 136.631 396.472 137.298 396.083C137.964 395.694 138.701 395.5 139.506 395.5C140.321 395.5 141.057 395.694 141.714 396.083C142.381 396.472 142.909 396.995 143.298 397.653C143.696 398.301 143.895 399.028 143.895 399.833C143.895 400.63 143.696 401.356 143.298 402.014C142.909 402.671 142.381 403.194 141.714 403.583C141.057 403.972 140.321 404.167 139.506 404.167ZM139.506 402.75C140.043 402.75 140.529 402.62 140.964 402.361C141.4 402.093 141.747 401.741 142.006 401.306C142.265 400.861 142.395 400.37 142.395 399.833C142.395 399.296 142.265 398.81 142.006 398.375C141.747 397.931 141.4 397.579 140.964 397.319C140.529 397.051 140.043 396.917 139.506 396.917C138.969 396.917 138.483 397.051 138.048 397.319C137.613 397.579 137.265 397.931 137.006 398.375C136.747 398.81 136.617 399.296 136.617 399.833C136.617 400.37 136.747 400.861 137.006 401.306C137.265 401.741 137.613 402.093 138.048 402.361C138.483 402.62 138.969 402.75 139.506 402.75ZM150.293 404.111C149.719 404.111 149.182 404.005 148.682 403.792C148.182 403.569 147.742 403.273 147.363 402.903V404H145.974V390.667H147.474V396.653C147.844 396.31 148.27 396.042 148.752 395.847C149.233 395.653 149.747 395.556 150.293 395.556C151.062 395.556 151.756 395.75 152.377 396.139C153.006 396.519 153.506 397.032 153.877 397.681C154.256 398.329 154.446 399.046 154.446 399.833C154.446 400.62 154.256 401.338 153.877 401.986C153.506 402.634 153.006 403.153 152.377 403.542C151.756 403.921 151.062 404.111 150.293 404.111ZM150.099 402.75C150.627 402.75 151.104 402.62 151.53 402.361C151.965 402.093 152.307 401.741 152.557 401.306C152.817 400.861 152.946 400.37 152.946 399.833C152.946 399.296 152.817 398.81 152.557 398.375C152.307 397.931 151.965 397.579 151.53 397.319C151.104 397.051 150.627 396.917 150.099 396.917C149.571 396.917 149.09 397.051 148.655 397.319C148.229 397.579 147.886 397.931 147.627 398.375C147.377 398.81 147.252 399.296 147.252 399.833C147.252 400.37 147.377 400.861 147.627 401.306C147.886 401.741 148.229 402.093 148.655 402.361C149.09 402.62 149.571 402.75 150.099 402.75ZM156.521 404V390.667H158.021V404H156.521ZM164.25 404.111C163.491 404.111 162.797 403.921 162.167 403.542C161.537 403.153 161.033 402.634 160.653 401.986C160.283 401.338 160.098 400.62 160.098 399.833C160.098 399.046 160.283 398.329 160.653 397.681C161.033 397.032 161.537 396.519 162.167 396.139C162.797 395.75 163.491 395.556 164.25 395.556C164.825 395.556 165.362 395.662 165.862 395.875C166.371 396.088 166.811 396.384 167.181 396.764V395.667H168.57V404H167.181V402.903C166.811 403.273 166.371 403.569 165.862 403.792C165.362 404.005 164.825 404.111 164.25 404.111ZM164.445 402.75C164.973 402.75 165.45 402.62 165.875 402.361C166.311 402.093 166.653 401.741 166.903 401.306C167.162 400.861 167.292 400.37 167.292 399.833C167.292 399.296 167.162 398.81 166.903 398.375C166.653 397.931 166.311 397.579 165.875 397.319C165.45 397.051 164.973 396.917 164.445 396.917C163.917 396.917 163.436 397.051 163 397.319C162.575 397.579 162.232 397.931 161.973 398.375C161.723 398.81 161.598 399.296 161.598 399.833C161.598 400.37 161.723 400.861 161.973 401.306C162.232 401.741 162.575 402.093 163 402.361C163.436 402.62 163.917 402.75 164.445 402.75ZM173.381 404.167C172.955 404.167 172.496 404.088 172.006 403.931C171.524 403.764 171.107 403.491 170.756 403.111L171.172 401.472C171.432 401.907 171.765 402.255 172.172 402.514C172.58 402.764 173.015 402.889 173.478 402.889C173.922 402.889 174.256 402.782 174.478 402.569C174.7 402.347 174.811 402.079 174.811 401.764C174.811 401.403 174.691 401.139 174.45 400.972C174.219 400.806 174.01 400.69 173.825 400.625L172.7 400.194C172.496 400.111 172.251 399.991 171.964 399.833C171.677 399.667 171.427 399.431 171.214 399.125C171.001 398.819 170.895 398.421 170.895 397.931C170.895 397.486 171.001 397.079 171.214 396.708C171.427 396.338 171.728 396.046 172.117 395.833C172.506 395.611 172.964 395.5 173.492 395.5C173.908 395.5 174.344 395.574 174.797 395.722C175.251 395.87 175.635 396.12 175.95 396.472L175.533 398.111C175.311 397.704 175.01 397.38 174.631 397.139C174.251 396.898 173.857 396.778 173.45 396.778C173.07 396.778 172.77 396.884 172.547 397.097C172.334 397.31 172.228 397.556 172.228 397.833C172.228 398.056 172.302 398.255 172.45 398.431C172.598 398.606 172.82 398.75 173.117 398.861L174.242 399.292C174.445 399.366 174.695 399.486 174.992 399.653C175.297 399.819 175.566 400.06 175.797 400.375C176.029 400.69 176.145 401.116 176.145 401.653C176.145 402.403 175.881 403.009 175.353 403.472C174.834 403.935 174.177 404.167 173.381 404.167ZM179.29 404V396.917H177.401V395.667H179.332V392.889H180.748V395.667H182.818V396.917H180.79V404H179.29ZM187.963 404.167C187.158 404.167 186.421 403.972 185.755 403.583C185.088 403.194 184.556 402.671 184.158 402.014C183.769 401.356 183.574 400.63 183.574 399.833C183.574 399.028 183.769 398.301 184.158 397.653C184.556 396.995 185.088 396.472 185.755 396.083C186.421 395.694 187.158 395.5 187.963 395.5C188.778 395.5 189.514 395.694 190.171 396.083C190.838 396.472 191.366 396.995 191.755 397.653C192.153 398.301 192.352 399.028 192.352 399.833C192.352 400.63 192.153 401.356 191.755 402.014C191.366 402.671 190.838 403.194 190.171 403.583C189.514 403.972 188.778 404.167 187.963 404.167ZM187.963 402.75C188.5 402.75 188.986 402.62 189.421 402.361C189.857 402.093 190.204 401.741 190.463 401.306C190.722 400.861 190.852 400.37 190.852 399.833C190.852 399.296 190.722 398.81 190.463 398.375C190.204 397.931 189.857 397.579 189.421 397.319C188.986 397.051 188.5 396.917 187.963 396.917C187.426 396.917 186.94 397.051 186.505 397.319C186.07 397.579 185.722 397.931 185.463 398.375C185.204 398.81 185.074 399.296 185.074 399.833C185.074 400.37 185.204 400.861 185.463 401.306C185.722 401.741 186.07 402.093 186.505 402.361C186.94 402.62 187.426 402.75 187.963 402.75ZM194.431 404V395.667H195.82V396.861C196.125 396.407 196.51 396.069 196.973 395.847C197.445 395.616 197.94 395.5 198.459 395.5C199.024 395.5 199.542 395.634 200.014 395.903C200.487 396.162 200.866 396.528 201.153 397C201.477 396.5 201.894 396.125 202.403 395.875C202.922 395.625 203.468 395.5 204.042 395.5C204.672 395.5 205.246 395.648 205.764 395.944C206.292 396.241 206.709 396.657 207.014 397.194C207.329 397.722 207.487 398.347 207.487 399.069V404H205.987V399.25C205.987 398.491 205.769 397.917 205.334 397.528C204.908 397.13 204.412 396.931 203.848 396.931C203.496 396.931 203.153 397.009 202.82 397.167C202.496 397.324 202.227 397.569 202.014 397.903C201.811 398.236 201.709 398.671 201.709 399.208V404H200.209V399.25C200.209 398.722 200.102 398.287 199.889 397.944C199.686 397.602 199.417 397.347 199.084 397.181C198.76 397.005 198.422 396.917 198.07 396.917C197.727 396.917 197.389 396.995 197.056 397.153C196.732 397.31 196.463 397.556 196.25 397.889C196.037 398.222 195.931 398.662 195.931 399.208V404H194.431ZM213.547 404.111C212.788 404.111 212.094 403.921 211.464 403.542C210.834 403.153 210.33 402.634 209.95 401.986C209.58 401.338 209.395 400.62 209.395 399.833C209.395 399.046 209.58 398.329 209.95 397.681C210.33 397.032 210.834 396.519 211.464 396.139C212.094 395.75 212.788 395.556 213.547 395.556C214.121 395.556 214.658 395.662 215.158 395.875C215.668 396.088 216.107 396.384 216.478 396.764V395.667H217.867V404H216.478V402.903C216.107 403.273 215.668 403.569 215.158 403.792C214.658 404.005 214.121 404.111 213.547 404.111ZM213.742 402.75C214.27 402.75 214.746 402.62 215.172 402.361C215.607 402.093 215.95 401.741 216.2 401.306C216.459 400.861 216.589 400.37 216.589 399.833C216.589 399.296 216.459 398.81 216.2 398.375C215.95 397.931 215.607 397.579 215.172 397.319C214.746 397.051 214.27 396.917 213.742 396.917C213.214 396.917 212.732 397.051 212.297 397.319C211.871 397.579 211.529 397.931 211.27 398.375C211.02 398.81 210.895 399.296 210.895 399.833C210.895 400.37 211.02 400.861 211.27 401.306C211.529 401.741 211.871 402.093 212.297 402.361C212.732 402.62 213.214 402.75 213.742 402.75Z" fill="black"/>
<path d="M120.347 459.25C119.44 459.25 118.593 459.083 117.806 458.75C117.019 458.407 116.324 457.94 115.722 457.347C115.13 456.745 114.667 456.056 114.333 455.278C114 454.491 113.833 453.648 113.833 452.75C113.833 451.852 114 451.014 114.333 450.236C114.676 449.449 115.144 448.759 115.736 448.167C116.338 447.565 117.032 447.097 117.819 446.764C118.606 446.421 119.454 446.25 120.361 446.25C121.25 446.25 122.083 446.417 122.861 446.75C123.639 447.074 124.324 447.523 124.917 448.097L124.458 450.014C124.032 449.329 123.458 448.782 122.736 448.375C122.023 447.958 121.231 447.75 120.361 447.75C119.444 447.75 118.616 447.977 117.875 448.431C117.144 448.875 116.56 449.477 116.125 450.236C115.69 450.986 115.472 451.824 115.472 452.75C115.472 453.657 115.685 454.491 116.111 455.25C116.546 456.009 117.13 456.616 117.861 457.069C118.602 457.523 119.431 457.75 120.347 457.75C120.866 457.75 121.356 457.69 121.819 457.569C122.292 457.44 122.722 457.259 123.111 457.028V453.75H119.667V452.333H124.639V457.833C124.074 458.306 123.417 458.662 122.667 458.903C121.926 459.134 121.153 459.25 120.347 459.25ZM127.38 459V445.667H128.88V459H127.38ZM131.54 459V450.667H133.04V459H131.54ZM132.29 449.167C132.013 449.167 131.776 449.069 131.582 448.875C131.388 448.681 131.29 448.444 131.29 448.167C131.29 447.88 131.388 447.644 131.582 447.458C131.776 447.264 132.013 447.167 132.29 447.167C132.577 447.167 132.814 447.264 132.999 447.458C133.193 447.644 133.29 447.88 133.29 448.167C133.29 448.444 133.193 448.681 132.999 448.875C132.814 449.069 132.577 449.167 132.29 449.167ZM139.506 459.167C138.701 459.167 137.964 458.972 137.298 458.583C136.631 458.194 136.099 457.671 135.701 457.014C135.312 456.356 135.117 455.63 135.117 454.833C135.117 454.028 135.312 453.301 135.701 452.653C136.099 451.995 136.631 451.472 137.298 451.083C137.964 450.694 138.701 450.5 139.506 450.5C140.321 450.5 141.057 450.694 141.714 451.083C142.381 451.472 142.909 451.995 143.298 452.653C143.696 453.301 143.895 454.028 143.895 454.833C143.895 455.63 143.696 456.356 143.298 457.014C142.909 457.671 142.381 458.194 141.714 458.583C141.057 458.972 140.321 459.167 139.506 459.167ZM139.506 457.75C140.043 457.75 140.529 457.62 140.964 457.361C141.4 457.093 141.747 456.741 142.006 456.306C142.265 455.861 142.395 455.37 142.395 454.833C142.395 454.296 142.265 453.81 142.006 453.375C141.747 452.931 141.4 452.579 140.964 452.319C140.529 452.051 140.043 451.917 139.506 451.917C138.969 451.917 138.483 452.051 138.048 452.319C137.613 452.579 137.265 452.931 137.006 453.375C136.747 453.81 136.617 454.296 136.617 454.833C136.617 455.37 136.747 455.861 137.006 456.306C137.265 456.741 137.613 457.093 138.048 457.361C138.483 457.62 138.969 457.75 139.506 457.75ZM145.974 459V450.667H147.363V451.861C147.668 451.407 148.053 451.069 148.516 450.847C148.988 450.616 149.483 450.5 150.002 450.5C150.567 450.5 151.085 450.634 151.557 450.903C152.03 451.162 152.409 451.528 152.696 452C153.02 451.5 153.437 451.125 153.946 450.875C154.465 450.625 155.011 450.5 155.585 450.5C156.215 450.5 156.789 450.648 157.307 450.944C157.835 451.241 158.252 451.657 158.557 452.194C158.872 452.722 159.03 453.347 159.03 454.069V459H157.53V454.25C157.53 453.491 157.312 452.917 156.877 452.528C156.451 452.13 155.955 451.931 155.391 451.931C155.039 451.931 154.696 452.009 154.363 452.167C154.039 452.324 153.77 452.569 153.557 452.903C153.354 453.236 153.252 453.671 153.252 454.208V459H151.752V454.25C151.752 453.722 151.645 453.287 151.432 452.944C151.229 452.602 150.96 452.347 150.627 452.181C150.303 452.005 149.965 451.917 149.613 451.917C149.27 451.917 148.932 451.995 148.599 452.153C148.275 452.31 148.006 452.556 147.793 452.889C147.58 453.222 147.474 453.662 147.474 454.208V459H145.974ZM165.09 459.111C164.331 459.111 163.637 458.921 163.007 458.542C162.377 458.153 161.873 457.634 161.493 456.986C161.123 456.338 160.938 455.62 160.938 454.833C160.938 454.046 161.123 453.329 161.493 452.681C161.873 452.032 162.377 451.519 163.007 451.139C163.637 450.75 164.331 450.556 165.09 450.556C165.664 450.556 166.201 450.662 166.701 450.875C167.211 451.088 167.65 451.384 168.021 451.764V450.667H169.41V459H168.021V457.903C167.65 458.273 167.211 458.569 166.701 458.792C166.201 459.005 165.664 459.111 165.09 459.111ZM165.285 457.75C165.812 457.75 166.289 457.62 166.715 457.361C167.15 457.093 167.493 456.741 167.743 456.306C168.002 455.861 168.132 455.37 168.132 454.833C168.132 454.296 168.002 453.81 167.743 453.375C167.493 452.931 167.15 452.579 166.715 452.319C166.289 452.051 165.812 451.917 165.285 451.917C164.757 451.917 164.275 452.051 163.84 452.319C163.414 452.579 163.072 452.931 162.813 453.375C162.563 453.81 162.438 454.296 162.438 454.833C162.438 455.37 162.563 455.861 162.813 456.306C163.072 456.741 163.414 457.093 163.84 457.361C164.275 457.62 164.757 457.75 165.285 457.75Z" fill="black"/>
<path fill-rule="evenodd" clip-rule="evenodd" d="M68.6251 382.875C66.9012 382.875 65.2479 383.56 64.0289 384.779C62.8099 385.998 62.1251 387.651 62.1251 389.375V391.205C60.7304 391.566 59.4953 392.381 58.6136 393.52C57.7318 394.659 57.2534 396.059 57.2534 397.5C57.2534 398.941 57.7318 400.341 58.6136 401.48C59.4953 402.619 60.7304 403.434 62.1251 403.795V405.625C62.125 406.945 62.527 408.234 63.2776 409.321C64.0282 410.407 65.0918 411.239 66.3268 411.706C67.5618 412.172 68.9097 412.252 70.1912 411.934C71.4726 411.616 72.6268 410.915 73.5001 409.925C74.3734 410.915 75.5276 411.616 76.809 411.934C78.0904 412.252 79.4383 412.172 80.6734 411.706C81.9084 411.239 82.972 410.407 83.7226 409.321C84.4732 408.234 84.8752 406.945 84.8751 405.625V403.795C86.2697 403.434 87.5048 402.619 88.3866 401.48C89.2683 400.341 89.7467 398.941 89.7467 397.5C89.7467 396.059 89.2683 394.659 88.3866 393.52C87.5048 392.381 86.2697 391.566 84.8751 391.205V389.375C84.8752 388.055 84.4732 386.766 83.7226 385.679C82.972 384.593 81.9084 383.761 80.6734 383.295C79.4383 382.828 78.0904 382.748 76.809 383.066C75.5276 383.384 74.3734 384.085 73.5001 385.075C72.8901 384.384 72.1399 383.83 71.2994 383.451C70.4589 383.071 69.5472 382.875 68.6251 382.875ZM81.6251 392.625V389.375C81.6251 388.513 81.2827 387.686 80.6732 387.077C80.0637 386.467 79.237 386.125 78.3751 386.125C77.5131 386.125 76.6865 386.467 76.077 387.077C75.4675 387.686 75.1251 388.513 75.1251 389.375V396.744C76.1133 396.174 77.2342 395.875 78.3751 395.875C78.8061 395.875 79.2194 396.046 79.5241 396.351C79.8289 396.656 80.0001 397.069 80.0001 397.5C80.0001 397.931 79.8289 398.344 79.5241 398.649C79.2194 398.954 78.8061 399.125 78.3751 399.125C77.5131 399.125 76.6865 399.467 76.077 400.077C75.4675 400.686 75.1251 401.513 75.1251 402.375V405.625C75.1251 406.487 75.4675 407.314 76.077 407.923C76.6865 408.533 77.5131 408.875 78.3751 408.875C79.237 408.875 80.0637 408.533 80.6732 407.923C81.2827 407.314 81.6251 406.487 81.6251 405.625V403.795C81.4424 403.748 81.2618 403.693 81.084 403.63C80.6775 403.486 80.3448 403.187 80.1589 402.798C79.973 402.409 79.9492 401.962 80.0927 401.556C80.2362 401.15 80.5353 400.817 80.9242 400.631C81.313 400.445 81.7598 400.421 82.1662 400.565C82.6124 400.722 83.0875 400.78 83.5585 400.735C84.0295 400.69 84.4849 400.542 84.8929 400.303C85.301 400.063 85.6518 399.738 85.9209 399.349C86.19 398.959 86.3709 398.516 86.4509 398.05C86.531 397.584 86.5082 397.105 86.3843 396.649C86.2604 396.192 86.0382 395.768 85.7334 395.406C85.4286 395.044 85.0484 394.753 84.6195 394.554C84.1906 394.354 83.7232 394.25 83.2501 394.25C82.8191 394.25 82.4058 394.079 82.101 393.774C81.7963 393.469 81.6251 393.056 81.6251 392.625ZM68.6251 399.125C69.487 399.125 70.3137 399.467 70.9232 400.077C71.5327 400.686 71.8751 401.513 71.8751 402.375V405.625C71.8751 406.487 71.5327 407.314 70.9232 407.923C70.3137 408.533 69.487 408.875 68.6251 408.875C67.7631 408.875 66.9365 408.533 66.327 407.923C65.7175 407.314 65.3751 406.487 65.3751 405.625V403.795C65.5592 403.748 65.7396 403.692 65.9162 403.63C66.3226 403.486 66.6554 403.187 66.8413 402.798C67.0272 402.409 67.051 401.962 66.9075 401.556C66.7639 401.15 66.4649 400.817 66.076 400.631C65.6871 400.445 65.2404 400.421 64.834 400.565C64.3878 400.722 63.9126 400.78 63.4416 400.735C62.9707 400.69 62.5153 400.542 62.1072 400.303C61.6992 400.063 61.3484 399.738 61.0793 399.349C60.8101 398.959 60.6293 398.516 60.5492 398.05C60.4692 397.584 60.4919 397.105 60.6159 396.649C60.7398 396.192 60.9619 395.768 61.2667 395.406C61.5716 395.044 61.9517 394.753 62.3807 394.554C62.8096 394.354 63.2769 394.25 63.7501 394.25C64.1811 394.25 64.5944 394.079 64.8991 393.774C65.2039 393.469 65.3751 393.056 65.3751 392.625V389.375C65.3751 388.513 65.7175 387.686 66.327 387.077C66.9365 386.467 67.7631 386.125 68.6251 386.125C69.487 386.125 70.3137 386.467 70.9232 387.077C71.5327 387.686 71.8751 388.513 71.8751 389.375V396.744C70.8868 396.174 69.7659 395.875 68.6251 395.875C68.1941 395.875 67.7808 396.046 67.476 396.351C67.1713 396.656 67.0001 397.069 67.0001 397.5C67.0001 397.931 67.1713 398.344 67.476 398.649C67.7808 398.954 68.1941 399.125 68.6251 399.125Z" fill="black"/>
<path fill-rule="evenodd" clip-rule="evenodd" d="M68.6251 438.875C66.9012 438.875 65.2479 439.56 64.0289 440.779C62.8099 441.998 62.1251 443.651 62.1251 445.375V447.205C60.7304 447.566 59.4953 448.381 58.6136 449.52C57.7318 450.659 57.2534 452.059 57.2534 453.5C57.2534 454.941 57.7318 456.341 58.6136 457.48C59.4953 458.619 60.7304 459.434 62.1251 459.795V461.625C62.125 462.945 62.527 464.234 63.2776 465.321C64.0282 466.407 65.0918 467.239 66.3268 467.706C67.5618 468.172 68.9097 468.252 70.1912 467.934C71.4726 467.616 72.6268 466.915 73.5001 465.925C74.3734 466.915 75.5276 467.616 76.809 467.934C78.0904 468.252 79.4383 468.172 80.6734 467.706C81.9084 467.239 82.972 466.407 83.7226 465.321C84.4732 464.234 84.8752 462.945 84.8751 461.625V459.795C86.2697 459.434 87.5048 458.619 88.3866 457.48C89.2683 456.341 89.7467 454.941 89.7467 453.5C89.7467 452.059 89.2683 450.659 88.3866 449.52C87.5048 448.381 86.2697 447.566 84.8751 447.205V445.375C84.8752 444.055 84.4732 442.766 83.7226 441.679C82.972 440.593 81.9084 439.761 80.6734 439.295C79.4383 438.828 78.0904 438.748 76.809 439.066C75.5276 439.384 74.3734 440.085 73.5001 441.075C72.8901 440.384 72.1399 439.83 71.2994 439.451C70.4589 439.071 69.5472 438.875 68.6251 438.875ZM81.6251 448.625V445.375C81.6251 444.513 81.2827 443.686 80.6732 443.077C80.0637 442.467 79.237 442.125 78.3751 442.125C77.5131 442.125 76.6865 442.467 76.077 443.077C75.4675 443.686 75.1251 444.513 75.1251 445.375V452.744C76.1133 452.174 77.2342 451.875 78.3751 451.875C78.8061 451.875 79.2194 452.046 79.5241 452.351C79.8289 452.656 80.0001 453.069 80.0001 453.5C80.0001 453.931 79.8289 454.344 79.5241 454.649C79.2194 454.954 78.8061 455.125 78.3751 455.125C77.5131 455.125 76.6865 455.467 76.077 456.077C75.4675 456.686 75.1251 457.513 75.1251 458.375V461.625C75.1251 462.487 75.4675 463.314 76.077 463.923C76.6865 464.533 77.5131 464.875 78.3751 464.875C79.237 464.875 80.0637 464.533 80.6732 463.923C81.2827 463.314 81.6251 462.487 81.6251 461.625V459.795C81.4424 459.748 81.2618 459.693 81.084 459.63C80.6775 459.486 80.3448 459.187 80.1589 458.798C79.973 458.409 79.9492 457.962 80.0927 457.556C80.2362 457.15 80.5353 456.817 80.9242 456.631C81.313 456.445 81.7598 456.421 82.1662 456.565C82.6124 456.722 83.0875 456.78 83.5585 456.735C84.0295 456.69 84.4849 456.542 84.8929 456.303C85.301 456.063 85.6518 455.738 85.9209 455.349C86.19 454.959 86.3709 454.516 86.4509 454.05C86.531 453.584 86.5082 453.105 86.3843 452.649C86.2604 452.192 86.0382 451.768 85.7334 451.406C85.4286 451.044 85.0484 450.753 84.6195 450.554C84.1906 450.354 83.7232 450.25 83.2501 450.25C82.8191 450.25 82.4058 450.079 82.101 449.774C81.7963 449.469 81.6251 449.056 81.6251 448.625ZM68.6251 455.125C69.487 455.125 70.3137 455.467 70.9232 456.077C71.5327 456.686 71.8751 457.513 71.8751 458.375V461.625C71.8751 462.487 71.5327 463.314 70.9232 463.923C70.3137 464.533 69.487 464.875 68.6251 464.875C67.7631 464.875 66.9365 464.533 66.327 463.923C65.7175 463.314 65.3751 462.487 65.3751 461.625V459.795C65.5592 459.748 65.7396 459.692 65.9162 459.63C66.3226 459.486 66.6554 459.187 66.8413 458.798C67.0272 458.409 67.051 457.962 66.9075 457.556C66.7639 457.15 66.4649 456.817 66.076 456.631C65.6871 456.445 65.2404 456.421 64.834 456.565C64.3878 456.722 63.9126 456.78 63.4416 456.735C62.9707 456.69 62.5153 456.542 62.1072 456.303C61.6992 456.063 61.3484 455.738 61.0793 455.349C60.8101 454.959 60.6293 454.516 60.5492 454.05C60.4692 453.584 60.4919 453.105 60.6159 452.649C60.7398 452.192 60.9619 451.768 61.2667 451.406C61.5716 451.044 61.9517 450.753 62.3807 450.554C62.8096 450.354 63.2769 450.25 63.7501 450.25C64.1811 450.25 64.5944 450.079 64.8991 449.774C65.2039 449.469 65.3751 449.056 65.3751 448.625V445.375C65.3751 444.513 65.7175 443.686 66.327 443.077C66.9365 442.467 67.7631 442.125 68.6251 442.125C69.487 442.125 70.3137 442.467 70.9232 443.077C71.5327 443.686 71.8751 444.513 71.8751 445.375V452.744C70.8868 452.174 69.7659 451.875 68.6251 451.875C68.1941 451.875 67.7808 452.046 67.476 452.351C67.1713 452.656 67.0001 453.069 67.0001 453.5C67.0001 453.931 67.1713 454.344 67.476 454.649C67.7808 454.954 68.1941 455.125 68.6251 455.125Z" fill="black"/>
<path d="M39.9778 214.667L32.2667 194H34.8444L39.3778 206C39.5407 206.415 39.6741 206.815 39.7778 207.2C39.8815 207.57 39.9926 208.015 40.1111 208.533C40.2296 208.015 40.3407 207.57 40.4444 207.2C40.563 206.815 40.6963 206.415 40.8444 206L45.4222 193.333L49.9778 206C50.1111 206.37 50.237 206.748 50.3556 207.133C50.4889 207.504 50.6074 207.97 50.7111 208.533C50.8296 207.97 50.9481 207.504 51.0667 207.133C51.1852 206.748 51.3185 206.37 51.4667 206L56 194H58.4L50.7111 214.667L46.0889 201.689C45.9556 201.304 45.8296 200.933 45.7111 200.578C45.5926 200.207 45.4741 199.741 45.3556 199.178C45.237 199.741 45.1185 200.207 45 200.578C44.8815 200.933 44.7556 201.304 44.6222 201.689L39.9778 214.667ZM60.7896 214V192.667H63.1896V202.556C63.6933 201.859 64.3155 201.326 65.0563 200.956C65.797 200.585 66.5896 200.4 67.434 200.4C68.3822 200.4 69.2563 200.637 70.0563 201.111C70.8711 201.57 71.5303 202.244 72.034 203.133C72.5377 204.007 72.7896 205.074 72.7896 206.333V214H70.3896V206.667C70.3896 205.615 70.0711 204.689 69.434 203.889C68.8118 203.074 67.9303 202.667 66.7896 202.667C65.8563 202.667 65.0192 203.007 64.2785 203.689C63.5525 204.356 63.1896 205.326 63.1896 206.6V214H60.7896ZM82.5007 214.178C81.2859 214.178 80.1748 213.874 79.1674 213.267C78.16 212.644 77.3525 211.815 76.7451 210.778C76.1525 209.741 75.8563 208.593 75.8563 207.333C75.8563 206.074 76.1525 204.926 76.7451 203.889C77.3525 202.852 78.16 202.03 79.1674 201.422C80.1748 200.8 81.2859 200.489 82.5007 200.489C83.4192 200.489 84.2785 200.659 85.0785 201C85.8933 201.341 86.597 201.815 87.1896 202.422V200.667H89.4118V214H87.1896V212.244C86.597 212.837 85.8933 213.311 85.0785 213.667C84.2785 214.007 83.4192 214.178 82.5007 214.178ZM82.8118 212C83.6562 212 84.4192 211.793 85.1007 211.378C85.797 210.948 86.3451 210.385 86.7451 209.689C87.16 208.978 87.3674 208.193 87.3674 207.333C87.3674 206.474 87.16 205.696 86.7451 205C86.3451 204.289 85.797 203.726 85.1007 203.311C84.4192 202.881 83.6562 202.667 82.8118 202.667C81.9674 202.667 81.197 202.881 80.5007 203.311C79.8192 203.726 79.2711 204.289 78.8563 205C78.4563 205.696 78.2563 206.474 78.2563 207.333C78.2563 208.193 78.4563 208.978 78.8563 209.689C79.2711 210.385 79.8192 210.948 80.5007 211.378C81.197 211.793 81.9674 212 82.8118 212ZM95.2201 214V202.667H92.1979V200.667H95.2868V196.222H97.5535V200.667H100.865V202.667H97.6201V214H95.2201ZM116.454 214.267C115.15 214.267 113.965 213.956 112.899 213.333C111.832 212.711 110.98 211.874 110.343 210.822C109.706 209.77 109.388 208.607 109.388 207.333C109.388 206.059 109.706 204.896 110.343 203.844C110.98 202.793 111.832 201.956 112.899 201.333C113.965 200.711 115.15 200.4 116.454 200.4C117.417 200.4 118.321 200.57 119.165 200.911C120.01 201.252 120.75 201.704 121.388 202.267L120.654 205.289C120.284 204.548 119.721 203.926 118.965 203.422C118.225 202.919 117.38 202.667 116.432 202.667C115.573 202.667 114.788 202.881 114.076 203.311C113.38 203.726 112.825 204.289 112.41 205C111.995 205.696 111.788 206.474 111.788 207.333C111.788 208.178 111.995 208.956 112.41 209.667C112.825 210.378 113.38 210.948 114.076 211.378C114.788 211.793 115.573 212 116.432 212C117.38 212 118.225 211.756 118.965 211.267C119.721 210.778 120.284 210.148 120.654 209.378L121.388 212.4C120.75 212.963 120.01 213.415 119.165 213.756C118.321 214.096 117.417 214.267 116.454 214.267ZM130.032 214.178C128.817 214.178 127.706 213.874 126.699 213.267C125.691 212.644 124.884 211.815 124.276 210.778C123.684 209.741 123.388 208.593 123.388 207.333C123.388 206.074 123.684 204.926 124.276 203.889C124.884 202.852 125.691 202.03 126.699 201.422C127.706 200.8 128.817 200.489 130.032 200.489C130.95 200.489 131.81 200.659 132.61 201C133.425 201.341 134.128 201.815 134.721 202.422V200.667H136.943V214H134.721V212.244C134.128 212.837 133.425 213.311 132.61 213.667C131.81 214.007 130.95 214.178 130.032 214.178ZM130.343 212C131.188 212 131.95 211.793 132.632 211.378C133.328 210.948 133.876 210.385 134.276 209.689C134.691 208.978 134.899 208.193 134.899 207.333C134.899 206.474 134.691 205.696 134.276 205C133.876 204.289 133.328 203.726 132.632 203.311C131.95 202.881 131.188 202.667 130.343 202.667C129.499 202.667 128.728 202.881 128.032 203.311C127.35 203.726 126.802 204.289 126.388 205C125.988 205.696 125.788 206.474 125.788 207.333C125.788 208.193 125.988 208.978 126.388 209.689C126.802 210.385 127.35 210.948 128.032 211.378C128.728 211.793 129.499 212 130.343 212ZM141.196 214V200.667H143.418V202.822C143.907 202.037 144.537 201.437 145.307 201.022C146.092 200.607 146.937 200.4 147.84 200.4C148.788 200.4 149.663 200.637 150.463 201.111C151.277 201.57 151.937 202.244 152.44 203.133C152.944 204.007 153.196 205.074 153.196 206.333V214H150.796V206.667C150.796 205.615 150.477 204.689 149.84 203.889C149.218 203.074 148.337 202.667 147.196 202.667C146.263 202.667 145.425 203.007 144.685 203.689C143.959 204.356 143.596 205.326 143.596 206.6V214H141.196ZM163.329 214.267C162.025 214.267 160.84 213.956 159.774 213.333C158.707 212.711 157.855 211.874 157.218 210.822C156.581 209.77 156.263 208.607 156.263 207.333C156.263 206.059 156.581 204.896 157.218 203.844C157.855 202.793 158.707 201.956 159.774 201.333C160.84 200.711 162.025 200.4 163.329 200.4C164.292 200.4 165.196 200.57 166.04 200.911C166.885 201.252 167.625 201.704 168.263 202.267L167.529 205.289C167.159 204.548 166.596 203.926 165.84 203.422C165.1 202.919 164.255 202.667 163.307 202.667C162.448 202.667 161.663 202.881 160.951 203.311C160.255 203.726 159.7 204.289 159.285 205C158.87 205.696 158.663 206.474 158.663 207.333C158.663 208.178 158.87 208.956 159.285 209.667C159.7 210.378 160.255 210.948 160.951 211.378C161.663 211.793 162.448 212 163.307 212C164.255 212 165.1 211.756 165.84 211.267C166.596 210.778 167.159 210.148 167.529 209.378L168.263 212.4C167.625 212.963 166.885 213.415 166.04 213.756C165.196 214.096 164.292 214.267 163.329 214.267ZM177.551 214.267C176.159 214.267 174.907 213.956 173.796 213.333C172.7 212.711 171.833 211.867 171.196 210.8C170.574 209.719 170.263 208.519 170.263 207.2C170.263 205.941 170.566 204.8 171.174 203.778C171.781 202.741 172.596 201.919 173.618 201.311C174.655 200.704 175.796 200.4 177.04 200.4C178.27 200.4 179.396 200.696 180.418 201.289C181.44 201.867 182.255 202.652 182.863 203.644C183.47 204.637 183.774 205.763 183.774 207.022V208H175.062C174.677 208 174.285 207.985 173.885 207.956C173.485 207.926 173.092 207.881 172.707 207.822C172.87 209.007 173.403 210 174.307 210.8C175.225 211.6 176.314 212 177.574 212C178.418 212 179.203 211.807 179.929 211.422C180.655 211.037 181.24 210.526 181.685 209.889L182.351 212.622C181.714 213.141 180.981 213.548 180.151 213.844C179.337 214.126 178.47 214.267 177.551 214.267ZM172.64 206.2C173.44 206.067 174.248 206 175.062 206H179.485C179.811 206 180.129 206.015 180.44 206.044C180.766 206.059 181.092 206.081 181.418 206.111C181.211 205.074 180.692 204.222 179.863 203.556C179.033 202.874 178.092 202.533 177.04 202.533C175.959 202.533 175.011 202.896 174.196 203.622C173.381 204.333 172.863 205.193 172.64 206.2ZM186.977 214V200.667H189.199V203.111C189.673 202.326 190.303 201.704 191.088 201.244C191.873 200.77 192.807 200.533 193.888 200.533L194.488 202.933C194.207 202.844 193.881 202.8 193.51 202.8C192.266 202.8 191.266 203.2 190.51 204C189.755 204.785 189.377 205.911 189.377 207.378V214H186.977ZM209.344 214.178C208.13 214.178 207.019 213.874 206.011 213.267C205.004 212.644 204.196 211.815 203.589 210.778C202.996 209.741 202.7 208.593 202.7 207.333C202.7 206.074 202.996 204.926 203.589 203.889C204.196 202.852 205.004 202.03 206.011 201.422C207.019 200.8 208.13 200.489 209.344 200.489C210.219 200.489 211.041 200.644 211.811 200.956C212.581 201.267 213.263 201.696 213.856 202.244V192.667H216.256V214H214.033V212.244C213.441 212.837 212.737 213.311 211.922 213.667C211.122 214.007 210.263 214.178 209.344 214.178ZM209.656 212C210.5 212 211.263 211.793 211.944 211.378C212.641 210.948 213.189 210.385 213.589 209.689C214.004 208.978 214.211 208.193 214.211 207.333C214.211 206.474 214.004 205.696 213.589 205C213.189 204.289 212.641 203.726 211.944 203.311C211.263 202.881 210.5 202.667 209.656 202.667C208.811 202.667 208.041 202.881 207.344 203.311C206.663 203.726 206.115 204.289 205.7 205C205.3 205.696 205.1 206.474 205.1 207.333C205.1 208.193 205.3 208.978 205.7 209.689C206.115 210.385 206.663 210.948 207.344 211.378C208.041 211.793 208.811 212 209.656 212ZM226.597 214.267C225.308 214.267 224.131 213.956 223.064 213.333C221.997 212.711 221.145 211.874 220.508 210.822C219.886 209.77 219.575 208.607 219.575 207.333C219.575 206.044 219.886 204.881 220.508 203.844C221.145 202.793 221.997 201.956 223.064 201.333C224.131 200.711 225.308 200.4 226.597 200.4C227.901 200.4 229.079 200.711 230.131 201.333C231.197 201.956 232.042 202.793 232.664 203.844C233.301 204.881 233.619 206.044 233.619 207.333C233.619 208.607 233.301 209.77 232.664 210.822C232.042 211.874 231.197 212.711 230.131 213.333C229.079 213.956 227.901 214.267 226.597 214.267ZM226.597 212C227.456 212 228.234 211.793 228.931 211.378C229.627 210.948 230.182 210.385 230.597 209.689C231.012 208.978 231.219 208.193 231.219 207.333C231.219 206.474 231.012 205.696 230.597 205C230.182 204.289 229.627 203.726 228.931 203.311C228.234 202.881 227.456 202.667 226.597 202.667C225.738 202.667 224.96 202.881 224.264 203.311C223.568 203.726 223.012 204.289 222.597 205C222.182 205.696 221.975 206.474 221.975 207.333C221.975 208.193 222.182 208.978 222.597 209.689C223.012 210.385 223.568 210.948 224.264 211.378C224.96 211.793 225.738 212 226.597 212ZM243.047 220.667L247.38 212.044L241.735 200.667H244.447L247.291 206.444C247.543 206.963 247.787 207.474 248.024 207.978C248.261 208.481 248.498 209.089 248.735 209.8C248.987 209.089 249.224 208.481 249.447 207.978C249.684 207.459 249.935 206.948 250.202 206.444L253.091 200.667H255.647L245.647 220.667H243.047ZM263.472 214.267C262.183 214.267 261.006 213.956 259.939 213.333C258.872 212.711 258.02 211.874 257.383 210.822C256.761 209.77 256.45 208.607 256.45 207.333C256.45 206.044 256.761 204.881 257.383 203.844C258.02 202.793 258.872 201.956 259.939 201.333C261.006 200.711 262.183 200.4 263.472 200.4C264.776 200.4 265.954 200.711 267.006 201.333C268.072 201.956 268.917 202.793 269.539 203.844C270.176 204.881 270.494 206.044 270.494 207.333C270.494 208.607 270.176 209.77 269.539 210.822C268.917 211.874 268.072 212.711 267.006 213.333C265.954 213.956 264.776 214.267 263.472 214.267ZM263.472 212C264.331 212 265.109 211.793 265.806 211.378C266.502 210.948 267.057 210.385 267.472 209.689C267.887 208.978 268.094 208.193 268.094 207.333C268.094 206.474 267.887 205.696 267.472 205C267.057 204.289 266.502 203.726 265.806 203.311C265.109 202.881 264.331 202.667 263.472 202.667C262.613 202.667 261.835 202.881 261.139 203.311C260.443 203.726 259.887 204.289 259.472 205C259.057 205.696 258.85 206.474 258.85 207.333C258.85 208.193 259.057 208.978 259.472 209.689C259.887 210.385 260.443 210.948 261.139 211.378C261.835 211.793 262.613 212 263.472 212ZM278.91 214.267C277.976 214.267 277.102 214.037 276.287 213.578C275.473 213.104 274.813 212.422 274.31 211.533C273.806 210.644 273.554 209.578 273.554 208.333V200.667H275.954V208C275.954 209.052 276.265 209.985 276.888 210.8C277.525 211.6 278.413 212 279.554 212C280.488 212 281.317 211.667 282.043 211C282.784 210.319 283.154 209.341 283.154 208.067V200.667H285.554V214H283.332V211.844C282.843 212.63 282.206 213.23 281.421 213.644C280.65 214.059 279.813 214.267 278.91 214.267ZM301.344 214.667L294.61 200.667H297.344L300.033 206.444C300.284 206.993 300.522 207.526 300.744 208.044C300.981 208.563 301.21 209.215 301.433 210C301.67 209.23 301.907 208.578 302.144 208.044C302.396 207.511 302.633 206.978 302.855 206.444L305.544 200.044L308.21 206.444C308.433 206.993 308.662 207.526 308.899 208.044C309.136 208.563 309.366 209.215 309.588 210C309.81 209.215 310.04 208.563 310.277 208.044C310.514 207.511 310.759 206.978 311.01 206.444L313.744 200.667H316.299L309.566 214.667L306.855 208.711C306.618 208.178 306.381 207.652 306.144 207.133C305.922 206.6 305.692 205.963 305.455 205.222C305.233 205.963 305.003 206.6 304.766 207.133C304.529 207.652 304.284 208.178 304.033 208.711L301.344 214.667ZM323.751 214.178C322.536 214.178 321.425 213.874 320.417 213.267C319.41 212.644 318.603 211.815 317.995 210.778C317.403 209.741 317.106 208.593 317.106 207.333C317.106 206.074 317.403 204.926 317.995 203.889C318.603 202.852 319.41 202.03 320.417 201.422C321.425 200.8 322.536 200.489 323.751 200.489C324.669 200.489 325.528 200.659 326.328 201C327.143 201.341 327.847 201.815 328.44 202.422V200.667H330.662V214H328.44V212.244C327.847 212.837 327.143 213.311 326.328 213.667C325.528 214.007 324.669 214.178 323.751 214.178ZM324.062 212C324.906 212 325.669 211.793 326.351 211.378C327.047 210.948 327.595 210.385 327.995 209.689C328.41 208.978 328.617 208.193 328.617 207.333C328.617 206.474 328.41 205.696 327.995 205C327.595 204.289 327.047 203.726 326.351 203.311C325.669 202.881 324.906 202.667 324.062 202.667C323.217 202.667 322.447 202.881 321.751 203.311C321.069 203.726 320.521 204.289 320.106 205C319.706 205.696 319.506 206.474 319.506 207.333C319.506 208.193 319.706 208.978 320.106 209.689C320.521 210.385 321.069 210.948 321.751 211.378C322.447 211.793 323.217 212 324.062 212ZM334.915 214V200.667H337.137V202.822C337.626 202.037 338.255 201.437 339.026 201.022C339.811 200.607 340.655 200.4 341.559 200.4C342.507 200.4 343.381 200.637 344.181 201.111C344.996 201.57 345.655 202.244 346.159 203.133C346.663 204.007 346.915 205.074 346.915 206.333V214H344.515V206.667C344.515 205.615 344.196 204.689 343.559 203.889C342.937 203.074 342.055 202.667 340.915 202.667C339.981 202.667 339.144 203.007 338.403 203.689C337.678 204.356 337.315 205.326 337.315 206.6V214H334.915ZM352.033 214V202.667H349.01V200.667H352.099V196.222H354.366V200.667H357.677V202.667H354.433V214H352.033ZM35.6889 257V245.667H32.6667V243.667H35.7556V239.222H38.0222V243.667H41.3333V245.667H38.0889V257H35.6889ZM49.566 257.267C48.2771 257.267 47.0993 256.956 46.0326 256.333C44.966 255.711 44.1141 254.874 43.4771 253.822C42.8549 252.77 42.5438 251.607 42.5438 250.333C42.5438 249.044 42.8549 247.881 43.4771 246.844C44.1141 245.793 44.966 244.956 46.0326 244.333C47.0993 243.711 48.2771 243.4 49.566 243.4C50.8697 243.4 52.0475 243.711 53.0993 244.333C54.166 244.956 55.0104 245.793 55.6326 246.844C56.2697 247.881 56.5882 249.044 56.5882 250.333C56.5882 251.607 56.2697 252.77 55.6326 253.822C55.0104 254.874 54.166 255.711 53.0993 256.333C52.0475 256.956 50.8697 257.267 49.566 257.267ZM49.566 255C50.4252 255 51.203 254.793 51.8993 254.378C52.5956 253.948 53.1512 253.385 53.566 252.689C53.9808 251.978 54.1882 251.193 54.1882 250.333C54.1882 249.474 53.9808 248.696 53.566 248C53.1512 247.289 52.5956 246.726 51.8993 246.311C51.203 245.881 50.4252 245.667 49.566 245.667C48.7067 245.667 47.9289 245.881 47.2326 246.311C46.5363 246.726 45.9808 247.289 45.566 248C45.1512 248.696 44.9438 249.474 44.9438 250.333C44.9438 251.193 45.1512 251.978 45.566 252.689C45.9808 253.385 46.5363 253.948 47.2326 254.378C47.9289 254.793 48.7067 255 49.566 255ZM66.5708 257V235.667H68.9708V257H66.5708ZM79.5826 257.267C78.19 257.267 76.9382 256.956 75.8271 256.333C74.7308 255.711 73.8641 254.867 73.2271 253.8C72.6049 252.719 72.2938 251.519 72.2938 250.2C72.2938 248.941 72.5975 247.8 73.2049 246.778C73.8123 245.741 74.6271 244.919 75.6493 244.311C76.6863 243.704 77.8271 243.4 79.0715 243.4C80.3012 243.4 81.4271 243.696 82.4493 244.289C83.4715 244.867 84.2863 245.652 84.8938 246.644C85.5012 247.637 85.8049 248.763 85.8049 250.022V251H77.0938C76.7086 251 76.316 250.985 75.916 250.956C75.516 250.926 75.1234 250.881 74.7382 250.822C74.9012 252.007 75.4345 253 76.3382 253.8C77.2567 254.6 78.3456 255 79.6049 255C80.4493 255 81.2345 254.807 81.9604 254.422C82.6863 254.037 83.2715 253.526 83.716 252.889L84.3826 255.622C83.7456 256.141 83.0123 256.548 82.1826 256.844C81.3678 257.126 80.5012 257.267 79.5826 257.267ZM74.6715 249.2C75.4715 249.067 76.2789 249 77.0938 249H81.516C81.8419 249 82.1604 249.015 82.4715 249.044C82.7975 249.059 83.1234 249.081 83.4493 249.111C83.2419 248.074 82.7234 247.222 81.8938 246.556C81.0641 245.874 80.1234 245.533 79.0715 245.533C77.99 245.533 77.0419 245.896 76.2271 246.622C75.4123 247.333 74.8938 248.193 74.6715 249.2ZM94.7194 257.178C93.5046 257.178 92.3935 256.874 91.3861 256.267C90.3787 255.644 89.5713 254.815 88.9639 253.778C88.3713 252.741 88.075 251.593 88.075 250.333C88.075 249.074 88.3713 247.926 88.9639 246.889C89.5713 245.852 90.3787 245.03 91.3861 244.422C92.3935 243.8 93.5046 243.489 94.7194 243.489C95.638 243.489 96.4972 243.659 97.2972 244C98.112 244.341 98.8157 244.815 99.4083 245.422V243.667H101.631V257H99.4083V255.244C98.8157 255.837 98.112 256.311 97.2972 256.667C96.4972 257.007 95.638 257.178 94.7194 257.178ZM95.0306 255C95.875 255 96.638 254.793 97.3194 254.378C98.0157 253.948 98.5639 253.385 98.9639 252.689C99.3787 251.978 99.5861 251.193 99.5861 250.333C99.5861 249.474 99.3787 248.696 98.9639 248C98.5639 247.289 98.0157 246.726 97.3194 246.311C96.638 245.881 95.875 245.667 95.0306 245.667C94.1861 245.667 93.4157 245.881 92.7194 246.311C92.038 246.726 91.4898 247.289 91.075 248C90.675 248.696 90.475 249.474 90.475 250.333C90.475 251.193 90.675 251.978 91.075 252.689C91.4898 253.385 92.038 253.948 92.7194 254.378C93.4157 254.793 94.1861 255 95.0306 255ZM105.883 257V243.667H108.106V246.111C108.58 245.326 109.209 244.704 109.994 244.244C110.78 243.77 111.713 243.533 112.794 243.533L113.394 245.933C113.113 245.844 112.787 245.8 112.417 245.8C111.172 245.8 110.172 246.2 109.417 247C108.661 247.785 108.283 248.911 108.283 250.378V257H105.883ZM115.883 257V243.667H118.106V245.822C118.594 245.037 119.224 244.437 119.994 244.022C120.78 243.607 121.624 243.4 122.528 243.4C123.476 243.4 124.35 243.637 125.15 244.111C125.965 244.57 126.624 245.244 127.128 246.133C127.631 247.007 127.883 248.074 127.883 249.333V257H125.483V249.667C125.483 248.615 125.165 247.689 124.528 246.889C123.906 246.074 123.024 245.667 121.883 245.667C120.95 245.667 120.113 246.007 119.372 246.689C118.646 247.356 118.283 248.326 118.283 249.6V257H115.883ZM144.251 257.178C143.036 257.178 141.925 256.874 140.917 256.267C139.91 255.644 139.103 254.815 138.495 253.778C137.903 252.741 137.606 251.593 137.606 250.333C137.606 249.074 137.903 247.926 138.495 246.889C139.103 245.852 139.91 245.03 140.917 244.422C141.925 243.8 143.036 243.489 144.251 243.489C145.169 243.489 146.028 243.659 146.828 244C147.643 244.341 148.347 244.815 148.94 245.422V243.667H151.162V257H148.94V255.244C148.347 255.837 147.643 256.311 146.828 256.667C146.028 257.007 145.169 257.178 144.251 257.178ZM144.562 255C145.406 255 146.169 254.793 146.851 254.378C147.547 253.948 148.095 253.385 148.495 252.689C148.91 251.978 149.117 251.193 149.117 250.333C149.117 249.474 148.91 248.696 148.495 248C148.095 247.289 147.547 246.726 146.851 246.311C146.169 245.881 145.406 245.667 144.562 245.667C143.717 245.667 142.947 245.881 142.251 246.311C141.569 246.726 141.021 247.289 140.606 248C140.206 248.696 140.006 249.474 140.006 250.333C140.006 251.193 140.206 251.978 140.606 252.689C141.021 253.385 141.569 253.948 142.251 254.378C142.947 254.793 143.717 255 144.562 255ZM162.326 257.178C161.407 257.178 160.548 257.007 159.748 256.667C158.948 256.311 158.244 255.837 157.637 255.244V257H155.415V235.667H157.815V245.244C158.407 244.696 159.089 244.267 159.859 243.956C160.629 243.644 161.452 243.489 162.326 243.489C163.555 243.489 164.666 243.8 165.659 244.422C166.666 245.03 167.466 245.852 168.059 246.889C168.666 247.926 168.97 249.074 168.97 250.333C168.97 251.593 168.666 252.741 168.059 253.778C167.466 254.815 166.666 255.644 165.659 256.267C164.666 256.874 163.555 257.178 162.326 257.178ZM162.015 255C162.859 255 163.622 254.793 164.303 254.378C165 253.948 165.548 253.385 165.948 252.689C166.363 251.978 166.57 251.193 166.57 250.333C166.57 249.474 166.363 248.696 165.948 248C165.548 247.289 165 246.726 164.303 246.311C163.622 245.881 162.859 245.667 162.015 245.667C161.17 245.667 160.4 245.881 159.703 246.311C159.022 246.726 158.474 247.289 158.059 248C157.659 248.696 157.459 249.474 157.459 250.333C157.459 251.193 157.659 251.978 158.059 252.689C158.474 253.385 159.022 253.948 159.703 254.378C160.4 254.793 161.17 255 162.015 255ZM178.378 257.267C177.09 257.267 175.912 256.956 174.845 256.333C173.778 255.711 172.927 254.874 172.29 253.822C171.667 252.77 171.356 251.607 171.356 250.333C171.356 249.044 171.667 247.881 172.29 246.844C172.927 245.793 173.778 244.956 174.845 244.333C175.912 243.711 177.09 243.4 178.378 243.4C179.682 243.4 180.86 243.711 181.912 244.333C182.978 244.956 183.823 245.793 184.445 246.844C185.082 247.881 185.401 249.044 185.401 250.333C185.401 251.607 185.082 252.77 184.445 253.822C183.823 254.874 182.978 255.711 181.912 256.333C180.86 256.956 179.682 257.267 178.378 257.267ZM178.378 255C179.238 255 180.016 254.793 180.712 254.378C181.408 253.948 181.964 253.385 182.378 252.689C182.793 251.978 183.001 251.193 183.001 250.333C183.001 249.474 182.793 248.696 182.378 248C181.964 247.289 181.408 246.726 180.712 246.311C180.016 245.881 179.238 245.667 178.378 245.667C177.519 245.667 176.741 245.881 176.045 246.311C175.349 246.726 174.793 247.289 174.378 248C173.964 248.696 173.756 249.474 173.756 250.333C173.756 251.193 173.964 251.978 174.378 252.689C174.793 253.385 175.349 253.948 176.045 254.378C176.741 254.793 177.519 255 178.378 255ZM193.816 257.267C192.883 257.267 192.009 257.037 191.194 256.578C190.379 256.104 189.72 255.422 189.216 254.533C188.712 253.644 188.46 252.578 188.46 251.333V243.667H190.86V251C190.86 252.052 191.172 252.985 191.794 253.8C192.431 254.6 193.32 255 194.46 255C195.394 255 196.223 254.667 196.949 254C197.69 253.319 198.06 252.341 198.06 251.067V243.667H200.46V257H198.238V254.844C197.749 255.63 197.112 256.23 196.327 256.644C195.557 257.059 194.72 257.267 193.816 257.267ZM206.283 257V245.667H203.26V243.667H206.349V239.222H208.616V243.667H211.927V245.667H208.683V257H206.283ZM216.86 250.333C216.86 249.252 217.023 248.319 217.349 247.533C217.69 246.748 218.083 246.044 218.527 245.422C218.972 244.8 219.357 244.193 219.683 243.6C220.023 243.007 220.194 242.363 220.194 241.667C220.194 240.867 219.942 240.215 219.438 239.711C218.934 239.207 218.283 238.956 217.483 238.956C216.905 238.956 216.364 239.104 215.86 239.4C215.357 239.681 214.934 240.059 214.594 240.533V237.644C214.979 237.348 215.431 237.126 215.949 236.978C216.483 236.815 217.046 236.733 217.638 236.733C218.66 236.733 219.542 236.948 220.283 237.378C221.023 237.807 221.594 238.378 221.994 239.089C222.394 239.785 222.594 240.556 222.594 241.4C222.594 242.23 222.423 242.985 222.083 243.667C221.742 244.348 221.342 245.015 220.883 245.667C220.438 246.319 220.031 247.015 219.66 247.756C219.29 248.496 219.068 249.356 218.994 250.333H216.86ZM217.927 257.267C217.468 257.267 217.075 257.104 216.749 256.778C216.423 256.452 216.26 256.059 216.26 255.6C216.26 255.126 216.423 254.733 216.749 254.422C217.075 254.096 217.468 253.933 217.927 253.933C218.401 253.933 218.794 254.096 219.105 254.422C219.431 254.733 219.594 255.126 219.594 255.6C219.594 256.059 219.431 256.452 219.105 256.778C218.794 257.104 218.401 257.267 217.927 257.267Z" fill="black"/>
<path d="M44 764L37 757M37 757L44 750M37 757H51" stroke="black" stroke-width="2" stroke-linecap="round" stroke-linejoin="round"/>
<path d="M66.75 763V750.5H70.25C71.0463 750.5 71.6759 750.657 72.1389 750.972C72.6111 751.287 72.9491 751.671 73.1528 752.125C73.3565 752.569 73.4583 752.991 73.4583 753.389C73.4583 753.843 73.3519 754.259 73.1389 754.639C72.9352 755.009 72.6574 755.315 72.3056 755.556C72.9815 755.861 73.5278 756.319 73.9444 756.931C74.3704 757.542 74.5833 758.236 74.5833 759.014C74.5833 759.671 74.4167 760.306 74.0833 760.917C73.7593 761.528 73.2731 762.028 72.625 762.417C71.9861 762.806 71.1944 763 70.25 763H66.75ZM68.3333 761.583H70.1389C70.8241 761.583 71.375 761.449 71.7917 761.181C72.2083 760.912 72.5139 760.574 72.7083 760.167C72.9028 759.759 73 759.356 73 758.958C73 758.569 72.9074 758.171 72.7222 757.764C72.537 757.356 72.2361 757.019 71.8194 756.75C71.4028 756.472 70.8426 756.333 70.1389 756.333H68.3333V761.583ZM68.3333 755H70.125C70.6713 755 71.1111 754.87 71.4444 754.611C71.787 754.343 71.9583 753.963 71.9583 753.472C71.9583 752.963 71.7917 752.579 71.4583 752.319C71.125 752.051 70.6991 751.917 70.1806 751.917H68.3333V755ZM80.3129 763.111C79.5537 763.111 78.8592 762.921 78.2296 762.542C77.6 762.153 77.0953 761.634 76.7157 760.986C76.3453 760.338 76.1602 759.62 76.1602 758.833C76.1602 758.046 76.3453 757.329 76.7157 756.681C77.0953 756.032 77.6 755.519 78.2296 755.139C78.8592 754.75 79.5537 754.556 80.3129 754.556C80.887 754.556 81.424 754.662 81.924 754.875C82.4333 755.088 82.8731 755.384 83.2435 755.764V754.667H84.6324V763H83.2435V761.903C82.8731 762.273 82.4333 762.569 81.924 762.792C81.424 763.005 80.887 763.111 80.3129 763.111ZM80.5074 761.75C81.0352 761.75 81.512 761.62 81.9379 761.361C82.3731 761.093 82.7157 760.741 82.9657 760.306C83.225 759.861 83.3546 759.37 83.3546 758.833C83.3546 758.296 83.225 757.81 82.9657 757.375C82.7157 756.931 82.3731 756.579 81.9379 756.319C81.512 756.051 81.0352 755.917 80.5074 755.917C79.9796 755.917 79.4981 756.051 79.0629 756.319C78.637 756.579 78.2944 756.931 78.0352 757.375C77.7852 757.81 77.6602 758.296 77.6602 758.833C77.6602 759.37 77.7852 759.861 78.0352 760.306C78.2944 760.741 78.637 761.093 79.0629 761.361C79.4981 761.62 79.9796 761.75 80.5074 761.75ZM91.1237 763.167C90.3089 763.167 89.5681 762.972 88.9015 762.583C88.2348 762.194 87.7024 761.671 87.3043 761.014C86.9061 760.356 86.707 759.63 86.707 758.833C86.707 758.037 86.9061 757.31 87.3043 756.653C87.7024 755.995 88.2348 755.472 88.9015 755.083C89.5681 754.694 90.3089 754.5 91.1237 754.5C91.7255 754.5 92.2904 754.606 92.8181 754.819C93.3459 755.032 93.8089 755.315 94.207 755.667L93.7487 757.556C93.5172 757.093 93.1654 756.704 92.6931 756.389C92.2302 756.074 91.7024 755.917 91.1098 755.917C90.5728 755.917 90.082 756.051 89.6376 756.319C89.2024 756.579 88.8552 756.931 88.5959 757.375C88.3367 757.81 88.207 758.296 88.207 758.833C88.207 759.361 88.3367 759.847 88.5959 760.292C88.8552 760.736 89.2024 761.093 89.6376 761.361C90.082 761.62 90.5728 761.75 91.1098 761.75C91.7024 761.75 92.2302 761.597 92.6931 761.292C93.1654 760.986 93.5172 760.593 93.7487 760.111L94.207 762C93.8089 762.352 93.3459 762.634 92.8181 762.847C92.2904 763.06 91.7255 763.167 91.1237 763.167ZM101.471 763L97.707 758.417L100.804 754.667H102.54L99.4987 758.306L103.374 763H101.471ZM96.0404 763V749.667H97.5404V763H96.0404Z" fill="black"/>
<path d="M368 750L375 757M375 757L368 764M375 757H361" stroke="black" stroke-width="2" stroke-linecap="round" stroke-linejoin="round"/>
<path d="M308.75 763V750.5H314.917V751.917H310.333V754.583H314.5V756H310.333V763H308.75ZM316.673 763V754.667H318.173V763H316.673ZM317.423 753.167C317.145 753.167 316.909 753.069 316.715 752.875C316.52 752.681 316.423 752.444 316.423 752.167C316.423 751.88 316.52 751.644 316.715 751.458C316.909 751.264 317.145 751.167 317.423 751.167C317.71 751.167 317.946 751.264 318.132 751.458C318.326 751.644 318.423 751.88 318.423 752.167C318.423 752.444 318.326 752.681 318.132 752.875C317.946 753.069 317.71 753.167 317.423 753.167ZM320.833 763V754.667H322.222V756.014C322.528 755.523 322.921 755.148 323.403 754.889C323.894 754.63 324.421 754.5 324.986 754.5C325.579 754.5 326.125 754.648 326.625 754.944C327.134 755.231 327.546 755.653 327.861 756.208C328.176 756.755 328.333 757.421 328.333 758.208V763H326.833V758.417C326.833 757.759 326.634 757.181 326.236 756.681C325.847 756.171 325.296 755.917 324.583 755.917C324 755.917 323.477 756.13 323.014 756.556C322.56 756.972 322.333 757.579 322.333 758.375V763H320.833ZM330.833 763V754.667H332.333V763H330.833ZM331.583 753.167C331.306 753.167 331.069 753.069 330.875 752.875C330.681 752.681 330.583 752.444 330.583 752.167C330.583 751.88 330.681 751.644 330.875 751.458C331.069 751.264 331.306 751.167 331.583 751.167C331.87 751.167 332.106 751.264 332.292 751.458C332.486 751.644 332.583 751.88 332.583 752.167C332.583 752.444 332.486 752.681 332.292 752.875C332.106 753.069 331.87 753.167 331.583 753.167ZM337.146 763.167C336.72 763.167 336.262 763.088 335.771 762.931C335.29 762.764 334.873 762.491 334.521 762.111L334.938 760.472C335.197 760.907 335.531 761.255 335.938 761.514C336.345 761.764 336.781 761.889 337.243 761.889C337.688 761.889 338.021 761.782 338.243 761.569C338.466 761.347 338.577 761.079 338.577 760.764C338.577 760.403 338.456 760.139 338.216 759.972C337.984 759.806 337.776 759.69 337.591 759.625L336.466 759.194C336.262 759.111 336.017 758.991 335.73 758.833C335.443 758.667 335.193 758.431 334.98 758.125C334.767 757.819 334.66 757.421 334.66 756.931C334.66 756.486 334.767 756.079 334.98 755.708C335.193 755.338 335.493 755.046 335.882 754.833C336.271 754.611 336.73 754.5 337.257 754.5C337.674 754.5 338.109 754.574 338.563 754.722C339.017 754.87 339.401 755.12 339.716 755.472L339.299 757.111C339.077 756.704 338.776 756.38 338.396 756.139C338.017 755.898 337.623 755.778 337.216 755.778C336.836 755.778 336.535 755.884 336.313 756.097C336.1 756.31 335.993 756.556 335.993 756.833C335.993 757.056 336.068 757.255 336.216 757.431C336.364 757.606 336.586 757.75 336.882 757.861L338.007 758.292C338.211 758.366 338.461 758.486 338.757 758.653C339.063 758.819 339.331 759.06 339.563 759.375C339.794 759.69 339.91 760.116 339.91 760.653C339.91 761.403 339.646 762.009 339.118 762.472C338.6 762.935 337.943 763.167 337.146 763.167ZM342.083 763V749.667H343.583V755.847C343.898 755.412 344.287 755.079 344.75 754.847C345.213 754.616 345.708 754.5 346.236 754.5C346.829 754.5 347.375 754.648 347.875 754.944C348.384 755.231 348.796 755.653 349.111 756.208C349.426 756.755 349.583 757.421 349.583 758.208V763H348.083V758.417C348.083 757.759 347.884 757.181 347.486 756.681C347.097 756.171 346.546 755.917 345.833 755.917C345.25 755.917 344.727 756.13 344.264 756.556C343.81 756.972 343.583 757.579 343.583 758.375V763H342.083Z" fill="black"/>
</svg>
