<svg width="344" height="745" viewBox="0 0 344 745" fill="none" xmlns="http://www.w3.org/2000/svg">
<rect width="343.723" height="745" fill="white"/>
<path d="M31.9565 172.015L25.7926 155.495H27.8531L31.4769 165.088C31.6071 165.419 31.7137 165.739 31.7966 166.047C31.8795 166.343 31.9683 166.698 32.0631 167.113C32.1578 166.698 32.2466 166.343 32.3295 166.047C32.4243 165.739 32.5308 165.419 32.6493 165.088L36.3085 154.962L39.9501 165.088C40.0566 165.384 40.1573 165.686 40.252 165.994C40.3586 166.29 40.4534 166.663 40.5362 167.113C40.631 166.663 40.7257 166.29 40.8205 165.994C40.9152 165.686 41.0218 165.384 41.1402 165.088L44.764 155.495H46.6824L40.5362 172.015L36.8414 161.641C36.7349 161.334 36.6342 161.038 36.5395 160.753C36.4447 160.457 36.35 160.084 36.2553 159.634C36.1605 160.084 36.0658 160.457 35.971 160.753C35.8763 161.038 35.7756 161.334 35.6691 161.641L31.9565 172.015ZM48.5925 171.482V154.429H50.511V162.334C50.9136 161.778 51.411 161.351 52.0031 161.055C52.5952 160.759 53.2288 160.611 53.9038 160.611C54.6617 160.611 55.3604 160.801 55.9999 161.18C56.6512 161.547 57.1782 162.086 57.5809 162.796C57.9835 163.495 58.1848 164.347 58.1848 165.354V171.482H56.2664V165.62C56.2664 164.78 56.0117 164.04 55.5025 163.4C55.0052 162.749 54.3005 162.423 53.3887 162.423C52.6426 162.423 51.9735 162.695 51.3814 163.24C50.8011 163.773 50.511 164.549 50.511 165.567V171.482H48.5925ZM65.9475 171.625C64.9764 171.625 64.0882 171.382 63.2829 170.896C62.4777 170.399 61.8322 169.736 61.3467 168.907C60.873 168.078 60.6362 167.16 60.6362 166.153C60.6362 165.147 60.873 164.229 61.3467 163.4C61.8322 162.571 62.4777 161.914 63.2829 161.428C64.0882 160.931 64.9764 160.682 65.9475 160.682C66.6817 160.682 67.3685 160.818 68.008 161.091C68.6593 161.363 69.2219 161.742 69.6955 162.228V160.824H71.4719V171.482H69.6955V170.079C69.2219 170.553 68.6593 170.932 68.008 171.216C67.3685 171.488 66.6817 171.625 65.9475 171.625ZM66.1961 169.884C66.8712 169.884 67.481 169.718 68.0258 169.386C68.5824 169.043 69.0205 168.593 69.3403 168.036C69.6719 167.468 69.8377 166.84 69.8377 166.153C69.8377 165.467 69.6719 164.845 69.3403 164.288C69.0205 163.72 68.5824 163.27 68.0258 162.938C67.481 162.595 66.8712 162.423 66.1961 162.423C65.5211 162.423 64.9053 162.595 64.3487 162.938C63.804 163.27 63.3658 163.72 63.0342 164.288C62.7145 164.845 62.5546 165.467 62.5546 166.153C62.5546 166.84 62.7145 167.468 63.0342 168.036C63.3658 168.593 63.804 169.043 64.3487 169.386C64.9053 169.718 65.5211 169.884 66.1961 169.884ZM76.1148 171.482V162.423H73.699V160.824H76.1681V157.272H77.98V160.824H80.6267V162.423H78.0333V171.482H76.1148ZM88.1857 171.482V160.824H90.1041V171.482H88.1857ZM89.1449 158.906C88.7896 158.906 88.4876 158.782 88.2389 158.533C87.9903 158.284 87.8659 157.982 87.8659 157.627C87.8659 157.26 87.9903 156.958 88.2389 156.721C88.4876 156.472 88.7896 156.348 89.1449 156.348C89.512 156.348 89.814 156.472 90.0508 156.721C90.2995 156.958 90.4238 157.26 90.4238 157.627C90.4238 157.982 90.2995 158.284 90.0508 158.533C89.814 158.782 89.512 158.906 89.1449 158.906ZM96.2597 171.696C95.715 171.696 95.1288 171.595 94.5011 171.394C93.8853 171.18 93.3524 170.831 92.9024 170.346L93.4353 168.249C93.7669 168.806 94.1932 169.25 94.7143 169.582C95.2353 169.901 95.7919 170.061 96.384 170.061C96.9525 170.061 97.3788 169.925 97.663 169.653C97.9472 169.369 98.0893 169.025 98.0893 168.623C98.0893 168.161 97.9354 167.823 97.6275 167.61C97.3314 167.397 97.065 167.249 96.8281 167.166L95.3893 166.615C95.1288 166.509 94.8149 166.355 94.4478 166.153C94.0807 165.94 93.761 165.638 93.4886 165.247C93.2162 164.857 93.08 164.347 93.08 163.72C93.08 163.151 93.2162 162.63 93.4886 162.157C93.761 161.683 94.1458 161.31 94.6432 161.038C95.1406 160.753 95.7268 160.611 96.4018 160.611C96.9347 160.611 97.4913 160.706 98.0716 160.895C98.6519 161.085 99.1433 161.405 99.5459 161.855L99.013 163.951C98.7288 163.43 98.3439 163.015 97.8584 162.707C97.3729 162.399 96.8696 162.245 96.3485 162.245C95.863 162.245 95.4781 162.382 95.1939 162.654C94.9215 162.926 94.7853 163.24 94.7853 163.595C94.7853 163.88 94.8801 164.134 95.0696 164.359C95.259 164.584 95.5432 164.768 95.9222 164.91L97.361 165.461C97.6216 165.555 97.9413 165.709 98.3203 165.922C98.7111 166.136 99.0545 166.444 99.3505 166.846C99.6466 167.249 99.7946 167.794 99.7946 168.48C99.7946 169.44 99.4571 170.215 98.7821 170.807C98.1189 171.4 97.2781 171.696 96.2597 171.696ZM107.451 176.811L110.915 169.919L106.403 160.824H108.57L110.844 165.443C111.045 165.857 111.24 166.266 111.43 166.669C111.619 167.071 111.809 167.557 111.998 168.125C112.199 167.557 112.389 167.071 112.567 166.669C112.756 166.254 112.957 165.845 113.171 165.443L115.48 160.824H117.523L109.529 176.811H107.451ZM123.778 171.696C122.748 171.696 121.806 171.447 120.954 170.95C120.101 170.452 119.42 169.783 118.911 168.942C118.414 168.101 118.165 167.172 118.165 166.153C118.165 165.123 118.414 164.193 118.911 163.365C119.42 162.524 120.101 161.855 120.954 161.357C121.806 160.86 122.748 160.611 123.778 160.611C124.82 160.611 125.762 160.86 126.602 161.357C127.455 161.855 128.13 162.524 128.628 163.365C129.137 164.193 129.391 165.123 129.391 166.153C129.391 167.172 129.137 168.101 128.628 168.942C128.13 169.783 127.455 170.452 126.602 170.95C125.762 171.447 124.82 171.696 123.778 171.696ZM123.778 169.884C124.465 169.884 125.087 169.718 125.643 169.386C126.2 169.043 126.644 168.593 126.976 168.036C127.307 167.468 127.473 166.84 127.473 166.153C127.473 165.467 127.307 164.845 126.976 164.288C126.644 163.72 126.2 163.27 125.643 162.938C125.087 162.595 124.465 162.423 123.778 162.423C123.091 162.423 122.47 162.595 121.913 162.938C121.356 163.27 120.912 163.72 120.581 164.288C120.249 164.845 120.083 165.467 120.083 166.153C120.083 166.84 120.249 167.468 120.581 168.036C120.912 168.593 121.356 169.043 121.913 169.386C122.47 169.718 123.091 169.884 123.778 169.884ZM136.118 171.696C135.372 171.696 134.673 171.512 134.022 171.145C133.371 170.766 132.844 170.221 132.441 169.511C132.038 168.8 131.837 167.947 131.837 166.953V160.824H133.756V166.686C133.756 167.527 134.004 168.273 134.502 168.924C135.011 169.564 135.721 169.884 136.633 169.884C137.379 169.884 138.043 169.617 138.623 169.084C139.215 168.54 139.511 167.758 139.511 166.74V160.824H141.429V171.482H139.653V169.759C139.262 170.387 138.753 170.867 138.125 171.198C137.51 171.53 136.841 171.696 136.118 171.696ZM144.84 171.482V160.824H146.616V162.778C146.995 162.151 147.499 161.653 148.126 161.286C148.754 160.907 149.5 160.718 150.364 160.718L150.844 162.636C150.619 162.565 150.359 162.53 150.062 162.53C149.068 162.53 148.268 162.849 147.664 163.489C147.06 164.117 146.758 165.017 146.758 166.189V171.482H144.84ZM158.154 171.482V160.824H159.931V162.547C160.321 161.92 160.825 161.44 161.441 161.109C162.068 160.777 162.743 160.611 163.466 160.611C164.223 160.611 164.922 160.801 165.562 161.18C166.213 161.547 166.74 162.086 167.143 162.796C167.545 163.495 167.747 164.347 167.747 165.354V171.482H165.828V165.62C165.828 164.78 165.574 164.04 165.064 163.4C164.567 162.749 163.862 162.423 162.95 162.423C162.204 162.423 161.535 162.695 160.943 163.24C160.363 163.773 160.073 164.549 160.073 165.567V171.482H158.154ZM175.509 171.625C174.538 171.625 173.65 171.382 172.845 170.896C172.039 170.399 171.394 169.736 170.908 168.907C170.435 168.078 170.198 167.16 170.198 166.153C170.198 165.147 170.435 164.229 170.908 163.4C171.394 162.571 172.039 161.914 172.845 161.428C173.65 160.931 174.538 160.682 175.509 160.682C176.243 160.682 176.93 160.818 177.57 161.091C178.221 161.363 178.784 161.742 179.257 162.228V160.824H181.034V171.482H179.257V170.079C178.784 170.553 178.221 170.932 177.57 171.216C176.93 171.488 176.243 171.625 175.509 171.625ZM175.758 169.884C176.433 169.884 177.043 169.718 177.588 169.386C178.144 169.043 178.582 168.593 178.902 168.036C179.234 167.468 179.399 166.84 179.399 166.153C179.399 165.467 179.234 164.845 178.902 164.288C178.582 163.72 178.144 163.27 177.588 162.938C177.043 162.595 176.433 162.423 175.758 162.423C175.083 162.423 174.467 162.595 173.911 162.938C173.366 163.27 172.928 163.72 172.596 164.288C172.276 164.845 172.116 165.467 172.116 166.153C172.116 166.84 172.276 167.468 172.596 168.036C172.928 168.593 173.366 169.043 173.911 169.386C174.467 169.718 175.083 169.884 175.758 169.884ZM184.433 171.482V160.824H186.209V162.352C186.6 161.772 187.092 161.339 187.684 161.055C188.288 160.759 188.921 160.611 189.585 160.611C190.307 160.611 190.97 160.783 191.574 161.126C192.178 161.458 192.664 161.926 193.031 162.53C193.445 161.89 193.978 161.411 194.629 161.091C195.293 160.771 195.991 160.611 196.725 160.611C197.531 160.611 198.265 160.801 198.928 161.18C199.603 161.559 200.136 162.091 200.527 162.778C200.929 163.453 201.131 164.253 201.131 165.176V171.482H199.212V165.407C199.212 164.436 198.934 163.702 198.377 163.205C197.833 162.695 197.199 162.441 196.477 162.441C196.027 162.441 195.589 162.541 195.162 162.743C194.748 162.944 194.404 163.258 194.132 163.684C193.871 164.111 193.741 164.667 193.741 165.354V171.482H191.823V165.407C191.823 164.732 191.687 164.176 191.414 163.738C191.154 163.299 190.81 162.974 190.384 162.761C189.969 162.536 189.537 162.423 189.087 162.423C188.649 162.423 188.217 162.524 187.79 162.725C187.376 162.926 187.033 163.24 186.76 163.666C186.488 164.093 186.352 164.655 186.352 165.354V171.482H184.433ZM209.397 171.696C208.284 171.696 207.284 171.447 206.395 170.95C205.519 170.452 204.826 169.777 204.317 168.924C203.82 168.06 203.571 167.101 203.571 166.047C203.571 165.04 203.814 164.128 204.299 163.311C204.785 162.482 205.436 161.825 206.253 161.339C207.082 160.854 207.994 160.611 208.989 160.611C209.972 160.611 210.872 160.848 211.689 161.322C212.506 161.784 213.157 162.411 213.643 163.205C214.128 163.998 214.371 164.898 214.371 165.905V166.686H207.408C207.1 166.686 206.786 166.674 206.467 166.651C206.147 166.627 205.833 166.592 205.525 166.544C205.655 167.492 206.082 168.285 206.804 168.924C207.538 169.564 208.409 169.884 209.415 169.884C210.09 169.884 210.718 169.73 211.298 169.422C211.878 169.114 212.346 168.705 212.701 168.196L213.234 170.381C212.725 170.796 212.139 171.121 211.476 171.358C210.824 171.583 210.132 171.696 209.397 171.696ZM205.472 165.247C206.111 165.141 206.757 165.088 207.408 165.088H210.943C211.203 165.088 211.458 165.099 211.707 165.123C211.967 165.135 212.228 165.153 212.488 165.176C212.323 164.347 211.908 163.666 211.245 163.134C210.582 162.589 209.83 162.316 208.989 162.316C208.124 162.316 207.367 162.607 206.715 163.187C206.064 163.755 205.649 164.442 205.472 165.247ZM218.637 166.153C218.637 165.289 218.768 164.543 219.028 163.915C219.3 163.288 219.614 162.725 219.97 162.228C220.325 161.73 220.633 161.245 220.893 160.771C221.166 160.297 221.302 159.782 221.302 159.226C221.302 158.586 221.1 158.065 220.698 157.662C220.295 157.26 219.774 157.058 219.135 157.058C218.673 157.058 218.241 157.177 217.838 157.414C217.435 157.639 217.098 157.941 216.825 158.32V156.01C217.133 155.774 217.494 155.596 217.909 155.478C218.335 155.347 218.785 155.282 219.259 155.282C220.076 155.282 220.781 155.454 221.373 155.797C221.965 156.141 222.421 156.597 222.741 157.165C223.06 157.722 223.22 158.337 223.22 159.012C223.22 159.676 223.084 160.28 222.812 160.824C222.539 161.369 222.22 161.902 221.852 162.423C221.497 162.944 221.172 163.501 220.875 164.093C220.579 164.685 220.402 165.372 220.343 166.153H218.637ZM219.49 171.696C219.123 171.696 218.809 171.565 218.548 171.305C218.288 171.044 218.158 170.73 218.158 170.363C218.158 169.984 218.288 169.671 218.548 169.422C218.809 169.161 219.123 169.031 219.49 169.031C219.869 169.031 220.183 169.161 220.431 169.422C220.692 169.671 220.822 169.984 220.822 170.363C220.822 170.73 220.692 171.044 220.431 171.305C220.183 171.565 219.869 171.696 219.49 171.696Z" fill="black"/>
<path d="M31.9565 303.91L25.7926 287.39H27.8531L31.4769 296.982C31.6071 297.314 31.7137 297.633 31.7966 297.941C31.8795 298.237 31.9683 298.593 32.0631 299.007C32.1578 298.593 32.2466 298.237 32.3295 297.941C32.4243 297.633 32.5308 297.314 32.6493 296.982L36.3085 286.857L39.9501 296.982C40.0566 297.278 40.1573 297.58 40.252 297.888C40.3586 298.184 40.4534 298.557 40.5362 299.007C40.631 298.557 40.7257 298.184 40.8205 297.888C40.9152 297.58 41.0218 297.278 41.1402 296.982L44.764 287.39H46.6824L40.5362 303.91L36.8414 293.536C36.7349 293.228 36.6342 292.932 36.5395 292.648C36.4447 292.352 36.35 291.979 36.2553 291.529C36.1605 291.979 36.0658 292.352 35.971 292.648C35.8763 292.932 35.7756 293.228 35.6691 293.536L31.9565 303.91ZM48.5925 303.377V286.324H50.511V294.229C50.9136 293.672 51.411 293.246 52.0031 292.95C52.5952 292.654 53.2288 292.506 53.9038 292.506C54.6617 292.506 55.3604 292.695 55.9999 293.074C56.6512 293.441 57.1782 293.98 57.5809 294.691C57.9835 295.389 58.1848 296.242 58.1848 297.249V303.377H56.2664V297.515C56.2664 296.674 56.0117 295.934 55.5025 295.295C55.0052 294.643 54.3005 294.318 53.3887 294.318C52.6426 294.318 51.9735 294.59 51.3814 295.135C50.8011 295.668 50.511 296.443 50.511 297.462V303.377H48.5925ZM65.9475 303.519C64.9764 303.519 64.0882 303.276 63.2829 302.791C62.4777 302.293 61.8322 301.63 61.3467 300.801C60.873 299.972 60.6362 299.055 60.6362 298.048C60.6362 297.041 60.873 296.124 61.3467 295.295C61.8322 294.466 62.4777 293.808 63.2829 293.323C64.0882 292.825 64.9764 292.577 65.9475 292.577C66.6817 292.577 67.3685 292.713 68.008 292.985C68.6593 293.258 69.2219 293.637 69.6955 294.122V292.719H71.4719V303.377H69.6955V301.974C69.2219 302.447 68.6593 302.826 68.008 303.111C67.3685 303.383 66.6817 303.519 65.9475 303.519ZM66.1961 301.778C66.8712 301.778 67.481 301.612 68.0258 301.281C68.5824 300.937 69.0205 300.487 69.3403 299.931C69.6719 299.362 69.8377 298.735 69.8377 298.048C69.8377 297.361 69.6719 296.739 69.3403 296.183C69.0205 295.614 68.5824 295.164 68.0258 294.833C67.481 294.489 66.8712 294.318 66.1961 294.318C65.5211 294.318 64.9053 294.489 64.3487 294.833C63.804 295.164 63.3658 295.614 63.0342 296.183C62.7145 296.739 62.5546 297.361 62.5546 298.048C62.5546 298.735 62.7145 299.362 63.0342 299.931C63.3658 300.487 63.804 300.937 64.3487 301.281C64.9053 301.612 65.5211 301.778 66.1961 301.778ZM76.1148 303.377V294.318H73.699V292.719H76.1681V289.166H77.98V292.719H80.6267V294.318H78.0333V303.377H76.1148ZM88.1857 303.377V292.719H90.1041V303.377H88.1857ZM89.1449 290.8C88.7896 290.8 88.4876 290.676 88.2389 290.427C87.9903 290.179 87.8659 289.877 87.8659 289.521C87.8659 289.154 87.9903 288.852 88.2389 288.616C88.4876 288.367 88.7896 288.242 89.1449 288.242C89.512 288.242 89.814 288.367 90.0508 288.616C90.2995 288.852 90.4238 289.154 90.4238 289.521C90.4238 289.877 90.2995 290.179 90.0508 290.427C89.814 290.676 89.512 290.8 89.1449 290.8ZM96.2597 303.59C95.715 303.59 95.1288 303.489 94.5011 303.288C93.8853 303.075 93.3524 302.726 92.9024 302.24L93.4353 300.144C93.7669 300.701 94.1932 301.145 94.7143 301.476C95.2353 301.796 95.7919 301.956 96.384 301.956C96.9525 301.956 97.3788 301.82 97.663 301.547C97.9472 301.263 98.0893 300.92 98.0893 300.517C98.0893 300.055 97.9354 299.718 97.6275 299.505C97.3314 299.291 97.065 299.143 96.8281 299.06L95.3893 298.51C95.1288 298.403 94.8149 298.249 94.4478 298.048C94.0807 297.835 93.761 297.533 93.4886 297.142C93.2162 296.751 93.08 296.242 93.08 295.614C93.08 295.046 93.2162 294.525 93.4886 294.051C93.761 293.577 94.1458 293.204 94.6432 292.932C95.1406 292.648 95.7268 292.506 96.4018 292.506C96.9347 292.506 97.4913 292.6 98.0716 292.79C98.6519 292.979 99.1433 293.299 99.5459 293.749L99.013 295.845C98.7288 295.324 98.3439 294.91 97.8584 294.602C97.3729 294.294 96.8696 294.14 96.3485 294.14C95.863 294.14 95.4781 294.276 95.1939 294.549C94.9215 294.821 94.7853 295.135 94.7853 295.49C94.7853 295.774 94.8801 296.029 95.0696 296.254C95.259 296.479 95.5432 296.662 95.9222 296.804L97.361 297.355C97.6216 297.45 97.9413 297.604 98.3203 297.817C98.7111 298.03 99.0545 298.338 99.3505 298.741C99.6466 299.143 99.7946 299.688 99.7946 300.375C99.7946 301.334 99.4571 302.11 98.7821 302.702C98.1189 303.294 97.2781 303.59 96.2597 303.59ZM107.451 308.706L110.915 301.814L106.403 292.719H108.57L110.844 297.337C111.045 297.752 111.24 298.16 111.43 298.563C111.619 298.966 111.809 299.451 111.998 300.02C112.199 299.451 112.389 298.966 112.567 298.563C112.756 298.149 112.957 297.74 113.171 297.337L115.48 292.719H117.523L109.529 308.706H107.451ZM123.778 303.59C122.748 303.59 121.806 303.341 120.954 302.844C120.101 302.347 119.42 301.678 118.911 300.837C118.414 299.996 118.165 299.066 118.165 298.048C118.165 297.018 118.414 296.088 118.911 295.259C119.42 294.418 120.101 293.749 120.954 293.252C121.806 292.754 122.748 292.506 123.778 292.506C124.82 292.506 125.762 292.754 126.602 293.252C127.455 293.749 128.13 294.418 128.628 295.259C129.137 296.088 129.391 297.018 129.391 298.048C129.391 299.066 129.137 299.996 128.628 300.837C128.13 301.678 127.455 302.347 126.602 302.844C125.762 303.341 124.82 303.59 123.778 303.59ZM123.778 301.778C124.465 301.778 125.087 301.612 125.643 301.281C126.2 300.937 126.644 300.487 126.976 299.931C127.307 299.362 127.473 298.735 127.473 298.048C127.473 297.361 127.307 296.739 126.976 296.183C126.644 295.614 126.2 295.164 125.643 294.833C125.087 294.489 124.465 294.318 123.778 294.318C123.091 294.318 122.47 294.489 121.913 294.833C121.356 295.164 120.912 295.614 120.581 296.183C120.249 296.739 120.083 297.361 120.083 298.048C120.083 298.735 120.249 299.362 120.581 299.931C120.912 300.487 121.356 300.937 121.913 301.281C122.47 301.612 123.091 301.778 123.778 301.778ZM136.118 303.59C135.372 303.59 134.673 303.407 134.022 303.039C133.371 302.66 132.844 302.116 132.441 301.405C132.038 300.695 131.837 299.842 131.837 298.847V292.719H133.756V298.581C133.756 299.422 134.004 300.168 134.502 300.819C135.011 301.458 135.721 301.778 136.633 301.778C137.379 301.778 138.043 301.512 138.623 300.979C139.215 300.434 139.511 299.653 139.511 298.634V292.719H141.429V303.377H139.653V301.654C139.262 302.282 138.753 302.761 138.125 303.093C137.51 303.424 136.841 303.59 136.118 303.59ZM144.84 303.377V292.719H146.616V294.673C146.995 294.045 147.499 293.548 148.126 293.181C148.754 292.802 149.5 292.612 150.364 292.612L150.844 294.531C150.619 294.46 150.359 294.424 150.062 294.424C149.068 294.424 148.268 294.744 147.664 295.383C147.06 296.011 146.758 296.911 146.758 298.083V303.377H144.84ZM163.679 303.519C162.945 303.519 162.258 303.383 161.618 303.111C160.979 302.826 160.416 302.447 159.931 301.974V303.377H158.154V286.324H160.073V293.98C160.546 293.542 161.091 293.198 161.707 292.95C162.323 292.701 162.98 292.577 163.679 292.577C164.662 292.577 165.55 292.825 166.343 293.323C167.149 293.808 167.788 294.466 168.262 295.295C168.747 296.124 168.99 297.041 168.99 298.048C168.99 299.055 168.747 299.972 168.262 300.801C167.788 301.63 167.149 302.293 166.343 302.791C165.55 303.276 164.662 303.519 163.679 303.519ZM163.43 301.778C164.105 301.778 164.715 301.612 165.26 301.281C165.816 300.937 166.254 300.487 166.574 299.931C166.906 299.362 167.072 298.735 167.072 298.048C167.072 297.361 166.906 296.739 166.574 296.183C166.254 295.614 165.816 295.164 165.26 294.833C164.715 294.489 164.105 294.318 163.43 294.318C162.755 294.318 162.139 294.489 161.583 294.833C161.038 295.164 160.6 295.614 160.268 296.183C159.948 296.739 159.789 297.361 159.789 298.048C159.789 298.735 159.948 299.362 160.268 299.931C160.6 300.487 161.038 300.937 161.583 301.281C162.139 301.612 162.755 301.778 163.43 301.778ZM171.643 303.377V292.719H173.562V303.377H171.643ZM172.603 290.8C172.247 290.8 171.945 290.676 171.697 290.427C171.448 290.179 171.324 289.877 171.324 289.521C171.324 289.154 171.448 288.852 171.697 288.616C171.945 288.367 172.247 288.242 172.603 288.242C172.97 288.242 173.272 288.367 173.509 288.616C173.757 288.852 173.882 289.154 173.882 289.521C173.882 289.877 173.757 290.179 173.509 290.427C173.272 290.676 172.97 290.8 172.603 290.8ZM176.964 303.377V292.719H178.741V294.673C179.119 294.045 179.623 293.548 180.25 293.181C180.878 292.802 181.624 292.612 182.489 292.612L182.968 294.531C182.743 294.46 182.483 294.424 182.187 294.424C181.192 294.424 180.393 294.744 179.789 295.383C179.185 296.011 178.883 296.911 178.883 298.083V303.377H176.964ZM186.201 303.377V294.318H183.785V292.719H186.254V289.166H188.066V292.719H190.713V294.318H188.12V303.377H186.201ZM192.951 303.377V286.324H194.87V294.229C195.272 293.672 195.77 293.246 196.362 292.95C196.954 292.654 197.588 292.506 198.263 292.506C199.02 292.506 199.719 292.695 200.359 293.074C201.01 293.441 201.537 293.98 201.94 294.691C202.342 295.389 202.544 296.242 202.544 297.249V303.377H200.625V297.515C200.625 296.674 200.37 295.934 199.861 295.295C199.364 294.643 198.659 294.318 197.747 294.318C197.001 294.318 196.332 294.59 195.74 295.135C195.16 295.668 194.87 296.443 194.87 297.462V303.377H192.951ZM210.306 303.519C209.335 303.519 208.447 303.276 207.642 302.791C206.836 302.293 206.191 301.63 205.705 300.801C205.232 299.972 204.995 299.055 204.995 298.048C204.995 297.041 205.232 296.124 205.705 295.295C206.191 294.466 206.836 293.808 207.642 293.323C208.447 292.825 209.335 292.577 210.306 292.577C211.005 292.577 211.662 292.701 212.278 292.95C212.894 293.198 213.438 293.542 213.912 293.98V286.324H215.831V303.377H214.054V301.974C213.581 302.447 213.018 302.826 212.367 303.111C211.727 303.383 211.04 303.519 210.306 303.519ZM210.555 301.778C211.23 301.778 211.84 301.612 212.385 301.281C212.941 300.937 213.379 300.487 213.699 299.931C214.031 299.362 214.196 298.735 214.196 298.048C214.196 297.361 214.031 296.739 213.699 296.183C213.379 295.614 212.941 295.164 212.385 294.833C211.84 294.489 211.23 294.318 210.555 294.318C209.88 294.318 209.264 294.489 208.707 294.833C208.163 295.164 207.725 295.614 207.393 296.183C207.073 296.739 206.913 297.361 206.913 298.048C206.913 298.735 207.073 299.362 207.393 299.931C207.725 300.487 208.163 300.937 208.707 301.281C209.264 301.612 209.88 301.778 210.555 301.778ZM223.795 303.519C222.824 303.519 221.936 303.276 221.131 302.791C220.326 302.293 219.68 301.63 219.195 300.801C218.721 299.972 218.484 299.055 218.484 298.048C218.484 297.041 218.721 296.124 219.195 295.295C219.68 294.466 220.326 293.808 221.131 293.323C221.936 292.825 222.824 292.577 223.795 292.577C224.53 292.577 225.216 292.713 225.856 292.985C226.507 293.258 227.07 293.637 227.543 294.122V292.719H229.32V303.377H227.543V301.974C227.07 302.447 226.507 302.826 225.856 303.111C225.216 303.383 224.53 303.519 223.795 303.519ZM224.044 301.778C224.719 301.778 225.329 301.612 225.874 301.281C226.43 300.937 226.868 300.487 227.188 299.931C227.52 299.362 227.686 298.735 227.686 298.048C227.686 297.361 227.52 296.739 227.188 296.183C226.868 295.614 226.43 295.164 225.874 294.833C225.329 294.489 224.719 294.318 224.044 294.318C223.369 294.318 222.753 294.489 222.197 294.833C221.652 295.164 221.214 295.614 220.882 296.183C220.562 296.739 220.403 297.361 220.403 298.048C220.403 298.735 220.562 299.362 220.882 299.931C221.214 300.487 221.652 300.937 222.197 301.281C222.753 301.612 223.369 301.778 224.044 301.778ZM232.275 308.706L235.739 301.814L231.227 292.719H233.394L235.668 297.337C235.869 297.752 236.065 298.16 236.254 298.563C236.444 298.966 236.633 299.451 236.823 300.02C237.024 299.451 237.213 298.966 237.391 298.563C237.581 298.149 237.782 297.74 237.995 297.337L240.304 292.719H242.347L234.353 308.706H232.275ZM245.965 298.048C245.965 297.183 246.096 296.437 246.356 295.81C246.628 295.182 246.942 294.62 247.298 294.122C247.653 293.625 247.961 293.139 248.221 292.666C248.494 292.192 248.63 291.677 248.63 291.12C248.63 290.481 248.428 289.96 248.026 289.557C247.623 289.154 247.102 288.953 246.463 288.953C246.001 288.953 245.569 289.071 245.166 289.308C244.763 289.533 244.426 289.835 244.153 290.214V287.905C244.461 287.668 244.822 287.49 245.237 287.372C245.663 287.242 246.113 287.177 246.587 287.177C247.404 287.177 248.109 287.348 248.701 287.692C249.293 288.035 249.749 288.491 250.069 289.06C250.388 289.616 250.548 290.232 250.548 290.907C250.548 291.57 250.412 292.174 250.14 292.719C249.867 293.264 249.548 293.797 249.18 294.318C248.825 294.839 248.499 295.395 248.203 295.987C247.907 296.579 247.73 297.266 247.671 298.048H245.965ZM246.818 303.59C246.451 303.59 246.137 303.46 245.876 303.199C245.616 302.939 245.486 302.625 245.486 302.258C245.486 301.879 245.616 301.565 245.876 301.316C246.137 301.056 246.451 300.926 246.818 300.926C247.197 300.926 247.511 301.056 247.759 301.316C248.02 301.565 248.15 301.879 248.15 302.258C248.15 302.625 248.02 302.939 247.759 303.199C247.511 303.46 247.197 303.59 246.818 303.59Z" fill="black"/>
<path d="M25.8991 436.07L32.667 419.55H32.7026L39.4704 436.07H37.3211L35.4381 431.327H29.8426L27.9419 436.07H25.8991ZM30.5177 429.64H34.7631L33.5019 426.478C33.348 426.075 33.1999 425.679 33.0578 425.288C32.9157 424.897 32.7736 424.429 32.6315 423.885C32.4894 424.429 32.3532 424.897 32.2229 425.288C32.0927 425.667 31.9447 426.064 31.7789 426.478L30.5177 429.64ZM41.4983 436.07V425.412H43.2746V427.366C43.6536 426.739 44.1569 426.241 44.7845 425.874C45.4121 425.495 46.1582 425.306 47.0227 425.306L47.5023 427.224C47.2773 427.153 47.0168 427.118 46.7207 427.118C45.726 427.118 44.9266 427.437 44.3226 428.077C43.7187 428.704 43.4167 429.604 43.4167 430.777V436.07H41.4983ZM54.2224 436.283C53.1093 436.283 52.1086 436.035 51.2204 435.537C50.3441 435.04 49.6513 434.365 49.1421 433.512C48.6447 432.648 48.396 431.689 48.396 430.635C48.396 429.628 48.6388 428.716 49.1243 427.899C49.6099 427.07 50.2612 426.413 51.0783 425.927C51.9073 425.442 52.8191 425.199 53.8139 425.199C54.7968 425.199 55.6968 425.436 56.5139 425.91C57.3311 426.371 57.9824 426.999 58.4679 427.793C58.9535 428.586 59.1962 429.486 59.1962 430.493V431.274H52.2329C51.925 431.274 51.6112 431.262 51.2915 431.239C50.9717 431.215 50.6579 431.179 50.35 431.132C50.4803 432.079 50.9066 432.873 51.629 433.512C52.3632 434.152 53.2336 434.472 54.2402 434.472C54.9152 434.472 55.5429 434.318 56.1231 434.01C56.7034 433.702 57.1712 433.293 57.5265 432.784L58.0594 434.969C57.5501 435.383 56.9639 435.709 56.3008 435.946C55.6494 436.171 54.9567 436.283 54.2224 436.283ZM50.2967 429.835C50.9362 429.729 51.5816 429.675 52.2329 429.675H55.7679C56.0284 429.675 56.283 429.687 56.5317 429.711C56.7922 429.723 57.0528 429.741 57.3133 429.764C57.1475 428.935 56.733 428.254 56.0698 427.721C55.4067 427.177 54.6547 426.904 53.8139 426.904C52.9494 426.904 52.1915 427.194 51.5402 427.775C50.8888 428.343 50.4744 429.03 50.2967 429.835ZM66.6336 441.399L70.0974 434.507L65.5855 425.412H67.7527L70.0264 430.031C70.2277 430.445 70.4231 430.854 70.6126 431.256C70.8021 431.659 70.9915 432.145 71.181 432.713C71.3823 432.145 71.5718 431.659 71.7494 431.256C71.9389 430.842 72.1402 430.433 72.3534 430.031L74.6627 425.412H76.7055L68.7119 441.399H66.6336ZM82.961 436.283C81.9307 436.283 80.9892 436.035 80.1366 435.537C79.2839 435.04 78.603 434.371 78.0938 433.53C77.5964 432.689 77.3477 431.76 77.3477 430.741C77.3477 429.711 77.5964 428.781 78.0938 427.952C78.603 427.112 79.2839 426.443 80.1366 425.945C80.9892 425.448 81.9307 425.199 82.961 425.199C84.0031 425.199 84.9446 425.448 85.7854 425.945C86.638 426.443 87.313 427.112 87.8104 427.952C88.3196 428.781 88.5742 429.711 88.5742 430.741C88.5742 431.76 88.3196 432.689 87.8104 433.53C87.313 434.371 86.638 435.04 85.7854 435.537C84.9446 436.035 84.0031 436.283 82.961 436.283ZM82.961 434.472C83.6478 434.472 84.2695 434.306 84.8261 433.974C85.3827 433.631 85.8268 433.181 86.1584 432.624C86.49 432.056 86.6558 431.428 86.6558 430.741C86.6558 430.054 86.49 429.433 86.1584 428.876C85.8268 428.308 85.3827 427.858 84.8261 427.526C84.2695 427.183 83.6478 427.011 82.961 427.011C82.2741 427.011 81.6524 427.183 81.0958 427.526C80.5392 427.858 80.0951 428.308 79.7635 428.876C79.432 429.433 79.2662 430.054 79.2662 430.741C79.2662 431.428 79.432 432.056 79.7635 432.624C80.0951 433.181 80.5392 433.631 81.0958 433.974C81.6524 434.306 82.2741 434.472 82.961 434.472ZM95.301 436.283C94.555 436.283 93.8563 436.1 93.2049 435.733C92.5536 435.354 92.0266 434.809 91.624 434.099C91.2214 433.388 91.02 432.535 91.02 431.541V425.412H92.9385V431.274C92.9385 432.115 93.1872 432.861 93.6846 433.512C94.1938 434.152 94.9043 434.472 95.8162 434.472C96.5622 434.472 97.2254 434.205 97.8057 433.672C98.3978 433.127 98.6939 432.346 98.6939 431.327V425.412H100.612V436.07H98.836V434.347C98.4452 434.975 97.9359 435.455 97.3083 435.786C96.6925 436.118 96.0234 436.283 95.301 436.283ZM113.909 436.212C112.938 436.212 112.05 435.97 111.244 435.484C110.439 434.987 109.794 434.324 109.308 433.495C108.834 432.666 108.598 431.748 108.598 430.741C108.598 429.735 108.834 428.817 109.308 427.988C109.794 427.159 110.439 426.502 111.244 426.016C112.05 425.519 112.938 425.27 113.909 425.27C114.643 425.27 115.33 425.406 115.969 425.679C116.621 425.951 117.183 426.33 117.657 426.816V425.412H119.433V436.07H117.657V434.667C117.183 435.141 116.621 435.52 115.969 435.804C115.33 436.076 114.643 436.212 113.909 436.212ZM114.158 434.472C114.833 434.472 115.442 434.306 115.987 433.974C116.544 433.631 116.982 433.181 117.302 432.624C117.633 432.056 117.799 431.428 117.799 430.741C117.799 430.054 117.633 429.433 117.302 428.876C116.982 428.308 116.544 427.858 115.987 427.526C115.442 427.183 114.833 427.011 114.158 427.011C113.483 427.011 112.867 427.183 112.31 427.526C111.765 427.858 111.327 428.308 110.996 428.876C110.676 429.433 110.516 430.054 110.516 430.741C110.516 431.428 110.676 432.056 110.996 432.624C111.327 433.181 111.765 433.631 112.31 433.974C112.867 434.306 113.483 434.472 114.158 434.472ZM128.153 441.399V425.412H129.93V426.816C130.415 426.33 130.978 425.951 131.617 425.679C132.257 425.406 132.944 425.27 133.678 425.27C134.661 425.27 135.549 425.519 136.342 426.016C137.148 426.502 137.787 427.159 138.261 427.988C138.746 428.817 138.989 429.735 138.989 430.741C138.989 431.748 138.746 432.666 138.261 433.495C137.787 434.324 137.148 434.987 136.342 435.484C135.549 435.97 134.661 436.212 133.678 436.212C132.979 436.212 132.322 436.088 131.706 435.839C131.09 435.591 130.546 435.247 130.072 434.809V441.399H128.153ZM133.429 434.472C134.104 434.472 134.714 434.306 135.259 433.974C135.815 433.631 136.254 433.181 136.573 432.624C136.905 432.056 137.071 431.428 137.071 430.741C137.071 430.054 136.905 429.433 136.573 428.876C136.254 428.308 135.815 427.858 135.259 427.526C134.714 427.183 134.104 427.011 133.429 427.011C132.754 427.011 132.138 427.183 131.582 427.526C131.037 427.858 130.599 428.308 130.267 428.876C129.948 429.433 129.788 430.054 129.788 430.741C129.788 431.428 129.948 432.056 130.267 432.624C130.599 433.181 131.037 433.631 131.582 433.974C132.138 434.306 132.754 434.472 133.429 434.472ZM146.208 436.212C145.237 436.212 144.349 435.97 143.543 435.484C142.738 434.987 142.093 434.324 141.607 433.495C141.133 432.666 140.897 431.748 140.897 430.741C140.897 429.735 141.133 428.817 141.607 427.988C142.093 427.159 142.738 426.502 143.543 426.016C144.349 425.519 145.237 425.27 146.208 425.27C146.942 425.27 147.629 425.406 148.268 425.679C148.92 425.951 149.482 426.33 149.956 426.816V425.412H151.732V436.07H149.956V434.667C149.482 435.141 148.92 435.52 148.268 435.804C147.629 436.076 146.942 436.212 146.208 436.212ZM146.457 434.472C147.132 434.472 147.741 434.306 148.286 433.974C148.843 433.631 149.281 433.181 149.601 432.624C149.932 432.056 150.098 431.428 150.098 430.741C150.098 430.054 149.932 429.433 149.601 428.876C149.281 428.308 148.843 427.858 148.286 427.526C147.741 427.183 147.132 427.011 146.457 427.011C145.781 427.011 145.166 427.183 144.609 427.526C144.064 427.858 143.626 428.308 143.295 428.876C142.975 429.433 142.815 430.054 142.815 430.741C142.815 431.428 142.975 432.056 143.295 432.624C143.626 433.181 144.064 433.631 144.609 433.974C145.166 434.306 145.781 434.472 146.457 434.472ZM156.375 436.07V427.011H153.959V425.412H156.428V421.86H158.24V425.412H160.887V427.011H158.294V436.07H156.375ZM163.125 436.07V425.412H165.044V436.07H163.125ZM164.085 423.494C163.729 423.494 163.427 423.369 163.179 423.121C162.93 422.872 162.806 422.57 162.806 422.215C162.806 421.848 162.93 421.546 163.179 421.309C163.427 421.06 163.729 420.936 164.085 420.936C164.452 420.936 164.754 421.06 164.99 421.309C165.239 421.546 165.363 421.848 165.363 422.215C165.363 422.57 165.239 422.872 164.99 423.121C164.754 423.369 164.452 423.494 164.085 423.494ZM173.526 436.283C172.413 436.283 171.413 436.035 170.524 435.537C169.648 435.04 168.955 434.365 168.446 433.512C167.949 432.648 167.7 431.689 167.7 430.635C167.7 429.628 167.943 428.716 168.428 427.899C168.914 427.07 169.565 426.413 170.382 425.927C171.211 425.442 172.123 425.199 173.118 425.199C174.101 425.199 175.001 425.436 175.818 425.91C176.635 426.371 177.286 426.999 177.772 427.793C178.257 428.586 178.5 429.486 178.5 430.493V431.274H171.537C171.229 431.274 170.915 431.262 170.595 431.239C170.276 431.215 169.962 431.179 169.654 431.132C169.784 432.079 170.211 432.873 170.933 433.512C171.667 434.152 172.538 434.472 173.544 434.472C174.219 434.472 174.847 434.318 175.427 434.01C176.007 433.702 176.475 433.293 176.83 432.784L177.363 434.969C176.854 435.383 176.268 435.709 175.605 435.946C174.953 436.171 174.261 436.283 173.526 436.283ZM169.601 429.835C170.24 429.729 170.886 429.675 171.537 429.675H175.072C175.332 429.675 175.587 429.687 175.836 429.711C176.096 429.723 176.357 429.741 176.617 429.764C176.451 428.935 176.037 428.254 175.374 427.721C174.711 427.177 173.959 426.904 173.118 426.904C172.253 426.904 171.495 427.194 170.844 427.775C170.193 428.343 169.778 429.03 169.601 429.835ZM181.061 436.07V425.412H182.837V427.135C183.228 426.508 183.731 426.028 184.347 425.696C184.975 425.365 185.65 425.199 186.372 425.199C187.13 425.199 187.829 425.389 188.468 425.767C189.12 426.135 189.647 426.673 190.049 427.384C190.452 428.083 190.653 428.935 190.653 429.942V436.07H188.735V430.208C188.735 429.368 188.48 428.627 187.971 427.988C187.473 427.337 186.769 427.011 185.857 427.011C185.111 427.011 184.442 427.283 183.85 427.828C183.269 428.361 182.979 429.137 182.979 430.155V436.07H181.061ZM194.744 436.07V427.011H192.328V425.412H194.798V421.86H196.609V425.412H199.256V427.011H196.663V436.07H194.744ZM203.2 430.741C203.2 429.877 203.33 429.131 203.59 428.503C203.863 427.875 204.177 427.313 204.532 426.816C204.887 426.318 205.195 425.833 205.456 425.359C205.728 424.885 205.864 424.37 205.864 423.814C205.864 423.174 205.663 422.653 205.26 422.25C204.858 421.848 204.337 421.646 203.697 421.646C203.235 421.646 202.803 421.765 202.4 422.002C201.998 422.227 201.66 422.529 201.388 422.908V420.598C201.696 420.361 202.057 420.184 202.471 420.065C202.898 419.935 203.348 419.87 203.821 419.87C204.639 419.87 205.343 420.042 205.935 420.385C206.527 420.729 206.983 421.185 207.303 421.753C207.623 422.31 207.783 422.925 207.783 423.6C207.783 424.264 207.646 424.867 207.374 425.412C207.102 425.957 206.782 426.49 206.415 427.011C206.06 427.532 205.734 428.089 205.438 428.681C205.142 429.273 204.964 429.96 204.905 430.741H203.2ZM204.052 436.283C203.685 436.283 203.371 436.153 203.111 435.893C202.85 435.632 202.72 435.318 202.72 434.951C202.72 434.572 202.85 434.258 203.111 434.01C203.371 433.749 203.685 433.619 204.052 433.619C204.431 433.619 204.745 433.749 204.994 434.01C205.254 434.258 205.385 434.572 205.385 434.951C205.385 435.318 205.254 435.632 204.994 435.893C204.745 436.153 204.431 436.283 204.052 436.283Z" fill="black"/>
<path d="M32.7381 47.0655C32.0631 47.0655 31.4414 46.947 30.8729 46.7102C30.3163 46.4733 29.8308 46.1477 29.4163 45.7332V46.7812H26.7518V29.7283H29.8426V36.7982C30.2334 36.4903 30.6716 36.2534 31.1571 36.0876C31.6427 35.9218 32.1697 35.839 32.7381 35.839C33.7328 35.839 34.6329 36.0936 35.4381 36.6028C36.2434 37.1002 36.8829 37.7752 37.3566 38.6278C37.8421 39.4805 38.0849 40.4219 38.0849 41.4522C38.0849 42.4825 37.8421 43.424 37.3566 44.2766C36.8829 45.1174 36.2434 45.7924 35.4381 46.3016C34.6329 46.8109 33.7328 47.0655 32.7381 47.0655ZM32.3828 44.3477C32.9039 44.3477 33.3776 44.2174 33.8039 43.9569C34.2302 43.6963 34.5677 43.347 34.8164 42.9088C35.0769 42.4706 35.2072 41.9851 35.2072 41.4522C35.2072 40.9193 35.0769 40.4338 34.8164 39.9956C34.5677 39.5574 34.2302 39.2081 33.8039 38.9476C33.3776 38.687 32.9039 38.5568 32.3828 38.5568C31.8618 38.5568 31.3881 38.687 30.9617 38.9476C30.5354 39.2081 30.192 39.5574 29.9315 39.9956C29.6828 40.4338 29.5584 40.9193 29.5584 41.4522C29.5584 41.9851 29.6828 42.4706 29.9315 42.9088C30.192 43.347 30.5354 43.6963 30.9617 43.9569C31.3881 44.2174 31.8618 44.3477 32.3828 44.3477ZM49.5084 47.1365C48.3123 47.1365 47.2583 46.8878 46.3465 46.3905C45.4346 45.8931 44.7241 45.2121 44.2148 44.3477C43.7056 43.4713 43.451 42.4706 43.451 41.3456C43.451 40.268 43.6997 39.3147 44.1971 38.4857C44.6945 37.6449 45.3635 36.9817 46.2044 36.4962C47.057 36.0107 47.9985 35.7679 49.0287 35.7679C50.0827 35.7679 51.0242 36.0107 51.8531 36.4962C52.6821 36.9699 53.3334 37.6212 53.8071 38.4502C54.2927 39.2791 54.5354 40.2206 54.5354 41.2746V42.3581H48.034C47.7379 42.3581 47.4537 42.3404 47.1813 42.3049C46.909 42.2693 46.6366 42.2279 46.3642 42.1805C46.5063 42.891 46.8557 43.4713 47.4123 43.9213C47.9807 44.3595 48.7031 44.5786 49.5794 44.5786C50.2544 44.5786 50.8584 44.4424 51.3913 44.17C51.936 43.8976 52.3801 43.5601 52.7235 43.1575L53.3986 45.9286C52.8657 46.3312 52.2617 46.6332 51.5867 46.8345C50.9235 47.0359 50.2307 47.1365 49.5084 47.1365ZM46.2932 40.3153C46.8853 40.1851 47.4656 40.1199 48.034 40.1199H49.9169C50.2485 40.1199 50.5623 40.1318 50.8584 40.1555C51.1544 40.1792 51.4327 40.2206 51.6933 40.2798C51.5156 39.6403 51.19 39.137 50.7163 38.7699C50.2544 38.4028 49.6801 38.2193 48.9932 38.2193C48.3419 38.2193 47.7735 38.4087 47.2879 38.7877C46.8142 39.1548 46.4826 39.664 46.2932 40.3153ZM65.1379 47.0655C64.155 47.0655 63.2609 46.8109 62.4556 46.3016C61.6503 45.7924 61.0049 45.1174 60.5194 44.2766C60.0457 43.424 59.8088 42.4825 59.8088 41.4522C59.8088 40.4219 60.0457 39.4805 60.5194 38.6278C61.0049 37.7752 61.6503 37.1002 62.4556 36.6028C63.2609 36.0936 64.155 35.839 65.1379 35.839C65.8247 35.839 66.4524 35.9633 67.0208 36.212C67.5892 36.4488 68.0748 36.7804 68.4774 37.2067V36.1232H71.1419V46.7812H68.4774V45.6977C68.0748 46.124 67.5892 46.4615 67.0208 46.7102C66.4524 46.947 65.8247 47.0655 65.1379 47.0655ZM65.5109 44.3477C66.032 44.3477 66.5057 44.2174 66.932 43.9569C67.3583 43.6963 67.6958 43.347 67.9445 42.9088C68.205 42.4706 68.3353 41.9851 68.3353 41.4522C68.3353 40.9193 68.205 40.4338 67.9445 39.9956C67.6958 39.5574 67.3583 39.2081 66.932 38.9476C66.5057 38.687 66.032 38.5568 65.5109 38.5568C64.9899 38.5568 64.5162 38.687 64.0898 38.9476C63.6635 39.2081 63.3201 39.5574 63.0596 39.9956C62.8109 40.4338 62.6865 40.9193 62.6865 41.4522C62.6865 41.9851 62.8109 42.4706 63.0596 42.9088C63.3201 43.347 63.6635 43.6963 64.0898 43.9569C64.5162 44.2174 64.9899 44.3477 65.5109 44.3477ZM82.7963 47.1365C81.7424 47.1365 80.7772 46.8819 79.9009 46.3727C79.0245 45.8635 78.3259 45.1766 77.8048 44.3121C77.2956 43.4476 77.041 42.4943 77.041 41.4522C77.041 40.3982 77.2956 39.4449 77.8048 38.5923C78.3259 37.7278 79.0245 37.0409 79.9009 36.5317C80.7772 36.0225 81.7424 35.7679 82.7963 35.7679C83.5305 35.7679 84.2233 35.8922 84.8747 36.1409C85.5378 36.3778 86.124 36.733 86.6332 37.2067L85.8339 40.3509C85.5378 39.8653 85.1411 39.4449 84.6437 39.0897C84.1582 38.7226 83.5838 38.539 82.9207 38.539C82.3641 38.539 81.8667 38.6693 81.4285 38.9298C80.9904 39.1903 80.6469 39.5397 80.3983 39.9778C80.1496 40.416 80.0252 40.9075 80.0252 41.4522C80.0252 41.9851 80.1496 42.4766 80.3983 42.9266C80.6469 43.3647 80.9904 43.7141 81.4285 43.9746C81.8667 44.2352 82.3641 44.3654 82.9207 44.3654C83.5838 44.3654 84.1582 44.1878 84.6437 43.8325C85.1411 43.4654 85.5378 43.0391 85.8339 42.5535L86.6332 45.6977C86.124 46.1714 85.5378 46.5326 84.8747 46.7812C84.2233 47.0181 83.5305 47.1365 82.7963 47.1365ZM97.5554 47.1365C96.5015 47.1365 95.5363 46.8819 94.66 46.3727C93.7837 45.8635 93.085 45.1766 92.5639 44.3121C92.0547 43.4476 91.8001 42.4943 91.8001 41.4522C91.8001 40.3982 92.0547 39.4449 92.5639 38.5923C93.085 37.7278 93.7837 37.0409 94.66 36.5317C95.5363 36.0225 96.5015 35.7679 97.5554 35.7679C98.6212 35.7679 99.5864 36.0225 100.451 36.5317C101.327 37.0409 102.02 37.7278 102.529 38.5923C103.05 39.4449 103.311 40.3982 103.311 41.4522C103.311 42.4943 103.05 43.4476 102.529 44.3121C102.02 45.1766 101.327 45.8635 100.451 46.3727C99.5864 46.8819 98.6212 47.1365 97.5554 47.1365ZM97.5554 44.3654C98.0883 44.3654 98.568 44.2352 98.9943 43.9746C99.4324 43.7141 99.7759 43.3647 100.025 42.9266C100.285 42.4766 100.415 41.9851 100.415 41.4522C100.415 40.9075 100.285 40.416 100.025 39.9778C99.7759 39.5397 99.4324 39.1903 98.9943 38.9298C98.568 38.6693 98.0883 38.539 97.5554 38.539C97.0225 38.539 96.537 38.6693 96.0988 38.9298C95.6725 39.1903 95.3291 39.5397 95.0686 39.9778C94.8199 40.416 94.6955 40.9075 94.6955 41.4522C94.6955 41.9851 94.8199 42.4766 95.0686 42.9266C95.3291 43.3647 95.6725 43.7141 96.0988 43.9746C96.537 44.2352 97.0225 44.3654 97.5554 44.3654ZM109.215 46.7812V36.1232H111.986V37.2956C112.365 36.7982 112.833 36.4192 113.39 36.1587C113.946 35.8982 114.544 35.7679 115.184 35.7679C115.942 35.7679 116.646 35.9515 117.298 36.3186C117.961 36.6738 118.494 37.2008 118.896 37.8995C119.311 38.5864 119.518 39.4213 119.518 40.4042V46.7812H116.427V40.8127C116.427 40.2206 116.25 39.6936 115.894 39.2318C115.539 38.7699 115.03 38.539 114.367 38.539C113.834 38.539 113.354 38.7226 112.928 39.0897C112.513 39.4449 112.306 40.0074 112.306 40.7772V46.7812H109.215Z" fill="#FF6060"/>
<rect x="25.9791" y="197.841" width="204.635" height="31.9742" rx="5.99517" stroke="black" stroke-width="0.799356"/>
<path d="M37.8894 349.529V341.269L41.602 346.385L45.2435 341.269V349.529H44.231V345.834C44.231 345.592 44.2339 345.328 44.2399 345.044C44.2458 344.754 44.2665 344.425 44.302 344.058C44.1185 344.384 43.9379 344.671 43.7603 344.92C43.5885 345.162 43.4316 345.387 43.2895 345.595L41.5665 348.037L39.7901 345.595C39.6421 345.387 39.4822 345.162 39.3105 344.92C39.1447 344.671 38.9671 344.384 38.7776 344.058C38.8131 344.425 38.8338 344.754 38.8398 345.044C38.8457 345.328 38.8487 345.592 38.8487 345.834V349.529H37.8894ZM47.4817 349.529V341.269L51.1943 346.385L54.8358 341.269V349.529H53.8233V345.834C53.8233 345.592 53.8262 345.328 53.8321 345.044C53.8381 344.754 53.8588 344.425 53.8943 344.058C53.7108 344.384 53.5302 344.671 53.3525 344.92C53.1808 345.162 53.0239 345.387 52.8818 345.595L51.1587 348.037L49.3824 345.595C49.2344 345.387 49.0745 345.162 48.9028 344.92C48.737 344.671 48.5593 344.384 48.3699 344.058C48.4054 344.425 48.4261 344.754 48.432 345.044C48.438 345.328 48.4409 345.592 48.4409 345.834V349.529H47.4817ZM55.2088 351.128L60.0582 341.003H60.9642L56.1147 351.128H55.2088ZM61.333 349.529V341.536H63.9532C64.6755 341.536 65.3032 341.654 65.8361 341.891C66.3749 342.128 66.819 342.442 67.1683 342.832C67.5177 343.223 67.7782 343.656 67.9499 344.129C68.1216 344.597 68.2075 345.065 68.2075 345.533C68.2075 346 68.1216 346.471 67.9499 346.945C67.7782 347.412 67.5177 347.842 67.1683 348.233C66.819 348.623 66.3749 348.937 65.8361 349.174C65.3032 349.411 64.6755 349.529 63.9532 349.529H61.333ZM62.3456 348.623H63.8466C64.4624 348.623 64.9805 348.529 65.4009 348.339C65.8213 348.144 66.1617 347.892 66.4223 347.584C66.6828 347.27 66.8693 346.933 66.9818 346.572C67.1002 346.21 67.1595 345.864 67.1595 345.533C67.1595 345.201 67.1002 344.855 66.9818 344.493C66.8693 344.132 66.6828 343.798 66.4223 343.49C66.1617 343.176 65.8213 342.924 65.4009 342.735C64.9805 342.539 64.4624 342.442 63.8466 342.442H62.3456V348.623ZM69.8637 349.529V341.536H72.4838C73.2062 341.536 73.8338 341.654 74.3667 341.891C74.9055 342.128 75.3496 342.442 75.699 342.832C76.0483 343.223 76.3089 343.656 76.4806 344.129C76.6523 344.597 76.7381 345.065 76.7381 345.533C76.7381 346 76.6523 346.471 76.4806 346.945C76.3089 347.412 76.0483 347.842 75.699 348.233C75.3496 348.623 74.9055 348.937 74.3667 349.174C73.8338 349.411 73.2062 349.529 72.4838 349.529H69.8637ZM70.8762 348.623H72.3772C72.993 348.623 73.5111 348.529 73.9315 348.339C74.3519 348.144 74.6924 347.892 74.9529 347.584C75.2134 347.27 75.4 346.933 75.5125 346.572C75.6309 346.21 75.6901 345.864 75.6901 345.533C75.6901 345.201 75.6309 344.855 75.5125 344.493C75.4 344.132 75.2134 343.798 74.9529 343.49C74.6924 343.176 74.3519 342.924 73.9315 342.735C73.5111 342.539 72.993 342.442 72.3772 342.442H70.8762V348.623ZM76.5291 351.128L81.3786 341.003H82.2845L77.4351 351.128H76.5291ZM84.0922 349.529V345.666L81.6941 341.536H82.8665L84.181 343.863C84.2639 344.011 84.3409 344.159 84.412 344.307C84.4889 344.449 84.5659 344.615 84.6429 344.804C84.7199 344.615 84.7968 344.449 84.8738 344.307C84.9508 344.159 85.0307 344.011 85.1136 343.863L86.437 341.536H87.5028L85.1047 345.666V349.529H84.0922ZM90.2248 349.529V345.666L87.8267 341.536H88.9991L90.3136 343.863C90.3965 344.011 90.4735 344.159 90.5445 344.307C90.6215 344.449 90.6985 344.615 90.7754 344.804C90.8524 344.615 90.9294 344.449 91.0064 344.307C91.0833 344.159 91.1633 344.011 91.2462 343.863L92.5696 341.536H93.6354L91.2373 345.666V349.529H90.2248ZM96.3573 349.529V345.666L93.9593 341.536H95.1317L96.4462 343.863C96.5291 344.011 96.606 344.159 96.6771 344.307C96.7541 344.449 96.831 344.615 96.908 344.804C96.985 344.615 97.062 344.449 97.1389 344.307C97.2159 344.159 97.2958 344.011 97.3787 343.863L98.7021 341.536H99.7679L97.3699 345.666V349.529H96.3573ZM102.49 349.529V345.666L100.092 341.536H101.264L102.579 343.863C102.662 344.011 102.739 344.159 102.81 344.307C102.887 344.449 102.964 344.615 103.041 344.804C103.118 344.615 103.195 344.449 103.271 344.307C103.348 344.159 103.428 344.011 103.511 343.863L104.835 341.536H105.9L103.502 345.666V349.529H102.49Z" fill="#616161"/>
<path d="M37.6096 376.105V369.91L40.3941 373.747L43.1252 369.91V376.105H42.3658V373.334C42.3658 373.152 42.368 372.955 42.3725 372.742C42.3769 372.524 42.3925 372.277 42.4191 372.002C42.2814 372.246 42.146 372.462 42.0128 372.648C41.884 372.83 41.7663 372.999 41.6597 373.155L40.3674 374.986L39.0352 373.155C38.9241 372.999 38.8042 372.83 38.6755 372.648C38.5511 372.462 38.4179 372.246 38.2758 372.002C38.3024 372.277 38.318 372.524 38.3224 372.742C38.3268 372.955 38.3291 373.152 38.3291 373.334V376.105H37.6096ZM46.4292 376.185C46.0429 376.185 45.6898 376.092 45.3701 375.906C45.0503 375.719 44.795 375.468 44.604 375.153C44.4175 374.838 44.3242 374.489 44.3242 374.107C44.3242 373.721 44.4175 373.372 44.604 373.061C44.795 372.746 45.0503 372.495 45.3701 372.309C45.6898 372.122 46.0429 372.029 46.4292 372.029C46.82 372.029 47.1731 372.122 47.4884 372.309C47.8081 372.495 48.0612 372.746 48.2477 373.061C48.4387 373.372 48.5342 373.721 48.5342 374.107C48.5342 374.489 48.4387 374.838 48.2477 375.153C48.0612 375.468 47.8081 375.719 47.4884 375.906C47.1731 376.092 46.82 376.185 46.4292 376.185ZM46.4292 375.506C46.6868 375.506 46.9199 375.444 47.1287 375.319C47.3374 375.191 47.5039 375.022 47.6282 374.813C47.7526 374.6 47.8148 374.365 47.8148 374.107C47.8148 373.85 47.7526 373.616 47.6282 373.408C47.5039 373.194 47.3374 373.026 47.1287 372.901C46.9199 372.773 46.6868 372.708 46.4292 372.708C46.1716 372.708 45.9385 372.773 45.7298 372.901C45.5211 373.026 45.3545 373.194 45.2302 373.408C45.1058 373.616 45.0437 373.85 45.0437 374.107C45.0437 374.365 45.1058 374.6 45.2302 374.813C45.3545 375.022 45.5211 375.191 45.7298 375.319C45.9385 375.444 46.1716 375.506 46.4292 375.506ZM49.5313 376.105V372.109H50.1974V372.755C50.344 372.519 50.5327 372.34 50.7636 372.215C50.999 372.091 51.2521 372.029 51.523 372.029C51.8072 372.029 52.0693 372.1 52.3091 372.242C52.5533 372.38 52.7509 372.582 52.9019 372.848C53.0529 373.11 53.1284 373.43 53.1284 373.807V376.105H52.409V373.907C52.409 373.592 52.3135 373.314 52.1225 373.075C51.936 372.83 51.6718 372.708 51.3298 372.708C51.0501 372.708 50.7992 372.81 50.5771 373.015C50.3595 373.214 50.2507 373.505 50.2507 373.887V376.105H49.5313ZM54.6626 376.105V372.708H53.7566V372.109H54.6826V370.776H55.362V372.109H56.3546V372.708H55.382V376.105H54.6626ZM57.1939 376.105V369.711H57.9133V372.675C58.0643 372.466 58.2508 372.306 58.4728 372.195C58.6949 372.084 58.9325 372.029 59.1856 372.029C59.4698 372.029 59.7318 372.1 59.9716 372.242C60.2159 372.38 60.4135 372.582 60.5645 372.848C60.7155 373.11 60.791 373.43 60.791 373.807V376.105H60.0716V373.907C60.0716 373.592 59.9761 373.314 59.7851 373.075C59.5986 372.83 59.3344 372.708 58.9924 372.708C58.7127 372.708 58.4617 372.81 58.2397 373.015C58.0221 373.214 57.9133 373.505 57.9133 373.887V376.105H57.1939ZM61.3905 377.105C61.5903 376.856 61.7502 376.567 61.8701 376.239C61.9945 375.91 62.0566 375.533 62.0566 375.106H62.776C62.776 375.484 62.7228 375.839 62.6162 376.172C62.514 376.51 62.3719 376.82 62.1899 377.105H61.3905ZM65.9837 376.105V370.11H67.9488C68.4905 370.11 68.9613 370.199 69.361 370.377C69.7651 370.554 70.0981 370.79 70.3602 371.083C70.6222 371.376 70.8176 371.7 70.9463 372.055C71.0751 372.406 71.1395 372.757 71.1395 373.108C71.1395 373.459 71.0751 373.812 70.9463 374.167C70.8176 374.518 70.6222 374.84 70.3602 375.133C70.0981 375.426 69.7651 375.661 69.361 375.839C68.9613 376.017 68.4905 376.105 67.9488 376.105H65.9837ZM66.7431 375.426H67.8688C68.3307 375.426 68.7193 375.355 69.0346 375.213C69.3499 375.066 69.6052 374.878 69.8006 374.647C69.996 374.411 70.1359 374.158 70.2203 373.887C70.3091 373.616 70.3535 373.357 70.3535 373.108C70.3535 372.859 70.3091 372.599 70.2203 372.329C70.1359 372.058 69.996 371.807 69.8006 371.576C69.6052 371.34 69.3499 371.152 69.0346 371.01C68.7193 370.863 68.3307 370.79 67.8688 370.79H66.7431V375.426ZM73.8938 376.159C73.5296 376.159 73.1965 376.068 72.8946 375.886C72.5926 375.699 72.3506 375.45 72.1685 375.14C71.9909 374.829 71.902 374.485 71.902 374.107C71.902 373.73 71.9909 373.385 72.1685 373.075C72.3506 372.764 72.5926 372.517 72.8946 372.335C73.1965 372.149 73.5296 372.055 73.8938 372.055C74.1691 372.055 74.4267 372.106 74.6665 372.209C74.9107 372.311 75.1217 372.453 75.2993 372.635V372.109H75.9654V376.105H75.2993V375.579C75.1217 375.757 74.9107 375.899 74.6665 376.006C74.4267 376.108 74.1691 376.159 73.8938 376.159ZM73.987 375.506C74.2402 375.506 74.4689 375.444 74.6731 375.319C74.8819 375.191 75.0462 375.022 75.1661 374.813C75.2904 374.6 75.3526 374.365 75.3526 374.107C75.3526 373.85 75.2904 373.616 75.1661 373.408C75.0462 373.194 74.8819 373.026 74.6731 372.901C74.4689 372.773 74.2402 372.708 73.987 372.708C73.7339 372.708 73.503 372.773 73.2942 372.901C73.09 373.026 72.9257 373.194 72.8013 373.408C72.6814 373.616 72.6215 373.85 72.6215 374.107C72.6215 374.365 72.6814 374.6 72.8013 374.813C72.9257 375.022 73.09 375.191 73.2942 375.319C73.503 375.444 73.7339 375.506 73.987 375.506ZM77.0737 378.104L78.3727 375.519L76.6807 372.109H77.4934L78.346 373.841C78.4215 373.996 78.4948 374.149 78.5658 374.3C78.6369 374.451 78.7079 374.633 78.779 374.846C78.8545 374.633 78.9255 374.451 78.9922 374.3C79.0632 374.145 79.1387 373.992 79.2186 373.841L80.0846 372.109H80.8507L77.8531 378.104H77.0737ZM80.5657 377.105C80.7655 376.856 80.9254 376.567 81.0453 376.239C81.1696 375.91 81.2318 375.533 81.2318 375.106H81.9512C81.9512 375.484 81.8979 375.839 81.7914 376.172C81.6892 376.51 81.5471 376.82 81.365 377.105H80.5657ZM86.238 376.105V373.208L84.4394 370.11H85.3187L86.3046 371.856C86.3668 371.967 86.4245 372.078 86.4778 372.189C86.5355 372.295 86.5933 372.42 86.651 372.562C86.7087 372.42 86.7665 372.295 86.8242 372.189C86.8819 372.078 86.9419 371.967 87.004 371.856L87.9966 370.11H88.7959L86.9974 373.208V376.105H86.238ZM90.6673 376.185C90.2499 376.185 89.8746 376.092 89.5416 375.906C89.213 375.719 88.9532 375.466 88.7622 375.146C88.5757 374.822 88.4824 374.462 88.4824 374.067C88.4824 373.69 88.5735 373.348 88.7555 373.041C88.9376 372.73 89.1819 372.484 89.4883 372.302C89.7992 372.12 90.1411 372.029 90.5141 372.029C90.8827 372.029 91.2202 372.118 91.5266 372.295C91.8331 372.468 92.0773 372.704 92.2594 373.001C92.4415 373.299 92.5325 373.636 92.5325 374.014V374.307H89.9213C89.8058 374.307 89.6881 374.302 89.5682 374.294C89.4483 374.285 89.3306 374.271 89.2152 374.254C89.264 374.609 89.4239 374.906 89.6948 375.146C89.9701 375.386 90.2965 375.506 90.674 375.506C90.9271 375.506 91.1625 375.448 91.3801 375.333C91.5977 375.217 91.7731 375.064 91.9063 374.873L92.1062 375.692C91.9152 375.848 91.6954 375.97 91.4467 376.059C91.2025 376.143 90.9427 376.185 90.6673 376.185ZM89.1952 373.767C89.435 373.727 89.677 373.707 89.9213 373.707H91.2469C91.3446 373.707 91.4401 373.712 91.5333 373.721C91.631 373.725 91.7287 373.732 91.8264 373.741C91.7642 373.43 91.6088 373.174 91.3601 372.975C91.1114 372.77 90.8294 372.668 90.5141 372.668C90.1899 372.668 89.9057 372.777 89.6615 372.995C89.4172 373.208 89.2618 373.465 89.1952 373.767ZM95.2047 376.159C94.8406 376.159 94.5075 376.068 94.2055 375.886C93.9036 375.699 93.6615 375.45 93.4794 375.14C93.3018 374.829 93.213 374.485 93.213 374.107C93.213 373.73 93.3018 373.385 93.4794 373.075C93.6615 372.764 93.9036 372.517 94.2055 372.335C94.5075 372.149 94.8406 372.055 95.2047 372.055C95.4801 372.055 95.7376 372.106 95.9774 372.209C96.2217 372.311 96.4326 372.453 96.6103 372.635V372.109H97.2764V376.105H96.6103V375.579C96.4326 375.757 96.2217 375.899 95.9774 376.006C95.7376 376.108 95.4801 376.159 95.2047 376.159ZM95.298 375.506C95.5511 375.506 95.7798 375.444 95.9841 375.319C96.1928 375.191 96.3571 375.022 96.477 374.813C96.6014 374.6 96.6636 374.365 96.6636 374.107C96.6636 373.85 96.6014 373.616 96.477 373.408C96.3571 373.194 96.1928 373.026 95.9841 372.901C95.7798 372.773 95.5511 372.708 95.298 372.708C95.0449 372.708 94.8139 372.773 94.6052 372.901C94.4009 373.026 94.2366 373.194 94.1123 373.408C93.9924 373.616 93.9324 373.85 93.9324 374.107C93.9324 374.365 93.9924 374.6 94.1123 374.813C94.2366 375.022 94.4009 375.191 94.6052 375.319C94.8139 375.444 95.0449 375.506 95.298 375.506ZM98.5512 376.105V372.109H99.2173V372.841C99.3594 372.606 99.5482 372.42 99.7835 372.282C100.019 372.14 100.299 372.069 100.623 372.069L100.803 372.788C100.718 372.761 100.621 372.748 100.51 372.748C100.137 372.748 99.8368 372.868 99.6103 373.108C99.3839 373.343 99.2706 373.681 99.2706 374.12V376.105H98.5512Z" fill="#616161"/>
<rect x="25.9791" y="328.935" width="204.635" height="31.9742" rx="5.99517" stroke="black" stroke-width="0.799356"/>
<rect x="25.5794" y="462.029" width="136.69" height="57.9871" rx="7.99356" fill="#C2F3D7"/>
<path d="M67.7548 486.023V481.194L64.7572 476.031H66.2227L67.8658 478.94C67.9694 479.125 68.0656 479.31 68.1545 479.495C68.2507 479.673 68.3469 479.88 68.4431 480.117C68.5393 479.88 68.6356 479.673 68.7318 479.495C68.828 479.31 68.9279 479.125 69.0315 478.94L70.6858 476.031H72.018L69.0204 481.194V486.023H67.7548ZM75.137 486.157C74.4413 486.157 73.8159 486.001 73.2608 485.69C72.7131 485.38 72.2801 484.958 71.9618 484.425C71.6509 483.884 71.4955 483.285 71.4955 482.626C71.4955 481.997 71.6472 481.427 71.9507 480.916C72.2542 480.398 72.6612 479.988 73.1719 479.684C73.69 479.381 74.26 479.229 74.8817 479.229C75.496 479.229 76.0585 479.377 76.5692 479.673C77.0799 479.962 77.487 480.354 77.7904 480.85C78.0939 481.346 78.2456 481.908 78.2456 482.537V483.026H73.8936C73.7011 483.026 73.505 483.018 73.3052 483.004C73.1053 482.989 72.9092 482.967 72.7168 482.937C72.7982 483.529 73.0646 484.025 73.5161 484.425C73.975 484.824 74.519 485.024 75.1481 485.024C75.57 485.024 75.9623 484.928 76.325 484.736C76.6876 484.543 76.98 484.288 77.202 483.97L77.5351 485.335C77.2168 485.594 76.8505 485.798 76.436 485.946C76.0289 486.086 75.5959 486.157 75.137 486.157ZM72.6834 482.127C73.0831 482.06 73.4865 482.027 73.8936 482.027H76.1029C76.2657 482.027 76.4249 482.034 76.5803 482.049C76.7431 482.056 76.906 482.067 77.0688 482.082C76.9652 481.564 76.7061 481.138 76.2917 480.805C75.8772 480.465 75.4072 480.295 74.8817 480.295C74.3414 480.295 73.8677 480.476 73.4606 480.839C73.0535 481.194 72.7945 481.623 72.6834 482.127ZM81.5669 486.157C81.2265 486.157 80.8601 486.094 80.4678 485.968C80.0829 485.835 79.7499 485.616 79.4686 485.313L79.8017 484.003C80.0089 484.351 80.2754 484.628 80.601 484.836C80.9267 485.035 81.2746 485.135 81.6446 485.135C81.9999 485.135 82.2664 485.05 82.444 484.88C82.6216 484.702 82.7104 484.488 82.7104 484.236C82.7104 483.947 82.6142 483.736 82.4218 483.603C82.2367 483.47 82.0702 483.377 81.9222 483.326L81.0229 482.981C80.8601 482.915 80.6639 482.819 80.4345 482.693C80.2051 482.56 80.0052 482.371 79.835 482.127C79.6647 481.882 79.5796 481.564 79.5796 481.172C79.5796 480.817 79.6647 480.491 79.835 480.195C80.0052 479.899 80.2458 479.666 80.5566 479.495C80.8675 479.318 81.2339 479.229 81.6557 479.229C81.9888 479.229 82.3367 479.288 82.6993 479.407C83.062 479.525 83.3692 479.725 83.6208 480.006L83.2878 481.316C83.1101 480.99 82.8696 480.731 82.5661 480.539C82.2627 480.347 81.9481 480.25 81.6224 480.25C81.319 480.25 81.0784 480.335 80.9008 480.506C80.7306 480.676 80.6454 480.872 80.6454 481.094C80.6454 481.272 80.7046 481.431 80.8231 481.571C80.9415 481.712 81.1191 481.827 81.356 481.916L82.2553 482.26C82.4181 482.319 82.6179 482.415 82.8548 482.548C83.099 482.682 83.3137 482.874 83.4987 483.126C83.6837 483.377 83.7762 483.718 83.7762 484.147C83.7762 484.747 83.5653 485.231 83.1434 485.602C82.7289 485.972 82.2034 486.157 81.5669 486.157ZM84.5142 487.689C84.8473 487.274 85.1137 486.793 85.3136 486.245C85.5208 485.698 85.6244 485.069 85.6244 484.358H86.8235C86.8235 484.987 86.7346 485.579 86.557 486.134C86.3868 486.697 86.1499 487.215 85.8465 487.689H84.5142ZM92.3027 486.023V476.031H93.5684V486.023H92.3027ZM101.918 486.357L98.5539 479.362H99.9195L101.263 482.249C101.389 482.523 101.507 482.789 101.618 483.048C101.737 483.307 101.851 483.633 101.962 484.025C102.081 483.64 102.199 483.315 102.318 483.048C102.443 482.782 102.562 482.515 102.673 482.249L104.016 479.051L105.348 482.249C105.459 482.523 105.574 482.789 105.693 483.048C105.811 483.307 105.926 483.633 106.037 484.025C106.148 483.633 106.263 483.307 106.381 483.048C106.499 482.782 106.622 482.515 106.747 482.249L108.113 479.362H109.39L106.026 486.357L104.671 483.381C104.553 483.115 104.434 482.852 104.316 482.593C104.205 482.326 104.09 482.008 103.972 481.638C103.861 482.008 103.746 482.326 103.628 482.593C103.509 482.852 103.387 483.115 103.261 483.381L101.918 486.357ZM113.112 486.112C112.505 486.112 111.95 485.961 111.447 485.657C110.944 485.346 110.54 484.932 110.237 484.414C109.941 483.896 109.793 483.322 109.793 482.693C109.793 482.064 109.941 481.49 110.237 480.972C110.54 480.454 110.944 480.043 111.447 479.74C111.95 479.429 112.505 479.273 113.112 479.273C113.571 479.273 114.001 479.358 114.4 479.529C114.807 479.699 115.159 479.936 115.455 480.239V479.362H116.565V486.023H115.455V485.146C115.159 485.442 114.807 485.679 114.4 485.857C114.001 486.027 113.571 486.112 113.112 486.112ZM113.268 485.024C113.69 485.024 114.071 484.921 114.411 484.713C114.759 484.499 115.033 484.217 115.233 483.87C115.44 483.514 115.544 483.122 115.544 482.693C115.544 482.264 115.44 481.875 115.233 481.527C115.033 481.172 114.759 480.891 114.411 480.683C114.071 480.469 113.69 480.361 113.268 480.361C112.846 480.361 112.461 480.469 112.113 480.683C111.773 480.891 111.499 481.172 111.292 481.527C111.092 481.875 110.992 482.264 110.992 482.693C110.992 483.122 111.092 483.514 111.292 483.87C111.499 484.217 111.773 484.499 112.113 484.713C112.461 484.921 112.846 485.024 113.268 485.024ZM120.411 486.157C120.07 486.157 119.704 486.094 119.312 485.968C118.927 485.835 118.594 485.616 118.312 485.313L118.645 484.003C118.853 484.351 119.119 484.628 119.445 484.836C119.77 485.035 120.118 485.135 120.488 485.135C120.844 485.135 121.11 485.05 121.288 484.88C121.465 484.702 121.554 484.488 121.554 484.236C121.554 483.947 121.458 483.736 121.266 483.603C121.08 483.47 120.914 483.377 120.766 483.326L119.867 482.981C119.704 482.915 119.508 482.819 119.278 482.693C119.049 482.56 118.849 482.371 118.679 482.127C118.508 481.882 118.423 481.564 118.423 481.172C118.423 480.817 118.508 480.491 118.679 480.195C118.849 479.899 119.089 479.666 119.4 479.495C119.711 479.318 120.078 479.229 120.499 479.229C120.833 479.229 121.18 479.288 121.543 479.407C121.906 479.525 122.213 479.725 122.465 480.006L122.131 481.316C121.954 480.99 121.713 480.731 121.41 480.539C121.106 480.347 120.792 480.25 120.466 480.25C120.163 480.25 119.922 480.335 119.745 480.506C119.574 480.676 119.489 480.872 119.489 481.094C119.489 481.272 119.548 481.431 119.667 481.571C119.785 481.712 119.963 481.827 120.2 481.916L121.099 482.26C121.262 482.319 121.462 482.415 121.698 482.548C121.943 482.682 122.157 482.874 122.342 483.126C122.527 483.377 122.62 483.718 122.62 484.147C122.62 484.747 122.409 485.231 121.987 485.602C121.573 485.972 121.047 486.157 120.411 486.157ZM64.4406 507.112C63.8337 507.112 63.2786 506.961 62.7753 506.657C62.272 506.346 61.8686 505.932 61.5651 505.414C61.2691 504.896 61.1211 504.322 61.1211 503.693C61.1211 503.064 61.2691 502.49 61.5651 501.972C61.8686 501.454 62.272 501.043 62.7753 500.74C63.2786 500.429 63.8337 500.273 64.4406 500.273C64.8773 500.273 65.2881 500.351 65.6729 500.506C66.0578 500.662 66.3983 500.877 66.6943 501.15V496.365H67.8934V507.023H66.7832V506.146C66.4871 506.442 66.1355 506.679 65.7285 506.857C65.3288 507.027 64.8995 507.112 64.4406 507.112ZM64.596 506.024C65.0179 506.024 65.3991 505.921 65.7396 505.713C66.0874 505.499 66.3613 505.217 66.5611 504.87C66.7684 504.514 66.872 504.122 66.872 503.693C66.872 503.264 66.7684 502.875 66.5611 502.527C66.3613 502.172 66.0874 501.891 65.7396 501.683C65.3991 501.469 65.0179 501.361 64.596 501.361C64.1742 501.361 63.7893 501.469 63.4414 501.683C63.1009 501.891 62.8271 502.172 62.6199 502.527C62.42 502.875 62.3201 503.264 62.3201 503.693C62.3201 504.122 62.42 504.514 62.6199 504.87C62.8271 505.217 63.1009 505.499 63.4414 505.713C63.7893 505.921 64.1742 506.024 64.596 506.024ZM70.0181 507.023V500.362H71.2171V507.023H70.0181ZM70.6176 499.163C70.3955 499.163 70.2068 499.085 70.0514 498.93C69.8959 498.775 69.8182 498.586 69.8182 498.364C69.8182 498.134 69.8959 497.946 70.0514 497.798C70.2068 497.642 70.3955 497.564 70.6176 497.564C70.847 497.564 71.0358 497.642 71.1838 497.798C71.3392 497.946 71.4169 498.134 71.4169 498.364C71.4169 498.586 71.3392 498.775 71.1838 498.93C71.0358 499.085 70.847 499.163 70.6176 499.163ZM76.1968 507.112C75.5898 507.112 75.0347 506.961 74.5314 506.657C74.0281 506.346 73.6248 505.932 73.3213 505.414C73.0252 504.896 72.8772 504.322 72.8772 503.693C72.8772 503.064 73.0252 502.49 73.3213 501.972C73.6248 501.454 74.0281 501.043 74.5314 500.74C75.0347 500.429 75.5898 500.273 76.1968 500.273C76.6557 500.273 77.0849 500.358 77.4846 500.529C77.8917 500.699 78.2433 500.936 78.5393 501.239V500.362H79.6495V507.023H78.5393V506.146C78.2433 506.442 77.8917 506.679 77.4846 506.857C77.0849 507.027 76.6557 507.112 76.1968 507.112ZM76.3522 506.024C76.7741 506.024 77.1553 505.921 77.4957 505.713C77.8436 505.499 78.1174 505.217 78.3173 504.87C78.5245 504.514 78.6281 504.122 78.6281 503.693C78.6281 503.264 78.5245 502.875 78.3173 502.527C78.1174 502.172 77.8436 501.891 77.4957 501.683C77.1553 501.469 76.7741 501.361 76.3522 501.361C75.9303 501.361 75.5454 501.469 75.1976 501.683C74.8571 501.891 74.5832 502.172 74.376 502.527C74.1762 502.875 74.0763 503.264 74.0763 503.693C74.0763 504.122 74.1762 504.514 74.376 504.87C74.5832 505.217 74.8571 505.499 75.1976 505.713C75.5454 505.921 75.9303 506.024 76.3522 506.024ZM84.472 510.487C83.9613 510.487 83.4951 510.413 83.0732 510.265C82.6587 510.117 82.2886 509.914 81.963 509.655L82.296 508.3C82.5181 508.618 82.8141 508.877 83.1842 509.077C83.5543 509.277 83.9798 509.377 84.4609 509.377C85.2085 509.377 85.8117 509.151 86.2706 508.7C86.7369 508.248 86.97 507.667 86.97 506.957V506.146C86.674 506.442 86.3224 506.679 85.9153 506.857C85.5156 507.027 85.0864 507.112 84.6275 507.112C84.0206 507.112 83.4654 506.961 82.9621 506.657C82.4589 506.346 82.0555 505.932 81.752 505.414C81.456 504.896 81.3079 504.322 81.3079 503.693C81.3079 503.064 81.456 502.49 81.752 501.972C82.0555 501.454 82.4589 501.043 82.9621 500.74C83.4654 500.429 84.0206 500.273 84.6275 500.273C85.0864 500.273 85.5156 500.358 85.9153 500.529C86.3224 500.699 86.674 500.936 86.97 501.239V500.362H88.0802V507.023C88.0802 507.749 87.91 508.371 87.5695 508.889C87.2365 509.407 86.7961 509.803 86.2484 510.077C85.7007 510.35 85.1086 510.487 84.472 510.487ZM84.7829 506.024C85.2048 506.024 85.586 505.921 85.9264 505.713C86.2743 505.499 86.5481 505.217 86.748 504.87C86.9552 504.514 87.0588 504.122 87.0588 503.693C87.0588 503.264 86.9552 502.875 86.748 502.527C86.5481 502.172 86.2743 501.891 85.9264 501.683C85.586 501.469 85.2048 501.361 84.7829 501.361C84.361 501.361 83.9761 501.469 83.6283 501.683C83.2878 501.891 83.014 502.172 82.8067 502.527C82.6069 502.875 82.507 503.264 82.507 503.693C82.507 504.122 82.6069 504.514 82.8067 504.87C83.014 505.217 83.2878 505.499 83.6283 505.713C83.9761 505.921 84.361 506.024 84.7829 506.024ZM90.2049 507.023V500.362H91.3151V501.439C91.5594 501.047 91.874 500.747 92.2588 500.54C92.6511 500.333 93.073 500.229 93.5245 500.229C93.9982 500.229 94.4349 500.347 94.8345 500.584C95.2416 500.814 95.571 501.15 95.8226 501.594C96.0743 502.031 96.2001 502.564 96.2001 503.193V507.023H95.0011V503.36C95.0011 502.834 94.8419 502.372 94.5237 501.972C94.2128 501.565 93.7724 501.361 93.2025 501.361C92.7362 501.361 92.318 501.532 91.948 501.872C91.5853 502.205 91.404 502.69 91.404 503.326V507.023H90.2049ZM101.24 507.157C100.597 507.157 100.008 507.001 99.4752 506.69C98.9423 506.38 98.5167 505.961 98.1985 505.436C97.8876 504.91 97.7322 504.329 97.7322 503.693C97.7322 503.049 97.8876 502.468 98.1985 501.95C98.5167 501.424 98.9423 501.006 99.4752 500.695C100.008 500.384 100.597 500.229 101.24 500.229C101.892 500.229 102.48 500.384 103.006 500.695C103.539 501.006 103.961 501.424 104.271 501.95C104.59 502.468 104.749 503.049 104.749 503.693C104.749 504.329 104.59 504.91 104.271 505.436C103.961 505.961 103.539 506.38 103.006 506.69C102.48 507.001 101.892 507.157 101.24 507.157ZM101.24 506.024C101.67 506.024 102.058 505.921 102.406 505.713C102.754 505.499 103.032 505.217 103.239 504.87C103.446 504.514 103.55 504.122 103.55 503.693C103.55 503.264 103.446 502.875 103.239 502.527C103.032 502.172 102.754 501.891 102.406 501.683C102.058 501.469 101.67 501.361 101.24 501.361C100.811 501.361 100.423 501.469 100.075 501.683C99.7269 501.891 99.4493 502.172 99.2421 502.527C99.0349 502.875 98.9312 503.264 98.9312 503.693C98.9312 504.122 99.0349 504.514 99.2421 504.87C99.4493 505.217 99.7269 505.499 100.075 505.713C100.423 505.921 100.811 506.024 101.24 506.024ZM108.131 507.157C107.791 507.157 107.425 507.094 107.032 506.968C106.647 506.835 106.314 506.616 106.033 506.313L106.366 505.003C106.573 505.351 106.84 505.628 107.166 505.836C107.491 506.035 107.839 506.135 108.209 506.135C108.564 506.135 108.831 506.05 109.009 505.88C109.186 505.702 109.275 505.488 109.275 505.236C109.275 504.947 109.179 504.736 108.986 504.603C108.801 504.47 108.635 504.377 108.487 504.326L107.587 503.981C107.425 503.915 107.228 503.819 106.999 503.693C106.77 503.56 106.57 503.371 106.4 503.127C106.229 502.882 106.144 502.564 106.144 502.172C106.144 501.817 106.229 501.491 106.4 501.195C106.57 500.899 106.81 500.666 107.121 500.495C107.432 500.318 107.798 500.229 108.22 500.229C108.553 500.229 108.901 500.288 109.264 500.407C109.627 500.525 109.934 500.725 110.185 501.006L109.852 502.316C109.675 501.99 109.434 501.731 109.131 501.539C108.827 501.347 108.513 501.25 108.187 501.25C107.884 501.25 107.643 501.335 107.465 501.506C107.295 501.676 107.21 501.872 107.21 502.094C107.21 502.272 107.269 502.431 107.388 502.571C107.506 502.712 107.684 502.827 107.921 502.916L108.82 503.26C108.983 503.319 109.182 503.415 109.419 503.548C109.664 503.682 109.878 503.874 110.063 504.126C110.248 504.377 110.341 504.718 110.341 505.147C110.341 505.747 110.13 506.231 109.708 506.602C109.293 506.972 108.768 507.157 108.131 507.157ZM115.253 507.157C114.557 507.157 113.932 507.001 113.377 506.69C112.829 506.38 112.396 505.958 112.078 505.425C111.767 504.884 111.612 504.285 111.612 503.626C111.612 502.997 111.763 502.427 112.067 501.916C112.37 501.398 112.777 500.988 113.288 500.684C113.806 500.381 114.376 500.229 114.998 500.229C115.612 500.229 116.175 500.377 116.685 500.673C117.196 500.962 117.603 501.354 117.907 501.85C118.21 502.346 118.362 502.908 118.362 503.537V504.026H114.01C113.817 504.026 113.621 504.018 113.421 504.004C113.221 503.989 113.025 503.967 112.833 503.937C112.914 504.529 113.181 505.025 113.632 505.425C114.091 505.824 114.635 506.024 115.264 506.024C115.686 506.024 116.078 505.928 116.441 505.736C116.804 505.543 117.096 505.288 117.318 504.97L117.651 506.335C117.333 506.594 116.967 506.798 116.552 506.946C116.145 507.086 115.712 507.157 115.253 507.157ZM112.8 503.127C113.199 503.06 113.603 503.027 114.01 503.027H116.219C116.382 503.027 116.541 503.034 116.696 503.049C116.859 503.056 117.022 503.067 117.185 503.082C117.081 502.564 116.822 502.138 116.408 501.805C115.993 501.465 115.523 501.295 114.998 501.295C114.458 501.295 113.984 501.476 113.577 501.839C113.17 502.194 112.911 502.623 112.8 503.127ZM122.815 507.112C122.209 507.112 121.653 506.961 121.15 506.657C120.647 506.346 120.243 505.932 119.94 505.414C119.644 504.896 119.496 504.322 119.496 503.693C119.496 503.064 119.644 502.49 119.94 501.972C120.243 501.454 120.647 501.043 121.15 500.74C121.653 500.429 122.209 500.273 122.815 500.273C123.252 500.273 123.663 500.351 124.048 500.506C124.433 500.662 124.773 500.877 125.069 501.15V496.365H126.268V507.023H125.158V506.146C124.862 506.442 124.51 506.679 124.103 506.857C123.704 507.027 123.274 507.112 122.815 507.112ZM122.971 506.024C123.393 506.024 123.774 505.921 124.114 505.713C124.462 505.499 124.736 505.217 124.936 504.87C125.143 504.514 125.247 504.122 125.247 503.693C125.247 503.264 125.143 502.875 124.936 502.527C124.736 502.172 124.462 501.891 124.114 501.683C123.774 501.469 123.393 501.361 122.971 501.361C122.549 501.361 122.164 501.469 121.816 501.683C121.476 501.891 121.202 502.172 120.995 502.527C120.795 502.875 120.695 503.264 120.695 503.693C120.695 504.122 120.795 504.514 120.995 504.87C121.202 505.217 121.476 505.499 121.816 505.713C122.164 505.921 122.549 506.024 122.971 506.024Z" fill="black"/>
<rect x="184.651" y="462.029" width="113.509" height="57.9871" rx="7.99356" fill="#FFA8A8"/>
<path d="M210.32 486.357L203.325 478.863V486.023H202.126V475.698L209.121 483.192V476.031H210.32V486.357ZM215.826 486.157C215.182 486.157 214.594 486.001 214.061 485.69C213.528 485.38 213.103 484.961 212.784 484.436C212.473 483.91 212.318 483.329 212.318 482.693C212.318 482.049 212.473 481.468 212.784 480.95C213.103 480.424 213.528 480.006 214.061 479.695C214.594 479.384 215.182 479.229 215.826 479.229C216.478 479.229 217.066 479.384 217.592 479.695C218.124 480.006 218.546 480.424 218.857 480.95C219.175 481.468 219.335 482.049 219.335 482.693C219.335 483.329 219.175 483.91 218.857 484.436C218.546 484.961 218.124 485.38 217.592 485.69C217.066 486.001 216.478 486.157 215.826 486.157ZM215.826 485.024C216.256 485.024 216.644 484.921 216.992 484.713C217.34 484.499 217.617 484.217 217.825 483.87C218.032 483.514 218.136 483.122 218.136 482.693C218.136 482.264 218.032 481.875 217.825 481.527C217.617 481.172 217.34 480.891 216.992 480.683C216.644 480.469 216.256 480.361 215.826 480.361C215.397 480.361 215.008 480.469 214.661 480.683C214.313 480.891 214.035 481.172 213.828 481.527C213.621 481.875 213.517 482.264 213.517 482.693C213.517 483.122 213.621 483.514 213.828 483.87C214.035 484.217 214.313 484.499 214.661 484.713C215.008 484.921 215.397 485.024 215.826 485.024ZM219.997 487.689C220.33 487.274 220.597 486.793 220.797 486.245C221.004 485.698 221.108 485.069 221.108 484.358H222.307C222.307 484.987 222.218 485.579 222.04 486.134C221.87 486.697 221.633 487.215 221.33 487.689H219.997ZM227.786 486.023V476.031H229.051V486.023H227.786ZM237.401 486.357L234.037 479.362H235.403L236.746 482.249C236.872 482.523 236.99 482.789 237.101 483.048C237.22 483.307 237.334 483.633 237.445 484.025C237.564 483.64 237.682 483.315 237.801 483.048C237.926 482.782 238.045 482.515 238.156 482.249L239.499 479.051L240.832 482.249C240.943 482.523 241.057 482.789 241.176 483.048C241.294 483.307 241.409 483.633 241.52 484.025C241.631 483.633 241.746 483.307 241.864 483.048C241.982 482.782 242.105 482.515 242.23 482.249L243.596 479.362H244.873L241.509 486.357L240.154 483.381C240.036 483.115 239.917 482.852 239.799 482.593C239.688 482.326 239.573 482.008 239.455 481.638C239.344 482.008 239.229 482.326 239.111 482.593C238.992 482.852 238.87 483.115 238.744 483.381L237.401 486.357ZM248.595 486.112C247.989 486.112 247.433 485.961 246.93 485.657C246.427 485.346 246.023 484.932 245.72 484.414C245.424 483.896 245.276 483.322 245.276 482.693C245.276 482.064 245.424 481.49 245.72 480.972C246.023 480.454 246.427 480.043 246.93 479.74C247.433 479.429 247.989 479.273 248.595 479.273C249.054 479.273 249.484 479.358 249.883 479.529C250.29 479.699 250.642 479.936 250.938 480.239V479.362H252.048V486.023H250.938V485.146C250.642 485.442 250.29 485.679 249.883 485.857C249.484 486.027 249.054 486.112 248.595 486.112ZM248.751 485.024C249.173 485.024 249.554 484.921 249.894 484.713C250.242 484.499 250.516 484.217 250.716 483.87C250.923 483.514 251.027 483.122 251.027 482.693C251.027 482.264 250.923 481.875 250.716 481.527C250.516 481.172 250.242 480.891 249.894 480.683C249.554 480.469 249.173 480.361 248.751 480.361C248.329 480.361 247.944 480.469 247.596 480.683C247.256 480.891 246.982 481.172 246.775 481.527C246.575 481.875 246.475 482.264 246.475 482.693C246.475 483.122 246.575 483.514 246.775 483.87C246.982 484.217 247.256 484.499 247.596 484.713C247.944 484.921 248.329 485.024 248.751 485.024ZM254.173 486.023V479.362H255.283V480.439C255.527 480.047 255.842 479.747 256.227 479.54C256.619 479.333 257.041 479.229 257.492 479.229C257.966 479.229 258.403 479.347 258.802 479.584C259.21 479.814 259.539 480.15 259.791 480.594C260.042 481.031 260.168 481.564 260.168 482.193V486.023H258.969V482.36C258.969 481.834 258.81 481.372 258.492 480.972C258.181 480.565 257.74 480.361 257.17 480.361C256.704 480.361 256.286 480.532 255.916 480.872C255.553 481.205 255.372 481.69 255.372 482.326V486.023H254.173ZM262.725 486.023V480.361H261.215V479.362H262.758V477.142H263.891V479.362H265.545V480.361H263.924V486.023H262.725ZM271.046 486.023V480.361H269.537V479.362H271.08V477.142H272.212V479.362H273.866V480.361H272.245V486.023H271.046ZM277.979 486.157C277.335 486.157 276.747 486.001 276.214 485.69C275.681 485.38 275.256 484.961 274.937 484.436C274.627 483.91 274.471 483.329 274.471 482.693C274.471 482.049 274.627 481.468 274.937 480.95C275.256 480.424 275.681 480.006 276.214 479.695C276.747 479.384 277.335 479.229 277.979 479.229C278.631 479.229 279.219 479.384 279.745 479.695C280.278 480.006 280.699 480.424 281.01 480.95C281.329 481.468 281.488 482.049 281.488 482.693C281.488 483.329 281.329 483.91 281.01 484.436C280.699 484.961 280.278 485.38 279.745 485.69C279.219 486.001 278.631 486.157 277.979 486.157ZM277.979 485.024C278.409 485.024 278.797 484.921 279.145 484.713C279.493 484.499 279.771 484.217 279.978 483.87C280.185 483.514 280.289 483.122 280.289 482.693C280.289 482.264 280.185 481.875 279.978 481.527C279.771 481.172 279.493 480.891 279.145 480.683C278.797 480.469 278.409 480.361 277.979 480.361C277.55 480.361 277.162 480.469 276.814 480.683C276.466 480.891 276.188 481.172 275.981 481.527C275.774 481.875 275.67 482.264 275.67 482.693C275.67 483.122 275.774 483.514 275.981 483.87C276.188 484.217 276.466 484.499 276.814 484.713C277.162 484.921 277.55 485.024 277.979 485.024ZM226.156 507.023V496.365H227.355V507.023H226.156ZM232.657 507.157C231.961 507.157 231.336 507.001 230.781 506.69C230.233 506.38 229.8 505.958 229.482 505.425C229.171 504.884 229.016 504.285 229.016 503.626C229.016 502.997 229.167 502.427 229.471 501.916C229.774 501.398 230.181 500.988 230.692 500.684C231.21 500.381 231.78 500.229 232.402 500.229C233.016 500.229 233.579 500.377 234.089 500.673C234.6 500.962 235.007 501.354 235.31 501.85C235.614 502.346 235.766 502.908 235.766 503.537V504.026H231.414C231.221 504.026 231.025 504.018 230.825 504.004C230.625 503.989 230.429 503.967 230.237 503.937C230.318 504.529 230.585 505.025 231.036 505.425C231.495 505.824 232.039 506.024 232.668 506.024C233.09 506.024 233.482 505.928 233.845 505.736C234.208 505.543 234.5 505.288 234.722 504.97L235.055 506.335C234.737 506.594 234.37 506.798 233.956 506.946C233.549 507.086 233.116 507.157 232.657 507.157ZM230.203 503.127C230.603 503.06 231.007 503.027 231.414 503.027H233.623C233.786 503.027 233.945 503.034 234.1 503.049C234.263 503.056 234.426 503.067 234.589 503.082C234.485 502.564 234.226 502.138 233.812 501.805C233.397 501.465 232.927 501.295 232.402 501.295C231.861 501.295 231.388 501.476 230.981 501.839C230.574 502.194 230.315 502.623 230.203 503.127ZM240.219 507.112C239.612 507.112 239.057 506.961 238.554 506.657C238.051 506.346 237.647 505.932 237.344 505.414C237.048 504.896 236.9 504.322 236.9 503.693C236.9 503.064 237.048 502.49 237.344 501.972C237.647 501.454 238.051 501.043 238.554 500.74C239.057 500.429 239.612 500.273 240.219 500.273C240.678 500.273 241.108 500.358 241.507 500.529C241.914 500.699 242.266 500.936 242.562 501.239V500.362H243.672V507.023H242.562V506.146C242.266 506.442 241.914 506.679 241.507 506.857C241.108 507.027 240.678 507.112 240.219 507.112ZM240.375 506.024C240.797 506.024 241.178 505.921 241.518 505.713C241.866 505.499 242.14 505.217 242.34 504.87C242.547 504.514 242.651 504.122 242.651 503.693C242.651 503.264 242.547 502.875 242.34 502.527C242.14 502.172 241.866 501.891 241.518 501.683C241.178 501.469 240.797 501.361 240.375 501.361C239.953 501.361 239.568 501.469 239.22 501.683C238.88 501.891 238.606 502.172 238.399 502.527C238.199 502.875 238.099 503.264 238.099 503.693C238.099 504.122 238.199 504.514 238.399 504.87C238.606 505.217 238.88 505.499 239.22 505.713C239.568 505.921 239.953 506.024 240.375 506.024ZM245.797 507.023V500.362H246.907V501.583C247.144 501.191 247.458 500.88 247.851 500.651C248.243 500.414 248.709 500.296 249.25 500.296L249.549 501.495C249.409 501.45 249.246 501.428 249.061 501.428C248.439 501.428 247.94 501.628 247.562 502.027C247.185 502.42 246.996 502.982 246.996 503.715V507.023H245.797ZM250.793 507.023V500.362H251.903V501.439C252.147 501.047 252.462 500.747 252.847 500.54C253.239 500.333 253.661 500.229 254.112 500.229C254.586 500.229 255.023 500.347 255.422 500.584C255.829 500.814 256.159 501.15 256.41 501.594C256.662 502.031 256.788 502.564 256.788 503.193V507.023H255.589V503.36C255.589 502.834 255.43 502.372 255.112 501.972C254.801 501.565 254.36 501.361 253.79 501.361C253.324 501.361 252.906 501.532 252.536 501.872C252.173 502.205 251.992 502.69 251.992 503.326V507.023H250.793Z" fill="black"/>
</svg>
