<svg width="430" height="932" viewBox="0 0 430 932" fill="none" xmlns="http://www.w3.org/2000/svg">
<rect width="430" height="932" fill="white"/>
<path d="M84.4 445.8L75.15 422.5H79.9L83.7 432.1C83.8833 432.55 84.0583 433.025 84.225 433.525C84.4083 434.008 84.6083 434.6 84.825 435.3C85.0417 434.6 85.25 434.008 85.45 433.525C85.6667 433.025 85.8667 432.55 86.05 432.1L90.35 421.75L94.7 432.1C94.8833 432.55 95.0833 433.025 95.3 433.525C95.5167 434.008 95.7333 434.6 95.95 435.3C96.1667 434.6 96.3667 434.008 96.55 433.525C96.7333 433.025 96.9083 432.55 97.075 432.1L100.825 422.5H105.35L96.1 445.8L91.45 434.7C91.2667 434.25 91.075 433.775 90.875 433.275C90.675 432.775 90.4667 432.175 90.25 431.475C90.0333 432.175 89.825 432.775 89.625 433.275C89.425 433.758 89.2333 434.225 89.05 434.675L84.4 445.8ZM107.166 445V421H111.516V431.125C112.049 430.592 112.657 430.192 113.341 429.925C114.041 429.642 114.782 429.5 115.566 429.5C116.632 429.5 117.624 429.758 118.541 430.275C119.474 430.775 120.224 431.517 120.791 432.5C121.374 433.467 121.666 434.642 121.666 436.025V445H117.316V436.6C117.316 435.767 117.066 435.025 116.566 434.375C116.066 433.725 115.349 433.4 114.416 433.4C113.666 433.4 112.991 433.658 112.391 434.175C111.807 434.675 111.516 435.467 111.516 436.55V445H107.166ZM131.423 445.4C130.04 445.4 128.782 445.042 127.648 444.325C126.515 443.608 125.607 442.658 124.923 441.475C124.257 440.275 123.923 438.95 123.923 437.5C123.923 436.05 124.257 434.725 124.923 433.525C125.607 432.325 126.515 431.375 127.648 430.675C128.782 429.958 130.04 429.6 131.423 429.6C132.39 429.6 133.273 429.775 134.073 430.125C134.873 430.458 135.557 430.925 136.123 431.525V430H139.873V445H136.123V443.475C135.557 444.075 134.873 444.55 134.073 444.9C133.273 445.233 132.39 445.4 131.423 445.4ZM131.948 441.575C132.682 441.575 133.348 441.392 133.948 441.025C134.548 440.658 135.023 440.167 135.373 439.55C135.74 438.933 135.923 438.25 135.923 437.5C135.923 436.75 135.74 436.067 135.373 435.45C135.023 434.833 134.548 434.342 133.948 433.975C133.348 433.608 132.682 433.425 131.948 433.425C131.215 433.425 130.548 433.608 129.948 433.975C129.348 434.342 128.865 434.833 128.498 435.45C128.148 436.067 127.973 436.75 127.973 437.5C127.973 438.25 128.148 438.933 128.498 439.55C128.865 440.167 129.348 440.658 129.948 441.025C130.548 441.392 131.215 441.575 131.948 441.575ZM144.916 445V433.45H142.116V430H144.991V425H149.191V430H152.166V433.45H149.266V445H144.916ZM161.954 445V430H166.304V445H161.954ZM164.129 427.825C163.479 427.825 162.929 427.6 162.479 427.15C162.029 426.7 161.804 426.15 161.804 425.5C161.804 424.833 162.029 424.283 162.479 423.85C162.929 423.4 163.479 423.175 164.129 423.175C164.796 423.175 165.346 423.4 165.779 423.85C166.229 424.283 166.454 424.833 166.454 425.5C166.454 426.15 166.229 426.7 165.779 427.15C165.346 427.6 164.796 427.825 164.129 427.825ZM174.563 445.5C173.547 445.5 172.513 445.333 171.463 445C170.43 444.667 169.622 444.217 169.038 443.65L170.113 439.55C170.597 440.217 171.263 440.8 172.113 441.3C172.98 441.8 173.872 442.05 174.788 442.05C175.405 442.05 175.847 441.933 176.113 441.7C176.397 441.467 176.538 441.183 176.538 440.85C176.538 440.467 176.397 440.192 176.113 440.025C175.83 439.842 175.538 439.692 175.238 439.575L173.138 438.775C172.672 438.592 172.138 438.342 171.538 438.025C170.938 437.708 170.413 437.258 169.963 436.675C169.53 436.092 169.313 435.325 169.313 434.375C169.313 433.508 169.53 432.708 169.963 431.975C170.397 431.242 171.022 430.65 171.838 430.2C172.672 429.733 173.672 429.5 174.838 429.5C175.922 429.5 176.93 429.683 177.863 430.05C178.813 430.417 179.505 430.825 179.938 431.275L178.938 435.225C178.372 434.492 177.697 433.933 176.913 433.55C176.147 433.15 175.413 432.95 174.713 432.95C174.18 432.95 173.788 433.058 173.538 433.275C173.288 433.492 173.163 433.742 173.163 434.025C173.163 434.242 173.247 434.458 173.413 434.675C173.597 434.875 173.897 435.058 174.313 435.225L176.263 435.95C176.83 436.15 177.43 436.417 178.063 436.75C178.713 437.083 179.263 437.55 179.713 438.15C180.163 438.733 180.388 439.542 180.388 440.575C180.388 442.025 179.847 443.208 178.763 444.125C177.697 445.042 176.297 445.5 174.563 445.5ZM190.005 452.5L195.005 442.45L188.88 430H193.68L196.33 435.5C196.564 436 196.764 436.458 196.93 436.875C197.114 437.275 197.264 437.667 197.38 438.05C197.514 437.667 197.672 437.275 197.855 436.875C198.039 436.458 198.255 436 198.505 435.5L201.205 430H205.83L194.68 452.5H190.005ZM214.254 445.5C212.771 445.5 211.412 445.142 210.179 444.425C208.946 443.708 207.962 442.742 207.229 441.525C206.512 440.308 206.154 438.967 206.154 437.5C206.154 436.017 206.512 434.675 207.229 433.475C207.962 432.258 208.946 431.292 210.179 430.575C211.412 429.858 212.771 429.5 214.254 429.5C215.754 429.5 217.112 429.858 218.329 430.575C219.562 431.292 220.537 432.258 221.254 433.475C221.987 434.675 222.354 436.017 222.354 437.5C222.354 438.967 221.987 440.308 221.254 441.525C220.537 442.742 219.562 443.708 218.329 444.425C217.112 445.142 215.754 445.5 214.254 445.5ZM214.254 441.6C215.004 441.6 215.679 441.417 216.279 441.05C216.896 440.683 217.379 440.192 217.729 439.575C218.096 438.942 218.279 438.25 218.279 437.5C218.279 436.733 218.096 436.042 217.729 435.425C217.379 434.808 216.896 434.317 216.279 433.95C215.679 433.583 215.004 433.4 214.254 433.4C213.504 433.4 212.821 433.583 212.204 433.95C211.604 434.317 211.121 434.808 210.754 435.425C210.404 436.042 210.229 436.733 210.229 437.5C210.229 438.25 210.404 438.942 210.754 439.575C211.121 440.192 211.604 440.683 212.204 441.05C212.821 441.417 213.504 441.6 214.254 441.6ZM230.704 445.5C229.654 445.5 228.662 445.25 227.729 444.75C226.796 444.233 226.037 443.492 225.454 442.525C224.887 441.542 224.604 440.358 224.604 438.975V430H228.954V438.4C228.954 439.233 229.204 439.975 229.704 440.625C230.221 441.275 230.937 441.6 231.854 441.6C232.604 441.6 233.271 441.333 233.854 440.8C234.454 440.25 234.754 439.467 234.754 438.45V430H239.104V445H235.154V443.425C234.621 444.092 233.962 444.608 233.179 444.975C232.412 445.325 231.587 445.5 230.704 445.5ZM242.412 445V430H246.312V432.575C246.828 431.708 247.478 431.042 248.262 430.575C249.062 430.092 249.995 429.85 251.062 429.85L252.012 433.7C251.695 433.6 251.337 433.55 250.937 433.55C249.687 433.55 248.678 433.958 247.912 434.775C247.145 435.575 246.762 436.725 246.762 438.225V445H242.412ZM261.396 445V430H265.296V431.65C265.829 430.95 266.488 430.417 267.271 430.05C268.054 429.683 268.896 429.5 269.796 429.5C270.863 429.5 271.854 429.758 272.771 430.275C273.704 430.775 274.454 431.517 275.021 432.5C275.604 433.467 275.896 434.642 275.896 436.025V445H271.546V436.6C271.546 435.767 271.296 435.025 270.796 434.375C270.296 433.725 269.579 433.4 268.646 433.4C267.896 433.4 267.221 433.658 266.621 434.175C266.038 434.675 265.746 435.467 265.746 436.55V445H261.396ZM285.654 445.4C284.271 445.4 283.012 445.042 281.879 444.325C280.746 443.608 279.837 442.658 279.154 441.475C278.487 440.275 278.154 438.95 278.154 437.5C278.154 436.05 278.487 434.725 279.154 433.525C279.837 432.325 280.746 431.375 281.879 430.675C283.012 429.958 284.271 429.6 285.654 429.6C286.621 429.6 287.504 429.775 288.304 430.125C289.104 430.458 289.787 430.925 290.354 431.525V430H294.104V445H290.354V443.475C289.787 444.075 289.104 444.55 288.304 444.9C287.504 445.233 286.621 445.4 285.654 445.4ZM286.179 441.575C286.912 441.575 287.579 441.392 288.179 441.025C288.779 440.658 289.254 440.167 289.604 439.55C289.971 438.933 290.154 438.25 290.154 437.5C290.154 436.75 289.971 436.067 289.604 435.45C289.254 434.833 288.779 434.342 288.179 433.975C287.579 433.608 286.912 433.425 286.179 433.425C285.446 433.425 284.779 433.608 284.179 433.975C283.579 434.342 283.096 434.833 282.729 435.45C282.379 436.067 282.204 436.75 282.204 437.5C282.204 438.25 282.379 438.933 282.729 439.55C283.096 440.167 283.579 440.658 284.179 441.025C284.779 441.392 285.446 441.575 286.179 441.575ZM297.396 445V430H301.296V431.65C301.829 430.95 302.488 430.417 303.271 430.05C304.071 429.683 304.904 429.5 305.771 429.5C306.654 429.5 307.488 429.683 308.271 430.05C309.054 430.417 309.713 430.95 310.246 431.65C310.829 430.95 311.554 430.417 312.421 430.05C313.288 429.683 314.229 429.5 315.246 429.5C316.313 429.5 317.313 429.75 318.246 430.25C319.179 430.733 319.938 431.45 320.521 432.4C321.104 433.333 321.396 434.475 321.396 435.825V445H317.046V436.45C317.046 435.65 316.813 434.942 316.346 434.325C315.879 433.708 315.204 433.4 314.321 433.4C313.854 433.4 313.404 433.517 312.971 433.75C312.554 433.967 312.213 434.3 311.946 434.75C311.696 435.183 311.571 435.733 311.571 436.4V445H307.221V436.45C307.221 435.917 307.113 435.417 306.896 434.95C306.696 434.483 306.388 434.108 305.971 433.825C305.571 433.542 305.079 433.4 304.496 433.4C304.029 433.4 303.579 433.517 303.146 433.75C302.729 433.967 302.388 434.3 302.121 434.75C301.871 435.183 301.746 435.733 301.746 436.4V445H297.396ZM332.171 445.5C330.488 445.5 329.004 445.15 327.721 444.45C326.438 443.75 325.438 442.792 324.721 441.575C324.004 440.342 323.646 438.933 323.646 437.35C323.646 435.833 323.996 434.492 324.696 433.325C325.396 432.142 326.338 431.208 327.521 430.525C328.721 429.842 330.046 429.5 331.496 429.5C332.979 429.5 334.304 429.842 335.471 430.525C336.638 431.192 337.554 432.108 338.221 433.275C338.904 434.442 339.246 435.767 339.246 437.25V438.775H330.096C329.679 438.775 329.279 438.75 328.896 438.7C328.513 438.65 328.129 438.592 327.746 438.525C327.946 439.525 328.438 440.342 329.221 440.975C330.021 441.592 331.038 441.9 332.271 441.9C333.221 441.9 334.071 441.708 334.821 441.325C335.588 440.942 336.213 440.467 336.696 439.9L337.646 443.8C336.896 444.367 336.046 444.792 335.096 445.075C334.163 445.358 333.188 445.5 332.171 445.5ZM327.646 435.9C328.479 435.717 329.296 435.625 330.096 435.625H332.746C333.213 435.625 333.654 435.642 334.071 435.675C334.488 435.708 334.879 435.767 335.246 435.85C334.996 434.95 334.538 434.242 333.871 433.725C333.221 433.208 332.413 432.95 331.446 432.95C330.529 432.95 329.729 433.217 329.046 433.75C328.379 434.267 327.913 434.983 327.646 435.9ZM344.358 436.75C344.358 435.533 344.516 434.508 344.833 433.675C345.149 432.842 345.516 432.117 345.933 431.5C346.349 430.867 346.716 430.275 347.033 429.725C347.349 429.175 347.508 428.592 347.508 427.975C347.508 427.292 347.283 426.783 346.833 426.45C346.399 426.117 345.824 425.95 345.108 425.95C344.324 425.95 343.641 426.142 343.058 426.525C342.491 426.908 342.024 427.317 341.658 427.75V423.4C342.241 422.967 342.866 422.633 343.533 422.4C344.199 422.167 344.941 422.05 345.758 422.05C346.941 422.05 347.966 422.283 348.833 422.75C349.699 423.217 350.366 423.858 350.833 424.675C351.316 425.492 351.558 426.433 351.558 427.5C351.558 428.5 351.383 429.392 351.033 430.175C350.683 430.942 350.266 431.658 349.783 432.325C349.299 432.992 348.849 433.675 348.433 434.375C348.033 435.075 347.774 435.867 347.658 436.75H344.358ZM346.008 445.5C345.274 445.5 344.649 445.25 344.133 444.75C343.633 444.233 343.383 443.608 343.383 442.875C343.383 442.142 343.633 441.525 344.133 441.025C344.649 440.508 345.274 440.25 346.008 440.25C346.741 440.25 347.358 440.508 347.858 441.025C348.374 441.525 348.633 442.142 348.633 442.875C348.633 443.608 348.374 444.233 347.858 444.75C347.358 445.25 346.741 445.5 346.008 445.5Z" fill="black"/>
<line x1="97" y1="523" x2="333" y2="523" stroke="black" stroke-width="2"/>
<line x1="117.5" y1="483" x2="117.5" y2="516" stroke="#5D5D5D"/>
<path d="M61.9556 138.356C61.1111 138.356 60.3333 138.207 59.6222 137.911C58.9259 137.615 58.3185 137.207 57.8 136.689V138H54.4667V116.667H58.3333V125.511C58.8222 125.126 59.3704 124.83 59.9778 124.622C60.5852 124.415 61.2444 124.311 61.9556 124.311C63.2 124.311 64.3259 124.63 65.3333 125.267C66.3407 125.889 67.1407 126.733 67.7333 127.8C68.3407 128.867 68.6444 130.044 68.6444 131.333C68.6444 132.622 68.3407 133.8 67.7333 134.867C67.1407 135.919 66.3407 136.763 65.3333 137.4C64.3259 138.037 63.2 138.356 61.9556 138.356ZM61.5111 134.956C62.163 134.956 62.7556 134.793 63.2889 134.467C63.8222 134.141 64.2444 133.704 64.5556 133.156C64.8815 132.607 65.0444 132 65.0444 131.333C65.0444 130.667 64.8815 130.059 64.5556 129.511C64.2444 128.963 63.8222 128.526 63.2889 128.2C62.7556 127.874 62.163 127.711 61.5111 127.711C60.8593 127.711 60.2667 127.874 59.7333 128.2C59.2 128.526 58.7704 128.963 58.4444 129.511C58.1333 130.059 57.9778 130.667 57.9778 131.333C57.9778 132 58.1333 132.607 58.4444 133.156C58.7704 133.704 59.2 134.141 59.7333 134.467C60.2667 134.793 60.8593 134.956 61.5111 134.956ZM82.9353 138.444C81.439 138.444 80.1205 138.133 78.9797 137.511C77.839 136.889 76.9501 136.037 76.3131 134.956C75.676 133.859 75.3575 132.607 75.3575 131.2C75.3575 129.852 75.6686 128.659 76.2908 127.622C76.9131 126.57 77.7501 125.741 78.8019 125.133C79.8686 124.526 81.0464 124.222 82.3353 124.222C83.6538 124.222 84.8316 124.526 85.8686 125.133C86.9056 125.726 87.7205 126.541 88.3131 127.578C88.9205 128.615 89.2242 129.793 89.2242 131.111V132.467H81.0908C80.7205 132.467 80.3649 132.444 80.0242 132.4C79.6834 132.356 79.3427 132.304 79.0019 132.244C79.1797 133.133 79.6168 133.859 80.3131 134.422C81.0242 134.97 81.9279 135.244 83.0242 135.244C83.8686 135.244 84.6242 135.074 85.2908 134.733C85.9723 134.393 86.5279 133.97 86.9575 133.467L87.8019 136.933C87.1353 137.437 86.3797 137.815 85.5353 138.067C84.7056 138.319 83.839 138.444 82.9353 138.444ZM78.9131 129.911C79.6538 129.748 80.3797 129.667 81.0908 129.667H83.4464C83.8612 129.667 84.2538 129.681 84.6242 129.711C84.9945 129.741 85.3427 129.793 85.6686 129.867C85.4464 129.067 85.039 128.437 84.4464 127.978C83.8686 127.519 83.1501 127.289 82.2908 127.289C81.476 127.289 80.7649 127.526 80.1575 128C79.5649 128.459 79.1501 129.096 78.9131 129.911ZM102.488 138.356C101.258 138.356 100.14 138.037 99.1324 137.4C98.125 136.763 97.3175 135.919 96.7101 134.867C96.1175 133.8 95.8212 132.622 95.8212 131.333C95.8212 130.044 96.1175 128.867 96.7101 127.8C97.3175 126.733 98.125 125.889 99.1324 125.267C100.14 124.63 101.258 124.311 102.488 124.311C103.347 124.311 104.132 124.467 104.843 124.778C105.555 125.074 106.162 125.489 106.666 126.022V124.667H109.999V138H106.666V136.644C106.162 137.178 105.555 137.6 104.843 137.911C104.132 138.207 103.347 138.356 102.488 138.356ZM102.955 134.956C103.606 134.956 104.199 134.793 104.732 134.467C105.266 134.141 105.688 133.704 105.999 133.156C106.325 132.607 106.488 132 106.488 131.333C106.488 130.667 106.325 130.059 105.999 129.511C105.688 128.963 105.266 128.526 104.732 128.2C104.199 127.874 103.606 127.711 102.955 127.711C102.303 127.711 101.71 127.874 101.177 128.2C100.643 128.526 100.214 128.963 99.8879 129.511C99.5768 130.059 99.4212 130.667 99.4212 131.333C99.4212 132 99.5768 132.607 99.8879 133.156C100.214 133.704 100.643 134.141 101.177 134.467C101.71 134.793 102.303 134.956 102.955 134.956ZM124.579 138.444C123.26 138.444 122.053 138.126 120.957 137.489C119.86 136.852 118.986 135.993 118.334 134.911C117.697 133.83 117.379 132.637 117.379 131.333C117.379 130.015 117.697 128.822 118.334 127.756C118.986 126.674 119.86 125.815 120.957 125.178C122.053 124.541 123.26 124.222 124.579 124.222C125.497 124.222 126.364 124.378 127.179 124.689C128.008 124.985 128.742 125.43 129.379 126.022L128.379 129.956C128.008 129.348 127.512 128.822 126.89 128.378C126.282 127.919 125.564 127.689 124.734 127.689C124.038 127.689 123.416 127.852 122.868 128.178C122.319 128.504 121.89 128.941 121.579 129.489C121.268 130.037 121.112 130.652 121.112 131.333C121.112 132 121.268 132.615 121.579 133.178C121.89 133.726 122.319 134.163 122.868 134.489C123.416 134.815 124.038 134.978 124.734 134.978C125.564 134.978 126.282 134.756 126.89 134.311C127.512 133.852 128.008 133.319 128.379 132.711L129.379 136.644C128.742 137.237 128.008 137.689 127.179 138C126.364 138.296 125.497 138.444 124.579 138.444ZM143.042 138.444C141.724 138.444 140.517 138.126 139.42 137.489C138.324 136.852 137.45 135.993 136.798 134.911C136.161 133.83 135.842 132.637 135.842 131.333C135.842 130.015 136.161 128.822 136.798 127.756C137.45 126.674 138.324 125.815 139.42 125.178C140.517 124.541 141.724 124.222 143.042 124.222C144.376 124.222 145.583 124.541 146.665 125.178C147.761 125.815 148.628 126.674 149.265 127.756C149.917 128.822 150.242 130.015 150.242 131.333C150.242 132.637 149.917 133.83 149.265 134.911C148.628 135.993 147.761 136.852 146.665 137.489C145.583 138.126 144.376 138.444 143.042 138.444ZM143.042 134.978C143.709 134.978 144.309 134.815 144.842 134.489C145.391 134.163 145.82 133.726 146.131 133.178C146.457 132.615 146.62 132 146.62 131.333C146.62 130.652 146.457 130.037 146.131 129.489C145.82 128.941 145.391 128.504 144.842 128.178C144.309 127.852 143.709 127.689 143.042 127.689C142.376 127.689 141.768 127.852 141.22 128.178C140.687 128.504 140.257 128.941 139.931 129.489C139.62 130.037 139.465 130.652 139.465 131.333C139.465 132 139.62 132.615 139.931 133.178C140.257 133.726 140.687 134.163 141.22 134.489C141.768 134.815 142.376 134.978 143.042 134.978ZM157.629 138V124.667H161.096V126.133C161.57 125.511 162.155 125.037 162.851 124.711C163.548 124.385 164.296 124.222 165.096 124.222C166.044 124.222 166.925 124.452 167.74 124.911C168.57 125.356 169.237 126.015 169.74 126.889C170.259 127.748 170.518 128.793 170.518 130.022V138H166.651V130.533C166.651 129.793 166.429 129.133 165.985 128.556C165.54 127.978 164.903 127.689 164.074 127.689C163.407 127.689 162.807 127.919 162.274 128.378C161.755 128.822 161.496 129.526 161.496 130.489V138H157.629Z" fill="#FF6060"/>
<path d="M368 788L375 795M375 795L368 802M375 795H361" stroke="black" stroke-width="2" stroke-linecap="round" stroke-linejoin="round"/>
<path d="M319 801.417L310.25 792.042V801H308.75V788.083L317.5 797.458V788.5H319V801.417ZM326.056 801.167C325.185 801.167 324.403 800.972 323.708 800.583C323.023 800.194 322.481 799.667 322.083 799C321.694 798.324 321.5 797.574 321.5 796.75C321.5 795.963 321.69 795.25 322.069 794.611C322.449 793.963 322.958 793.449 323.597 793.069C324.245 792.69 324.958 792.5 325.736 792.5C326.505 792.5 327.208 792.685 327.847 793.056C328.486 793.417 328.995 793.907 329.375 794.528C329.755 795.148 329.944 795.852 329.944 796.639V797.25H324.5C324.259 797.25 324.014 797.241 323.764 797.222C323.514 797.204 323.269 797.176 323.028 797.139C323.13 797.88 323.463 798.5 324.028 799C324.602 799.5 325.282 799.75 326.069 799.75C326.597 799.75 327.088 799.63 327.542 799.389C327.995 799.148 328.361 798.829 328.639 798.431L329.056 800.139C328.657 800.463 328.199 800.718 327.681 800.903C327.171 801.079 326.63 801.167 326.056 801.167ZM322.986 796.125C323.486 796.042 323.991 796 324.5 796H327.264C327.468 796 327.667 796.009 327.861 796.028C328.065 796.037 328.269 796.051 328.472 796.069C328.343 795.421 328.019 794.889 327.5 794.472C326.981 794.046 326.394 793.833 325.736 793.833C325.06 793.833 324.468 794.06 323.958 794.514C323.449 794.958 323.125 795.495 322.986 796.125ZM330.4 801L333.33 796.583L330.719 792.667H332.469L333.275 793.944C333.451 794.213 333.622 794.495 333.789 794.792C333.965 795.079 334.117 795.375 334.247 795.681C334.386 795.375 334.539 795.079 334.705 794.792C334.881 794.505 335.057 794.222 335.233 793.944L336.025 792.667H337.747L335.136 796.583L338.066 801H336.289L335.15 799.181C334.983 798.912 334.816 798.644 334.65 798.375C334.483 798.097 334.335 797.81 334.205 797.514C334.076 797.81 333.928 798.097 333.761 798.375C333.594 798.644 333.428 798.912 333.261 799.181L332.122 801H330.4ZM340.165 801V793.917H338.276V792.667H340.207V789.889H341.623V792.667H343.693V793.917H341.665V801H340.165Z" fill="black"/>
<path d="M190.001 798.75C189.483 798.75 188.995 798.652 188.539 798.455C188.082 798.258 187.685 797.991 187.347 797.653C187.01 797.316 186.742 796.919 186.545 796.463C186.348 796.008 186.25 795.52 186.25 795.001C186.25 794.482 186.348 793.995 186.545 793.539C186.742 793.082 187.009 792.685 187.346 792.347C187.683 792.01 188.08 791.742 188.536 791.545C188.993 791.348 189.48 791.25 189.999 791.25C190.517 791.25 191.005 791.348 191.461 791.545C191.918 791.742 192.315 792.009 192.652 792.346C192.99 792.683 193.258 793.08 193.455 793.537C193.652 793.993 193.75 794.48 193.75 794.999C193.75 795.517 193.652 796.005 193.455 796.461C193.258 796.918 192.991 797.315 192.653 797.653C192.316 797.99 191.919 798.257 191.463 798.455C191.008 798.652 190.52 798.75 190.001 798.75Z" fill="black"/>
<path d="M207.001 798.75C206.483 798.75 205.995 798.652 205.539 798.455C205.082 798.258 204.685 797.991 204.347 797.653C204.01 797.316 203.742 796.919 203.545 796.463C203.348 796.008 203.25 795.52 203.25 795.001C203.25 794.482 203.348 793.995 203.545 793.539C203.742 793.082 204.009 792.685 204.346 792.347C204.683 792.01 205.08 791.742 205.536 791.545C205.993 791.348 206.48 791.25 206.999 791.25C207.517 791.25 208.005 791.348 208.461 791.545C208.918 791.742 209.315 792.009 209.652 792.346C209.99 792.683 210.258 793.08 210.455 793.537C210.652 793.993 210.75 794.48 210.75 794.999C210.75 795.517 210.652 796.005 210.455 796.461C210.258 796.918 209.991 797.315 209.653 797.653C209.316 797.99 208.919 798.257 208.463 798.455C208.008 798.652 207.52 798.75 207.001 798.75Z" fill="#B6B6B6"/>
<path d="M224.001 798.75C223.483 798.75 222.995 798.652 222.539 798.455C222.082 798.258 221.685 797.991 221.347 797.653C221.01 797.316 220.742 796.919 220.545 796.463C220.348 796.008 220.25 795.52 220.25 795.001C220.25 794.482 220.348 793.995 220.545 793.539C220.742 793.082 221.009 792.685 221.346 792.347C221.683 792.01 222.08 791.742 222.536 791.545C222.993 791.348 223.48 791.25 223.999 791.25C224.517 791.25 225.005 791.348 225.461 791.545C225.918 791.742 226.315 792.009 226.652 792.346C226.99 792.683 227.258 793.08 227.455 793.537C227.652 793.993 227.75 794.48 227.75 794.999C227.75 795.517 227.652 796.005 227.455 796.461C227.258 796.918 226.991 797.315 226.653 797.653C226.316 797.99 225.919 798.257 225.463 798.455C225.008 798.652 224.52 798.75 224.001 798.75Z" fill="#B6B6B6"/>
<path d="M241.001 798.75C240.483 798.75 239.995 798.652 239.539 798.455C239.082 798.258 238.685 797.991 238.347 797.653C238.01 797.316 237.742 796.919 237.545 796.463C237.348 796.008 237.25 795.52 237.25 795.001C237.25 794.482 237.348 793.995 237.545 793.539C237.742 793.082 238.009 792.685 238.346 792.347C238.683 792.01 239.08 791.742 239.536 791.545C239.993 791.348 240.48 791.25 240.999 791.25C241.517 791.25 242.005 791.348 242.461 791.545C242.918 791.742 243.315 792.009 243.652 792.346C243.99 792.683 244.258 793.08 244.455 793.537C244.652 793.993 244.75 794.48 244.75 794.999C244.75 795.517 244.652 796.005 244.455 796.461C244.258 796.918 243.991 797.315 243.653 797.653C243.316 797.99 242.919 798.257 242.463 798.455C242.008 798.652 241.52 798.75 241.001 798.75Z" fill="#B6B6B6"/>
<path d="M265.5 795C265.5 802.172 259.837 808.791 250.394 813.647C240.978 818.49 227.935 821.5 213.5 821.5C199.065 821.5 186.022 818.49 176.606 813.647C167.163 808.791 161.5 802.172 161.5 795C161.5 787.828 167.163 781.209 176.606 776.353C186.022 771.51 199.065 768.5 213.5 768.5C227.935 768.5 240.978 771.51 250.394 776.353C259.837 781.209 265.5 787.828 265.5 795Z" stroke="#2E941F"/>
<path d="M50.4444 231.167C49.7037 231.167 49.0324 231.019 48.4306 230.722C47.838 230.426 47.3657 230.065 47.0139 229.639L47.4722 227.722C47.7315 228.241 48.1204 228.708 48.6389 229.125C49.1574 229.542 49.7778 229.75 50.5 229.75C51.1574 229.75 51.6991 229.542 52.125 229.125C52.5602 228.708 52.7778 228.194 52.7778 227.583C52.7778 227.139 52.6713 226.773 52.4583 226.486C52.2454 226.199 52.0046 225.972 51.7361 225.806C51.4676 225.639 51.2546 225.519 51.0972 225.444L49.5694 224.667C49.3287 224.537 49.0278 224.356 48.6667 224.125C48.3148 223.894 48.0046 223.574 47.7361 223.167C47.4676 222.759 47.3333 222.231 47.3333 221.583C47.3333 220.954 47.4769 220.394 47.7639 219.903C48.0602 219.412 48.4676 219.028 48.9861 218.75C49.5139 218.472 50.1157 218.333 50.7917 218.333C51.4583 218.333 52.0463 218.454 52.5556 218.694C53.0648 218.926 53.463 219.167 53.75 219.417L53.2917 221.333C53.0602 220.944 52.7176 220.579 52.2639 220.236C51.8102 219.894 51.2963 219.722 50.7222 219.722C50.1667 219.722 49.7222 219.889 49.3889 220.222C49.0556 220.546 48.8889 220.949 48.8889 221.431C48.8889 221.801 48.9722 222.106 49.1389 222.347C49.3148 222.588 49.5093 222.778 49.7222 222.917C49.9444 223.056 50.125 223.162 50.2639 223.236L51.8194 224.014C52.0046 224.106 52.2361 224.236 52.5139 224.403C52.8009 224.569 53.0833 224.792 53.3611 225.069C53.6389 225.338 53.8704 225.671 54.0556 226.069C54.2407 226.458 54.3333 226.931 54.3333 227.486C54.3333 228.199 54.162 228.833 53.8194 229.389C53.4861 229.944 53.0278 230.38 52.4444 230.694C51.8611 231.009 51.1944 231.167 50.4444 231.167ZM60.4657 231.167C59.5953 231.167 58.8129 230.972 58.1185 230.583C57.4333 230.194 56.8916 229.667 56.4935 229C56.1046 228.324 55.9102 227.574 55.9102 226.75C55.9102 225.963 56.1 225.25 56.4796 224.611C56.8592 223.963 57.3685 223.449 58.0074 223.069C58.6555 222.69 59.3685 222.5 60.1463 222.5C60.9148 222.5 61.6185 222.685 62.2574 223.056C62.8963 223.417 63.4055 223.907 63.7852 224.528C64.1648 225.148 64.3546 225.852 64.3546 226.639V227.25H58.9102C58.6694 227.25 58.424 227.241 58.174 227.222C57.924 227.204 57.6787 227.176 57.4379 227.139C57.5398 227.88 57.8731 228.5 58.4379 229C59.012 229.5 59.6926 229.75 60.4796 229.75C61.0074 229.75 61.4981 229.63 61.9518 229.389C62.4055 229.148 62.7713 228.829 63.049 228.431L63.4657 230.139C63.0676 230.463 62.6092 230.718 62.0907 230.903C61.5815 231.079 61.0398 231.167 60.4657 231.167ZM57.3963 226.125C57.8963 226.042 58.4009 226 58.9102 226H61.674C61.8777 226 62.0768 226.009 62.2713 226.028C62.475 226.037 62.6787 226.051 62.8824 226.069C62.7527 225.421 62.4287 224.889 61.9102 224.472C61.3916 224.046 60.8037 223.833 60.1463 223.833C59.4703 223.833 58.8777 224.06 58.3685 224.514C57.8592 224.958 57.5352 225.495 57.3963 226.125ZM66.3568 235.167V222.667H67.7457V223.764C68.1253 223.384 68.5651 223.088 69.0651 222.875C69.5651 222.662 70.1021 222.556 70.6762 222.556C71.4447 222.556 72.1392 222.75 72.7595 223.139C73.3892 223.519 73.8892 224.032 74.2595 224.681C74.6392 225.329 74.829 226.046 74.829 226.833C74.829 227.62 74.6392 228.338 74.2595 228.986C73.8892 229.634 73.3892 230.153 72.7595 230.542C72.1392 230.921 71.4447 231.111 70.6762 231.111C70.1299 231.111 69.616 231.014 69.1345 230.819C68.6531 230.625 68.2271 230.356 67.8568 230.014V235.167H66.3568ZM70.4818 229.75C71.0095 229.75 71.4864 229.62 71.9123 229.361C72.3475 229.093 72.6901 228.741 72.9401 228.306C73.1994 227.861 73.329 227.37 73.329 226.833C73.329 226.296 73.1994 225.81 72.9401 225.375C72.6901 224.931 72.3475 224.579 71.9123 224.319C71.4864 224.051 71.0095 223.917 70.4818 223.917C69.954 223.917 69.4725 224.051 69.0373 224.319C68.6114 224.579 68.2688 224.931 68.0095 225.375C67.7595 225.81 67.6345 226.296 67.6345 226.833C67.6345 227.37 67.7595 227.861 68.0095 228.306C68.2688 228.741 68.6114 229.093 69.0373 229.361C69.4725 229.62 69.954 229.75 70.4818 229.75ZM80.4731 231.111C79.7138 231.111 79.0194 230.921 78.3898 230.542C77.7601 230.153 77.2555 229.634 76.8759 228.986C76.5055 228.338 76.3203 227.62 76.3203 226.833C76.3203 226.046 76.5055 225.329 76.8759 224.681C77.2555 224.032 77.7601 223.519 78.3898 223.139C79.0194 222.75 79.7138 222.556 80.4731 222.556C81.0472 222.556 81.5842 222.662 82.0842 222.875C82.5935 223.088 83.0333 223.384 83.4036 223.764V222.667H84.7925V231H83.4036V229.903C83.0333 230.273 82.5935 230.569 82.0842 230.792C81.5842 231.005 81.0472 231.111 80.4731 231.111ZM80.6675 229.75C81.1953 229.75 81.6722 229.62 82.0981 229.361C82.5333 229.093 82.8759 228.741 83.1259 228.306C83.3851 227.861 83.5148 227.37 83.5148 226.833C83.5148 226.296 83.3851 225.81 83.1259 225.375C82.8759 224.931 82.5333 224.579 82.0981 224.319C81.6722 224.051 81.1953 223.917 80.6675 223.917C80.1398 223.917 79.6583 224.051 79.2231 224.319C78.7972 224.579 78.4546 224.931 78.1953 225.375C77.9453 225.81 77.8203 226.296 77.8203 226.833C77.8203 227.37 77.9453 227.861 78.1953 228.306C78.4546 228.741 78.7972 229.093 79.2231 229.361C79.6583 229.62 80.1398 229.75 80.6675 229.75ZM87.4505 231V222.667H88.8394V224.194C89.1357 223.704 89.5292 223.315 90.02 223.028C90.5107 222.731 91.094 222.583 91.77 222.583L92.145 224.083C91.969 224.028 91.7653 224 91.5339 224C90.7561 224 90.1311 224.25 89.6589 224.75C89.1866 225.241 88.9505 225.944 88.9505 226.861V231H87.4505ZM96.9965 231.111C96.2373 231.111 95.5428 230.921 94.9132 230.542C94.2836 230.153 93.7789 229.634 93.3993 228.986C93.0289 228.338 92.8438 227.62 92.8438 226.833C92.8438 226.046 93.0289 225.329 93.3993 224.681C93.7789 224.032 94.2836 223.519 94.9132 223.139C95.5428 222.75 96.2373 222.556 96.9965 222.556C97.5706 222.556 98.1076 222.662 98.6076 222.875C99.1169 223.088 99.5567 223.384 99.9271 223.764V222.667H101.316V231H99.9271V229.903C99.5567 230.273 99.1169 230.569 98.6076 230.792C98.1076 231.005 97.5706 231.111 96.9965 231.111ZM97.191 229.75C97.7188 229.75 98.1956 229.62 98.6215 229.361C99.0567 229.093 99.3993 228.741 99.6493 228.306C99.9086 227.861 100.038 227.37 100.038 226.833C100.038 226.296 99.9086 225.81 99.6493 225.375C99.3993 224.931 99.0567 224.579 98.6215 224.319C98.1956 224.051 97.7188 223.917 97.191 223.917C96.6632 223.917 96.1817 224.051 95.7465 224.319C95.3206 224.579 94.978 224.931 94.7188 225.375C94.4688 225.81 94.3438 226.296 94.3438 226.833C94.3438 227.37 94.4688 227.861 94.7188 228.306C94.978 228.741 95.3206 229.093 95.7465 229.361C96.1817 229.62 96.6632 229.75 97.191 229.75ZM104.946 231V223.917H103.057V222.667H104.988V219.889H106.405V222.667H108.474V223.917H106.446V231H104.946ZM110.224 231V222.667H111.724V231H110.224ZM110.974 221.167C110.696 221.167 110.46 221.069 110.266 220.875C110.071 220.681 109.974 220.444 109.974 220.167C109.974 219.88 110.071 219.644 110.266 219.458C110.46 219.264 110.696 219.167 110.974 219.167C111.261 219.167 111.497 219.264 111.682 219.458C111.877 219.644 111.974 219.88 111.974 220.167C111.974 220.444 111.877 220.681 111.682 220.875C111.497 221.069 111.261 221.167 110.974 221.167ZM118.19 231.167C117.384 231.167 116.648 230.972 115.981 230.583C115.315 230.194 114.782 229.671 114.384 229.014C113.995 228.356 113.801 227.63 113.801 226.833C113.801 226.028 113.995 225.301 114.384 224.653C114.782 223.995 115.315 223.472 115.981 223.083C116.648 222.694 117.384 222.5 118.19 222.5C119.004 222.5 119.741 222.694 120.398 223.083C121.065 223.472 121.592 223.995 121.981 224.653C122.379 225.301 122.579 226.028 122.579 226.833C122.579 227.63 122.379 228.356 121.981 229.014C121.592 229.671 121.065 230.194 120.398 230.583C119.741 230.972 119.004 231.167 118.19 231.167ZM118.19 229.75C118.727 229.75 119.213 229.62 119.648 229.361C120.083 229.093 120.43 228.741 120.69 228.306C120.949 227.861 121.079 227.37 121.079 226.833C121.079 226.296 120.949 225.81 120.69 225.375C120.43 224.931 120.083 224.579 119.648 224.319C119.213 224.051 118.727 223.917 118.19 223.917C117.653 223.917 117.167 224.051 116.731 224.319C116.296 224.579 115.949 224.931 115.69 225.375C115.43 225.81 115.301 226.296 115.301 226.833C115.301 227.37 115.43 227.861 115.69 228.306C115.949 228.741 116.296 229.093 116.731 229.361C117.167 229.62 117.653 229.75 118.19 229.75ZM124.658 231V222.667H126.046V224.014C126.352 223.523 126.746 223.148 127.227 222.889C127.718 222.63 128.246 222.5 128.81 222.5C129.403 222.5 129.949 222.648 130.449 222.944C130.958 223.231 131.371 223.653 131.685 224.208C132 224.755 132.158 225.421 132.158 226.208V231H130.658V226.417C130.658 225.759 130.458 225.181 130.06 224.681C129.671 224.171 129.121 223.917 128.408 223.917C127.824 223.917 127.301 224.13 126.838 224.556C126.384 224.972 126.158 225.579 126.158 226.375V231H124.658ZM142.623 231.167C141.818 231.167 141.082 230.972 140.415 230.583C139.748 230.194 139.216 229.671 138.818 229.014C138.429 228.356 138.234 227.63 138.234 226.833C138.234 226.028 138.429 225.301 138.818 224.653C139.216 223.995 139.748 223.472 140.415 223.083C141.082 222.694 141.818 222.5 142.623 222.5C143.438 222.5 144.174 222.694 144.832 223.083C145.498 223.472 146.026 223.995 146.415 224.653C146.813 225.301 147.012 226.028 147.012 226.833C147.012 227.63 146.813 228.356 146.415 229.014C146.026 229.671 145.498 230.194 144.832 230.583C144.174 230.972 143.438 231.167 142.623 231.167ZM142.623 229.75C143.16 229.75 143.646 229.62 144.082 229.361C144.517 229.093 144.864 228.741 145.123 228.306C145.383 227.861 145.512 227.37 145.512 226.833C145.512 226.296 145.383 225.81 145.123 225.375C144.864 224.931 144.517 224.579 144.082 224.319C143.646 224.051 143.16 223.917 142.623 223.917C142.086 223.917 141.6 224.051 141.165 224.319C140.73 224.579 140.383 224.931 140.123 225.375C139.864 225.81 139.734 226.296 139.734 226.833C139.734 227.37 139.864 227.861 140.123 228.306C140.383 228.741 140.73 229.093 141.165 229.361C141.6 229.62 142.086 229.75 142.623 229.75ZM149.653 231V223.917H147.764V222.667H149.695V220.278C149.695 219.37 149.963 218.681 150.5 218.208C151.037 217.736 151.676 217.5 152.417 217.5C152.695 217.5 152.977 217.532 153.264 217.597C153.561 217.662 153.838 217.773 154.098 217.931L153.737 219.389C153.348 218.963 152.894 218.75 152.375 218.75C152.061 218.75 151.769 218.856 151.5 219.069C151.241 219.282 151.112 219.694 151.112 220.306V222.667H153.181V223.917H151.153V231H149.653ZM159.091 231V222.667H160.591V231H159.091ZM159.841 221.167C159.563 221.167 159.327 221.069 159.133 220.875C158.938 220.681 158.841 220.444 158.841 220.167C158.841 219.88 158.938 219.644 159.133 219.458C159.327 219.264 159.563 219.167 159.841 219.167C160.128 219.167 160.364 219.264 160.549 219.458C160.744 219.644 160.841 219.88 160.841 220.167C160.841 220.444 160.744 220.681 160.549 220.875C160.364 221.069 160.128 221.167 159.841 221.167ZM163.251 231V222.667H164.64V224.014C164.946 223.523 165.339 223.148 165.821 222.889C166.311 222.63 166.839 222.5 167.404 222.5C167.997 222.5 168.543 222.648 169.043 222.944C169.552 223.231 169.964 223.653 170.279 224.208C170.594 224.755 170.751 225.421 170.751 226.208V231H169.251V226.417C169.251 225.759 169.052 225.181 168.654 224.681C168.265 224.171 167.714 223.917 167.001 223.917C166.418 223.917 165.895 224.13 165.432 224.556C164.978 224.972 164.751 225.579 164.751 226.375V231H163.251ZM173.251 235.167V222.667H174.64V223.764C175.02 223.384 175.46 223.088 175.96 222.875C176.46 222.662 176.997 222.556 177.571 222.556C178.339 222.556 179.034 222.75 179.654 223.139C180.284 223.519 180.784 224.032 181.154 224.681C181.534 225.329 181.724 226.046 181.724 226.833C181.724 227.62 181.534 228.338 181.154 228.986C180.784 229.634 180.284 230.153 179.654 230.542C179.034 230.921 178.339 231.111 177.571 231.111C177.024 231.111 176.511 231.014 176.029 230.819C175.548 230.625 175.122 230.356 174.751 230.014V235.167H173.251ZM177.376 229.75C177.904 229.75 178.381 229.62 178.807 229.361C179.242 229.093 179.585 228.741 179.835 228.306C180.094 227.861 180.224 227.37 180.224 226.833C180.224 226.296 180.094 225.81 179.835 225.375C179.585 224.931 179.242 224.579 178.807 224.319C178.381 224.051 177.904 223.917 177.376 223.917C176.849 223.917 176.367 224.051 175.932 224.319C175.506 224.579 175.163 224.931 174.904 225.375C174.654 225.81 174.529 226.296 174.529 226.833C174.529 227.37 174.654 227.861 174.904 228.306C175.163 228.741 175.506 229.093 175.932 229.361C176.367 229.62 176.849 229.75 177.376 229.75ZM186.979 231.167C186.395 231.167 185.849 231.023 185.34 230.736C184.831 230.44 184.419 230.014 184.104 229.458C183.789 228.903 183.632 228.236 183.632 227.458V222.667H185.132V227.25C185.132 227.907 185.326 228.491 185.715 229C186.113 229.5 186.669 229.75 187.382 229.75C187.965 229.75 188.483 229.542 188.937 229.125C189.4 228.699 189.632 228.088 189.632 227.292V222.667H191.132V231H189.743V229.653C189.437 230.144 189.039 230.519 188.548 230.778C188.067 231.037 187.544 231.167 186.979 231.167ZM194.77 231V223.917H192.882V222.667H194.812V219.889H196.229V222.667H198.298V223.917H196.27V231H194.77ZM205.181 231V223.917H203.292V222.667H205.222V221.056C205.222 220.296 205.389 219.653 205.722 219.125C206.065 218.597 206.509 218.194 207.056 217.917C207.611 217.639 208.208 217.5 208.847 217.5C209.792 217.5 210.593 217.745 211.25 218.236L210.861 219.806C210.63 219.509 210.338 219.273 209.986 219.097C209.644 218.921 209.259 218.833 208.833 218.833C208.213 218.833 207.69 219.028 207.264 219.417C206.847 219.806 206.639 220.375 206.639 221.125V222.667H212.097V231H210.597V223.917H206.681V231H205.181ZM218.727 231.167C217.857 231.167 217.075 230.972 216.38 230.583C215.695 230.194 215.153 229.667 214.755 229C214.366 228.324 214.172 227.574 214.172 226.75C214.172 225.963 214.362 225.25 214.741 224.611C215.121 223.963 215.63 223.449 216.269 223.069C216.917 222.69 217.63 222.5 218.408 222.5C219.177 222.5 219.88 222.685 220.519 223.056C221.158 223.417 221.667 223.907 222.047 224.528C222.427 225.148 222.616 225.852 222.616 226.639V227.25H217.172C216.931 227.25 216.686 227.241 216.436 227.222C216.186 227.204 215.94 227.176 215.7 227.139C215.802 227.88 216.135 228.5 216.7 229C217.274 229.5 217.954 229.75 218.741 229.75C219.269 229.75 219.76 229.63 220.214 229.389C220.667 229.148 221.033 228.829 221.311 228.431L221.727 230.139C221.329 230.463 220.871 230.718 220.352 230.903C219.843 231.079 219.302 231.167 218.727 231.167ZM215.658 226.125C216.158 226.042 216.663 226 217.172 226H219.936C220.139 226 220.339 226.009 220.533 226.028C220.737 226.037 220.94 226.051 221.144 226.069C221.014 225.421 220.69 224.889 220.172 224.472C219.653 224.046 219.065 223.833 218.408 223.833C217.732 223.833 217.139 224.06 216.63 224.514C216.121 224.958 215.797 225.495 215.658 226.125ZM224.618 231V217.667H226.118V231H224.618ZM232.348 231.111C231.589 231.111 230.894 230.921 230.265 230.542C229.635 230.153 229.13 229.634 228.751 228.986C228.38 228.338 228.195 227.62 228.195 226.833C228.195 226.046 228.38 225.329 228.751 224.681C229.13 224.032 229.635 223.519 230.265 223.139C230.894 222.75 231.589 222.556 232.348 222.556C232.894 222.556 233.408 222.653 233.89 222.847C234.371 223.042 234.797 223.31 235.168 223.653V217.667H236.668V231H235.279V229.903C234.908 230.273 234.468 230.569 233.959 230.792C233.459 231.005 232.922 231.111 232.348 231.111ZM232.543 229.75C233.07 229.75 233.547 229.62 233.973 229.361C234.408 229.093 234.751 228.741 235.001 228.306C235.26 227.861 235.39 227.37 235.39 226.833C235.39 226.296 235.26 225.81 235.001 225.375C234.751 224.931 234.408 224.579 233.973 224.319C233.547 224.051 233.07 223.917 232.543 223.917C232.015 223.917 231.533 224.051 231.098 224.319C230.672 224.579 230.33 224.931 230.07 225.375C229.82 225.81 229.695 226.296 229.695 226.833C229.695 227.37 229.82 227.861 230.07 228.306C230.33 228.741 230.672 229.093 231.098 229.361C231.533 229.62 232.015 229.75 232.543 229.75ZM241.478 231.167C241.052 231.167 240.594 231.088 240.103 230.931C239.622 230.764 239.205 230.491 238.853 230.111L239.27 228.472C239.529 228.907 239.863 229.255 240.27 229.514C240.677 229.764 241.113 229.889 241.576 229.889C242.02 229.889 242.353 229.782 242.576 229.569C242.798 229.347 242.909 229.079 242.909 228.764C242.909 228.403 242.788 228.139 242.548 227.972C242.316 227.806 242.108 227.69 241.923 227.625L240.798 227.194C240.594 227.111 240.349 226.991 240.062 226.833C239.775 226.667 239.525 226.431 239.312 226.125C239.099 225.819 238.992 225.421 238.992 224.931C238.992 224.486 239.099 224.079 239.312 223.708C239.525 223.338 239.826 223.046 240.214 222.833C240.603 222.611 241.062 222.5 241.589 222.5C242.006 222.5 242.441 222.574 242.895 222.722C243.349 222.87 243.733 223.12 244.048 223.472L243.631 225.111C243.409 224.704 243.108 224.38 242.728 224.139C242.349 223.898 241.955 223.778 241.548 223.778C241.168 223.778 240.867 223.884 240.645 224.097C240.432 224.31 240.326 224.556 240.326 224.833C240.326 225.056 240.4 225.255 240.548 225.431C240.696 225.606 240.918 225.75 241.214 225.861L242.339 226.292C242.543 226.366 242.793 226.486 243.089 226.653C243.395 226.819 243.663 227.06 243.895 227.375C244.126 227.69 244.242 228.116 244.242 228.653C244.242 229.403 243.978 230.009 243.451 230.472C242.932 230.935 242.275 231.167 241.478 231.167ZM245.165 233.083C245.582 232.565 245.915 231.963 246.165 231.278C246.425 230.593 246.554 229.806 246.554 228.917H248.054C248.054 229.704 247.943 230.444 247.721 231.139C247.508 231.843 247.212 232.491 246.832 233.083H245.165ZM50.9028 258.111C50.1435 258.111 49.4491 257.921 48.8194 257.542C48.1898 257.153 47.6852 256.634 47.3056 255.986C46.9352 255.338 46.75 254.62 46.75 253.833C46.75 253.046 46.9352 252.329 47.3056 251.681C47.6852 251.032 48.1898 250.519 48.8194 250.139C49.4491 249.75 50.1435 249.556 50.9028 249.556C51.4491 249.556 51.963 249.653 52.4444 249.847C52.9259 250.042 53.3519 250.31 53.7222 250.653V244.667H55.2222V258H53.8333V256.903C53.463 257.273 53.0231 257.569 52.5139 257.792C52.0139 258.005 51.4769 258.111 50.9028 258.111ZM51.0972 256.75C51.625 256.75 52.1019 256.62 52.5278 256.361C52.963 256.093 53.3056 255.741 53.5556 255.306C53.8148 254.861 53.9444 254.37 53.9444 253.833C53.9444 253.296 53.8148 252.81 53.5556 252.375C53.3056 251.931 52.963 251.579 52.5278 251.319C52.1019 251.051 51.625 250.917 51.0972 250.917C50.5694 250.917 50.088 251.051 49.6528 251.319C49.2269 251.579 48.8843 251.931 48.625 252.375C48.375 252.81 48.25 253.296 48.25 253.833C48.25 254.37 48.375 254.861 48.625 255.306C48.8843 255.741 49.2269 256.093 49.6528 256.361C50.088 256.62 50.5694 256.75 51.0972 256.75ZM61.8524 258.167C60.9821 258.167 60.1997 257.972 59.5052 257.583C58.82 257.194 58.2784 256.667 57.8802 256C57.4913 255.324 57.2969 254.574 57.2969 253.75C57.2969 252.963 57.4867 252.25 57.8663 251.611C58.2459 250.963 58.7552 250.449 59.3941 250.069C60.0422 249.69 60.7552 249.5 61.533 249.5C62.3015 249.5 63.0052 249.685 63.6441 250.056C64.283 250.417 64.7922 250.907 65.1719 251.528C65.5515 252.148 65.7413 252.852 65.7413 253.639V254.25H60.2969C60.0561 254.25 59.8108 254.241 59.5608 254.222C59.3108 254.204 59.0654 254.176 58.8247 254.139C58.9265 254.88 59.2598 255.5 59.8247 256C60.3987 256.5 61.0793 256.75 61.8663 256.75C62.3941 256.75 62.8848 256.63 63.3385 256.389C63.7922 256.148 64.158 255.829 64.4358 255.431L64.8524 257.139C64.4543 257.463 63.9959 257.718 63.4774 257.903C62.9682 258.079 62.4265 258.167 61.8524 258.167ZM58.783 253.125C59.283 253.042 59.7876 253 60.2969 253H63.0608C63.2645 253 63.4635 253.009 63.658 253.028C63.8617 253.037 64.0654 253.051 64.2691 253.069C64.1395 252.421 63.8154 251.889 63.2969 251.472C62.7784 251.046 62.1904 250.833 61.533 250.833C60.8571 250.833 60.2645 251.06 59.7552 251.514C59.2459 251.958 58.9219 252.495 58.783 253.125ZM71.5768 258.167C70.762 258.167 70.0213 257.972 69.3546 257.583C68.6879 257.194 68.1555 256.671 67.7574 256.014C67.3592 255.356 67.1602 254.63 67.1602 253.833C67.1602 253.037 67.3592 252.31 67.7574 251.653C68.1555 250.995 68.6879 250.472 69.3546 250.083C70.0213 249.694 70.762 249.5 71.5768 249.5C72.1787 249.5 72.7435 249.606 73.2713 249.819C73.799 250.032 74.262 250.315 74.6602 250.667L74.2018 252.556C73.9703 252.093 73.6185 251.704 73.1463 251.389C72.6833 251.074 72.1555 250.917 71.5629 250.917C71.0259 250.917 70.5352 251.051 70.0907 251.319C69.6555 251.579 69.3083 251.931 69.049 252.375C68.7898 252.81 68.6602 253.296 68.6602 253.833C68.6602 254.361 68.7898 254.847 69.049 255.292C69.3083 255.736 69.6555 256.093 70.0907 256.361C70.5352 256.62 71.0259 256.75 71.5629 256.75C72.1555 256.75 72.6833 256.597 73.1463 256.292C73.6185 255.986 73.9703 255.593 74.2018 255.111L74.6602 257C74.262 257.352 73.799 257.634 73.2713 257.847C72.7435 258.06 72.1787 258.167 71.5768 258.167ZM76.4935 258V249.667H77.8824V251.194C78.1787 250.704 78.5722 250.315 79.0629 250.028C79.5537 249.731 80.137 249.583 80.8129 249.583L81.1879 251.083C81.012 251.028 80.8083 251 80.5768 251C79.799 251 79.174 251.25 78.7018 251.75C78.2296 252.241 77.9935 252.944 77.9935 253.861V258H76.4935ZM86.4423 258.167C85.5719 258.167 84.7895 257.972 84.0951 257.583C83.4099 257.194 82.8682 256.667 82.4701 256C82.0812 255.324 81.8867 254.574 81.8867 253.75C81.8867 252.963 82.0765 252.25 82.4562 251.611C82.8358 250.963 83.3451 250.449 83.9839 250.069C84.6321 249.69 85.3451 249.5 86.1228 249.5C86.8913 249.5 87.5951 249.685 88.2339 250.056C88.8728 250.417 89.3821 250.907 89.7617 251.528C90.1413 252.148 90.3312 252.852 90.3312 253.639V254.25H84.8867C84.646 254.25 84.4006 254.241 84.1506 254.222C83.9006 254.204 83.6552 254.176 83.4145 254.139C83.5163 254.88 83.8497 255.5 84.4145 256C84.9886 256.5 85.6691 256.75 86.4562 256.75C86.9839 256.75 87.4747 256.63 87.9284 256.389C88.3821 256.148 88.7478 255.829 89.0256 255.431L89.4423 257.139C89.0441 257.463 88.5858 257.718 88.0673 257.903C87.558 258.079 87.0163 258.167 86.4423 258.167ZM83.3728 253.125C83.8728 253.042 84.3775 253 84.8867 253H87.6506C87.8543 253 88.0534 253.009 88.2478 253.028C88.4515 253.037 88.6552 253.051 88.8589 253.069C88.7293 252.421 88.4052 251.889 87.8867 251.472C87.3682 251.046 86.7802 250.833 86.1228 250.833C85.4469 250.833 84.8543 251.06 84.3451 251.514C83.8358 251.958 83.5117 252.495 83.3728 253.125ZM95.9028 258.111C95.1435 258.111 94.4491 257.921 93.8194 257.542C93.1898 257.153 92.6852 256.634 92.3056 255.986C91.9352 255.338 91.75 254.62 91.75 253.833C91.75 253.046 91.9352 252.329 92.3056 251.681C92.6852 251.032 93.1898 250.519 93.8194 250.139C94.4491 249.75 95.1435 249.556 95.9028 249.556C96.4769 249.556 97.0139 249.662 97.5139 249.875C98.0231 250.088 98.463 250.384 98.8333 250.764V249.667H100.222V258H98.8333V256.903C98.463 257.273 98.0231 257.569 97.5139 257.792C97.0139 258.005 96.4769 258.111 95.9028 258.111ZM96.0972 256.75C96.625 256.75 97.1019 256.62 97.5278 256.361C97.963 256.093 98.3056 255.741 98.5556 255.306C98.8148 254.861 98.9444 254.37 98.9444 253.833C98.9444 253.296 98.8148 252.81 98.5556 252.375C98.3056 251.931 97.963 251.579 97.5278 251.319C97.1019 251.051 96.625 250.917 96.0972 250.917C95.5694 250.917 95.088 251.051 94.6528 251.319C94.2269 251.579 93.8843 251.931 93.625 252.375C93.375 252.81 93.25 253.296 93.25 253.833C93.25 254.37 93.375 254.861 93.625 255.306C93.8843 255.741 94.2269 256.093 94.6528 256.361C95.088 256.62 95.5694 256.75 96.0972 256.75ZM105.033 258.167C104.607 258.167 104.149 258.088 103.658 257.931C103.177 257.764 102.76 257.491 102.408 257.111L102.825 255.472C103.084 255.907 103.417 256.255 103.825 256.514C104.232 256.764 104.667 256.889 105.13 256.889C105.575 256.889 105.908 256.782 106.13 256.569C106.352 256.347 106.464 256.079 106.464 255.764C106.464 255.403 106.343 255.139 106.102 254.972C105.871 254.806 105.663 254.69 105.477 254.625L104.352 254.194C104.149 254.111 103.903 253.991 103.616 253.833C103.329 253.667 103.079 253.431 102.866 253.125C102.653 252.819 102.547 252.421 102.547 251.931C102.547 251.486 102.653 251.079 102.866 250.708C103.079 250.338 103.38 250.046 103.769 249.833C104.158 249.611 104.616 249.5 105.144 249.5C105.561 249.5 105.996 249.574 106.45 249.722C106.903 249.87 107.288 250.12 107.602 250.472L107.186 252.111C106.964 251.704 106.663 251.38 106.283 251.139C105.903 250.898 105.51 250.778 105.102 250.778C104.723 250.778 104.422 250.884 104.2 251.097C103.987 251.31 103.88 251.556 103.88 251.833C103.88 252.056 103.954 252.255 104.102 252.431C104.251 252.606 104.473 252.75 104.769 252.861L105.894 253.292C106.098 253.366 106.348 253.486 106.644 253.653C106.95 253.819 107.218 254.06 107.45 254.375C107.681 254.69 107.797 255.116 107.797 255.653C107.797 256.403 107.533 257.009 107.005 257.472C106.487 257.935 105.829 258.167 105.033 258.167ZM109.97 258V249.667H111.47V258H109.97ZM110.72 248.167C110.442 248.167 110.206 248.069 110.012 247.875C109.817 247.681 109.72 247.444 109.72 247.167C109.72 246.88 109.817 246.644 110.012 246.458C110.206 246.264 110.442 246.167 110.72 246.167C111.007 246.167 111.243 246.264 111.428 246.458C111.623 246.644 111.72 246.88 111.72 247.167C111.72 247.444 111.623 247.681 111.428 247.875C111.243 248.069 111.007 248.167 110.72 248.167ZM114.13 258V249.667H115.519V251.014C115.825 250.523 116.218 250.148 116.7 249.889C117.19 249.63 117.718 249.5 118.283 249.5C118.876 249.5 119.422 249.648 119.922 249.944C120.431 250.231 120.843 250.653 121.158 251.208C121.473 251.755 121.63 252.421 121.63 253.208V258H120.13V253.417C120.13 252.759 119.931 252.181 119.533 251.681C119.144 251.171 118.593 250.917 117.88 250.917C117.297 250.917 116.774 251.13 116.311 251.556C115.857 251.972 115.63 252.579 115.63 253.375V258H114.13ZM127.505 262.333C126.866 262.333 126.283 262.241 125.755 262.056C125.237 261.87 124.774 261.616 124.366 261.292L124.783 259.597C125.061 259.995 125.431 260.319 125.894 260.569C126.357 260.819 126.889 260.944 127.491 260.944C128.427 260.944 129.181 260.662 129.755 260.097C130.339 259.532 130.63 258.806 130.63 257.917V256.903C130.26 257.273 129.82 257.569 129.311 257.792C128.811 258.005 128.274 258.111 127.7 258.111C126.94 258.111 126.246 257.921 125.616 257.542C124.987 257.153 124.482 256.634 124.102 255.986C123.732 255.338 123.547 254.62 123.547 253.833C123.547 253.046 123.732 252.329 124.102 251.681C124.482 251.032 124.987 250.519 125.616 250.139C126.246 249.75 126.94 249.556 127.7 249.556C128.274 249.556 128.811 249.662 129.311 249.875C129.82 250.088 130.26 250.384 130.63 250.764V249.667H132.019V258C132.019 258.907 131.806 259.685 131.38 260.333C130.964 260.981 130.413 261.477 129.727 261.819C129.042 262.162 128.302 262.333 127.505 262.333ZM127.894 256.75C128.422 256.75 128.899 256.62 129.325 256.361C129.76 256.093 130.102 255.741 130.352 255.306C130.612 254.861 130.741 254.37 130.741 253.833C130.741 253.296 130.612 252.81 130.352 252.375C130.102 251.931 129.76 251.579 129.325 251.319C128.899 251.051 128.422 250.917 127.894 250.917C127.366 250.917 126.885 251.051 126.45 251.319C126.024 251.579 125.681 251.931 125.422 252.375C125.172 252.81 125.047 253.296 125.047 253.833C125.047 254.37 125.172 254.861 125.422 255.306C125.681 255.741 126.024 256.093 126.45 256.361C126.885 256.62 127.366 256.75 127.894 256.75ZM142.671 258.167C141.856 258.167 141.115 257.972 140.448 257.583C139.782 257.194 139.249 256.671 138.851 256.014C138.453 255.356 138.254 254.63 138.254 253.833C138.254 253.037 138.453 252.31 138.851 251.653C139.249 250.995 139.782 250.472 140.448 250.083C141.115 249.694 141.856 249.5 142.671 249.5C143.272 249.5 143.837 249.606 144.365 249.819C144.893 250.032 145.356 250.315 145.754 250.667L145.296 252.556C145.064 252.093 144.712 251.704 144.24 251.389C143.777 251.074 143.249 250.917 142.657 250.917C142.12 250.917 141.629 251.051 141.184 251.319C140.749 251.579 140.402 251.931 140.143 252.375C139.884 252.81 139.754 253.296 139.754 253.833C139.754 254.361 139.884 254.847 140.143 255.292C140.402 255.736 140.749 256.093 141.184 256.361C141.629 256.62 142.12 256.75 142.657 256.75C143.249 256.75 143.777 256.597 144.24 256.292C144.712 255.986 145.064 255.593 145.296 255.111L145.754 257C145.356 257.352 144.893 257.634 144.365 257.847C143.837 258.06 143.272 258.167 142.671 258.167ZM151.393 258.167C150.587 258.167 149.851 257.972 149.184 257.583C148.518 257.194 147.985 256.671 147.587 256.014C147.198 255.356 147.004 254.63 147.004 253.833C147.004 253.028 147.198 252.301 147.587 251.653C147.985 250.995 148.518 250.472 149.184 250.083C149.851 249.694 150.587 249.5 151.393 249.5C152.208 249.5 152.944 249.694 153.601 250.083C154.268 250.472 154.796 250.995 155.184 251.653C155.583 252.301 155.782 253.028 155.782 253.833C155.782 254.63 155.583 255.356 155.184 256.014C154.796 256.671 154.268 257.194 153.601 257.583C152.944 257.972 152.208 258.167 151.393 258.167ZM151.393 256.75C151.93 256.75 152.416 256.62 152.851 256.361C153.286 256.093 153.634 255.741 153.893 255.306C154.152 254.861 154.282 254.37 154.282 253.833C154.282 253.296 154.152 252.81 153.893 252.375C153.634 251.931 153.286 251.579 152.851 251.319C152.416 251.051 151.93 250.917 151.393 250.917C150.856 250.917 150.37 251.051 149.934 251.319C149.499 251.579 149.152 251.931 148.893 252.375C148.634 252.81 148.504 253.296 148.504 253.833C148.504 254.37 148.634 254.861 148.893 255.306C149.152 255.741 149.499 256.093 149.934 256.361C150.37 256.62 150.856 256.75 151.393 256.75ZM161.236 262.333C160.597 262.333 160.013 262.241 159.486 262.056C158.967 261.87 158.504 261.616 158.097 261.292L158.513 259.597C158.791 259.995 159.162 260.319 159.625 260.569C160.088 260.819 160.62 260.944 161.222 260.944C162.157 260.944 162.912 260.662 163.486 260.097C164.069 259.532 164.361 258.806 164.361 257.917V256.903C163.99 257.273 163.55 257.569 163.041 257.792C162.541 258.005 162.004 258.111 161.43 258.111C160.671 258.111 159.976 257.921 159.347 257.542C158.717 257.153 158.213 256.634 157.833 255.986C157.463 255.338 157.277 254.62 157.277 253.833C157.277 253.046 157.463 252.329 157.833 251.681C158.213 251.032 158.717 250.519 159.347 250.139C159.976 249.75 160.671 249.556 161.43 249.556C162.004 249.556 162.541 249.662 163.041 249.875C163.55 250.088 163.99 250.384 164.361 250.764V249.667H165.75V258C165.75 258.907 165.537 259.685 165.111 260.333C164.694 260.981 164.143 261.477 163.458 261.819C162.773 262.162 162.032 262.333 161.236 262.333ZM161.625 256.75C162.152 256.75 162.629 256.62 163.055 256.361C163.49 256.093 163.833 255.741 164.083 255.306C164.342 254.861 164.472 254.37 164.472 253.833C164.472 253.296 164.342 252.81 164.083 252.375C163.833 251.931 163.49 251.579 163.055 251.319C162.629 251.051 162.152 250.917 161.625 250.917C161.097 250.917 160.615 251.051 160.18 251.319C159.754 251.579 159.412 251.931 159.152 252.375C158.902 252.81 158.777 253.296 158.777 253.833C158.777 254.37 158.902 254.861 159.152 255.306C159.412 255.741 159.754 256.093 160.18 256.361C160.615 256.62 161.097 256.75 161.625 256.75ZM168.408 258V249.667H169.796V251.014C170.102 250.523 170.496 250.148 170.977 249.889C171.468 249.63 171.996 249.5 172.56 249.5C173.153 249.5 173.699 249.648 174.199 249.944C174.708 250.231 175.121 250.653 175.435 251.208C175.75 251.755 175.908 252.421 175.908 253.208V258H174.408V253.417C174.408 252.759 174.208 252.181 173.81 251.681C173.421 251.171 172.871 250.917 172.158 250.917C171.574 250.917 171.051 251.13 170.588 251.556C170.134 251.972 169.908 252.579 169.908 253.375V258H168.408ZM178.408 258V249.667H179.908V258H178.408ZM179.158 248.167C178.88 248.167 178.644 248.069 178.449 247.875C178.255 247.681 178.158 247.444 178.158 247.167C178.158 246.88 178.255 246.644 178.449 246.458C178.644 246.264 178.88 246.167 179.158 246.167C179.445 246.167 179.681 246.264 179.866 246.458C180.06 246.644 180.158 246.88 180.158 247.167C180.158 247.444 180.06 247.681 179.866 247.875C179.681 248.069 179.445 248.167 179.158 248.167ZM183.54 258V250.917H181.651V249.667H183.582V246.889H184.998V249.667H187.068V250.917H185.04V258H183.54ZM188.818 258V249.667H190.318V258H188.818ZM189.568 248.167C189.29 248.167 189.054 248.069 188.859 247.875C188.665 247.681 188.568 247.444 188.568 247.167C188.568 246.88 188.665 246.644 188.859 246.458C189.054 246.264 189.29 246.167 189.568 246.167C189.855 246.167 190.091 246.264 190.276 246.458C190.47 246.644 190.568 246.88 190.568 247.167C190.568 247.444 190.47 247.681 190.276 247.875C190.091 248.069 189.855 248.167 189.568 248.167ZM196.02 258.417L191.811 249.667H193.52L195.214 253.278C195.371 253.602 195.52 253.921 195.658 254.236C195.797 254.551 195.932 254.935 196.061 255.389C196.2 254.935 196.339 254.551 196.478 254.236C196.626 253.912 196.774 253.593 196.922 253.278L198.631 249.667H200.228L196.02 258.417ZM205.29 258.167C204.42 258.167 203.637 257.972 202.943 257.583C202.258 257.194 201.716 256.667 201.318 256C200.929 255.324 200.734 254.574 200.734 253.75C200.734 252.963 200.924 252.25 201.304 251.611C201.683 250.963 202.193 250.449 202.832 250.069C203.48 249.69 204.193 249.5 204.97 249.5C205.739 249.5 206.443 249.685 207.082 250.056C207.72 250.417 208.23 250.907 208.609 251.528C208.989 252.148 209.179 252.852 209.179 253.639V254.25H203.734C203.494 254.25 203.248 254.241 202.998 254.222C202.748 254.204 202.503 254.176 202.262 254.139C202.364 254.88 202.697 255.5 203.262 256C203.836 256.5 204.517 256.75 205.304 256.75C205.832 256.75 206.322 256.63 206.776 256.389C207.23 256.148 207.595 255.829 207.873 255.431L208.29 257.139C207.892 257.463 207.433 257.718 206.915 257.903C206.406 258.079 205.864 258.167 205.29 258.167ZM202.22 253.125C202.72 253.042 203.225 253 203.734 253H206.498C206.702 253 206.901 253.009 207.095 253.028C207.299 253.037 207.503 253.051 207.707 253.069C207.577 252.421 207.253 251.889 206.734 251.472C206.216 251.046 205.628 250.833 204.97 250.833C204.295 250.833 203.702 251.06 203.193 251.514C202.683 251.958 202.359 252.495 202.22 253.125ZM215.341 258V244.667H216.841V258H215.341ZM223.307 258.167C222.501 258.167 221.765 257.972 221.099 257.583C220.432 257.194 219.899 256.671 219.501 256.014C219.112 255.356 218.918 254.63 218.918 253.833C218.918 253.028 219.112 252.301 219.501 251.653C219.899 250.995 220.432 250.472 221.099 250.083C221.765 249.694 222.501 249.5 223.307 249.5C224.122 249.5 224.858 249.694 225.515 250.083C226.182 250.472 226.71 250.995 227.099 251.653C227.497 252.301 227.696 253.028 227.696 253.833C227.696 254.63 227.497 255.356 227.099 256.014C226.71 256.671 226.182 257.194 225.515 257.583C224.858 257.972 224.122 258.167 223.307 258.167ZM223.307 256.75C223.844 256.75 224.33 256.62 224.765 256.361C225.2 256.093 225.548 255.741 225.807 255.306C226.066 254.861 226.196 254.37 226.196 253.833C226.196 253.296 226.066 252.81 225.807 252.375C225.548 251.931 225.2 251.579 224.765 251.319C224.33 251.051 223.844 250.917 223.307 250.917C222.77 250.917 222.284 251.051 221.849 251.319C221.413 251.579 221.066 251.931 220.807 252.375C220.548 252.81 220.418 253.296 220.418 253.833C220.418 254.37 220.548 254.861 220.807 255.306C221.066 255.741 221.413 256.093 221.849 256.361C222.284 256.62 222.77 256.75 223.307 256.75ZM233.344 258.111C232.585 258.111 231.89 257.921 231.261 257.542C230.631 257.153 230.127 256.634 229.747 255.986C229.377 255.338 229.191 254.62 229.191 253.833C229.191 253.046 229.377 252.329 229.747 251.681C230.127 251.032 230.631 250.519 231.261 250.139C231.89 249.75 232.585 249.556 233.344 249.556C233.918 249.556 234.455 249.662 234.955 249.875C235.465 250.088 235.904 250.384 236.275 250.764V249.667H237.664V258H236.275V256.903C235.904 257.273 235.465 257.569 234.955 257.792C234.455 258.005 233.918 258.111 233.344 258.111ZM233.539 256.75C234.066 256.75 234.543 256.62 234.969 256.361C235.404 256.093 235.747 255.741 235.997 255.306C236.256 254.861 236.386 254.37 236.386 253.833C236.386 253.296 236.256 252.81 235.997 252.375C235.747 251.931 235.404 251.579 234.969 251.319C234.543 251.051 234.066 250.917 233.539 250.917C233.011 250.917 232.529 251.051 232.094 251.319C231.668 251.579 231.326 251.931 231.066 252.375C230.816 252.81 230.691 253.296 230.691 253.833C230.691 254.37 230.816 254.861 231.066 255.306C231.326 255.741 231.668 256.093 232.094 256.361C232.529 256.62 233.011 256.75 233.539 256.75ZM243.891 258.111C243.132 258.111 242.437 257.921 241.808 257.542C241.178 257.153 240.673 256.634 240.294 255.986C239.923 255.338 239.738 254.62 239.738 253.833C239.738 253.046 239.923 252.329 240.294 251.681C240.673 251.032 241.178 250.519 241.808 250.139C242.437 249.75 243.132 249.556 243.891 249.556C244.437 249.556 244.951 249.653 245.433 249.847C245.914 250.042 246.34 250.31 246.711 250.653V244.667H248.211V258H246.822V256.903C246.451 257.273 246.011 257.569 245.502 257.792C245.002 258.005 244.465 258.111 243.891 258.111ZM244.086 256.75C244.613 256.75 245.09 256.62 245.516 256.361C245.951 256.093 246.294 255.741 246.544 255.306C246.803 254.861 246.933 254.37 246.933 253.833C246.933 253.296 246.803 252.81 246.544 252.375C246.294 251.931 245.951 251.579 245.516 251.319C245.09 251.051 244.613 250.917 244.086 250.917C243.558 250.917 243.076 251.051 242.641 251.319C242.215 251.579 241.873 251.931 241.613 252.375C241.363 252.81 241.238 253.296 241.238 253.833C241.238 254.37 241.363 254.861 241.613 255.306C241.873 255.741 242.215 256.093 242.641 256.361C243.076 256.62 243.558 256.75 244.086 256.75Z" fill="#2E941F"/>
<path d="M47.75 690V677.5H50.8472C51.6713 677.5 52.3657 677.625 52.9306 677.875C53.5046 678.125 53.9676 678.454 54.3194 678.861C54.6713 679.259 54.9259 679.694 55.0833 680.167C55.25 680.639 55.3333 681.102 55.3333 681.556C55.3333 682 55.2546 682.458 55.0972 682.931C54.9398 683.403 54.6852 683.843 54.3333 684.25C53.9815 684.657 53.5185 684.986 52.9444 685.236C52.3704 685.486 51.6713 685.611 50.8472 685.611H49.3333V690H47.75ZM49.3333 684.194H50.7639C51.5139 684.194 52.1065 684.065 52.5417 683.806C52.9769 683.537 53.287 683.204 53.4722 682.806C53.6574 682.398 53.75 681.981 53.75 681.556C53.75 681.148 53.6574 680.741 53.4722 680.333C53.2963 679.926 52.9907 679.588 52.5556 679.319C52.1296 679.051 51.5324 678.917 50.7639 678.917H49.3333V684.194ZM57.3333 690V681.667H58.7222V683.194C59.0185 682.704 59.412 682.315 59.9028 682.028C60.3935 681.731 60.9769 681.583 61.6528 681.583L62.0278 683.083C61.8519 683.028 61.6481 683 61.4167 683C60.6389 683 60.0139 683.25 59.5417 683.75C59.0694 684.241 58.8333 684.944 58.8333 685.861V690H57.3333ZM67.1155 690.167C66.3099 690.167 65.5738 689.972 64.9071 689.583C64.2405 689.194 63.708 688.671 63.3099 688.014C62.921 687.356 62.7266 686.63 62.7266 685.833C62.7266 685.028 62.921 684.301 63.3099 683.653C63.708 682.995 64.2405 682.472 64.9071 682.083C65.5738 681.694 66.3099 681.5 67.1155 681.5C67.9303 681.5 68.6664 681.694 69.3238 682.083C69.9905 682.472 70.5182 682.995 70.9071 683.653C71.3053 684.301 71.5043 685.028 71.5043 685.833C71.5043 686.63 71.3053 687.356 70.9071 688.014C70.5182 688.671 69.9905 689.194 69.3238 689.583C68.6664 689.972 67.9303 690.167 67.1155 690.167ZM67.1155 688.75C67.6525 688.75 68.1386 688.62 68.5738 688.361C69.009 688.093 69.3562 687.741 69.6155 687.306C69.8747 686.861 70.0043 686.37 70.0043 685.833C70.0043 685.296 69.8747 684.81 69.6155 684.375C69.3562 683.931 69.009 683.579 68.5738 683.319C68.1386 683.051 67.6525 682.917 67.1155 682.917C66.5784 682.917 66.0923 683.051 65.6571 683.319C65.2219 683.579 64.8747 683.931 64.6155 684.375C64.3562 684.81 64.2266 685.296 64.2266 685.833C64.2266 686.37 64.3562 686.861 64.6155 687.306C64.8747 687.741 65.2219 688.093 65.6571 688.361C66.0923 688.62 66.5784 688.75 67.1155 688.75ZM76.9583 694.333C76.3194 694.333 75.7361 694.241 75.2083 694.056C74.6898 693.87 74.2269 693.616 73.8194 693.292L74.2361 691.597C74.5139 691.995 74.8843 692.319 75.3472 692.569C75.8102 692.819 76.3426 692.944 76.9444 692.944C77.8796 692.944 78.6343 692.662 79.2083 692.097C79.7917 691.532 80.0833 690.806 80.0833 689.917V688.903C79.713 689.273 79.2731 689.569 78.7639 689.792C78.2639 690.005 77.7269 690.111 77.1528 690.111C76.3935 690.111 75.6991 689.921 75.0694 689.542C74.4398 689.153 73.9352 688.634 73.5556 687.986C73.1852 687.338 73 686.62 73 685.833C73 685.046 73.1852 684.329 73.5556 683.681C73.9352 683.032 74.4398 682.519 75.0694 682.139C75.6991 681.75 76.3935 681.556 77.1528 681.556C77.7269 681.556 78.2639 681.662 78.7639 681.875C79.2731 682.088 79.713 682.384 80.0833 682.764V681.667H81.4722V690C81.4722 690.907 81.2593 691.685 80.8333 692.333C80.4167 692.981 79.8657 693.477 79.1806 693.819C78.4954 694.162 77.7546 694.333 76.9583 694.333ZM77.3472 688.75C77.875 688.75 78.3519 688.62 78.7778 688.361C79.213 688.093 79.5556 687.741 79.8056 687.306C80.0648 686.861 80.1944 686.37 80.1944 685.833C80.1944 685.296 80.0648 684.81 79.8056 684.375C79.5556 683.931 79.213 683.579 78.7778 683.319C78.3519 683.051 77.875 682.917 77.3472 682.917C76.8194 682.917 76.338 683.051 75.9028 683.319C75.4769 683.579 75.1343 683.931 74.875 684.375C74.625 684.81 74.5 685.296 74.5 685.833C74.5 686.37 74.625 686.861 74.875 687.306C75.1343 687.741 75.4769 688.093 75.9028 688.361C76.338 688.62 76.8194 688.75 77.3472 688.75ZM84.1302 690V681.667H85.5191V683.194C85.8154 682.704 86.2089 682.315 86.6997 682.028C87.1904 681.731 87.7737 681.583 88.4497 681.583L88.8247 683.083C88.6487 683.028 88.445 683 88.2135 683C87.4358 683 86.8108 683.25 86.3385 683.75C85.8663 684.241 85.6302 684.944 85.6302 685.861V690H84.1302ZM94.079 690.167C93.2086 690.167 92.4262 689.972 91.7318 689.583C91.0466 689.194 90.5049 688.667 90.1068 688C89.7179 687.324 89.5234 686.574 89.5234 685.75C89.5234 684.963 89.7133 684.25 90.0929 683.611C90.4725 682.963 90.9818 682.449 91.6207 682.069C92.2688 681.69 92.9818 681.5 93.7595 681.5C94.5281 681.5 95.2318 681.685 95.8707 682.056C96.5095 682.417 97.0188 682.907 97.3984 683.528C97.7781 684.148 97.9679 684.852 97.9679 685.639V686.25H92.5234C92.2827 686.25 92.0373 686.241 91.7873 686.222C91.5373 686.204 91.292 686.176 91.0512 686.139C91.1531 686.88 91.4864 687.5 92.0512 688C92.6253 688.5 93.3058 688.75 94.0929 688.75C94.6207 688.75 95.1114 688.63 95.5651 688.389C96.0188 688.148 96.3845 687.829 96.6623 687.431L97.079 689.139C96.6808 689.463 96.2225 689.718 95.704 689.903C95.1947 690.079 94.6531 690.167 94.079 690.167ZM91.0095 685.125C91.5095 685.042 92.0142 685 92.5234 685H95.2873C95.491 685 95.6901 685.009 95.8845 685.028C96.0883 685.037 96.292 685.051 96.4957 685.069C96.366 684.421 96.042 683.889 95.5234 683.472C95.0049 683.046 94.417 682.833 93.7595 682.833C93.0836 682.833 92.491 683.06 91.9818 683.514C91.4725 683.958 91.1484 684.495 91.0095 685.125ZM102.123 690.167C101.697 690.167 101.239 690.088 100.748 689.931C100.266 689.764 99.8497 689.491 99.4978 689.111L99.9145 687.472C100.174 687.907 100.507 688.255 100.914 688.514C101.322 688.764 101.757 688.889 102.22 688.889C102.664 688.889 102.998 688.782 103.22 688.569C103.442 688.347 103.553 688.079 103.553 687.764C103.553 687.403 103.433 687.139 103.192 686.972C102.961 686.806 102.752 686.69 102.567 686.625L101.442 686.194C101.239 686.111 100.993 685.991 100.706 685.833C100.419 685.667 100.169 685.431 99.9562 685.125C99.7432 684.819 99.6367 684.421 99.6367 683.931C99.6367 683.486 99.7432 683.079 99.9562 682.708C100.169 682.338 100.47 682.046 100.859 681.833C101.248 681.611 101.706 681.5 102.234 681.5C102.651 681.5 103.086 681.574 103.539 681.722C103.993 681.87 104.377 682.12 104.692 682.472L104.276 684.111C104.053 683.704 103.752 683.38 103.373 683.139C102.993 682.898 102.6 682.778 102.192 682.778C101.813 682.778 101.512 682.884 101.289 683.097C101.077 683.31 100.97 683.556 100.97 683.833C100.97 684.056 101.044 684.255 101.192 684.431C101.34 684.606 101.563 684.75 101.859 684.861L102.984 685.292C103.188 685.366 103.438 685.486 103.734 685.653C104.039 685.819 104.308 686.06 104.539 686.375C104.771 686.69 104.887 687.116 104.887 687.653C104.887 688.403 104.623 689.009 104.095 689.472C103.577 689.935 102.919 690.167 102.123 690.167ZM109.213 690.167C108.787 690.167 108.328 690.088 107.838 689.931C107.356 689.764 106.94 689.491 106.588 689.111L107.004 687.472C107.264 687.907 107.597 688.255 108.004 688.514C108.412 688.764 108.847 688.889 109.31 688.889C109.754 688.889 110.088 688.782 110.31 688.569C110.532 688.347 110.643 688.079 110.643 687.764C110.643 687.403 110.523 687.139 110.282 686.972C110.051 686.806 109.842 686.69 109.657 686.625L108.532 686.194C108.328 686.111 108.083 685.991 107.796 685.833C107.509 685.667 107.259 685.431 107.046 685.125C106.833 684.819 106.727 684.421 106.727 683.931C106.727 683.486 106.833 683.079 107.046 682.708C107.259 682.338 107.56 682.046 107.949 681.833C108.338 681.611 108.796 681.5 109.324 681.5C109.74 681.5 110.176 681.574 110.629 681.722C111.083 681.87 111.467 682.12 111.782 682.472L111.365 684.111C111.143 683.704 110.842 683.38 110.463 683.139C110.083 682.898 109.69 682.778 109.282 682.778C108.902 682.778 108.602 682.884 108.379 683.097C108.166 683.31 108.06 683.556 108.06 683.833C108.06 684.056 108.134 684.255 108.282 684.431C108.43 684.606 108.652 684.75 108.949 684.861L110.074 685.292C110.277 685.366 110.527 685.486 110.824 685.653C111.129 685.819 111.398 686.06 111.629 686.375C111.861 686.69 111.977 687.116 111.977 687.653C111.977 688.403 111.713 689.009 111.185 689.472C110.666 689.935 110.009 690.167 109.213 690.167ZM122.629 690.111C122.055 690.111 121.518 690.005 121.018 689.792C120.518 689.569 120.078 689.273 119.699 688.903V690H118.31V676.667H119.81V682.653C120.18 682.31 120.606 682.042 121.088 681.847C121.569 681.653 122.083 681.556 122.629 681.556C123.398 681.556 124.092 681.75 124.713 682.139C125.342 682.519 125.842 683.032 126.213 683.681C126.592 684.329 126.782 685.046 126.782 685.833C126.782 686.62 126.592 687.338 126.213 687.986C125.842 688.634 125.342 689.153 124.713 689.542C124.092 689.921 123.398 690.111 122.629 690.111ZM122.435 688.75C122.963 688.75 123.44 688.62 123.865 688.361C124.301 688.093 124.643 687.741 124.893 687.306C125.152 686.861 125.282 686.37 125.282 685.833C125.282 685.296 125.152 684.81 124.893 684.375C124.643 683.931 124.301 683.579 123.865 683.319C123.44 683.051 122.963 682.917 122.435 682.917C121.907 682.917 121.426 683.051 120.99 683.319C120.565 683.579 120.222 683.931 119.963 684.375C119.713 684.81 119.588 685.296 119.588 685.833C119.588 686.37 119.713 686.861 119.963 687.306C120.222 687.741 120.565 688.093 120.99 688.361C121.426 688.62 121.907 688.75 122.435 688.75ZM132.426 690.111C131.667 690.111 130.973 689.921 130.343 689.542C129.713 689.153 129.209 688.634 128.829 687.986C128.459 687.338 128.273 686.62 128.273 685.833C128.273 685.046 128.459 684.329 128.829 683.681C129.209 683.032 129.713 682.519 130.343 682.139C130.973 681.75 131.667 681.556 132.426 681.556C133 681.556 133.537 681.662 134.037 681.875C134.547 682.088 134.986 682.384 135.357 682.764V681.667H136.746V690H135.357V688.903C134.986 689.273 134.547 689.569 134.037 689.792C133.537 690.005 133 690.111 132.426 690.111ZM132.621 688.75C133.148 688.75 133.625 688.62 134.051 688.361C134.486 688.093 134.829 687.741 135.079 687.306C135.338 686.861 135.468 686.37 135.468 685.833C135.468 685.296 135.338 684.81 135.079 684.375C134.829 683.931 134.486 683.579 134.051 683.319C133.625 683.051 133.148 682.917 132.621 682.917C132.093 682.917 131.611 683.051 131.176 683.319C130.75 683.579 130.408 683.931 130.148 684.375C129.898 684.81 129.773 685.296 129.773 685.833C129.773 686.37 129.898 686.861 130.148 687.306C130.408 687.741 130.75 688.093 131.176 688.361C131.611 688.62 132.093 688.75 132.621 688.75ZM139.404 690V681.667H140.793V683.194C141.089 682.704 141.482 682.315 141.973 682.028C142.464 681.731 143.047 681.583 143.723 681.583L144.098 683.083C143.922 683.028 143.718 683 143.487 683C142.709 683 142.084 683.25 141.612 683.75C141.14 684.241 140.904 684.944 140.904 685.861V690H139.404ZM150.786 690V682.917H148.897V681.667H150.828V678.889H152.244V681.667H154.314V682.917H152.286V690H150.786ZM159.459 690.167C158.654 690.167 157.918 689.972 157.251 689.583C156.584 689.194 156.052 688.671 155.654 688.014C155.265 687.356 155.07 686.63 155.07 685.833C155.07 685.028 155.265 684.301 155.654 683.653C156.052 682.995 156.584 682.472 157.251 682.083C157.918 681.694 158.654 681.5 159.459 681.5C160.274 681.5 161.01 681.694 161.668 682.083C162.334 682.472 162.862 682.995 163.251 683.653C163.649 684.301 163.848 685.028 163.848 685.833C163.848 686.63 163.649 687.356 163.251 688.014C162.862 688.671 162.334 689.194 161.668 689.583C161.01 689.972 160.274 690.167 159.459 690.167ZM159.459 688.75C159.996 688.75 160.482 688.62 160.918 688.361C161.353 688.093 161.7 687.741 161.959 687.306C162.218 686.861 162.348 686.37 162.348 685.833C162.348 685.296 162.218 684.81 161.959 684.375C161.7 683.931 161.353 683.579 160.918 683.319C160.482 683.051 159.996 682.917 159.459 682.917C158.922 682.917 158.436 683.051 158.001 683.319C157.566 683.579 157.218 683.931 156.959 684.375C156.7 684.81 156.57 685.296 156.57 685.833C156.57 686.37 156.7 686.861 156.959 687.306C157.218 687.741 157.566 688.093 158.001 688.361C158.436 688.62 158.922 688.75 159.459 688.75ZM170.087 694.167V681.667H171.476V682.764C171.856 682.384 172.296 682.088 172.796 681.875C173.296 681.662 173.833 681.556 174.407 681.556C175.175 681.556 175.87 681.75 176.49 682.139C177.12 682.519 177.62 683.032 177.99 683.681C178.37 684.329 178.559 685.046 178.559 685.833C178.559 686.62 178.37 687.338 177.99 687.986C177.62 688.634 177.12 689.153 176.49 689.542C175.87 689.921 175.175 690.111 174.407 690.111C173.86 690.111 173.346 690.014 172.865 689.819C172.384 689.625 171.958 689.356 171.587 689.014V694.167H170.087ZM174.212 688.75C174.74 688.75 175.217 688.62 175.643 688.361C176.078 688.093 176.421 687.741 176.671 687.306C176.93 686.861 177.059 686.37 177.059 685.833C177.059 685.296 176.93 684.81 176.671 684.375C176.421 683.931 176.078 683.579 175.643 683.319C175.217 683.051 174.74 682.917 174.212 682.917C173.684 682.917 173.203 683.051 172.768 683.319C172.342 683.579 171.999 683.931 171.74 684.375C171.49 684.81 171.365 685.296 171.365 685.833C171.365 686.37 171.49 686.861 171.74 687.306C171.999 687.741 172.342 688.093 172.768 688.361C173.203 688.62 173.684 688.75 174.212 688.75ZM180.634 690V681.667H182.023V683.194C182.319 682.704 182.713 682.315 183.204 682.028C183.694 681.731 184.278 681.583 184.954 681.583L185.329 683.083C185.153 683.028 184.949 683 184.717 683C183.94 683 183.315 683.25 182.842 683.75C182.37 684.241 182.134 684.944 182.134 685.861V690H180.634ZM190.416 690.167C189.611 690.167 188.875 689.972 188.208 689.583C187.541 689.194 187.009 688.671 186.611 688.014C186.222 687.356 186.027 686.63 186.027 685.833C186.027 685.028 186.222 684.301 186.611 683.653C187.009 682.995 187.541 682.472 188.208 682.083C188.875 681.694 189.611 681.5 190.416 681.5C191.231 681.5 191.967 681.694 192.625 682.083C193.291 682.472 193.819 682.995 194.208 683.653C194.606 684.301 194.805 685.028 194.805 685.833C194.805 686.63 194.606 687.356 194.208 688.014C193.819 688.671 193.291 689.194 192.625 689.583C191.967 689.972 191.231 690.167 190.416 690.167ZM190.416 688.75C190.953 688.75 191.439 688.62 191.875 688.361C192.31 688.093 192.657 687.741 192.916 687.306C193.175 686.861 193.305 686.37 193.305 685.833C193.305 685.296 193.175 684.81 192.916 684.375C192.657 683.931 192.31 683.579 191.875 683.319C191.439 683.051 190.953 682.917 190.416 682.917C189.879 682.917 189.393 683.051 188.958 683.319C188.523 683.579 188.175 683.931 187.916 684.375C187.657 684.81 187.527 685.296 187.527 685.833C187.527 686.37 187.657 686.861 187.916 687.306C188.175 687.741 188.523 688.093 188.958 688.361C189.393 688.62 189.879 688.75 190.416 688.75ZM199.652 690.417L195.444 681.667H197.152L198.847 685.278C199.004 685.602 199.152 685.921 199.291 686.236C199.43 686.551 199.564 686.935 199.694 687.389C199.833 686.935 199.972 686.551 200.111 686.236C200.259 685.912 200.407 685.593 200.555 685.278L202.263 681.667H203.861L199.652 690.417ZM205.361 690V681.667H206.861V690H205.361ZM206.111 680.167C205.833 680.167 205.597 680.069 205.402 679.875C205.208 679.681 205.111 679.444 205.111 679.167C205.111 678.88 205.208 678.644 205.402 678.458C205.597 678.264 205.833 678.167 206.111 678.167C206.398 678.167 206.634 678.264 206.819 678.458C207.013 678.644 207.111 678.88 207.111 679.167C207.111 679.444 207.013 679.681 206.819 679.875C206.634 680.069 206.398 680.167 206.111 680.167ZM213.09 690.111C212.331 690.111 211.637 689.921 211.007 689.542C210.377 689.153 209.873 688.634 209.493 687.986C209.123 687.338 208.938 686.62 208.938 685.833C208.938 685.046 209.123 684.329 209.493 683.681C209.873 683.032 210.377 682.519 211.007 682.139C211.637 681.75 212.331 681.556 213.09 681.556C213.637 681.556 214.15 681.653 214.632 681.847C215.113 682.042 215.539 682.31 215.91 682.653V676.667H217.41V690H216.021V688.903C215.65 689.273 215.211 689.569 214.701 689.792C214.201 690.005 213.664 690.111 213.09 690.111ZM213.285 688.75C213.812 688.75 214.289 688.62 214.715 688.361C215.15 688.093 215.493 687.741 215.743 687.306C216.002 686.861 216.132 686.37 216.132 685.833C216.132 685.296 216.002 684.81 215.743 684.375C215.493 683.931 215.15 683.579 214.715 683.319C214.289 683.051 213.812 682.917 213.285 682.917C212.757 682.917 212.275 683.051 211.84 683.319C211.414 683.579 211.072 683.931 210.813 684.375C210.563 684.81 210.438 685.296 210.438 685.833C210.438 686.37 210.563 686.861 210.813 687.306C211.072 687.741 211.414 688.093 211.84 688.361C212.275 688.62 212.757 688.75 213.285 688.75ZM224.04 690.167C223.17 690.167 222.387 689.972 221.693 689.583C221.008 689.194 220.466 688.667 220.068 688C219.679 687.324 219.484 686.574 219.484 685.75C219.484 684.963 219.674 684.25 220.054 683.611C220.433 682.963 220.943 682.449 221.582 682.069C222.23 681.69 222.943 681.5 223.72 681.5C224.489 681.5 225.193 681.685 225.832 682.056C226.47 682.417 226.98 682.907 227.359 683.528C227.739 684.148 227.929 684.852 227.929 685.639V686.25H222.484C222.244 686.25 221.998 686.241 221.748 686.222C221.498 686.204 221.253 686.176 221.012 686.139C221.114 686.88 221.447 687.5 222.012 688C222.586 688.5 223.267 688.75 224.054 688.75C224.582 688.75 225.072 688.63 225.526 688.389C225.98 688.148 226.345 687.829 226.623 687.431L227.04 689.139C226.642 689.463 226.183 689.718 225.665 689.903C225.156 690.079 224.614 690.167 224.04 690.167ZM220.97 685.125C221.47 685.042 221.975 685 222.484 685H225.248C225.452 685 225.651 685.009 225.845 685.028C226.049 685.037 226.253 685.051 226.457 685.069C226.327 684.421 226.003 683.889 225.484 683.472C224.966 683.046 224.378 682.833 223.72 682.833C223.045 682.833 222.452 683.06 221.943 683.514C221.433 683.958 221.109 684.495 220.97 685.125ZM51.1667 717.167C50.3519 717.167 49.6111 716.972 48.9444 716.583C48.2778 716.194 47.7454 715.671 47.3472 715.014C46.9491 714.356 46.75 713.63 46.75 712.833C46.75 712.037 46.9491 711.31 47.3472 710.653C47.7454 709.995 48.2778 709.472 48.9444 709.083C49.6111 708.694 50.3519 708.5 51.1667 708.5C51.7685 708.5 52.3333 708.606 52.8611 708.819C53.3889 709.032 53.8519 709.315 54.25 709.667L53.7917 711.556C53.5602 711.093 53.2083 710.704 52.7361 710.389C52.2731 710.074 51.7454 709.917 51.1528 709.917C50.6157 709.917 50.125 710.051 49.6806 710.319C49.2454 710.579 48.8981 710.931 48.6389 711.375C48.3796 711.81 48.25 712.296 48.25 712.833C48.25 713.361 48.3796 713.847 48.6389 714.292C48.8981 714.736 49.2454 715.093 49.6806 715.361C50.125 715.62 50.6157 715.75 51.1528 715.75C51.7454 715.75 52.2731 715.597 52.7361 715.292C53.2083 714.986 53.5602 714.593 53.7917 714.111L54.25 716C53.8519 716.352 53.3889 716.634 52.8611 716.847C52.3333 717.06 51.7685 717.167 51.1667 717.167ZM56.0833 717V703.667H57.5833V717H56.0833ZM63.8129 717.111C63.0537 717.111 62.3592 716.921 61.7296 716.542C61.1 716.153 60.5953 715.634 60.2157 714.986C59.8453 714.338 59.6602 713.62 59.6602 712.833C59.6602 712.046 59.8453 711.329 60.2157 710.681C60.5953 710.032 61.1 709.519 61.7296 709.139C62.3592 708.75 63.0537 708.556 63.8129 708.556C64.387 708.556 64.924 708.662 65.424 708.875C65.9333 709.088 66.3731 709.384 66.7435 709.764V708.667H68.1324V717H66.7435V715.903C66.3731 716.273 65.9333 716.569 65.424 716.792C64.924 717.005 64.387 717.111 63.8129 717.111ZM64.0074 715.75C64.5352 715.75 65.012 715.62 65.4379 715.361C65.8731 715.093 66.2157 714.741 66.4657 714.306C66.725 713.861 66.8546 713.37 66.8546 712.833C66.8546 712.296 66.725 711.81 66.4657 711.375C66.2157 710.931 65.8731 710.579 65.4379 710.319C65.012 710.051 64.5352 709.917 64.0074 709.917C63.4796 709.917 62.9981 710.051 62.5629 710.319C62.137 710.579 61.7944 710.931 61.5352 711.375C61.2852 711.81 61.1602 712.296 61.1602 712.833C61.1602 713.37 61.2852 713.861 61.5352 714.306C61.7944 714.741 62.137 715.093 62.5629 715.361C62.9981 715.62 63.4796 715.75 64.0074 715.75ZM70.7904 717V708.667H72.1793V710.194C72.4755 709.704 72.8691 709.315 73.3598 709.028C73.8505 708.731 74.4339 708.583 75.1098 708.583L75.4848 710.083C75.3089 710.028 75.1052 710 74.8737 710C74.0959 710 73.4709 710.25 72.9987 710.75C72.5265 711.241 72.2904 711.944 72.2904 712.861V717H70.7904ZM77.0404 717V708.667H78.5404V717H77.0404ZM77.7904 707.167C77.5126 707.167 77.2765 707.069 77.082 706.875C76.8876 706.681 76.7904 706.444 76.7904 706.167C76.7904 705.88 76.8876 705.644 77.082 705.458C77.2765 705.264 77.5126 705.167 77.7904 705.167C78.0774 705.167 78.3135 705.264 78.4987 705.458C78.6931 705.644 78.7904 705.88 78.7904 706.167C78.7904 706.444 78.6931 706.681 78.4987 706.875C78.3135 707.069 78.0774 707.167 77.7904 707.167ZM82.1727 717V709.917H80.2839V708.667H82.2144V705.889H83.6311V708.667H85.7005V709.917H83.6727V717H82.1727ZM87.1033 721.167L89.8116 715.778L86.2839 708.667H87.9783L89.7561 712.278C89.9135 712.602 90.0663 712.921 90.2144 713.236C90.3626 713.551 90.5107 713.931 90.6589 714.375C90.8163 713.931 90.9644 713.551 91.1033 713.236C91.2514 712.912 91.4089 712.593 91.5755 712.278L93.3811 708.667H94.9783L88.7283 721.167H87.1033ZM101.606 717V709.917H99.7174V708.667H101.648V706.278C101.648 705.37 101.917 704.681 102.454 704.208C102.991 703.736 103.629 703.5 104.37 703.5C104.648 703.5 104.93 703.532 105.217 703.597C105.514 703.662 105.792 703.773 106.051 703.931L105.69 705.389C105.301 704.963 104.847 704.75 104.329 704.75C104.014 704.75 103.722 704.856 103.454 705.069C103.194 705.282 103.065 705.694 103.065 706.306V708.667H105.134V709.917H103.106V717H101.606ZM110.28 717.167C109.474 717.167 108.738 716.972 108.071 716.583C107.405 716.194 106.872 715.671 106.474 715.014C106.085 714.356 105.891 713.63 105.891 712.833C105.891 712.028 106.085 711.301 106.474 710.653C106.872 709.995 107.405 709.472 108.071 709.083C108.738 708.694 109.474 708.5 110.28 708.5C111.094 708.5 111.83 708.694 112.488 709.083C113.155 709.472 113.682 709.995 114.071 710.653C114.469 711.301 114.668 712.028 114.668 712.833C114.668 713.63 114.469 714.356 114.071 715.014C113.682 715.671 113.155 716.194 112.488 716.583C111.83 716.972 111.094 717.167 110.28 717.167ZM110.28 715.75C110.817 715.75 111.303 715.62 111.738 715.361C112.173 715.093 112.52 714.741 112.78 714.306C113.039 713.861 113.168 713.37 113.168 712.833C113.168 712.296 113.039 711.81 112.78 711.375C112.52 710.931 112.173 710.579 111.738 710.319C111.303 710.051 110.817 709.917 110.28 709.917C109.742 709.917 109.256 710.051 108.821 710.319C108.386 710.579 108.039 710.931 107.78 711.375C107.52 711.81 107.391 712.296 107.391 712.833C107.391 713.37 107.52 713.861 107.78 714.306C108.039 714.741 108.386 715.093 108.821 715.361C109.256 715.62 109.742 715.75 110.28 715.75ZM116.747 717V708.667H118.136V710.194C118.433 709.704 118.826 709.315 119.317 709.028C119.808 708.731 120.391 708.583 121.067 708.583L121.442 710.083C121.266 710.028 121.062 710 120.831 710C120.053 710 119.428 710.25 118.956 710.75C118.484 711.241 118.247 711.944 118.247 712.861V717H116.747ZM130.338 717.167C129.755 717.167 129.208 717.023 128.699 716.736C128.19 716.44 127.778 716.014 127.463 715.458C127.148 714.903 126.991 714.236 126.991 713.458V708.667H128.491V713.25C128.491 713.907 128.685 714.491 129.074 715C129.472 715.5 130.028 715.75 130.741 715.75C131.324 715.75 131.843 715.542 132.296 715.125C132.759 714.699 132.991 714.088 132.991 713.292V708.667H134.491V717H133.102V715.653C132.796 716.144 132.398 716.519 131.908 716.778C131.426 717.037 130.903 717.167 130.338 717.167ZM139.31 717.167C138.884 717.167 138.426 717.088 137.935 716.931C137.454 716.764 137.037 716.491 136.685 716.111L137.102 714.472C137.361 714.907 137.695 715.255 138.102 715.514C138.509 715.764 138.945 715.889 139.408 715.889C139.852 715.889 140.185 715.782 140.408 715.569C140.63 715.347 140.741 715.079 140.741 714.764C140.741 714.403 140.621 714.139 140.38 713.972C140.148 713.806 139.94 713.69 139.755 713.625L138.63 713.194C138.426 713.111 138.181 712.991 137.894 712.833C137.607 712.667 137.357 712.431 137.144 712.125C136.931 711.819 136.824 711.421 136.824 710.931C136.824 710.486 136.931 710.079 137.144 709.708C137.357 709.338 137.658 709.046 138.046 708.833C138.435 708.611 138.894 708.5 139.421 708.5C139.838 708.5 140.273 708.574 140.727 708.722C141.181 708.87 141.565 709.12 141.88 709.472L141.463 711.111C141.241 710.704 140.94 710.38 140.56 710.139C140.181 709.898 139.787 709.778 139.38 709.778C139 709.778 138.699 709.884 138.477 710.097C138.264 710.31 138.158 710.556 138.158 710.833C138.158 711.056 138.232 711.255 138.38 711.431C138.528 711.606 138.75 711.75 139.046 711.861L140.171 712.292C140.375 712.366 140.625 712.486 140.921 712.653C141.227 712.819 141.496 713.06 141.727 713.375C141.958 713.69 142.074 714.116 142.074 714.653C142.074 715.403 141.81 716.009 141.283 716.472C140.764 716.935 140.107 717.167 139.31 717.167ZM148.22 717.167C147.349 717.167 146.567 716.972 145.872 716.583C145.187 716.194 144.646 715.667 144.247 715C143.859 714.324 143.664 713.574 143.664 712.75C143.664 711.963 143.854 711.25 144.234 710.611C144.613 709.963 145.122 709.449 145.761 709.069C146.409 708.69 147.122 708.5 147.9 708.5C148.669 708.5 149.372 708.685 150.011 709.056C150.65 709.417 151.159 709.907 151.539 710.528C151.919 711.148 152.109 711.852 152.109 712.639V713.25H146.664C146.423 713.25 146.178 713.241 145.928 713.222C145.678 713.204 145.433 713.176 145.192 713.139C145.294 713.88 145.627 714.5 146.192 715C146.766 715.5 147.446 715.75 148.234 715.75C148.761 715.75 149.252 715.63 149.706 715.389C150.159 715.148 150.525 714.829 150.803 714.431L151.22 716.139C150.821 716.463 150.363 716.718 149.845 716.903C149.335 717.079 148.794 717.167 148.22 717.167ZM145.15 712.125C145.65 712.042 146.155 712 146.664 712H149.428C149.632 712 149.831 712.009 150.025 712.028C150.229 712.037 150.433 712.051 150.636 712.069C150.507 711.421 150.183 710.889 149.664 710.472C149.146 710.046 148.558 709.833 147.9 709.833C147.224 709.833 146.632 710.06 146.122 710.514C145.613 710.958 145.289 711.495 145.15 712.125ZM154.111 717V708.667H155.5V710.194C155.796 709.704 156.189 709.315 156.68 709.028C157.171 708.731 157.754 708.583 158.43 708.583L158.805 710.083C158.629 710.028 158.425 710 158.194 710C157.416 710 156.791 710.25 156.319 710.75C155.847 711.241 155.611 711.944 155.611 712.861V717H154.111ZM162.513 717.167C162.088 717.167 161.629 717.088 161.138 716.931C160.657 716.764 160.24 716.491 159.888 716.111L160.305 714.472C160.564 714.907 160.898 715.255 161.305 715.514C161.713 715.764 162.148 715.889 162.611 715.889C163.055 715.889 163.388 715.782 163.611 715.569C163.833 715.347 163.944 715.079 163.944 714.764C163.944 714.403 163.824 714.139 163.583 713.972C163.351 713.806 163.143 713.69 162.958 713.625L161.833 713.194C161.629 713.111 161.384 712.991 161.097 712.833C160.81 712.667 160.56 712.431 160.347 712.125C160.134 711.819 160.027 711.421 160.027 710.931C160.027 710.486 160.134 710.079 160.347 709.708C160.56 709.338 160.861 709.046 161.25 708.833C161.638 708.611 162.097 708.5 162.625 708.5C163.041 708.5 163.476 708.574 163.93 708.722C164.384 708.87 164.768 709.12 165.083 709.472L164.666 711.111C164.444 710.704 164.143 710.38 163.763 710.139C163.384 709.898 162.99 709.778 162.583 709.778C162.203 709.778 161.902 709.884 161.68 710.097C161.467 710.31 161.361 710.556 161.361 710.833C161.361 711.056 161.435 711.255 161.583 711.431C161.731 711.606 161.953 711.75 162.25 711.861L163.375 712.292C163.578 712.366 163.828 712.486 164.125 712.653C164.43 712.819 164.699 713.06 164.93 713.375C165.162 713.69 165.277 714.116 165.277 714.653C165.277 715.403 165.013 716.009 164.486 716.472C163.967 716.935 163.31 717.167 162.513 717.167Z" fill="#2E941F"/>
<line x1="190.498" y1="277.951" x2="203.498" y2="408.951" stroke="#2E941F"/>
<line x1="177.464" y1="707.814" x2="197.464" y2="757.814" stroke="#2E941F"/>
</svg>
