<svg width="256" height="553" viewBox="0 0 256 553" fill="none" xmlns="http://www.w3.org/2000/svg">
<g clip-path="url(#clip0_879_860)">
<rect width="255.139" height="553" transform="translate(0.620117)" fill="white"/>
<path d="M52.4193 258.934L58.3083 245.109H58.338L64.227 258.934H61.5421L60.5482 256.56H56.0091L55.0152 258.934H52.4193ZM56.8991 254.424H59.6582L59.0797 253.059C58.9214 252.694 58.7731 252.342 58.6347 252.006C58.5061 251.66 58.3825 251.26 58.2638 250.805C58.155 251.25 58.0364 251.645 57.9078 251.991C57.7792 252.338 57.6359 252.694 57.4776 253.059L56.8991 254.424ZM65.3817 258.934V250.033H67.6957V251.561C68.0023 251.047 68.388 250.651 68.8527 250.375C69.3274 250.088 69.8812 249.944 70.5141 249.944L71.0778 252.229C70.8899 252.169 70.6773 252.14 70.44 252.14C69.6983 252.14 69.1 252.382 68.6451 252.867C68.1902 253.341 67.9627 254.024 67.9627 254.914V258.934H65.3817ZM76.5241 259.23C75.5253 259.23 74.6452 259.023 73.8837 258.607C73.1222 258.192 72.5289 257.623 72.1036 256.901C71.6784 256.17 71.4658 255.334 71.4658 254.394C71.4658 253.495 71.6735 252.698 72.0888 252.006C72.5042 251.304 73.0629 250.75 73.765 250.345C74.477 249.939 75.2632 249.737 76.1236 249.737C77.0037 249.737 77.7899 249.939 78.4821 250.345C79.1744 250.74 79.7183 251.284 80.1138 251.977C80.5193 252.669 80.722 253.455 80.722 254.335V255.24H75.2929C75.0457 255.24 74.8083 255.225 74.5809 255.196C74.3534 255.166 74.126 255.131 73.8985 255.092C74.0172 255.685 74.3089 256.17 74.7737 256.545C75.2484 256.911 75.8516 257.094 76.5834 257.094C77.1471 257.094 77.6514 256.98 78.0965 256.753C78.5514 256.526 78.9222 256.244 79.209 255.908L79.7727 258.222C79.3277 258.558 78.8233 258.81 78.2596 258.978C77.7058 259.146 77.1273 259.23 76.5241 259.23ZM73.8392 253.534C74.3336 253.425 74.8182 253.371 75.2929 253.371H76.8653C77.1422 253.371 77.4042 253.381 77.6514 253.401C77.8987 253.42 78.1311 253.455 78.3486 253.504C78.2003 252.97 77.9283 252.55 77.5328 252.244C77.1471 251.937 76.6675 251.784 76.0939 251.784C75.55 251.784 75.0753 251.942 74.6699 252.258C74.2743 252.565 73.9974 252.99 73.8392 253.534ZM86.3737 263.384L89.3404 257.421L85.7061 250.033H88.5542L90.1266 253.297C90.265 253.593 90.3837 253.865 90.4826 254.113C90.5914 254.35 90.6804 254.582 90.7496 254.81C90.8287 254.582 90.9227 254.35 91.0314 254.113C91.1402 253.865 91.2688 253.593 91.4171 253.297L93.0192 250.033H95.7634L89.1476 263.384H86.3737ZM100.761 259.23C99.8813 259.23 99.0753 259.018 98.3435 258.592C97.6117 258.167 97.0283 257.594 96.5931 256.872C96.1679 256.15 95.9553 255.354 95.9553 254.483C95.9553 253.603 96.1679 252.807 96.5931 252.095C97.0283 251.373 97.6117 250.8 98.3435 250.375C99.0753 249.949 99.8813 249.737 100.761 249.737C101.651 249.737 102.457 249.949 103.179 250.375C103.911 250.8 104.49 251.373 104.915 252.095C105.35 252.807 105.568 253.603 105.568 254.483C105.568 255.354 105.35 256.15 104.915 256.872C104.49 257.594 103.911 258.167 103.179 258.592C102.457 259.018 101.651 259.23 100.761 259.23ZM100.761 256.916C101.206 256.916 101.607 256.807 101.963 256.59C102.329 256.372 102.616 256.081 102.823 255.715C103.041 255.339 103.15 254.928 103.15 254.483C103.15 254.029 103.041 253.618 102.823 253.252C102.616 252.886 102.329 252.595 101.963 252.377C101.607 252.16 101.206 252.051 100.761 252.051C100.316 252.051 99.9109 252.16 99.545 252.377C99.189 252.595 98.9023 252.886 98.6847 253.252C98.477 253.618 98.3732 254.029 98.3732 254.483C98.3732 254.928 98.477 255.339 98.6847 255.715C98.9023 256.081 99.189 256.372 99.545 256.59C99.9109 256.807 100.316 256.916 100.761 256.916ZM110.522 259.23C109.899 259.23 109.311 259.082 108.757 258.785C108.203 258.479 107.753 258.039 107.407 257.465C107.071 256.882 106.903 256.179 106.903 255.359V250.033H109.484V255.017C109.484 255.512 109.632 255.952 109.929 256.338C110.235 256.723 110.66 256.916 111.204 256.916C111.649 256.916 112.045 256.758 112.391 256.442C112.747 256.115 112.925 255.65 112.925 255.047V250.033H115.506V258.934H113.162V257.999C112.846 258.395 112.455 258.701 111.991 258.919C111.536 259.126 111.046 259.23 110.522 259.23ZM125.917 259.171C125.096 259.171 124.35 258.958 123.677 258.533C123.005 258.108 122.466 257.544 122.06 256.842C121.665 256.13 121.467 255.344 121.467 254.483C121.467 253.623 121.665 252.837 122.06 252.125C122.466 251.413 123.005 250.849 123.677 250.434C124.35 250.009 125.096 249.796 125.917 249.796C126.491 249.796 127.015 249.9 127.489 250.108C127.964 250.305 128.37 250.582 128.706 250.938V250.033H130.931V258.934H128.706V258.029C128.37 258.385 127.964 258.667 127.489 258.874C127.015 259.072 126.491 259.171 125.917 259.171ZM126.229 256.901C126.664 256.901 127.059 256.793 127.415 256.575C127.771 256.357 128.053 256.066 128.261 255.7C128.478 255.334 128.587 254.928 128.587 254.483C128.587 254.038 128.478 253.633 128.261 253.267C128.053 252.901 127.771 252.609 127.415 252.392C127.059 252.174 126.664 252.066 126.229 252.066C125.793 252.066 125.398 252.174 125.042 252.392C124.686 252.609 124.399 252.901 124.181 253.267C123.974 253.633 123.87 254.038 123.87 254.483C123.87 254.928 123.974 255.334 124.181 255.7C124.399 256.066 124.686 256.357 125.042 256.575C125.398 256.793 125.793 256.901 126.229 256.901ZM137.327 263.384V250.033H139.552V250.909C139.899 250.562 140.304 250.29 140.769 250.093C141.243 249.895 141.763 249.796 142.326 249.796C143.157 249.796 143.909 250.009 144.581 250.434C145.254 250.849 145.788 251.413 146.183 252.125C146.589 252.837 146.791 253.623 146.791 254.483C146.791 255.344 146.589 256.13 146.183 256.842C145.788 257.544 145.254 258.108 144.581 258.533C143.909 258.958 143.157 259.171 142.326 259.171C141.852 259.171 141.412 259.097 141.006 258.948C140.601 258.81 140.235 258.617 139.908 258.37V263.384H137.327ZM142.03 256.901C142.465 256.901 142.86 256.793 143.216 256.575C143.572 256.357 143.854 256.066 144.062 255.7C144.279 255.334 144.388 254.928 144.388 254.483C144.388 254.038 144.279 253.633 144.062 253.267C143.854 252.901 143.572 252.609 143.216 252.392C142.86 252.174 142.465 252.066 142.03 252.066C141.595 252.066 141.199 252.174 140.843 252.392C140.487 252.609 140.2 252.901 139.983 253.267C139.775 253.633 139.671 254.038 139.671 254.483C139.671 254.928 139.775 255.334 139.983 255.7C140.2 256.066 140.487 256.357 140.843 256.575C141.199 256.793 141.595 256.901 142.03 256.901ZM152.305 259.171C151.484 259.171 150.737 258.958 150.065 258.533C149.392 258.108 148.853 257.544 148.448 256.842C148.052 256.13 147.855 255.344 147.855 254.483C147.855 253.623 148.052 252.837 148.448 252.125C148.853 251.413 149.392 250.849 150.065 250.434C150.737 250.009 151.484 249.796 152.305 249.796C152.878 249.796 153.402 249.9 153.877 250.108C154.352 250.305 154.757 250.582 155.094 250.938V250.033H157.319V258.934H155.094V258.029C154.757 258.385 154.352 258.667 153.877 258.874C153.402 259.072 152.878 259.171 152.305 259.171ZM152.616 256.901C153.051 256.901 153.447 256.793 153.803 256.575C154.159 256.357 154.441 256.066 154.648 255.7C154.866 255.334 154.975 254.928 154.975 254.483C154.975 254.038 154.866 253.633 154.648 253.267C154.441 252.901 154.159 252.609 153.803 252.392C153.447 252.174 153.051 252.066 152.616 252.066C152.181 252.066 151.786 252.174 151.43 252.392C151.074 252.609 150.787 252.901 150.569 253.267C150.362 253.633 150.258 254.038 150.258 254.483C150.258 254.928 150.362 255.334 150.569 255.7C150.787 256.066 151.074 256.357 151.43 256.575C151.786 256.793 152.181 256.901 152.616 256.901ZM160.31 258.934V252.08H158.649V250.033H160.355V247.067H162.847V250.033H164.612V252.08H162.891V258.934H160.31ZM165.977 258.934V250.033H168.558V258.934H165.977ZM167.267 248.743C166.882 248.743 166.555 248.609 166.288 248.342C166.021 248.075 165.888 247.749 165.888 247.363C165.888 246.968 166.021 246.641 166.288 246.384C166.555 246.117 166.882 245.984 167.267 245.984C167.663 245.984 167.989 246.117 168.246 246.384C168.513 246.641 168.647 246.968 168.647 247.363C168.647 247.749 168.513 248.075 168.246 248.342C167.989 248.609 167.663 248.743 167.267 248.743ZM175.15 259.23C174.151 259.23 173.271 259.023 172.509 258.607C171.748 258.192 171.154 257.623 170.729 256.901C170.304 256.17 170.091 255.334 170.091 254.394C170.091 253.495 170.299 252.698 170.714 252.006C171.13 251.304 171.688 250.75 172.391 250.345C173.103 249.939 173.889 249.737 174.749 249.737C175.629 249.737 176.415 249.939 177.108 250.345C177.8 250.74 178.344 251.284 178.739 251.977C179.145 252.669 179.348 253.455 179.348 254.335V255.24H173.918C173.671 255.24 173.434 255.225 173.206 255.196C172.979 255.166 172.751 255.131 172.524 255.092C172.643 255.685 172.934 256.17 173.399 256.545C173.874 256.911 174.477 257.094 175.209 257.094C175.773 257.094 176.277 256.98 176.722 256.753C177.177 256.526 177.548 256.244 177.834 255.908L178.398 258.222C177.953 258.558 177.449 258.81 176.885 258.978C176.331 259.146 175.753 259.23 175.15 259.23ZM172.465 253.534C172.959 253.425 173.444 253.371 173.918 253.371H175.491C175.768 253.371 176.03 253.381 176.277 253.401C176.524 253.42 176.757 253.455 176.974 253.504C176.826 252.97 176.554 252.55 176.158 252.244C175.773 251.937 175.293 251.784 174.719 251.784C174.176 251.784 173.701 251.942 173.295 252.258C172.9 252.565 172.623 252.99 172.465 253.534ZM180.779 258.934V250.033H183.093V251.012C183.409 250.597 183.8 250.281 184.264 250.063C184.729 249.845 185.229 249.737 185.763 249.737C186.396 249.737 186.984 249.89 187.528 250.197C188.082 250.493 188.527 250.933 188.863 251.517C189.209 252.09 189.382 252.788 189.382 253.608V258.934H186.801V253.949C186.801 253.455 186.653 253.015 186.356 252.629C186.059 252.244 185.634 252.051 185.08 252.051C184.635 252.051 184.235 252.204 183.879 252.511C183.533 252.807 183.36 253.277 183.36 253.92V258.934H180.779ZM191.913 258.934V252.08H190.252V250.033H191.958V247.067H194.45V250.033H196.215V252.08H194.494V258.934H191.913ZM199.152 254.038C199.152 253.317 199.246 252.708 199.434 252.214C199.622 251.719 199.839 251.289 200.086 250.923C200.334 250.548 200.551 250.197 200.739 249.87C200.927 249.544 201.021 249.198 201.021 248.832C201.021 248.426 200.887 248.125 200.62 247.927C200.363 247.729 200.022 247.63 199.597 247.63C199.132 247.63 198.727 247.744 198.381 247.971C198.044 248.199 197.767 248.441 197.55 248.698V246.117C197.896 245.86 198.267 245.662 198.662 245.524C199.058 245.385 199.498 245.316 199.983 245.316C200.685 245.316 201.293 245.455 201.807 245.732C202.321 246.009 202.717 246.389 202.994 246.874C203.281 247.358 203.424 247.917 203.424 248.55C203.424 249.143 203.32 249.672 203.112 250.137C202.905 250.592 202.658 251.017 202.371 251.413C202.084 251.808 201.817 252.214 201.57 252.629C201.332 253.045 201.179 253.514 201.11 254.038H199.152ZM200.131 259.23C199.696 259.23 199.325 259.082 199.018 258.785C198.722 258.479 198.573 258.108 198.573 257.673C198.573 257.238 198.722 256.872 199.018 256.575C199.325 256.268 199.696 256.115 200.131 256.115C200.566 256.115 200.932 256.268 201.229 256.575C201.535 256.872 201.688 257.238 201.688 257.673C201.688 258.108 201.535 258.479 201.229 258.785C200.932 259.082 200.566 259.23 200.131 259.23Z" fill="black"/>
<rect x="20.7939" y="283.621" width="99.0891" height="43.867" rx="5.93348" fill="#C2F3D7"/>
<path d="M50.9133 301.555V297.97L48.6883 294.138H49.7761L50.9957 296.297C51.0727 296.434 51.1441 296.572 51.21 296.709C51.2814 296.841 51.3529 296.995 51.4243 297.171C51.4957 296.995 51.5671 296.841 51.6385 296.709C51.71 296.572 51.7841 296.434 51.861 296.297L53.0889 294.138H54.0779L51.8528 297.97V301.555H50.9133ZM56.393 301.654C55.8766 301.654 55.4124 301.538 55.0003 301.307C54.5938 301.077 54.2724 300.764 54.0361 300.368C53.8054 299.967 53.69 299.522 53.69 299.033C53.69 298.566 53.8026 298.143 54.0279 297.764C54.2532 297.379 54.5553 297.074 54.9344 296.849C55.319 296.624 55.742 296.511 56.2035 296.511C56.6595 296.511 57.077 296.621 57.4561 296.841C57.8352 297.055 58.1374 297.346 58.3626 297.714C58.5879 298.083 58.7005 298.5 58.7005 298.967V299.33H55.4701C55.3272 299.33 55.1816 299.324 55.0333 299.313C54.885 299.302 54.7394 299.286 54.5965 299.264C54.657 299.703 54.8547 300.071 55.1899 300.368C55.5305 300.665 55.9343 300.813 56.4013 300.813C56.7144 300.813 57.0056 300.742 57.2748 300.599C57.544 300.456 57.761 300.266 57.9259 300.03L58.1731 301.044C57.9369 301.236 57.6649 301.387 57.3572 301.497C57.0551 301.601 56.7337 301.654 56.393 301.654ZM54.5718 298.662C54.8685 298.613 55.1679 298.588 55.4701 298.588H57.11C57.2309 298.588 57.349 298.593 57.4644 298.604C57.5852 298.61 57.7061 298.618 57.827 298.629C57.7501 298.245 57.5578 297.929 57.2501 297.681C56.9424 297.429 56.5936 297.302 56.2035 297.302C55.8024 297.302 55.4508 297.437 55.1487 297.706C54.8465 297.97 54.6542 298.289 54.5718 298.662ZM61.1658 301.654C60.9131 301.654 60.6412 301.607 60.35 301.513C60.0643 301.415 59.8171 301.253 59.6083 301.027L59.8555 300.055C60.0094 300.313 60.2071 300.519 60.4489 300.673C60.6906 300.821 60.9488 300.895 61.2235 300.895C61.4872 300.895 61.685 300.832 61.8169 300.706C61.9487 300.574 62.0147 300.415 62.0147 300.228C62.0147 300.014 61.9432 299.857 61.8004 299.758C61.663 299.659 61.5394 299.591 61.4295 299.552L60.762 299.297C60.6412 299.247 60.4956 299.176 60.3253 299.082C60.1549 298.984 60.0066 298.843 59.8803 298.662C59.7539 298.481 59.6907 298.245 59.6907 297.953C59.6907 297.69 59.7539 297.448 59.8803 297.228C60.0066 297.008 60.1852 296.835 60.4159 296.709C60.6467 296.577 60.9186 296.511 61.2318 296.511C61.479 296.511 61.7372 296.555 62.0064 296.643C62.2756 296.731 62.5036 296.879 62.6904 297.088L62.4432 298.061C62.3113 297.819 62.1328 297.627 61.9075 297.484C61.6823 297.341 61.4488 297.269 61.207 297.269C60.9818 297.269 60.8032 297.333 60.6714 297.459C60.545 297.585 60.4818 297.731 60.4818 297.896C60.4818 298.028 60.5258 298.146 60.6137 298.25C60.7016 298.354 60.8335 298.44 61.0093 298.506L61.6768 298.761C61.7976 298.805 61.946 298.876 62.1218 298.975C62.3031 299.074 62.4624 299.217 62.5998 299.404C62.7371 299.591 62.8058 299.843 62.8058 300.162C62.8058 300.607 62.6492 300.967 62.3361 301.242C62.0284 301.516 61.6383 301.654 61.1658 301.654ZM63.3536 302.791C63.6008 302.483 63.7986 302.126 63.9469 301.72C64.1007 301.313 64.1776 300.846 64.1776 300.319H65.0677C65.0677 300.786 65.0017 301.225 64.8699 301.637C64.7435 302.055 64.5677 302.439 64.3425 302.791H63.3536ZM69.1348 301.555V294.138H70.0743V301.555H69.1348ZM76.272 301.802L73.775 296.61H74.7886L75.7858 298.753C75.8792 298.956 75.9671 299.154 76.0495 299.346C76.1374 299.538 76.2226 299.78 76.305 300.071C76.3929 299.786 76.4808 299.544 76.5687 299.346C76.6621 299.148 76.75 298.951 76.8324 298.753L77.8295 296.379L78.8184 298.753C78.9009 298.956 78.986 299.154 79.0739 299.346C79.1618 299.538 79.247 299.78 79.3294 300.071C79.4118 299.78 79.497 299.538 79.5849 299.346C79.6728 299.148 79.7634 298.951 79.8568 298.753L80.8704 296.61H81.8182L79.3211 301.802L78.3158 299.593C78.2278 299.396 78.1399 299.201 78.052 299.008C77.9696 298.81 77.8845 298.574 77.7966 298.3C77.7142 298.574 77.629 298.81 77.5411 299.008C77.4532 299.201 77.3625 299.396 77.2692 299.593L76.272 301.802ZM84.5814 301.621C84.1309 301.621 83.7189 301.508 83.3453 301.283C82.9717 301.052 82.6723 300.744 82.447 300.36C82.2273 299.975 82.1174 299.549 82.1174 299.082C82.1174 298.615 82.2273 298.19 82.447 297.805C82.6723 297.42 82.9717 297.116 83.3453 296.89C83.7189 296.66 84.1309 296.544 84.5814 296.544C84.9221 296.544 85.2407 296.607 85.5374 296.734C85.8396 296.86 86.1005 297.036 86.3203 297.261V296.61H87.1444V301.555H86.3203V300.904C86.1005 301.123 85.8396 301.299 85.5374 301.431C85.2407 301.557 84.9221 301.621 84.5814 301.621ZM84.6968 300.813C85.01 300.813 85.2929 300.736 85.5456 300.582C85.8038 300.423 86.0071 300.214 86.1555 299.956C86.3093 299.692 86.3862 299.401 86.3862 299.082C86.3862 298.764 86.3093 298.475 86.1555 298.217C86.0071 297.953 85.8038 297.745 85.5456 297.591C85.2929 297.431 85.01 297.352 84.6968 297.352C84.3837 297.352 84.098 297.431 83.8398 297.591C83.587 297.745 83.3838 297.953 83.2299 298.217C83.0816 298.475 83.0074 298.764 83.0074 299.082C83.0074 299.401 83.0816 299.692 83.2299 299.956C83.3838 300.214 83.587 300.423 83.8398 300.582C84.098 300.736 84.3837 300.813 84.6968 300.813ZM89.9988 301.654C89.7461 301.654 89.4742 301.607 89.183 301.513C88.8973 301.415 88.6501 301.253 88.4413 301.027L88.6885 300.055C88.8423 300.313 89.0401 300.519 89.2819 300.673C89.5236 300.821 89.7818 300.895 90.0565 300.895C90.3202 300.895 90.518 300.832 90.6499 300.706C90.7817 300.574 90.8476 300.415 90.8476 300.228C90.8476 300.014 90.7762 299.857 90.6334 299.758C90.496 299.659 90.3724 299.591 90.2625 299.552L89.595 299.297C89.4742 299.247 89.3286 299.176 89.1583 299.082C88.9879 298.984 88.8396 298.843 88.7132 298.662C88.5869 298.481 88.5237 298.245 88.5237 297.953C88.5237 297.69 88.5869 297.448 88.7132 297.228C88.8396 297.008 89.0182 296.835 89.2489 296.709C89.4796 296.577 89.7516 296.511 90.0648 296.511C90.312 296.511 90.5702 296.555 90.8394 296.643C91.1086 296.731 91.3366 296.879 91.5234 297.088L91.2762 298.061C91.1443 297.819 90.9658 297.627 90.7405 297.484C90.5153 297.341 90.2818 297.269 90.04 297.269C89.8148 297.269 89.6362 297.333 89.5044 297.459C89.378 297.585 89.3148 297.731 89.3148 297.896C89.3148 298.028 89.3588 298.146 89.4467 298.25C89.5346 298.354 89.6664 298.44 89.8422 298.506L90.5098 298.761C90.6306 298.805 90.779 298.876 90.9548 298.975C91.1361 299.074 91.2954 299.217 91.4328 299.404C91.5701 299.591 91.6388 299.843 91.6388 300.162C91.6388 300.607 91.4822 300.967 91.169 301.242C90.8614 301.516 90.4713 301.654 89.9988 301.654ZM48.4533 317.621C48.0028 317.621 47.5907 317.508 47.2171 317.283C46.8436 317.052 46.5441 316.744 46.3189 316.36C46.0991 315.975 45.9892 315.549 45.9892 315.082C45.9892 314.615 46.0991 314.19 46.3189 313.805C46.5441 313.42 46.8436 313.116 47.2171 312.89C47.5907 312.66 48.0028 312.544 48.4533 312.544C48.7774 312.544 49.0823 312.602 49.368 312.717C49.6537 312.833 49.9064 312.992 50.1262 313.195V309.643H51.0162V317.555H50.1921V316.904C49.9724 317.123 49.7114 317.299 49.4092 317.431C49.1126 317.557 48.7939 317.621 48.4533 317.621ZM48.5687 316.813C48.8818 316.813 49.1648 316.736 49.4175 316.582C49.6757 316.423 49.879 316.214 50.0273 315.956C50.1811 315.692 50.2581 315.401 50.2581 315.082C50.2581 314.764 50.1811 314.475 50.0273 314.217C49.879 313.953 49.6757 313.745 49.4175 313.591C49.1648 313.431 48.8818 313.352 48.5687 313.352C48.2555 313.352 47.9698 313.431 47.7116 313.591C47.4589 313.745 47.2556 313.953 47.1018 314.217C46.9534 314.475 46.8793 314.764 46.8793 315.082C46.8793 315.401 46.9534 315.692 47.1018 315.956C47.2556 316.214 47.4589 316.423 47.7116 316.582C47.9698 316.736 48.2555 316.813 48.5687 316.813ZM52.5933 317.555V312.61H53.4834V317.555H52.5933ZM53.0383 311.72C52.8735 311.72 52.7334 311.662 52.6181 311.547C52.5027 311.432 52.445 311.292 52.445 311.127C52.445 310.956 52.5027 310.816 52.6181 310.706C52.7334 310.591 52.8735 310.533 53.0383 310.533C53.2087 310.533 53.3488 310.591 53.4586 310.706C53.574 310.816 53.6317 310.956 53.6317 311.127C53.6317 311.292 53.574 311.432 53.4586 311.547C53.3488 311.662 53.2087 311.72 53.0383 311.72ZM57.1797 317.621C56.7292 317.621 56.3171 317.508 55.9435 317.283C55.5699 317.052 55.2705 316.744 55.0453 316.36C54.8255 315.975 54.7156 315.549 54.7156 315.082C54.7156 314.615 54.8255 314.19 55.0453 313.805C55.2705 313.42 55.5699 313.116 55.9435 312.89C56.3171 312.66 56.7292 312.544 57.1797 312.544C57.5203 312.544 57.8389 312.607 58.1356 312.734C58.4378 312.86 58.6987 313.036 58.9185 313.261V312.61H59.7426V317.555H58.9185V316.904C58.6987 317.123 58.4378 317.299 58.1356 317.431C57.8389 317.557 57.5203 317.621 57.1797 317.621ZM57.295 316.813C57.6082 316.813 57.8911 316.736 58.1439 316.582C58.4021 316.423 58.6054 316.214 58.7537 315.956C58.9075 315.692 58.9844 315.401 58.9844 315.082C58.9844 314.764 58.9075 314.475 58.7537 314.217C58.6054 313.953 58.4021 313.745 58.1439 313.591C57.8911 313.431 57.6082 313.352 57.295 313.352C56.9819 313.352 56.6962 313.431 56.438 313.591C56.1853 313.745 55.982 313.953 55.8282 314.217C55.6798 314.475 55.6057 314.764 55.6057 315.082C55.6057 315.401 55.6798 315.692 55.8282 315.956C55.982 316.214 56.1853 316.423 56.438 316.582C56.6962 316.736 56.9819 316.813 57.295 316.813ZM63.3223 320.126C62.9432 320.126 62.5971 320.071 62.2839 319.961C61.9762 319.851 61.7015 319.7 61.4598 319.508L61.707 318.502C61.8719 318.739 62.0916 318.931 62.3663 319.079C62.641 319.228 62.9569 319.302 63.314 319.302C63.8689 319.302 64.3167 319.134 64.6573 318.799C65.0034 318.464 65.1765 318.033 65.1765 317.505V316.904C64.9567 317.123 64.6958 317.299 64.3936 317.431C64.0969 317.557 63.7783 317.621 63.4376 317.621C62.9871 317.621 62.5751 317.508 62.2015 317.283C61.8279 317.052 61.5285 316.744 61.3032 316.36C61.0835 315.975 60.9736 315.549 60.9736 315.082C60.9736 314.615 61.0835 314.19 61.3032 313.805C61.5285 313.42 61.8279 313.116 62.2015 312.89C62.5751 312.66 62.9871 312.544 63.4376 312.544C63.7783 312.544 64.0969 312.607 64.3936 312.734C64.6958 312.86 64.9567 313.036 65.1765 313.261V312.61H66.0006V317.555C66.0006 318.093 65.8742 318.555 65.6215 318.939C65.3743 319.324 65.0474 319.618 64.6408 319.821C64.2343 320.024 63.7947 320.126 63.3223 320.126ZM63.553 316.813C63.8662 316.813 64.1491 316.736 64.4018 316.582C64.66 316.423 64.8633 316.214 65.0117 315.956C65.1655 315.692 65.2424 315.401 65.2424 315.082C65.2424 314.764 65.1655 314.475 65.0117 314.217C64.8633 313.953 64.66 313.745 64.4018 313.591C64.1491 313.431 63.8662 313.352 63.553 313.352C63.2399 313.352 62.9542 313.431 62.696 313.591C62.4432 313.745 62.24 313.953 62.0861 314.217C61.9378 314.475 61.8636 314.764 61.8636 315.082C61.8636 315.401 61.9378 315.692 62.0861 315.956C62.24 316.214 62.4432 316.423 62.696 316.582C62.9542 316.736 63.2399 316.813 63.553 316.813ZM67.5777 317.555V312.61H68.4018V313.409C68.5831 313.118 68.8166 312.896 69.1022 312.742C69.3934 312.588 69.7066 312.511 70.0417 312.511C70.3933 312.511 70.7175 312.599 71.0141 312.775C71.3163 312.945 71.5608 313.195 71.7476 313.525C71.9344 313.849 72.0278 314.245 72.0278 314.712V317.555H71.1378V314.835C71.1378 314.445 71.0196 314.102 70.7834 313.805C70.5527 313.503 70.2258 313.352 69.8027 313.352C69.4566 313.352 69.1462 313.478 68.8715 313.731C68.6023 313.978 68.4677 314.338 68.4677 314.81V317.555H67.5777ZM75.7692 317.654C75.2912 317.654 74.8544 317.538 74.4589 317.307C74.0633 317.077 73.7474 316.766 73.5112 316.376C73.2804 315.986 73.165 315.555 73.165 315.082C73.165 314.604 73.2804 314.173 73.5112 313.789C73.7474 313.399 74.0633 313.088 74.4589 312.857C74.8544 312.627 75.2912 312.511 75.7692 312.511C76.2526 312.511 76.6894 312.627 77.0795 312.857C77.475 313.088 77.7882 313.399 78.0189 313.789C78.2552 314.173 78.3733 314.604 78.3733 315.082C78.3733 315.555 78.2552 315.986 78.0189 316.376C77.7882 316.766 77.475 317.077 77.0795 317.307C76.6894 317.538 76.2526 317.654 75.7692 317.654ZM75.7692 316.813C76.0878 316.813 76.3763 316.736 76.6345 316.582C76.8927 316.423 77.0987 316.214 77.2525 315.956C77.4064 315.692 77.4833 315.401 77.4833 315.082C77.4833 314.764 77.4064 314.475 77.2525 314.217C77.0987 313.953 76.8927 313.745 76.6345 313.591C76.3763 313.431 76.0878 313.352 75.7692 313.352C75.4505 313.352 75.1621 313.431 74.9039 313.591C74.6457 313.745 74.4396 313.953 74.2858 314.217C74.132 314.475 74.0551 314.764 74.0551 315.082C74.0551 315.401 74.132 315.692 74.2858 315.956C74.4396 316.214 74.6457 316.423 74.9039 316.582C75.1621 316.736 75.4505 316.813 75.7692 316.813ZM80.8842 317.654C80.6315 317.654 80.3595 317.607 80.0684 317.513C79.7827 317.415 79.5355 317.253 79.3267 317.027L79.5739 316.055C79.7277 316.313 79.9255 316.519 80.1673 316.673C80.409 316.821 80.6672 316.895 80.9419 316.895C81.2056 316.895 81.4034 316.832 81.5353 316.706C81.6671 316.574 81.733 316.415 81.733 316.228C81.733 316.014 81.6616 315.857 81.5188 315.758C81.3814 315.659 81.2578 315.591 81.1479 315.552L80.4804 315.297C80.3595 315.247 80.214 315.176 80.0436 315.082C79.8733 314.984 79.725 314.843 79.5986 314.662C79.4723 314.481 79.4091 314.245 79.4091 313.953C79.4091 313.69 79.4723 313.448 79.5986 313.228C79.725 313.008 79.9035 312.835 80.1343 312.709C80.365 312.577 80.637 312.511 80.9501 312.511C81.1974 312.511 81.4556 312.555 81.7248 312.643C81.994 312.731 82.222 312.879 82.4088 313.088L82.1616 314.061C82.0297 313.819 81.8512 313.627 81.6259 313.484C81.4007 313.341 81.1672 313.269 80.9254 313.269C80.7002 313.269 80.5216 313.333 80.3898 313.459C80.2634 313.585 80.2002 313.731 80.2002 313.896C80.2002 314.028 80.2442 314.146 80.3321 314.25C80.42 314.354 80.5518 314.44 80.7276 314.506L81.3952 314.761C81.516 314.805 81.6644 314.876 81.8402 314.975C82.0215 315.074 82.1808 315.217 82.3181 315.404C82.4555 315.591 82.5242 315.843 82.5242 316.162C82.5242 316.607 82.3676 316.967 82.0544 317.242C81.7468 317.516 81.3567 317.654 80.8842 317.654ZM86.1705 317.654C85.6541 317.654 85.1899 317.538 84.7778 317.307C84.3713 317.077 84.0499 316.764 83.8136 316.368C83.5829 315.967 83.4675 315.522 83.4675 315.033C83.4675 314.566 83.5801 314.143 83.8054 313.764C84.0306 313.379 84.3328 313.074 84.7119 312.849C85.0965 312.624 85.5195 312.511 85.981 312.511C86.437 312.511 86.8545 312.621 87.2336 312.841C87.6127 313.055 87.9149 313.346 88.1401 313.714C88.3654 314.083 88.478 314.5 88.478 314.967V315.33H85.2475C85.1047 315.33 84.9591 315.324 84.8108 315.313C84.6624 315.302 84.5168 315.286 84.374 315.264C84.4344 315.703 84.6322 316.071 84.9673 316.368C85.308 316.665 85.7118 316.813 86.1788 316.813C86.4919 316.813 86.7831 316.742 87.0523 316.599C87.3215 316.456 87.5385 316.266 87.7033 316.03L87.9506 317.044C87.7143 317.236 87.4424 317.387 87.1347 317.497C86.8325 317.601 86.5111 317.654 86.1705 317.654ZM84.3493 314.662C84.6459 314.613 84.9454 314.588 85.2475 314.588H86.8875C87.0084 314.588 87.1265 314.593 87.2418 314.604C87.3627 314.61 87.4836 314.618 87.6044 314.629C87.5275 314.245 87.3352 313.929 87.0276 313.681C86.7199 313.429 86.3711 313.302 85.981 313.302C85.5799 313.302 85.2283 313.437 84.9261 313.706C84.624 313.97 84.4317 314.289 84.3493 314.662ZM91.7839 317.621C91.3334 317.621 90.9213 317.508 90.5478 317.283C90.1742 317.052 89.8747 316.744 89.6495 316.36C89.4297 315.975 89.3199 315.549 89.3199 315.082C89.3199 314.615 89.4297 314.19 89.6495 313.805C89.8747 313.42 90.1742 313.116 90.5478 312.89C90.9213 312.66 91.3334 312.544 91.7839 312.544C92.108 312.544 92.4129 312.602 92.6986 312.717C92.9843 312.833 93.237 312.992 93.4568 313.195V309.643H94.3468V317.555H93.5227V316.904C93.303 317.123 93.042 317.299 92.7398 317.431C92.4432 317.557 92.1245 317.621 91.7839 317.621ZM91.8993 316.813C92.2124 316.813 92.4954 316.736 92.7481 316.582C93.0063 316.423 93.2096 316.214 93.3579 315.956C93.5117 315.692 93.5887 315.401 93.5887 315.082C93.5887 314.764 93.5117 314.475 93.3579 314.217C93.2096 313.953 93.0063 313.745 92.7481 313.591C92.4954 313.431 92.2124 313.352 91.8993 313.352C91.5861 313.352 91.3004 313.431 91.0422 313.591C90.7895 313.745 90.5862 313.953 90.4324 314.217C90.284 314.475 90.2099 314.764 90.2099 315.082C90.2099 315.401 90.284 315.692 90.4324 315.956C90.5862 316.214 90.7895 316.423 91.0422 316.582C91.3004 316.736 91.5861 316.813 91.8993 316.813Z" fill="black"/>
<g filter="url(#filter0_d_879_860)">
<rect x="136.497" y="283.621" width="99.0891" height="43.867" rx="5.93348" fill="#FFA8A8" shape-rendering="crispEdges"/>
<path d="M168.981 301.802L163.79 296.239V301.555H162.9V293.891L168.091 299.453V294.138H168.981V301.802ZM173.069 301.654C172.591 301.654 172.154 301.538 171.759 301.307C171.363 301.077 171.047 300.766 170.811 300.376C170.58 299.986 170.465 299.555 170.465 299.082C170.465 298.604 170.58 298.173 170.811 297.789C171.047 297.399 171.363 297.088 171.759 296.857C172.154 296.627 172.591 296.511 173.069 296.511C173.552 296.511 173.989 296.627 174.379 296.857C174.775 297.088 175.088 297.399 175.319 297.789C175.555 298.173 175.673 298.604 175.673 299.082C175.673 299.555 175.555 299.986 175.319 300.376C175.088 300.766 174.775 301.077 174.379 301.307C173.989 301.538 173.552 301.654 173.069 301.654ZM173.069 300.813C173.388 300.813 173.676 300.736 173.934 300.582C174.192 300.423 174.398 300.214 174.552 299.956C174.706 299.692 174.783 299.401 174.783 299.082C174.783 298.764 174.706 298.475 174.552 298.217C174.398 297.953 174.192 297.745 173.934 297.591C173.676 297.431 173.388 297.352 173.069 297.352C172.75 297.352 172.462 297.431 172.204 297.591C171.945 297.745 171.739 297.953 171.586 298.217C171.432 298.475 171.355 298.764 171.355 299.082C171.355 299.401 171.432 299.692 171.586 299.956C171.739 300.214 171.945 300.423 172.204 300.582C172.462 300.736 172.75 300.813 173.069 300.813ZM176.165 302.791C176.412 302.483 176.61 302.126 176.758 301.72C176.912 301.313 176.989 300.846 176.989 300.319H177.879C177.879 300.786 177.813 301.225 177.681 301.637C177.555 302.055 177.379 302.439 177.154 302.791H176.165ZM181.946 301.555V294.138H182.886V301.555H181.946ZM189.083 301.802L186.586 296.61H187.6L188.597 298.753C188.691 298.956 188.778 299.154 188.861 299.346C188.949 299.538 189.034 299.78 189.116 300.071C189.204 299.786 189.292 299.544 189.38 299.346C189.473 299.148 189.561 298.951 189.644 298.753L190.641 296.379L191.63 298.753C191.712 298.956 191.797 299.154 191.885 299.346C191.973 299.538 192.058 299.78 192.141 300.071C192.223 299.78 192.308 299.538 192.396 299.346C192.484 299.148 192.575 298.951 192.668 298.753L193.682 296.61H194.63L192.132 301.802L191.127 299.593C191.039 299.396 190.951 299.201 190.863 299.008C190.781 298.81 190.696 298.574 190.608 298.3C190.526 298.574 190.44 298.81 190.352 299.008C190.265 299.201 190.174 299.396 190.081 299.593L189.083 301.802ZM197.393 301.621C196.942 301.621 196.53 301.508 196.157 301.283C195.783 301.052 195.484 300.744 195.258 300.36C195.039 299.975 194.929 299.549 194.929 299.082C194.929 298.615 195.039 298.19 195.258 297.805C195.484 297.42 195.783 297.116 196.157 296.89C196.53 296.66 196.942 296.544 197.393 296.544C197.733 296.544 198.052 296.607 198.349 296.734C198.651 296.86 198.912 297.036 199.132 297.261V296.61H199.956V301.555H199.132V300.904C198.912 301.123 198.651 301.299 198.349 301.431C198.052 301.557 197.733 301.621 197.393 301.621ZM197.508 300.813C197.821 300.813 198.104 300.736 198.357 300.582C198.615 300.423 198.818 300.214 198.967 299.956C199.121 299.692 199.198 299.401 199.198 299.082C199.198 298.764 199.121 298.475 198.967 298.217C198.818 297.953 198.615 297.745 198.357 297.591C198.104 297.431 197.821 297.352 197.508 297.352C197.195 297.352 196.909 297.431 196.651 297.591C196.398 297.745 196.195 297.953 196.041 298.217C195.893 298.475 195.819 298.764 195.819 299.082C195.819 299.401 195.893 299.692 196.041 299.956C196.195 300.214 196.398 300.423 196.651 300.582C196.909 300.736 197.195 300.813 197.508 300.813ZM201.533 301.555V296.61H202.357V297.409C202.538 297.118 202.772 296.896 203.057 296.742C203.349 296.588 203.662 296.511 203.997 296.511C204.348 296.511 204.673 296.599 204.969 296.775C205.271 296.945 205.516 297.195 205.703 297.525C205.89 297.849 205.983 298.245 205.983 298.712V301.555H205.093V298.835C205.093 298.445 204.975 298.102 204.739 297.805C204.508 297.503 204.181 297.352 203.758 297.352C203.412 297.352 203.101 297.478 202.827 297.731C202.557 297.978 202.423 298.338 202.423 298.81V301.555H201.533ZM207.881 301.555V297.352H206.76V296.61H207.906V294.962H208.746V296.61H209.974V297.352H208.771V301.555H207.881ZM169.284 317.555V313.352H168.164V312.61H169.309V310.962H170.15V312.61H171.378V313.352H170.174V317.555H169.284ZM174.431 317.654C173.953 317.654 173.516 317.538 173.12 317.307C172.725 317.077 172.409 316.766 172.173 316.376C171.942 315.986 171.826 315.555 171.826 315.082C171.826 314.604 171.942 314.173 172.173 313.789C172.409 313.399 172.725 313.088 173.12 312.857C173.516 312.627 173.953 312.511 174.431 312.511C174.914 312.511 175.351 312.627 175.741 312.857C176.136 313.088 176.45 313.399 176.68 313.789C176.917 314.173 177.035 314.604 177.035 315.082C177.035 315.555 176.917 315.986 176.68 316.376C176.45 316.766 176.136 317.077 175.741 317.307C175.351 317.538 174.914 317.654 174.431 317.654ZM174.431 316.813C174.749 316.813 175.038 316.736 175.296 316.582C175.554 316.423 175.76 316.214 175.914 315.956C176.068 315.692 176.145 315.401 176.145 315.082C176.145 314.764 176.068 314.475 175.914 314.217C175.76 313.953 175.554 313.745 175.296 313.591C175.038 313.431 174.749 313.352 174.431 313.352C174.112 313.352 173.823 313.431 173.565 313.591C173.307 313.745 173.101 313.953 172.947 314.217C172.793 314.475 172.716 314.764 172.716 315.082C172.716 315.401 172.793 315.692 172.947 315.956C173.101 316.214 173.307 316.423 173.565 316.582C173.823 316.736 174.112 316.813 174.431 316.813ZM180.737 317.555V309.643H181.627V317.555H180.737ZM185.562 317.654C185.046 317.654 184.581 317.538 184.169 317.307C183.763 317.077 183.441 316.764 183.205 316.368C182.974 315.967 182.859 315.522 182.859 315.033C182.859 314.566 182.972 314.143 183.197 313.764C183.422 313.379 183.724 313.074 184.103 312.849C184.488 312.624 184.911 312.511 185.372 312.511C185.828 312.511 186.246 312.621 186.625 312.841C187.004 313.055 187.306 313.346 187.532 313.714C187.757 314.083 187.869 314.5 187.869 314.967V315.33H184.639C184.496 315.33 184.351 315.324 184.202 315.313C184.054 315.302 183.908 315.286 183.765 315.264C183.826 315.703 184.024 316.071 184.359 316.368C184.699 316.665 185.103 316.813 185.57 316.813C185.883 316.813 186.175 316.742 186.444 316.599C186.713 316.456 186.93 316.266 187.095 316.03L187.342 317.044C187.106 317.236 186.834 317.387 186.526 317.497C186.224 317.601 185.903 317.654 185.562 317.654ZM183.741 314.662C184.037 314.613 184.337 314.588 184.639 314.588H186.279C186.4 314.588 186.518 314.593 186.633 314.604C186.754 314.61 186.875 314.618 186.996 314.629C186.919 314.245 186.727 313.929 186.419 313.681C186.111 313.429 185.763 313.302 185.372 313.302C184.971 313.302 184.62 313.437 184.318 313.706C184.015 313.97 183.823 314.289 183.741 314.662ZM191.175 317.621C190.725 317.621 190.313 317.508 189.939 317.283C189.566 317.052 189.266 316.744 189.041 316.36C188.821 315.975 188.711 315.549 188.711 315.082C188.711 314.615 188.821 314.19 189.041 313.805C189.266 313.42 189.566 313.116 189.939 312.89C190.313 312.66 190.725 312.544 191.175 312.544C191.516 312.544 191.835 312.607 192.131 312.734C192.434 312.86 192.694 313.036 192.914 313.261V312.61H193.738V317.555H192.914V316.904C192.694 317.123 192.434 317.299 192.131 317.431C191.835 317.557 191.516 317.621 191.175 317.621ZM191.291 316.813C191.604 316.813 191.887 316.736 192.14 316.582C192.398 316.423 192.601 316.214 192.749 315.956C192.903 315.692 192.98 315.401 192.98 315.082C192.98 314.764 192.903 314.475 192.749 314.217C192.601 313.953 192.398 313.745 192.14 313.591C191.887 313.431 191.604 313.352 191.291 313.352C190.978 313.352 190.692 313.431 190.434 313.591C190.181 313.745 189.978 313.953 189.824 314.217C189.676 314.475 189.601 314.764 189.601 315.082C189.601 315.401 189.676 315.692 189.824 315.956C189.978 316.214 190.181 316.423 190.434 316.582C190.692 316.736 190.978 316.813 191.291 316.813ZM195.315 317.555V312.61H196.14V313.517C196.315 313.225 196.549 312.995 196.84 312.824C197.131 312.649 197.477 312.561 197.878 312.561L198.101 313.451C197.996 313.418 197.876 313.401 197.738 313.401C197.277 313.401 196.906 313.55 196.626 313.846C196.346 314.137 196.205 314.555 196.205 315.099V317.555H195.315ZM199.024 317.555V312.61H199.848V313.409C200.029 313.118 200.263 312.896 200.548 312.742C200.84 312.588 201.153 312.511 201.488 312.511C201.84 312.511 202.164 312.599 202.46 312.775C202.762 312.945 203.007 313.195 203.194 313.525C203.381 313.849 203.474 314.245 203.474 314.712V317.555H202.584V314.835C202.584 314.445 202.466 314.102 202.23 313.805C201.999 313.503 201.672 313.352 201.249 313.352C200.903 313.352 200.592 313.478 200.318 313.731C200.048 313.978 199.914 314.338 199.914 314.81V317.555H199.024Z" fill="black"/>
</g>
<path d="M37.3813 82.1055C36.8802 82.1055 36.4187 82.0176 35.9968 81.8418C35.5836 81.666 35.2232 81.4242 34.9156 81.1166V81.8945H32.9377V69.2364H35.232V74.4843C35.5221 74.2557 35.8473 74.0799 36.2078 73.9569C36.5682 73.8338 36.9593 73.7723 37.3813 73.7723C38.1197 73.7723 38.7877 73.9613 39.3855 74.3392C39.9832 74.7084 40.4579 75.2095 40.8095 75.8424C41.1699 76.4753 41.3501 77.1741 41.3501 77.9389C41.3501 78.7036 41.1699 79.4025 40.8095 80.0354C40.4579 80.6595 39.9832 81.1605 39.3855 81.5385C38.7877 81.9165 38.1197 82.1055 37.3813 82.1055ZM37.1176 80.0881C37.5043 80.0881 37.8559 79.9914 38.1724 79.798C38.4888 79.6046 38.7394 79.3453 38.924 79.0201C39.1174 78.6948 39.214 78.3344 39.214 77.9389C39.214 77.5433 39.1174 77.1829 38.924 76.8577C38.7394 76.5324 38.4888 76.2731 38.1724 76.0797C37.8559 75.8863 37.5043 75.7896 37.1176 75.7896C36.7308 75.7896 36.3792 75.8863 36.0627 76.0797C35.7463 76.2731 35.4913 76.5324 35.298 76.8577C35.1134 77.1829 35.0211 77.5433 35.0211 77.9389C35.0211 78.3344 35.1134 78.6948 35.298 79.0201C35.4913 79.3453 35.7463 79.6046 36.0627 79.798C36.3792 79.9914 36.7308 80.0881 37.1176 80.0881ZM49.8295 82.1582C48.9417 82.1582 48.1594 81.9736 47.4825 81.6045C46.8057 81.2353 46.2782 80.7298 45.9003 80.0881C45.5223 79.4376 45.3333 78.6948 45.3333 77.8598C45.3333 77.0598 45.5179 76.3522 45.8871 75.7369C46.2563 75.1128 46.7529 74.6205 47.377 74.2601C48.0099 73.8997 48.7088 73.7195 49.4735 73.7195C50.2559 73.7195 50.9547 73.8997 51.57 74.2601C52.1853 74.6117 52.6688 75.0952 53.0204 75.7105C53.3808 76.3259 53.561 77.0247 53.561 77.807V78.6113H48.7351C48.5154 78.6113 48.3044 78.5982 48.1022 78.5718C47.9001 78.5454 47.6979 78.5146 47.4957 78.4795C47.6012 79.0069 47.8605 79.4376 48.2736 79.7717C48.6956 80.0969 49.2318 80.2595 49.8823 80.2595C50.3833 80.2595 50.8316 80.1584 51.2272 79.9563C51.6316 79.7541 51.9612 79.5036 52.2161 79.2047L52.7172 81.2616C52.3216 81.5605 51.8733 81.7847 51.3722 81.9341C50.88 82.0835 50.3657 82.1582 49.8295 82.1582ZM47.443 77.095C47.8825 76.9983 48.3132 76.95 48.7351 76.95H50.1328C50.3789 76.95 50.6119 76.9588 50.8316 76.9763C51.0514 76.9939 51.258 77.0247 51.4513 77.0686C51.3195 76.594 51.0778 76.2204 50.7261 75.9479C50.3833 75.6754 49.957 75.5391 49.4472 75.5391C48.9637 75.5391 48.5417 75.6798 48.1813 75.9611C47.8297 76.2336 47.5836 76.6115 47.443 77.095ZM61.431 82.1055C60.7014 82.1055 60.0378 81.9165 59.44 81.5385C58.8423 81.1605 58.3632 80.6595 58.0028 80.0354C57.6512 79.4025 57.4754 78.7036 57.4754 77.9389C57.4754 77.1741 57.6512 76.4753 58.0028 75.8424C58.3632 75.2095 58.8423 74.7084 59.44 74.3392C60.0378 73.9613 60.7014 73.7723 61.431 73.7723C61.9409 73.7723 62.4068 73.8646 62.8287 74.0492C63.2506 74.225 63.611 74.4711 63.9099 74.7875V73.9832H65.8877V81.8945H63.9099V81.0902C63.611 81.4067 63.2506 81.6572 62.8287 81.8418C62.4068 82.0176 61.9409 82.1055 61.431 82.1055ZM61.7079 80.0881C62.0947 80.0881 62.4463 79.9914 62.7628 79.798C63.0792 79.6046 63.3298 79.3453 63.5144 79.0201C63.7077 78.6948 63.8044 78.3344 63.8044 77.9389C63.8044 77.5433 63.7077 77.1829 63.5144 76.8577C63.3298 76.5324 63.0792 76.2731 62.7628 76.0797C62.4463 75.8863 62.0947 75.7896 61.7079 75.7896C61.3212 75.7896 60.9696 75.8863 60.6531 76.0797C60.3366 76.2731 60.0817 76.5324 59.8883 76.8577C59.7037 77.1829 59.6114 77.5433 59.6114 77.9389C59.6114 78.3344 59.7037 78.6948 59.8883 79.0201C60.0817 79.3453 60.3366 79.6046 60.6531 79.798C60.9696 79.9914 61.3212 80.0881 61.7079 80.0881ZM74.5386 82.1582C73.7563 82.1582 73.0398 81.9692 72.3894 81.5913C71.7389 81.2133 71.2202 80.7034 70.8335 80.0617C70.4555 79.4201 70.2665 78.7124 70.2665 77.9389C70.2665 77.1565 70.4555 76.4489 70.8335 75.816C71.2202 75.1743 71.7389 74.6645 72.3894 74.2865C73.0398 73.9085 73.7563 73.7195 74.5386 73.7195C75.0836 73.7195 75.5978 73.8118 76.0813 73.9964C76.5736 74.1722 77.0087 74.4359 77.3867 74.7875L76.7933 77.1214C76.5736 76.761 76.2791 76.4489 75.9099 76.1852C75.5495 75.9127 75.1231 75.7765 74.6309 75.7765C74.2177 75.7765 73.8485 75.8732 73.5233 76.0665C73.1981 76.2599 72.9431 76.5192 72.7585 76.8445C72.574 77.1697 72.4817 77.5345 72.4817 77.9389C72.4817 78.3344 72.574 78.6992 72.7585 79.0333C72.9431 79.3585 73.1981 79.6178 73.5233 79.8112C73.8485 80.0046 74.2177 80.1013 74.6309 80.1013C75.1231 80.1013 75.5495 79.9694 75.9099 79.7057C76.2791 79.4332 76.5736 79.1168 76.7933 78.7564L77.3867 81.0902C77.0087 81.4418 76.5736 81.7099 76.0813 81.8945C75.5978 82.0703 75.0836 82.1582 74.5386 82.1582ZM85.494 82.1582C84.7117 82.1582 83.9953 81.9692 83.3448 81.5913C82.6943 81.2133 82.1757 80.7034 81.7889 80.0617C81.4109 79.4201 81.2219 78.7124 81.2219 77.9389C81.2219 77.1565 81.4109 76.4489 81.7889 75.816C82.1757 75.1743 82.6943 74.6645 83.3448 74.2865C83.9953 73.9085 84.7117 73.7195 85.494 73.7195C86.2851 73.7195 87.0016 73.9085 87.6432 74.2865C88.2937 74.6645 88.808 75.1743 89.186 75.816C89.5727 76.4489 89.7661 77.1565 89.7661 77.9389C89.7661 78.7124 89.5727 79.4201 89.186 80.0617C88.808 80.7034 88.2937 81.2133 87.6432 81.5913C87.0016 81.9692 86.2851 82.1582 85.494 82.1582ZM85.494 80.1013C85.8896 80.1013 86.2456 80.0046 86.562 79.8112C86.8873 79.6178 87.1422 79.3585 87.3268 79.0333C87.5202 78.6992 87.6169 78.3344 87.6169 77.9389C87.6169 77.5345 87.5202 77.1697 87.3268 76.8445C87.1422 76.5192 86.8873 76.2599 86.562 76.0665C86.2456 75.8732 85.8896 75.7765 85.494 75.7765C85.0984 75.7765 84.738 75.8732 84.4128 76.0665C84.0963 76.2599 83.8414 76.5192 83.648 76.8445C83.4634 77.1697 83.3711 77.5345 83.3711 77.9389C83.3711 78.3344 83.4634 78.6992 83.648 79.0333C83.8414 79.3585 84.0963 79.6178 84.4128 79.8112C84.738 80.0046 85.0984 80.1013 85.494 80.1013ZM94.149 81.8945V73.9832H96.2059V74.8535C96.4872 74.4843 96.8344 74.203 97.2476 74.0096C97.6607 73.8162 98.1046 73.7195 98.5793 73.7195C99.1419 73.7195 99.6649 73.8558 100.148 74.1283C100.641 74.392 101.036 74.7831 101.335 75.3018C101.643 75.8116 101.797 76.4313 101.797 77.1609V81.8945H99.5023V77.4642C99.5023 77.0247 99.3704 76.6335 99.1067 76.2907C98.843 75.9479 98.465 75.7765 97.9728 75.7765C97.5772 75.7765 97.2212 75.9127 96.9047 76.1852C96.5971 76.4489 96.4433 76.8665 96.4433 77.4378V81.8945H94.149Z" fill="#FF6060"/>
<path d="M32.0675 475.27L27.9141 471.116M27.9141 471.116L32.0675 466.963M27.9141 471.116H36.2209" stroke="black" stroke-width="1.1867" stroke-linecap="round" stroke-linejoin="round"/>
<path d="M45.5662 474.812V467.396H47.6429C48.1154 467.396 48.489 467.489 48.7637 467.676C49.0439 467.863 49.2444 468.091 49.3653 468.36C49.4861 468.624 49.5466 468.874 49.5466 469.11C49.5466 469.379 49.4834 469.626 49.357 469.851C49.2362 470.071 49.0713 470.253 48.8626 470.395C49.2636 470.577 49.5878 470.849 49.835 471.211C50.0877 471.574 50.2141 471.986 50.2141 472.447C50.2141 472.837 50.1152 473.214 49.9174 473.576C49.7251 473.939 49.4367 474.236 49.0521 474.466C48.673 474.697 48.2033 474.812 47.6429 474.812H45.5662ZM46.5057 473.972H47.577C47.9835 473.972 48.3104 473.892 48.5577 473.733C48.8049 473.574 48.9862 473.373 49.1016 473.131C49.2169 472.89 49.2746 472.651 49.2746 472.414C49.2746 472.184 49.2197 471.947 49.1098 471.706C48.9999 471.464 48.8214 471.263 48.5741 471.104C48.3269 470.939 47.9945 470.857 47.577 470.857H46.5057V473.972ZM46.5057 470.066H47.5687C47.8929 470.066 48.1538 469.989 48.3516 469.835C48.5549 469.676 48.6565 469.45 48.6565 469.159C48.6565 468.857 48.5577 468.629 48.3599 468.475C48.1621 468.316 47.9094 468.236 47.6017 468.236H46.5057V470.066ZM53.6137 474.878C53.1632 474.878 52.7512 474.766 52.3776 474.541C52.004 474.31 51.7046 474.002 51.4793 473.618C51.2596 473.233 51.1497 472.807 51.1497 472.34C51.1497 471.873 51.2596 471.447 51.4793 471.063C51.7046 470.678 52.004 470.373 52.3776 470.148C52.7512 469.917 53.1632 469.802 53.6137 469.802C53.9544 469.802 54.273 469.865 54.5697 469.992C54.8718 470.118 55.1328 470.294 55.3526 470.519V469.868H56.1767V474.812H55.3526V474.161C55.1328 474.381 54.8718 474.557 54.5697 474.689C54.273 474.815 53.9544 474.878 53.6137 474.878ZM53.7291 474.071C54.0423 474.071 54.3252 473.994 54.5779 473.84C54.8361 473.681 55.0394 473.472 55.1877 473.214C55.3416 472.95 55.4185 472.659 55.4185 472.34C55.4185 472.022 55.3416 471.733 55.1877 471.475C55.0394 471.211 54.8361 471.002 54.5779 470.849C54.3252 470.689 54.0423 470.61 53.7291 470.61C53.4159 470.61 53.1303 470.689 52.872 470.849C52.6193 471.002 52.416 471.211 52.2622 471.475C52.1139 471.733 52.0397 472.022 52.0397 472.34C52.0397 472.659 52.1139 472.95 52.2622 473.214C52.416 473.472 52.6193 473.681 52.872 473.84C53.1303 473.994 53.4159 474.071 53.7291 474.071ZM60.0283 474.911C59.5448 474.911 59.1053 474.796 58.7097 474.565C58.3142 474.335 57.9982 474.024 57.762 473.634C57.5258 473.244 57.4076 472.813 57.4076 472.34C57.4076 471.868 57.5258 471.436 57.762 471.046C57.9982 470.656 58.3142 470.346 58.7097 470.115C59.1053 469.884 59.5448 469.769 60.0283 469.769C60.3854 469.769 60.7205 469.832 61.0337 469.959C61.3468 470.085 61.6215 470.253 61.8578 470.461L61.5858 471.582C61.4485 471.307 61.2397 471.077 60.9595 470.89C60.6848 470.703 60.3716 470.61 60.02 470.61C59.7014 470.61 59.4102 470.689 59.1465 470.849C58.8883 471.002 58.6822 471.211 58.5284 471.475C58.3746 471.733 58.2977 472.022 58.2977 472.34C58.2977 472.653 58.3746 472.942 58.5284 473.206C58.6822 473.469 58.8883 473.681 59.1465 473.84C59.4102 473.994 59.7014 474.071 60.02 474.071C60.3716 474.071 60.6848 473.98 60.9595 473.799C61.2397 473.618 61.4485 473.384 61.5858 473.098L61.8578 474.219C61.6215 474.428 61.3468 474.595 61.0337 474.722C60.7205 474.848 60.3854 474.911 60.0283 474.911ZM66.1678 474.812L63.9345 472.093L65.7722 469.868H66.8023L64.9976 472.027L67.2968 474.812H66.1678ZM62.9456 474.812V466.901H63.8356V474.812H62.9456Z" fill="black"/>
<path d="M224.312 466.965L228.466 471.118M228.466 471.118L224.312 475.272M228.466 471.118H220.159" stroke="black" stroke-width="1.1867" stroke-linecap="round" stroke-linejoin="round"/>
<path d="M189.156 474.812V467.396H192.815V468.236H190.096V469.818H192.568V470.659H190.096V474.812H189.156ZM193.858 474.812V469.868H194.748V474.812H193.858ZM194.303 468.978C194.138 468.978 193.998 468.92 193.882 468.805C193.767 468.689 193.709 468.549 193.709 468.385C193.709 468.214 193.767 468.074 193.882 467.964C193.998 467.849 194.138 467.791 194.303 467.791C194.473 467.791 194.613 467.849 194.723 467.964C194.838 468.074 194.896 468.214 194.896 468.385C194.896 468.549 194.838 468.689 194.723 468.805C194.613 468.92 194.473 468.978 194.303 468.978ZM196.326 474.812V469.868H197.15V470.667C197.331 470.376 197.565 470.154 197.851 470C198.142 469.846 198.455 469.769 198.79 469.769C199.142 469.769 199.466 469.857 199.762 470.033C200.065 470.203 200.309 470.453 200.496 470.783C200.683 471.107 200.776 471.502 200.776 471.969V474.812H199.886V472.093C199.886 471.703 199.768 471.36 199.532 471.063C199.301 470.761 198.974 470.61 198.551 470.61C198.205 470.61 197.895 470.736 197.62 470.989C197.351 471.236 197.216 471.596 197.216 472.068V474.812H196.326ZM202.259 474.812V469.868H203.15V474.812H202.259ZM202.705 468.978C202.54 468.978 202.4 468.92 202.284 468.805C202.169 468.689 202.111 468.549 202.111 468.385C202.111 468.214 202.169 468.074 202.284 467.964C202.4 467.849 202.54 467.791 202.705 467.791C202.875 467.791 203.015 467.849 203.125 467.964C203.24 468.074 203.298 468.214 203.298 468.385C203.298 468.549 203.24 468.689 203.125 468.805C203.015 468.92 202.875 468.978 202.705 468.978ZM206.005 474.911C205.753 474.911 205.481 474.865 205.189 474.771C204.904 474.672 204.656 474.51 204.448 474.285L204.695 473.313C204.849 473.571 205.047 473.777 205.288 473.931C205.53 474.079 205.788 474.153 206.063 474.153C206.327 474.153 206.524 474.09 206.656 473.964C206.788 473.832 206.854 473.673 206.854 473.486C206.854 473.271 206.783 473.115 206.64 473.016C206.502 472.917 206.379 472.848 206.269 472.81L205.601 472.554C205.481 472.505 205.335 472.434 205.165 472.34C204.994 472.241 204.846 472.101 204.72 471.92C204.593 471.739 204.53 471.502 204.53 471.211C204.53 470.947 204.593 470.706 204.72 470.486C204.846 470.266 205.025 470.093 205.255 469.967C205.486 469.835 205.758 469.769 206.071 469.769C206.318 469.769 206.577 469.813 206.846 469.901C207.115 469.989 207.343 470.137 207.53 470.346L207.283 471.318C207.151 471.077 206.972 470.884 206.747 470.741C206.522 470.599 206.288 470.527 206.046 470.527C205.821 470.527 205.643 470.59 205.511 470.717C205.384 470.843 205.321 470.989 205.321 471.154C205.321 471.285 205.365 471.403 205.453 471.508C205.541 471.612 205.673 471.697 205.849 471.763L206.516 472.019C206.637 472.063 206.785 472.134 206.961 472.233C207.143 472.332 207.302 472.475 207.439 472.662C207.577 472.848 207.645 473.101 207.645 473.42C207.645 473.865 207.489 474.225 207.175 474.499C206.868 474.774 206.478 474.911 206.005 474.911ZM208.935 474.812V466.901H209.825V470.568C210.011 470.31 210.242 470.112 210.517 469.975C210.792 469.838 211.086 469.769 211.399 469.769C211.75 469.769 212.074 469.857 212.371 470.033C212.673 470.203 212.918 470.453 213.105 470.783C213.291 471.107 213.385 471.502 213.385 471.969V474.812H212.495V472.093C212.495 471.703 212.377 471.36 212.14 471.063C211.91 470.761 211.583 470.61 211.16 470.61C210.814 470.61 210.503 470.736 210.228 470.989C209.959 471.236 209.825 471.596 209.825 472.068V474.812H208.935Z" fill="black"/>
<path d="M113.357 473.938C113.049 473.938 112.76 473.88 112.489 473.763C112.218 473.646 111.983 473.488 111.782 473.288C111.582 473.087 111.423 472.852 111.306 472.582C111.19 472.311 111.131 472.022 111.131 471.714C111.131 471.406 111.19 471.117 111.306 470.846C111.423 470.576 111.581 470.34 111.781 470.139C111.981 469.939 112.217 469.78 112.488 469.664C112.759 469.547 113.048 469.488 113.355 469.488C113.663 469.488 113.952 469.547 114.223 469.664C114.494 469.78 114.73 469.939 114.93 470.139C115.13 470.339 115.289 470.574 115.406 470.845C115.523 471.116 115.581 471.405 115.581 471.713C115.581 472.02 115.523 472.309 115.406 472.58C115.289 472.851 115.131 473.087 114.931 473.287C114.73 473.487 114.495 473.646 114.224 473.763C113.954 473.88 113.665 473.939 113.357 473.938Z" fill="black"/>
<path d="M123.444 473.938C123.136 473.938 122.847 473.88 122.576 473.763C122.305 473.646 122.07 473.488 121.869 473.288C121.669 473.087 121.51 472.852 121.393 472.582C121.276 472.311 121.218 472.022 121.218 471.714C121.218 471.406 121.276 471.117 121.393 470.846C121.51 470.576 121.668 470.34 121.868 470.139C122.068 469.939 122.304 469.78 122.575 469.664C122.846 469.547 123.135 469.488 123.442 469.488C123.75 469.488 124.039 469.547 124.31 469.664C124.581 469.78 124.817 469.939 125.017 470.139C125.217 470.339 125.376 470.574 125.493 470.845C125.61 471.116 125.668 471.405 125.668 471.713C125.668 472.02 125.61 472.309 125.493 472.58C125.376 472.851 125.218 473.087 125.017 473.287C124.817 473.487 124.582 473.646 124.311 473.763C124.041 473.88 123.752 473.939 123.444 473.938Z" fill="black"/>
<path d="M133.531 473.938C133.223 473.938 132.934 473.88 132.663 473.763C132.392 473.646 132.156 473.488 131.956 473.288C131.756 473.087 131.597 472.852 131.48 472.582C131.363 472.311 131.305 472.022 131.305 471.714C131.305 471.406 131.363 471.117 131.48 470.846C131.597 470.576 131.755 470.34 131.955 470.139C132.155 469.939 132.39 469.78 132.661 469.664C132.932 469.547 133.222 469.488 133.529 469.488C133.837 469.488 134.126 469.547 134.397 469.664C134.668 469.78 134.903 469.939 135.104 470.139C135.304 470.339 135.463 470.574 135.58 470.845C135.696 471.116 135.755 471.405 135.755 471.713C135.755 472.02 135.697 472.309 135.58 472.58C135.463 472.851 135.305 473.087 135.104 473.287C134.904 473.487 134.668 473.646 134.398 473.763C134.128 473.88 133.839 473.939 133.531 473.938Z" fill="black"/>
<path d="M143.618 473.938C143.31 473.938 143.021 473.88 142.75 473.763C142.479 473.646 142.243 473.488 142.043 473.288C141.843 473.087 141.684 472.852 141.567 472.582C141.45 472.311 141.392 472.022 141.392 471.714C141.392 471.406 141.45 471.117 141.567 470.846C141.684 470.576 141.842 470.34 142.042 470.139C142.242 469.939 142.477 469.78 142.748 469.664C143.019 469.547 143.308 469.488 143.616 469.488C143.924 469.488 144.213 469.547 144.484 469.664C144.755 469.78 144.99 469.939 145.191 470.139C145.391 470.339 145.55 470.574 145.667 470.845C145.783 471.116 145.842 471.405 145.842 471.713C145.842 472.02 145.783 472.309 145.667 472.58C145.55 472.851 145.392 473.087 145.191 473.287C144.991 473.487 144.755 473.646 144.485 473.763C144.215 473.88 143.926 473.939 143.618 473.938Z" fill="#B6B6B6"/>
</g>
<defs>
<filter id="filter0_d_879_860" x="-11.8402" y="137.658" width="395.763" height="340.541" filterUnits="userSpaceOnUse" color-interpolation-filters="sRGB">
<feFlood flood-opacity="0" result="BackgroundImageFix"/>
<feColorMatrix in="SourceAlpha" type="matrix" values="0 0 0 0 0 0 0 0 0 0 0 0 0 0 0 0 0 0 127 0" result="hardAlpha"/>
<feOffset dy="2.37339"/>
<feGaussianBlur stdDeviation="74.1685"/>
<feComposite in2="hardAlpha" operator="out"/>
<feColorMatrix type="matrix" values="0 0 0 0 0 0 0 0 0 0 0 0 0 0 0 0 0 0 0.25 0"/>
<feBlend mode="normal" in2="BackgroundImageFix" result="effect1_dropShadow_879_860"/>
<feBlend mode="normal" in="SourceGraphic" in2="effect1_dropShadow_879_860" result="shape"/>
</filter>
<clipPath id="clip0_879_860">
<rect width="255.139" height="553" fill="white" transform="translate(0.620117)"/>
</clipPath>
</defs>
</svg>
