<svg width="256" height="553" viewBox="0 0 256 553" fill="none" xmlns="http://www.w3.org/2000/svg">
<rect width="255.139" height="553" transform="translate(0.746826)" fill="white"/>
<path d="M37.7717 259.408L32.2832 245.583H35.1016L37.3563 251.279C37.4651 251.546 37.569 251.828 37.6678 252.125C37.7766 252.412 37.8953 252.763 38.0239 253.178C38.1524 252.763 38.276 252.412 38.3947 252.125C38.5233 251.828 38.6419 251.546 38.7507 251.279L41.3021 245.138L43.8832 251.279C43.9919 251.546 44.1106 251.828 44.2392 252.125C44.3677 252.412 44.4963 252.763 44.6248 253.178C44.7534 252.763 44.8721 252.412 44.9809 252.125C45.0896 251.828 45.1935 251.546 45.2924 251.279L47.5174 245.583H50.2023L44.7138 259.408L41.9548 252.822C41.846 252.555 41.7323 252.273 41.6136 251.977C41.4949 251.68 41.3713 251.324 41.2428 250.909C41.1142 251.324 40.9906 251.68 40.8719 251.977C40.7533 252.263 40.6395 252.54 40.5307 252.807L37.7717 259.408ZM51.2796 258.934V244.693H53.8607V250.701C54.1771 250.384 54.5381 250.147 54.9435 249.989C55.3589 249.821 55.7989 249.737 56.2637 249.737C56.8966 249.737 57.485 249.89 58.0289 250.197C58.5827 250.493 59.0277 250.933 59.364 251.517C59.7101 252.09 59.8832 252.788 59.8832 253.608V258.934H57.3021V253.949C57.3021 253.455 57.1538 253.015 56.8571 252.629C56.5604 252.244 56.1352 252.051 55.5814 252.051C55.1364 252.051 54.7359 252.204 54.3799 252.511C54.0337 252.807 53.8607 253.277 53.8607 253.92V258.934H51.2796ZM65.6729 259.171C64.8521 259.171 64.1055 258.958 63.433 258.533C62.7606 258.108 62.2216 257.544 61.8162 256.842C61.4206 256.13 61.2228 255.344 61.2228 254.483C61.2228 253.623 61.4206 252.837 61.8162 252.125C62.2216 251.413 62.7606 250.849 63.433 250.434C64.1055 250.009 64.8521 249.796 65.6729 249.796C66.2465 249.796 66.7706 249.9 67.2453 250.108C67.72 250.305 68.1254 250.582 68.4617 250.938V250.033H70.6867V258.934H68.4617V258.029C68.1254 258.385 67.72 258.667 67.2453 258.874C66.7706 259.072 66.2465 259.171 65.6729 259.171ZM65.9844 256.901C66.4196 256.901 66.8151 256.793 67.1711 256.575C67.5271 256.357 67.809 256.066 68.0167 255.7C68.2342 255.334 68.343 254.928 68.343 254.483C68.343 254.038 68.2342 253.633 68.0167 253.267C67.809 252.901 67.5271 252.609 67.1711 252.392C66.8151 252.174 66.4196 252.066 65.9844 252.066C65.5493 252.066 65.1537 252.174 64.7977 252.392C64.4417 252.609 64.1549 252.901 63.9374 253.267C63.7297 253.633 63.6259 254.038 63.6259 254.483C63.6259 254.928 63.7297 255.334 63.9374 255.7C64.1549 256.066 64.4417 256.357 64.7977 256.575C65.1537 256.793 65.5493 256.901 65.9844 256.901ZM73.6785 258.934V252.08H72.0171V250.033H73.723V247.067H76.215V250.033H77.9803V252.08H76.2595V258.934H73.6785ZM83.7881 258.934V250.033H86.3692V258.934H83.7881ZM85.0786 248.743C84.693 248.743 84.3666 248.609 84.0996 248.342C83.8326 248.075 83.6991 247.749 83.6991 247.363C83.6991 246.968 83.8326 246.641 84.0996 246.384C84.3666 246.117 84.693 245.984 85.0786 245.984C85.4742 245.984 85.8005 246.117 86.0577 246.384C86.3247 246.641 86.4582 246.968 86.4582 247.363C86.4582 247.749 86.3247 248.075 86.0577 248.342C85.8005 248.609 85.4742 248.743 85.0786 248.743ZM91.2699 259.23C90.6666 259.23 90.0535 259.131 89.4305 258.934C88.8173 258.736 88.3377 258.469 87.9916 258.133L88.6295 255.7C88.9162 256.095 89.3118 256.442 89.8162 256.738C90.3304 257.035 90.8595 257.183 91.4034 257.183C91.7693 257.183 92.0313 257.114 92.1895 256.976C92.3577 256.837 92.4417 256.669 92.4417 256.471C92.4417 256.244 92.3577 256.081 92.1895 255.982C92.0214 255.873 91.8484 255.784 91.6704 255.715L90.4243 255.24C90.1474 255.131 89.831 254.983 89.475 254.795C89.119 254.607 88.8075 254.34 88.5405 253.994C88.2833 253.648 88.1548 253.193 88.1548 252.629C88.1548 252.115 88.2833 251.64 88.5405 251.205C88.7976 250.77 89.1684 250.419 89.653 250.152C90.1474 249.875 90.7408 249.737 91.433 249.737C92.0758 249.737 92.6741 249.845 93.2279 250.063C93.7916 250.281 94.202 250.523 94.4591 250.79L93.8657 253.134C93.5295 252.698 93.129 252.367 92.6642 252.14C92.2093 251.902 91.7742 251.784 91.3589 251.784C91.0424 251.784 90.81 251.848 90.6617 251.977C90.5133 252.105 90.4392 252.253 90.4392 252.422C90.4392 252.55 90.4886 252.679 90.5875 252.807C90.6963 252.926 90.8743 253.035 91.1215 253.134L92.2785 253.564C92.6148 253.682 92.9708 253.841 93.3466 254.038C93.7322 254.236 94.0586 254.513 94.3256 254.869C94.5926 255.215 94.7261 255.695 94.7261 256.308C94.7261 257.168 94.4047 257.871 93.7619 258.414C93.129 258.958 92.2983 259.23 91.2699 259.23ZM100.432 263.384L103.399 257.421L99.7649 250.033H102.613L104.185 253.297C104.324 253.593 104.442 253.865 104.541 254.113C104.65 254.35 104.739 254.582 104.808 254.81C104.887 254.582 104.981 254.35 105.09 254.113C105.199 253.865 105.328 253.593 105.476 253.297L107.078 250.033H109.822L103.206 263.384H100.432ZM114.82 259.23C113.94 259.23 113.134 259.018 112.402 258.592C111.671 258.167 111.087 257.594 110.652 256.872C110.227 256.15 110.014 255.354 110.014 254.483C110.014 253.603 110.227 252.807 110.652 252.095C111.087 251.373 111.671 250.8 112.402 250.375C113.134 249.949 113.94 249.737 114.82 249.737C115.71 249.737 116.516 249.949 117.238 250.375C117.97 250.8 118.548 251.373 118.974 252.095C119.409 252.807 119.626 253.603 119.626 254.483C119.626 255.354 119.409 256.15 118.974 256.872C118.548 257.594 117.97 258.167 117.238 258.592C116.516 259.018 115.71 259.23 114.82 259.23ZM114.82 256.916C115.265 256.916 115.666 256.807 116.022 256.59C116.388 256.372 116.674 256.081 116.882 255.715C117.1 255.339 117.208 254.928 117.208 254.483C117.208 254.029 117.1 253.618 116.882 253.252C116.674 252.886 116.388 252.595 116.022 252.377C115.666 252.16 115.265 252.051 114.82 252.051C114.375 252.051 113.97 252.16 113.604 252.377C113.248 252.595 112.961 252.886 112.743 253.252C112.536 253.618 112.432 254.029 112.432 254.483C112.432 254.928 112.536 255.339 112.743 255.715C112.961 256.081 113.248 256.372 113.604 256.59C113.97 256.807 114.375 256.916 114.82 256.916ZM124.581 259.23C123.958 259.23 123.369 259.082 122.816 258.785C122.262 258.479 121.812 258.039 121.466 257.465C121.129 256.882 120.961 256.179 120.961 255.359V250.033H123.542V255.017C123.542 255.512 123.691 255.952 123.987 256.338C124.294 256.723 124.719 256.916 125.263 256.916C125.708 256.916 126.104 256.758 126.45 256.442C126.806 256.115 126.984 255.65 126.984 255.047V250.033H129.565V258.934H127.221V257.999C126.905 258.395 126.514 258.701 126.049 258.919C125.594 259.126 125.105 259.23 124.581 259.23ZM131.528 258.934V250.033H133.842V251.561C134.148 251.047 134.534 250.651 134.999 250.375C135.473 250.088 136.027 249.944 136.66 249.944L137.224 252.229C137.036 252.169 136.823 252.14 136.586 252.14C135.844 252.14 135.246 252.382 134.791 252.867C134.336 253.341 134.109 254.024 134.109 254.914V258.934H131.528ZM147.791 259.171C147.227 259.171 146.708 259.072 146.233 258.874C145.769 258.676 145.363 258.405 145.017 258.058V258.934H142.792V244.693H145.373V250.597C145.699 250.34 146.065 250.142 146.471 250.004C146.876 249.865 147.316 249.796 147.791 249.796C148.622 249.796 149.373 250.009 150.046 250.434C150.718 250.849 151.252 251.413 151.648 252.125C152.053 252.837 152.256 253.623 152.256 254.483C152.256 255.344 152.053 256.13 151.648 256.842C151.252 257.544 150.718 258.108 150.046 258.533C149.373 258.958 148.622 259.171 147.791 259.171ZM147.494 256.901C147.929 256.901 148.325 256.793 148.681 256.575C149.037 256.357 149.319 256.066 149.526 255.7C149.744 255.334 149.853 254.928 149.853 254.483C149.853 254.038 149.744 253.633 149.526 253.267C149.319 252.901 149.037 252.609 148.681 252.392C148.325 252.174 147.929 252.066 147.494 252.066C147.059 252.066 146.663 252.174 146.307 252.392C145.951 252.609 145.665 252.901 145.447 253.267C145.239 253.633 145.136 254.038 145.136 254.483C145.136 254.928 145.239 255.334 145.447 255.7C145.665 256.066 145.951 256.357 146.307 256.575C146.663 256.793 147.059 256.901 147.494 256.901ZM153.794 258.934V250.033H156.375V258.934H153.794ZM155.084 248.743C154.699 248.743 154.372 248.609 154.105 248.342C153.838 248.075 153.705 247.749 153.705 247.363C153.705 246.968 153.838 246.641 154.105 246.384C154.372 246.117 154.699 245.984 155.084 245.984C155.48 245.984 155.806 246.117 156.063 246.384C156.33 246.641 156.464 246.968 156.464 247.363C156.464 247.749 156.33 248.075 156.063 248.342C155.806 248.609 155.48 248.743 155.084 248.743ZM158.353 258.934V250.033H160.667V251.561C160.974 251.047 161.36 250.651 161.824 250.375C162.299 250.088 162.853 249.944 163.486 249.944L164.05 252.229C163.862 252.169 163.649 252.14 163.412 252.14C162.67 252.14 162.072 252.382 161.617 252.867C161.162 253.341 160.934 254.024 160.934 254.914V258.934H158.353ZM166.213 258.934V252.08H164.552V250.033H166.257V247.067H168.749V250.033H170.515V252.08H168.794V258.934H166.213ZM171.85 258.934V244.693H174.431V250.701C174.747 250.384 175.108 250.147 175.514 249.989C175.929 249.821 176.369 249.737 176.834 249.737C177.467 249.737 178.055 249.89 178.599 250.197C179.153 250.493 179.598 250.933 179.934 251.517C180.28 252.09 180.453 252.788 180.453 253.608V258.934H177.872V253.949C177.872 253.455 177.724 253.015 177.427 252.629C177.13 252.244 176.705 252.051 176.151 252.051C175.706 252.051 175.306 252.204 174.95 252.511C174.604 252.807 174.431 253.277 174.431 253.92V258.934H171.85ZM186.258 259.171C185.427 259.171 184.676 258.958 184.003 258.533C183.331 258.108 182.792 257.544 182.386 256.842C181.991 256.13 181.793 255.344 181.793 254.483C181.793 253.623 181.991 252.837 182.386 252.125C182.792 251.413 183.331 250.849 184.003 250.434C184.676 250.009 185.427 249.796 186.258 249.796C186.733 249.796 187.173 249.865 187.578 250.004C187.984 250.142 188.349 250.34 188.676 250.597V244.693H191.257V258.934H189.032V258.058C188.696 258.405 188.29 258.676 187.815 258.874C187.341 259.072 186.822 259.171 186.258 259.171ZM186.555 256.901C186.99 256.901 187.385 256.793 187.741 256.575C188.097 256.357 188.379 256.066 188.587 255.7C188.804 255.334 188.913 254.928 188.913 254.483C188.913 254.038 188.804 253.633 188.587 253.267C188.379 252.901 188.097 252.609 187.741 252.392C187.385 252.174 186.99 252.066 186.555 252.066C186.119 252.066 185.724 252.174 185.368 252.392C185.012 252.609 184.725 252.901 184.507 253.267C184.3 253.633 184.196 254.038 184.196 254.483C184.196 254.928 184.3 255.334 184.507 255.7C184.725 256.066 185.012 256.357 185.368 256.575C185.724 256.793 186.119 256.901 186.555 256.901ZM197.215 259.171C196.395 259.171 195.648 258.958 194.975 258.533C194.303 258.108 193.764 257.544 193.359 256.842C192.963 256.13 192.765 255.344 192.765 254.483C192.765 253.623 192.963 252.837 193.359 252.125C193.764 251.413 194.303 250.849 194.975 250.434C195.648 250.009 196.395 249.796 197.215 249.796C197.789 249.796 198.313 249.9 198.788 250.108C199.262 250.305 199.668 250.582 200.004 250.938V250.033H202.229V258.934H200.004V258.029C199.668 258.385 199.262 258.667 198.788 258.874C198.313 259.072 197.789 259.171 197.215 259.171ZM197.527 256.901C197.962 256.901 198.358 256.793 198.714 256.575C199.07 256.357 199.351 256.066 199.559 255.7C199.777 255.334 199.885 254.928 199.885 254.483C199.885 254.038 199.777 253.633 199.559 253.267C199.351 252.901 199.07 252.609 198.714 252.392C198.358 252.174 197.962 252.066 197.527 252.066C197.092 252.066 196.696 252.174 196.34 252.392C195.984 252.609 195.697 252.901 195.48 253.267C195.272 253.633 195.168 254.038 195.168 254.483C195.168 254.928 195.272 255.334 195.48 255.7C195.697 256.066 195.984 256.357 196.34 256.575C196.696 256.793 197.092 256.901 197.527 256.901ZM203.96 263.384L206.927 257.421L203.293 250.033H206.141L207.713 253.297C207.851 253.593 207.97 253.865 208.069 254.113C208.178 254.35 208.267 254.582 208.336 254.81C208.415 254.582 208.509 254.35 208.618 254.113C208.727 253.865 208.855 253.593 209.003 253.297L210.606 250.033H213.35L206.734 263.384H203.96ZM216.027 254.038C216.027 253.317 216.121 252.708 216.309 252.214C216.496 251.719 216.714 251.289 216.961 250.923C217.209 250.548 217.426 250.197 217.614 249.87C217.802 249.544 217.896 249.198 217.896 248.832C217.896 248.426 217.762 248.125 217.495 247.927C217.238 247.729 216.897 247.63 216.472 247.63C216.007 247.63 215.602 247.744 215.255 247.971C214.919 248.199 214.642 248.441 214.425 248.698V246.117C214.771 245.86 215.142 245.662 215.537 245.524C215.933 245.385 216.373 245.316 216.857 245.316C217.56 245.316 218.168 245.455 218.682 245.732C219.196 246.009 219.592 246.389 219.869 246.874C220.155 247.358 220.299 247.917 220.299 248.55C220.299 249.143 220.195 249.672 219.987 250.137C219.78 250.592 219.532 251.017 219.246 251.413C218.959 251.808 218.692 252.214 218.445 252.629C218.207 253.045 218.054 253.514 217.985 254.038H216.027ZM217.006 259.23C216.571 259.23 216.2 259.082 215.893 258.785C215.597 258.479 215.448 258.108 215.448 257.673C215.448 257.238 215.597 256.872 215.893 256.575C216.2 256.268 216.571 256.115 217.006 256.115C217.441 256.115 217.807 256.268 218.103 256.575C218.41 256.872 218.563 257.238 218.563 257.673C218.563 258.108 218.41 258.479 218.103 258.785C217.807 259.082 217.441 259.23 217.006 259.23Z" fill="black"/>
<path d="M54.5932 293.246V285.829H57.0242C57.6945 285.829 58.2769 285.939 58.7713 286.159C59.2713 286.379 59.6833 286.67 60.0075 287.032C60.3316 287.395 60.5733 287.796 60.7327 288.236C60.892 288.67 60.9717 289.104 60.9717 289.538C60.9717 289.972 60.892 290.408 60.7327 290.848C60.5733 291.282 60.3316 291.68 60.0075 292.043C59.6833 292.406 59.2713 292.697 58.7713 292.916C58.2769 293.136 57.6945 293.246 57.0242 293.246H54.5932ZM55.5326 292.406H56.9254C57.4967 292.406 57.9774 292.318 58.3675 292.142C58.7576 291.961 59.0735 291.727 59.3152 291.441C59.557 291.15 59.73 290.837 59.8344 290.502C59.9443 290.167 59.9992 289.845 59.9992 289.538C59.9992 289.23 59.9443 288.909 59.8344 288.573C59.73 288.238 59.557 287.928 59.3152 287.642C59.0735 287.351 58.7576 287.118 58.3675 286.942C57.9774 286.76 57.4967 286.67 56.9254 286.67H55.5326V292.406ZM64.379 293.312C63.9285 293.312 63.5165 293.199 63.1429 292.974C62.7693 292.743 62.4699 292.436 62.2446 292.051C62.0249 291.667 61.915 291.241 61.915 290.774C61.915 290.307 62.0249 289.881 62.2446 289.496C62.4699 289.112 62.7693 288.807 63.1429 288.582C63.5165 288.351 63.9285 288.236 64.379 288.236C64.7197 288.236 65.0383 288.299 65.335 288.425C65.6371 288.552 65.8981 288.727 66.1179 288.953V288.302H66.942V293.246H66.1179V292.595C65.8981 292.815 65.6371 292.991 65.335 293.122C65.0383 293.249 64.7197 293.312 64.379 293.312ZM64.4944 292.504C64.8076 292.504 65.0905 292.427 65.3432 292.274C65.6014 292.114 65.8047 291.906 65.953 291.647C66.1069 291.384 66.1838 291.092 66.1838 290.774C66.1838 290.455 66.1069 290.167 65.953 289.909C65.8047 289.645 65.6014 289.436 65.3432 289.282C65.0905 289.123 64.8076 289.043 64.4944 289.043C64.1812 289.043 63.8956 289.123 63.6373 289.282C63.3846 289.436 63.1813 289.645 63.0275 289.909C62.8792 290.167 62.805 290.455 62.805 290.774C62.805 291.092 62.8792 291.384 63.0275 291.647C63.1813 291.906 63.3846 292.114 63.6373 292.274C63.8956 292.427 64.1812 292.504 64.4944 292.504ZM68.313 295.718L69.92 292.521L67.8268 288.302H68.8322L69.8871 290.444C69.9805 290.636 70.0711 290.826 70.159 291.013C70.2469 291.2 70.3348 291.425 70.4227 291.689C70.5161 291.425 70.604 291.2 70.6864 291.013C70.7743 290.821 70.8677 290.631 70.9666 290.444L72.0379 288.302H72.9857L69.2772 295.718H68.313Z" fill="black"/>
<rect x="51.4781" y="301.125" width="36.1942" height="26.7006" rx="3.26341" stroke="black" stroke-width="0.593348"/>
<path d="M106.214 293.246V285.582L109.659 290.329L113.038 285.582V293.246H112.098V289.818C112.098 289.593 112.101 289.348 112.107 289.084C112.112 288.815 112.131 288.51 112.164 288.17C111.994 288.472 111.826 288.738 111.662 288.969C111.502 289.194 111.357 289.403 111.225 289.595L109.626 291.862L107.978 289.595C107.841 289.403 107.692 289.194 107.533 288.969C107.379 288.738 107.214 288.472 107.038 288.17C107.071 288.51 107.091 288.815 107.096 289.084C107.102 289.348 107.104 289.593 107.104 289.818V293.246H106.214ZM117.125 293.345C116.647 293.345 116.211 293.23 115.815 292.999C115.42 292.768 115.104 292.458 114.867 292.068C114.637 291.678 114.521 291.246 114.521 290.774C114.521 290.296 114.637 289.865 114.867 289.48C115.104 289.09 115.42 288.78 115.815 288.549C116.211 288.318 116.647 288.203 117.125 288.203C117.609 288.203 118.046 288.318 118.436 288.549C118.831 288.78 119.144 289.09 119.375 289.48C119.611 289.865 119.73 290.296 119.73 290.774C119.73 291.246 119.611 291.678 119.375 292.068C119.144 292.458 118.831 292.768 118.436 292.999C118.046 293.23 117.609 293.345 117.125 293.345ZM117.125 292.504C117.444 292.504 117.732 292.427 117.991 292.274C118.249 292.114 118.455 291.906 118.609 291.647C118.763 291.384 118.84 291.092 118.84 290.774C118.84 290.455 118.763 290.167 118.609 289.909C118.455 289.645 118.249 289.436 117.991 289.282C117.732 289.123 117.444 289.043 117.125 289.043C116.807 289.043 116.518 289.123 116.26 289.282C116.002 289.436 115.796 289.645 115.642 289.909C115.488 290.167 115.411 290.455 115.411 290.774C115.411 291.092 115.488 291.384 115.642 291.647C115.796 291.906 116.002 292.114 116.26 292.274C116.518 292.427 116.807 292.504 117.125 292.504ZM120.963 293.246V288.302H121.787V289.101C121.968 288.81 122.202 288.587 122.488 288.433C122.779 288.28 123.092 288.203 123.427 288.203C123.779 288.203 124.103 288.291 124.4 288.466C124.702 288.637 124.946 288.887 125.133 289.216C125.32 289.54 125.413 289.936 125.413 290.403V293.246H124.523V290.527C124.523 290.137 124.405 289.793 124.169 289.496C123.938 289.194 123.611 289.043 123.188 289.043C122.842 289.043 122.532 289.17 122.257 289.422C121.988 289.67 121.853 290.029 121.853 290.502V293.246H120.963ZM127.311 293.246V289.043H126.19V288.302H127.336V286.653H128.176V288.302H129.404V289.043H128.201V293.246H127.311ZM130.443 293.246V285.335H131.333V289.002C131.52 288.744 131.75 288.546 132.025 288.409C132.3 288.271 132.594 288.203 132.907 288.203C133.258 288.203 133.583 288.291 133.879 288.466C134.181 288.637 134.426 288.887 134.613 289.216C134.799 289.54 134.893 289.936 134.893 290.403V293.246H134.003V290.527C134.003 290.137 133.885 289.793 133.648 289.496C133.418 289.194 133.091 289.043 132.668 289.043C132.322 289.043 132.011 289.17 131.737 289.422C131.467 289.67 131.333 290.029 131.333 290.502V293.246H130.443Z" fill="black"/>
<rect x="103.099" y="301.125" width="43.3144" height="26.7006" rx="3.26341" stroke="black" stroke-width="0.593348"/>
<path d="M162.137 293.246V289.661L159.912 285.829H161L162.22 287.988C162.297 288.126 162.368 288.263 162.434 288.4C162.506 288.532 162.577 288.686 162.648 288.862C162.72 288.686 162.791 288.532 162.863 288.4C162.934 288.263 163.008 288.126 163.085 287.988L164.313 285.829H165.302L163.077 289.661V293.246H162.137ZM167.617 293.345C167.101 293.345 166.636 293.23 166.224 292.999C165.818 292.768 165.496 292.455 165.26 292.059C165.029 291.658 164.914 291.213 164.914 290.724C164.914 290.257 165.027 289.834 165.252 289.455C165.477 289.071 165.779 288.766 166.158 288.541C166.543 288.315 166.966 288.203 167.428 288.203C167.884 288.203 168.301 288.313 168.68 288.532C169.059 288.747 169.361 289.038 169.587 289.406C169.812 289.774 169.925 290.191 169.925 290.658V291.021H166.694C166.551 291.021 166.406 291.016 166.257 291.005C166.109 290.994 165.963 290.977 165.821 290.955C165.881 291.395 166.079 291.763 166.414 292.059C166.755 292.356 167.158 292.504 167.625 292.504C167.939 292.504 168.23 292.433 168.499 292.29C168.768 292.147 168.985 291.958 169.15 291.722L169.397 292.735C169.161 292.927 168.889 293.079 168.581 293.188C168.279 293.293 167.958 293.345 167.617 293.345ZM165.796 290.354C166.093 290.304 166.392 290.279 166.694 290.279H168.334C168.455 290.279 168.573 290.285 168.688 290.296C168.809 290.301 168.93 290.31 169.051 290.321C168.974 289.936 168.782 289.62 168.474 289.373C168.167 289.12 167.818 288.994 167.428 288.994C167.027 288.994 166.675 289.128 166.373 289.398C166.071 289.661 165.878 289.98 165.796 290.354ZM173.231 293.312C172.78 293.312 172.368 293.199 171.994 292.974C171.621 292.743 171.321 292.436 171.096 292.051C170.876 291.667 170.766 291.241 170.766 290.774C170.766 290.307 170.876 289.881 171.096 289.496C171.321 289.112 171.621 288.807 171.994 288.582C172.368 288.351 172.78 288.236 173.231 288.236C173.571 288.236 173.89 288.299 174.186 288.425C174.489 288.552 174.75 288.727 174.969 288.953V288.302H175.793V293.246H174.969V292.595C174.75 292.815 174.489 292.991 174.186 293.122C173.89 293.249 173.571 293.312 173.231 293.312ZM173.346 292.504C173.659 292.504 173.942 292.427 174.195 292.274C174.453 292.114 174.656 291.906 174.805 291.647C174.958 291.384 175.035 291.092 175.035 290.774C175.035 290.455 174.958 290.167 174.805 289.909C174.656 289.645 174.453 289.436 174.195 289.282C173.942 289.123 173.659 289.043 173.346 289.043C173.033 289.043 172.747 289.123 172.489 289.282C172.236 289.436 172.033 289.645 171.879 289.909C171.731 290.167 171.656 290.455 171.656 290.774C171.656 291.092 171.731 291.384 171.879 291.647C172.033 291.906 172.236 292.114 172.489 292.274C172.747 292.427 173.033 292.504 173.346 292.504ZM177.371 293.246V288.302H178.195V289.208C178.37 288.917 178.604 288.686 178.895 288.516C179.186 288.34 179.532 288.252 179.933 288.252L180.156 289.142C180.052 289.109 179.931 289.093 179.793 289.093C179.332 289.093 178.961 289.241 178.681 289.538C178.401 289.829 178.261 290.246 178.261 290.79V293.246H177.371Z" fill="black"/>
<rect x="157.687" y="301.125" width="43.3144" height="26.7006" rx="3.26341" stroke="black" stroke-width="0.593348"/>
<path d="M37.508 82.1055C37.0069 82.1055 36.5454 82.0176 36.1235 81.8418C35.7103 81.666 35.3499 81.4242 35.0423 81.1166V81.8945H33.0645V69.2364H35.3587V74.4843C35.6488 74.2557 35.9741 74.0799 36.3345 73.9569C36.6949 73.8338 37.086 73.7723 37.508 73.7723C38.2464 73.7723 38.9144 73.9613 39.5122 74.3392C40.1099 74.7084 40.5846 75.2095 40.9362 75.8424C41.2966 76.4753 41.4768 77.1741 41.4768 77.9389C41.4768 78.7036 41.2966 79.4025 40.9362 80.0354C40.5846 80.6595 40.1099 81.1605 39.5122 81.5385C38.9144 81.9165 38.2464 82.1055 37.508 82.1055ZM37.2443 80.0881C37.631 80.0881 37.9826 79.9914 38.2991 79.798C38.6156 79.6046 38.8661 79.3453 39.0507 79.0201C39.2441 78.6948 39.3408 78.3344 39.3408 77.9389C39.3408 77.5433 39.2441 77.1829 39.0507 76.8577C38.8661 76.5324 38.6156 76.2731 38.2991 76.0797C37.9826 75.8863 37.631 75.7896 37.2443 75.7896C36.8575 75.7896 36.5059 75.8863 36.1894 76.0797C35.873 76.2731 35.618 76.5324 35.4247 76.8577C35.2401 77.1829 35.1478 77.5433 35.1478 77.9389C35.1478 78.3344 35.2401 78.6948 35.4247 79.0201C35.618 79.3453 35.873 79.6046 36.1894 79.798C36.5059 79.9914 36.8575 80.0881 37.2443 80.0881ZM49.9562 82.1582C49.0684 82.1582 48.2861 81.9736 47.6092 81.6045C46.9324 81.2353 46.4049 80.7298 46.027 80.0881C45.649 79.4376 45.46 78.6948 45.46 77.8598C45.46 77.0598 45.6446 76.3522 46.0138 75.7369C46.383 75.1128 46.8796 74.6205 47.5037 74.2601C48.1366 73.8997 48.8355 73.7195 49.6002 73.7195C50.3826 73.7195 51.0814 73.8997 51.6967 74.2601C52.3121 74.6117 52.7955 75.0952 53.1471 75.7105C53.5075 76.3259 53.6877 77.0247 53.6877 77.807V78.6113H48.8618C48.6421 78.6113 48.4311 78.5982 48.2289 78.5718C48.0268 78.5454 47.8246 78.5146 47.6224 78.4795C47.7279 79.0069 47.9872 79.4376 48.4004 79.7717C48.8223 80.0969 49.3585 80.2595 50.009 80.2595C50.51 80.2595 50.9583 80.1584 51.3539 79.9563C51.7583 79.7541 52.0879 79.5036 52.3428 79.2047L52.8439 81.2616C52.4483 81.5605 52 81.7847 51.4989 81.9341C51.0067 82.0835 50.4925 82.1582 49.9562 82.1582ZM47.5697 77.095C48.0092 76.9983 48.4399 76.95 48.8618 76.95H50.2595C50.5056 76.95 50.7386 76.9588 50.9583 76.9763C51.1781 76.9939 51.3847 77.0247 51.5781 77.0686C51.4462 76.594 51.2045 76.2204 50.8529 75.9479C50.51 75.6754 50.0837 75.5391 49.5739 75.5391C49.0904 75.5391 48.6685 75.6798 48.3081 75.9611C47.9564 76.2336 47.7103 76.6115 47.5697 77.095ZM61.5578 82.1055C60.8282 82.1055 60.1645 81.9165 59.5667 81.5385C58.969 81.1605 58.4899 80.6595 58.1295 80.0354C57.7779 79.4025 57.6021 78.7036 57.6021 77.9389C57.6021 77.1741 57.7779 76.4753 58.1295 75.8424C58.4899 75.2095 58.969 74.7084 59.5667 74.3392C60.1645 73.9613 60.8282 73.7723 61.5578 73.7723C62.0676 73.7723 62.5335 73.8646 62.9554 74.0492C63.3774 74.225 63.7378 74.4711 64.0366 74.7875V73.9832H66.0145V81.8945H64.0366V81.0902C63.7378 81.4067 63.3774 81.6572 62.9554 81.8418C62.5335 82.0176 62.0676 82.1055 61.5578 82.1055ZM61.8346 80.0881C62.2214 80.0881 62.573 79.9914 62.8895 79.798C63.2059 79.6046 63.4565 79.3453 63.6411 79.0201C63.8345 78.6948 63.9311 78.3344 63.9311 77.9389C63.9311 77.5433 63.8345 77.1829 63.6411 76.8577C63.4565 76.5324 63.2059 76.2731 62.8895 76.0797C62.573 75.8863 62.2214 75.7896 61.8346 75.7896C61.4479 75.7896 61.0963 75.8863 60.7798 76.0797C60.4634 76.2731 60.2084 76.5324 60.015 76.8577C59.8305 77.1829 59.7382 77.5433 59.7382 77.9389C59.7382 78.3344 59.8305 78.6948 60.015 79.0201C60.2084 79.3453 60.4634 79.6046 60.7798 79.798C61.0963 79.9914 61.4479 80.0881 61.8346 80.0881ZM74.6653 82.1582C73.883 82.1582 73.1665 81.9692 72.5161 81.5913C71.8656 81.2133 71.3469 80.7034 70.9602 80.0617C70.5822 79.4201 70.3932 78.7124 70.3932 77.9389C70.3932 77.1565 70.5822 76.4489 70.9602 75.816C71.3469 75.1743 71.8656 74.6645 72.5161 74.2865C73.1665 73.9085 73.883 73.7195 74.6653 73.7195C75.2103 73.7195 75.7245 73.8118 76.208 73.9964C76.7003 74.1722 77.1354 74.4359 77.5134 74.7875L76.92 77.1214C76.7003 76.761 76.4058 76.4489 76.0366 76.1852C75.6762 75.9127 75.2499 75.7765 74.7576 75.7765C74.3445 75.7765 73.9753 75.8732 73.65 76.0665C73.3248 76.2599 73.0699 76.5192 72.8853 76.8445C72.7007 77.1697 72.6084 77.5345 72.6084 77.9389C72.6084 78.3344 72.7007 78.6992 72.8853 79.0333C73.0699 79.3585 73.3248 79.6178 73.65 79.8112C73.9753 80.0046 74.3445 80.1013 74.7576 80.1013C75.2499 80.1013 75.6762 79.9694 76.0366 79.7057C76.4058 79.4332 76.7003 79.1168 76.92 78.7564L77.5134 81.0902C77.1354 81.4418 76.7003 81.7099 76.208 81.8945C75.7245 82.0703 75.2103 82.1582 74.6653 82.1582ZM85.6207 82.1582C84.8384 82.1582 84.122 81.9692 83.4715 81.5913C82.821 81.2133 82.3024 80.7034 81.9156 80.0617C81.5376 79.4201 81.3486 78.7124 81.3486 77.9389C81.3486 77.1565 81.5376 76.4489 81.9156 75.816C82.3024 75.1743 82.821 74.6645 83.4715 74.2865C84.122 73.9085 84.8384 73.7195 85.6207 73.7195C86.4119 73.7195 87.1283 73.9085 87.77 74.2865C88.4204 74.6645 88.9347 75.1743 89.3127 75.816C89.6994 76.4489 89.8928 77.1565 89.8928 77.9389C89.8928 78.7124 89.6994 79.4201 89.3127 80.0617C88.9347 80.7034 88.4204 81.2133 87.77 81.5913C87.1283 81.9692 86.4119 82.1582 85.6207 82.1582ZM85.6207 80.1013C86.0163 80.1013 86.3723 80.0046 86.6887 79.8112C87.014 79.6178 87.2689 79.3585 87.4535 79.0333C87.6469 78.6992 87.7436 78.3344 87.7436 77.9389C87.7436 77.5345 87.6469 77.1697 87.4535 76.8445C87.2689 76.5192 87.014 76.2599 86.6887 76.0665C86.3723 75.8732 86.0163 75.7765 85.6207 75.7765C85.2252 75.7765 84.8648 75.8732 84.5395 76.0665C84.2231 76.2599 83.9681 76.5192 83.7748 76.8445C83.5902 77.1697 83.4979 77.5345 83.4979 77.9389C83.4979 78.3344 83.5902 78.6992 83.7748 79.0333C83.9681 79.3585 84.2231 79.6178 84.5395 79.8112C84.8648 80.0046 85.2252 80.1013 85.6207 80.1013ZM94.2757 81.8945V73.9832H96.3326V74.8535C96.6139 74.4843 96.9611 74.203 97.3743 74.0096C97.7874 73.8162 98.2313 73.7195 98.706 73.7195C99.2686 73.7195 99.7916 73.8558 100.275 74.1283C100.767 74.392 101.163 74.7831 101.462 75.3018C101.769 75.8116 101.923 76.4313 101.923 77.1609V81.8945H99.629V77.4642C99.629 77.0247 99.4971 76.6335 99.2334 76.2907C98.9697 75.9479 98.5917 75.7765 98.0995 75.7765C97.7039 75.7765 97.3479 75.9127 97.0315 76.1852C96.7238 76.4489 96.57 76.8665 96.57 77.4378V81.8945H94.2757Z" fill="#FF6060"/>
<path d="M32.1943 474.68L28.0409 470.526M28.0409 470.526L32.1943 466.373M28.0409 470.526H36.3478" stroke="black" stroke-width="1.1867" stroke-linecap="round" stroke-linejoin="round"/>
<path d="M45.6929 474.219V466.802H47.7696C48.2421 466.802 48.6157 466.895 48.8904 467.082C49.1706 467.269 49.3711 467.497 49.492 467.766C49.6128 468.03 49.6733 468.28 49.6733 468.516C49.6733 468.785 49.6101 469.032 49.4837 469.258C49.3629 469.477 49.198 469.659 48.9893 469.802C49.3903 469.983 49.7145 470.255 49.9617 470.617C50.2144 470.98 50.3408 471.392 50.3408 471.854C50.3408 472.244 50.2419 472.62 50.0441 472.983C49.8518 473.345 49.5634 473.642 49.1788 473.873C48.7997 474.103 48.33 474.219 47.7696 474.219H45.6929ZM46.6324 473.378H47.7037C48.1102 473.378 48.4371 473.299 48.6844 473.139C48.9316 472.98 49.1129 472.779 49.2283 472.538C49.3436 472.296 49.4013 472.057 49.4013 471.821C49.4013 471.59 49.3464 471.354 49.2365 471.112C49.1266 470.87 48.9481 470.67 48.7008 470.51C48.4536 470.346 48.1212 470.263 47.7037 470.263H46.6324V473.378ZM46.6324 469.472H47.6954C48.0196 469.472 48.2806 469.395 48.4783 469.241C48.6816 469.082 48.7833 468.857 48.7833 468.565C48.7833 468.263 48.6844 468.035 48.4866 467.881C48.2888 467.722 48.0361 467.642 47.7284 467.642H46.6324V469.472ZM53.7404 474.285C53.2899 474.285 52.8779 474.172 52.5043 473.947C52.1307 473.716 51.8313 473.408 51.606 473.024C51.3863 472.639 51.2764 472.213 51.2764 471.746C51.2764 471.279 51.3863 470.854 51.606 470.469C51.8313 470.085 52.1307 469.78 52.5043 469.554C52.8779 469.324 53.2899 469.208 53.7404 469.208C54.0811 469.208 54.3997 469.271 54.6964 469.398C54.9986 469.524 55.2595 469.7 55.4793 469.925V469.274H56.3034V474.219H55.4793V473.568C55.2595 473.787 54.9986 473.963 54.6964 474.095C54.3997 474.221 54.0811 474.285 53.7404 474.285ZM53.8558 473.477C54.169 473.477 54.4519 473.4 54.7046 473.246C54.9628 473.087 55.1661 472.878 55.3145 472.62C55.4683 472.356 55.5452 472.065 55.5452 471.746C55.5452 471.428 55.4683 471.139 55.3145 470.881C55.1661 470.617 54.9628 470.409 54.7046 470.255C54.4519 470.096 54.169 470.016 53.8558 470.016C53.5427 470.016 53.257 470.096 52.9987 470.255C52.746 470.409 52.5428 470.617 52.3889 470.881C52.2406 471.139 52.1664 471.428 52.1664 471.746C52.1664 472.065 52.2406 472.356 52.3889 472.62C52.5428 472.878 52.746 473.087 52.9987 473.246C53.257 473.4 53.5427 473.477 53.8558 473.477ZM60.155 474.318C59.6715 474.318 59.232 474.202 58.8364 473.972C58.4409 473.741 58.125 473.43 57.8887 473.04C57.6525 472.65 57.5344 472.219 57.5344 471.746C57.5344 471.274 57.6525 470.843 57.8887 470.453C58.125 470.063 58.4409 469.752 58.8364 469.521C59.232 469.291 59.6715 469.175 60.155 469.175C60.5121 469.175 60.8472 469.238 61.1604 469.365C61.4735 469.491 61.7482 469.659 61.9845 469.868L61.7125 470.988C61.5752 470.714 61.3664 470.483 61.0862 470.296C60.8115 470.109 60.4983 470.016 60.1467 470.016C59.8281 470.016 59.5369 470.096 59.2732 470.255C59.015 470.409 58.809 470.617 58.6551 470.881C58.5013 471.139 58.4244 471.428 58.4244 471.746C58.4244 472.06 58.5013 472.348 58.6551 472.612C58.809 472.875 59.015 473.087 59.2732 473.246C59.5369 473.4 59.8281 473.477 60.1467 473.477C60.4983 473.477 60.8115 473.386 61.0862 473.205C61.3664 473.024 61.5752 472.79 61.7125 472.505L61.9845 473.625C61.7482 473.834 61.4735 474.002 61.1604 474.128C60.8472 474.254 60.5121 474.318 60.155 474.318ZM66.2945 474.219L64.0612 471.499L65.8989 469.274H66.929L65.1243 471.433L67.4235 474.219H66.2945ZM63.0723 474.219V466.307H63.9623V474.219H63.0723Z" fill="black"/>
<path d="M224.439 466.375L228.592 470.528M228.592 470.528L224.439 474.682M228.592 470.528H220.285" stroke="black" stroke-width="1.1867" stroke-linecap="round" stroke-linejoin="round"/>
<path d="M195.365 474.466L190.173 468.903V474.219H189.283V466.555L194.475 472.117V466.802H195.365V474.466ZM199.551 474.318C199.035 474.318 198.571 474.202 198.158 473.972C197.752 473.741 197.431 473.428 197.194 473.032C196.964 472.631 196.848 472.186 196.848 471.697C196.848 471.23 196.961 470.807 197.186 470.428C197.411 470.043 197.713 469.738 198.093 469.513C198.477 469.288 198.9 469.175 199.362 469.175C199.818 469.175 200.235 469.285 200.614 469.505C200.993 469.719 201.296 470.01 201.521 470.378C201.746 470.747 201.859 471.164 201.859 471.631V471.994H198.628C198.485 471.994 198.34 471.988 198.191 471.977C198.043 471.966 197.898 471.95 197.755 471.928C197.815 472.367 198.013 472.735 198.348 473.032C198.689 473.329 199.092 473.477 199.559 473.477C199.873 473.477 200.164 473.406 200.433 473.263C200.702 473.12 200.919 472.93 201.084 472.694L201.331 473.708C201.095 473.9 200.823 474.051 200.515 474.161C200.213 474.265 199.892 474.318 199.551 474.318ZM197.73 471.326C198.027 471.277 198.326 471.252 198.628 471.252H200.268C200.389 471.252 200.507 471.258 200.623 471.268C200.743 471.274 200.864 471.282 200.985 471.293C200.908 470.909 200.716 470.593 200.408 470.346C200.101 470.093 199.752 469.966 199.362 469.966C198.961 469.966 198.609 470.101 198.307 470.37C198.005 470.634 197.812 470.953 197.73 471.326ZM202.129 474.219L203.868 471.598L202.318 469.274H203.357L203.835 470.032C203.939 470.192 204.041 470.359 204.14 470.535C204.244 470.705 204.335 470.881 204.412 471.062C204.494 470.881 204.585 470.705 204.684 470.535C204.788 470.365 204.892 470.197 204.997 470.032L205.466 469.274H206.488L204.939 471.598L206.678 474.219H205.623L204.947 473.139C204.848 472.98 204.749 472.821 204.651 472.661C204.552 472.496 204.464 472.326 204.387 472.15C204.31 472.326 204.222 472.496 204.123 472.661C204.024 472.821 203.925 472.98 203.826 473.139L203.151 474.219H202.129ZM207.923 474.219V470.016H206.802V469.274H207.948V467.626H208.788V469.274H210.016V470.016H208.813V474.219H207.923Z" fill="black"/>
<path d="M113.484 473.938C113.176 473.938 112.887 473.88 112.616 473.763C112.345 473.646 112.109 473.488 111.909 473.288C111.709 473.087 111.55 472.852 111.433 472.582C111.316 472.311 111.258 472.022 111.258 471.714C111.258 471.406 111.316 471.117 111.433 470.846C111.55 470.576 111.708 470.34 111.908 470.139C112.108 469.939 112.343 469.78 112.614 469.664C112.885 469.547 113.175 469.488 113.482 469.488C113.79 469.488 114.079 469.547 114.35 469.664C114.621 469.78 114.856 469.939 115.057 470.139C115.257 470.339 115.416 470.574 115.533 470.845C115.649 471.116 115.708 471.405 115.708 471.713C115.708 472.02 115.65 472.309 115.533 472.58C115.416 472.851 115.258 473.087 115.057 473.287C114.857 473.487 114.621 473.646 114.351 473.763C114.081 473.88 113.792 473.939 113.484 473.938Z" fill="black"/>
<path d="M123.571 473.938C123.263 473.938 122.974 473.88 122.703 473.763C122.432 473.646 122.196 473.488 121.996 473.288C121.796 473.087 121.637 472.852 121.52 472.582C121.403 472.311 121.345 472.022 121.345 471.714C121.345 471.406 121.403 471.117 121.52 470.846C121.637 470.576 121.795 470.34 121.995 470.139C122.195 469.939 122.43 469.78 122.701 469.664C122.972 469.547 123.261 469.488 123.569 469.488C123.877 469.488 124.166 469.547 124.437 469.664C124.708 469.78 124.943 469.939 125.144 470.139C125.344 470.339 125.503 470.574 125.62 470.845C125.736 471.116 125.795 471.405 125.795 471.713C125.795 472.02 125.736 472.309 125.62 472.58C125.503 472.851 125.345 473.087 125.144 473.287C124.944 473.487 124.708 473.646 124.438 473.763C124.168 473.88 123.879 473.939 123.571 473.938Z" fill="black"/>
<path d="M133.657 473.938C133.35 473.938 133.061 473.88 132.79 473.763C132.519 473.646 132.283 473.488 132.083 473.288C131.882 473.087 131.724 472.852 131.607 472.582C131.49 472.311 131.432 472.022 131.432 471.714C131.432 471.406 131.49 471.117 131.607 470.846C131.724 470.576 131.882 470.34 132.082 470.139C132.282 469.939 132.517 469.78 132.788 469.664C133.059 469.547 133.348 469.488 133.656 469.488C133.964 469.488 134.253 469.547 134.524 469.664C134.795 469.78 135.03 469.939 135.231 470.139C135.431 470.339 135.59 470.574 135.706 470.845C135.823 471.116 135.882 471.405 135.882 471.713C135.882 472.02 135.823 472.309 135.707 472.58C135.59 472.851 135.431 473.087 135.231 473.287C135.031 473.487 134.795 473.646 134.525 473.763C134.255 473.88 133.965 473.939 133.657 473.938Z" fill="#B6B6B6"/>
<path d="M143.744 473.938C143.437 473.938 143.148 473.88 142.877 473.763C142.606 473.646 142.37 473.488 142.17 473.288C141.969 473.087 141.811 472.852 141.694 472.582C141.577 472.311 141.519 472.022 141.519 471.714C141.519 471.406 141.577 471.117 141.694 470.846C141.811 470.576 141.969 470.34 142.169 470.139C142.369 469.939 142.604 469.78 142.875 469.664C143.146 469.547 143.435 469.488 143.743 469.488C144.05 469.488 144.34 469.547 144.611 469.664C144.881 469.78 145.117 469.939 145.317 470.139C145.518 470.339 145.677 470.574 145.793 470.845C145.91 471.116 145.969 471.405 145.969 471.713C145.969 472.02 145.91 472.309 145.794 472.58C145.677 472.851 145.518 473.087 145.318 473.287C145.118 473.487 144.882 473.646 144.612 473.763C144.342 473.88 144.052 473.939 143.744 473.938Z" fill="#B6B6B6"/>
</svg>
