<svg width="430" height="932" viewBox="0 0 430 932" fill="none" xmlns="http://www.w3.org/2000/svg">
<rect width="430" height="932" fill="white"/>
<path d="M39.9778 214.667L32.2667 194H34.8444L39.3778 206C39.5407 206.415 39.6741 206.815 39.7778 207.2C39.8815 207.57 39.9926 208.015 40.1111 208.533C40.2296 208.015 40.3407 207.57 40.4444 207.2C40.563 206.815 40.6963 206.415 40.8444 206L45.4222 193.333L49.9778 206C50.1111 206.37 50.237 206.748 50.3556 207.133C50.4889 207.504 50.6074 207.97 50.7111 208.533C50.8296 207.97 50.9481 207.504 51.0667 207.133C51.1852 206.748 51.3185 206.37 51.4667 206L56 194H58.4L50.7111 214.667L46.0889 201.689C45.9556 201.304 45.8296 200.933 45.7111 200.578C45.5926 200.207 45.4741 199.741 45.3556 199.178C45.237 199.741 45.1185 200.207 45 200.578C44.8815 200.933 44.7556 201.304 44.6222 201.689L39.9778 214.667ZM60.7896 214V192.667H63.1896V202.556C63.6933 201.859 64.3155 201.326 65.0563 200.956C65.797 200.585 66.5896 200.4 67.434 200.4C68.3822 200.4 69.2563 200.637 70.0563 201.111C70.8711 201.57 71.5303 202.244 72.034 203.133C72.5377 204.007 72.7896 205.074 72.7896 206.333V214H70.3896V206.667C70.3896 205.615 70.0711 204.689 69.434 203.889C68.8118 203.074 67.9303 202.667 66.7896 202.667C65.8563 202.667 65.0192 203.007 64.2785 203.689C63.5525 204.356 63.1896 205.326 63.1896 206.6V214H60.7896ZM82.5007 214.178C81.2859 214.178 80.1748 213.874 79.1674 213.267C78.16 212.644 77.3525 211.815 76.7451 210.778C76.1525 209.741 75.8563 208.593 75.8563 207.333C75.8563 206.074 76.1525 204.926 76.7451 203.889C77.3525 202.852 78.16 202.03 79.1674 201.422C80.1748 200.8 81.2859 200.489 82.5007 200.489C83.4192 200.489 84.2785 200.659 85.0785 201C85.8933 201.341 86.597 201.815 87.1896 202.422V200.667H89.4118V214H87.1896V212.244C86.597 212.837 85.8933 213.311 85.0785 213.667C84.2785 214.007 83.4192 214.178 82.5007 214.178ZM82.8118 212C83.6562 212 84.4192 211.793 85.1007 211.378C85.797 210.948 86.3451 210.385 86.7451 209.689C87.16 208.978 87.3674 208.193 87.3674 207.333C87.3674 206.474 87.16 205.696 86.7451 205C86.3451 204.289 85.797 203.726 85.1007 203.311C84.4192 202.881 83.6562 202.667 82.8118 202.667C81.9674 202.667 81.197 202.881 80.5007 203.311C79.8192 203.726 79.2711 204.289 78.8563 205C78.4563 205.696 78.2563 206.474 78.2563 207.333C78.2563 208.193 78.4563 208.978 78.8563 209.689C79.2711 210.385 79.8192 210.948 80.5007 211.378C81.197 211.793 81.9674 212 82.8118 212ZM95.2201 214V202.667H92.1979V200.667H95.2868V196.222H97.5535V200.667H100.865V202.667H97.6201V214H95.2201ZM110.321 214V200.667H112.721V214H110.321ZM111.521 198.267C111.076 198.267 110.699 198.111 110.388 197.8C110.076 197.489 109.921 197.111 109.921 196.667C109.921 196.207 110.076 195.83 110.388 195.533C110.699 195.222 111.076 195.067 111.521 195.067C111.98 195.067 112.358 195.222 112.654 195.533C112.965 195.83 113.121 196.207 113.121 196.667C113.121 197.111 112.965 197.489 112.654 197.8C112.358 198.111 111.98 198.267 111.521 198.267ZM120.422 214.267C119.74 214.267 119.007 214.141 118.222 213.889C117.451 213.622 116.784 213.185 116.222 212.578L116.888 209.956C117.303 210.652 117.836 211.207 118.488 211.622C119.14 212.022 119.836 212.222 120.577 212.222C121.288 212.222 121.822 212.052 122.177 211.711C122.533 211.356 122.71 210.926 122.71 210.422C122.71 209.844 122.518 209.422 122.133 209.156C121.762 208.889 121.429 208.704 121.133 208.6L119.333 207.911C119.007 207.778 118.614 207.585 118.155 207.333C117.696 207.067 117.296 206.689 116.955 206.2C116.614 205.711 116.444 205.074 116.444 204.289C116.444 203.578 116.614 202.926 116.955 202.333C117.296 201.741 117.777 201.274 118.399 200.933C119.022 200.578 119.755 200.4 120.599 200.4C121.266 200.4 121.962 200.519 122.688 200.756C123.414 200.993 124.029 201.393 124.533 201.956L123.866 204.578C123.51 203.926 123.029 203.407 122.422 203.022C121.814 202.637 121.184 202.444 120.533 202.444C119.925 202.444 119.444 202.615 119.088 202.956C118.747 203.296 118.577 203.689 118.577 204.133C118.577 204.489 118.696 204.807 118.933 205.089C119.17 205.37 119.525 205.6 119.999 205.778L121.799 206.467C122.125 206.585 122.525 206.778 122.999 207.044C123.488 207.311 123.918 207.696 124.288 208.2C124.659 208.704 124.844 209.385 124.844 210.244C124.844 211.444 124.422 212.415 123.577 213.156C122.747 213.896 121.696 214.267 120.422 214.267ZM134.422 220.667L138.755 212.044L133.11 200.667H135.822L138.666 206.444C138.918 206.963 139.162 207.474 139.399 207.978C139.636 208.481 139.873 209.089 140.11 209.8C140.362 209.089 140.599 208.481 140.822 207.978C141.059 207.459 141.31 206.948 141.577 206.444L144.466 200.667H147.022L137.022 220.667H134.422ZM154.847 214.267C153.558 214.267 152.381 213.956 151.314 213.333C150.247 212.711 149.395 211.874 148.758 210.822C148.136 209.77 147.825 208.607 147.825 207.333C147.825 206.044 148.136 204.881 148.758 203.844C149.395 202.793 150.247 201.956 151.314 201.333C152.381 200.711 153.558 200.4 154.847 200.4C156.151 200.4 157.329 200.711 158.381 201.333C159.447 201.956 160.292 202.793 160.914 203.844C161.551 204.881 161.869 206.044 161.869 207.333C161.869 208.607 161.551 209.77 160.914 210.822C160.292 211.874 159.447 212.711 158.381 213.333C157.329 213.956 156.151 214.267 154.847 214.267ZM154.847 212C155.706 212 156.484 211.793 157.181 211.378C157.877 210.948 158.432 210.385 158.847 209.689C159.262 208.978 159.469 208.193 159.469 207.333C159.469 206.474 159.262 205.696 158.847 205C158.432 204.289 157.877 203.726 157.181 203.311C156.484 202.881 155.706 202.667 154.847 202.667C153.988 202.667 153.21 202.881 152.514 203.311C151.818 203.726 151.262 204.289 150.847 205C150.432 205.696 150.225 206.474 150.225 207.333C150.225 208.193 150.432 208.978 150.847 209.689C151.262 210.385 151.818 210.948 152.514 211.378C153.21 211.793 153.988 212 154.847 212ZM170.285 214.267C169.351 214.267 168.477 214.037 167.662 213.578C166.848 213.104 166.188 212.422 165.685 211.533C165.181 210.644 164.929 209.578 164.929 208.333V200.667H167.329V208C167.329 209.052 167.64 209.985 168.263 210.8C168.9 211.6 169.788 212 170.929 212C171.863 212 172.692 211.667 173.418 211C174.159 210.319 174.529 209.341 174.529 208.067V200.667H176.929V214H174.707V211.844C174.218 212.63 173.581 213.23 172.796 213.644C172.025 214.059 171.188 214.267 170.285 214.267ZM181.196 214V200.667H183.418V203.111C183.892 202.326 184.522 201.704 185.307 201.244C186.092 200.77 187.025 200.533 188.107 200.533L188.707 202.933C188.425 202.844 188.1 202.8 187.729 202.8C186.485 202.8 185.485 203.2 184.729 204C183.974 204.785 183.596 205.911 183.596 207.378V214H181.196ZM197.852 214V200.667H200.074V202.822C200.563 202.037 201.193 201.437 201.963 201.022C202.748 200.607 203.593 200.4 204.497 200.4C205.445 200.4 206.319 200.637 207.119 201.111C207.934 201.57 208.593 202.244 209.097 203.133C209.6 204.007 209.852 205.074 209.852 206.333V214H207.452V206.667C207.452 205.615 207.134 204.689 206.497 203.889C205.874 203.074 204.993 202.667 203.852 202.667C202.919 202.667 202.082 203.007 201.341 203.689C200.615 204.356 200.252 205.326 200.252 206.6V214H197.852ZM219.563 214.178C218.348 214.178 217.237 213.874 216.23 213.267C215.222 212.644 214.415 211.815 213.808 210.778C213.215 209.741 212.919 208.593 212.919 207.333C212.919 206.074 213.215 204.926 213.808 203.889C214.415 202.852 215.222 202.03 216.23 201.422C217.237 200.8 218.348 200.489 219.563 200.489C220.482 200.489 221.341 200.659 222.141 201C222.956 201.341 223.659 201.815 224.252 202.422V200.667H226.474V214H224.252V212.244C223.659 212.837 222.956 213.311 222.141 213.667C221.341 214.007 220.482 214.178 219.563 214.178ZM219.874 212C220.719 212 221.482 211.793 222.163 211.378C222.859 210.948 223.408 210.385 223.808 209.689C224.222 208.978 224.43 208.193 224.43 207.333C224.43 206.474 224.222 205.696 223.808 205C223.408 204.289 222.859 203.726 222.163 203.311C221.482 202.881 220.719 202.667 219.874 202.667C219.03 202.667 218.259 202.881 217.563 203.311C216.882 203.726 216.334 204.289 215.919 205C215.519 205.696 215.319 206.474 215.319 207.333C215.319 208.193 215.519 208.978 215.919 209.689C216.334 210.385 216.882 210.948 217.563 211.378C218.259 211.793 219.03 212 219.874 212ZM230.727 214V200.667H232.949V202.578C233.438 201.852 234.053 201.311 234.794 200.956C235.549 200.585 236.342 200.4 237.172 200.4C238.075 200.4 238.905 200.615 239.66 201.044C240.416 201.459 241.023 202.044 241.483 202.8C242.001 202 242.668 201.4 243.483 201C244.312 200.6 245.186 200.4 246.105 200.4C247.112 200.4 248.031 200.637 248.86 201.111C249.705 201.585 250.372 202.252 250.86 203.111C251.364 203.956 251.616 204.956 251.616 206.111V214H249.216V206.4C249.216 205.185 248.868 204.267 248.172 203.644C247.49 203.007 246.697 202.689 245.794 202.689C245.231 202.689 244.683 202.815 244.149 203.067C243.631 203.319 243.201 203.711 242.86 204.244C242.534 204.778 242.372 205.474 242.372 206.333V214H239.972V206.4C239.972 205.556 239.801 204.859 239.46 204.311C239.134 203.763 238.705 203.356 238.172 203.089C237.653 202.807 237.112 202.667 236.549 202.667C236.001 202.667 235.46 202.793 234.927 203.044C234.409 203.296 233.979 203.689 233.638 204.222C233.297 204.756 233.127 205.459 233.127 206.333V214H230.727ZM261.958 214.267C260.565 214.267 259.313 213.956 258.202 213.333C257.106 212.711 256.239 211.867 255.602 210.8C254.98 209.719 254.669 208.519 254.669 207.2C254.669 205.941 254.972 204.8 255.58 203.778C256.187 202.741 257.002 201.919 258.024 201.311C259.061 200.704 260.202 200.4 261.447 200.4C262.676 200.4 263.802 200.696 264.824 201.289C265.847 201.867 266.661 202.652 267.269 203.644C267.876 204.637 268.18 205.763 268.18 207.022V208H259.469C259.084 208 258.691 207.985 258.291 207.956C257.891 207.926 257.498 207.881 257.113 207.822C257.276 209.007 257.809 210 258.713 210.8C259.632 211.6 260.721 212 261.98 212C262.824 212 263.609 211.807 264.335 211.422C265.061 211.037 265.647 210.526 266.091 209.889L266.758 212.622C266.121 213.141 265.387 213.548 264.558 213.844C263.743 214.126 262.876 214.267 261.958 214.267ZM257.047 206.2C257.847 206.067 258.654 206 259.469 206H263.891C264.217 206 264.535 206.015 264.847 206.044C265.172 206.059 265.498 206.081 265.824 206.111C265.617 205.074 265.098 204.222 264.269 203.556C263.439 202.874 262.498 202.533 261.447 202.533C260.365 202.533 259.417 202.896 258.602 203.622C257.787 204.333 257.269 205.193 257.047 206.2ZM273.517 207.333C273.517 206.252 273.68 205.319 274.006 204.533C274.346 203.748 274.739 203.044 275.183 202.422C275.628 201.8 276.013 201.193 276.339 200.6C276.68 200.007 276.85 199.363 276.85 198.667C276.85 197.867 276.598 197.215 276.094 196.711C275.591 196.207 274.939 195.956 274.139 195.956C273.561 195.956 273.02 196.104 272.517 196.4C272.013 196.681 271.591 197.059 271.25 197.533V194.644C271.635 194.348 272.087 194.126 272.606 193.978C273.139 193.815 273.702 193.733 274.294 193.733C275.317 193.733 276.198 193.948 276.939 194.378C277.68 194.807 278.25 195.378 278.65 196.089C279.05 196.785 279.25 197.556 279.25 198.4C279.25 199.23 279.08 199.985 278.739 200.667C278.398 201.348 277.998 202.015 277.539 202.667C277.094 203.319 276.687 204.015 276.317 204.756C275.946 205.496 275.724 206.356 275.65 207.333H273.517ZM274.583 214.267C274.124 214.267 273.731 214.104 273.406 213.778C273.08 213.452 272.917 213.059 272.917 212.6C272.917 212.126 273.08 211.733 273.406 211.422C273.731 211.096 274.124 210.933 274.583 210.933C275.057 210.933 275.45 211.096 275.761 211.422C276.087 211.733 276.25 212.126 276.25 212.6C276.25 213.059 276.087 213.452 275.761 213.778C275.45 214.104 275.057 214.267 274.583 214.267Z" fill="black"/>
<path d="M39.9778 370.667L32.2667 350H34.8444L39.3778 362C39.5407 362.415 39.6741 362.815 39.7778 363.2C39.8815 363.57 39.9926 364.015 40.1111 364.533C40.2296 364.015 40.3407 363.57 40.4444 363.2C40.563 362.815 40.6963 362.415 40.8444 362L45.4222 349.333L49.9778 362C50.1111 362.37 50.237 362.748 50.3556 363.133C50.4889 363.504 50.6074 363.97 50.7111 364.533C50.8296 363.97 50.9481 363.504 51.0667 363.133C51.1852 362.748 51.3185 362.37 51.4667 362L56 350H58.4L50.7111 370.667L46.0889 357.689C45.9556 357.304 45.8296 356.933 45.7111 356.578C45.5926 356.207 45.4741 355.741 45.3556 355.178C45.237 355.741 45.1185 356.207 45 356.578C44.8815 356.933 44.7556 357.304 44.6222 357.689L39.9778 370.667ZM60.7896 370V348.667H63.1896V358.556C63.6933 357.859 64.3155 357.326 65.0563 356.956C65.797 356.585 66.5896 356.4 67.434 356.4C68.3822 356.4 69.2563 356.637 70.0563 357.111C70.8711 357.57 71.5303 358.244 72.034 359.133C72.5377 360.007 72.7896 361.074 72.7896 362.333V370H70.3896V362.667C70.3896 361.615 70.0711 360.689 69.434 359.889C68.8118 359.074 67.9303 358.667 66.7896 358.667C65.8563 358.667 65.0192 359.007 64.2785 359.689C63.5525 360.356 63.1896 361.326 63.1896 362.6V370H60.7896ZM82.5007 370.178C81.2859 370.178 80.1748 369.874 79.1674 369.267C78.16 368.644 77.3525 367.815 76.7451 366.778C76.1525 365.741 75.8563 364.593 75.8563 363.333C75.8563 362.074 76.1525 360.926 76.7451 359.889C77.3525 358.852 78.16 358.03 79.1674 357.422C80.1748 356.8 81.2859 356.489 82.5007 356.489C83.4192 356.489 84.2785 356.659 85.0785 357C85.8933 357.341 86.597 357.815 87.1896 358.422V356.667H89.4118V370H87.1896V368.244C86.597 368.837 85.8933 369.311 85.0785 369.667C84.2785 370.007 83.4192 370.178 82.5007 370.178ZM82.8118 368C83.6562 368 84.4192 367.793 85.1007 367.378C85.797 366.948 86.3451 366.385 86.7451 365.689C87.16 364.978 87.3674 364.193 87.3674 363.333C87.3674 362.474 87.16 361.696 86.7451 361C86.3451 360.289 85.797 359.726 85.1007 359.311C84.4192 358.881 83.6562 358.667 82.8118 358.667C81.9674 358.667 81.197 358.881 80.5007 359.311C79.8192 359.726 79.2711 360.289 78.8563 361C78.4563 361.696 78.2563 362.474 78.2563 363.333C78.2563 364.193 78.4563 364.978 78.8563 365.689C79.2711 366.385 79.8192 366.948 80.5007 367.378C81.197 367.793 81.9674 368 82.8118 368ZM95.2201 370V358.667H92.1979V356.667H95.2868V352.222H97.5535V356.667H100.865V358.667H97.6201V370H95.2201ZM110.321 370V356.667H112.721V370H110.321ZM111.521 354.267C111.076 354.267 110.699 354.111 110.388 353.8C110.076 353.489 109.921 353.111 109.921 352.667C109.921 352.207 110.076 351.83 110.388 351.533C110.699 351.222 111.076 351.067 111.521 351.067C111.98 351.067 112.358 351.222 112.654 351.533C112.965 351.83 113.121 352.207 113.121 352.667C113.121 353.111 112.965 353.489 112.654 353.8C112.358 354.111 111.98 354.267 111.521 354.267ZM120.422 370.267C119.74 370.267 119.007 370.141 118.222 369.889C117.451 369.622 116.784 369.185 116.222 368.578L116.888 365.956C117.303 366.652 117.836 367.207 118.488 367.622C119.14 368.022 119.836 368.222 120.577 368.222C121.288 368.222 121.822 368.052 122.177 367.711C122.533 367.356 122.71 366.926 122.71 366.422C122.71 365.844 122.518 365.422 122.133 365.156C121.762 364.889 121.429 364.704 121.133 364.6L119.333 363.911C119.007 363.778 118.614 363.585 118.155 363.333C117.696 363.067 117.296 362.689 116.955 362.2C116.614 361.711 116.444 361.074 116.444 360.289C116.444 359.578 116.614 358.926 116.955 358.333C117.296 357.741 117.777 357.274 118.399 356.933C119.022 356.578 119.755 356.4 120.599 356.4C121.266 356.4 121.962 356.519 122.688 356.756C123.414 356.993 124.029 357.393 124.533 357.956L123.866 360.578C123.51 359.926 123.029 359.407 122.422 359.022C121.814 358.637 121.184 358.444 120.533 358.444C119.925 358.444 119.444 358.615 119.088 358.956C118.747 359.296 118.577 359.689 118.577 360.133C118.577 360.489 118.696 360.807 118.933 361.089C119.17 361.37 119.525 361.6 119.999 361.778L121.799 362.467C122.125 362.585 122.525 362.778 122.999 363.044C123.488 363.311 123.918 363.696 124.288 364.2C124.659 364.704 124.844 365.385 124.844 366.244C124.844 367.444 124.422 368.415 123.577 369.156C122.747 369.896 121.696 370.267 120.422 370.267ZM134.422 376.667L138.755 368.044L133.11 356.667H135.822L138.666 362.444C138.918 362.963 139.162 363.474 139.399 363.978C139.636 364.481 139.873 365.089 140.11 365.8C140.362 365.089 140.599 364.481 140.822 363.978C141.059 363.459 141.31 362.948 141.577 362.444L144.466 356.667H147.022L137.022 376.667H134.422ZM154.847 370.267C153.558 370.267 152.381 369.956 151.314 369.333C150.247 368.711 149.395 367.874 148.758 366.822C148.136 365.77 147.825 364.607 147.825 363.333C147.825 362.044 148.136 360.881 148.758 359.844C149.395 358.793 150.247 357.956 151.314 357.333C152.381 356.711 153.558 356.4 154.847 356.4C156.151 356.4 157.329 356.711 158.381 357.333C159.447 357.956 160.292 358.793 160.914 359.844C161.551 360.881 161.869 362.044 161.869 363.333C161.869 364.607 161.551 365.77 160.914 366.822C160.292 367.874 159.447 368.711 158.381 369.333C157.329 369.956 156.151 370.267 154.847 370.267ZM154.847 368C155.706 368 156.484 367.793 157.181 367.378C157.877 366.948 158.432 366.385 158.847 365.689C159.262 364.978 159.469 364.193 159.469 363.333C159.469 362.474 159.262 361.696 158.847 361C158.432 360.289 157.877 359.726 157.181 359.311C156.484 358.881 155.706 358.667 154.847 358.667C153.988 358.667 153.21 358.881 152.514 359.311C151.818 359.726 151.262 360.289 150.847 361C150.432 361.696 150.225 362.474 150.225 363.333C150.225 364.193 150.432 364.978 150.847 365.689C151.262 366.385 151.818 366.948 152.514 367.378C153.21 367.793 153.988 368 154.847 368ZM170.285 370.267C169.351 370.267 168.477 370.037 167.662 369.578C166.848 369.104 166.188 368.422 165.685 367.533C165.181 366.644 164.929 365.578 164.929 364.333V356.667H167.329V364C167.329 365.052 167.64 365.985 168.263 366.8C168.9 367.6 169.788 368 170.929 368C171.863 368 172.692 367.667 173.418 367C174.159 366.319 174.529 365.341 174.529 364.067V356.667H176.929V370H174.707V367.844C174.218 368.63 173.581 369.23 172.796 369.644C172.025 370.059 171.188 370.267 170.285 370.267ZM181.196 370V356.667H183.418V359.111C183.892 358.326 184.522 357.704 185.307 357.244C186.092 356.77 187.025 356.533 188.107 356.533L188.707 358.933C188.425 358.844 188.1 358.8 187.729 358.8C186.485 358.8 185.485 359.2 184.729 360C183.974 360.785 183.596 361.911 183.596 363.378V370H181.196ZM204.763 370.178C203.845 370.178 202.985 370.007 202.185 369.667C201.385 369.311 200.682 368.837 200.074 368.244V370H197.852V348.667H200.252V358.244C200.845 357.696 201.526 357.267 202.297 356.956C203.067 356.644 203.889 356.489 204.763 356.489C205.993 356.489 207.104 356.8 208.097 357.422C209.104 358.03 209.904 358.852 210.497 359.889C211.104 360.926 211.408 362.074 211.408 363.333C211.408 364.593 211.104 365.741 210.497 366.778C209.904 367.815 209.104 368.644 208.097 369.267C207.104 369.874 205.993 370.178 204.763 370.178ZM204.452 368C205.297 368 206.059 367.793 206.741 367.378C207.437 366.948 207.985 366.385 208.385 365.689C208.8 364.978 209.008 364.193 209.008 363.333C209.008 362.474 208.8 361.696 208.385 361C207.985 360.289 207.437 359.726 206.741 359.311C206.059 358.881 205.297 358.667 204.452 358.667C203.608 358.667 202.837 358.881 202.141 359.311C201.459 359.726 200.911 360.289 200.497 361C200.097 361.696 199.897 362.474 199.897 363.333C199.897 364.193 200.097 364.978 200.497 365.689C200.911 366.385 201.459 366.948 202.141 367.378C202.837 367.793 203.608 368 204.452 368ZM214.727 370V356.667H217.127V370H214.727ZM215.927 354.267C215.483 354.267 215.105 354.111 214.794 353.8C214.483 353.489 214.327 353.111 214.327 352.667C214.327 352.207 214.483 351.83 214.794 351.533C215.105 351.222 215.483 351.067 215.927 351.067C216.386 351.067 216.764 351.222 217.06 351.533C217.372 351.83 217.527 352.207 217.527 352.667C217.527 353.111 217.372 353.489 217.06 353.8C216.764 354.111 216.386 354.267 215.927 354.267ZM221.383 370V356.667H223.606V359.111C224.08 358.326 224.709 357.704 225.494 357.244C226.28 356.77 227.213 356.533 228.294 356.533L228.894 358.933C228.613 358.844 228.287 358.8 227.917 358.8C226.672 358.8 225.672 359.2 224.917 360C224.161 360.785 223.783 361.911 223.783 363.378V370H221.383ZM232.939 370V358.667H229.917V356.667H233.006V352.222H235.272V356.667H238.583V358.667H235.339V370H232.939ZM241.383 370V348.667H243.783V358.556C244.287 357.859 244.909 357.326 245.65 356.956C246.391 356.585 247.183 356.4 248.028 356.4C248.976 356.4 249.85 356.637 250.65 357.111C251.465 357.57 252.124 358.244 252.628 359.133C253.131 360.007 253.383 361.074 253.383 362.333V370H250.983V362.667C250.983 361.615 250.665 360.689 250.028 359.889C249.406 359.074 248.524 358.667 247.383 358.667C246.45 358.667 245.613 359.007 244.872 359.689C244.146 360.356 243.783 361.326 243.783 362.6V370H241.383ZM263.094 370.178C261.88 370.178 260.769 369.874 259.761 369.267C258.754 368.644 257.946 367.815 257.339 366.778C256.746 365.741 256.45 364.593 256.45 363.333C256.45 362.074 256.746 360.926 257.339 359.889C257.946 358.852 258.754 358.03 259.761 357.422C260.769 356.8 261.88 356.489 263.094 356.489C263.969 356.489 264.791 356.644 265.561 356.956C266.331 357.267 267.013 357.696 267.606 358.244V348.667H270.006V370H267.783V368.244C267.191 368.837 266.487 369.311 265.672 369.667C264.872 370.007 264.013 370.178 263.094 370.178ZM263.406 368C264.25 368 265.013 367.793 265.694 367.378C266.391 366.948 266.939 366.385 267.339 365.689C267.754 364.978 267.961 364.193 267.961 363.333C267.961 362.474 267.754 361.696 267.339 361C266.939 360.289 266.391 359.726 265.694 359.311C265.013 358.881 264.25 358.667 263.406 358.667C262.561 358.667 261.791 358.881 261.094 359.311C260.413 359.726 259.865 360.289 259.45 361C259.05 361.696 258.85 362.474 258.85 363.333C258.85 364.193 259.05 364.978 259.45 365.689C259.865 366.385 260.413 366.948 261.094 367.378C261.791 367.793 262.561 368 263.406 368ZM279.969 370.178C278.755 370.178 277.644 369.874 276.636 369.267C275.629 368.644 274.821 367.815 274.214 366.778C273.621 365.741 273.325 364.593 273.325 363.333C273.325 362.074 273.621 360.926 274.214 359.889C274.821 358.852 275.629 358.03 276.636 357.422C277.644 356.8 278.755 356.489 279.969 356.489C280.888 356.489 281.747 356.659 282.547 357C283.362 357.341 284.066 357.815 284.658 358.422V356.667H286.881V370H284.658V368.244C284.066 368.837 283.362 369.311 282.547 369.667C281.747 370.007 280.888 370.178 279.969 370.178ZM280.281 368C281.125 368 281.888 367.793 282.569 367.378C283.266 366.948 283.814 366.385 284.214 365.689C284.629 364.978 284.836 364.193 284.836 363.333C284.836 362.474 284.629 361.696 284.214 361C283.814 360.289 283.266 359.726 282.569 359.311C281.888 358.881 281.125 358.667 280.281 358.667C279.436 358.667 278.666 358.881 277.969 359.311C277.288 359.726 276.74 360.289 276.325 361C275.925 361.696 275.725 362.474 275.725 363.333C275.725 364.193 275.925 364.978 276.325 365.689C276.74 366.385 277.288 366.948 277.969 367.378C278.666 367.793 279.436 368 280.281 368ZM290.578 376.667L294.911 368.044L289.267 356.667H291.978L294.822 362.444C295.074 362.963 295.319 363.474 295.556 363.978C295.793 364.481 296.03 365.089 296.267 365.8C296.519 365.089 296.756 364.481 296.978 363.978C297.215 363.459 297.467 362.948 297.733 362.444L300.622 356.667H303.178L293.178 376.667H290.578ZM307.704 363.333C307.704 362.252 307.867 361.319 308.193 360.533C308.534 359.748 308.926 359.044 309.371 358.422C309.815 357.8 310.2 357.193 310.526 356.6C310.867 356.007 311.038 355.363 311.038 354.667C311.038 353.867 310.786 353.215 310.282 352.711C309.778 352.207 309.126 351.956 308.326 351.956C307.749 351.956 307.208 352.104 306.704 352.4C306.2 352.681 305.778 353.059 305.438 353.533V350.644C305.823 350.348 306.275 350.126 306.793 349.978C307.326 349.815 307.889 349.733 308.482 349.733C309.504 349.733 310.386 349.948 311.126 350.378C311.867 350.807 312.438 351.378 312.838 352.089C313.238 352.785 313.438 353.556 313.438 354.4C313.438 355.23 313.267 355.985 312.926 356.667C312.586 357.348 312.186 358.015 311.726 358.667C311.282 359.319 310.875 360.015 310.504 360.756C310.134 361.496 309.912 362.356 309.838 363.333H307.704ZM308.771 370.267C308.312 370.267 307.919 370.104 307.593 369.778C307.267 369.452 307.104 369.059 307.104 368.6C307.104 368.126 307.267 367.733 307.593 367.422C307.919 367.096 308.312 366.933 308.771 366.933C309.245 366.933 309.638 367.096 309.949 367.422C310.275 367.733 310.438 368.126 310.438 368.6C310.438 369.059 310.275 369.452 309.949 369.778C309.638 370.104 309.245 370.267 308.771 370.267Z" fill="black"/>
<path d="M32.4 526L40.8667 505.333H40.9111L49.3778 526H46.6889L44.3333 520.067H37.3333L34.9556 526H32.4ZM38.1778 517.956H43.4889L41.9111 514C41.7185 513.496 41.5333 513 41.3556 512.511C41.1778 512.022 41 511.437 40.8222 510.756C40.6444 511.437 40.4741 512.022 40.3111 512.511C40.1481 512.985 39.963 513.481 39.7556 514L38.1778 517.956ZM51.9146 526V512.667H54.1368V515.111C54.6109 514.326 55.2405 513.704 56.0257 513.244C56.8109 512.77 57.7442 512.533 58.8257 512.533L59.4257 514.933C59.1442 514.844 58.8183 514.8 58.4479 514.8C57.2035 514.8 56.2035 515.2 55.4479 516C54.6924 516.785 54.3146 517.911 54.3146 519.378V526H51.9146ZM67.8326 526.267C66.44 526.267 65.1882 525.956 64.0771 525.333C62.9808 524.711 62.1141 523.867 61.4771 522.8C60.8549 521.719 60.5438 520.519 60.5438 519.2C60.5438 517.941 60.8475 516.8 61.4549 515.778C62.0623 514.741 62.8771 513.919 63.8993 513.311C64.9363 512.704 66.0771 512.4 67.3215 512.4C68.5512 512.4 69.6771 512.696 70.6993 513.289C71.7215 513.867 72.5363 514.652 73.1438 515.644C73.7512 516.637 74.0549 517.763 74.0549 519.022V520H65.3438C64.9586 520 64.566 519.985 64.166 519.956C63.766 519.926 63.3734 519.881 62.9882 519.822C63.1512 521.007 63.6845 522 64.5882 522.8C65.5067 523.6 66.5956 524 67.8549 524C68.6993 524 69.4845 523.807 70.2104 523.422C70.9363 523.037 71.5215 522.526 71.966 521.889L72.6326 524.622C71.9956 525.141 71.2623 525.548 70.4326 525.844C69.6178 526.126 68.7512 526.267 67.8326 526.267ZM62.9215 518.2C63.7215 518.067 64.5289 518 65.3438 518H69.766C70.0919 518 70.4104 518.015 70.7215 518.044C71.0475 518.059 71.3734 518.081 71.6993 518.111C71.4919 517.074 70.9734 516.222 70.1438 515.556C69.3141 514.874 68.3734 514.533 67.3215 514.533C66.24 514.533 65.2919 514.896 64.4771 515.622C63.6623 516.333 63.1438 517.193 62.9215 518.2ZM83.359 532.667L87.6924 524.044L82.0479 512.667H84.759L87.6035 518.444C87.8553 518.963 88.0998 519.474 88.3368 519.978C88.5738 520.481 88.8109 521.089 89.0479 521.8C89.2998 521.089 89.5368 520.481 89.759 519.978C89.9961 519.459 90.2479 518.948 90.5146 518.444L93.4035 512.667H95.959L85.959 532.667H83.359ZM103.785 526.267C102.496 526.267 101.318 525.956 100.251 525.333C99.1847 524.711 98.3329 523.874 97.6958 522.822C97.0736 521.77 96.7625 520.607 96.7625 519.333C96.7625 518.044 97.0736 516.881 97.6958 515.844C98.3329 514.793 99.1847 513.956 100.251 513.333C101.318 512.711 102.496 512.4 103.785 512.4C105.088 512.4 106.266 512.711 107.318 513.333C108.385 513.956 109.229 514.793 109.851 515.844C110.488 516.881 110.807 518.044 110.807 519.333C110.807 520.607 110.488 521.77 109.851 522.822C109.229 523.874 108.385 524.711 107.318 525.333C106.266 525.956 105.088 526.267 103.785 526.267ZM103.785 524C104.644 524 105.422 523.793 106.118 523.378C106.814 522.948 107.37 522.385 107.785 521.689C108.2 520.978 108.407 520.193 108.407 519.333C108.407 518.474 108.2 517.696 107.785 517C107.37 516.289 106.814 515.726 106.118 515.311C105.422 514.881 104.644 514.667 103.785 514.667C102.925 514.667 102.148 514.881 101.451 515.311C100.755 515.726 100.2 516.289 99.7847 517C99.3699 517.696 99.1625 518.474 99.1625 519.333C99.1625 520.193 99.3699 520.978 99.7847 521.689C100.2 522.385 100.755 522.948 101.451 523.378C102.148 523.793 102.925 524 103.785 524ZM119.222 526.267C118.289 526.267 117.415 526.037 116.6 525.578C115.785 525.104 115.126 524.422 114.622 523.533C114.119 522.644 113.867 521.578 113.867 520.333V512.667H116.267V520C116.267 521.052 116.578 521.985 117.2 522.8C117.837 523.6 118.726 524 119.867 524C120.8 524 121.63 523.667 122.356 523C123.096 522.319 123.467 521.341 123.467 520.067V512.667H125.867V526H123.644V523.844C123.156 524.63 122.519 525.23 121.733 525.644C120.963 526.059 120.126 526.267 119.222 526.267ZM142.501 526.178C141.286 526.178 140.175 525.874 139.167 525.267C138.16 524.644 137.353 523.815 136.745 522.778C136.153 521.741 135.856 520.593 135.856 519.333C135.856 518.074 136.153 516.926 136.745 515.889C137.353 514.852 138.16 514.03 139.167 513.422C140.175 512.8 141.286 512.489 142.501 512.489C143.419 512.489 144.278 512.659 145.078 513C145.893 513.341 146.597 513.815 147.19 514.422V512.667H149.412V526H147.19V524.244C146.597 524.837 145.893 525.311 145.078 525.667C144.278 526.007 143.419 526.178 142.501 526.178ZM142.812 524C143.656 524 144.419 523.793 145.101 523.378C145.797 522.948 146.345 522.385 146.745 521.689C147.16 520.978 147.367 520.193 147.367 519.333C147.367 518.474 147.16 517.696 146.745 517C146.345 516.289 145.797 515.726 145.101 515.311C144.419 514.881 143.656 514.667 142.812 514.667C141.967 514.667 141.197 514.881 140.501 515.311C139.819 515.726 139.271 516.289 138.856 517C138.456 517.696 138.256 518.474 138.256 519.333C138.256 520.193 138.456 520.978 138.856 521.689C139.271 522.385 139.819 522.948 140.501 523.378C141.197 523.793 141.967 524 142.812 524ZM160.321 532.667V512.667H162.543V514.422C163.15 513.815 163.854 513.341 164.654 513C165.454 512.659 166.313 512.489 167.232 512.489C168.462 512.489 169.573 512.8 170.565 513.422C171.573 514.03 172.373 514.852 172.965 515.889C173.573 516.926 173.876 518.074 173.876 519.333C173.876 520.593 173.573 521.741 172.965 522.778C172.373 523.815 171.573 524.644 170.565 525.267C169.573 525.874 168.462 526.178 167.232 526.178C166.358 526.178 165.536 526.022 164.765 525.711C163.995 525.4 163.313 524.97 162.721 524.422V532.667H160.321ZM166.921 524C167.765 524 168.528 523.793 169.21 523.378C169.906 522.948 170.454 522.385 170.854 521.689C171.269 520.978 171.476 520.193 171.476 519.333C171.476 518.474 171.269 517.696 170.854 517C170.454 516.289 169.906 515.726 169.21 515.311C168.528 514.881 167.765 514.667 166.921 514.667C166.076 514.667 165.306 514.881 164.61 515.311C163.928 515.726 163.38 516.289 162.965 517C162.565 517.696 162.365 518.474 162.365 519.333C162.365 520.193 162.565 520.978 162.965 521.689C163.38 522.385 163.928 522.948 164.61 523.378C165.306 523.793 166.076 524 166.921 524ZM182.907 526.178C181.692 526.178 180.581 525.874 179.574 525.267C178.566 524.644 177.759 523.815 177.151 522.778C176.559 521.741 176.263 520.593 176.263 519.333C176.263 518.074 176.559 516.926 177.151 515.889C177.759 514.852 178.566 514.03 179.574 513.422C180.581 512.8 181.692 512.489 182.907 512.489C183.825 512.489 184.685 512.659 185.485 513C186.3 513.341 187.003 513.815 187.596 514.422V512.667H189.818V526H187.596V524.244C187.003 524.837 186.3 525.311 185.485 525.667C184.685 526.007 183.825 526.178 182.907 526.178ZM183.218 524C184.062 524 184.825 523.793 185.507 523.378C186.203 522.948 186.751 522.385 187.151 521.689C187.566 520.978 187.774 520.193 187.774 519.333C187.774 518.474 187.566 517.696 187.151 517C186.751 516.289 186.203 515.726 185.507 515.311C184.825 514.881 184.062 514.667 183.218 514.667C182.374 514.667 181.603 514.881 180.907 515.311C180.225 515.726 179.677 516.289 179.263 517C178.863 517.696 178.663 518.474 178.663 519.333C178.663 520.193 178.863 520.978 179.263 521.689C179.677 522.385 180.225 522.948 180.907 523.378C181.603 523.793 182.374 524 183.218 524ZM195.626 526V514.667H192.604V512.667H195.693V508.222H197.96V512.667H201.271V514.667H198.026V526H195.626ZM204.071 526V512.667H206.471V526H204.071ZM205.271 510.267C204.826 510.267 204.449 510.111 204.138 509.8C203.826 509.489 203.671 509.111 203.671 508.667C203.671 508.207 203.826 507.83 204.138 507.533C204.449 507.222 204.826 507.067 205.271 507.067C205.73 507.067 206.108 507.222 206.404 507.533C206.715 507.83 206.871 508.207 206.871 508.667C206.871 509.111 206.715 509.489 206.404 509.8C206.108 510.111 205.73 510.267 205.271 510.267ZM217.083 526.267C215.69 526.267 214.438 525.956 213.327 525.333C212.231 524.711 211.364 523.867 210.727 522.8C210.105 521.719 209.794 520.519 209.794 519.2C209.794 517.941 210.097 516.8 210.705 515.778C211.312 514.741 212.127 513.919 213.149 513.311C214.186 512.704 215.327 512.4 216.572 512.4C217.801 512.4 218.927 512.696 219.949 513.289C220.972 513.867 221.786 514.652 222.394 515.644C223.001 516.637 223.305 517.763 223.305 519.022V520H214.594C214.209 520 213.816 519.985 213.416 519.956C213.016 519.926 212.623 519.881 212.238 519.822C212.401 521.007 212.934 522 213.838 522.8C214.757 523.6 215.846 524 217.105 524C217.949 524 218.734 523.807 219.46 523.422C220.186 523.037 220.772 522.526 221.216 521.889L221.883 524.622C221.246 525.141 220.512 525.548 219.683 525.844C218.868 526.126 218.001 526.267 217.083 526.267ZM212.172 518.2C212.972 518.067 213.779 518 214.594 518H219.016C219.342 518 219.66 518.015 219.972 518.044C220.297 518.059 220.623 518.081 220.949 518.111C220.742 517.074 220.223 516.222 219.394 515.556C218.564 514.874 217.623 514.533 216.572 514.533C215.49 514.533 214.542 514.896 213.727 515.622C212.912 516.333 212.394 517.193 212.172 518.2ZM226.508 526V512.667H228.731V514.822C229.219 514.037 229.849 513.437 230.619 513.022C231.405 512.607 232.249 512.4 233.153 512.4C234.101 512.4 234.975 512.637 235.775 513.111C236.59 513.57 237.249 514.244 237.753 515.133C238.256 516.007 238.508 517.074 238.508 518.333V526H236.108V518.667C236.108 517.615 235.79 516.689 235.153 515.889C234.531 515.074 233.649 514.667 232.508 514.667C231.575 514.667 230.738 515.007 229.997 515.689C229.271 516.356 228.908 517.326 228.908 518.6V526H226.508ZM243.626 526V514.667H240.604V512.667H243.693V508.222H245.96V512.667H249.271V514.667H246.026V526H243.626ZM254.204 519.333C254.204 518.252 254.367 517.319 254.693 516.533C255.034 515.748 255.426 515.044 255.871 514.422C256.315 513.8 256.7 513.193 257.026 512.6C257.367 512.007 257.538 511.363 257.538 510.667C257.538 509.867 257.286 509.215 256.782 508.711C256.278 508.207 255.626 507.956 254.826 507.956C254.249 507.956 253.708 508.104 253.204 508.4C252.7 508.681 252.278 509.059 251.938 509.533V506.644C252.323 506.348 252.775 506.126 253.293 505.978C253.826 505.815 254.389 505.733 254.982 505.733C256.004 505.733 256.886 505.948 257.626 506.378C258.367 506.807 258.938 507.378 259.338 508.089C259.738 508.785 259.938 509.556 259.938 510.4C259.938 511.23 259.767 511.985 259.426 512.667C259.086 513.348 258.686 514.015 258.226 514.667C257.782 515.319 257.375 516.015 257.004 516.756C256.634 517.496 256.412 518.356 256.338 519.333H254.204ZM255.271 526.267C254.812 526.267 254.419 526.104 254.093 525.778C253.767 525.452 253.604 525.059 253.604 524.6C253.604 524.126 253.767 523.733 254.093 523.422C254.419 523.096 254.812 522.933 255.271 522.933C255.745 522.933 256.138 523.096 256.449 523.422C256.775 523.733 256.938 524.126 256.938 524.6C256.938 525.059 256.775 525.452 256.449 525.778C256.138 526.104 255.745 526.267 255.271 526.267Z" fill="black"/>
<path d="M40.9556 58.3556C40.1111 58.3556 39.3333 58.2074 38.6222 57.9111C37.9259 57.6148 37.3185 57.2074 36.8 56.6889V58H33.4667V36.6667H37.3333V45.5111C37.8222 45.1259 38.3704 44.8296 38.9778 44.6222C39.5852 44.4148 40.2444 44.3111 40.9556 44.3111C42.2 44.3111 43.3259 44.6296 44.3333 45.2667C45.3407 45.8889 46.1407 46.7333 46.7333 47.8C47.3407 48.8667 47.6444 50.0444 47.6444 51.3333C47.6444 52.6222 47.3407 53.8 46.7333 54.8667C46.1407 55.9185 45.3407 56.763 44.3333 57.4C43.3259 58.037 42.2 58.3556 40.9556 58.3556ZM40.5111 54.9556C41.163 54.9556 41.7556 54.7926 42.2889 54.4667C42.8222 54.1407 43.2444 53.7037 43.5556 53.1556C43.8815 52.6074 44.0444 52 44.0444 51.3333C44.0444 50.6667 43.8815 50.0593 43.5556 49.5111C43.2444 48.963 42.8222 48.5259 42.2889 48.2C41.7556 47.8741 41.163 47.7111 40.5111 47.7111C39.8593 47.7111 39.2667 47.8741 38.7333 48.2C38.2 48.5259 37.7704 48.963 37.4444 49.5111C37.1333 50.0593 36.9778 50.6667 36.9778 51.3333C36.9778 52 37.1333 52.6074 37.4444 53.1556C37.7704 53.7037 38.2 54.1407 38.7333 54.4667C39.2667 54.7926 39.8593 54.9556 40.5111 54.9556ZM49.9042 58V44.6667H53.3708V46.9556C53.8301 46.1852 54.4079 45.5926 55.1042 45.1778C55.8153 44.7481 56.6449 44.5333 57.5931 44.5333L58.4375 47.9556C58.156 47.8667 57.8375 47.8222 57.4819 47.8222C56.3708 47.8222 55.4745 48.1852 54.7931 48.9111C54.1116 49.6222 53.7708 50.6444 53.7708 51.9778V58H49.9042ZM65.6854 58.3556C64.4558 58.3556 63.3373 58.037 62.3299 57.4C61.3225 56.763 60.515 55.9185 59.9076 54.8667C59.315 53.8 59.0188 52.6222 59.0188 51.3333C59.0188 50.0444 59.315 48.8667 59.9076 47.8C60.515 46.7333 61.3225 45.8889 62.3299 45.2667C63.3373 44.6296 64.4558 44.3111 65.6854 44.3111C66.5447 44.3111 67.3299 44.4667 68.041 44.7778C68.7521 45.0741 69.3595 45.4889 69.8632 46.0222V44.6667H73.1965V58H69.8632V56.6444C69.3595 57.1778 68.7521 57.6 68.041 57.9111C67.3299 58.2074 66.5447 58.3556 65.6854 58.3556ZM66.1521 54.9556C66.8039 54.9556 67.3965 54.7926 67.9299 54.4667C68.4632 54.1407 68.8854 53.7037 69.1965 53.1556C69.5225 52.6074 69.6854 52 69.6854 51.3333C69.6854 50.6667 69.5225 50.0593 69.1965 49.5111C68.8854 48.963 68.4632 48.5259 67.9299 48.2C67.3965 47.8741 66.8039 47.7111 66.1521 47.7111C65.5002 47.7111 64.9076 47.8741 64.3743 48.2C63.841 48.5259 63.4113 48.963 63.0854 49.5111C62.7743 50.0593 62.6188 50.6667 62.6188 51.3333C62.6188 52 62.7743 52.6074 63.0854 53.1556C63.4113 53.7037 63.841 54.1407 64.3743 54.4667C64.9076 54.7926 65.5002 54.9556 66.1521 54.9556ZM76.1229 58V44.6667H79.5896V46.1333C80.0637 45.5111 80.6488 45.037 81.3451 44.7111C82.0414 44.3852 82.7896 44.2222 83.5896 44.2222C84.5377 44.2222 85.4192 44.4519 86.234 44.9111C87.0637 45.3556 87.7303 46.0148 88.234 46.8889C88.7525 47.7481 89.0118 48.7926 89.0118 50.0222V58H85.1451V50.5333C85.1451 49.7926 84.9229 49.1333 84.4785 48.5556C84.034 47.9778 83.397 47.6889 82.5674 47.6889C81.9007 47.6889 81.3007 47.9185 80.7674 48.3778C80.2488 48.8222 79.9896 49.5259 79.9896 50.4889V58H76.1229ZM97.7076 58.3556C96.4632 58.3556 95.3373 58.037 94.3299 57.4C93.3225 56.763 92.515 55.9185 91.9076 54.8667C91.315 53.8 91.0188 52.6222 91.0188 51.3333C91.0188 50.0444 91.315 48.8667 91.9076 47.8C92.515 46.7333 93.3225 45.8889 94.3299 45.2667C95.3373 44.6296 96.4632 44.3111 97.7076 44.3111C98.4187 44.3111 99.078 44.4148 99.6854 44.6222C100.293 44.8296 100.841 45.1259 101.33 45.5111V36.6667H105.197V58H101.863V56.6889C101.359 57.2074 100.752 57.6148 100.041 57.9111C99.3299 58.2074 98.5521 58.3556 97.7076 58.3556ZM98.1521 54.9556C98.8039 54.9556 99.3965 54.7926 99.9299 54.4667C100.463 54.1407 100.885 53.7037 101.197 53.1556C101.522 52.6074 101.685 52 101.685 51.3333C101.685 50.6667 101.522 50.0593 101.197 49.5111C100.885 48.963 100.463 48.5259 99.9299 48.2C99.3965 47.8741 98.8039 47.7111 98.1521 47.7111C97.5002 47.7111 96.9076 47.8741 96.3743 48.2C95.841 48.5259 95.4113 48.963 95.0854 49.5111C94.7743 50.0593 94.6188 50.6667 94.6188 51.3333C94.6188 52 94.7743 52.6074 95.0854 53.1556C95.4113 53.7037 95.841 54.1407 96.3743 54.4667C96.9076 54.7926 97.5002 54.9556 98.1521 54.9556ZM114.779 58V44.6667H118.246V46.1333C118.72 45.5111 119.305 45.037 120.001 44.7111C120.698 44.3852 121.446 44.2222 122.246 44.2222C123.194 44.2222 124.075 44.4519 124.89 44.9111C125.72 45.3556 126.387 46.0148 126.89 46.8889C127.409 47.7481 127.668 48.7926 127.668 50.0222V58H123.801V50.5333C123.801 49.7926 123.579 49.1333 123.135 48.5556C122.69 47.9778 122.053 47.6889 121.224 47.6889C120.557 47.6889 119.957 47.9185 119.424 48.3778C118.905 48.8222 118.646 49.5259 118.646 50.4889V58H114.779ZM136.342 58.3556C135.112 58.3556 133.994 58.037 132.986 57.4C131.979 56.763 131.171 55.9185 130.564 54.8667C129.971 53.8 129.675 52.6222 129.675 51.3333C129.675 50.0444 129.971 48.8667 130.564 47.8C131.171 46.7333 131.979 45.8889 132.986 45.2667C133.994 44.6296 135.112 44.3111 136.342 44.3111C137.201 44.3111 137.986 44.4667 138.697 44.7778C139.408 45.0741 140.016 45.4889 140.519 46.0222V44.6667H143.853V58H140.519V56.6444C140.016 57.1778 139.408 57.6 138.697 57.9111C137.986 58.2074 137.201 58.3556 136.342 58.3556ZM136.808 54.9556C137.46 54.9556 138.053 54.7926 138.586 54.4667C139.119 54.1407 139.542 53.7037 139.853 53.1556C140.179 52.6074 140.342 52 140.342 51.3333C140.342 50.6667 140.179 50.0593 139.853 49.5111C139.542 48.963 139.119 48.5259 138.586 48.2C138.053 47.8741 137.46 47.7111 136.808 47.7111C136.156 47.7111 135.564 47.8741 135.031 48.2C134.497 48.5259 134.068 48.963 133.742 49.5111C133.431 50.0593 133.275 50.6667 133.275 51.3333C133.275 52 133.431 52.6074 133.742 53.1556C134.068 53.7037 134.497 54.1407 135.031 54.4667C135.564 54.7926 136.156 54.9556 136.808 54.9556ZM146.779 58V44.6667H150.246V46.1333C150.72 45.5111 151.305 45.037 152.001 44.7111C152.713 44.3852 153.453 44.2222 154.224 44.2222C155.009 44.2222 155.75 44.3852 156.446 44.7111C157.142 45.037 157.727 45.5111 158.201 46.1333C158.72 45.5111 159.364 45.037 160.135 44.7111C160.905 44.3852 161.742 44.2222 162.646 44.2222C163.594 44.2222 164.483 44.4444 165.312 44.8889C166.142 45.3185 166.816 45.9556 167.335 46.8C167.853 47.6296 168.113 48.6444 168.113 49.8444V58H164.246V50.4C164.246 49.6889 164.038 49.0593 163.624 48.5111C163.209 47.963 162.609 47.6889 161.824 47.6889C161.409 47.6889 161.009 47.7926 160.624 48C160.253 48.1926 159.95 48.4889 159.713 48.8889C159.49 49.2741 159.379 49.763 159.379 50.3556V58H155.512V50.4C155.512 49.9259 155.416 49.4815 155.224 49.0667C155.046 48.6519 154.772 48.3185 154.401 48.0667C154.046 47.8148 153.609 47.6889 153.09 47.6889C152.675 47.6889 152.275 47.7926 151.89 48C151.52 48.1926 151.216 48.4889 150.979 48.8889C150.757 49.2741 150.646 49.763 150.646 50.3556V58H146.779ZM177.69 58.4444C176.194 58.4444 174.875 58.1333 173.735 57.5111C172.594 56.8889 171.705 56.037 171.068 54.9556C170.431 53.8593 170.113 52.6074 170.113 51.2C170.113 49.8519 170.424 48.6593 171.046 47.6222C171.668 46.5704 172.505 45.7407 173.557 45.1333C174.624 44.5259 175.801 44.2222 177.09 44.2222C178.409 44.2222 179.587 44.5259 180.624 45.1333C181.661 45.7259 182.475 46.5407 183.068 47.5778C183.675 48.6148 183.979 49.7926 183.979 51.1111V52.4667H175.846C175.475 52.4667 175.12 52.4444 174.779 52.4C174.438 52.3556 174.098 52.3037 173.757 52.2444C173.935 53.1333 174.372 53.8593 175.068 54.4222C175.779 54.9704 176.683 55.2444 177.779 55.2444C178.624 55.2444 179.379 55.0741 180.046 54.7333C180.727 54.3926 181.283 53.9704 181.713 53.4667L182.557 56.9333C181.89 57.437 181.135 57.8148 180.29 58.0667C179.461 58.3185 178.594 58.4444 177.69 58.4444ZM173.668 49.9111C174.409 49.7481 175.135 49.6667 175.846 49.6667H178.201C178.616 49.6667 179.009 49.6815 179.379 49.7111C179.75 49.7407 180.098 49.7926 180.424 49.8667C180.201 49.0667 179.794 48.437 179.201 47.9778C178.624 47.5185 177.905 47.2889 177.046 47.2889C176.231 47.2889 175.52 47.5259 174.912 48C174.32 48.4593 173.905 49.0963 173.668 49.9111Z" fill="black"/>
<rect x="32.5" y="247.5" width="256" height="40" rx="7.5" stroke="black"/>
<rect x="32.5" y="403.5" width="256" height="40" rx="7.5" stroke="black"/>
<rect width="171" height="74" transform="translate(32 559)" fill="#A1A1A1"/>
<path d="M84.7617 589V582.958L81.0117 576.5H82.8451L84.9006 580.139C85.0302 580.37 85.1506 580.602 85.2617 580.833C85.3821 581.056 85.5025 581.315 85.6228 581.611C85.7432 581.315 85.8636 581.056 85.9839 580.833C86.1043 580.602 86.2293 580.37 86.3589 580.139L88.4284 576.5H90.0951L86.3451 582.958V589H84.7617ZM93.997 589.167C93.1266 589.167 92.3442 588.972 91.6497 588.583C90.9646 588.194 90.4229 587.667 90.0247 587C89.6359 586.324 89.4414 585.574 89.4414 584.75C89.4414 583.963 89.6312 583.25 90.0109 582.611C90.3905 581.963 90.8997 581.449 91.5386 581.069C92.1868 580.69 92.8997 580.5 93.6775 580.5C94.446 580.5 95.1497 580.685 95.7886 581.056C96.4275 581.417 96.9368 581.907 97.3164 582.528C97.696 583.148 97.8859 583.852 97.8859 584.639V585.25H92.4414C92.2007 585.25 91.9553 585.241 91.7053 585.222C91.4553 585.204 91.2099 585.176 90.9692 585.139C91.071 585.88 91.4044 586.5 91.9692 587C92.5433 587.5 93.2238 587.75 94.0109 587.75C94.5386 587.75 95.0294 587.63 95.4831 587.389C95.9368 587.148 96.3025 586.829 96.5803 586.431L96.997 588.139C96.5988 588.463 96.1405 588.718 95.622 588.903C95.1127 589.079 94.571 589.167 93.997 589.167ZM90.9275 584.125C91.4275 584.042 91.9321 584 92.4414 584H95.2053C95.409 584 95.6081 584.009 95.8025 584.028C96.0062 584.037 96.2099 584.051 96.4136 584.069C96.284 583.421 95.9599 582.889 95.4414 582.472C94.9229 582.046 94.3349 581.833 93.6775 581.833C93.0016 581.833 92.409 582.06 91.8997 582.514C91.3905 582.958 91.0664 583.495 90.9275 584.125ZM102.041 589.167C101.615 589.167 101.157 589.088 100.666 588.931C100.184 588.764 99.7677 588.491 99.4158 588.111L99.8325 586.472C100.092 586.907 100.425 587.255 100.832 587.514C101.24 587.764 101.675 587.889 102.138 587.889C102.582 587.889 102.916 587.782 103.138 587.569C103.36 587.347 103.471 587.079 103.471 586.764C103.471 586.403 103.351 586.139 103.11 585.972C102.879 585.806 102.67 585.69 102.485 585.625L101.36 585.194C101.157 585.111 100.911 584.991 100.624 584.833C100.337 584.667 100.087 584.431 99.8741 584.125C99.6612 583.819 99.5547 583.421 99.5547 582.931C99.5547 582.486 99.6612 582.079 99.8741 581.708C100.087 581.338 100.388 581.046 100.777 580.833C101.166 580.611 101.624 580.5 102.152 580.5C102.569 580.5 103.004 580.574 103.457 580.722C103.911 580.87 104.295 581.12 104.61 581.472L104.194 583.111C103.971 582.704 103.67 582.38 103.291 582.139C102.911 581.898 102.518 581.778 102.11 581.778C101.731 581.778 101.43 581.884 101.207 582.097C100.995 582.31 100.888 582.556 100.888 582.833C100.888 583.056 100.962 583.255 101.11 583.431C101.258 583.606 101.481 583.75 101.777 583.861L102.902 584.292C103.106 584.366 103.356 584.486 103.652 584.653C103.957 584.819 104.226 585.06 104.457 585.375C104.689 585.69 104.805 586.116 104.805 586.653C104.805 587.403 104.541 588.009 104.013 588.472C103.495 588.935 102.837 589.167 102.041 589.167ZM105.728 591.083C106.145 590.565 106.478 589.963 106.728 589.278C106.987 588.593 107.117 587.806 107.117 586.917H108.617C108.617 587.704 108.506 588.444 108.283 589.139C108.07 589.843 107.774 590.491 107.395 591.083H105.728ZM115.471 589V576.5H117.055V589H115.471ZM127.5 589.417L123.292 580.667H125L126.681 584.278C126.838 584.62 126.986 584.954 127.125 585.278C127.273 585.602 127.417 586.009 127.556 586.5C127.704 586.019 127.852 585.611 128 585.278C128.157 584.944 128.306 584.611 128.444 584.278L130.125 580.278L131.792 584.278C131.931 584.62 132.074 584.954 132.222 585.278C132.37 585.602 132.514 586.009 132.653 586.5C132.792 586.009 132.935 585.602 133.083 585.278C133.231 584.944 133.384 584.611 133.542 584.278L135.25 580.667H136.847L132.639 589.417L130.944 585.694C130.796 585.361 130.648 585.032 130.5 584.708C130.361 584.375 130.218 583.977 130.069 583.514C129.931 583.977 129.787 584.375 129.639 584.708C129.491 585.032 129.338 585.361 129.181 585.694L127.5 589.417ZM141.504 589.111C140.745 589.111 140.051 588.921 139.421 588.542C138.791 588.153 138.287 587.634 137.907 586.986C137.537 586.338 137.352 585.62 137.352 584.833C137.352 584.046 137.537 583.329 137.907 582.681C138.287 582.032 138.791 581.519 139.421 581.139C140.051 580.75 140.745 580.556 141.504 580.556C142.078 580.556 142.615 580.662 143.115 580.875C143.625 581.088 144.065 581.384 144.435 581.764V580.667H145.824V589H144.435V587.903C144.065 588.273 143.625 588.569 143.115 588.792C142.615 589.005 142.078 589.111 141.504 589.111ZM141.699 587.75C142.227 587.75 142.703 587.62 143.129 587.361C143.565 587.093 143.907 586.741 144.157 586.306C144.416 585.861 144.546 585.37 144.546 584.833C144.546 584.296 144.416 583.81 144.157 583.375C143.907 582.931 143.565 582.579 143.129 582.319C142.703 582.051 142.227 581.917 141.699 581.917C141.171 581.917 140.69 582.051 140.254 582.319C139.828 582.579 139.486 582.931 139.227 583.375C138.977 583.81 138.852 584.296 138.852 584.833C138.852 585.37 138.977 585.861 139.227 586.306C139.486 586.741 139.828 587.093 140.254 587.361C140.69 587.62 141.171 587.75 141.699 587.75ZM150.635 589.167C150.209 589.167 149.75 589.088 149.26 588.931C148.778 588.764 148.361 588.491 148.01 588.111L148.426 586.472C148.685 586.907 149.019 587.255 149.426 587.514C149.834 587.764 150.269 587.889 150.732 587.889C151.176 587.889 151.51 587.782 151.732 587.569C151.954 587.347 152.065 587.079 152.065 586.764C152.065 586.403 151.945 586.139 151.704 585.972C151.473 585.806 151.264 585.69 151.079 585.625L149.954 585.194C149.75 585.111 149.505 584.991 149.218 584.833C148.931 584.667 148.681 584.431 148.468 584.125C148.255 583.819 148.148 583.421 148.148 582.931C148.148 582.486 148.255 582.079 148.468 581.708C148.681 581.338 148.982 581.046 149.371 580.833C149.76 580.611 150.218 580.5 150.746 580.5C151.162 580.5 151.598 580.574 152.051 580.722C152.505 580.87 152.889 581.12 153.204 581.472L152.787 583.111C152.565 582.704 152.264 582.38 151.885 582.139C151.505 581.898 151.111 581.778 150.704 581.778C150.324 581.778 150.023 581.884 149.801 582.097C149.588 582.31 149.482 582.556 149.482 582.833C149.482 583.056 149.556 583.255 149.704 583.431C149.852 583.606 150.074 583.75 150.371 583.861L151.496 584.292C151.699 584.366 151.949 584.486 152.246 584.653C152.551 584.819 152.82 585.06 153.051 585.375C153.283 585.69 153.398 586.116 153.398 586.653C153.398 587.403 153.135 588.009 152.607 588.472C152.088 588.935 151.431 589.167 150.635 589.167ZM80.6157 616.111C79.8564 616.111 79.162 615.921 78.5323 615.542C77.9027 615.153 77.3981 614.634 77.0184 613.986C76.6481 613.338 76.4629 612.62 76.4629 611.833C76.4629 611.046 76.6481 610.329 77.0184 609.681C77.3981 609.032 77.9027 608.519 78.5323 608.139C79.162 607.75 79.8564 607.556 80.6157 607.556C81.162 607.556 81.6759 607.653 82.1573 607.847C82.6388 608.042 83.0647 608.31 83.4351 608.653V602.667H84.9351V616H83.5462V614.903C83.1759 615.273 82.736 615.569 82.2268 615.792C81.7268 616.005 81.1897 616.111 80.6157 616.111ZM80.8101 614.75C81.3379 614.75 81.8147 614.62 82.2407 614.361C82.6759 614.093 83.0184 613.741 83.2684 613.306C83.5277 612.861 83.6573 612.37 83.6573 611.833C83.6573 611.296 83.5277 610.81 83.2684 610.375C83.0184 609.931 82.6759 609.579 82.2407 609.319C81.8147 609.051 81.3379 608.917 80.8101 608.917C80.2823 608.917 79.8009 609.051 79.3657 609.319C78.9397 609.579 78.5971 609.931 78.3379 610.375C78.0879 610.81 77.9629 611.296 77.9629 611.833C77.9629 612.37 78.0879 612.861 78.3379 613.306C78.5971 613.741 78.9397 614.093 79.3657 614.361C79.8009 614.62 80.2823 614.75 80.8101 614.75ZM87.5931 616V607.667H89.0931V616H87.5931ZM88.3431 606.167C88.0653 606.167 87.8292 606.069 87.6348 605.875C87.4403 605.681 87.3431 605.444 87.3431 605.167C87.3431 604.88 87.4403 604.644 87.6348 604.458C87.8292 604.264 88.0653 604.167 88.3431 604.167C88.6301 604.167 88.8662 604.264 89.0514 604.458C89.2459 604.644 89.3431 604.88 89.3431 605.167C89.3431 605.444 89.2459 605.681 89.0514 605.875C88.8662 606.069 88.6301 606.167 88.3431 606.167ZM95.3227 616.111C94.5634 616.111 93.869 615.921 93.2394 615.542C92.6097 615.153 92.1051 614.634 91.7255 613.986C91.3551 613.338 91.1699 612.62 91.1699 611.833C91.1699 611.046 91.3551 610.329 91.7255 609.681C92.1051 609.032 92.6097 608.519 93.2394 608.139C93.869 607.75 94.5634 607.556 95.3227 607.556C95.8968 607.556 96.4338 607.662 96.9338 607.875C97.4431 608.088 97.8829 608.384 98.2533 608.764V607.667H99.6421V616H98.2533V614.903C97.8829 615.273 97.4431 615.569 96.9338 615.792C96.4338 616.005 95.8968 616.111 95.3227 616.111ZM95.5171 614.75C96.0449 614.75 96.5218 614.62 96.9477 614.361C97.3829 614.093 97.7255 613.741 97.9755 613.306C98.2347 612.861 98.3644 612.37 98.3644 611.833C98.3644 611.296 98.2347 610.81 97.9755 610.375C97.7255 609.931 97.3829 609.579 96.9477 609.319C96.5218 609.051 96.0449 608.917 95.5171 608.917C94.9894 608.917 94.5079 609.051 94.0727 609.319C93.6468 609.579 93.3042 609.931 93.0449 610.375C92.7949 610.81 92.6699 611.296 92.6699 611.833C92.6699 612.37 92.7949 612.861 93.0449 613.306C93.3042 613.741 93.6468 614.093 94.0727 614.361C94.5079 614.62 94.9894 614.75 95.5171 614.75ZM105.675 620.333C105.036 620.333 104.453 620.241 103.925 620.056C103.407 619.87 102.944 619.616 102.536 619.292L102.953 617.597C103.231 617.995 103.601 618.319 104.064 618.569C104.527 618.819 105.059 618.944 105.661 618.944C106.596 618.944 107.351 618.662 107.925 618.097C108.508 617.532 108.8 616.806 108.8 615.917V614.903C108.43 615.273 107.99 615.569 107.481 615.792C106.981 616.005 106.444 616.111 105.87 616.111C105.11 616.111 104.416 615.921 103.786 615.542C103.157 615.153 102.652 614.634 102.272 613.986C101.902 613.338 101.717 612.62 101.717 611.833C101.717 611.046 101.902 610.329 102.272 609.681C102.652 609.032 103.157 608.519 103.786 608.139C104.416 607.75 105.11 607.556 105.87 607.556C106.444 607.556 106.981 607.662 107.481 607.875C107.99 608.088 108.43 608.384 108.8 608.764V607.667H110.189V616C110.189 616.907 109.976 617.685 109.55 618.333C109.133 618.981 108.583 619.477 107.897 619.819C107.212 620.162 106.471 620.333 105.675 620.333ZM106.064 614.75C106.592 614.75 107.069 614.62 107.495 614.361C107.93 614.093 108.272 613.741 108.522 613.306C108.782 612.861 108.911 612.37 108.911 611.833C108.911 611.296 108.782 610.81 108.522 610.375C108.272 609.931 107.93 609.579 107.495 609.319C107.069 609.051 106.592 608.917 106.064 608.917C105.536 608.917 105.055 609.051 104.62 609.319C104.194 609.579 103.851 609.931 103.592 610.375C103.342 610.81 103.217 611.296 103.217 611.833C103.217 612.37 103.342 612.861 103.592 613.306C103.851 613.741 104.194 614.093 104.62 614.361C105.055 614.62 105.536 614.75 106.064 614.75ZM112.847 616V607.667H114.236V609.014C114.541 608.523 114.935 608.148 115.416 607.889C115.907 607.63 116.435 607.5 117 607.5C117.592 607.5 118.139 607.648 118.639 607.944C119.148 608.231 119.56 608.653 119.875 609.208C120.19 609.755 120.347 610.421 120.347 611.208V616H118.847V611.417C118.847 610.759 118.648 610.181 118.25 609.681C117.861 609.171 117.31 608.917 116.597 608.917C116.014 608.917 115.491 609.13 115.028 609.556C114.574 609.972 114.347 610.579 114.347 611.375V616H112.847ZM126.653 616.167C125.847 616.167 125.111 615.972 124.444 615.583C123.778 615.194 123.245 614.671 122.847 614.014C122.458 613.356 122.264 612.63 122.264 611.833C122.264 611.028 122.458 610.301 122.847 609.653C123.245 608.995 123.778 608.472 124.444 608.083C125.111 607.694 125.847 607.5 126.653 607.5C127.467 607.5 128.203 607.694 128.861 608.083C129.528 608.472 130.055 608.995 130.444 609.653C130.842 610.301 131.041 611.028 131.041 611.833C131.041 612.63 130.842 613.356 130.444 614.014C130.055 614.671 129.528 615.194 128.861 615.583C128.203 615.972 127.467 616.167 126.653 616.167ZM126.653 614.75C127.19 614.75 127.676 614.62 128.111 614.361C128.546 614.093 128.893 613.741 129.153 613.306C129.412 612.861 129.541 612.37 129.541 611.833C129.541 611.296 129.412 610.81 129.153 610.375C128.893 609.931 128.546 609.579 128.111 609.319C127.676 609.051 127.19 608.917 126.653 608.917C126.116 608.917 125.629 609.051 125.194 609.319C124.759 609.579 124.412 609.931 124.153 610.375C123.893 610.81 123.764 611.296 123.764 611.833C123.764 612.37 123.893 612.861 124.153 613.306C124.412 613.741 124.759 614.093 125.194 614.361C125.629 614.62 126.116 614.75 126.653 614.75ZM135.273 616.167C134.847 616.167 134.389 616.088 133.898 615.931C133.417 615.764 133 615.491 132.648 615.111L133.065 613.472C133.324 613.907 133.657 614.255 134.065 614.514C134.472 614.764 134.907 614.889 135.37 614.889C135.815 614.889 136.148 614.782 136.37 614.569C136.593 614.347 136.704 614.079 136.704 613.764C136.704 613.403 136.583 613.139 136.343 612.972C136.111 612.806 135.903 612.69 135.718 612.625L134.593 612.194C134.389 612.111 134.144 611.991 133.857 611.833C133.57 611.667 133.32 611.431 133.107 611.125C132.894 610.819 132.787 610.421 132.787 609.931C132.787 609.486 132.894 609.079 133.107 608.708C133.32 608.338 133.62 608.046 134.009 607.833C134.398 607.611 134.857 607.5 135.384 607.5C135.801 607.5 136.236 607.574 136.69 607.722C137.144 607.87 137.528 608.12 137.843 608.472L137.426 610.111C137.204 609.704 136.903 609.38 136.523 609.139C136.144 608.898 135.75 608.778 135.343 608.778C134.963 608.778 134.662 608.884 134.44 609.097C134.227 609.31 134.12 609.556 134.12 609.833C134.12 610.056 134.195 610.255 134.343 610.431C134.491 610.606 134.713 610.75 135.009 610.861L136.134 611.292C136.338 611.366 136.588 611.486 136.884 611.653C137.19 611.819 137.458 612.06 137.69 612.375C137.921 612.69 138.037 613.116 138.037 613.653C138.037 614.403 137.773 615.009 137.245 615.472C136.727 615.935 136.07 616.167 135.273 616.167ZM144.183 616.167C143.312 616.167 142.53 615.972 141.835 615.583C141.15 615.194 140.608 614.667 140.21 614C139.821 613.324 139.627 612.574 139.627 611.75C139.627 610.963 139.817 610.25 140.196 609.611C140.576 608.963 141.085 608.449 141.724 608.069C142.372 607.69 143.085 607.5 143.863 607.5C144.632 607.5 145.335 607.685 145.974 608.056C146.613 608.417 147.122 608.907 147.502 609.528C147.882 610.148 148.071 610.852 148.071 611.639V612.25H142.627C142.386 612.25 142.141 612.241 141.891 612.222C141.641 612.204 141.395 612.176 141.155 612.139C141.257 612.88 141.59 613.5 142.155 614C142.729 614.5 143.409 614.75 144.196 614.75C144.724 614.75 145.215 614.63 145.669 614.389C146.122 614.148 146.488 613.829 146.766 613.431L147.183 615.139C146.784 615.463 146.326 615.718 145.808 615.903C145.298 616.079 144.757 616.167 144.183 616.167ZM141.113 611.125C141.613 611.042 142.118 611 142.627 611H145.391C145.595 611 145.794 611.009 145.988 611.028C146.192 611.037 146.395 611.051 146.599 611.069C146.47 610.421 146.145 609.889 145.627 609.472C145.108 609.046 144.52 608.833 143.863 608.833C143.187 608.833 142.595 609.06 142.085 609.514C141.576 609.958 141.252 610.495 141.113 611.125ZM153.643 616.111C152.884 616.111 152.189 615.921 151.56 615.542C150.93 615.153 150.425 614.634 150.046 613.986C149.675 613.338 149.49 612.62 149.49 611.833C149.49 611.046 149.675 610.329 150.046 609.681C150.425 609.032 150.93 608.519 151.56 608.139C152.189 607.75 152.884 607.556 153.643 607.556C154.189 607.556 154.703 607.653 155.185 607.847C155.666 608.042 156.092 608.31 156.462 608.653V602.667H157.962V616H156.574V614.903C156.203 615.273 155.763 615.569 155.254 615.792C154.754 616.005 154.217 616.111 153.643 616.111ZM153.837 614.75C154.365 614.75 154.842 614.62 155.268 614.361C155.703 614.093 156.046 613.741 156.296 613.306C156.555 612.861 156.685 612.37 156.685 611.833C156.685 611.296 156.555 610.81 156.296 610.375C156.046 609.931 155.703 609.579 155.268 609.319C154.842 609.051 154.365 608.917 153.837 608.917C153.31 608.917 152.828 609.051 152.393 609.319C151.967 609.579 151.624 609.931 151.365 610.375C151.115 610.81 150.99 611.296 150.99 611.833C150.99 612.37 151.115 612.861 151.365 613.306C151.624 613.741 151.967 614.093 152.393 614.361C152.828 614.62 153.31 614.75 153.837 614.75Z" fill="black"/>
<rect width="142" height="74" transform="translate(231 559)" fill="#A1A1A1"/>
<path d="M263.111 589.417L254.361 580.042V589H252.861V576.083L261.611 585.458V576.5H263.111V589.417ZM270 589.167C269.195 589.167 268.459 588.972 267.792 588.583C267.125 588.194 266.593 587.671 266.195 587.014C265.806 586.356 265.611 585.63 265.611 584.833C265.611 584.028 265.806 583.301 266.195 582.653C266.593 581.995 267.125 581.472 267.792 581.083C268.459 580.694 269.195 580.5 270 580.5C270.815 580.5 271.551 580.694 272.209 581.083C272.875 581.472 273.403 581.995 273.792 582.653C274.19 583.301 274.389 584.028 274.389 584.833C274.389 585.63 274.19 586.356 273.792 587.014C273.403 587.671 272.875 588.194 272.209 588.583C271.551 588.972 270.815 589.167 270 589.167ZM270 587.75C270.537 587.75 271.023 587.62 271.459 587.361C271.894 587.093 272.241 586.741 272.5 586.306C272.759 585.861 272.889 585.37 272.889 584.833C272.889 584.296 272.759 583.81 272.5 583.375C272.241 582.931 271.894 582.579 271.459 582.319C271.023 582.051 270.537 581.917 270 581.917C269.463 581.917 268.977 582.051 268.542 582.319C268.107 582.579 267.759 582.931 267.5 583.375C267.241 583.81 267.111 584.296 267.111 584.833C267.111 585.37 267.241 585.861 267.5 586.306C267.759 586.741 268.107 587.093 268.542 587.361C268.977 587.62 269.463 587.75 270 587.75ZM275.218 591.083C275.635 590.565 275.968 589.963 276.218 589.278C276.477 588.593 276.607 587.806 276.607 586.917H278.107C278.107 587.704 277.996 588.444 277.774 589.139C277.561 589.843 277.264 590.491 276.885 591.083H275.218ZM284.962 589V576.5H286.545V589H284.962ZM296.99 589.417L292.782 580.667H294.49L296.171 584.278C296.328 584.62 296.476 584.954 296.615 585.278C296.763 585.602 296.907 586.009 297.046 586.5C297.194 586.019 297.342 585.611 297.49 585.278C297.648 584.944 297.796 584.611 297.935 584.278L299.615 580.278L301.282 584.278C301.421 584.62 301.564 584.954 301.712 585.278C301.861 585.602 302.004 586.009 302.143 586.5C302.282 586.009 302.425 585.602 302.574 585.278C302.722 584.944 302.874 584.611 303.032 584.278L304.74 580.667H306.337L302.129 589.417L300.435 585.694C300.287 585.361 300.138 585.032 299.99 584.708C299.851 584.375 299.708 583.977 299.56 583.514C299.421 583.977 299.277 584.375 299.129 584.708C298.981 585.032 298.828 585.361 298.671 585.694L296.99 589.417ZM310.995 589.111C310.235 589.111 309.541 588.921 308.911 588.542C308.282 588.153 307.777 587.634 307.397 586.986C307.027 586.338 306.842 585.62 306.842 584.833C306.842 584.046 307.027 583.329 307.397 582.681C307.777 582.032 308.282 581.519 308.911 581.139C309.541 580.75 310.235 580.556 310.995 580.556C311.569 580.556 312.106 580.662 312.606 580.875C313.115 581.088 313.555 581.384 313.925 581.764V580.667H315.314V589H313.925V587.903C313.555 588.273 313.115 588.569 312.606 588.792C312.106 589.005 311.569 589.111 310.995 589.111ZM311.189 587.75C311.717 587.75 312.194 587.62 312.62 587.361C313.055 587.093 313.397 586.741 313.647 586.306C313.907 585.861 314.036 585.37 314.036 584.833C314.036 584.296 313.907 583.81 313.647 583.375C313.397 582.931 313.055 582.579 312.62 582.319C312.194 582.051 311.717 581.917 311.189 581.917C310.661 581.917 310.18 582.051 309.745 582.319C309.319 582.579 308.976 582.931 308.717 583.375C308.467 583.81 308.342 584.296 308.342 584.833C308.342 585.37 308.467 585.861 308.717 586.306C308.976 586.741 309.319 587.093 309.745 587.361C310.18 587.62 310.661 587.75 311.189 587.75ZM317.972 589V580.667H319.361V582.014C319.666 581.523 320.06 581.148 320.541 580.889C321.032 580.63 321.56 580.5 322.125 580.5C322.717 580.5 323.264 580.648 323.764 580.944C324.273 581.231 324.685 581.653 325 582.208C325.315 582.755 325.472 583.421 325.472 584.208V589H323.972V584.417C323.972 583.759 323.773 583.181 323.375 582.681C322.986 582.171 322.435 581.917 321.722 581.917C321.139 581.917 320.616 582.13 320.153 582.556C319.699 582.972 319.472 583.579 319.472 584.375V589H317.972ZM328.671 589V581.917H326.782V580.667H328.712V577.889H330.129V580.667H332.199V581.917H330.171V589H328.671ZM339.081 589V581.917H337.192V580.667H339.123V577.889H340.539V580.667H342.609V581.917H340.581V589H339.081ZM347.754 589.167C346.949 589.167 346.212 588.972 345.546 588.583C344.879 588.194 344.347 587.671 343.949 587.014C343.56 586.356 343.365 585.63 343.365 584.833C343.365 584.028 343.56 583.301 343.949 582.653C344.347 581.995 344.879 581.472 345.546 581.083C346.212 580.694 346.949 580.5 347.754 580.5C348.569 580.5 349.305 580.694 349.962 581.083C350.629 581.472 351.157 581.995 351.546 582.653C351.944 583.301 352.143 584.028 352.143 584.833C352.143 585.63 351.944 586.356 351.546 587.014C351.157 587.671 350.629 588.194 349.962 588.583C349.305 588.972 348.569 589.167 347.754 589.167ZM347.754 587.75C348.291 587.75 348.777 587.62 349.212 587.361C349.648 587.093 349.995 586.741 350.254 586.306C350.513 585.861 350.643 585.37 350.643 584.833C350.643 584.296 350.513 583.81 350.254 583.375C349.995 582.931 349.648 582.579 349.212 582.319C348.777 582.051 348.291 581.917 347.754 581.917C347.217 581.917 346.731 582.051 346.296 582.319C345.861 582.579 345.513 582.931 345.254 583.375C344.995 583.81 344.865 584.296 344.865 584.833C344.865 585.37 344.995 585.861 345.254 586.306C345.513 586.741 345.861 587.093 346.296 587.361C346.731 587.62 347.217 587.75 347.754 587.75ZM282.923 616V602.667H284.423V616H282.923ZM291.056 616.167C290.185 616.167 289.403 615.972 288.708 615.583C288.023 615.194 287.481 614.667 287.083 614C286.694 613.324 286.5 612.574 286.5 611.75C286.5 610.963 286.69 610.25 287.069 609.611C287.449 608.963 287.958 608.449 288.597 608.069C289.245 607.69 289.958 607.5 290.736 607.5C291.505 607.5 292.208 607.685 292.847 608.056C293.486 608.417 293.995 608.907 294.375 609.528C294.755 610.148 294.944 610.852 294.944 611.639V612.25H289.5C289.259 612.25 289.014 612.241 288.764 612.222C288.514 612.204 288.269 612.176 288.028 612.139C288.13 612.88 288.463 613.5 289.028 614C289.602 614.5 290.282 614.75 291.069 614.75C291.597 614.75 292.088 614.63 292.542 614.389C292.995 614.148 293.361 613.829 293.639 613.431L294.056 615.139C293.657 615.463 293.199 615.718 292.681 615.903C292.171 616.079 291.63 616.167 291.056 616.167ZM287.986 611.125C288.486 611.042 288.991 611 289.5 611H292.264C292.468 611 292.667 611.009 292.861 611.028C293.065 611.037 293.269 611.051 293.472 611.069C293.343 610.421 293.019 609.889 292.5 609.472C291.981 609.046 291.394 608.833 290.736 608.833C290.06 608.833 289.468 609.06 288.958 609.514C288.449 609.958 288.125 610.495 287.986 611.125ZM300.516 616.111C299.757 616.111 299.062 615.921 298.433 615.542C297.803 615.153 297.298 614.634 296.919 613.986C296.548 613.338 296.363 612.62 296.363 611.833C296.363 611.046 296.548 610.329 296.919 609.681C297.298 609.032 297.803 608.519 298.433 608.139C299.062 607.75 299.757 607.556 300.516 607.556C301.09 607.556 301.627 607.662 302.127 607.875C302.636 608.088 303.076 608.384 303.447 608.764V607.667H304.836V616H303.447V614.903C303.076 615.273 302.636 615.569 302.127 615.792C301.627 616.005 301.09 616.111 300.516 616.111ZM300.711 614.75C301.238 614.75 301.715 614.62 302.141 614.361C302.576 614.093 302.919 613.741 303.169 613.306C303.428 612.861 303.558 612.37 303.558 611.833C303.558 611.296 303.428 610.81 303.169 610.375C302.919 609.931 302.576 609.579 302.141 609.319C301.715 609.051 301.238 608.917 300.711 608.917C300.183 608.917 299.701 609.051 299.266 609.319C298.84 609.579 298.498 609.931 298.238 610.375C297.988 610.81 297.863 611.296 297.863 611.833C297.863 612.37 297.988 612.861 298.238 613.306C298.498 613.741 298.84 614.093 299.266 614.361C299.701 614.62 300.183 614.75 300.711 614.75ZM307.493 616V607.667H308.882V609.194C309.179 608.704 309.572 608.315 310.063 608.028C310.554 607.731 311.137 607.583 311.813 607.583L312.188 609.083C312.012 609.028 311.808 609 311.577 609C310.799 609 310.174 609.25 309.702 609.75C309.23 610.241 308.993 610.944 308.993 611.861V616H307.493ZM313.743 616V607.667H315.132V609.014C315.438 608.523 315.831 608.148 316.313 607.889C316.804 607.63 317.331 607.5 317.896 607.5C318.489 607.5 319.035 607.648 319.535 607.944C320.044 608.231 320.456 608.653 320.771 609.208C321.086 609.755 321.243 610.421 321.243 611.208V616H319.743V611.417C319.743 610.759 319.544 610.181 319.146 609.681C318.757 609.171 318.206 608.917 317.493 608.917C316.91 608.917 316.387 609.13 315.924 609.556C315.47 609.972 315.243 610.579 315.243 611.375V616H313.743Z" fill="black"/>
</svg>
