<svg width="430" height="932" viewBox="0 0 430 932" fill="none" xmlns="http://www.w3.org/2000/svg">
<rect width="430" height="932" fill="white"/>
<path d="M39.9778 214.667L32.2667 194H34.8444L39.3778 206C39.5407 206.415 39.6741 206.815 39.7778 207.2C39.8815 207.57 39.9926 208.015 40.1111 208.533C40.2296 208.015 40.3407 207.57 40.4444 207.2C40.563 206.815 40.6963 206.415 40.8444 206L45.4222 193.333L49.9778 206C50.1111 206.37 50.237 206.748 50.3556 207.133C50.4889 207.504 50.6074 207.97 50.7111 208.533C50.8296 207.97 50.9481 207.504 51.0667 207.133C51.1852 206.748 51.3185 206.37 51.4667 206L56 194H58.4L50.7111 214.667L46.0889 201.689C45.9556 201.304 45.8296 200.933 45.7111 200.578C45.5926 200.207 45.4741 199.741 45.3556 199.178C45.237 199.741 45.1185 200.207 45 200.578C44.8815 200.933 44.7556 201.304 44.6222 201.689L39.9778 214.667ZM60.7896 214V192.667H63.1896V202.556C63.6933 201.859 64.3155 201.326 65.0563 200.956C65.797 200.585 66.5896 200.4 67.434 200.4C68.3822 200.4 69.2563 200.637 70.0563 201.111C70.8711 201.57 71.5303 202.244 72.034 203.133C72.5377 204.007 72.7896 205.074 72.7896 206.333V214H70.3896V206.667C70.3896 205.615 70.0711 204.689 69.434 203.889C68.8118 203.074 67.9303 202.667 66.7896 202.667C65.8563 202.667 65.0192 203.007 64.2785 203.689C63.5525 204.356 63.1896 205.326 63.1896 206.6V214H60.7896ZM82.5007 214.178C81.2859 214.178 80.1748 213.874 79.1674 213.267C78.16 212.644 77.3525 211.815 76.7451 210.778C76.1525 209.741 75.8563 208.593 75.8563 207.333C75.8563 206.074 76.1525 204.926 76.7451 203.889C77.3525 202.852 78.16 202.03 79.1674 201.422C80.1748 200.8 81.2859 200.489 82.5007 200.489C83.4192 200.489 84.2785 200.659 85.0785 201C85.8933 201.341 86.597 201.815 87.1896 202.422V200.667H89.4118V214H87.1896V212.244C86.597 212.837 85.8933 213.311 85.0785 213.667C84.2785 214.007 83.4192 214.178 82.5007 214.178ZM82.8118 212C83.6562 212 84.4192 211.793 85.1007 211.378C85.797 210.948 86.3451 210.385 86.7451 209.689C87.16 208.978 87.3674 208.193 87.3674 207.333C87.3674 206.474 87.16 205.696 86.7451 205C86.3451 204.289 85.797 203.726 85.1007 203.311C84.4192 202.881 83.6562 202.667 82.8118 202.667C81.9674 202.667 81.197 202.881 80.5007 203.311C79.8192 203.726 79.2711 204.289 78.8563 205C78.4563 205.696 78.2563 206.474 78.2563 207.333C78.2563 208.193 78.4563 208.978 78.8563 209.689C79.2711 210.385 79.8192 210.948 80.5007 211.378C81.197 211.793 81.9674 212 82.8118 212ZM95.2201 214V202.667H92.1979V200.667H95.2868V196.222H97.5535V200.667H100.865V202.667H97.6201V214H95.2201ZM115.188 214.667L108.454 200.667H111.188L113.876 206.444C114.128 206.993 114.365 207.526 114.588 208.044C114.825 208.563 115.054 209.215 115.276 210C115.513 209.23 115.75 208.578 115.988 208.044C116.239 207.511 116.476 206.978 116.699 206.444L119.387 200.044L122.054 206.444C122.276 206.993 122.506 207.526 122.743 208.044C122.98 208.563 123.21 209.215 123.432 210C123.654 209.215 123.884 208.563 124.121 208.044C124.358 207.511 124.602 206.978 124.854 206.444L127.587 200.667H130.143L123.41 214.667L120.699 208.711C120.462 208.178 120.225 207.652 119.988 207.133C119.765 206.6 119.536 205.963 119.299 205.222C119.076 205.963 118.847 206.6 118.61 207.133C118.373 207.652 118.128 208.178 117.876 208.711L115.188 214.667ZM138.239 214.267C136.846 214.267 135.594 213.956 134.483 213.333C133.387 212.711 132.52 211.867 131.883 210.8C131.261 209.719 130.95 208.519 130.95 207.2C130.95 205.941 131.254 204.8 131.861 203.778C132.469 202.741 133.283 201.919 134.306 201.311C135.343 200.704 136.483 200.4 137.728 200.4C138.957 200.4 140.083 200.696 141.106 201.289C142.128 201.867 142.943 202.652 143.55 203.644C144.157 204.637 144.461 205.763 144.461 207.022V208H135.75C135.365 208 134.972 207.985 134.572 207.956C134.172 207.926 133.78 207.881 133.394 207.822C133.557 209.007 134.091 210 134.994 210.8C135.913 211.6 137.002 212 138.261 212C139.106 212 139.891 211.807 140.617 211.422C141.343 211.037 141.928 210.526 142.372 209.889L143.039 212.622C142.402 213.141 141.669 213.548 140.839 213.844C140.024 214.126 139.157 214.267 138.239 214.267ZM133.328 206.2C134.128 206.067 134.935 206 135.75 206H140.172C140.498 206 140.817 206.015 141.128 206.044C141.454 206.059 141.78 206.081 142.106 206.111C141.898 205.074 141.38 204.222 140.55 203.556C139.72 202.874 138.78 202.533 137.728 202.533C136.646 202.533 135.698 202.896 134.883 203.622C134.069 204.333 133.55 205.193 133.328 206.2ZM147.665 214V200.667H149.887V203.111C150.361 202.326 150.991 201.704 151.776 201.244C152.561 200.77 153.494 200.533 154.576 200.533L155.176 202.933C154.894 202.844 154.568 202.8 154.198 202.8C152.953 202.8 151.953 203.2 151.198 204C150.442 204.785 150.065 205.911 150.065 207.378V214H147.665ZM163.583 214.267C162.19 214.267 160.938 213.956 159.827 213.333C158.731 212.711 157.864 211.867 157.227 210.8C156.605 209.719 156.294 208.519 156.294 207.2C156.294 205.941 156.597 204.8 157.205 203.778C157.812 202.741 158.627 201.919 159.649 201.311C160.686 200.704 161.827 200.4 163.072 200.4C164.301 200.4 165.427 200.696 166.449 201.289C167.472 201.867 168.286 202.652 168.894 203.644C169.501 204.637 169.805 205.763 169.805 207.022V208H161.094C160.709 208 160.316 207.985 159.916 207.956C159.516 207.926 159.123 207.881 158.738 207.822C158.901 209.007 159.434 210 160.338 210.8C161.257 211.6 162.346 212 163.605 212C164.449 212 165.234 211.807 165.96 211.422C166.686 211.037 167.272 210.526 167.716 209.889L168.383 212.622C167.746 213.141 167.012 213.548 166.183 213.844C165.368 214.126 164.501 214.267 163.583 214.267ZM158.672 206.2C159.472 206.067 160.279 206 161.094 206H165.516C165.842 206 166.16 206.015 166.472 206.044C166.797 206.059 167.123 206.081 167.449 206.111C167.242 205.074 166.723 204.222 165.894 203.556C165.064 202.874 164.123 202.533 163.072 202.533C161.99 202.533 161.042 202.896 160.227 203.622C159.412 204.333 158.894 205.193 158.672 206.2ZM179.109 220.667L183.442 212.044L177.798 200.667H180.509L183.353 206.444C183.605 206.963 183.85 207.474 184.087 207.978C184.324 208.481 184.561 209.089 184.798 209.8C185.05 209.089 185.287 208.481 185.509 207.978C185.746 207.459 185.998 206.948 186.265 206.444L189.153 200.667H191.709L181.709 220.667H179.109ZM199.535 214.267C198.246 214.267 197.068 213.956 196.001 213.333C194.935 212.711 194.083 211.874 193.446 210.822C192.824 209.77 192.513 208.607 192.513 207.333C192.513 206.044 192.824 204.881 193.446 203.844C194.083 202.793 194.935 201.956 196.001 201.333C197.068 200.711 198.246 200.4 199.535 200.4C200.838 200.4 202.016 200.711 203.068 201.333C204.135 201.956 204.979 202.793 205.601 203.844C206.238 204.881 206.557 206.044 206.557 207.333C206.557 208.607 206.238 209.77 205.601 210.822C204.979 211.874 204.135 212.711 203.068 213.333C202.016 213.956 200.838 214.267 199.535 214.267ZM199.535 212C200.394 212 201.172 211.793 201.868 211.378C202.564 210.948 203.12 210.385 203.535 209.689C203.95 208.978 204.157 208.193 204.157 207.333C204.157 206.474 203.95 205.696 203.535 205C203.12 204.289 202.564 203.726 201.868 203.311C201.172 202.881 200.394 202.667 199.535 202.667C198.675 202.667 197.898 202.881 197.201 203.311C196.505 203.726 195.95 204.289 195.535 205C195.12 205.696 194.913 206.474 194.913 207.333C194.913 208.193 195.12 208.978 195.535 209.689C195.95 210.385 196.505 210.948 197.201 211.378C197.898 211.793 198.675 212 199.535 212ZM214.972 214.267C214.039 214.267 213.165 214.037 212.35 213.578C211.535 213.104 210.876 212.422 210.372 211.533C209.869 210.644 209.617 209.578 209.617 208.333V200.667H212.017V208C212.017 209.052 212.328 209.985 212.95 210.8C213.587 211.6 214.476 212 215.617 212C216.55 212 217.38 211.667 218.106 211C218.846 210.319 219.217 209.341 219.217 208.067V200.667H221.617V214H219.394V211.844C218.906 212.63 218.269 213.23 217.483 213.644C216.713 214.059 215.876 214.267 214.972 214.267ZM238.251 214.178C237.036 214.178 235.925 213.874 234.917 213.267C233.91 212.644 233.103 211.815 232.495 210.778C231.903 209.741 231.606 208.593 231.606 207.333C231.606 206.074 231.903 204.926 232.495 203.889C233.103 202.852 233.91 202.03 234.917 201.422C235.925 200.8 237.036 200.489 238.251 200.489C239.125 200.489 239.947 200.644 240.717 200.956C241.488 201.267 242.169 201.696 242.762 202.244V192.667H245.162V214H242.94V212.244C242.347 212.837 241.643 213.311 240.828 213.667C240.028 214.007 239.169 214.178 238.251 214.178ZM238.562 212C239.406 212 240.169 211.793 240.851 211.378C241.547 210.948 242.095 210.385 242.495 209.689C242.91 208.978 243.117 208.193 243.117 207.333C243.117 206.474 242.91 205.696 242.495 205C242.095 204.289 241.547 203.726 240.851 203.311C240.169 202.881 239.406 202.667 238.562 202.667C237.717 202.667 236.947 202.881 236.251 203.311C235.569 203.726 235.021 204.289 234.606 205C234.206 205.696 234.006 206.474 234.006 207.333C234.006 208.193 234.206 208.978 234.606 209.689C235.021 210.385 235.569 210.948 236.251 211.378C236.947 211.793 237.717 212 238.562 212ZM249.415 214V200.667H251.815V214H249.415ZM250.615 198.267C250.17 198.267 249.792 198.111 249.481 197.8C249.17 197.489 249.015 197.111 249.015 196.667C249.015 196.207 249.17 195.83 249.481 195.533C249.792 195.222 250.17 195.067 250.615 195.067C251.074 195.067 251.452 195.222 251.748 195.533C252.059 195.83 252.215 196.207 252.215 196.667C252.215 197.111 252.059 197.489 251.748 197.8C251.452 198.111 251.074 198.267 250.615 198.267ZM261.782 214.178C260.567 214.178 259.456 213.874 258.449 213.267C257.441 212.644 256.634 211.815 256.026 210.778C255.434 209.741 255.138 208.593 255.138 207.333C255.138 206.074 255.434 204.926 256.026 203.889C256.634 202.852 257.441 202.03 258.449 201.422C259.456 200.8 260.567 200.489 261.782 200.489C262.7 200.489 263.56 200.659 264.36 201C265.175 201.341 265.878 201.815 266.471 202.422V200.667H268.693V214H266.471V212.244C265.878 212.837 265.175 213.311 264.36 213.667C263.56 214.007 262.7 214.178 261.782 214.178ZM262.093 212C262.938 212 263.7 211.793 264.382 211.378C265.078 210.948 265.626 210.385 266.026 209.689C266.441 208.978 266.649 208.193 266.649 207.333C266.649 206.474 266.441 205.696 266.026 205C265.626 204.289 265.078 203.726 264.382 203.311C263.7 202.881 262.938 202.667 262.093 202.667C261.249 202.667 260.478 202.881 259.782 203.311C259.1 203.726 258.552 204.289 258.138 205C257.738 205.696 257.538 206.474 257.538 207.333C257.538 208.193 257.738 208.978 258.138 209.689C258.552 210.385 259.1 210.948 259.782 211.378C260.478 211.793 261.249 212 262.093 212ZM278.346 220.933C277.324 220.933 276.39 220.785 275.546 220.489C274.716 220.193 273.975 219.785 273.324 219.267L273.99 216.556C274.435 217.193 275.027 217.711 275.768 218.111C276.509 218.511 277.361 218.711 278.324 218.711C279.82 218.711 281.027 218.259 281.946 217.356C282.879 216.452 283.346 215.289 283.346 213.867V212.244C282.753 212.837 282.05 213.311 281.235 213.667C280.435 214.007 279.575 214.178 278.657 214.178C277.442 214.178 276.331 213.874 275.324 213.267C274.316 212.644 273.509 211.815 272.901 210.778C272.309 209.741 272.013 208.593 272.013 207.333C272.013 206.074 272.309 204.926 272.901 203.889C273.509 202.852 274.316 202.03 275.324 201.422C276.331 200.8 277.442 200.489 278.657 200.489C279.575 200.489 280.435 200.659 281.235 201C282.05 201.341 282.753 201.815 283.346 202.422V200.667H285.568V214C285.568 215.452 285.227 216.696 284.546 217.733C283.879 218.77 282.998 219.563 281.901 220.111C280.805 220.659 279.62 220.933 278.346 220.933ZM278.968 212C279.812 212 280.575 211.793 281.257 211.378C281.953 210.948 282.501 210.385 282.901 209.689C283.316 208.978 283.524 208.193 283.524 207.333C283.524 206.474 283.316 205.696 282.901 205C282.501 204.289 281.953 203.726 281.257 203.311C280.575 202.881 279.812 202.667 278.968 202.667C278.124 202.667 277.353 202.881 276.657 203.311C275.975 203.726 275.427 204.289 275.013 205C274.613 205.696 274.413 206.474 274.413 207.333C274.413 208.193 274.613 208.978 275.013 209.689C275.427 210.385 275.975 210.948 276.657 211.378C277.353 211.793 278.124 212 278.968 212ZM289.821 214V200.667H292.043V202.822C292.532 202.037 293.162 201.437 293.932 201.022C294.717 200.607 295.562 200.4 296.465 200.4C297.413 200.4 298.288 200.637 299.088 201.111C299.902 201.57 300.562 202.244 301.065 203.133C301.569 204.007 301.821 205.074 301.821 206.333V214H299.421V206.667C299.421 205.615 299.102 204.689 298.465 203.889C297.843 203.074 296.962 202.667 295.821 202.667C294.888 202.667 294.05 203.007 293.31 203.689C292.584 204.356 292.221 205.326 292.221 206.6V214H289.821ZM311.91 214.267C310.621 214.267 309.443 213.956 308.376 213.333C307.31 212.711 306.458 211.874 305.821 210.822C305.199 209.77 304.888 208.607 304.888 207.333C304.888 206.044 305.199 204.881 305.821 203.844C306.458 202.793 307.31 201.956 308.376 201.333C309.443 200.711 310.621 200.4 311.91 200.4C313.213 200.4 314.391 200.711 315.443 201.333C316.51 201.956 317.354 202.793 317.976 203.844C318.613 204.881 318.932 206.044 318.932 207.333C318.932 208.607 318.613 209.77 317.976 210.822C317.354 211.874 316.51 212.711 315.443 213.333C314.391 213.956 313.213 214.267 311.91 214.267ZM311.91 212C312.769 212 313.547 211.793 314.243 211.378C314.939 210.948 315.495 210.385 315.91 209.689C316.325 208.978 316.532 208.193 316.532 207.333C316.532 206.474 316.325 205.696 315.91 205C315.495 204.289 314.939 203.726 314.243 203.311C313.547 202.881 312.769 202.667 311.91 202.667C311.05 202.667 310.273 202.881 309.576 203.311C308.88 203.726 308.325 204.289 307.91 205C307.495 205.696 307.288 206.474 307.288 207.333C307.288 208.193 307.495 208.978 307.91 209.689C308.325 210.385 308.88 210.948 309.576 211.378C310.273 211.793 311.05 212 311.91 212ZM325.703 214.267C325.021 214.267 324.288 214.141 323.503 213.889C322.732 213.622 322.066 213.185 321.503 212.578L322.169 209.956C322.584 210.652 323.118 211.207 323.769 211.622C324.421 212.022 325.118 212.222 325.858 212.222C326.569 212.222 327.103 212.052 327.458 211.711C327.814 211.356 327.992 210.926 327.992 210.422C327.992 209.844 327.799 209.422 327.414 209.156C327.044 208.889 326.71 208.704 326.414 208.6L324.614 207.911C324.288 207.778 323.895 207.585 323.436 207.333C322.977 207.067 322.577 206.689 322.236 206.2C321.895 205.711 321.725 205.074 321.725 204.289C321.725 203.578 321.895 202.926 322.236 202.333C322.577 201.741 323.058 201.274 323.681 200.933C324.303 200.578 325.036 200.4 325.881 200.4C326.547 200.4 327.244 200.519 327.969 200.756C328.695 200.993 329.31 201.393 329.814 201.956L329.147 204.578C328.792 203.926 328.31 203.407 327.703 203.022C327.095 202.637 326.466 202.444 325.814 202.444C325.206 202.444 324.725 202.615 324.369 202.956C324.029 203.296 323.858 203.689 323.858 204.133C323.858 204.489 323.977 204.807 324.214 205.089C324.451 205.37 324.806 205.6 325.281 205.778L327.081 206.467C327.406 206.585 327.806 206.778 328.281 207.044C328.769 207.311 329.199 207.696 329.569 208.2C329.94 208.704 330.125 209.385 330.125 210.244C330.125 211.444 329.703 212.415 328.858 213.156C328.029 213.896 326.977 214.267 325.703 214.267ZM339.958 214.267C338.565 214.267 337.313 213.956 336.202 213.333C335.106 212.711 334.239 211.867 333.602 210.8C332.98 209.719 332.669 208.519 332.669 207.2C332.669 205.941 332.972 204.8 333.58 203.778C334.187 202.741 335.002 201.919 336.024 201.311C337.061 200.704 338.202 200.4 339.447 200.4C340.676 200.4 341.802 200.696 342.824 201.289C343.847 201.867 344.661 202.652 345.269 203.644C345.876 204.637 346.18 205.763 346.18 207.022V208H337.469C337.084 208 336.691 207.985 336.291 207.956C335.891 207.926 335.498 207.881 335.113 207.822C335.276 209.007 335.809 210 336.713 210.8C337.632 211.6 338.721 212 339.98 212C340.824 212 341.609 211.807 342.335 211.422C343.061 211.037 343.647 210.526 344.091 209.889L344.758 212.622C344.121 213.141 343.387 213.548 342.558 213.844C341.743 214.126 340.876 214.267 339.958 214.267ZM335.047 206.2C335.847 206.067 336.654 206 337.469 206H341.891C342.217 206 342.535 206.015 342.847 206.044C343.172 206.059 343.498 206.081 343.824 206.111C343.617 205.074 343.098 204.222 342.269 203.556C341.439 202.874 340.498 202.533 339.447 202.533C338.365 202.533 337.417 202.896 336.602 203.622C335.787 204.333 335.269 205.193 335.047 206.2ZM355.094 214.178C353.88 214.178 352.769 213.874 351.761 213.267C350.754 212.644 349.946 211.815 349.339 210.778C348.746 209.741 348.45 208.593 348.45 207.333C348.45 206.074 348.746 204.926 349.339 203.889C349.946 202.852 350.754 202.03 351.761 201.422C352.769 200.8 353.88 200.489 355.094 200.489C355.969 200.489 356.791 200.644 357.561 200.956C358.331 201.267 359.013 201.696 359.606 202.244V192.667H362.006V214H359.783V212.244C359.191 212.837 358.487 213.311 357.672 213.667C356.872 214.007 356.013 214.178 355.094 214.178ZM355.406 212C356.25 212 357.013 211.793 357.694 211.378C358.391 210.948 358.939 210.385 359.339 209.689C359.754 208.978 359.961 208.193 359.961 207.333C359.961 206.474 359.754 205.696 359.339 205C358.939 204.289 358.391 203.726 357.694 203.311C357.013 202.881 356.25 202.667 355.406 202.667C354.561 202.667 353.791 202.881 353.094 203.311C352.413 203.726 351.865 204.289 351.45 205C351.05 205.696 350.85 206.474 350.85 207.333C350.85 208.193 351.05 208.978 351.45 209.689C351.865 210.385 352.413 210.948 353.094 211.378C353.791 211.793 354.561 212 355.406 212ZM39 257.667L32.2667 243.667H35L37.6889 249.444C37.9407 249.993 38.1778 250.526 38.4 251.044C38.637 251.563 38.8667 252.215 39.0889 253C39.3259 252.23 39.563 251.578 39.8 251.044C40.0519 250.511 40.2889 249.978 40.5111 249.444L43.2 243.044L45.8667 249.444C46.0889 249.993 46.3185 250.526 46.5556 251.044C46.7926 251.563 47.0222 252.215 47.2444 253C47.4667 252.215 47.6963 251.563 47.9333 251.044C48.1704 250.511 48.4148 249.978 48.6667 249.444L51.4 243.667H53.9556L47.2222 257.667L44.5111 251.711C44.2741 251.178 44.037 250.652 43.8 250.133C43.5778 249.6 43.3481 248.963 43.1111 248.222C42.8889 248.963 42.6593 249.6 42.4222 250.133C42.1852 250.652 41.9407 251.178 41.6889 251.711L39 257.667ZM56.3521 257V243.667H58.7521V257H56.3521ZM57.5521 241.267C57.1076 241.267 56.7299 241.111 56.4188 240.8C56.1076 240.489 55.9521 240.111 55.9521 239.667C55.9521 239.207 56.1076 238.83 56.4188 238.533C56.7299 238.222 57.1076 238.067 57.5521 238.067C58.0113 238.067 58.3891 238.222 58.6854 238.533C58.9965 238.83 59.1521 239.207 59.1521 239.667C59.1521 240.111 58.9965 240.489 58.6854 240.8C58.3891 241.111 58.0113 241.267 57.5521 241.267ZM64.5639 257V245.667H61.5417V243.667H64.6306V239.222H66.8972V243.667H70.2083V245.667H66.9639V257H64.5639ZM73.0083 257V235.667H75.4083V245.556C75.912 244.859 76.5343 244.326 77.275 243.956C78.0157 243.585 78.8083 243.4 79.6528 243.4C80.6009 243.4 81.475 243.637 82.275 244.111C83.0898 244.57 83.7491 245.244 84.2528 246.133C84.7565 247.007 85.0083 248.074 85.0083 249.333V257H82.6083V249.667C82.6083 248.615 82.2898 247.689 81.6528 246.889C81.0306 246.074 80.1491 245.667 79.0083 245.667C78.075 245.667 77.238 246.007 76.4972 246.689C75.7713 247.356 75.4083 248.326 75.4083 249.6V257H73.0083ZM91.1417 250.333C91.1417 249.252 91.3046 248.319 91.6306 247.533C91.9713 246.748 92.3639 246.044 92.8083 245.422C93.2528 244.8 93.638 244.193 93.9639 243.6C94.3046 243.007 94.475 242.363 94.475 241.667C94.475 240.867 94.2231 240.215 93.7194 239.711C93.2157 239.207 92.5639 238.956 91.7639 238.956C91.1861 238.956 90.6454 239.104 90.1417 239.4C89.638 239.681 89.2157 240.059 88.875 240.533V237.644C89.2602 237.348 89.712 237.126 90.2306 236.978C90.7639 236.815 91.3269 236.733 91.9194 236.733C92.9417 236.733 93.8231 236.948 94.5639 237.378C95.3046 237.807 95.875 238.378 96.275 239.089C96.675 239.785 96.875 240.556 96.875 241.4C96.875 242.23 96.7046 242.985 96.3639 243.667C96.0231 244.348 95.6231 245.015 95.1639 245.667C94.7194 246.319 94.312 247.015 93.9417 247.756C93.5713 248.496 93.3491 249.356 93.275 250.333H91.1417ZM92.2083 257.267C91.7491 257.267 91.3565 257.104 91.0306 256.778C90.7046 256.452 90.5417 256.059 90.5417 255.6C90.5417 255.126 90.7046 254.733 91.0306 254.422C91.3565 254.096 91.7491 253.933 92.2083 253.933C92.6824 253.933 93.075 254.096 93.3861 254.422C93.712 254.733 93.875 255.126 93.875 255.6C93.875 256.059 93.712 256.452 93.3861 256.778C93.075 257.104 92.6824 257.267 92.2083 257.267Z" fill="black"/>
<path d="M40.9556 58.3556C40.1111 58.3556 39.3333 58.2074 38.6222 57.9111C37.9259 57.6148 37.3185 57.2074 36.8 56.6889V58H33.4667V36.6667H37.3333V45.5111C37.8222 45.1259 38.3704 44.8296 38.9778 44.6222C39.5852 44.4148 40.2444 44.3111 40.9556 44.3111C42.2 44.3111 43.3259 44.6296 44.3333 45.2667C45.3407 45.8889 46.1407 46.7333 46.7333 47.8C47.3407 48.8667 47.6444 50.0444 47.6444 51.3333C47.6444 52.6222 47.3407 53.8 46.7333 54.8667C46.1407 55.9185 45.3407 56.763 44.3333 57.4C43.3259 58.037 42.2 58.3556 40.9556 58.3556ZM40.5111 54.9556C41.163 54.9556 41.7556 54.7926 42.2889 54.4667C42.8222 54.1407 43.2444 53.7037 43.5556 53.1556C43.8815 52.6074 44.0444 52 44.0444 51.3333C44.0444 50.6667 43.8815 50.0593 43.5556 49.5111C43.2444 48.963 42.8222 48.5259 42.2889 48.2C41.7556 47.8741 41.163 47.7111 40.5111 47.7111C39.8593 47.7111 39.2667 47.8741 38.7333 48.2C38.2 48.5259 37.7704 48.963 37.4444 49.5111C37.1333 50.0593 36.9778 50.6667 36.9778 51.3333C36.9778 52 37.1333 52.6074 37.4444 53.1556C37.7704 53.7037 38.2 54.1407 38.7333 54.4667C39.2667 54.7926 39.8593 54.9556 40.5111 54.9556ZM49.9042 58V44.6667H53.3708V46.9556C53.8301 46.1852 54.4079 45.5926 55.1042 45.1778C55.8153 44.7481 56.6449 44.5333 57.5931 44.5333L58.4375 47.9556C58.156 47.8667 57.8375 47.8222 57.4819 47.8222C56.3708 47.8222 55.4745 48.1852 54.7931 48.9111C54.1116 49.6222 53.7708 50.6444 53.7708 51.9778V58H49.9042ZM65.6854 58.3556C64.4558 58.3556 63.3373 58.037 62.3299 57.4C61.3225 56.763 60.515 55.9185 59.9076 54.8667C59.315 53.8 59.0188 52.6222 59.0188 51.3333C59.0188 50.0444 59.315 48.8667 59.9076 47.8C60.515 46.7333 61.3225 45.8889 62.3299 45.2667C63.3373 44.6296 64.4558 44.3111 65.6854 44.3111C66.5447 44.3111 67.3299 44.4667 68.041 44.7778C68.7521 45.0741 69.3595 45.4889 69.8632 46.0222V44.6667H73.1965V58H69.8632V56.6444C69.3595 57.1778 68.7521 57.6 68.041 57.9111C67.3299 58.2074 66.5447 58.3556 65.6854 58.3556ZM66.1521 54.9556C66.8039 54.9556 67.3965 54.7926 67.9299 54.4667C68.4632 54.1407 68.8854 53.7037 69.1965 53.1556C69.5225 52.6074 69.6854 52 69.6854 51.3333C69.6854 50.6667 69.5225 50.0593 69.1965 49.5111C68.8854 48.963 68.4632 48.5259 67.9299 48.2C67.3965 47.8741 66.8039 47.7111 66.1521 47.7111C65.5002 47.7111 64.9076 47.8741 64.3743 48.2C63.841 48.5259 63.4113 48.963 63.0854 49.5111C62.7743 50.0593 62.6188 50.6667 62.6188 51.3333C62.6188 52 62.7743 52.6074 63.0854 53.1556C63.4113 53.7037 63.841 54.1407 64.3743 54.4667C64.9076 54.7926 65.5002 54.9556 66.1521 54.9556ZM76.1229 58V44.6667H79.5896V46.1333C80.0637 45.5111 80.6488 45.037 81.3451 44.7111C82.0414 44.3852 82.7896 44.2222 83.5896 44.2222C84.5377 44.2222 85.4192 44.4519 86.234 44.9111C87.0637 45.3556 87.7303 46.0148 88.234 46.8889C88.7525 47.7481 89.0118 48.7926 89.0118 50.0222V58H85.1451V50.5333C85.1451 49.7926 84.9229 49.1333 84.4785 48.5556C84.034 47.9778 83.397 47.6889 82.5674 47.6889C81.9007 47.6889 81.3007 47.9185 80.7674 48.3778C80.2488 48.8222 79.9896 49.5259 79.9896 50.4889V58H76.1229ZM97.7076 58.3556C96.4632 58.3556 95.3373 58.037 94.3299 57.4C93.3225 56.763 92.515 55.9185 91.9076 54.8667C91.315 53.8 91.0188 52.6222 91.0188 51.3333C91.0188 50.0444 91.315 48.8667 91.9076 47.8C92.515 46.7333 93.3225 45.8889 94.3299 45.2667C95.3373 44.6296 96.4632 44.3111 97.7076 44.3111C98.4187 44.3111 99.078 44.4148 99.6854 44.6222C100.293 44.8296 100.841 45.1259 101.33 45.5111V36.6667H105.197V58H101.863V56.6889C101.359 57.2074 100.752 57.6148 100.041 57.9111C99.3299 58.2074 98.5521 58.3556 97.7076 58.3556ZM98.1521 54.9556C98.8039 54.9556 99.3965 54.7926 99.9299 54.4667C100.463 54.1407 100.885 53.7037 101.197 53.1556C101.522 52.6074 101.685 52 101.685 51.3333C101.685 50.6667 101.522 50.0593 101.197 49.5111C100.885 48.963 100.463 48.5259 99.9299 48.2C99.3965 47.8741 98.8039 47.7111 98.1521 47.7111C97.5002 47.7111 96.9076 47.8741 96.3743 48.2C95.841 48.5259 95.4113 48.963 95.0854 49.5111C94.7743 50.0593 94.6188 50.6667 94.6188 51.3333C94.6188 52 94.7743 52.6074 95.0854 53.1556C95.4113 53.7037 95.841 54.1407 96.3743 54.4667C96.9076 54.7926 97.5002 54.9556 98.1521 54.9556ZM114.779 58V44.6667H118.246V46.1333C118.72 45.5111 119.305 45.037 120.001 44.7111C120.698 44.3852 121.446 44.2222 122.246 44.2222C123.194 44.2222 124.075 44.4519 124.89 44.9111C125.72 45.3556 126.387 46.0148 126.89 46.8889C127.409 47.7481 127.668 48.7926 127.668 50.0222V58H123.801V50.5333C123.801 49.7926 123.579 49.1333 123.135 48.5556C122.69 47.9778 122.053 47.6889 121.224 47.6889C120.557 47.6889 119.957 47.9185 119.424 48.3778C118.905 48.8222 118.646 49.5259 118.646 50.4889V58H114.779ZM136.342 58.3556C135.112 58.3556 133.994 58.037 132.986 57.4C131.979 56.763 131.171 55.9185 130.564 54.8667C129.971 53.8 129.675 52.6222 129.675 51.3333C129.675 50.0444 129.971 48.8667 130.564 47.8C131.171 46.7333 131.979 45.8889 132.986 45.2667C133.994 44.6296 135.112 44.3111 136.342 44.3111C137.201 44.3111 137.986 44.4667 138.697 44.7778C139.408 45.0741 140.016 45.4889 140.519 46.0222V44.6667H143.853V58H140.519V56.6444C140.016 57.1778 139.408 57.6 138.697 57.9111C137.986 58.2074 137.201 58.3556 136.342 58.3556ZM136.808 54.9556C137.46 54.9556 138.053 54.7926 138.586 54.4667C139.119 54.1407 139.542 53.7037 139.853 53.1556C140.179 52.6074 140.342 52 140.342 51.3333C140.342 50.6667 140.179 50.0593 139.853 49.5111C139.542 48.963 139.119 48.5259 138.586 48.2C138.053 47.8741 137.46 47.7111 136.808 47.7111C136.156 47.7111 135.564 47.8741 135.031 48.2C134.497 48.5259 134.068 48.963 133.742 49.5111C133.431 50.0593 133.275 50.6667 133.275 51.3333C133.275 52 133.431 52.6074 133.742 53.1556C134.068 53.7037 134.497 54.1407 135.031 54.4667C135.564 54.7926 136.156 54.9556 136.808 54.9556ZM146.779 58V44.6667H150.246V46.1333C150.72 45.5111 151.305 45.037 152.001 44.7111C152.713 44.3852 153.453 44.2222 154.224 44.2222C155.009 44.2222 155.75 44.3852 156.446 44.7111C157.142 45.037 157.727 45.5111 158.201 46.1333C158.72 45.5111 159.364 45.037 160.135 44.7111C160.905 44.3852 161.742 44.2222 162.646 44.2222C163.594 44.2222 164.483 44.4444 165.312 44.8889C166.142 45.3185 166.816 45.9556 167.335 46.8C167.853 47.6296 168.113 48.6444 168.113 49.8444V58H164.246V50.4C164.246 49.6889 164.038 49.0593 163.624 48.5111C163.209 47.963 162.609 47.6889 161.824 47.6889C161.409 47.6889 161.009 47.7926 160.624 48C160.253 48.1926 159.95 48.4889 159.713 48.8889C159.49 49.2741 159.379 49.763 159.379 50.3556V58H155.512V50.4C155.512 49.9259 155.416 49.4815 155.224 49.0667C155.046 48.6519 154.772 48.3185 154.401 48.0667C154.046 47.8148 153.609 47.6889 153.09 47.6889C152.675 47.6889 152.275 47.7926 151.89 48C151.52 48.1926 151.216 48.4889 150.979 48.8889C150.757 49.2741 150.646 49.763 150.646 50.3556V58H146.779ZM177.69 58.4444C176.194 58.4444 174.875 58.1333 173.735 57.5111C172.594 56.8889 171.705 56.037 171.068 54.9556C170.431 53.8593 170.113 52.6074 170.113 51.2C170.113 49.8519 170.424 48.6593 171.046 47.6222C171.668 46.5704 172.505 45.7407 173.557 45.1333C174.624 44.5259 175.801 44.2222 177.09 44.2222C178.409 44.2222 179.587 44.5259 180.624 45.1333C181.661 45.7259 182.475 46.5407 183.068 47.5778C183.675 48.6148 183.979 49.7926 183.979 51.1111V52.4667H175.846C175.475 52.4667 175.12 52.4444 174.779 52.4C174.438 52.3556 174.098 52.3037 173.757 52.2444C173.935 53.1333 174.372 53.8593 175.068 54.4222C175.779 54.9704 176.683 55.2444 177.779 55.2444C178.624 55.2444 179.379 55.0741 180.046 54.7333C180.727 54.3926 181.283 53.9704 181.713 53.4667L182.557 56.9333C181.89 57.437 181.135 57.8148 180.29 58.0667C179.461 58.3185 178.594 58.4444 177.69 58.4444ZM173.668 49.9111C174.409 49.7481 175.135 49.6667 175.846 49.6667H178.201C178.616 49.6667 179.009 49.6815 179.379 49.7111C179.75 49.7407 180.098 49.7926 180.424 49.8667C180.201 49.0667 179.794 48.437 179.201 47.9778C178.624 47.5185 177.905 47.2889 177.046 47.2889C176.231 47.2889 175.52 47.5259 174.912 48C174.32 48.4593 173.905 49.0963 173.668 49.9111Z" fill="black"/>
<rect x="32.5" y="285.5" width="347" height="42" rx="7.5" stroke="black"/>
<path d="M55 313C56.775 313 58.4989 312.406 59.897 311.312L64.293 315.708L65.707 314.294L61.311 309.898C62.4051 308.5 62.9997 306.775 63 305C63 300.589 59.411 297 55 297C50.589 297 47 300.589 47 305C47 309.411 50.589 313 55 313ZM55 299C58.309 299 61 301.691 61 305C61 308.309 58.309 311 55 311C51.691 311 49 308.309 49 305C49 301.691 51.691 299 55 299Z" fill="black"/>
<rect x="32" y="355" width="348" height="341" rx="10" fill="#D9D9D9"/>
<path d="M93.7083 317.333C93.0694 317.333 92.4861 317.241 91.9583 317.056C91.4398 316.87 90.9769 316.616 90.5694 316.292L90.9861 314.597C91.2639 314.995 91.6343 315.319 92.0972 315.569C92.5602 315.819 93.0926 315.944 93.6944 315.944C94.6296 315.944 95.3843 315.662 95.9583 315.097C96.5417 314.532 96.8333 313.806 96.8333 312.917V311.903C96.463 312.273 96.0231 312.569 95.5139 312.792C95.0139 313.005 94.4769 313.111 93.9028 313.111C93.1435 313.111 92.4491 312.921 91.8194 312.542C91.1898 312.153 90.6852 311.634 90.3056 310.986C89.9352 310.338 89.75 309.62 89.75 308.833C89.75 308.046 89.9352 307.329 90.3056 306.681C90.6852 306.032 91.1898 305.519 91.8194 305.139C92.4491 304.75 93.1435 304.556 93.9028 304.556C94.4769 304.556 95.0139 304.662 95.5139 304.875C96.0231 305.088 96.463 305.384 96.8333 305.764V304.667H98.2222V313C98.2222 313.907 98.0093 314.685 97.5833 315.333C97.1667 315.981 96.6157 316.477 95.9306 316.819C95.2454 317.162 94.5046 317.333 93.7083 317.333ZM94.0972 311.75C94.625 311.75 95.1019 311.62 95.5278 311.361C95.963 311.093 96.3056 310.741 96.5556 310.306C96.8148 309.861 96.9444 309.37 96.9444 308.833C96.9444 308.296 96.8148 307.81 96.5556 307.375C96.3056 306.931 95.963 306.579 95.5278 306.319C95.1019 306.051 94.625 305.917 94.0972 305.917C93.5694 305.917 93.088 306.051 92.6528 306.319C92.2269 306.579 91.8843 306.931 91.625 307.375C91.375 307.81 91.25 308.296 91.25 308.833C91.25 309.37 91.375 309.861 91.625 310.306C91.8843 310.741 92.2269 311.093 92.6528 311.361C93.088 311.62 93.5694 311.75 94.0972 311.75ZM100.88 313V299.667H102.38V313H100.88ZM105.04 313V304.667H106.54V313H105.04ZM105.79 303.167C105.513 303.167 105.276 303.069 105.082 302.875C104.888 302.681 104.79 302.444 104.79 302.167C104.79 301.88 104.888 301.644 105.082 301.458C105.276 301.264 105.513 301.167 105.79 301.167C106.077 301.167 106.314 301.264 106.499 301.458C106.693 301.644 106.79 301.88 106.79 302.167C106.79 302.444 106.693 302.681 106.499 302.875C106.314 303.069 106.077 303.167 105.79 303.167ZM113.006 313.167C112.201 313.167 111.464 312.972 110.798 312.583C110.131 312.194 109.599 311.671 109.201 311.014C108.812 310.356 108.617 309.63 108.617 308.833C108.617 308.028 108.812 307.301 109.201 306.653C109.599 305.995 110.131 305.472 110.798 305.083C111.464 304.694 112.201 304.5 113.006 304.5C113.821 304.5 114.557 304.694 115.214 305.083C115.881 305.472 116.409 305.995 116.798 306.653C117.196 307.301 117.395 308.028 117.395 308.833C117.395 309.63 117.196 310.356 116.798 311.014C116.409 311.671 115.881 312.194 115.214 312.583C114.557 312.972 113.821 313.167 113.006 313.167ZM113.006 311.75C113.543 311.75 114.029 311.62 114.464 311.361C114.9 311.093 115.247 310.741 115.506 310.306C115.765 309.861 115.895 309.37 115.895 308.833C115.895 308.296 115.765 307.81 115.506 307.375C115.247 306.931 114.9 306.579 114.464 306.319C114.029 306.051 113.543 305.917 113.006 305.917C112.469 305.917 111.983 306.051 111.548 306.319C111.113 306.579 110.765 306.931 110.506 307.375C110.247 307.81 110.117 308.296 110.117 308.833C110.117 309.37 110.247 309.861 110.506 310.306C110.765 310.741 111.113 311.093 111.548 311.361C111.983 311.62 112.469 311.75 113.006 311.75Z" fill="black"/>
<path d="M120.347 404.25C119.44 404.25 118.593 404.083 117.806 403.75C117.019 403.407 116.324 402.94 115.722 402.347C115.13 401.745 114.667 401.056 114.333 400.278C114 399.491 113.833 398.648 113.833 397.75C113.833 396.852 114 396.014 114.333 395.236C114.676 394.449 115.144 393.759 115.736 393.167C116.338 392.565 117.032 392.097 117.819 391.764C118.606 391.421 119.454 391.25 120.361 391.25C121.25 391.25 122.083 391.417 122.861 391.75C123.639 392.074 124.324 392.523 124.917 393.097L124.458 395.014C124.032 394.329 123.458 393.782 122.736 393.375C122.023 392.958 121.231 392.75 120.361 392.75C119.444 392.75 118.616 392.977 117.875 393.431C117.144 393.875 116.56 394.477 116.125 395.236C115.69 395.986 115.472 396.824 115.472 397.75C115.472 398.657 115.685 399.491 116.111 400.25C116.546 401.009 117.13 401.616 117.861 402.069C118.602 402.523 119.431 402.75 120.347 402.75C120.866 402.75 121.356 402.69 121.819 402.569C122.292 402.44 122.722 402.259 123.111 402.028V398.75H119.667V397.333H124.639V402.833C124.074 403.306 123.417 403.662 122.667 403.903C121.926 404.134 121.153 404.25 120.347 404.25ZM127.38 404V390.667H128.88V404H127.38ZM131.54 404V395.667H133.04V404H131.54ZM132.29 394.167C132.013 394.167 131.776 394.069 131.582 393.875C131.388 393.681 131.29 393.444 131.29 393.167C131.29 392.88 131.388 392.644 131.582 392.458C131.776 392.264 132.013 392.167 132.29 392.167C132.577 392.167 132.814 392.264 132.999 392.458C133.193 392.644 133.29 392.88 133.29 393.167C133.29 393.444 133.193 393.681 132.999 393.875C132.814 394.069 132.577 394.167 132.29 394.167ZM139.506 404.167C138.701 404.167 137.964 403.972 137.298 403.583C136.631 403.194 136.099 402.671 135.701 402.014C135.312 401.356 135.117 400.63 135.117 399.833C135.117 399.028 135.312 398.301 135.701 397.653C136.099 396.995 136.631 396.472 137.298 396.083C137.964 395.694 138.701 395.5 139.506 395.5C140.321 395.5 141.057 395.694 141.714 396.083C142.381 396.472 142.909 396.995 143.298 397.653C143.696 398.301 143.895 399.028 143.895 399.833C143.895 400.63 143.696 401.356 143.298 402.014C142.909 402.671 142.381 403.194 141.714 403.583C141.057 403.972 140.321 404.167 139.506 404.167ZM139.506 402.75C140.043 402.75 140.529 402.62 140.964 402.361C141.4 402.093 141.747 401.741 142.006 401.306C142.265 400.861 142.395 400.37 142.395 399.833C142.395 399.296 142.265 398.81 142.006 398.375C141.747 397.931 141.4 397.579 140.964 397.319C140.529 397.051 140.043 396.917 139.506 396.917C138.969 396.917 138.483 397.051 138.048 397.319C137.613 397.579 137.265 397.931 137.006 398.375C136.747 398.81 136.617 399.296 136.617 399.833C136.617 400.37 136.747 400.861 137.006 401.306C137.265 401.741 137.613 402.093 138.048 402.361C138.483 402.62 138.969 402.75 139.506 402.75ZM150.293 404.111C149.719 404.111 149.182 404.005 148.682 403.792C148.182 403.569 147.742 403.273 147.363 402.903V404H145.974V390.667H147.474V396.653C147.844 396.31 148.27 396.042 148.752 395.847C149.233 395.653 149.747 395.556 150.293 395.556C151.062 395.556 151.756 395.75 152.377 396.139C153.006 396.519 153.506 397.032 153.877 397.681C154.256 398.329 154.446 399.046 154.446 399.833C154.446 400.62 154.256 401.338 153.877 401.986C153.506 402.634 153.006 403.153 152.377 403.542C151.756 403.921 151.062 404.111 150.293 404.111ZM150.099 402.75C150.627 402.75 151.104 402.62 151.53 402.361C151.965 402.093 152.307 401.741 152.557 401.306C152.817 400.861 152.946 400.37 152.946 399.833C152.946 399.296 152.817 398.81 152.557 398.375C152.307 397.931 151.965 397.579 151.53 397.319C151.104 397.051 150.627 396.917 150.099 396.917C149.571 396.917 149.09 397.051 148.655 397.319C148.229 397.579 147.886 397.931 147.627 398.375C147.377 398.81 147.252 399.296 147.252 399.833C147.252 400.37 147.377 400.861 147.627 401.306C147.886 401.741 148.229 402.093 148.655 402.361C149.09 402.62 149.571 402.75 150.099 402.75ZM156.521 404V390.667H158.021V404H156.521ZM164.25 404.111C163.491 404.111 162.797 403.921 162.167 403.542C161.537 403.153 161.033 402.634 160.653 401.986C160.283 401.338 160.098 400.62 160.098 399.833C160.098 399.046 160.283 398.329 160.653 397.681C161.033 397.032 161.537 396.519 162.167 396.139C162.797 395.75 163.491 395.556 164.25 395.556C164.825 395.556 165.362 395.662 165.862 395.875C166.371 396.088 166.811 396.384 167.181 396.764V395.667H168.57V404H167.181V402.903C166.811 403.273 166.371 403.569 165.862 403.792C165.362 404.005 164.825 404.111 164.25 404.111ZM164.445 402.75C164.973 402.75 165.45 402.62 165.875 402.361C166.311 402.093 166.653 401.741 166.903 401.306C167.162 400.861 167.292 400.37 167.292 399.833C167.292 399.296 167.162 398.81 166.903 398.375C166.653 397.931 166.311 397.579 165.875 397.319C165.45 397.051 164.973 396.917 164.445 396.917C163.917 396.917 163.436 397.051 163 397.319C162.575 397.579 162.232 397.931 161.973 398.375C161.723 398.81 161.598 399.296 161.598 399.833C161.598 400.37 161.723 400.861 161.973 401.306C162.232 401.741 162.575 402.093 163 402.361C163.436 402.62 163.917 402.75 164.445 402.75ZM173.381 404.167C172.955 404.167 172.496 404.088 172.006 403.931C171.524 403.764 171.107 403.491 170.756 403.111L171.172 401.472C171.432 401.907 171.765 402.255 172.172 402.514C172.58 402.764 173.015 402.889 173.478 402.889C173.922 402.889 174.256 402.782 174.478 402.569C174.7 402.347 174.811 402.079 174.811 401.764C174.811 401.403 174.691 401.139 174.45 400.972C174.219 400.806 174.01 400.69 173.825 400.625L172.7 400.194C172.496 400.111 172.251 399.991 171.964 399.833C171.677 399.667 171.427 399.431 171.214 399.125C171.001 398.819 170.895 398.421 170.895 397.931C170.895 397.486 171.001 397.079 171.214 396.708C171.427 396.338 171.728 396.046 172.117 395.833C172.506 395.611 172.964 395.5 173.492 395.5C173.908 395.5 174.344 395.574 174.797 395.722C175.251 395.87 175.635 396.12 175.95 396.472L175.533 398.111C175.311 397.704 175.01 397.38 174.631 397.139C174.251 396.898 173.857 396.778 173.45 396.778C173.07 396.778 172.77 396.884 172.547 397.097C172.334 397.31 172.228 397.556 172.228 397.833C172.228 398.056 172.302 398.255 172.45 398.431C172.598 398.606 172.82 398.75 173.117 398.861L174.242 399.292C174.445 399.366 174.695 399.486 174.992 399.653C175.297 399.819 175.566 400.06 175.797 400.375C176.029 400.69 176.145 401.116 176.145 401.653C176.145 402.403 175.881 403.009 175.353 403.472C174.834 403.935 174.177 404.167 173.381 404.167ZM179.29 404V396.917H177.401V395.667H179.332V392.889H180.748V395.667H182.818V396.917H180.79V404H179.29ZM187.963 404.167C187.158 404.167 186.421 403.972 185.755 403.583C185.088 403.194 184.556 402.671 184.158 402.014C183.769 401.356 183.574 400.63 183.574 399.833C183.574 399.028 183.769 398.301 184.158 397.653C184.556 396.995 185.088 396.472 185.755 396.083C186.421 395.694 187.158 395.5 187.963 395.5C188.778 395.5 189.514 395.694 190.171 396.083C190.838 396.472 191.366 396.995 191.755 397.653C192.153 398.301 192.352 399.028 192.352 399.833C192.352 400.63 192.153 401.356 191.755 402.014C191.366 402.671 190.838 403.194 190.171 403.583C189.514 403.972 188.778 404.167 187.963 404.167ZM187.963 402.75C188.5 402.75 188.986 402.62 189.421 402.361C189.857 402.093 190.204 401.741 190.463 401.306C190.722 400.861 190.852 400.37 190.852 399.833C190.852 399.296 190.722 398.81 190.463 398.375C190.204 397.931 189.857 397.579 189.421 397.319C188.986 397.051 188.5 396.917 187.963 396.917C187.426 396.917 186.94 397.051 186.505 397.319C186.07 397.579 185.722 397.931 185.463 398.375C185.204 398.81 185.074 399.296 185.074 399.833C185.074 400.37 185.204 400.861 185.463 401.306C185.722 401.741 186.07 402.093 186.505 402.361C186.94 402.62 187.426 402.75 187.963 402.75ZM194.431 404V395.667H195.82V396.861C196.125 396.407 196.51 396.069 196.973 395.847C197.445 395.616 197.94 395.5 198.459 395.5C199.024 395.5 199.542 395.634 200.014 395.903C200.487 396.162 200.866 396.528 201.153 397C201.477 396.5 201.894 396.125 202.403 395.875C202.922 395.625 203.468 395.5 204.042 395.5C204.672 395.5 205.246 395.648 205.764 395.944C206.292 396.241 206.709 396.657 207.014 397.194C207.329 397.722 207.487 398.347 207.487 399.069V404H205.987V399.25C205.987 398.491 205.769 397.917 205.334 397.528C204.908 397.13 204.412 396.931 203.848 396.931C203.496 396.931 203.153 397.009 202.82 397.167C202.496 397.324 202.227 397.569 202.014 397.903C201.811 398.236 201.709 398.671 201.709 399.208V404H200.209V399.25C200.209 398.722 200.102 398.287 199.889 397.944C199.686 397.602 199.417 397.347 199.084 397.181C198.76 397.005 198.422 396.917 198.07 396.917C197.727 396.917 197.389 396.995 197.056 397.153C196.732 397.31 196.463 397.556 196.25 397.889C196.037 398.222 195.931 398.662 195.931 399.208V404H194.431ZM213.547 404.111C212.788 404.111 212.094 403.921 211.464 403.542C210.834 403.153 210.33 402.634 209.95 401.986C209.58 401.338 209.395 400.62 209.395 399.833C209.395 399.046 209.58 398.329 209.95 397.681C210.33 397.032 210.834 396.519 211.464 396.139C212.094 395.75 212.788 395.556 213.547 395.556C214.121 395.556 214.658 395.662 215.158 395.875C215.668 396.088 216.107 396.384 216.478 396.764V395.667H217.867V404H216.478V402.903C216.107 403.273 215.668 403.569 215.158 403.792C214.658 404.005 214.121 404.111 213.547 404.111ZM213.742 402.75C214.27 402.75 214.746 402.62 215.172 402.361C215.607 402.093 215.95 401.741 216.2 401.306C216.459 400.861 216.589 400.37 216.589 399.833C216.589 399.296 216.459 398.81 216.2 398.375C215.95 397.931 215.607 397.579 215.172 397.319C214.746 397.051 214.27 396.917 213.742 396.917C213.214 396.917 212.732 397.051 212.297 397.319C211.871 397.579 211.529 397.931 211.27 398.375C211.02 398.81 210.895 399.296 210.895 399.833C210.895 400.37 211.02 400.861 211.27 401.306C211.529 401.741 211.871 402.093 212.297 402.361C212.732 402.62 213.214 402.75 213.742 402.75Z" fill="black"/>
<path d="M120.347 459.25C119.44 459.25 118.593 459.083 117.806 458.75C117.019 458.407 116.324 457.94 115.722 457.347C115.13 456.745 114.667 456.056 114.333 455.278C114 454.491 113.833 453.648 113.833 452.75C113.833 451.852 114 451.014 114.333 450.236C114.676 449.449 115.144 448.759 115.736 448.167C116.338 447.565 117.032 447.097 117.819 446.764C118.606 446.421 119.454 446.25 120.361 446.25C121.25 446.25 122.083 446.417 122.861 446.75C123.639 447.074 124.324 447.523 124.917 448.097L124.458 450.014C124.032 449.329 123.458 448.782 122.736 448.375C122.023 447.958 121.231 447.75 120.361 447.75C119.444 447.75 118.616 447.977 117.875 448.431C117.144 448.875 116.56 449.477 116.125 450.236C115.69 450.986 115.472 451.824 115.472 452.75C115.472 453.657 115.685 454.491 116.111 455.25C116.546 456.009 117.13 456.616 117.861 457.069C118.602 457.523 119.431 457.75 120.347 457.75C120.866 457.75 121.356 457.69 121.819 457.569C122.292 457.44 122.722 457.259 123.111 457.028V453.75H119.667V452.333H124.639V457.833C124.074 458.306 123.417 458.662 122.667 458.903C121.926 459.134 121.153 459.25 120.347 459.25ZM127.38 459V445.667H128.88V459H127.38ZM131.54 459V450.667H133.04V459H131.54ZM132.29 449.167C132.013 449.167 131.776 449.069 131.582 448.875C131.388 448.681 131.29 448.444 131.29 448.167C131.29 447.88 131.388 447.644 131.582 447.458C131.776 447.264 132.013 447.167 132.29 447.167C132.577 447.167 132.814 447.264 132.999 447.458C133.193 447.644 133.29 447.88 133.29 448.167C133.29 448.444 133.193 448.681 132.999 448.875C132.814 449.069 132.577 449.167 132.29 449.167ZM139.506 459.167C138.701 459.167 137.964 458.972 137.298 458.583C136.631 458.194 136.099 457.671 135.701 457.014C135.312 456.356 135.117 455.63 135.117 454.833C135.117 454.028 135.312 453.301 135.701 452.653C136.099 451.995 136.631 451.472 137.298 451.083C137.964 450.694 138.701 450.5 139.506 450.5C140.321 450.5 141.057 450.694 141.714 451.083C142.381 451.472 142.909 451.995 143.298 452.653C143.696 453.301 143.895 454.028 143.895 454.833C143.895 455.63 143.696 456.356 143.298 457.014C142.909 457.671 142.381 458.194 141.714 458.583C141.057 458.972 140.321 459.167 139.506 459.167ZM139.506 457.75C140.043 457.75 140.529 457.62 140.964 457.361C141.4 457.093 141.747 456.741 142.006 456.306C142.265 455.861 142.395 455.37 142.395 454.833C142.395 454.296 142.265 453.81 142.006 453.375C141.747 452.931 141.4 452.579 140.964 452.319C140.529 452.051 140.043 451.917 139.506 451.917C138.969 451.917 138.483 452.051 138.048 452.319C137.613 452.579 137.265 452.931 137.006 453.375C136.747 453.81 136.617 454.296 136.617 454.833C136.617 455.37 136.747 455.861 137.006 456.306C137.265 456.741 137.613 457.093 138.048 457.361C138.483 457.62 138.969 457.75 139.506 457.75ZM145.974 459V450.667H147.363V451.861C147.668 451.407 148.053 451.069 148.516 450.847C148.988 450.616 149.483 450.5 150.002 450.5C150.567 450.5 151.085 450.634 151.557 450.903C152.03 451.162 152.409 451.528 152.696 452C153.02 451.5 153.437 451.125 153.946 450.875C154.465 450.625 155.011 450.5 155.585 450.5C156.215 450.5 156.789 450.648 157.307 450.944C157.835 451.241 158.252 451.657 158.557 452.194C158.872 452.722 159.03 453.347 159.03 454.069V459H157.53V454.25C157.53 453.491 157.312 452.917 156.877 452.528C156.451 452.13 155.955 451.931 155.391 451.931C155.039 451.931 154.696 452.009 154.363 452.167C154.039 452.324 153.77 452.569 153.557 452.903C153.354 453.236 153.252 453.671 153.252 454.208V459H151.752V454.25C151.752 453.722 151.645 453.287 151.432 452.944C151.229 452.602 150.96 452.347 150.627 452.181C150.303 452.005 149.965 451.917 149.613 451.917C149.27 451.917 148.932 451.995 148.599 452.153C148.275 452.31 148.006 452.556 147.793 452.889C147.58 453.222 147.474 453.662 147.474 454.208V459H145.974ZM165.09 459.111C164.331 459.111 163.637 458.921 163.007 458.542C162.377 458.153 161.873 457.634 161.493 456.986C161.123 456.338 160.938 455.62 160.938 454.833C160.938 454.046 161.123 453.329 161.493 452.681C161.873 452.032 162.377 451.519 163.007 451.139C163.637 450.75 164.331 450.556 165.09 450.556C165.664 450.556 166.201 450.662 166.701 450.875C167.211 451.088 167.65 451.384 168.021 451.764V450.667H169.41V459H168.021V457.903C167.65 458.273 167.211 458.569 166.701 458.792C166.201 459.005 165.664 459.111 165.09 459.111ZM165.285 457.75C165.812 457.75 166.289 457.62 166.715 457.361C167.15 457.093 167.493 456.741 167.743 456.306C168.002 455.861 168.132 455.37 168.132 454.833C168.132 454.296 168.002 453.81 167.743 453.375C167.493 452.931 167.15 452.579 166.715 452.319C166.289 452.051 165.812 451.917 165.285 451.917C164.757 451.917 164.275 452.051 163.84 452.319C163.414 452.579 163.072 452.931 162.813 453.375C162.563 453.81 162.438 454.296 162.438 454.833C162.438 455.37 162.563 455.861 162.813 456.306C163.072 456.741 163.414 457.093 163.84 457.361C164.275 457.62 164.757 457.75 165.285 457.75Z" fill="black"/>
<path fill-rule="evenodd" clip-rule="evenodd" d="M68.625 382.875C66.9011 382.875 65.2478 383.56 64.0288 384.779C62.8098 385.998 62.125 387.651 62.125 389.375V391.205C60.7303 391.566 59.4952 392.381 58.6135 393.52C57.7317 394.659 57.2533 396.059 57.2533 397.5C57.2533 398.941 57.7317 400.341 58.6135 401.48C59.4952 402.619 60.7303 403.434 62.125 403.795V405.625C62.1249 406.945 62.5269 408.234 63.2775 409.321C64.0281 410.407 65.0917 411.239 66.3267 411.706C67.5617 412.172 68.9097 412.252 70.1911 411.934C71.4725 411.616 72.6267 410.915 73.5 409.925C74.3733 410.915 75.5275 411.616 76.8089 411.934C78.0903 412.252 79.4382 412.172 80.6733 411.706C81.9083 411.239 82.9719 410.407 83.7225 409.321C84.4731 408.234 84.8751 406.945 84.875 405.625V403.795C86.2696 403.434 87.5048 402.619 88.3865 401.48C89.2682 400.341 89.7466 398.941 89.7466 397.5C89.7466 396.059 89.2682 394.659 88.3865 393.52C87.5048 392.381 86.2696 391.566 84.875 391.205V389.375C84.8751 388.055 84.4731 386.766 83.7225 385.679C82.9719 384.593 81.9083 383.761 80.6733 383.295C79.4382 382.828 78.0903 382.748 76.8089 383.066C75.5275 383.384 74.3733 384.085 73.5 385.075C72.89 384.384 72.1398 383.83 71.2993 383.451C70.4588 383.071 69.5471 382.875 68.625 382.875ZM81.625 392.625V389.375C81.625 388.513 81.2826 387.686 80.6731 387.077C80.0636 386.467 79.2369 386.125 78.375 386.125C77.513 386.125 76.6864 386.467 76.0769 387.077C75.4674 387.686 75.125 388.513 75.125 389.375V396.744C76.1133 396.174 77.2341 395.875 78.375 395.875C78.806 395.875 79.2193 396.046 79.524 396.351C79.8288 396.656 80 397.069 80 397.5C80 397.931 79.8288 398.344 79.524 398.649C79.2193 398.954 78.806 399.125 78.375 399.125C77.513 399.125 76.6864 399.467 76.0769 400.077C75.4674 400.686 75.125 401.513 75.125 402.375V405.625C75.125 406.487 75.4674 407.314 76.0769 407.923C76.6864 408.533 77.513 408.875 78.375 408.875C79.2369 408.875 80.0636 408.533 80.6731 407.923C81.2826 407.314 81.625 406.487 81.625 405.625V403.795C81.4423 403.748 81.2617 403.693 81.0839 403.63C80.6774 403.486 80.3447 403.187 80.1588 402.798C79.9729 402.409 79.9491 401.962 80.0926 401.556C80.2361 401.15 80.5352 400.817 80.9241 400.631C81.3129 400.445 81.7597 400.421 82.1661 400.565C82.6123 400.722 83.0874 400.78 83.5584 400.735C84.0294 400.69 84.4848 400.542 84.8928 400.303C85.3009 400.063 85.6517 399.738 85.9208 399.349C86.1899 398.959 86.3708 398.516 86.4508 398.05C86.5309 397.584 86.5081 397.105 86.3842 396.649C86.2603 396.192 86.0381 395.768 85.7333 395.406C85.4285 395.044 85.0483 394.753 84.6194 394.554C84.1905 394.354 83.7231 394.25 83.25 394.25C82.819 394.25 82.4057 394.079 82.1009 393.774C81.7962 393.469 81.625 393.056 81.625 392.625ZM68.625 399.125C69.4869 399.125 70.3136 399.467 70.9231 400.077C71.5326 400.686 71.875 401.513 71.875 402.375V405.625C71.875 406.487 71.5326 407.314 70.9231 407.923C70.3136 408.533 69.4869 408.875 68.625 408.875C67.763 408.875 66.9364 408.533 66.3269 407.923C65.7174 407.314 65.375 406.487 65.375 405.625V403.795C65.5592 403.748 65.7395 403.692 65.9161 403.63C66.3225 403.486 66.6553 403.187 66.8412 402.798C67.0271 402.409 67.0509 401.962 66.9074 401.556C66.7638 401.15 66.4648 400.817 66.0759 400.631C65.687 400.445 65.2403 400.421 64.8339 400.565C64.3877 400.722 63.9125 400.78 63.4416 400.735C62.9706 400.69 62.5152 400.542 62.1071 400.303C61.6991 400.063 61.3483 399.738 61.0792 399.349C60.8101 398.959 60.6292 398.516 60.5491 398.05C60.4691 397.584 60.4918 397.105 60.6158 396.649C60.7397 396.192 60.9618 395.768 61.2667 395.406C61.5715 395.044 61.9516 394.753 62.3806 394.554C62.8095 394.354 63.2768 394.25 63.75 394.25C64.181 394.25 64.5943 394.079 64.899 393.774C65.2038 393.469 65.375 393.056 65.375 392.625V389.375C65.375 388.513 65.7174 387.686 66.3269 387.077C66.9364 386.467 67.763 386.125 68.625 386.125C69.4869 386.125 70.3136 386.467 70.9231 387.077C71.5326 387.686 71.875 388.513 71.875 389.375V396.744C70.8867 396.174 69.7658 395.875 68.625 395.875C68.194 395.875 67.7807 396.046 67.4759 396.351C67.1712 396.656 67 397.069 67 397.5C67 397.931 67.1712 398.344 67.4759 398.649C67.7807 398.954 68.194 399.125 68.625 399.125Z" fill="black"/>
<path fill-rule="evenodd" clip-rule="evenodd" d="M68.625 438.875C66.9011 438.875 65.2478 439.56 64.0288 440.779C62.8098 441.998 62.125 443.651 62.125 445.375V447.205C60.7303 447.566 59.4952 448.381 58.6135 449.52C57.7317 450.659 57.2533 452.059 57.2533 453.5C57.2533 454.941 57.7317 456.341 58.6135 457.48C59.4952 458.619 60.7303 459.434 62.125 459.795V461.625C62.1249 462.945 62.5269 464.234 63.2775 465.321C64.0281 466.407 65.0917 467.239 66.3267 467.706C67.5617 468.172 68.9097 468.252 70.1911 467.934C71.4725 467.616 72.6267 466.915 73.5 465.925C74.3733 466.915 75.5275 467.616 76.8089 467.934C78.0903 468.252 79.4382 468.172 80.6733 467.706C81.9083 467.239 82.9719 466.407 83.7225 465.321C84.4731 464.234 84.8751 462.945 84.875 461.625V459.795C86.2696 459.434 87.5048 458.619 88.3865 457.48C89.2682 456.341 89.7466 454.941 89.7466 453.5C89.7466 452.059 89.2682 450.659 88.3865 449.52C87.5048 448.381 86.2696 447.566 84.875 447.205V445.375C84.8751 444.055 84.4731 442.766 83.7225 441.679C82.9719 440.593 81.9083 439.761 80.6733 439.295C79.4382 438.828 78.0903 438.748 76.8089 439.066C75.5275 439.384 74.3733 440.085 73.5 441.075C72.89 440.384 72.1398 439.83 71.2993 439.451C70.4588 439.071 69.5471 438.875 68.625 438.875ZM81.625 448.625V445.375C81.625 444.513 81.2826 443.686 80.6731 443.077C80.0636 442.467 79.2369 442.125 78.375 442.125C77.513 442.125 76.6864 442.467 76.0769 443.077C75.4674 443.686 75.125 444.513 75.125 445.375V452.744C76.1133 452.174 77.2341 451.875 78.375 451.875C78.806 451.875 79.2193 452.046 79.524 452.351C79.8288 452.656 80 453.069 80 453.5C80 453.931 79.8288 454.344 79.524 454.649C79.2193 454.954 78.806 455.125 78.375 455.125C77.513 455.125 76.6864 455.467 76.0769 456.077C75.4674 456.686 75.125 457.513 75.125 458.375V461.625C75.125 462.487 75.4674 463.314 76.0769 463.923C76.6864 464.533 77.513 464.875 78.375 464.875C79.2369 464.875 80.0636 464.533 80.6731 463.923C81.2826 463.314 81.625 462.487 81.625 461.625V459.795C81.4423 459.748 81.2617 459.693 81.0839 459.63C80.6774 459.486 80.3447 459.187 80.1588 458.798C79.9729 458.409 79.9491 457.962 80.0926 457.556C80.2361 457.15 80.5352 456.817 80.9241 456.631C81.3129 456.445 81.7597 456.421 82.1661 456.565C82.6123 456.722 83.0874 456.78 83.5584 456.735C84.0294 456.69 84.4848 456.542 84.8928 456.303C85.3009 456.063 85.6517 455.738 85.9208 455.349C86.1899 454.959 86.3708 454.516 86.4508 454.05C86.5309 453.584 86.5081 453.105 86.3842 452.649C86.2603 452.192 86.0381 451.768 85.7333 451.406C85.4285 451.044 85.0483 450.753 84.6194 450.554C84.1905 450.354 83.7231 450.25 83.25 450.25C82.819 450.25 82.4057 450.079 82.1009 449.774C81.7962 449.469 81.625 449.056 81.625 448.625ZM68.625 455.125C69.4869 455.125 70.3136 455.467 70.9231 456.077C71.5326 456.686 71.875 457.513 71.875 458.375V461.625C71.875 462.487 71.5326 463.314 70.9231 463.923C70.3136 464.533 69.4869 464.875 68.625 464.875C67.763 464.875 66.9364 464.533 66.3269 463.923C65.7174 463.314 65.375 462.487 65.375 461.625V459.795C65.5592 459.748 65.7395 459.692 65.9161 459.63C66.3225 459.486 66.6553 459.187 66.8412 458.798C67.0271 458.409 67.0509 457.962 66.9074 457.556C66.7638 457.15 66.4648 456.817 66.0759 456.631C65.687 456.445 65.2403 456.421 64.8339 456.565C64.3877 456.722 63.9125 456.78 63.4416 456.735C62.9706 456.69 62.5152 456.542 62.1071 456.303C61.6991 456.063 61.3483 455.738 61.0792 455.349C60.8101 454.959 60.6292 454.516 60.5491 454.05C60.4691 453.584 60.4918 453.105 60.6158 452.649C60.7397 452.192 60.9618 451.768 61.2667 451.406C61.5715 451.044 61.9516 450.753 62.3806 450.554C62.8095 450.354 63.2768 450.25 63.75 450.25C64.181 450.25 64.5943 450.079 64.899 449.774C65.2038 449.469 65.375 449.056 65.375 448.625V445.375C65.375 444.513 65.7174 443.686 66.3269 443.077C66.9364 442.467 67.763 442.125 68.625 442.125C69.4869 442.125 70.3136 442.467 70.9231 443.077C71.5326 443.686 71.875 444.513 71.875 445.375V452.744C70.8867 452.174 69.7658 451.875 68.625 451.875C68.194 451.875 67.7807 452.046 67.4759 452.351C67.1712 452.656 67 453.069 67 453.5C67 453.931 67.1712 454.344 67.4759 454.649C67.7807 454.954 68.194 455.125 68.625 455.125Z" fill="black"/>
<path d="M343 391L350 398M350 398L343 405M350 398H336" stroke="black" stroke-width="2" stroke-linecap="round" stroke-linejoin="round"/>
<path d="M343 446L350 453M350 453L343 460M350 453H336" stroke="black" stroke-width="2" stroke-linecap="round" stroke-linejoin="round"/>
<path d="M44 764L37 757M37 757L44 750M37 757H51" stroke="black" stroke-width="2" stroke-linecap="round" stroke-linejoin="round"/>
<path d="M66.75 763V750.5H70.25C71.0463 750.5 71.6759 750.657 72.1389 750.972C72.6111 751.287 72.9491 751.671 73.1528 752.125C73.3565 752.569 73.4583 752.991 73.4583 753.389C73.4583 753.843 73.3519 754.259 73.1389 754.639C72.9352 755.009 72.6574 755.315 72.3056 755.556C72.9815 755.861 73.5278 756.319 73.9444 756.931C74.3704 757.542 74.5833 758.236 74.5833 759.014C74.5833 759.671 74.4167 760.306 74.0833 760.917C73.7593 761.528 73.2731 762.028 72.625 762.417C71.9861 762.806 71.1944 763 70.25 763H66.75ZM68.3333 761.583H70.1389C70.8241 761.583 71.375 761.449 71.7917 761.181C72.2083 760.912 72.5139 760.574 72.7083 760.167C72.9028 759.759 73 759.356 73 758.958C73 758.569 72.9074 758.171 72.7222 757.764C72.537 757.356 72.2361 757.019 71.8194 756.75C71.4028 756.472 70.8426 756.333 70.1389 756.333H68.3333V761.583ZM68.3333 755H70.125C70.6713 755 71.1111 754.87 71.4444 754.611C71.787 754.343 71.9583 753.963 71.9583 753.472C71.9583 752.963 71.7917 752.579 71.4583 752.319C71.125 752.051 70.6991 751.917 70.1806 751.917H68.3333V755ZM80.3129 763.111C79.5537 763.111 78.8592 762.921 78.2296 762.542C77.6 762.153 77.0953 761.634 76.7157 760.986C76.3453 760.338 76.1602 759.62 76.1602 758.833C76.1602 758.046 76.3453 757.329 76.7157 756.681C77.0953 756.032 77.6 755.519 78.2296 755.139C78.8592 754.75 79.5537 754.556 80.3129 754.556C80.887 754.556 81.424 754.662 81.924 754.875C82.4333 755.088 82.8731 755.384 83.2435 755.764V754.667H84.6324V763H83.2435V761.903C82.8731 762.273 82.4333 762.569 81.924 762.792C81.424 763.005 80.887 763.111 80.3129 763.111ZM80.5074 761.75C81.0352 761.75 81.512 761.62 81.9379 761.361C82.3731 761.093 82.7157 760.741 82.9657 760.306C83.225 759.861 83.3546 759.37 83.3546 758.833C83.3546 758.296 83.225 757.81 82.9657 757.375C82.7157 756.931 82.3731 756.579 81.9379 756.319C81.512 756.051 81.0352 755.917 80.5074 755.917C79.9796 755.917 79.4981 756.051 79.0629 756.319C78.637 756.579 78.2944 756.931 78.0352 757.375C77.7852 757.81 77.6602 758.296 77.6602 758.833C77.6602 759.37 77.7852 759.861 78.0352 760.306C78.2944 760.741 78.637 761.093 79.0629 761.361C79.4981 761.62 79.9796 761.75 80.5074 761.75ZM91.1237 763.167C90.3089 763.167 89.5681 762.972 88.9015 762.583C88.2348 762.194 87.7024 761.671 87.3043 761.014C86.9061 760.356 86.707 759.63 86.707 758.833C86.707 758.037 86.9061 757.31 87.3043 756.653C87.7024 755.995 88.2348 755.472 88.9015 755.083C89.5681 754.694 90.3089 754.5 91.1237 754.5C91.7255 754.5 92.2904 754.606 92.8181 754.819C93.3459 755.032 93.8089 755.315 94.207 755.667L93.7487 757.556C93.5172 757.093 93.1654 756.704 92.6931 756.389C92.2302 756.074 91.7024 755.917 91.1098 755.917C90.5728 755.917 90.082 756.051 89.6376 756.319C89.2024 756.579 88.8552 756.931 88.5959 757.375C88.3367 757.81 88.207 758.296 88.207 758.833C88.207 759.361 88.3367 759.847 88.5959 760.292C88.8552 760.736 89.2024 761.093 89.6376 761.361C90.082 761.62 90.5728 761.75 91.1098 761.75C91.7024 761.75 92.2302 761.597 92.6931 761.292C93.1654 760.986 93.5172 760.593 93.7487 760.111L94.207 762C93.8089 762.352 93.3459 762.634 92.8181 762.847C92.2904 763.06 91.7255 763.167 91.1237 763.167ZM101.471 763L97.707 758.417L100.804 754.667H102.54L99.4987 758.306L103.374 763H101.471ZM96.0404 763V749.667H97.5404V763H96.0404Z" fill="black"/>
</svg>
