<svg width="430" height="932" viewBox="0 0 430 932" fill="none" xmlns="http://www.w3.org/2000/svg">
<rect width="430" height="932" fill="white"/>
<g filter="url(#filter0_d_46_903)">
<rect x="53" y="365" width="330" height="390" rx="10" fill="white"/>
</g>
<path d="M142.347 411.25C141.44 411.25 140.593 411.083 139.806 410.75C139.019 410.407 138.324 409.94 137.722 409.347C137.13 408.745 136.667 408.056 136.333 407.278C136 406.491 135.833 405.648 135.833 404.75C135.833 403.852 136 403.014 136.333 402.236C136.676 401.449 137.144 400.759 137.736 400.167C138.338 399.565 139.032 399.097 139.819 398.764C140.606 398.421 141.454 398.25 142.361 398.25C143.25 398.25 144.083 398.417 144.861 398.75C145.639 399.074 146.324 399.523 146.917 400.097L146.458 402.014C146.032 401.329 145.458 400.782 144.736 400.375C144.023 399.958 143.231 399.75 142.361 399.75C141.444 399.75 140.616 399.977 139.875 400.431C139.144 400.875 138.56 401.477 138.125 402.236C137.69 402.986 137.472 403.824 137.472 404.75C137.472 405.657 137.685 406.491 138.111 407.25C138.546 408.009 139.13 408.616 139.861 409.069C140.602 409.523 141.431 409.75 142.347 409.75C142.866 409.75 143.356 409.69 143.819 409.569C144.292 409.44 144.722 409.259 145.111 409.028V405.75H141.667V404.333H146.639V409.833C146.074 410.306 145.417 410.662 144.667 410.903C143.926 411.134 143.153 411.25 142.347 411.25ZM149.38 411V397.667H150.88V411H149.38ZM153.54 411V402.667H155.04V411H153.54ZM154.29 401.167C154.013 401.167 153.776 401.069 153.582 400.875C153.388 400.681 153.29 400.444 153.29 400.167C153.29 399.88 153.388 399.644 153.582 399.458C153.776 399.264 154.013 399.167 154.29 399.167C154.577 399.167 154.814 399.264 154.999 399.458C155.193 399.644 155.29 399.88 155.29 400.167C155.29 400.444 155.193 400.681 154.999 400.875C154.814 401.069 154.577 401.167 154.29 401.167ZM161.506 411.167C160.701 411.167 159.964 410.972 159.298 410.583C158.631 410.194 158.099 409.671 157.701 409.014C157.312 408.356 157.117 407.63 157.117 406.833C157.117 406.028 157.312 405.301 157.701 404.653C158.099 403.995 158.631 403.472 159.298 403.083C159.964 402.694 160.701 402.5 161.506 402.5C162.321 402.5 163.057 402.694 163.714 403.083C164.381 403.472 164.909 403.995 165.298 404.653C165.696 405.301 165.895 406.028 165.895 406.833C165.895 407.63 165.696 408.356 165.298 409.014C164.909 409.671 164.381 410.194 163.714 410.583C163.057 410.972 162.321 411.167 161.506 411.167ZM161.506 409.75C162.043 409.75 162.529 409.62 162.964 409.361C163.4 409.093 163.747 408.741 164.006 408.306C164.265 407.861 164.395 407.37 164.395 406.833C164.395 406.296 164.265 405.81 164.006 405.375C163.747 404.931 163.4 404.579 162.964 404.319C162.529 404.051 162.043 403.917 161.506 403.917C160.969 403.917 160.483 404.051 160.048 404.319C159.613 404.579 159.265 404.931 159.006 405.375C158.747 405.81 158.617 406.296 158.617 406.833C158.617 407.37 158.747 407.861 159.006 408.306C159.265 408.741 159.613 409.093 160.048 409.361C160.483 409.62 160.969 409.75 161.506 409.75ZM172.293 411.111C171.719 411.111 171.182 411.005 170.682 410.792C170.182 410.569 169.742 410.273 169.363 409.903V411H167.974V397.667H169.474V403.653C169.844 403.31 170.27 403.042 170.752 402.847C171.233 402.653 171.747 402.556 172.293 402.556C173.062 402.556 173.756 402.75 174.377 403.139C175.006 403.519 175.506 404.032 175.877 404.681C176.256 405.329 176.446 406.046 176.446 406.833C176.446 407.62 176.256 408.338 175.877 408.986C175.506 409.634 175.006 410.153 174.377 410.542C173.756 410.921 173.062 411.111 172.293 411.111ZM172.099 409.75C172.627 409.75 173.104 409.62 173.53 409.361C173.965 409.093 174.307 408.741 174.557 408.306C174.817 407.861 174.946 407.37 174.946 406.833C174.946 406.296 174.817 405.81 174.557 405.375C174.307 404.931 173.965 404.579 173.53 404.319C173.104 404.051 172.627 403.917 172.099 403.917C171.571 403.917 171.09 404.051 170.655 404.319C170.229 404.579 169.886 404.931 169.627 405.375C169.377 405.81 169.252 406.296 169.252 406.833C169.252 407.37 169.377 407.861 169.627 408.306C169.886 408.741 170.229 409.093 170.655 409.361C171.09 409.62 171.571 409.75 172.099 409.75ZM178.521 411V397.667H180.021V411H178.521ZM186.25 411.111C185.491 411.111 184.797 410.921 184.167 410.542C183.537 410.153 183.033 409.634 182.653 408.986C182.283 408.338 182.098 407.62 182.098 406.833C182.098 406.046 182.283 405.329 182.653 404.681C183.033 404.032 183.537 403.519 184.167 403.139C184.797 402.75 185.491 402.556 186.25 402.556C186.825 402.556 187.362 402.662 187.862 402.875C188.371 403.088 188.811 403.384 189.181 403.764V402.667H190.57V411H189.181V409.903C188.811 410.273 188.371 410.569 187.862 410.792C187.362 411.005 186.825 411.111 186.25 411.111ZM186.445 409.75C186.973 409.75 187.45 409.62 187.875 409.361C188.311 409.093 188.653 408.741 188.903 408.306C189.162 407.861 189.292 407.37 189.292 406.833C189.292 406.296 189.162 405.81 188.903 405.375C188.653 404.931 188.311 404.579 187.875 404.319C187.45 404.051 186.973 403.917 186.445 403.917C185.917 403.917 185.436 404.051 185 404.319C184.575 404.579 184.232 404.931 183.973 405.375C183.723 405.81 183.598 406.296 183.598 406.833C183.598 407.37 183.723 407.861 183.973 408.306C184.232 408.741 184.575 409.093 185 409.361C185.436 409.62 185.917 409.75 186.445 409.75ZM195.381 411.167C194.955 411.167 194.496 411.088 194.006 410.931C193.524 410.764 193.107 410.491 192.756 410.111L193.172 408.472C193.432 408.907 193.765 409.255 194.172 409.514C194.58 409.764 195.015 409.889 195.478 409.889C195.922 409.889 196.256 409.782 196.478 409.569C196.7 409.347 196.811 409.079 196.811 408.764C196.811 408.403 196.691 408.139 196.45 407.972C196.219 407.806 196.01 407.69 195.825 407.625L194.7 407.194C194.496 407.111 194.251 406.991 193.964 406.833C193.677 406.667 193.427 406.431 193.214 406.125C193.001 405.819 192.895 405.421 192.895 404.931C192.895 404.486 193.001 404.079 193.214 403.708C193.427 403.338 193.728 403.046 194.117 402.833C194.506 402.611 194.964 402.5 195.492 402.5C195.908 402.5 196.344 402.574 196.797 402.722C197.251 402.87 197.635 403.12 197.95 403.472L197.533 405.111C197.311 404.704 197.01 404.38 196.631 404.139C196.251 403.898 195.857 403.778 195.45 403.778C195.07 403.778 194.77 403.884 194.547 404.097C194.334 404.31 194.228 404.556 194.228 404.833C194.228 405.056 194.302 405.255 194.45 405.431C194.598 405.606 194.82 405.75 195.117 405.861L196.242 406.292C196.445 406.366 196.695 406.486 196.992 406.653C197.297 406.819 197.566 407.06 197.797 407.375C198.029 407.69 198.145 408.116 198.145 408.653C198.145 409.403 197.881 410.009 197.353 410.472C196.834 410.935 196.177 411.167 195.381 411.167ZM201.29 411V403.917H199.401V402.667H201.332V399.889H202.748V402.667H204.818V403.917H202.79V411H201.29ZM209.963 411.167C209.158 411.167 208.421 410.972 207.755 410.583C207.088 410.194 206.556 409.671 206.158 409.014C205.769 408.356 205.574 407.63 205.574 406.833C205.574 406.028 205.769 405.301 206.158 404.653C206.556 403.995 207.088 403.472 207.755 403.083C208.421 402.694 209.158 402.5 209.963 402.5C210.778 402.5 211.514 402.694 212.171 403.083C212.838 403.472 213.366 403.995 213.755 404.653C214.153 405.301 214.352 406.028 214.352 406.833C214.352 407.63 214.153 408.356 213.755 409.014C213.366 409.671 212.838 410.194 212.171 410.583C211.514 410.972 210.778 411.167 209.963 411.167ZM209.963 409.75C210.5 409.75 210.986 409.62 211.421 409.361C211.857 409.093 212.204 408.741 212.463 408.306C212.722 407.861 212.852 407.37 212.852 406.833C212.852 406.296 212.722 405.81 212.463 405.375C212.204 404.931 211.857 404.579 211.421 404.319C210.986 404.051 210.5 403.917 209.963 403.917C209.426 403.917 208.94 404.051 208.505 404.319C208.07 404.579 207.722 404.931 207.463 405.375C207.204 405.81 207.074 406.296 207.074 406.833C207.074 407.37 207.204 407.861 207.463 408.306C207.722 408.741 208.07 409.093 208.505 409.361C208.94 409.62 209.426 409.75 209.963 409.75ZM216.431 411V402.667H217.82V403.861C218.125 403.407 218.51 403.069 218.973 402.847C219.445 402.616 219.94 402.5 220.459 402.5C221.024 402.5 221.542 402.634 222.014 402.903C222.487 403.162 222.866 403.528 223.153 404C223.477 403.5 223.894 403.125 224.403 402.875C224.922 402.625 225.468 402.5 226.042 402.5C226.672 402.5 227.246 402.648 227.764 402.944C228.292 403.241 228.709 403.657 229.014 404.194C229.329 404.722 229.487 405.347 229.487 406.069V411H227.987V406.25C227.987 405.491 227.769 404.917 227.334 404.528C226.908 404.13 226.412 403.931 225.848 403.931C225.496 403.931 225.153 404.009 224.82 404.167C224.496 404.324 224.227 404.569 224.014 404.903C223.811 405.236 223.709 405.671 223.709 406.208V411H222.209V406.25C222.209 405.722 222.102 405.287 221.889 404.944C221.686 404.602 221.417 404.347 221.084 404.181C220.76 404.005 220.422 403.917 220.07 403.917C219.727 403.917 219.389 403.995 219.056 404.153C218.732 404.31 218.463 404.556 218.25 404.889C218.037 405.222 217.931 405.662 217.931 406.208V411H216.431ZM235.547 411.111C234.788 411.111 234.094 410.921 233.464 410.542C232.834 410.153 232.33 409.634 231.95 408.986C231.58 408.338 231.395 407.62 231.395 406.833C231.395 406.046 231.58 405.329 231.95 404.681C232.33 404.032 232.834 403.519 233.464 403.139C234.094 402.75 234.788 402.556 235.547 402.556C236.121 402.556 236.658 402.662 237.158 402.875C237.668 403.088 238.107 403.384 238.478 403.764V402.667H239.867V411H238.478V409.903C238.107 410.273 237.668 410.569 237.158 410.792C236.658 411.005 236.121 411.111 235.547 411.111ZM235.742 409.75C236.27 409.75 236.746 409.62 237.172 409.361C237.607 409.093 237.95 408.741 238.2 408.306C238.459 407.861 238.589 407.37 238.589 406.833C238.589 406.296 238.459 405.81 238.2 405.375C237.95 404.931 237.607 404.579 237.172 404.319C236.746 404.051 236.27 403.917 235.742 403.917C235.214 403.917 234.732 404.051 234.297 404.319C233.871 404.579 233.529 404.931 233.27 405.375C233.02 405.81 232.895 406.296 232.895 406.833C232.895 407.37 233.02 407.861 233.27 408.306C233.529 408.741 233.871 409.093 234.297 409.361C234.732 409.62 235.214 409.75 235.742 409.75Z" fill="black"/>
<path d="M142.347 471.25C141.44 471.25 140.593 471.083 139.806 470.75C139.019 470.407 138.324 469.94 137.722 469.347C137.13 468.745 136.667 468.056 136.333 467.278C136 466.491 135.833 465.648 135.833 464.75C135.833 463.852 136 463.014 136.333 462.236C136.676 461.449 137.144 460.759 137.736 460.167C138.338 459.565 139.032 459.097 139.819 458.764C140.606 458.421 141.454 458.25 142.361 458.25C143.25 458.25 144.083 458.417 144.861 458.75C145.639 459.074 146.324 459.523 146.917 460.097L146.458 462.014C146.032 461.329 145.458 460.782 144.736 460.375C144.023 459.958 143.231 459.75 142.361 459.75C141.444 459.75 140.616 459.977 139.875 460.431C139.144 460.875 138.56 461.477 138.125 462.236C137.69 462.986 137.472 463.824 137.472 464.75C137.472 465.657 137.685 466.491 138.111 467.25C138.546 468.009 139.13 468.616 139.861 469.069C140.602 469.523 141.431 469.75 142.347 469.75C142.866 469.75 143.356 469.69 143.819 469.569C144.292 469.44 144.722 469.259 145.111 469.028V465.75H141.667V464.333H146.639V469.833C146.074 470.306 145.417 470.662 144.667 470.903C143.926 471.134 143.153 471.25 142.347 471.25ZM149.38 471V457.667H150.88V471H149.38ZM153.54 471V462.667H155.04V471H153.54ZM154.29 461.167C154.013 461.167 153.776 461.069 153.582 460.875C153.388 460.681 153.29 460.444 153.29 460.167C153.29 459.88 153.388 459.644 153.582 459.458C153.776 459.264 154.013 459.167 154.29 459.167C154.577 459.167 154.814 459.264 154.999 459.458C155.193 459.644 155.29 459.88 155.29 460.167C155.29 460.444 155.193 460.681 154.999 460.875C154.814 461.069 154.577 461.167 154.29 461.167ZM161.506 471.167C160.701 471.167 159.964 470.972 159.298 470.583C158.631 470.194 158.099 469.671 157.701 469.014C157.312 468.356 157.117 467.63 157.117 466.833C157.117 466.028 157.312 465.301 157.701 464.653C158.099 463.995 158.631 463.472 159.298 463.083C159.964 462.694 160.701 462.5 161.506 462.5C162.321 462.5 163.057 462.694 163.714 463.083C164.381 463.472 164.909 463.995 165.298 464.653C165.696 465.301 165.895 466.028 165.895 466.833C165.895 467.63 165.696 468.356 165.298 469.014C164.909 469.671 164.381 470.194 163.714 470.583C163.057 470.972 162.321 471.167 161.506 471.167ZM161.506 469.75C162.043 469.75 162.529 469.62 162.964 469.361C163.4 469.093 163.747 468.741 164.006 468.306C164.265 467.861 164.395 467.37 164.395 466.833C164.395 466.296 164.265 465.81 164.006 465.375C163.747 464.931 163.4 464.579 162.964 464.319C162.529 464.051 162.043 463.917 161.506 463.917C160.969 463.917 160.483 464.051 160.048 464.319C159.613 464.579 159.265 464.931 159.006 465.375C158.747 465.81 158.617 466.296 158.617 466.833C158.617 467.37 158.747 467.861 159.006 468.306C159.265 468.741 159.613 469.093 160.048 469.361C160.483 469.62 160.969 469.75 161.506 469.75ZM167.974 471V462.667H169.363V463.861C169.668 463.407 170.053 463.069 170.516 462.847C170.988 462.616 171.483 462.5 172.002 462.5C172.567 462.5 173.085 462.634 173.557 462.903C174.03 463.162 174.409 463.528 174.696 464C175.02 463.5 175.437 463.125 175.946 462.875C176.465 462.625 177.011 462.5 177.585 462.5C178.215 462.5 178.789 462.648 179.307 462.944C179.835 463.241 180.252 463.657 180.557 464.194C180.872 464.722 181.03 465.347 181.03 466.069V471H179.53V466.25C179.53 465.491 179.312 464.917 178.877 464.528C178.451 464.13 177.955 463.931 177.391 463.931C177.039 463.931 176.696 464.009 176.363 464.167C176.039 464.324 175.77 464.569 175.557 464.903C175.354 465.236 175.252 465.671 175.252 466.208V471H173.752V466.25C173.752 465.722 173.645 465.287 173.432 464.944C173.229 464.602 172.96 464.347 172.627 464.181C172.303 464.005 171.965 463.917 171.613 463.917C171.27 463.917 170.932 463.995 170.599 464.153C170.275 464.31 170.006 464.556 169.793 464.889C169.58 465.222 169.474 465.662 169.474 466.208V471H167.974ZM187.09 471.111C186.331 471.111 185.637 470.921 185.007 470.542C184.377 470.153 183.873 469.634 183.493 468.986C183.123 468.338 182.938 467.62 182.938 466.833C182.938 466.046 183.123 465.329 183.493 464.681C183.873 464.032 184.377 463.519 185.007 463.139C185.637 462.75 186.331 462.556 187.09 462.556C187.664 462.556 188.201 462.662 188.701 462.875C189.211 463.088 189.65 463.384 190.021 463.764V462.667H191.41V471H190.021V469.903C189.65 470.273 189.211 470.569 188.701 470.792C188.201 471.005 187.664 471.111 187.09 471.111ZM187.285 469.75C187.812 469.75 188.289 469.62 188.715 469.361C189.15 469.093 189.493 468.741 189.743 468.306C190.002 467.861 190.132 467.37 190.132 466.833C190.132 466.296 190.002 465.81 189.743 465.375C189.493 464.931 189.15 464.579 188.715 464.319C188.289 464.051 187.812 463.917 187.285 463.917C186.757 463.917 186.275 464.051 185.84 464.319C185.414 464.579 185.072 464.931 184.813 465.375C184.563 465.81 184.438 466.296 184.438 466.833C184.438 467.37 184.563 467.861 184.813 468.306C185.072 468.741 185.414 469.093 185.84 469.361C186.275 469.62 186.757 469.75 187.285 469.75Z" fill="black"/>
<path fill-rule="evenodd" clip-rule="evenodd" d="M90.6251 389.875C88.9012 389.875 87.2479 390.56 86.0289 391.779C84.8099 392.998 84.1251 394.651 84.1251 396.375V398.205C82.7304 398.566 81.4953 399.381 80.6136 400.52C79.7318 401.659 79.2534 403.059 79.2534 404.5C79.2534 405.941 79.7318 407.341 80.6136 408.48C81.4953 409.619 82.7304 410.434 84.1251 410.795V412.625C84.125 413.945 84.527 415.234 85.2776 416.321C86.0282 417.407 87.0918 418.239 88.3268 418.706C89.5618 419.172 90.9097 419.252 92.1912 418.934C93.4726 418.616 94.6268 417.915 95.5001 416.925C96.3734 417.915 97.5276 418.616 98.809 418.934C100.09 419.252 101.438 419.172 102.673 418.706C103.908 418.239 104.972 417.407 105.723 416.321C106.473 415.234 106.875 413.945 106.875 412.625V410.795C108.27 410.434 109.505 409.619 110.387 408.48C111.268 407.341 111.747 405.941 111.747 404.5C111.747 403.059 111.268 401.659 110.387 400.52C109.505 399.381 108.27 398.566 106.875 398.205V396.375C106.875 395.055 106.473 393.766 105.723 392.679C104.972 391.593 103.908 390.761 102.673 390.295C101.438 389.828 100.09 389.748 98.809 390.066C97.5276 390.384 96.3734 391.085 95.5001 392.075C94.8901 391.384 94.1399 390.83 93.2994 390.451C92.4589 390.071 91.5472 389.875 90.6251 389.875ZM103.625 399.625V396.375C103.625 395.513 103.283 394.686 102.673 394.077C102.064 393.467 101.237 393.125 100.375 393.125C99.5131 393.125 98.6865 393.467 98.077 394.077C97.4675 394.686 97.1251 395.513 97.1251 396.375V403.744C98.1133 403.174 99.2342 402.875 100.375 402.875C100.806 402.875 101.219 403.046 101.524 403.351C101.829 403.656 102 404.069 102 404.5C102 404.931 101.829 405.344 101.524 405.649C101.219 405.954 100.806 406.125 100.375 406.125C99.5131 406.125 98.6865 406.467 98.077 407.077C97.4675 407.686 97.1251 408.513 97.1251 409.375V412.625C97.1251 413.487 97.4675 414.314 98.077 414.923C98.6865 415.533 99.5131 415.875 100.375 415.875C101.237 415.875 102.064 415.533 102.673 414.923C103.283 414.314 103.625 413.487 103.625 412.625V410.795C103.442 410.748 103.262 410.693 103.084 410.63C102.678 410.486 102.345 410.187 102.159 409.798C101.973 409.409 101.949 408.962 102.093 408.556C102.236 408.15 102.535 407.817 102.924 407.631C103.313 407.445 103.76 407.421 104.166 407.565C104.612 407.722 105.088 407.78 105.559 407.735C106.029 407.69 106.485 407.542 106.893 407.303C107.301 407.063 107.652 406.738 107.921 406.349C108.19 405.959 108.371 405.516 108.451 405.05C108.531 404.584 108.508 404.105 108.384 403.649C108.26 403.192 108.038 402.768 107.733 402.406C107.429 402.044 107.048 401.753 106.619 401.554C106.191 401.354 105.723 401.25 105.25 401.25C104.819 401.25 104.406 401.079 104.101 400.774C103.796 400.469 103.625 400.056 103.625 399.625ZM90.6251 406.125C91.487 406.125 92.3137 406.467 92.9232 407.077C93.5327 407.686 93.8751 408.513 93.8751 409.375V412.625C93.8751 413.487 93.5327 414.314 92.9232 414.923C92.3137 415.533 91.487 415.875 90.6251 415.875C89.7631 415.875 88.9365 415.533 88.327 414.923C87.7175 414.314 87.3751 413.487 87.3751 412.625V410.795C87.5592 410.748 87.7396 410.692 87.9162 410.63C88.3226 410.486 88.6554 410.187 88.8413 409.798C89.0272 409.409 89.051 408.962 88.9075 408.556C88.7639 408.15 88.4649 407.817 88.076 407.631C87.6871 407.445 87.2404 407.421 86.834 407.565C86.3878 407.722 85.9126 407.78 85.4416 407.735C84.9707 407.69 84.5153 407.542 84.1072 407.303C83.6992 407.063 83.3484 406.738 83.0793 406.349C82.8101 405.959 82.6293 405.516 82.5492 405.05C82.4692 404.584 82.4919 404.105 82.6159 403.649C82.7398 403.192 82.9619 402.768 83.2667 402.406C83.5716 402.044 83.9517 401.753 84.3807 401.554C84.8096 401.354 85.2769 401.25 85.7501 401.25C86.1811 401.25 86.5944 401.079 86.8991 400.774C87.2039 400.469 87.3751 400.056 87.3751 399.625V396.375C87.3751 395.513 87.7175 394.686 88.327 394.077C88.9365 393.467 89.7631 393.125 90.6251 393.125C91.487 393.125 92.3137 393.467 92.9232 394.077C93.5327 394.686 93.8751 395.513 93.8751 396.375V403.744C92.8868 403.174 91.7659 402.875 90.6251 402.875C90.1941 402.875 89.7808 403.046 89.476 403.351C89.1713 403.656 89.0001 404.069 89.0001 404.5C89.0001 404.931 89.1713 405.344 89.476 405.649C89.7808 405.954 90.1941 406.125 90.6251 406.125Z" fill="black"/>
<path fill-rule="evenodd" clip-rule="evenodd" d="M90.6251 450.875C88.9012 450.875 87.2479 451.56 86.0289 452.779C84.8099 453.998 84.1251 455.651 84.1251 457.375V459.205C82.7304 459.566 81.4953 460.381 80.6136 461.52C79.7318 462.659 79.2534 464.059 79.2534 465.5C79.2534 466.941 79.7318 468.341 80.6136 469.48C81.4953 470.619 82.7304 471.434 84.1251 471.795V473.625C84.125 474.945 84.527 476.234 85.2776 477.321C86.0282 478.407 87.0918 479.239 88.3268 479.706C89.5618 480.172 90.9097 480.252 92.1912 479.934C93.4726 479.616 94.6268 478.915 95.5001 477.925C96.3734 478.915 97.5276 479.616 98.809 479.934C100.09 480.252 101.438 480.172 102.673 479.706C103.908 479.239 104.972 478.407 105.723 477.321C106.473 476.234 106.875 474.945 106.875 473.625V471.795C108.27 471.434 109.505 470.619 110.387 469.48C111.268 468.341 111.747 466.941 111.747 465.5C111.747 464.059 111.268 462.659 110.387 461.52C109.505 460.381 108.27 459.566 106.875 459.205V457.375C106.875 456.055 106.473 454.766 105.723 453.679C104.972 452.593 103.908 451.761 102.673 451.295C101.438 450.828 100.09 450.748 98.809 451.066C97.5276 451.384 96.3734 452.085 95.5001 453.075C94.8901 452.384 94.1399 451.83 93.2994 451.451C92.4589 451.071 91.5472 450.875 90.6251 450.875ZM103.625 460.625V457.375C103.625 456.513 103.283 455.686 102.673 455.077C102.064 454.467 101.237 454.125 100.375 454.125C99.5131 454.125 98.6865 454.467 98.077 455.077C97.4675 455.686 97.1251 456.513 97.1251 457.375V464.744C98.1133 464.174 99.2342 463.875 100.375 463.875C100.806 463.875 101.219 464.046 101.524 464.351C101.829 464.656 102 465.069 102 465.5C102 465.931 101.829 466.344 101.524 466.649C101.219 466.954 100.806 467.125 100.375 467.125C99.5131 467.125 98.6865 467.467 98.077 468.077C97.4675 468.686 97.1251 469.513 97.1251 470.375V473.625C97.1251 474.487 97.4675 475.314 98.077 475.923C98.6865 476.533 99.5131 476.875 100.375 476.875C101.237 476.875 102.064 476.533 102.673 475.923C103.283 475.314 103.625 474.487 103.625 473.625V471.795C103.442 471.748 103.262 471.693 103.084 471.63C102.678 471.486 102.345 471.187 102.159 470.798C101.973 470.409 101.949 469.962 102.093 469.556C102.236 469.15 102.535 468.817 102.924 468.631C103.313 468.445 103.76 468.421 104.166 468.565C104.612 468.722 105.088 468.78 105.559 468.735C106.029 468.69 106.485 468.542 106.893 468.303C107.301 468.063 107.652 467.738 107.921 467.349C108.19 466.959 108.371 466.516 108.451 466.05C108.531 465.584 108.508 465.105 108.384 464.649C108.26 464.192 108.038 463.768 107.733 463.406C107.429 463.044 107.048 462.753 106.619 462.554C106.191 462.354 105.723 462.25 105.25 462.25C104.819 462.25 104.406 462.079 104.101 461.774C103.796 461.469 103.625 461.056 103.625 460.625ZM90.6251 467.125C91.487 467.125 92.3137 467.467 92.9232 468.077C93.5327 468.686 93.8751 469.513 93.8751 470.375V473.625C93.8751 474.487 93.5327 475.314 92.9232 475.923C92.3137 476.533 91.487 476.875 90.6251 476.875C89.7631 476.875 88.9365 476.533 88.327 475.923C87.7175 475.314 87.3751 474.487 87.3751 473.625V471.795C87.5592 471.748 87.7396 471.692 87.9162 471.63C88.3226 471.486 88.6554 471.187 88.8413 470.798C89.0272 470.409 89.051 469.962 88.9075 469.556C88.7639 469.15 88.4649 468.817 88.076 468.631C87.6871 468.445 87.2404 468.421 86.834 468.565C86.3878 468.722 85.9126 468.78 85.4416 468.735C84.9707 468.69 84.5153 468.542 84.1072 468.303C83.6992 468.063 83.3484 467.738 83.0793 467.349C82.8101 466.959 82.6293 466.516 82.5492 466.05C82.4692 465.584 82.4919 465.105 82.6159 464.649C82.7398 464.192 82.9619 463.768 83.2667 463.406C83.5716 463.044 83.9517 462.753 84.3807 462.554C84.8096 462.354 85.2769 462.25 85.7501 462.25C86.1811 462.25 86.5944 462.079 86.8991 461.774C87.2039 461.469 87.3751 461.056 87.3751 460.625V457.375C87.3751 456.513 87.7175 455.686 88.327 455.077C88.9365 454.467 89.7631 454.125 90.6251 454.125C91.487 454.125 92.3137 454.467 92.9232 455.077C93.5327 455.686 93.8751 456.513 93.8751 457.375V464.744C92.8868 464.174 91.7659 463.875 90.6251 463.875C90.1941 463.875 89.7808 464.046 89.476 464.351C89.1713 464.656 89.0001 465.069 89.0001 465.5C89.0001 465.931 89.1713 466.344 89.476 466.649C89.7808 466.954 90.1941 467.125 90.6251 467.125Z" fill="black"/>
<path d="M59.7586 802L52.8994 795M52.8994 795L59.7586 788M52.8994 795H66.6178" stroke="black" stroke-width="2" stroke-linecap="round" stroke-linejoin="round"/>
<path d="M82.0864 801V788.5H85.5864C86.3827 788.5 87.0124 788.657 87.4753 788.972C87.9475 789.287 88.2855 789.671 88.4892 790.125C88.6929 790.569 88.7948 790.991 88.7948 791.389C88.7948 791.843 88.6883 792.259 88.4753 792.639C88.2716 793.009 87.9938 793.315 87.642 793.556C88.3179 793.861 88.8642 794.319 89.2809 794.931C89.7068 795.542 89.9198 796.236 89.9198 797.014C89.9198 797.671 89.7531 798.306 89.4198 798.917C89.0957 799.528 88.6096 800.028 87.9614 800.417C87.3225 800.806 86.5309 801 85.5864 801H82.0864ZM83.6698 799.583H85.4753C86.1605 799.583 86.7114 799.449 87.1281 799.181C87.5448 798.912 87.8503 798.574 88.0448 798.167C88.2392 797.759 88.3364 797.356 88.3364 796.958C88.3364 796.569 88.2438 796.171 88.0586 795.764C87.8735 795.356 87.5725 795.019 87.1559 794.75C86.7392 794.472 86.179 794.333 85.4753 794.333H83.6698V799.583ZM83.6698 793H85.4614C86.0077 793 86.4475 792.87 86.7809 792.611C87.1235 792.343 87.2948 791.963 87.2948 791.472C87.2948 790.963 87.1281 790.579 86.7948 790.319C86.4614 790.051 86.0355 789.917 85.517 789.917H83.6698V793ZM95.6494 801.111C94.8901 801.111 94.1957 800.921 93.566 800.542C92.9364 800.153 92.4318 799.634 92.0521 798.986C91.6818 798.338 91.4966 797.62 91.4966 796.833C91.4966 796.046 91.6818 795.329 92.0521 794.681C92.4318 794.032 92.9364 793.519 93.566 793.139C94.1957 792.75 94.8901 792.556 95.6494 792.556C96.2234 792.556 96.7605 792.662 97.2605 792.875C97.7697 793.088 98.2095 793.384 98.5799 793.764V792.667H99.9688V801H98.5799V799.903C98.2095 800.273 97.7697 800.569 97.2605 800.792C96.7605 801.005 96.2234 801.111 95.6494 801.111ZM95.8438 799.75C96.3716 799.75 96.8484 799.62 97.2744 799.361C97.7095 799.093 98.0521 798.741 98.3021 798.306C98.5614 797.861 98.691 797.37 98.691 796.833C98.691 796.296 98.5614 795.81 98.3021 795.375C98.0521 794.931 97.7095 794.579 97.2744 794.319C96.8484 794.051 96.3716 793.917 95.8438 793.917C95.316 793.917 94.8345 794.051 94.3994 794.319C93.9734 794.579 93.6308 794.931 93.3716 795.375C93.1216 795.81 92.9966 796.296 92.9966 796.833C92.9966 797.37 93.1216 797.861 93.3716 798.306C93.6308 798.741 93.9734 799.093 94.3994 799.361C94.8345 799.62 95.316 799.75 95.8438 799.75ZM106.46 801.167C105.645 801.167 104.905 800.972 104.238 800.583C103.571 800.194 103.039 799.671 102.641 799.014C102.243 798.356 102.043 797.63 102.043 796.833C102.043 796.037 102.243 795.31 102.641 794.653C103.039 793.995 103.571 793.472 104.238 793.083C104.905 792.694 105.645 792.5 106.46 792.5C107.062 792.5 107.627 792.606 108.155 792.819C108.682 793.032 109.145 793.315 109.543 793.667L109.085 795.556C108.854 795.093 108.502 794.704 108.03 794.389C107.567 794.074 107.039 793.917 106.446 793.917C105.909 793.917 105.418 794.051 104.974 794.319C104.539 794.579 104.192 794.931 103.932 795.375C103.673 795.81 103.543 796.296 103.543 796.833C103.543 797.361 103.673 797.847 103.932 798.292C104.192 798.736 104.539 799.093 104.974 799.361C105.418 799.62 105.909 799.75 106.446 799.75C107.039 799.75 107.567 799.597 108.03 799.292C108.502 798.986 108.854 798.593 109.085 798.111L109.543 800C109.145 800.352 108.682 800.634 108.155 800.847C107.627 801.06 107.062 801.167 106.46 801.167ZM116.807 801L113.043 796.417L116.141 792.667H117.877L114.835 796.306L118.71 801H116.807ZM111.377 801V787.667H112.877V801H111.377Z" fill="black"/>
<path d="M377.241 788L384.101 795M384.101 795L377.241 802M384.101 795H370.382" stroke="black" stroke-width="2" stroke-linecap="round" stroke-linejoin="round"/>
<path d="M319.218 801V788.5H325.385V789.917H320.802V792.583H324.968V794H320.802V801H319.218ZM327.141 801V792.667H328.641V801H327.141ZM327.891 791.167C327.614 791.167 327.378 791.069 327.183 790.875C326.989 790.681 326.891 790.444 326.891 790.167C326.891 789.88 326.989 789.644 327.183 789.458C327.378 789.264 327.614 789.167 327.891 789.167C328.178 789.167 328.415 789.264 328.6 789.458C328.794 789.644 328.891 789.88 328.891 790.167C328.891 790.444 328.794 790.681 328.6 790.875C328.415 791.069 328.178 791.167 327.891 791.167ZM331.302 801V792.667H332.69V794.014C332.996 793.523 333.39 793.148 333.871 792.889C334.362 792.63 334.89 792.5 335.454 792.5C336.047 792.5 336.593 792.648 337.093 792.944C337.603 793.231 338.015 793.653 338.329 794.208C338.644 794.755 338.802 795.421 338.802 796.208V801H337.302V796.417C337.302 795.759 337.103 795.181 336.704 794.681C336.315 794.171 335.765 793.917 335.052 793.917C334.468 793.917 333.945 794.13 333.482 794.556C333.028 794.972 332.802 795.579 332.802 796.375V801H331.302ZM341.302 801V792.667H342.802V801H341.302ZM342.052 791.167C341.774 791.167 341.538 791.069 341.343 790.875C341.149 790.681 341.052 790.444 341.052 790.167C341.052 789.88 341.149 789.644 341.343 789.458C341.538 789.264 341.774 789.167 342.052 789.167C342.339 789.167 342.575 789.264 342.76 789.458C342.954 789.644 343.052 789.88 343.052 790.167C343.052 790.444 342.954 790.681 342.76 790.875C342.575 791.069 342.339 791.167 342.052 791.167ZM347.615 801.167C347.189 801.167 346.73 801.088 346.24 800.931C345.758 800.764 345.341 800.491 344.99 800.111L345.406 798.472C345.665 798.907 345.999 799.255 346.406 799.514C346.814 799.764 347.249 799.889 347.712 799.889C348.156 799.889 348.49 799.782 348.712 799.569C348.934 799.347 349.045 799.079 349.045 798.764C349.045 798.403 348.925 798.139 348.684 797.972C348.452 797.806 348.244 797.69 348.059 797.625L346.934 797.194C346.73 797.111 346.485 796.991 346.198 796.833C345.911 796.667 345.661 796.431 345.448 796.125C345.235 795.819 345.128 795.421 345.128 794.931C345.128 794.486 345.235 794.079 345.448 793.708C345.661 793.338 345.962 793.046 346.351 792.833C346.74 792.611 347.198 792.5 347.726 792.5C348.142 792.5 348.577 792.574 349.031 792.722C349.485 792.87 349.869 793.12 350.184 793.472L349.767 795.111C349.545 794.704 349.244 794.38 348.865 794.139C348.485 793.898 348.091 793.778 347.684 793.778C347.304 793.778 347.003 793.884 346.781 794.097C346.568 794.31 346.462 794.556 346.462 794.833C346.462 795.056 346.536 795.255 346.684 795.431C346.832 795.606 347.054 795.75 347.351 795.861L348.476 796.292C348.679 796.366 348.929 796.486 349.226 796.653C349.531 796.819 349.8 797.06 350.031 797.375C350.263 797.69 350.378 798.116 350.378 798.653C350.378 799.403 350.115 800.009 349.587 800.472C349.068 800.935 348.411 801.167 347.615 801.167ZM352.552 801V787.667H354.052V793.847C354.366 793.412 354.755 793.079 355.218 792.847C355.681 792.616 356.177 792.5 356.704 792.5C357.297 792.5 357.843 792.648 358.343 792.944C358.853 793.231 359.265 793.653 359.579 794.208C359.894 794.755 360.052 795.421 360.052 796.208V801H358.552V796.417C358.552 795.759 358.353 795.181 357.954 794.681C357.565 794.171 357.015 793.917 356.302 793.917C355.718 793.917 355.195 794.13 354.732 794.556C354.278 794.972 354.052 795.579 354.052 796.375V801H352.552Z" fill="black"/>
<path d="M62.4 217.8L53.15 194.5H57.9L61.7 204.1C61.8833 204.55 62.0583 205.025 62.225 205.525C62.4083 206.008 62.6083 206.6 62.825 207.3C63.0417 206.6 63.25 206.008 63.45 205.525C63.6667 205.025 63.8667 204.55 64.05 204.1L68.35 193.75L72.7 204.1C72.8833 204.55 73.0833 205.025 73.3 205.525C73.5167 206.008 73.7333 206.6 73.95 207.3C74.1667 206.6 74.3667 206.008 74.55 205.525C74.7333 205.025 74.9083 204.55 75.075 204.1L78.825 194.5H83.35L74.1 217.8L69.45 206.7C69.2667 206.25 69.075 205.775 68.875 205.275C68.675 204.775 68.4667 204.175 68.25 203.475C68.0333 204.175 67.825 204.775 67.625 205.275C67.425 205.758 67.2333 206.225 67.05 206.675L62.4 217.8ZM85.1656 217V193H89.5156V203.125C90.049 202.592 90.6573 202.192 91.3406 201.925C92.0406 201.642 92.7823 201.5 93.5656 201.5C94.6323 201.5 95.624 201.758 96.5406 202.275C97.474 202.775 98.224 203.517 98.7906 204.5C99.374 205.467 99.6656 206.642 99.6656 208.025V217H95.3156V208.6C95.3156 207.767 95.0656 207.025 94.5656 206.375C94.0656 205.725 93.349 205.4 92.4156 205.4C91.6656 205.4 90.9906 205.658 90.3906 206.175C89.8073 206.675 89.5156 207.467 89.5156 208.55V217H85.1656ZM109.423 217.4C108.04 217.4 106.782 217.042 105.648 216.325C104.515 215.608 103.607 214.658 102.923 213.475C102.257 212.275 101.923 210.95 101.923 209.5C101.923 208.05 102.257 206.725 102.923 205.525C103.607 204.325 104.515 203.375 105.648 202.675C106.782 201.958 108.04 201.6 109.423 201.6C110.39 201.6 111.273 201.775 112.073 202.125C112.873 202.458 113.557 202.925 114.123 203.525V202H117.873V217H114.123V215.475C113.557 216.075 112.873 216.55 112.073 216.9C111.273 217.233 110.39 217.4 109.423 217.4ZM109.948 213.575C110.682 213.575 111.348 213.392 111.948 213.025C112.548 212.658 113.023 212.167 113.373 211.55C113.74 210.933 113.923 210.25 113.923 209.5C113.923 208.75 113.74 208.067 113.373 207.45C113.023 206.833 112.548 206.342 111.948 205.975C111.348 205.608 110.682 205.425 109.948 205.425C109.215 205.425 108.548 205.608 107.948 205.975C107.348 206.342 106.865 206.833 106.498 207.45C106.148 208.067 105.973 208.75 105.973 209.5C105.973 210.25 106.148 210.933 106.498 211.55C106.865 212.167 107.348 212.658 107.948 213.025C108.548 213.392 109.215 213.575 109.948 213.575ZM122.916 217V205.45H120.116V202H122.991V197H127.191V202H130.166V205.45H127.266V217H122.916ZM145.879 217.75L138.404 202H143.079L145.379 206.825C145.596 207.242 145.812 207.7 146.029 208.2C146.246 208.683 146.462 209.233 146.679 209.85C146.912 209.267 147.137 208.758 147.354 208.325C147.587 207.875 147.812 207.442 148.029 207.025L150.854 201.5L153.779 207.025C153.979 207.392 154.187 207.8 154.404 208.25C154.637 208.7 154.862 209.233 155.079 209.85C155.296 209.183 155.504 208.617 155.704 208.15C155.921 207.683 156.129 207.242 156.329 206.825L158.629 202H163.104L155.629 217.75L152.204 211.975C151.937 211.542 151.687 211.1 151.454 210.65C151.221 210.2 150.987 209.725 150.754 209.225C150.537 209.725 150.304 210.2 150.054 210.65C149.821 211.1 149.571 211.542 149.304 211.975L145.879 217.75ZM171.937 217.5C170.253 217.5 168.77 217.15 167.487 216.45C166.203 215.75 165.203 214.792 164.487 213.575C163.77 212.342 163.412 210.933 163.412 209.35C163.412 207.833 163.762 206.492 164.462 205.325C165.162 204.142 166.103 203.208 167.287 202.525C168.487 201.842 169.812 201.5 171.262 201.5C172.745 201.5 174.07 201.842 175.237 202.525C176.403 203.192 177.32 204.108 177.987 205.275C178.67 206.442 179.012 207.767 179.012 209.25V210.775H169.862C169.445 210.775 169.045 210.75 168.662 210.7C168.278 210.65 167.895 210.592 167.512 210.525C167.712 211.525 168.203 212.342 168.987 212.975C169.787 213.592 170.803 213.9 172.037 213.9C172.987 213.9 173.837 213.708 174.587 213.325C175.353 212.942 175.978 212.467 176.462 211.9L177.412 215.8C176.662 216.367 175.812 216.792 174.862 217.075C173.928 217.358 172.953 217.5 171.937 217.5ZM167.412 207.9C168.245 207.717 169.062 207.625 169.862 207.625H172.512C172.978 207.625 173.42 207.642 173.837 207.675C174.253 207.708 174.645 207.767 175.012 207.85C174.762 206.95 174.303 206.242 173.637 205.725C172.987 205.208 172.178 204.95 171.212 204.95C170.295 204.95 169.495 205.217 168.812 205.75C168.145 206.267 167.678 206.983 167.412 207.9ZM181.423 217V202H185.323V204.575C185.84 203.708 186.49 203.042 187.273 202.575C188.073 202.092 189.007 201.85 190.073 201.85L191.023 205.7C190.707 205.6 190.348 205.55 189.948 205.55C188.698 205.55 187.69 205.958 186.923 206.775C186.157 207.575 185.773 208.725 185.773 210.225V217H181.423ZM200.202 217.5C198.519 217.5 197.036 217.15 195.752 216.45C194.469 215.75 193.469 214.792 192.752 213.575C192.036 212.342 191.677 210.933 191.677 209.35C191.677 207.833 192.027 206.492 192.727 205.325C193.427 204.142 194.369 203.208 195.552 202.525C196.752 201.842 198.077 201.5 199.527 201.5C201.011 201.5 202.336 201.842 203.502 202.525C204.669 203.192 205.586 204.108 206.252 205.275C206.936 206.442 207.277 207.767 207.277 209.25V210.775H198.127C197.711 210.775 197.311 210.75 196.927 210.7C196.544 210.65 196.161 210.592 195.777 210.525C195.977 211.525 196.469 212.342 197.252 212.975C198.052 213.592 199.069 213.9 200.302 213.9C201.252 213.9 202.102 213.708 202.852 213.325C203.619 212.942 204.244 212.467 204.727 211.9L205.677 215.8C204.927 216.367 204.077 216.792 203.127 217.075C202.194 217.358 201.219 217.5 200.202 217.5ZM195.677 207.9C196.511 207.717 197.327 207.625 198.127 207.625H200.777C201.244 207.625 201.686 207.642 202.102 207.675C202.519 207.708 202.911 207.767 203.277 207.85C203.027 206.95 202.569 206.242 201.902 205.725C201.252 205.208 200.444 204.95 199.477 204.95C198.561 204.95 197.761 205.217 197.077 205.75C196.411 206.267 195.944 206.983 195.677 207.9ZM216.802 224.5L221.802 214.45L215.677 202H220.477L223.127 207.5C223.361 208 223.561 208.458 223.727 208.875C223.911 209.275 224.061 209.667 224.177 210.05C224.311 209.667 224.469 209.275 224.652 208.875C224.836 208.458 225.052 208 225.302 207.5L228.002 202H232.627L221.477 224.5H216.802ZM241.051 217.5C239.567 217.5 238.209 217.142 236.976 216.425C235.742 215.708 234.759 214.742 234.026 213.525C233.309 212.308 232.951 210.967 232.951 209.5C232.951 208.017 233.309 206.675 234.026 205.475C234.759 204.258 235.742 203.292 236.976 202.575C238.209 201.858 239.567 201.5 241.051 201.5C242.551 201.5 243.909 201.858 245.126 202.575C246.359 203.292 247.334 204.258 248.051 205.475C248.784 206.675 249.151 208.017 249.151 209.5C249.151 210.967 248.784 212.308 248.051 213.525C247.334 214.742 246.359 215.708 245.126 216.425C243.909 217.142 242.551 217.5 241.051 217.5ZM241.051 213.6C241.801 213.6 242.476 213.417 243.076 213.05C243.692 212.683 244.176 212.192 244.526 211.575C244.892 210.942 245.076 210.25 245.076 209.5C245.076 208.733 244.892 208.042 244.526 207.425C244.176 206.808 243.692 206.317 243.076 205.95C242.476 205.583 241.801 205.4 241.051 205.4C240.301 205.4 239.617 205.583 239.001 205.95C238.401 206.317 237.917 206.808 237.551 207.425C237.201 208.042 237.026 208.733 237.026 209.5C237.026 210.25 237.201 210.942 237.551 211.575C237.917 212.192 238.401 212.683 239.001 213.05C239.617 213.417 240.301 213.6 241.051 213.6ZM257.501 217.5C256.451 217.5 255.459 217.25 254.526 216.75C253.592 216.233 252.834 215.492 252.251 214.525C251.684 213.542 251.401 212.358 251.401 210.975V202H255.751V210.4C255.751 211.233 256.001 211.975 256.501 212.625C257.017 213.275 257.734 213.6 258.651 213.6C259.401 213.6 260.067 213.333 260.651 212.8C261.251 212.25 261.551 211.467 261.551 210.45V202H265.901V217H261.951V215.425C261.417 216.092 260.759 216.608 259.976 216.975C259.209 217.325 258.384 217.5 257.501 217.5ZM61.425 265.4C60.025 265.4 58.7583 265.042 57.625 264.325C56.4917 263.608 55.5833 262.658 54.9 261.475C54.2333 260.275 53.9 258.95 53.9 257.5C53.9 256.05 54.2333 254.725 54.9 253.525C55.5833 252.325 56.4917 251.375 57.625 250.675C58.7583 249.958 60.025 249.6 61.425 249.6C62.225 249.6 62.9667 249.717 63.65 249.95C64.3333 250.183 64.95 250.517 65.5 250.95V241H69.85V265H66.1V263.525C65.5333 264.108 64.85 264.567 64.05 264.9C63.25 265.233 62.375 265.4 61.425 265.4ZM61.925 261.575C62.6583 261.575 63.325 261.392 63.925 261.025C64.525 260.658 65 260.167 65.35 259.55C65.7167 258.933 65.9 258.25 65.9 257.5C65.9 256.75 65.7167 256.067 65.35 255.45C65 254.833 64.525 254.342 63.925 253.975C63.325 253.608 62.6583 253.425 61.925 253.425C61.1917 253.425 60.525 253.608 59.925 253.975C59.325 254.342 58.8417 254.833 58.475 255.45C58.125 256.067 57.95 256.75 57.95 257.5C57.95 258.25 58.125 258.933 58.475 259.55C58.8417 260.167 59.325 260.658 59.925 261.025C60.525 261.392 61.1917 261.575 61.925 261.575ZM73.1922 265V250H77.5422V265H73.1922ZM75.3672 247.825C74.7172 247.825 74.1672 247.6 73.7172 247.15C73.2672 246.7 73.0422 246.15 73.0422 245.5C73.0422 244.833 73.2672 244.283 73.7172 243.85C74.1672 243.4 74.7172 243.175 75.3672 243.175C76.0339 243.175 76.5839 243.4 77.0172 243.85C77.4672 244.283 77.6922 244.833 77.6922 245.5C77.6922 246.15 77.4672 246.7 77.0172 247.15C76.5839 247.6 76.0339 247.825 75.3672 247.825ZM87.6266 265.4C86.2432 265.4 84.9849 265.042 83.8516 264.325C82.7182 263.608 81.8099 262.658 81.1266 261.475C80.4599 260.275 80.1266 258.95 80.1266 257.5C80.1266 256.05 80.4599 254.725 81.1266 253.525C81.8099 252.325 82.7182 251.375 83.8516 250.675C84.9849 249.958 86.2432 249.6 87.6266 249.6C88.5932 249.6 89.4766 249.775 90.2766 250.125C91.0766 250.458 91.7599 250.925 92.3266 251.525V250H96.0766V265H92.3266V263.475C91.7599 264.075 91.0766 264.55 90.2766 264.9C89.4766 265.233 88.5932 265.4 87.6266 265.4ZM88.1516 261.575C88.8849 261.575 89.5516 261.392 90.1516 261.025C90.7516 260.658 91.2266 260.167 91.5766 259.55C91.9432 258.933 92.1266 258.25 92.1266 257.5C92.1266 256.75 91.9432 256.067 91.5766 255.45C91.2266 254.833 90.7516 254.342 90.1516 253.975C89.5516 253.608 88.8849 253.425 88.1516 253.425C87.4182 253.425 86.7516 253.608 86.1516 253.975C85.5516 254.342 85.0682 254.833 84.7016 255.45C84.3516 256.067 84.1766 256.75 84.1766 257.5C84.1766 258.25 84.3516 258.933 84.7016 259.55C85.0682 260.167 85.5516 260.658 86.1516 261.025C86.7516 261.392 87.4182 261.575 88.1516 261.575ZM105.919 273C104.752 273 103.635 272.825 102.569 272.475C101.519 272.142 100.61 271.683 99.8438 271.1L100.894 266.8C101.427 267.517 102.127 268.1 102.994 268.55C103.86 269.017 104.835 269.25 105.919 269.25C107.452 269.25 108.644 268.808 109.494 267.925C110.344 267.058 110.769 265.942 110.769 264.575V263.525C110.202 264.108 109.519 264.567 108.719 264.9C107.935 265.233 107.069 265.4 106.119 265.4C104.735 265.4 103.477 265.042 102.344 264.325C101.21 263.608 100.302 262.658 99.6188 261.475C98.9521 260.275 98.6188 258.95 98.6188 257.5C98.6188 256.05 98.9521 254.725 99.6188 253.525C100.302 252.325 101.21 251.375 102.344 250.675C103.477 249.958 104.735 249.6 106.119 249.6C107.085 249.6 107.969 249.775 108.769 250.125C109.569 250.458 110.252 250.925 110.819 251.525V250H114.569V265.2C114.569 266.833 114.169 268.233 113.369 269.4C112.569 270.567 111.51 271.458 110.194 272.075C108.877 272.692 107.452 273 105.919 273ZM106.644 261.575C107.377 261.575 108.044 261.392 108.644 261.025C109.244 260.658 109.719 260.167 110.069 259.55C110.435 258.933 110.619 258.25 110.619 257.5C110.619 256.75 110.435 256.067 110.069 255.45C109.719 254.833 109.244 254.342 108.644 253.975C108.044 253.608 107.377 253.425 106.644 253.425C105.91 253.425 105.244 253.608 104.644 253.975C104.044 254.342 103.56 254.833 103.194 255.45C102.844 256.067 102.669 256.75 102.669 257.5C102.669 258.25 102.844 258.933 103.194 259.55C103.56 260.167 104.044 260.658 104.644 261.025C105.244 261.392 105.91 261.575 106.644 261.575ZM117.861 265V250H121.761V251.65C122.294 250.95 122.953 250.417 123.736 250.05C124.519 249.683 125.361 249.5 126.261 249.5C127.328 249.5 128.319 249.758 129.236 250.275C130.169 250.775 130.919 251.517 131.486 252.5C132.069 253.467 132.361 254.642 132.361 256.025V265H128.011V256.6C128.011 255.767 127.761 255.025 127.261 254.375C126.761 253.725 126.044 253.4 125.111 253.4C124.361 253.4 123.686 253.658 123.086 254.175C122.503 254.675 122.211 255.467 122.211 256.55V265H117.861ZM142.719 265.5C141.235 265.5 139.877 265.142 138.644 264.425C137.41 263.708 136.427 262.742 135.694 261.525C134.977 260.308 134.619 258.967 134.619 257.5C134.619 256.017 134.977 254.675 135.694 253.475C136.427 252.258 137.41 251.292 138.644 250.575C139.877 249.858 141.235 249.5 142.719 249.5C144.219 249.5 145.577 249.858 146.794 250.575C148.027 251.292 149.002 252.258 149.719 253.475C150.452 254.675 150.819 256.017 150.819 257.5C150.819 258.967 150.452 260.308 149.719 261.525C149.002 262.742 148.027 263.708 146.794 264.425C145.577 265.142 144.219 265.5 142.719 265.5ZM142.719 261.6C143.469 261.6 144.144 261.417 144.744 261.05C145.36 260.683 145.844 260.192 146.194 259.575C146.56 258.942 146.744 258.25 146.744 257.5C146.744 256.733 146.56 256.042 146.194 255.425C145.844 254.808 145.36 254.317 144.744 253.95C144.144 253.583 143.469 253.4 142.719 253.4C141.969 253.4 141.285 253.583 140.669 253.95C140.069 254.317 139.585 254.808 139.219 255.425C138.869 256.042 138.694 256.733 138.694 257.5C138.694 258.25 138.869 258.942 139.219 259.575C139.585 260.192 140.069 260.683 140.669 261.05C141.285 261.417 141.969 261.6 142.719 261.6ZM158.294 265.5C157.277 265.5 156.244 265.333 155.194 265C154.16 264.667 153.352 264.217 152.769 263.65L153.844 259.55C154.327 260.217 154.994 260.8 155.844 261.3C156.71 261.8 157.602 262.05 158.519 262.05C159.135 262.05 159.577 261.933 159.844 261.7C160.127 261.467 160.269 261.183 160.269 260.85C160.269 260.467 160.127 260.192 159.844 260.025C159.56 259.842 159.269 259.692 158.969 259.575L156.869 258.775C156.402 258.592 155.869 258.342 155.269 258.025C154.669 257.708 154.144 257.258 153.694 256.675C153.26 256.092 153.044 255.325 153.044 254.375C153.044 253.508 153.26 252.708 153.694 251.975C154.127 251.242 154.752 250.65 155.569 250.2C156.402 249.733 157.402 249.5 158.569 249.5C159.652 249.5 160.66 249.683 161.594 250.05C162.544 250.417 163.235 250.825 163.669 251.275L162.669 255.225C162.102 254.492 161.427 253.933 160.644 253.55C159.877 253.15 159.144 252.95 158.444 252.95C157.91 252.95 157.519 253.058 157.269 253.275C157.019 253.492 156.894 253.742 156.894 254.025C156.894 254.242 156.977 254.458 157.144 254.675C157.327 254.875 157.627 255.058 158.044 255.225L159.994 255.95C160.56 256.15 161.16 256.417 161.794 256.75C162.444 257.083 162.994 257.55 163.444 258.15C163.894 258.733 164.119 259.542 164.119 260.575C164.119 262.025 163.577 263.208 162.494 264.125C161.427 265.042 160.027 265.5 158.294 265.5ZM174.398 265.5C172.714 265.5 171.231 265.15 169.948 264.45C168.664 263.75 167.664 262.792 166.948 261.575C166.231 260.342 165.873 258.933 165.873 257.35C165.873 255.833 166.223 254.492 166.923 253.325C167.623 252.142 168.564 251.208 169.748 250.525C170.948 249.842 172.273 249.5 173.723 249.5C175.206 249.5 176.531 249.842 177.698 250.525C178.864 251.192 179.781 252.108 180.448 253.275C181.131 254.442 181.473 255.767 181.473 257.25V258.775H172.323C171.906 258.775 171.506 258.75 171.123 258.7C170.739 258.65 170.356 258.592 169.973 258.525C170.173 259.525 170.664 260.342 171.448 260.975C172.248 261.592 173.264 261.9 174.498 261.9C175.448 261.9 176.298 261.708 177.048 261.325C177.814 260.942 178.439 260.467 178.923 259.9L179.873 263.8C179.123 264.367 178.273 264.792 177.323 265.075C176.389 265.358 175.414 265.5 174.398 265.5ZM169.873 255.9C170.706 255.717 171.523 255.625 172.323 255.625H174.973C175.439 255.625 175.881 255.642 176.298 255.675C176.714 255.708 177.106 255.767 177.473 255.85C177.223 254.95 176.764 254.242 176.098 253.725C175.448 253.208 174.639 252.95 173.673 252.95C172.756 252.95 171.956 253.217 171.273 253.75C170.606 254.267 170.139 254.983 169.873 255.9ZM190.659 265.4C189.259 265.4 187.993 265.042 186.859 264.325C185.726 263.608 184.818 262.658 184.134 261.475C183.468 260.275 183.134 258.95 183.134 257.5C183.134 256.05 183.468 254.725 184.134 253.525C184.818 252.325 185.726 251.375 186.859 250.675C187.993 249.958 189.259 249.6 190.659 249.6C191.459 249.6 192.201 249.717 192.884 249.95C193.568 250.183 194.184 250.517 194.734 250.95V241H199.084V265H195.334V263.525C194.768 264.108 194.084 264.567 193.284 264.9C192.484 265.233 191.609 265.4 190.659 265.4ZM191.159 261.575C191.893 261.575 192.559 261.392 193.159 261.025C193.759 260.658 194.234 260.167 194.584 259.55C194.951 258.933 195.134 258.25 195.134 257.5C195.134 256.75 194.951 256.067 194.584 255.45C194.234 254.833 193.759 254.342 193.159 253.975C192.559 253.608 191.893 253.425 191.159 253.425C190.426 253.425 189.759 253.608 189.159 253.975C188.559 254.342 188.076 254.833 187.709 255.45C187.359 256.067 187.184 256.75 187.184 257.5C187.184 258.25 187.359 258.933 187.709 259.55C188.076 260.167 188.559 260.658 189.159 261.025C189.759 261.392 190.426 261.575 191.159 261.575ZM215.84 265.75L208.365 250H213.04L215.34 254.825C215.557 255.242 215.773 255.7 215.99 256.2C216.207 256.683 216.423 257.233 216.64 257.85C216.873 257.267 217.098 256.758 217.315 256.325C217.548 255.875 217.773 255.442 217.99 255.025L220.815 249.5L223.74 255.025C223.94 255.392 224.148 255.8 224.365 256.25C224.598 256.7 224.823 257.233 225.04 257.85C225.257 257.183 225.465 256.617 225.665 256.15C225.882 255.683 226.09 255.242 226.29 254.825L228.59 250H233.065L225.59 265.75L222.165 259.975C221.898 259.542 221.648 259.1 221.415 258.65C221.182 258.2 220.948 257.725 220.715 257.225C220.498 257.725 220.265 258.2 220.015 258.65C219.782 259.1 219.532 259.542 219.265 259.975L215.84 265.75ZM234.911 265V250H239.261V265H234.911ZM237.086 247.825C236.436 247.825 235.886 247.6 235.436 247.15C234.986 246.7 234.761 246.15 234.761 245.5C234.761 244.833 234.986 244.283 235.436 243.85C235.886 243.4 236.436 243.175 237.086 243.175C237.753 243.175 238.303 243.4 238.736 243.85C239.186 244.283 239.411 244.833 239.411 245.5C239.411 246.15 239.186 246.7 238.736 247.15C238.303 247.6 237.753 247.825 237.086 247.825ZM244.345 265V253.45H241.545V250H244.42V245H248.62V250H251.595V253.45H248.695V265H244.345ZM253.845 265V241H258.195V251.125C258.729 250.592 259.337 250.192 260.02 249.925C260.72 249.642 261.462 249.5 262.245 249.5C263.312 249.5 264.304 249.758 265.22 250.275C266.154 250.775 266.904 251.517 267.47 252.5C268.054 253.467 268.345 254.642 268.345 256.025V265H263.995V256.6C263.995 255.767 263.745 255.025 263.245 254.375C262.745 253.725 262.029 253.4 261.095 253.4C260.345 253.4 259.67 253.658 259.07 254.175C258.487 254.675 258.195 255.467 258.195 256.55V265H253.845ZM274.053 256.75C274.053 255.533 274.211 254.508 274.528 253.675C274.845 252.842 275.211 252.117 275.628 251.5C276.045 250.867 276.411 250.275 276.728 249.725C277.045 249.175 277.203 248.592 277.203 247.975C277.203 247.292 276.978 246.783 276.528 246.45C276.095 246.117 275.52 245.95 274.803 245.95C274.02 245.95 273.336 246.142 272.753 246.525C272.186 246.908 271.72 247.317 271.353 247.75V243.4C271.936 242.967 272.561 242.633 273.228 242.4C273.895 242.167 274.636 242.05 275.453 242.05C276.636 242.05 277.661 242.283 278.528 242.75C279.395 243.217 280.061 243.858 280.528 244.675C281.011 245.492 281.253 246.433 281.253 247.5C281.253 248.5 281.078 249.392 280.728 250.175C280.378 250.942 279.961 251.658 279.478 252.325C278.995 252.992 278.545 253.675 278.128 254.375C277.728 255.075 277.47 255.867 277.353 256.75H274.053ZM275.703 265.5C274.97 265.5 274.345 265.25 273.828 264.75C273.328 264.233 273.078 263.608 273.078 262.875C273.078 262.142 273.328 261.525 273.828 261.025C274.345 260.508 274.97 260.25 275.703 260.25C276.436 260.25 277.053 260.508 277.553 261.025C278.07 261.525 278.328 262.142 278.328 262.875C278.328 263.608 278.07 264.233 277.553 264.75C277.053 265.25 276.436 265.5 275.703 265.5Z" fill="black"/>
<path d="M61.9556 138.356C61.1111 138.356 60.3333 138.207 59.6222 137.911C58.9259 137.615 58.3185 137.207 57.8 136.689V138H54.4667V116.667H58.3333V125.511C58.8222 125.126 59.3704 124.83 59.9778 124.622C60.5852 124.415 61.2444 124.311 61.9556 124.311C63.2 124.311 64.3259 124.63 65.3333 125.267C66.3407 125.889 67.1407 126.733 67.7333 127.8C68.3407 128.867 68.6444 130.044 68.6444 131.333C68.6444 132.622 68.3407 133.8 67.7333 134.867C67.1407 135.919 66.3407 136.763 65.3333 137.4C64.3259 138.037 63.2 138.356 61.9556 138.356ZM61.5111 134.956C62.163 134.956 62.7556 134.793 63.2889 134.467C63.8222 134.141 64.2444 133.704 64.5556 133.156C64.8815 132.607 65.0444 132 65.0444 131.333C65.0444 130.667 64.8815 130.059 64.5556 129.511C64.2444 128.963 63.8222 128.526 63.2889 128.2C62.7556 127.874 62.163 127.711 61.5111 127.711C60.8593 127.711 60.2667 127.874 59.7333 128.2C59.2 128.526 58.7704 128.963 58.4444 129.511C58.1333 130.059 57.9778 130.667 57.9778 131.333C57.9778 132 58.1333 132.607 58.4444 133.156C58.7704 133.704 59.2 134.141 59.7333 134.467C60.2667 134.793 60.8593 134.956 61.5111 134.956ZM82.9353 138.444C81.439 138.444 80.1205 138.133 78.9797 137.511C77.839 136.889 76.9501 136.037 76.3131 134.956C75.676 133.859 75.3575 132.607 75.3575 131.2C75.3575 129.852 75.6686 128.659 76.2908 127.622C76.9131 126.57 77.7501 125.741 78.8019 125.133C79.8686 124.526 81.0464 124.222 82.3353 124.222C83.6538 124.222 84.8316 124.526 85.8686 125.133C86.9056 125.726 87.7205 126.541 88.3131 127.578C88.9205 128.615 89.2242 129.793 89.2242 131.111V132.467H81.0908C80.7205 132.467 80.3649 132.444 80.0242 132.4C79.6834 132.356 79.3427 132.304 79.0019 132.244C79.1797 133.133 79.6168 133.859 80.3131 134.422C81.0242 134.97 81.9279 135.244 83.0242 135.244C83.8686 135.244 84.6242 135.074 85.2908 134.733C85.9723 134.393 86.5279 133.97 86.9575 133.467L87.8019 136.933C87.1353 137.437 86.3797 137.815 85.5353 138.067C84.7056 138.319 83.839 138.444 82.9353 138.444ZM78.9131 129.911C79.6538 129.748 80.3797 129.667 81.0908 129.667H83.4464C83.8612 129.667 84.2538 129.681 84.6242 129.711C84.9945 129.741 85.3427 129.793 85.6686 129.867C85.4464 129.067 85.039 128.437 84.4464 127.978C83.8686 127.519 83.1501 127.289 82.2908 127.289C81.476 127.289 80.7649 127.526 80.1575 128C79.5649 128.459 79.1501 129.096 78.9131 129.911ZM102.488 138.356C101.258 138.356 100.14 138.037 99.1324 137.4C98.125 136.763 97.3175 135.919 96.7101 134.867C96.1175 133.8 95.8212 132.622 95.8212 131.333C95.8212 130.044 96.1175 128.867 96.7101 127.8C97.3175 126.733 98.125 125.889 99.1324 125.267C100.14 124.63 101.258 124.311 102.488 124.311C103.347 124.311 104.132 124.467 104.843 124.778C105.555 125.074 106.162 125.489 106.666 126.022V124.667H109.999V138H106.666V136.644C106.162 137.178 105.555 137.6 104.843 137.911C104.132 138.207 103.347 138.356 102.488 138.356ZM102.955 134.956C103.606 134.956 104.199 134.793 104.732 134.467C105.266 134.141 105.688 133.704 105.999 133.156C106.325 132.607 106.488 132 106.488 131.333C106.488 130.667 106.325 130.059 105.999 129.511C105.688 128.963 105.266 128.526 104.732 128.2C104.199 127.874 103.606 127.711 102.955 127.711C102.303 127.711 101.71 127.874 101.177 128.2C100.643 128.526 100.214 128.963 99.8879 129.511C99.5768 130.059 99.4212 130.667 99.4212 131.333C99.4212 132 99.5768 132.607 99.8879 133.156C100.214 133.704 100.643 134.141 101.177 134.467C101.71 134.793 102.303 134.956 102.955 134.956ZM124.579 138.444C123.26 138.444 122.053 138.126 120.957 137.489C119.86 136.852 118.986 135.993 118.334 134.911C117.697 133.83 117.379 132.637 117.379 131.333C117.379 130.015 117.697 128.822 118.334 127.756C118.986 126.674 119.86 125.815 120.957 125.178C122.053 124.541 123.26 124.222 124.579 124.222C125.497 124.222 126.364 124.378 127.179 124.689C128.008 124.985 128.742 125.43 129.379 126.022L128.379 129.956C128.008 129.348 127.512 128.822 126.89 128.378C126.282 127.919 125.564 127.689 124.734 127.689C124.038 127.689 123.416 127.852 122.868 128.178C122.319 128.504 121.89 128.941 121.579 129.489C121.268 130.037 121.112 130.652 121.112 131.333C121.112 132 121.268 132.615 121.579 133.178C121.89 133.726 122.319 134.163 122.868 134.489C123.416 134.815 124.038 134.978 124.734 134.978C125.564 134.978 126.282 134.756 126.89 134.311C127.512 133.852 128.008 133.319 128.379 132.711L129.379 136.644C128.742 137.237 128.008 137.689 127.179 138C126.364 138.296 125.497 138.444 124.579 138.444ZM143.042 138.444C141.724 138.444 140.517 138.126 139.42 137.489C138.324 136.852 137.45 135.993 136.798 134.911C136.161 133.83 135.842 132.637 135.842 131.333C135.842 130.015 136.161 128.822 136.798 127.756C137.45 126.674 138.324 125.815 139.42 125.178C140.517 124.541 141.724 124.222 143.042 124.222C144.376 124.222 145.583 124.541 146.665 125.178C147.761 125.815 148.628 126.674 149.265 127.756C149.917 128.822 150.242 130.015 150.242 131.333C150.242 132.637 149.917 133.83 149.265 134.911C148.628 135.993 147.761 136.852 146.665 137.489C145.583 138.126 144.376 138.444 143.042 138.444ZM143.042 134.978C143.709 134.978 144.309 134.815 144.842 134.489C145.391 134.163 145.82 133.726 146.131 133.178C146.457 132.615 146.62 132 146.62 131.333C146.62 130.652 146.457 130.037 146.131 129.489C145.82 128.941 145.391 128.504 144.842 128.178C144.309 127.852 143.709 127.689 143.042 127.689C142.376 127.689 141.768 127.852 141.22 128.178C140.687 128.504 140.257 128.941 139.931 129.489C139.62 130.037 139.465 130.652 139.465 131.333C139.465 132 139.62 132.615 139.931 133.178C140.257 133.726 140.687 134.163 141.22 134.489C141.768 134.815 142.376 134.978 143.042 134.978ZM157.629 138V124.667H161.096V126.133C161.57 125.511 162.155 125.037 162.851 124.711C163.548 124.385 164.296 124.222 165.096 124.222C166.044 124.222 166.925 124.452 167.74 124.911C168.57 125.356 169.237 126.015 169.74 126.889C170.259 127.748 170.518 128.793 170.518 130.022V138H166.651V130.533C166.651 129.793 166.429 129.133 165.985 128.556C165.54 127.978 164.903 127.689 164.074 127.689C163.407 127.689 162.807 127.919 162.274 128.378C161.755 128.822 161.496 129.526 161.496 130.489V138H157.629Z" fill="#FF6060"/>
<rect x="48" y="294" width="286" height="43" rx="8" fill="#FFD1D1"/>
<path d="M70.9168 320.25C72.322 320.25 73.6868 319.779 74.7936 318.914L78.2738 322.394L79.3932 321.274L75.913 317.794C76.7792 316.687 77.2499 315.322 77.2502 313.917C77.2502 310.425 74.4089 307.583 70.9168 307.583C67.4248 307.583 64.5835 310.425 64.5835 313.917C64.5835 317.409 67.4248 320.25 70.9168 320.25ZM70.9168 309.167C73.5365 309.167 75.6668 311.297 75.6668 313.917C75.6668 316.536 73.5365 318.667 70.9168 318.667C68.2972 318.667 66.1668 316.536 66.1668 313.917C66.1668 311.297 68.2972 309.167 70.9168 309.167Z" fill="#FF6060"/>
<path d="M90.7083 326.333C90.0694 326.333 89.4861 326.241 88.9583 326.056C88.4398 325.87 87.9769 325.616 87.5694 325.292L87.9861 323.597C88.2639 323.995 88.6343 324.319 89.0972 324.569C89.5602 324.819 90.0926 324.944 90.6944 324.944C91.6296 324.944 92.3843 324.662 92.9583 324.097C93.5417 323.532 93.8333 322.806 93.8333 321.917V320.903C93.463 321.273 93.0231 321.569 92.5139 321.792C92.0139 322.005 91.4769 322.111 90.9028 322.111C90.1435 322.111 89.4491 321.921 88.8194 321.542C88.1898 321.153 87.6852 320.634 87.3056 319.986C86.9352 319.338 86.75 318.62 86.75 317.833C86.75 317.046 86.9352 316.329 87.3056 315.681C87.6852 315.032 88.1898 314.519 88.8194 314.139C89.4491 313.75 90.1435 313.556 90.9028 313.556C91.4769 313.556 92.0139 313.662 92.5139 313.875C93.0231 314.088 93.463 314.384 93.8333 314.764V313.667H95.2222V322C95.2222 322.907 95.0093 323.685 94.5833 324.333C94.1667 324.981 93.6157 325.477 92.9306 325.819C92.2454 326.162 91.5046 326.333 90.7083 326.333ZM91.0972 320.75C91.625 320.75 92.1019 320.62 92.5278 320.361C92.963 320.093 93.3056 319.741 93.5556 319.306C93.8148 318.861 93.9444 318.37 93.9444 317.833C93.9444 317.296 93.8148 316.81 93.5556 316.375C93.3056 315.931 92.963 315.579 92.5278 315.319C92.1019 315.051 91.625 314.917 91.0972 314.917C90.5694 314.917 90.088 315.051 89.6528 315.319C89.2269 315.579 88.8843 315.931 88.625 316.375C88.375 316.81 88.25 317.296 88.25 317.833C88.25 318.37 88.375 318.861 88.625 319.306C88.8843 319.741 89.2269 320.093 89.6528 320.361C90.088 320.62 90.5694 320.75 91.0972 320.75ZM97.8802 322V308.667H99.3802V322H97.8802ZM102.04 322V313.667H103.54V322H102.04ZM102.79 312.167C102.513 312.167 102.276 312.069 102.082 311.875C101.888 311.681 101.79 311.444 101.79 311.167C101.79 310.88 101.888 310.644 102.082 310.458C102.276 310.264 102.513 310.167 102.79 310.167C103.077 310.167 103.314 310.264 103.499 310.458C103.693 310.644 103.79 310.88 103.79 311.167C103.79 311.444 103.693 311.681 103.499 311.875C103.314 312.069 103.077 312.167 102.79 312.167ZM110.006 322.167C109.201 322.167 108.464 321.972 107.798 321.583C107.131 321.194 106.599 320.671 106.201 320.014C105.812 319.356 105.617 318.63 105.617 317.833C105.617 317.028 105.812 316.301 106.201 315.653C106.599 314.995 107.131 314.472 107.798 314.083C108.464 313.694 109.201 313.5 110.006 313.5C110.821 313.5 111.557 313.694 112.214 314.083C112.881 314.472 113.409 314.995 113.798 315.653C114.196 316.301 114.395 317.028 114.395 317.833C114.395 318.63 114.196 319.356 113.798 320.014C113.409 320.671 112.881 321.194 112.214 321.583C111.557 321.972 110.821 322.167 110.006 322.167ZM110.006 320.75C110.543 320.75 111.029 320.62 111.464 320.361C111.9 320.093 112.247 319.741 112.506 319.306C112.765 318.861 112.895 318.37 112.895 317.833C112.895 317.296 112.765 316.81 112.506 316.375C112.247 315.931 111.9 315.579 111.464 315.319C111.029 315.051 110.543 314.917 110.006 314.917C109.469 314.917 108.983 315.051 108.548 315.319C108.113 315.579 107.765 315.931 107.506 316.375C107.247 316.81 107.117 317.296 107.117 317.833C107.117 318.37 107.247 318.861 107.506 319.306C107.765 319.741 108.113 320.093 108.548 320.361C108.983 320.62 109.469 320.75 110.006 320.75Z" fill="black"/>
<rect x="345.5" y="294.5" width="37" height="42" rx="7.5" fill="white" stroke="black"/>
<path d="M362.072 312.212C362.072 311.831 362.185 311.458 362.397 311.141C362.609 310.824 362.91 310.576 363.262 310.43C363.615 310.285 364.002 310.246 364.377 310.321C364.751 310.395 365.094 310.579 365.364 310.849C365.634 311.118 365.817 311.462 365.892 311.836C365.966 312.21 365.928 312.598 365.782 312.95C365.636 313.303 365.389 313.604 365.072 313.816C364.755 314.028 364.382 314.141 364 314.141V314.784M364 317.435C363.915 317.435 363.833 317.401 363.773 317.341C363.713 317.28 363.679 317.199 363.679 317.113C363.679 317.028 363.713 316.946 363.773 316.886C363.833 316.826 363.915 316.792 364 316.792C364.086 316.792 364.167 316.826 364.228 316.886C364.288 316.946 364.322 317.028 364.322 317.113C364.322 317.199 364.288 317.28 364.228 317.341C364.167 317.401 364.086 317.435 364 317.435Z" stroke="#FF6060" stroke-linecap="round" stroke-linejoin="round"/>
<path d="M371.072 324.357H358.857C358.346 324.357 357.855 324.154 357.494 323.792C357.132 323.431 356.929 322.94 356.929 322.429C356.929 321.917 357.132 321.427 357.494 321.065C357.855 320.703 358.346 320.5 358.857 320.5H369.786M369.786 320.5C370.127 320.5 370.454 320.365 370.695 320.123C370.936 319.882 371.072 319.555 371.072 319.214V308.929C371.072 308.588 370.936 308.261 370.695 308.019C370.454 307.778 370.127 307.643 369.786 307.643H358.857C358.355 307.643 357.872 307.839 357.511 308.189C357.151 308.54 356.942 309.017 356.929 309.52V322.377M369.786 320.5V324.357" stroke="#FF6060" stroke-linecap="round" stroke-linejoin="round"/>
<path d="M190.001 798.75C189.483 798.75 188.995 798.652 188.539 798.455C188.082 798.258 187.685 797.991 187.347 797.653C187.01 797.316 186.742 796.919 186.545 796.463C186.348 796.008 186.25 795.52 186.25 795.001C186.25 794.482 186.348 793.995 186.545 793.539C186.742 793.082 187.009 792.685 187.346 792.347C187.683 792.01 188.08 791.742 188.536 791.545C188.993 791.348 189.48 791.25 189.999 791.25C190.517 791.25 191.005 791.348 191.461 791.545C191.918 791.742 192.315 792.009 192.652 792.346C192.99 792.683 193.258 793.08 193.455 793.537C193.652 793.993 193.75 794.48 193.75 794.999C193.75 795.517 193.652 796.005 193.455 796.461C193.258 796.918 192.991 797.315 192.653 797.653C192.316 797.99 191.919 798.257 191.463 798.455C191.008 798.652 190.52 798.75 190.001 798.75Z" fill="black"/>
<path d="M207.001 798.75C206.483 798.75 205.995 798.652 205.539 798.455C205.082 798.258 204.685 797.991 204.347 797.653C204.01 797.316 203.742 796.919 203.545 796.463C203.348 796.008 203.25 795.52 203.25 795.001C203.25 794.482 203.348 793.995 203.545 793.539C203.742 793.082 204.009 792.685 204.346 792.347C204.683 792.01 205.08 791.742 205.536 791.545C205.993 791.348 206.48 791.25 206.999 791.25C207.517 791.25 208.005 791.348 208.461 791.545C208.918 791.742 209.315 792.009 209.652 792.346C209.99 792.683 210.258 793.08 210.455 793.537C210.652 793.993 210.75 794.48 210.75 794.999C210.75 795.517 210.652 796.005 210.455 796.461C210.258 796.918 209.991 797.315 209.653 797.653C209.316 797.99 208.919 798.257 208.463 798.455C208.008 798.652 207.52 798.75 207.001 798.75Z" fill="black"/>
<path d="M224.001 798.75C223.483 798.75 222.995 798.652 222.539 798.455C222.082 798.258 221.685 797.991 221.347 797.653C221.01 797.316 220.742 796.919 220.545 796.463C220.348 796.008 220.25 795.52 220.25 795.001C220.25 794.482 220.348 793.995 220.545 793.539C220.742 793.082 221.009 792.685 221.346 792.347C221.683 792.01 222.08 791.742 222.536 791.545C222.993 791.348 223.48 791.25 223.999 791.25C224.517 791.25 225.005 791.348 225.461 791.545C225.918 791.742 226.315 792.009 226.652 792.346C226.99 792.683 227.258 793.08 227.455 793.537C227.652 793.993 227.75 794.48 227.75 794.999C227.75 795.517 227.652 796.005 227.455 796.461C227.258 796.918 226.991 797.315 226.653 797.653C226.316 797.99 225.919 798.257 225.463 798.455C225.008 798.652 224.52 798.75 224.001 798.75Z" fill="black"/>
<path d="M241.001 798.75C240.483 798.75 239.995 798.652 239.539 798.455C239.082 798.258 238.685 797.991 238.347 797.653C238.01 797.316 237.742 796.919 237.545 796.463C237.348 796.008 237.25 795.52 237.25 795.001C237.25 794.482 237.348 793.995 237.545 793.539C237.742 793.082 238.009 792.685 238.346 792.347C238.683 792.01 239.08 791.742 239.536 791.545C239.993 791.348 240.48 791.25 240.999 791.25C241.517 791.25 242.005 791.348 242.461 791.545C242.918 791.742 243.315 792.009 243.652 792.346C243.99 792.683 244.258 793.08 244.455 793.537C244.652 793.993 244.75 794.48 244.75 794.999C244.75 795.517 244.652 796.005 244.455 796.461C244.258 796.918 243.991 797.315 243.653 797.653C243.316 797.99 242.919 798.257 242.463 798.455C242.008 798.652 241.52 798.75 241.001 798.75Z" fill="black"/>
<path d="M316 183L311.44 277" stroke="#2E941F"/>
<path d="M207.75 147V134.5H209.333V145.583H213.667V147H207.75ZM218.832 147.111C218.073 147.111 217.379 146.921 216.749 146.542C216.12 146.153 215.615 145.634 215.235 144.986C214.865 144.338 214.68 143.62 214.68 142.833C214.68 142.046 214.865 141.329 215.235 140.681C215.615 140.032 216.12 139.519 216.749 139.139C217.379 138.75 218.073 138.556 218.832 138.556C219.407 138.556 219.944 138.662 220.444 138.875C220.953 139.088 221.393 139.384 221.763 139.764V138.667H223.152V147H221.763V145.903C221.393 146.273 220.953 146.569 220.444 146.792C219.944 147.005 219.407 147.111 218.832 147.111ZM219.027 145.75C219.555 145.75 220.032 145.62 220.457 145.361C220.893 145.093 221.235 144.741 221.485 144.306C221.745 143.861 221.874 143.37 221.874 142.833C221.874 142.296 221.745 141.81 221.485 141.375C221.235 140.931 220.893 140.579 220.457 140.319C220.032 140.051 219.555 139.917 219.027 139.917C218.499 139.917 218.018 140.051 217.582 140.319C217.157 140.579 216.814 140.931 216.555 141.375C216.305 141.81 216.18 142.296 216.18 142.833C216.18 143.37 216.305 143.861 216.555 144.306C216.814 144.741 217.157 145.093 217.582 145.361C218.018 145.62 218.499 145.75 219.027 145.75ZM225.81 147V138.667H227.199V140.194C227.495 139.704 227.889 139.315 228.379 139.028C228.87 138.731 229.453 138.583 230.129 138.583L230.504 140.083C230.328 140.028 230.125 140 229.893 140C229.115 140 228.49 140.25 228.018 140.75C227.546 141.241 227.31 141.944 227.31 142.861V147H225.81ZM235.161 151.333C234.523 151.333 233.939 151.241 233.411 151.056C232.893 150.87 232.43 150.616 232.023 150.292L232.439 148.597C232.717 148.995 233.087 149.319 233.55 149.569C234.013 149.819 234.546 149.944 235.148 149.944C236.083 149.944 236.837 149.662 237.411 149.097C237.995 148.532 238.286 147.806 238.286 146.917V145.903C237.916 146.273 237.476 146.569 236.967 146.792C236.467 147.005 235.93 147.111 235.356 147.111C234.597 147.111 233.902 146.921 233.273 146.542C232.643 146.153 232.138 145.634 231.759 144.986C231.388 144.338 231.203 143.62 231.203 142.833C231.203 142.046 231.388 141.329 231.759 140.681C232.138 140.032 232.643 139.519 233.273 139.139C233.902 138.75 234.597 138.556 235.356 138.556C235.93 138.556 236.467 138.662 236.967 138.875C237.476 139.088 237.916 139.384 238.286 139.764V138.667H239.675V147C239.675 147.907 239.462 148.685 239.036 149.333C238.62 149.981 238.069 150.477 237.384 150.819C236.698 151.162 235.958 151.333 235.161 151.333ZM235.55 145.75C236.078 145.75 236.555 145.62 236.981 145.361C237.416 145.093 237.759 144.741 238.009 144.306C238.268 143.861 238.398 143.37 238.398 142.833C238.398 142.296 238.268 141.81 238.009 141.375C237.759 140.931 237.416 140.579 236.981 140.319C236.555 140.051 236.078 139.917 235.55 139.917C235.023 139.917 234.541 140.051 234.106 140.319C233.68 140.579 233.337 140.931 233.078 141.375C232.828 141.81 232.703 142.296 232.703 142.833C232.703 143.37 232.828 143.861 233.078 144.306C233.337 144.741 233.68 145.093 234.106 145.361C234.541 145.62 235.023 145.75 235.55 145.75ZM246.306 147.167C245.435 147.167 244.653 146.972 243.958 146.583C243.273 146.194 242.731 145.667 242.333 145C241.944 144.324 241.75 143.574 241.75 142.75C241.75 141.963 241.94 141.25 242.319 140.611C242.699 139.963 243.208 139.449 243.847 139.069C244.495 138.69 245.208 138.5 245.986 138.5C246.755 138.5 247.458 138.685 248.097 139.056C248.736 139.417 249.245 139.907 249.625 140.528C250.005 141.148 250.194 141.852 250.194 142.639V143.25H244.75C244.509 143.25 244.264 143.241 244.014 143.222C243.764 143.204 243.519 143.176 243.278 143.139C243.38 143.88 243.713 144.5 244.278 145C244.852 145.5 245.532 145.75 246.319 145.75C246.847 145.75 247.338 145.63 247.792 145.389C248.245 145.148 248.611 144.829 248.889 144.431L249.306 146.139C248.907 146.463 248.449 146.718 247.931 146.903C247.421 147.079 246.88 147.167 246.306 147.167ZM243.236 142.125C243.736 142.042 244.241 142 244.75 142H247.514C247.718 142 247.917 142.009 248.111 142.028C248.315 142.037 248.519 142.051 248.722 142.069C248.593 141.421 248.269 140.889 247.75 140.472C247.231 140.046 246.644 139.833 245.986 139.833C245.31 139.833 244.718 140.06 244.208 140.514C243.699 140.958 243.375 141.495 243.236 142.125ZM252.197 147V138.667H253.586V140.194C253.882 139.704 254.275 139.315 254.766 139.028C255.257 138.731 255.84 138.583 256.516 138.583L256.891 140.083C256.715 140.028 256.511 140 256.28 140C255.502 140 254.877 140.25 254.405 140.75C253.933 141.241 253.697 141.944 253.697 142.861V147H252.197ZM265.648 147.417L261.44 138.667H263.148L264.829 142.278C264.986 142.62 265.135 142.954 265.273 143.278C265.422 143.602 265.565 144.009 265.704 144.5C265.852 144.019 266 143.611 266.148 143.278C266.306 142.944 266.454 142.611 266.593 142.278L268.273 138.278L269.94 142.278C270.079 142.62 270.223 142.954 270.371 143.278C270.519 143.602 270.662 144.009 270.801 144.5C270.94 144.009 271.084 143.602 271.232 143.278C271.38 142.944 271.533 142.611 271.69 142.278L273.398 138.667H274.996L270.787 147.417L269.093 143.694C268.945 143.361 268.797 143.032 268.648 142.708C268.51 142.375 268.366 141.977 268.218 141.514C268.079 141.977 267.935 142.375 267.787 142.708C267.639 143.032 267.486 143.361 267.329 143.694L265.648 147.417ZM276.493 147V138.667H277.993V147H276.493ZM277.243 137.167C276.966 137.167 276.73 137.069 276.535 136.875C276.341 136.681 276.243 136.444 276.243 136.167C276.243 135.88 276.341 135.644 276.535 135.458C276.73 135.264 276.966 135.167 277.243 135.167C277.531 135.167 277.767 135.264 277.952 135.458C278.146 135.644 278.243 135.88 278.243 136.167C278.243 136.444 278.146 136.681 277.952 136.875C277.767 137.069 277.531 137.167 277.243 137.167ZM284.223 147.111C283.464 147.111 282.769 146.921 282.14 146.542C281.51 146.153 281.005 145.634 280.626 144.986C280.255 144.338 280.07 143.62 280.07 142.833C280.07 142.046 280.255 141.329 280.626 140.681C281.005 140.032 281.51 139.519 282.14 139.139C282.769 138.75 283.464 138.556 284.223 138.556C284.769 138.556 285.283 138.653 285.765 138.847C286.246 139.042 286.672 139.31 287.043 139.653V133.667H288.543V147H287.154V145.903C286.783 146.273 286.343 146.569 285.834 146.792C285.334 147.005 284.797 147.111 284.223 147.111ZM284.418 145.75C284.945 145.75 285.422 145.62 285.848 145.361C286.283 145.093 286.626 144.741 286.876 144.306C287.135 143.861 287.265 143.37 287.265 142.833C287.265 142.296 287.135 141.81 286.876 141.375C286.626 140.931 286.283 140.579 285.848 140.319C285.422 140.051 284.945 139.917 284.418 139.917C283.89 139.917 283.408 140.051 282.973 140.319C282.547 140.579 282.205 140.931 281.945 141.375C281.695 141.81 281.57 142.296 281.57 142.833C281.57 143.37 281.695 143.861 281.945 144.306C282.205 144.741 282.547 145.093 282.973 145.361C283.408 145.62 283.89 145.75 284.418 145.75ZM292.173 147V139.917H290.284V138.667H292.214V135.889H293.631V138.667H295.701V139.917H293.673V147H292.173ZM297.451 147V133.667H298.951V139.847C299.265 139.412 299.654 139.079 300.117 138.847C300.58 138.616 301.076 138.5 301.603 138.5C302.196 138.5 302.742 138.648 303.242 138.944C303.751 139.231 304.163 139.653 304.478 140.208C304.793 140.755 304.951 141.421 304.951 142.208V147H303.451V142.417C303.451 141.759 303.251 141.181 302.853 140.681C302.464 140.171 301.913 139.917 301.201 139.917C300.617 139.917 300.094 140.13 299.631 140.556C299.177 140.972 298.951 141.579 298.951 142.375V147H297.451ZM312.583 147V139.917H310.694V138.667H312.625V135.889H314.041V138.667H316.111V139.917H314.083V147H312.583ZM321.256 147.167C320.451 147.167 319.714 146.972 319.048 146.583C318.381 146.194 317.849 145.671 317.451 145.014C317.062 144.356 316.867 143.63 316.867 142.833C316.867 142.028 317.062 141.301 317.451 140.653C317.849 139.995 318.381 139.472 319.048 139.083C319.714 138.694 320.451 138.5 321.256 138.5C322.071 138.5 322.807 138.694 323.464 139.083C324.131 139.472 324.659 139.995 325.048 140.653C325.446 141.301 325.645 142.028 325.645 142.833C325.645 143.63 325.446 144.356 325.048 145.014C324.659 145.671 324.131 146.194 323.464 146.583C322.807 146.972 322.071 147.167 321.256 147.167ZM321.256 145.75C321.793 145.75 322.279 145.62 322.714 145.361C323.15 145.093 323.497 144.741 323.756 144.306C324.015 143.861 324.145 143.37 324.145 142.833C324.145 142.296 324.015 141.81 323.756 141.375C323.497 140.931 323.15 140.579 322.714 140.319C322.279 140.051 321.793 139.917 321.256 139.917C320.719 139.917 320.233 140.051 319.798 140.319C319.363 140.579 319.015 140.931 318.756 141.375C318.497 141.81 318.367 142.296 318.367 142.833C318.367 143.37 318.497 143.861 318.756 144.306C319.015 144.741 319.363 145.093 319.798 145.361C320.233 145.62 320.719 145.75 321.256 145.75ZM334.037 147.167C333.611 147.167 333.153 147.088 332.662 146.931C332.18 146.764 331.764 146.491 331.412 146.111L331.829 144.472C332.088 144.907 332.421 145.255 332.829 145.514C333.236 145.764 333.671 145.889 334.134 145.889C334.579 145.889 334.912 145.782 335.134 145.569C335.356 145.347 335.467 145.079 335.467 144.764C335.467 144.403 335.347 144.139 335.106 143.972C334.875 143.806 334.667 143.69 334.481 143.625L333.356 143.194C333.153 143.111 332.907 142.991 332.62 142.833C332.333 142.667 332.083 142.431 331.87 142.125C331.657 141.819 331.551 141.421 331.551 140.931C331.551 140.486 331.657 140.079 331.87 139.708C332.083 139.338 332.384 139.046 332.773 138.833C333.162 138.611 333.62 138.5 334.148 138.5C334.565 138.5 335 138.574 335.454 138.722C335.907 138.87 336.292 139.12 336.606 139.472L336.19 141.111C335.967 140.704 335.667 140.38 335.287 140.139C334.907 139.898 334.514 139.778 334.106 139.778C333.727 139.778 333.426 139.884 333.204 140.097C332.991 140.31 332.884 140.556 332.884 140.833C332.884 141.056 332.958 141.255 333.106 141.431C333.254 141.606 333.477 141.75 333.773 141.861L334.898 142.292C335.102 142.366 335.352 142.486 335.648 142.653C335.954 142.819 336.222 143.06 336.454 143.375C336.685 143.69 336.801 144.116 336.801 144.653C336.801 145.403 336.537 146.009 336.009 146.472C335.491 146.935 334.833 147.167 334.037 147.167ZM342.946 147.167C342.076 147.167 341.293 146.972 340.599 146.583C339.914 146.194 339.372 145.667 338.974 145C338.585 144.324 338.391 143.574 338.391 142.75C338.391 141.963 338.58 141.25 338.96 140.611C339.34 139.963 339.849 139.449 340.488 139.069C341.136 138.69 341.849 138.5 342.627 138.5C343.395 138.5 344.099 138.685 344.738 139.056C345.377 139.417 345.886 139.907 346.266 140.528C346.645 141.148 346.835 141.852 346.835 142.639V143.25H341.391C341.15 143.25 340.905 143.241 340.655 143.222C340.405 143.204 340.159 143.176 339.918 143.139C340.02 143.88 340.354 144.5 340.918 145C341.492 145.5 342.173 145.75 342.96 145.75C343.488 145.75 343.979 145.63 344.432 145.389C344.886 145.148 345.252 144.829 345.53 144.431L345.946 146.139C345.548 146.463 345.09 146.718 344.571 146.903C344.062 147.079 343.52 147.167 342.946 147.167ZM339.877 142.125C340.377 142.042 340.881 142 341.391 142H344.155C344.358 142 344.557 142.009 344.752 142.028C344.955 142.037 345.159 142.051 345.363 142.069C345.233 141.421 344.909 140.889 344.391 140.472C343.872 140.046 343.284 139.833 342.627 139.833C341.951 139.833 341.358 140.06 340.849 140.514C340.34 140.958 340.016 141.495 339.877 142.125ZM352.407 147.111C351.647 147.111 350.953 146.921 350.323 146.542C349.694 146.153 349.189 145.634 348.809 144.986C348.439 144.338 348.254 143.62 348.254 142.833C348.254 142.046 348.439 141.329 348.809 140.681C349.189 140.032 349.694 139.519 350.323 139.139C350.953 138.75 351.647 138.556 352.407 138.556C352.981 138.556 353.518 138.662 354.018 138.875C354.527 139.088 354.967 139.384 355.337 139.764V138.667H356.726V147H355.337V145.903C354.967 146.273 354.527 146.569 354.018 146.792C353.518 147.005 352.981 147.111 352.407 147.111ZM352.601 145.75C353.129 145.75 353.606 145.62 354.032 145.361C354.467 145.093 354.809 144.741 355.059 144.306C355.319 143.861 355.448 143.37 355.448 142.833C355.448 142.296 355.319 141.81 355.059 141.375C354.809 140.931 354.467 140.579 354.032 140.319C353.606 140.051 353.129 139.917 352.601 139.917C352.073 139.917 351.592 140.051 351.157 140.319C350.731 140.579 350.388 140.931 350.129 141.375C349.879 141.81 349.754 142.296 349.754 142.833C349.754 143.37 349.879 143.861 350.129 144.306C350.388 144.741 350.731 145.093 351.157 145.361C351.592 145.62 352.073 145.75 352.601 145.75ZM359.384 147V138.667H360.773V140.194C361.069 139.704 361.463 139.315 361.954 139.028C362.444 138.731 363.028 138.583 363.704 138.583L364.079 140.083C363.903 140.028 363.699 140 363.467 140C362.69 140 362.065 140.25 361.592 140.75C361.12 141.241 360.884 141.944 360.884 142.861V147H359.384ZM369.194 147.167C368.379 147.167 367.638 146.972 366.972 146.583C366.305 146.194 365.773 145.671 365.375 145.014C364.976 144.356 364.777 143.63 364.777 142.833C364.777 142.037 364.976 141.31 365.375 140.653C365.773 139.995 366.305 139.472 366.972 139.083C367.638 138.694 368.379 138.5 369.194 138.5C369.796 138.5 370.361 138.606 370.888 138.819C371.416 139.032 371.879 139.315 372.277 139.667L371.819 141.556C371.588 141.093 371.236 140.704 370.763 140.389C370.3 140.074 369.773 139.917 369.18 139.917C368.643 139.917 368.152 140.051 367.708 140.319C367.273 140.579 366.925 140.931 366.666 141.375C366.407 141.81 366.277 142.296 366.277 142.833C366.277 143.361 366.407 143.847 366.666 144.292C366.925 144.736 367.273 145.093 367.708 145.361C368.152 145.62 368.643 145.75 369.18 145.75C369.773 145.75 370.3 145.597 370.763 145.292C371.236 144.986 371.588 144.593 371.819 144.111L372.277 146C371.879 146.352 371.416 146.634 370.888 146.847C370.361 147.06 369.796 147.167 369.194 147.167ZM374.111 147V133.667H375.611V139.847C375.925 139.412 376.314 139.079 376.777 138.847C377.24 138.616 377.736 138.5 378.263 138.5C378.856 138.5 379.402 138.648 379.902 138.944C380.412 139.231 380.824 139.653 381.138 140.208C381.453 140.755 381.611 141.421 381.611 142.208V147H380.111V142.417C380.111 141.759 379.912 141.181 379.513 140.681C379.125 140.171 378.574 139.917 377.861 139.917C377.277 139.917 376.754 140.13 376.291 140.556C375.838 140.972 375.611 141.579 375.611 142.375V147H374.111ZM389.243 147V139.917H387.354V138.667H389.285V136.278C389.285 135.37 389.553 134.681 390.09 134.208C390.627 133.736 391.266 133.5 392.007 133.5C392.285 133.5 392.567 133.532 392.854 133.597C393.15 133.662 393.428 133.773 393.688 133.931L393.326 135.389C392.938 134.963 392.484 134.75 391.965 134.75C391.65 134.75 391.359 134.856 391.09 135.069C390.831 135.282 390.701 135.694 390.701 136.306V138.667H392.771V139.917H390.743V147H389.243ZM397.916 147.167C397.111 147.167 396.375 146.972 395.708 146.583C395.041 146.194 394.509 145.671 394.111 145.014C393.722 144.356 393.527 143.63 393.527 142.833C393.527 142.028 393.722 141.301 394.111 140.653C394.509 139.995 395.041 139.472 395.708 139.083C396.375 138.694 397.111 138.5 397.916 138.5C398.731 138.5 399.467 138.694 400.125 139.083C400.791 139.472 401.319 139.995 401.708 140.653C402.106 141.301 402.305 142.028 402.305 142.833C402.305 143.63 402.106 144.356 401.708 145.014C401.319 145.671 400.791 146.194 400.125 146.583C399.467 146.972 398.731 147.167 397.916 147.167ZM397.916 145.75C398.453 145.75 398.939 145.62 399.375 145.361C399.81 145.093 400.157 144.741 400.416 144.306C400.675 143.861 400.805 143.37 400.805 142.833C400.805 142.296 400.675 141.81 400.416 141.375C400.157 140.931 399.81 140.579 399.375 140.319C398.939 140.051 398.453 139.917 397.916 139.917C397.379 139.917 396.893 140.051 396.458 140.319C396.023 140.579 395.675 140.931 395.416 141.375C395.157 141.81 395.027 142.296 395.027 142.833C395.027 143.37 395.157 143.861 395.416 144.306C395.675 144.741 396.023 145.093 396.458 145.361C396.893 145.62 397.379 145.75 397.916 145.75ZM404.384 147V138.667H405.773V140.194C406.069 139.704 406.463 139.315 406.954 139.028C407.444 138.731 408.028 138.583 408.704 138.583L409.079 140.083C408.903 140.028 408.699 140 408.467 140C407.69 140 407.065 140.25 406.592 140.75C406.12 141.241 405.884 141.944 405.884 142.861V147H404.384ZM211.167 174.167C210.352 174.167 209.611 173.972 208.944 173.583C208.278 173.194 207.745 172.671 207.347 172.014C206.949 171.356 206.75 170.63 206.75 169.833C206.75 169.037 206.949 168.31 207.347 167.653C207.745 166.995 208.278 166.472 208.944 166.083C209.611 165.694 210.352 165.5 211.167 165.5C211.769 165.5 212.333 165.606 212.861 165.819C213.389 166.032 213.852 166.315 214.25 166.667L213.792 168.556C213.56 168.093 213.208 167.704 212.736 167.389C212.273 167.074 211.745 166.917 211.153 166.917C210.616 166.917 210.125 167.051 209.681 167.319C209.245 167.579 208.898 167.931 208.639 168.375C208.38 168.81 208.25 169.296 208.25 169.833C208.25 170.361 208.38 170.847 208.639 171.292C208.898 171.736 209.245 172.093 209.681 172.361C210.125 172.62 210.616 172.75 211.153 172.75C211.745 172.75 212.273 172.597 212.736 172.292C213.208 171.986 213.56 171.593 213.792 171.111L214.25 173C213.852 173.352 213.389 173.634 212.861 173.847C212.333 174.06 211.769 174.167 211.167 174.167ZM219.653 174.111C218.894 174.111 218.199 173.921 217.569 173.542C216.94 173.153 216.435 172.634 216.056 171.986C215.685 171.338 215.5 170.62 215.5 169.833C215.5 169.046 215.685 168.329 216.056 167.681C216.435 167.032 216.94 166.519 217.569 166.139C218.199 165.75 218.894 165.556 219.653 165.556C220.227 165.556 220.764 165.662 221.264 165.875C221.773 166.088 222.213 166.384 222.583 166.764V165.667H223.972V174H222.583V172.903C222.213 173.273 221.773 173.569 221.264 173.792C220.764 174.005 220.227 174.111 219.653 174.111ZM219.847 172.75C220.375 172.75 220.852 172.62 221.278 172.361C221.713 172.093 222.056 171.741 222.306 171.306C222.565 170.861 222.694 170.37 222.694 169.833C222.694 169.296 222.565 168.81 222.306 168.375C222.056 167.931 221.713 167.579 221.278 167.319C220.852 167.051 220.375 166.917 219.847 166.917C219.319 166.917 218.838 167.051 218.403 167.319C217.977 167.579 217.634 167.931 217.375 168.375C217.125 168.81 217 169.296 217 169.833C217 170.37 217.125 170.861 217.375 171.306C217.634 171.741 217.977 172.093 218.403 172.361C218.838 172.62 219.319 172.75 219.847 172.75ZM226.63 174V165.667H228.019V167.014C228.325 166.523 228.718 166.148 229.2 165.889C229.69 165.63 230.218 165.5 230.783 165.5C231.376 165.5 231.922 165.648 232.422 165.944C232.931 166.231 233.343 166.653 233.658 167.208C233.973 167.755 234.13 168.421 234.13 169.208V174H232.63V169.417C232.63 168.759 232.431 168.181 232.033 167.681C231.644 167.171 231.093 166.917 230.38 166.917C229.797 166.917 229.274 167.13 228.811 167.556C228.357 167.972 228.13 168.579 228.13 169.375V174H226.63ZM240.464 174.167C239.649 174.167 238.908 173.972 238.241 173.583C237.575 173.194 237.042 172.671 236.644 172.014C236.246 171.356 236.047 170.63 236.047 169.833C236.047 169.037 236.246 168.31 236.644 167.653C237.042 166.995 237.575 166.472 238.241 166.083C238.908 165.694 239.649 165.5 240.464 165.5C241.065 165.5 241.63 165.606 242.158 165.819C242.686 166.032 243.149 166.315 243.547 166.667L243.089 168.556C242.857 168.093 242.505 167.704 242.033 167.389C241.57 167.074 241.042 166.917 240.45 166.917C239.913 166.917 239.422 167.051 238.977 167.319C238.542 167.579 238.195 167.931 237.936 168.375C237.677 168.81 237.547 169.296 237.547 169.833C237.547 170.361 237.677 170.847 237.936 171.292C238.195 171.736 238.542 172.093 238.977 172.361C239.422 172.62 239.913 172.75 240.45 172.75C241.042 172.75 241.57 172.597 242.033 172.292C242.505 171.986 242.857 171.593 243.089 171.111L243.547 173C243.149 173.352 242.686 173.634 242.158 173.847C241.63 174.06 241.065 174.167 240.464 174.167ZM249.352 174.167C248.482 174.167 247.7 173.972 247.005 173.583C246.32 173.194 245.778 172.667 245.38 172C244.991 171.324 244.797 170.574 244.797 169.75C244.797 168.963 244.987 168.25 245.366 167.611C245.746 166.963 246.255 166.449 246.894 166.069C247.542 165.69 248.255 165.5 249.033 165.5C249.802 165.5 250.505 165.685 251.144 166.056C251.783 166.417 252.292 166.907 252.672 167.528C253.052 168.148 253.241 168.852 253.241 169.639V170.25H247.797C247.556 170.25 247.311 170.241 247.061 170.222C246.811 170.204 246.565 170.176 246.325 170.139C246.427 170.88 246.76 171.5 247.325 172C247.899 172.5 248.579 172.75 249.366 172.75C249.894 172.75 250.385 172.63 250.839 172.389C251.292 172.148 251.658 171.829 251.936 171.431L252.352 173.139C251.954 173.463 251.496 173.718 250.977 173.903C250.468 174.079 249.927 174.167 249.352 174.167ZM246.283 169.125C246.783 169.042 247.288 169 247.797 169H250.561C250.764 169 250.964 169.009 251.158 169.028C251.362 169.037 251.565 169.051 251.769 169.069C251.639 168.421 251.315 167.889 250.797 167.472C250.278 167.046 249.69 166.833 249.033 166.833C248.357 166.833 247.764 167.06 247.255 167.514C246.746 167.958 246.422 168.495 246.283 169.125ZM255.243 174V165.667H256.632V167.194C256.929 166.704 257.322 166.315 257.813 166.028C258.304 165.731 258.887 165.583 259.563 165.583L259.938 167.083C259.762 167.028 259.558 167 259.327 167C258.549 167 257.924 167.25 257.452 167.75C256.98 168.241 256.743 168.944 256.743 169.861V174H255.243ZM265.654 174V165.667H267.043V167.014C267.348 166.523 267.742 166.148 268.223 165.889C268.714 165.63 269.242 165.5 269.806 165.5C270.399 165.5 270.945 165.648 271.445 165.944C271.955 166.231 272.367 166.653 272.681 167.208C272.996 167.755 273.154 168.421 273.154 169.208V174H271.654V169.417C271.654 168.759 271.455 168.181 271.056 167.681C270.668 167.171 270.117 166.917 269.404 166.917C268.82 166.917 268.297 167.13 267.834 167.556C267.38 167.972 267.154 168.579 267.154 169.375V174H265.654ZM279.223 174.111C278.464 174.111 277.769 173.921 277.14 173.542C276.51 173.153 276.005 172.634 275.626 171.986C275.255 171.338 275.07 170.62 275.07 169.833C275.07 169.046 275.255 168.329 275.626 167.681C276.005 167.032 276.51 166.519 277.14 166.139C277.769 165.75 278.464 165.556 279.223 165.556C279.797 165.556 280.334 165.662 280.834 165.875C281.343 166.088 281.783 166.384 282.154 166.764V165.667H283.543V174H282.154V172.903C281.783 173.273 281.343 173.569 280.834 173.792C280.334 174.005 279.797 174.111 279.223 174.111ZM279.418 172.75C279.945 172.75 280.422 172.62 280.848 172.361C281.283 172.093 281.626 171.741 281.876 171.306C282.135 170.861 282.265 170.37 282.265 169.833C282.265 169.296 282.135 168.81 281.876 168.375C281.626 167.931 281.283 167.579 280.848 167.319C280.422 167.051 279.945 166.917 279.418 166.917C278.89 166.917 278.408 167.051 277.973 167.319C277.547 167.579 277.205 167.931 276.945 168.375C276.695 168.81 276.57 169.296 276.57 169.833C276.57 170.37 276.695 170.861 276.945 171.306C277.205 171.741 277.547 172.093 277.973 172.361C278.408 172.62 278.89 172.75 279.418 172.75ZM286.201 174V165.667H287.589V166.861C287.895 166.407 288.279 166.069 288.742 165.847C289.214 165.616 289.71 165.5 290.228 165.5C290.793 165.5 291.312 165.634 291.784 165.903C292.256 166.162 292.636 166.528 292.923 167C293.247 166.5 293.663 166.125 294.173 165.875C294.691 165.625 295.238 165.5 295.812 165.5C296.441 165.5 297.015 165.648 297.534 165.944C298.062 166.241 298.478 166.657 298.784 167.194C299.099 167.722 299.256 168.347 299.256 169.069V174H297.756V169.25C297.756 168.491 297.538 167.917 297.103 167.528C296.677 167.13 296.182 166.931 295.617 166.931C295.265 166.931 294.923 167.009 294.589 167.167C294.265 167.324 293.997 167.569 293.784 167.903C293.58 168.236 293.478 168.671 293.478 169.208V174H291.978V169.25C291.978 168.722 291.872 168.287 291.659 167.944C291.455 167.602 291.187 167.347 290.853 167.181C290.529 167.005 290.191 166.917 289.839 166.917C289.497 166.917 289.159 166.995 288.826 167.153C288.501 167.31 288.233 167.556 288.02 167.889C287.807 168.222 287.701 168.662 287.701 169.208V174H286.201ZM305.72 174.167C304.849 174.167 304.067 173.972 303.372 173.583C302.687 173.194 302.146 172.667 301.747 172C301.359 171.324 301.164 170.574 301.164 169.75C301.164 168.963 301.354 168.25 301.734 167.611C302.113 166.963 302.622 166.449 303.261 166.069C303.909 165.69 304.622 165.5 305.4 165.5C306.169 165.5 306.872 165.685 307.511 166.056C308.15 166.417 308.659 166.907 309.039 167.528C309.419 168.148 309.609 168.852 309.609 169.639V170.25H304.164C303.923 170.25 303.678 170.241 303.428 170.222C303.178 170.204 302.933 170.176 302.692 170.139C302.794 170.88 303.127 171.5 303.692 172C304.266 172.5 304.946 172.75 305.734 172.75C306.261 172.75 306.752 172.63 307.206 172.389C307.659 172.148 308.025 171.829 308.303 171.431L308.72 173.139C308.321 173.463 307.863 173.718 307.345 173.903C306.835 174.079 306.294 174.167 305.72 174.167ZM302.65 169.125C303.15 169.042 303.655 169 304.164 169H306.928C307.132 169 307.331 169.009 307.525 169.028C307.729 169.037 307.933 169.051 308.136 169.069C308.007 168.421 307.683 167.889 307.164 167.472C306.646 167.046 306.058 166.833 305.4 166.833C304.724 166.833 304.132 167.06 303.622 167.514C303.113 167.958 302.789 168.495 302.65 169.125ZM313.763 174.167C313.338 174.167 312.879 174.088 312.388 173.931C311.907 173.764 311.49 173.491 311.138 173.111L311.555 171.472C311.814 171.907 312.148 172.255 312.555 172.514C312.963 172.764 313.398 172.889 313.861 172.889C314.305 172.889 314.638 172.782 314.861 172.569C315.083 172.347 315.194 172.079 315.194 171.764C315.194 171.403 315.074 171.139 314.833 170.972C314.601 170.806 314.393 170.69 314.208 170.625L313.083 170.194C312.879 170.111 312.634 169.991 312.347 169.833C312.06 169.667 311.81 169.431 311.597 169.125C311.384 168.819 311.277 168.421 311.277 167.931C311.277 167.486 311.384 167.079 311.597 166.708C311.81 166.338 312.111 166.046 312.5 165.833C312.888 165.611 313.347 165.5 313.875 165.5C314.291 165.5 314.726 165.574 315.18 165.722C315.634 165.87 316.018 166.12 316.333 166.472L315.916 168.111C315.694 167.704 315.393 167.38 315.013 167.139C314.634 166.898 314.24 166.778 313.833 166.778C313.453 166.778 313.152 166.884 312.93 167.097C312.717 167.31 312.611 167.556 312.611 167.833C312.611 168.056 312.685 168.255 312.833 168.431C312.981 168.606 313.203 168.75 313.5 168.861L314.625 169.292C314.828 169.366 315.078 169.486 315.375 169.653C315.68 169.819 315.949 170.06 316.18 170.375C316.412 170.69 316.527 171.116 316.527 171.653C316.527 172.403 316.263 173.009 315.736 173.472C315.217 173.935 314.56 174.167 313.763 174.167Z" fill="#2E941F"/>
<defs>
<filter id="filter0_d_46_903" x="39.1" y="351.1" width="357.8" height="417.8" filterUnits="userSpaceOnUse" color-interpolation-filters="sRGB">
<feFlood flood-opacity="0" result="BackgroundImageFix"/>
<feColorMatrix in="SourceAlpha" type="matrix" values="0 0 0 0 0 0 0 0 0 0 0 0 0 0 0 0 0 0 127 0" result="hardAlpha"/>
<feOffset/>
<feGaussianBlur stdDeviation="6.95"/>
<feComposite in2="hardAlpha" operator="out"/>
<feColorMatrix type="matrix" values="0 0 0 0 1 0 0 0 0 0 0 0 0 0 0 0 0 0 0.5 0"/>
<feBlend mode="normal" in2="BackgroundImageFix" result="effect1_dropShadow_46_903"/>
<feBlend mode="normal" in="SourceGraphic" in2="effect1_dropShadow_46_903" result="shape"/>
</filter>
</defs>
</svg>
