<svg width="53" height="53" viewBox="0 0 53 53" fill="none" xmlns="http://www.w3.org/2000/svg">
<path d="M26.5 26.4993C22.8792 26.4993 19.7795 25.2101 17.2011 22.6316C14.6226 20.0532 13.3334 16.9535 13.3334 13.3327C13.3334 9.71185 14.6226 6.6122 17.2011 4.03372C19.7795 1.45525 22.8792 0.166016 26.5 0.166016C30.1209 0.166016 33.2205 1.45525 35.799 4.03372C38.3774 6.6122 39.6667 9.71185 39.6667 13.3327C39.6667 16.9535 38.3774 20.0532 35.799 22.6316C33.2205 25.2101 30.1209 26.4993 26.5 26.4993ZM0.166687 52.8327V43.616C0.166687 41.7507 0.647271 40.0369 1.60844 38.4744C2.5696 36.912 3.84458 35.7182 5.43335 34.8931C8.83474 33.1924 12.291 31.9174 15.8021 31.0682C19.3132 30.2189 22.8792 29.7932 26.5 29.791C30.1209 29.7888 33.6868 30.2145 37.1979 31.0682C40.709 31.9218 44.1653 33.1968 47.5667 34.8931C49.1577 35.716 50.4337 36.9098 51.3949 38.4744C52.3561 40.0391 52.8355 41.7529 52.8334 43.616V52.8327H0.166687Z" fill="black"/>
</svg>
