<svg width="70" height="98" viewBox="0 0 70 98" fill="none" xmlns="http://www.w3.org/2000/svg">
<path d="M35 21.4375C33.1396 21.4375 31.321 20.8089 29.7742 19.6311C28.2273 18.4533 27.0217 16.7792 26.3098 14.8206C25.5978 12.862 25.4116 10.7069 25.7745 8.62763C26.1375 6.5484 27.0333 4.6385 28.3488 3.13945C29.6643 1.64041 31.3403 0.619548 33.165 0.205963C34.9896 -0.207623 36.8809 0.00464433 38.5996 0.815921C40.3184 1.6272 41.7875 3.00105 42.821 4.76374C43.8546 6.52643 44.4063 8.59879 44.4063 10.7188C44.4036 13.5606 43.4117 16.2852 41.6483 18.2947C39.8849 20.3042 37.4939 21.4345 35 21.4375Z" fill="black"/>
<path d="M64.5625 21.5906L64.4869 21.6136L64.4164 21.6385C64.2484 21.6921 64.0805 21.7495 63.9125 21.8088C60.7866 22.8539 45.6157 27.7271 34.9278 27.7271C24.9958 27.7271 11.1972 23.5162 6.78296 22.0864C6.34362 21.8929 5.89498 21.728 5.43921 21.5925C2.2478 20.6355 0.064209 24.3297 0.064209 27.7061C0.064209 31.0499 2.70132 32.6424 5.36362 33.7851V33.8387L21.3576 39.5311C22.9919 40.2451 23.4287 40.9743 23.642 41.606C24.3357 43.633 23.7814 47.6468 23.5849 49.0479L22.6107 57.6611L17.2037 91.385C17.1869 91.4769 17.1718 91.5707 17.1584 91.6664L17.1198 91.9095C16.7301 95.0007 18.7222 98 22.4948 98C25.7869 98 27.2399 95.4103 27.8698 91.8865C28.4996 88.3627 32.5729 61.7266 34.9244 61.7266C37.276 61.7266 42.1202 91.8865 42.1202 91.8865C42.7501 95.4103 44.203 98 47.4952 98C51.2779 98 53.27 94.9873 52.8702 91.8865C52.8359 91.6258 52.7933 91.3666 52.7426 91.1094L47.2617 57.665L46.2892 49.0517C45.5854 44.0349 46.1515 42.3773 46.343 41.9888C46.3481 41.9797 46.3526 41.9701 46.3564 41.9601C46.5378 41.5773 47.3642 40.7198 49.2925 39.8948L64.2887 33.921C64.3808 33.893 64.4717 33.8598 64.5608 33.8215C67.2483 32.6731 69.9358 31.0844 69.9358 27.7099C69.9358 24.3354 67.7539 20.6355 64.5625 21.5906Z" fill="black"/>
</svg>
