<svg width="46" height="46" viewBox="0 0 46 46" fill="none" xmlns="http://www.w3.org/2000/svg">
<path d="M5 14H0.5V41C0.5 42.1935 0.974106 43.3381 1.81802 44.182C2.66193 45.0259 3.80653 45.5 5 45.5H32V41H5V14Z" fill="black"/>
<path d="M41 0.5H14C12.8065 0.5 11.6619 0.974106 10.818 1.81802C9.97411 2.66193 9.5 3.80653 9.5 5V32C9.5 33.1935 9.97411 34.3381 10.818 35.182C11.6619 36.0259 12.8065 36.5 14 36.5H41C42.1935 36.5 43.3381 36.0259 44.182 35.182C45.0259 34.3381 45.5 33.1935 45.5 32V5C45.5 3.80653 45.0259 2.66193 44.182 1.81802C43.3381 0.974106 42.1935 0.5 41 0.5ZM20.75 27.5V9.5L36.5 18.5L20.75 27.5Z" fill="black"/>
</svg>
