<svg width="54" height="54" viewBox="0 0 54 54" fill="none" xmlns="http://www.w3.org/2000/svg">
<path d="M27 30.734L34.7333 38.4673C35.2222 38.9562 35.8444 39.2006 36.6 39.2006C37.3555 39.2006 37.9778 38.9562 38.4666 38.4673C38.9555 37.9784 39.2 37.3562 39.2 36.6007C39.2 35.8451 38.9555 35.2229 38.4666 34.734L30.7333 27.0006L38.4666 19.2673C38.9555 18.7784 39.2 18.1562 39.2 17.4006C39.2 16.6451 38.9555 16.0229 38.4666 15.534C37.9778 15.0451 37.3555 14.8007 36.6 14.8007C35.8444 14.8007 35.2222 15.0451 34.7333 15.534L27 23.2673L19.2667 15.534C18.7778 15.0451 18.1555 14.8007 17.4 14.8007C16.6444 14.8007 16.0222 15.0451 15.5333 15.534C15.0444 16.0229 14.8 16.6451 14.8 17.4006C14.8 18.1562 15.0444 18.7784 15.5333 19.2673L23.2667 27.0006L15.5333 34.734C15.0444 35.2229 14.8 35.8451 14.8 36.6007C14.8 37.3562 15.0444 37.9784 15.5333 38.4673C16.0222 38.9562 16.6444 39.2006 17.4 39.2006C18.1555 39.2006 18.7778 38.9562 19.2667 38.4673L27 30.734ZM27 53.6673C23.3111 53.6673 19.8444 52.9669 16.6 51.566C13.3555 50.1651 10.5333 48.2655 8.13332 45.8673C5.73332 43.4691 3.83376 40.6469 2.43465 37.4006C1.03554 34.1544 0.335094 30.6878 0.333316 27.0006C0.331539 23.3135 1.03198 19.8469 2.43465 16.6007C3.83732 13.3544 5.73687 10.5322 8.13332 8.13398C10.5298 5.73576 13.352 3.83621 16.6 2.43532C19.848 1.03443 23.3146 0.333984 27 0.333984C30.6853 0.333984 34.152 1.03443 37.4 2.43532C40.648 3.83621 43.4702 5.73576 45.8667 8.13398C48.2631 10.5322 50.1635 13.3544 51.568 16.6007C52.9724 19.8469 53.672 23.3135 53.6667 27.0006C53.6613 30.6878 52.9609 34.1544 51.5653 37.4006C50.1698 40.6469 48.2702 43.4691 45.8667 45.8673C43.4631 48.2655 40.6409 50.166 37.4 51.5686C34.1591 52.9713 30.6924 53.6709 27 53.6673ZM27 48.334C32.9555 48.334 38 46.2673 42.1333 42.134C46.2666 38.0006 48.3333 32.9562 48.3333 27.0006C48.3333 21.0451 46.2666 16.0006 42.1333 11.8673C38 7.73398 32.9555 5.66732 27 5.66732C21.0444 5.66732 16 7.73398 11.8666 11.8673C7.73332 16.0006 5.66665 21.0451 5.66665 27.0006C5.66665 32.9562 7.73332 38.0006 11.8666 42.134C16 46.2673 21.0444 48.334 27 48.334Z" fill="black"/>
</svg>
