<?xml version="1.0" encoding="UTF-8" standalone="no"?>
<!DOCTYPE svg PUBLIC "-//W3C//DTD SVG 1.1//EN" "http://www.w3.org/Graphics/SVG/1.1/DTD/svg11.dtd">
<svg xmlns="http://www.w3.org/2000/svg" version="1.1" viewBox="0.00 0.00 200.00 200.00">
<g stroke-width="2.00" fill="none" stroke-linecap="butt">
<path stroke="#c1e5e3" vector-effect="non-scaling-stroke" d="
  M 172.18 154.74
  A 0.62 0.62 0.0 0 0 172.65 154.14
  L 172.65 41.42
  A 0.62 0.62 0.0 0 0 172.18 40.82
  L 148.37 34.75
  A 0.62 0.62 0.0 0 0 147.60 35.35
  L 147.60 160.21
  A 0.62 0.62 0.0 0 0 148.37 160.81
  L 172.18 154.74"
/>
<path stroke="#98abd2" vector-effect="non-scaling-stroke" d="
  M 28.00 41.31
  A 0.52 0.52 0.0 0 0 27.35 41.81
  L 27.35 153.67
  A 0.52 0.52 0.0 0 0 28.00 154.17
  L 52.02 148.06
  A 0.52 0.52 0.0 0 0 52.41 147.56
  L 52.41 47.94
  A 0.52 0.52 0.0 0 0 52.02 47.44
  L 28.00 41.31"
/>
<path stroke="#96dbe0" vector-effect="non-scaling-stroke" d="
  M 108.47 81.09
  A 0.69 0.69 0.0 0 0 107.95 81.76
  L 107.95 134.63
  A 0.69 0.69 0.0 0 0 108.47 135.30
  L 132.27 141.38
  A 0.69 0.69 0.0 0 0 133.13 140.71
  L 133.13 75.70
  A 0.69 0.69 0.0 0 0 132.27 75.03
  L 108.47 81.09"
/>
<path stroke="#a4bfe0" vector-effect="non-scaling-stroke" d="
  M 67.30 91.17
  A 0.35 0.35 0.0 0 0 66.86 91.51
  L 66.86 157.33
  A 0.35 0.35 0.0 0 0 67.30 157.67
  L 91.57 151.48
  A 0.35 0.35 0.0 0 0 91.83 151.14
  L 91.83 97.70
  A 0.35 0.35 0.0 0 0 91.57 97.36
  L 67.30 91.17"
/>
</g>
<path fill="#ffffff" d="
  M 200.00 0.00
  L 200.00 200.00
  L 0.00 200.00
  L 0.00 0.00
  L 200.00 0.00
  Z
  M 172.18 154.74
  A 0.62 0.62 0.0 0 0 172.65 154.14
  L 172.65 41.42
  A 0.62 0.62 0.0 0 0 172.18 40.82
  L 148.37 34.75
  A 0.62 0.62 0.0 0 0 147.60 35.35
  L 147.60 160.21
  A 0.62 0.62 0.0 0 0 148.37 160.81
  L 172.18 154.74
  Z
  M 28.00 41.31
  A 0.52 0.52 0.0 0 0 27.35 41.81
  L 27.35 153.67
  A 0.52 0.52 0.0 0 0 28.00 154.17
  L 52.02 148.06
  A 0.52 0.52 0.0 0 0 52.41 147.56
  L 52.41 47.94
  A 0.52 0.52 0.0 0 0 52.02 47.44
  L 28.00 41.31
  Z
  M 108.47 81.09
  A 0.69 0.69 0.0 0 0 107.95 81.76
  L 107.95 134.63
  A 0.69 0.69 0.0 0 0 108.47 135.30
  L 132.27 141.38
  A 0.69 0.69 0.0 0 0 133.13 140.71
  L 133.13 75.70
  A 0.69 0.69 0.0 0 0 132.27 75.03
  L 108.47 81.09
  Z
  M 67.30 91.17
  A 0.35 0.35 0.0 0 0 66.86 91.51
  L 66.86 157.33
  A 0.35 0.35 0.0 0 0 67.30 157.67
  L 91.57 151.48
  A 0.35 0.35 0.0 0 0 91.83 151.14
  L 91.83 97.70
  A 0.35 0.35 0.0 0 0 91.57 97.36
  L 67.30 91.17
  Z"
/>
<path fill="#82cac7" d="
  M 172.18 154.74
  L 148.37 160.81
  A 0.62 0.62 0.0 0 1 147.60 160.21
  L 147.60 35.35
  A 0.62 0.62 0.0 0 1 148.37 34.75
  L 172.18 40.82
  A 0.62 0.62 0.0 0 1 172.65 41.42
  L 172.65 154.14
  A 0.62 0.62 0.0 0 1 172.18 154.74
  Z"
/>
<path fill="#3156a4" d="
  M 28.00 41.31
  L 52.02 47.44
  A 0.52 0.52 0.0 0 1 52.41 47.94
  L 52.41 147.56
  A 0.52 0.52 0.0 0 1 52.02 148.06
  L 28.00 154.17
  A 0.52 0.52 0.0 0 1 27.35 153.67
  L 27.35 41.81
  A 0.52 0.52 0.0 0 1 28.00 41.31
  Z"
/>
<path fill="#2db7c1" d="
  M 108.47 81.09
  L 132.27 75.03
  A 0.69 0.69 0.0 0 1 133.13 75.70
  L 133.13 140.71
  A 0.69 0.69 0.0 0 1 132.27 141.38
  L 108.47 135.30
  A 0.69 0.69 0.0 0 1 107.95 134.63
  L 107.95 81.76
  A 0.69 0.69 0.0 0 1 108.47 81.09
  Z"
/>
<path fill="#487fc0" d="
  M 67.30 91.17
  L 91.57 97.36
  A 0.35 0.35 0.0 0 1 91.83 97.70
  L 91.83 151.14
  A 0.35 0.35 0.0 0 1 91.57 151.48
  L 67.30 157.67
  A 0.35 0.35 0.0 0 1 66.86 157.33
  L 66.86 91.51
  A 0.35 0.35 0.0 0 1 67.30 91.17
  Z"
/>
</svg>
