<?xml version="1.0" encoding="UTF-8" standalone="no"?>
<!DOCTYPE svg PUBLIC "-//W3C//DTD SVG 1.1//EN" "http://www.w3.org/Graphics/SVG/1.1/DTD/svg11.dtd">
<svg xmlns="http://www.w3.org/2000/svg" version="1.1" viewBox="0.00 0.00 200.00 200.00">
<g stroke-width="2.00" fill="none" stroke-linecap="butt">
<path stroke="#8a8a8a" vector-effect="non-scaling-stroke" d="
  M 64.45 50.02
  A 1.00 1.00 0.0 0 0 63.61 50.47
  L 50.38 70.79
  A 1.00 1.00 0.0 0 0 51.76 72.17
  L 72.09 58.96
  A 1.00 1.00 0.0 0 0 72.54 58.12
  L 72.54 51.02
  A 1.00 1.00 0.0 0 0 71.54 50.02
  L 64.45 50.02"
/>
<path stroke="#8a8a8a" vector-effect="non-scaling-stroke" d="
  M 50.37 98.07
  Q 51.03 98.73 52.22 97.72
  Q 82.73 71.87 97.70 59.28
  A 1.91 1.88 71.6 0 0 98.37 57.92
  Q 98.51 54.75 98.38 51.33
  Q 98.35 50.66 98.07 50.38
  Q 97.79 50.09 97.12 50.07
  Q 93.70 49.93 90.53 50.07
  A 1.91 1.88 18.4 0 0 89.16 50.74
  Q 76.57 65.71 50.72 96.22
  Q 49.71 97.41 50.37 98.07"
/>
<path stroke="#8a8a8a" vector-effect="non-scaling-stroke" d="
  M 50.32 123.96
  Q 51.01 124.65 52.06 123.71
  Q 112.04 69.68 123.66 59.22
  A 1.77 1.75 -19.5 0 0 124.25 58.00
  Q 124.47 54.55 124.22 50.83
  Q 124.21 50.66 123.95 50.41
  Q 123.67 50.13 123.50 50.11
  Q 119.78 49.87 116.33 50.09
  A 1.77 1.75 -70.5 0 0 115.11 50.67
  Q 104.65 62.29 50.62 122.27
  Q 49.68 123.31 50.32 123.96"
/>
<path stroke="#8a8a8a" vector-effect="non-scaling-stroke" d="
  M 50.30 149.92
  Q 50.99 150.60 51.97 149.70
  Q 97.62 107.33 149.67 59.15
  A 1.46 1.45 70.2 0 0 150.13 58.16
  Q 150.33 54.61 150.09 50.73
  Q 150.08 50.58 149.86 50.35
  Q 149.63 50.12 149.48 50.11
  Q 145.60 49.88 142.05 50.08
  A 1.46 1.45 19.8 0 0 141.06 50.54
  Q 92.88 102.59 50.52 148.25
  Q 49.62 149.23 50.30 149.92"
/>
<path stroke="#8a8a8a" vector-effect="non-scaling-stroke" d="
  M 76.15 149.89
  Q 76.85 150.58 77.89 149.64
  Q 137.92 95.57 149.54 85.11
  A 1.77 1.76 -19.5 0 0 150.13 83.89
  Q 150.35 80.43 150.10 76.71
  Q 150.09 76.54 149.84 76.29
  Q 149.55 76.01 149.38 75.99
  Q 145.67 75.75 142.21 75.96
  A 1.77 1.76 -70.5 0 0 140.99 76.55
  Q 130.52 88.17 76.45 148.20
  Q 75.51 149.24 76.15 149.89"
/>
<path stroke="#8a8a8a" vector-effect="non-scaling-stroke" d="
  M 102.13 149.86
  Q 102.79 150.52 103.98 149.51
  Q 134.50 123.63 149.47 111.03
  A 1.91 1.88 71.6 0 0 150.14 109.67
  Q 150.28 106.50 150.15 103.08
  Q 150.12 102.41 149.84 102.13
  Q 149.56 101.84 148.88 101.82
  Q 145.46 101.68 142.29 101.83
  A 1.91 1.88 18.4 0 0 140.93 102.50
  Q 128.34 117.48 102.48 148.00
  Q 101.47 149.20 102.13 149.86"
/>
<path stroke="#8a8a8a" vector-effect="non-scaling-stroke" d="
  M 150.20 128.66
  A 1.00 1.00 0.0 0 0 149.20 127.66
  L 142.10 127.66
  A 1.00 1.00 0.0 0 0 141.26 128.11
  L 128.03 148.44
  A 1.00 1.00 0.0 0 0 129.41 149.82
  L 149.75 136.60
  A 1.00 1.00 0.0 0 0 150.20 135.76
  L 150.20 128.66"
/>
</g>
<path fill="#fafafa" d="
  M 200.00 0.00
  L 200.00 200.00
  L 0.00 200.00
  L 0.00 0.00
  L 200.00 0.00
  Z
  M 64.45 50.02
  A 1.00 1.00 0.0 0 0 63.61 50.47
  L 50.38 70.79
  A 1.00 1.00 0.0 0 0 51.76 72.17
  L 72.09 58.96
  A 1.00 1.00 0.0 0 0 72.54 58.12
  L 72.54 51.02
  A 1.00 1.00 0.0 0 0 71.54 50.02
  L 64.45 50.02
  Z
  M 50.37 98.07
  Q 51.03 98.73 52.22 97.72
  Q 82.73 71.87 97.70 59.28
  A 1.91 1.88 71.6 0 0 98.37 57.92
  Q 98.51 54.75 98.38 51.33
  Q 98.35 50.66 98.07 50.38
  Q 97.79 50.09 97.12 50.07
  Q 93.70 49.93 90.53 50.07
  A 1.91 1.88 18.4 0 0 89.16 50.74
  Q 76.57 65.71 50.72 96.22
  Q 49.71 97.41 50.37 98.07
  Z
  M 50.32 123.96
  Q 51.01 124.65 52.06 123.71
  Q 112.04 69.68 123.66 59.22
  A 1.77 1.75 -19.5 0 0 124.25 58.00
  Q 124.47 54.55 124.22 50.83
  Q 124.21 50.66 123.95 50.41
  Q 123.67 50.13 123.50 50.11
  Q 119.78 49.87 116.33 50.09
  A 1.77 1.75 -70.5 0 0 115.11 50.67
  Q 104.65 62.29 50.62 122.27
  Q 49.68 123.31 50.32 123.96
  Z
  M 50.30 149.92
  Q 50.99 150.60 51.97 149.70
  Q 97.62 107.33 149.67 59.15
  A 1.46 1.45 70.2 0 0 150.13 58.16
  Q 150.33 54.61 150.09 50.73
  Q 150.08 50.58 149.86 50.35
  Q 149.63 50.12 149.48 50.11
  Q 145.60 49.88 142.05 50.08
  A 1.46 1.45 19.8 0 0 141.06 50.54
  Q 92.88 102.59 50.52 148.25
  Q 49.62 149.23 50.30 149.92
  Z
  M 76.15 149.89
  Q 76.85 150.58 77.89 149.64
  Q 137.92 95.57 149.54 85.11
  A 1.77 1.76 -19.5 0 0 150.13 83.89
  Q 150.35 80.43 150.10 76.71
  Q 150.09 76.54 149.84 76.29
  Q 149.55 76.01 149.38 75.99
  Q 145.67 75.75 142.21 75.96
  A 1.77 1.76 -70.5 0 0 140.99 76.55
  Q 130.52 88.17 76.45 148.20
  Q 75.51 149.24 76.15 149.89
  Z
  M 102.13 149.86
  Q 102.79 150.52 103.98 149.51
  Q 134.50 123.63 149.47 111.03
  A 1.91 1.88 71.6 0 0 150.14 109.67
  Q 150.28 106.50 150.15 103.08
  Q 150.12 102.41 149.84 102.13
  Q 149.56 101.84 148.88 101.82
  Q 145.46 101.68 142.29 101.83
  A 1.91 1.88 18.4 0 0 140.93 102.50
  Q 128.34 117.48 102.48 148.00
  Q 101.47 149.20 102.13 149.86
  Z
  M 150.20 128.66
  A 1.00 1.00 0.0 0 0 149.20 127.66
  L 142.10 127.66
  A 1.00 1.00 0.0 0 0 141.26 128.11
  L 128.03 148.44
  A 1.00 1.00 0.0 0 0 129.41 149.82
  L 149.75 136.60
  A 1.00 1.00 0.0 0 0 150.20 135.76
  L 150.20 128.66
  Z"
/>
<path fill="#1a1a1a" d="
  M 64.45 50.02
  L 71.54 50.02
  A 1.00 1.00 0.0 0 1 72.54 51.02
  L 72.54 58.12
  A 1.00 1.00 0.0 0 1 72.09 58.96
  L 51.76 72.17
  A 1.00 1.00 0.0 0 1 50.38 70.79
  L 63.61 50.47
  A 1.00 1.00 0.0 0 1 64.45 50.02
  Z"
/>
<path fill="#1a1a1a" d="
  M 98.07 50.38
  Q 98.35 50.66 98.38 51.33
  Q 98.51 54.75 98.37 57.92
  A 1.91 1.88 71.6 0 1 97.70 59.28
  Q 82.73 71.87 52.22 97.72
  Q 51.03 98.73 50.37 98.07
  Q 49.71 97.41 50.72 96.22
  Q 76.57 65.71 89.16 50.74
  A 1.91 1.88 18.4 0 1 90.53 50.07
  Q 93.70 49.93 97.12 50.07
  Q 97.79 50.09 98.07 50.38
  Z"
/>
<path fill="#1a1a1a" d="
  M 50.32 123.96
  Q 49.68 123.31 50.62 122.27
  Q 104.65 62.29 115.11 50.67
  A 1.77 1.75 -70.5 0 1 116.33 50.09
  Q 119.78 49.87 123.50 50.11
  Q 123.67 50.13 123.95 50.41
  Q 124.21 50.66 124.22 50.83
  Q 124.47 54.55 124.25 58.00
  A 1.77 1.75 -19.5 0 1 123.66 59.22
  Q 112.04 69.68 52.06 123.71
  Q 51.01 124.65 50.32 123.96
  Z"
/>
<path fill="#1a1a1a" d="
  M 149.86 50.35
  Q 150.08 50.58 150.09 50.73
  Q 150.33 54.61 150.13 58.16
  A 1.46 1.45 70.2 0 1 149.67 59.15
  Q 97.62 107.33 51.97 149.70
  Q 50.99 150.60 50.30 149.92
  Q 49.62 149.23 50.52 148.25
  Q 92.88 102.59 141.06 50.54
  A 1.46 1.45 19.8 0 1 142.05 50.08
  Q 145.60 49.88 149.48 50.11
  Q 149.63 50.12 149.86 50.35
  Z"
/>
<path fill="#1a1a1a" d="
  M 149.84 76.29
  Q 150.09 76.54 150.10 76.71
  Q 150.35 80.43 150.13 83.89
  A 1.77 1.76 -19.5 0 1 149.54 85.11
  Q 137.92 95.57 77.89 149.64
  Q 76.85 150.58 76.15 149.89
  Q 75.51 149.24 76.45 148.20
  Q 130.52 88.17 140.99 76.55
  A 1.77 1.76 -70.5 0 1 142.21 75.96
  Q 145.67 75.75 149.38 75.99
  Q 149.55 76.01 149.84 76.29
  Z"
/>
<path fill="#1a1a1a" d="
  M 102.13 149.86
  Q 101.47 149.20 102.48 148.00
  Q 128.34 117.48 140.93 102.50
  A 1.91 1.88 18.4 0 1 142.29 101.83
  Q 145.46 101.68 148.88 101.82
  Q 149.56 101.84 149.84 102.13
  Q 150.12 102.41 150.15 103.08
  Q 150.28 106.50 150.14 109.67
  A 1.91 1.88 71.6 0 1 149.47 111.03
  Q 134.50 123.63 103.98 149.51
  Q 102.79 150.52 102.13 149.86
  Z"
/>
<path fill="#1a1a1a" d="
  M 150.20 128.66
  L 150.20 135.76
  A 1.00 1.00 0.0 0 1 149.75 136.60
  L 129.41 149.82
  A 1.00 1.00 0.0 0 1 128.03 148.44
  L 141.26 128.11
  A 1.00 1.00 0.0 0 1 142.10 127.66
  L 149.20 127.66
  A 1.00 1.00 0.0 0 1 150.20 128.66
  Z"
/>
</svg>
