<?xml version="1.0" encoding="UTF-8" standalone="no"?>
<!DOCTYPE svg PUBLIC "-//W3C//DTD SVG 1.1//EN" "http://www.w3.org/Graphics/SVG/1.1/DTD/svg11.dtd">
<svg xmlns="http://www.w3.org/2000/svg" version="1.1" viewBox="0.00 0.00 1024.00 1024.00">
<g stroke-width="2.00" fill="none" stroke-linecap="butt">
<path stroke="#8fd8ef" vector-effect="non-scaling-stroke" d="
  M 219.65 269.63
  A 0.34 0.34 0.0 0 0 219.10 269.35
  C 209.18 277.27 194.58 288.22 191.32 301.05
  C 187.85 314.70 187.78 331.84 189.13 346.10
  A 0.35 0.35 0.0 0 0 189.77 346.27
  C 206.31 323.11 218.42 297.97 219.65 269.63"
/>
<path stroke="#8fd8ef" vector-effect="non-scaling-stroke" d="
  M 804.33 269.59
  C 805.56 297.96 817.68 323.12 834.24 346.31
  A 0.35 0.35 0.0 0 0 834.88 346.14
  C 836.23 331.86 836.16 314.70 832.69 301.04
  C 829.43 288.20 814.81 277.24 804.88 269.31
  A 0.34 0.34 0.0 0 0 804.33 269.59"
/>
<path stroke="#8fd8ef" vector-effect="non-scaling-stroke" d="
  M 159.50 384.27
  Q 168.17 366.77 172.64 347.66
  C 176.86 329.61 177.30 309.76 169.98 292.62
  A 0.87 0.86 -29.9 0 0 168.67 292.27
  C 163.10 296.43 160.92 301.56 157.92 308.73
  Q 152.41 321.93 152.77 337.01
  C 153.14 352.88 156.10 368.20 159.18 384.23
  A 0.17 0.17 0.0 0 0 159.50 384.27"
/>
<path stroke="#8fd8ef" vector-effect="non-scaling-stroke" d="
  M 864.51 384.29
  A 0.17 0.17 0.0 0 0 864.83 384.25
  C 867.91 368.22 870.87 352.90 871.24 337.03
  Q 871.59 321.95 866.08 308.75
  C 863.08 301.58 860.90 296.45 855.33 292.29
  A 0.87 0.86 29.9 0 0 854.02 292.64
  C 846.70 309.78 847.15 329.63 851.37 347.68
  Q 855.84 366.79 864.51 384.29"
/>
<path stroke="#8fd8ef" vector-effect="non-scaling-stroke" d="
  M 138.26 421.43
  A 0.38 0.38 0.0 0 0 138.87 421.36
  C 150.85 399.04 152.36 361.48 133.63 341.94
  A 0.37 0.37 0.0 0 0 133.01 342.08
  C 124.96 366.35 119.27 400.51 138.26 421.43"
/>
<path stroke="#8fd8ef" vector-effect="non-scaling-stroke" d="
  M 885.74 421.44
  C 904.76 400.49 899.06 366.29 891.00 342.00
  A 0.37 0.37 0.0 0 0 890.38 341.86
  C 871.63 361.42 873.14 399.02 885.13 421.37
  A 0.38 0.38 0.0 0 0 885.74 421.44"
/>
<path stroke="#8fd8ef" vector-effect="non-scaling-stroke" d="
  M 153.16 445.51
  A 0.47 0.47 0.0 0 0 153.99 445.71
  C 171.25 424.84 187.65 404.00 200.42 381.20
  C 205.08 372.87 212.70 356.75 208.16 347.37
  A 0.46 0.46 0.0 0 0 207.39 347.28
  C 188.39 369.71 170.12 391.39 158.25 416.25
  C 153.94 425.28 151.08 435.79 153.16 445.51"
/>
<path stroke="#8fd8ef" vector-effect="non-scaling-stroke" d="
  M 342.65 434.33
  Q 353.91 432.15 367.66 428.36
  C 370.50 427.57 371.92 426.47 371.94 423.49
  Q 372.06 401.12 372.00 376.92
  C 371.99 372.65 371.18 370.30 367.87 368.05
  Q 356.57 360.34 345.97 353.77
  C 331.12 344.57 316.34 345.01 301.48 354.26
  Q 286.63 363.51 280.44 367.79
  Q 275.92 370.92 275.93 376.24
  Q 276.03 420.39 275.96 590.19
  C 275.95 595.28 275.72 598.40 279.51 601.27
  Q 280.25 601.83 295.91 612.31
  Q 306.28 619.26 311.41 620.85
  Q 323.82 624.71 336.32 620.99
  Q 342.19 619.25 352.80 612.01
  Q 363.20 604.91 368.39 601.37
  Q 371.97 598.93 371.98 594.25
  Q 371.99 590.04 371.99 527.75
  Q 371.99 523.14 370.91 518.27
  C 369.43 511.53 361.32 508.89 355.40 507.26
  A 0.26 0.26 0.0 0 1 355.41 506.75
  L 382.00 500.27
  A 0.42 0.42 0.0 0 0 382.32 499.86
  L 382.32 491.01
  A 0.19 0.18 82.8 0 0 382.09 490.83
  L 324.68 504.83
  A 0.32 0.32 0.0 0 0 324.44 505.14
  L 324.44 514.87
  A 0.15 0.14 80.3 0 0 324.63 515.01
  Q 327.53 513.98 332.49 513.37
  Q 338.94 512.58 341.39 516.45
  Q 342.45 518.11 342.45 526.18
  Q 342.47 589.10 342.47 589.27
  Q 342.80 600.10 340.89 604.47
  Q 336.81 613.79 325.03 614.26
  C 312.81 614.75 305.55 607.69 305.55 595.52
  Q 305.50 375.17 305.57 373.25
  C 305.89 363.65 311.17 356.23 321.32 355.40
  Q 327.00 354.94 330.75 356.06
  C 338.26 358.30 342.38 365.59 342.41 373.25
  Q 342.50 398.48 342.43 434.14
  A 0.19 0.19 0.0 0 0 342.65 434.33"
/>
<path stroke="#8fd8ef" vector-effect="non-scaling-stroke" d="
  M 870.85 445.52
  C 872.93 435.80 870.07 425.28 865.75 416.25
  C 853.88 391.39 835.61 369.70 816.61 347.27
  A 0.46 0.46 0.0 0 0 815.83 347.36
  C 811.29 356.74 818.92 372.86 823.58 381.20
  C 836.35 404.00 852.75 424.84 870.02 445.72
  A 0.47 0.47 0.0 0 0 870.85 445.52"
/>
<path stroke="#8fd8ef" vector-effect="non-scaling-stroke" d="
  M 511.90 562.32
  Q 497.66 469.13 483.16 373.97
  C 481.05 360.08 476.97 349.59 460.97 348.72
  Q 452.40 348.25 440.45 348.53
  A 0.45 0.45 0.0 0 0 440.01 348.98
  L 440.01 619.99
  A 1.03 1.02 0.0 0 0 441.04 621.01
  L 448.84 621.01
  A 1.16 1.16 0.0 0 0 450.00 619.85
  L 450.00 373.87
  A 0.55 0.55 0.0 0 1 450.86 373.41
  Q 454.25 375.68 454.96 380.32
  Q 480.00 544.51 491.92 620.38
  A 0.81 0.79 -11.0 0 0 492.90 621.03
  Q 507.45 617.51 510.95 616.42
  C 514.58 615.29 514.81 611.97 515.19 609.48
  Q 518.33 588.66 542.65 421.49
  Q 546.00 398.47 547.88 383.52
  C 548.44 379.08 549.14 374.56 552.62 372.32
  A 0.54 0.54 0.0 0 1 553.45 372.77
  L 553.45 620.34
  A 0.64 0.64 0.0 0 0 554.23 620.96
  Q 568.96 617.60 577.98 615.00
  Q 580.75 614.20 582.10 611.95
  Q 583.02 610.41 583.02 606.87
  Q 582.99 488.15 583.01 348.80
  A 0.39 0.39 0.0 0 0 582.62 348.41
  Q 574.03 348.55 566.42 348.41
  Q 556.03 348.21 552.31 349.95
  C 544.20 353.74 541.87 362.39 540.54 371.01
  Q 531.45 429.45 526.55 463.21
  Q 526.14 466.03 512.16 562.32
  A 0.13 0.13 0.0 0 1 511.90 562.32"
/>
<path stroke="#8fd8ef" vector-effect="non-scaling-stroke" d="
  M 724.10 488.72
  C 732.32 486.67 741.75 483.44 744.87 474.90
  C 745.61 472.87 745.77 470.68 746.17 468.70
  A 7.49 7.29 -40.2 0 0 746.31 467.27
  Q 746.34 425.31 746.33 399.26
  C 746.32 394.22 745.82 388.11 745.28 383.24
  C 744.33 374.65 740.40 366.97 733.27 362.25
  Q 728.30 358.96 728.16 358.87
  Q 713.72 349.25 696.51 348.79
  Q 678.57 348.31 650.78 348.48
  A 0.32 0.32 0.0 0 0 650.46 348.80
  L 650.46 620.61
  A 0.35 0.35 0.0 0 0 650.81 620.96
  Q 672.11 621.15 697.73 620.90
  Q 710.63 620.78 721.93 614.91
  C 731.72 609.83 741.12 604.78 744.53 594.76
  Q 747.97 584.64 747.97 572.24
  Q 747.96 564.92 748.01 510.25
  C 748.01 506.17 747.46 500.70 744.65 497.85
  C 739.67 492.80 731.01 491.23 724.10 489.25
  A 0.28 0.27 45.7 0 1 724.10 488.72"
/>
<path stroke="#8fd8ef" vector-effect="non-scaling-stroke" d="
  M 128.93 527.29
  A 0.11 0.11 0.0 0 0 129.13 527.26
  Q 131.91 513.92 136.00 496.49
  Q 140.01 479.39 135.98 459.51
  Q 135.08 455.03 131.46 439.50
  A 0.25 0.25 0.0 0 0 131.01 439.41
  Q 112.56 464.63 117.71 495.64
  Q 120.55 512.75 128.93 527.29"
/>
<path stroke="#8fd8ef" vector-effect="non-scaling-stroke" d="
  M 895.07 527.29
  Q 903.45 512.74 906.29 495.63
  Q 911.44 464.61 892.98 439.39
  A 0.25 0.25 0.0 0 0 892.53 439.48
  Q 888.91 455.01 888.01 459.49
  Q 883.99 479.38 888.00 496.48
  Q 892.09 513.92 894.87 527.26
  A 0.11 0.11 0.0 0 0 895.07 527.29"
/>
<path stroke="#8fd8ef" vector-effect="non-scaling-stroke" d="
  M 90.45 449.86
  Q 89.18 452.52 88.66 456.51
  C 87.14 468.13 87.79 479.52 93.77 489.96
  Q 99.47 499.92 108.94 506.73
  A 0.50 0.50 0.0 0 0 109.70 506.13
  C 104.95 494.72 104.71 483.29 104.95 471.35
  A 5.74 5.69 -53.7 0 0 104.67 469.46
  C 102.29 462.09 97.37 457.17 91.13 449.77
  A 0.41 0.41 0.0 0 0 90.45 449.86"
/>
<path stroke="#8fd8ef" vector-effect="non-scaling-stroke" d="
  M 933.55 449.88
  A 0.41 0.40 52.0 0 0 932.87 449.79
  C 926.63 457.18 921.72 462.10 919.34 469.46
  A 5.73 5.69 53.6 0 0 919.06 471.35
  C 919.31 483.28 919.07 494.70 914.33 506.10
  A 0.50 0.50 0.0 0 0 915.09 506.70
  Q 924.55 499.89 930.24 489.94
  C 936.21 479.51 936.86 468.13 935.34 456.52
  Q 934.82 452.53 933.55 449.88"
/>
<path stroke="#8fd8ef" vector-effect="non-scaling-stroke" d="
  M 147.54 607.25
  A 0.34 0.33 27.0 0 0 148.13 607.06
  Q 149.58 589.53 154.22 571.95
  Q 157.89 558.08 164.48 534.25
  Q 168.04 521.35 169.59 508.53
  C 171.72 490.90 169.07 474.28 159.23 459.35
  A 0.43 0.43 0.0 0 0 158.46 459.48
  Q 152.58 481.17 147.74 501.47
  C 142.89 521.78 138.93 543.40 138.05 564.99
  C 137.47 579.50 138.42 596.51 147.54 607.25"
/>
<path stroke="#8fd8ef" vector-effect="non-scaling-stroke" d="
  M 876.47 607.25
  C 885.59 596.51 886.54 579.50 885.96 564.99
  C 885.08 543.40 881.12 521.78 876.27 501.47
  Q 871.43 481.17 865.55 459.48
  A 0.43 0.43 0.0 0 0 864.78 459.35
  C 854.94 474.28 852.29 490.90 854.42 508.53
  Q 855.97 521.35 859.53 534.25
  Q 866.12 558.08 869.79 571.95
  Q 874.43 589.53 875.88 607.06
  A 0.34 0.33 -27.0 0 0 876.47 607.25"
/>
<path stroke="#8fd8ef" vector-effect="non-scaling-stroke" d="
  M 74.63 507.55
  A 0.47 0.47 0.0 0 0 74.16 508.15
  Q 86.02 548.44 123.25 566.57
  A 0.45 0.45 0.0 0 0 123.90 566.18
  L 124.83 544.71
  A 2.10 2.02 -57.9 0 0 124.61 543.66
  C 116.28 527.05 101.34 515.25 83.86 509.42
  Q 78.70 507.70 74.63 507.55"
/>
<path stroke="#8fd8ef" vector-effect="non-scaling-stroke" d="
  M 949.38 507.54
  Q 945.31 507.69 940.15 509.41
  C 922.67 515.24 907.72 527.04 899.39 543.65
  A 2.10 2.02 57.9 0 0 899.17 544.70
  L 900.10 566.17
  A 0.45 0.45 0.0 0 0 900.75 566.56
  Q 937.99 548.43 949.85 508.14
  A 0.47 0.47 0.0 0 0 949.38 507.54"
/>
<path stroke="#8fd8ef" vector-effect="non-scaling-stroke" d="
  M 180.87 662.55
  A 0.80 0.80 0.0 0 0 181.95 662.35
  C 202.22 634.69 188.89 604.23 167.10 583.11
  A 0.31 0.31 0.0 0 0 166.59 583.23
  Q 161.45 598.49 160.53 614.50
  C 159.50 632.31 165.34 652.25 180.87 662.55"
/>
<path stroke="#8fd8ef" vector-effect="non-scaling-stroke" d="
  M 843.14 662.55
  C 858.67 652.25 864.51 632.31 863.47 614.50
  Q 862.55 598.49 857.41 583.23
  A 0.31 0.31 0.0 0 0 856.90 583.11
  C 835.11 604.23 821.79 634.69 842.06 662.35
  A 0.80 0.80 0.0 0 0 843.14 662.55"
/>
<path stroke="#8fd8ef" vector-effect="non-scaling-stroke" d="
  M 154.92 653.30
  A 0.18 0.18 0.0 0 0 155.16 653.05
  Q 148.21 640.71 146.44 626.74
  A 1.41 1.38 19.4 0 0 146.04 625.93
  C 134.38 614.35 116.39 605.18 99.68 608.20
  A 0.56 0.55 -11.0 0 0 99.23 608.86
  C 102.86 625.31 119.54 634.77 133.27 641.99
  Q 133.62 642.17 154.92 653.30"
/>
<path stroke="#8fd8ef" vector-effect="non-scaling-stroke" d="
  M 869.08 653.30
  Q 890.38 642.17 890.73 641.99
  C 904.46 634.77 921.14 625.31 924.78 608.86
  A 0.56 0.55 11.0 0 0 924.33 608.20
  C 907.62 605.18 889.62 614.35 877.96 625.93
  A 1.41 1.38 -19.4 0 0 877.56 626.74
  Q 875.79 640.71 868.84 653.05
  A 0.18 0.18 0.0 0 0 869.08 653.30"
/>
<path stroke="#8fd8ef" vector-effect="non-scaling-stroke" d="
  M 207.51 692.28
  A 0.26 0.26 0.0 0 0 207.98 692.27
  Q 214.06 677.51 215.68 662.29
  Q 217.35 646.64 211.54 632.46
  A 0.53 0.53 0.0 0 0 210.70 632.26
  C 203.61 638.28 199.34 648.19 197.44 657.50
  Q 195.23 668.32 195.74 673.00
  A 1.31 1.30 22.9 0 0 196.02 673.68
  Q 202.93 682.35 207.51 692.28"
/>
<path stroke="#8fd8ef" vector-effect="non-scaling-stroke" d="
  M 816.48 692.28
  Q 821.06 682.35 827.97 673.69
  A 1.31 1.30 -22.9 0 0 828.25 673.01
  Q 828.76 668.33 826.56 657.52
  C 824.66 648.21 820.40 638.30 813.31 632.28
  A 0.53 0.53 0.0 0 0 812.47 632.48
  Q 806.66 646.65 808.32 662.30
  Q 809.94 677.51 816.01 692.27
  A 0.26 0.26 0.0 0 0 816.48 692.28"
/>
<path stroke="#8fd8ef" vector-effect="non-scaling-stroke" d="
  M 102.47 659.21
  A 0.09 0.09 0.0 0 0 102.40 659.36
  C 125.63 686.67 160.01 704.18 196.53 695.90
  A 0.57 0.57 0.0 0 0 196.88 695.03
  C 187.97 681.34 172.44 672.34 156.69 667.31
  Q 130.85 659.04 102.47 659.21"
/>
<path stroke="#8fd8ef" vector-effect="non-scaling-stroke" d="
  M 921.55 659.19
  Q 893.16 659.02 867.32 667.30
  C 851.56 672.34 836.03 681.34 827.12 695.04
  A 0.57 0.57 0.0 0 0 827.47 695.91
  C 864.00 704.18 898.39 686.66 921.62 659.34
  A 0.09 0.09 0.0 0 0 921.55 659.19"
/>
<path stroke="#8fd8ef" vector-effect="non-scaling-stroke" d="
  M 371.99 685.29
  Q 371.86 685.38 371.85 685.38
  Q 351.10 688.39 349.03 688.72
  A 0.24 0.15 -66.1 0 0 348.90 688.81
  Q 348.88 688.84 348.87 688.87
  Q 348.85 688.91 348.85 688.95
  A 0.24 0.15 -78.0 0 0 348.91 689.09
  Q 350.39 690.58 365.41 705.20
  Q 365.42 705.21 365.47 705.36
  Q 365.52 705.52 365.52 705.54
  Q 361.97 726.20 361.64 728.27
  A 0.24 0.15 41.9 0 0 361.69 728.42
  Q 361.71 728.45 361.74 728.47
  Q 361.77 728.49 361.81 728.51
  A 0.24 0.15 30.0 0 0 361.96 728.50
  Q 363.83 727.55 382.38 717.78
  Q 382.39 717.77 382.55 717.77
  Q 382.72 717.77 382.73 717.78
  Q 401.29 727.54 403.15 728.49
  A 0.24 0.15 -30.1 0 0 403.31 728.50
  Q 403.35 728.49 403.38 728.46
  Q 403.41 728.44 403.43 728.41
  A 0.24 0.15 -42.0 0 0 403.47 728.26
  Q 403.15 726.19 399.59 705.53
  Q 399.58 705.51 399.63 705.37
  Q 399.68 705.21 399.70 705.19
  Q 414.71 690.57 416.19 689.08
  A 0.24 0.15 77.9 0 0 416.25 688.94
  Q 416.25 688.90 416.24 688.86
  Q 416.23 688.83 416.20 688.80
  A 0.24 0.15 66.0 0 0 416.07 688.71
  Q 414.00 688.38 393.25 685.38
  Q 393.24 685.38 393.11 685.29
  Q 392.98 685.19 392.97 685.17
  Q 383.70 666.37 382.74 664.50
  A 0.24 0.15 5.9 0 0 382.62 664.41
  Q 382.59 664.39 382.55 664.39
  Q 382.51 664.39 382.47 664.41
  A 0.24 0.15 -6.0 0 0 382.35 664.50
  Q 381.40 666.37 372.13 685.18
  Q 372.13 685.19 371.99 685.29"
/>
<path stroke="#8fd8ef" vector-effect="non-scaling-stroke" d="
  M 501.44 685.31
  Q 501.32 685.40 501.30 685.40
  Q 480.58 688.40 478.51 688.73
  A 0.24 0.15 -66.1 0 0 478.38 688.82
  Q 478.36 688.85 478.35 688.88
  Q 478.33 688.92 478.33 688.96
  A 0.24 0.15 -77.9 0 0 478.39 689.10
  Q 479.87 690.58 494.87 705.19
  Q 494.88 705.20 494.93 705.35
  Q 494.98 705.51 494.98 705.53
  Q 491.43 726.16 491.10 728.23
  A 0.24 0.15 41.9 0 0 491.14 728.38
  Q 491.17 728.41 491.20 728.43
  Q 491.23 728.46 491.26 728.47
  A 0.24 0.15 30.1 0 0 491.42 728.46
  Q 493.29 727.51 511.81 717.76
  Q 511.83 717.75 511.98 717.75
  Q 512.15 717.75 512.17 717.76
  Q 530.69 727.51 532.56 728.46
  A 0.24 0.15 -30.1 0 0 532.72 728.47
  Q 532.75 728.46 532.79 728.43
  Q 532.81 728.41 532.84 728.38
  A 0.24 0.15 -41.9 0 0 532.88 728.23
  Q 532.55 726.16 529.00 705.53
  Q 529.00 705.51 529.05 705.36
  Q 529.10 705.20 529.11 705.19
  Q 544.11 690.58 545.59 689.10
  A 0.24 0.15 77.9 0 0 545.65 688.96
  Q 545.65 688.92 545.63 688.88
  Q 545.62 688.85 545.60 688.82
  A 0.24 0.15 66.1 0 0 545.47 688.73
  Q 543.40 688.40 522.68 685.40
  Q 522.66 685.40 522.54 685.31
  Q 522.40 685.21 522.39 685.19
  Q 513.14 666.41 512.19 664.55
  A 0.24 0.15 5.9 0 0 512.06 664.45
  Q 512.03 664.44 511.99 664.44
  Q 511.95 664.44 511.92 664.45
  A 0.24 0.15 -5.9 0 0 511.79 664.55
  Q 510.84 666.41 501.59 685.19
  Q 501.58 685.21 501.44 685.31"
/>
<path stroke="#8fd8ef" vector-effect="non-scaling-stroke" d="
  M 630.88 685.29
  Q 630.76 685.38 630.74 685.38
  Q 609.99 688.37 607.92 688.70
  A 0.24 0.15 -66.0 0 0 607.79 688.79
  Q 607.77 688.82 607.76 688.86
  Q 607.74 688.89 607.75 688.93
  A 0.24 0.15 -77.9 0 0 607.80 689.08
  Q 609.28 690.56 624.30 705.19
  Q 624.31 705.20 624.35 705.35
  Q 624.41 705.51 624.40 705.53
  Q 620.84 726.19 620.51 728.26
  A 0.24 0.15 42.0 0 0 620.56 728.41
  Q 620.58 728.44 620.61 728.46
  Q 620.64 728.48 620.68 728.50
  A 0.24 0.15 30.1 0 0 620.83 728.49
  Q 622.70 727.54 641.26 717.78
  Q 641.27 717.77 641.43 717.77
  Q 641.60 717.77 641.61 717.78
  Q 660.16 727.55 662.03 728.50
  A 0.24 0.15 -30.0 0 0 662.18 728.51
  Q 662.22 728.50 662.25 728.48
  Q 662.28 728.46 662.30 728.42
  A 0.24 0.15 -41.9 0 0 662.34 728.27
  Q 662.02 726.20 658.47 705.54
  Q 658.47 705.52 658.52 705.38
  Q 658.57 705.22 658.58 705.20
  Q 673.61 690.58 675.09 689.10
  A 0.24 0.15 78.0 0 0 675.14 688.95
  Q 675.14 688.92 675.13 688.88
  Q 675.12 688.84 675.10 688.81
  A 0.24 0.15 66.1 0 0 674.97 688.73
  Q 672.90 688.40 652.15 685.39
  Q 652.13 685.38 652.01 685.29
  Q 651.87 685.19 651.86 685.18
  Q 642.60 666.37 641.65 664.50
  A 0.24 0.15 6.0 0 0 641.53 664.41
  Q 641.49 664.39 641.45 664.39
  Q 641.41 664.39 641.38 664.41
  A 0.24 0.15 -5.9 0 0 641.26 664.50
  Q 640.30 666.37 631.03 685.17
  Q 631.02 685.19 630.88 685.29"
/>
<path stroke="#8fd8ef" vector-effect="non-scaling-stroke" d="
  M 190.31 708.66
  A 0.26 0.25 56.6 0 0 190.22 709.11
  C 200.05 716.63 206.59 724.94 214.73 735.71
  C 220.49 743.32 230.49 749.94 238.97 754.46
  A 3.06 3.04 42.9 0 0 242.02 754.36
  C 245.81 752.00 253.59 746.20 248.30 740.96
  Q 246.49 739.17 245.56 738.71
  Q 235.86 733.95 229.06 727.08
  C 226.53 724.52 224.00 718.13 221.62 715.00
  Q 217.18 709.16 210.18 704.14
  A 0.91 0.90 55.4 0 0 209.44 704.00
  L 190.31 708.66"
/>
<path stroke="#8fd8ef" vector-effect="non-scaling-stroke" d="
  M 833.66 708.67
  L 814.54 704.01
  A 0.91 0.90 -55.4 0 0 813.80 704.16
  Q 806.80 709.17 802.37 715.01
  C 799.99 718.14 797.46 724.53 794.94 727.09
  Q 788.14 733.95 778.45 738.71
  Q 777.52 739.17 775.71 740.96
  C 770.43 746.20 778.20 752.00 781.99 754.35
  A 3.06 3.04 -42.9 0 0 785.04 754.45
  C 793.51 749.93 803.51 743.31 809.26 735.71
  C 817.39 724.94 823.93 716.63 833.75 709.12
  A 0.26 0.25 -56.6 0 0 833.66 708.67"
/>
<path stroke="#8fd8ef" vector-effect="non-scaling-stroke" d="
  M 680.06 490.69
  Q 694.20 487.94 700.94 486.15
  C 707.25 484.47 713.28 481.51 715.29 474.80
  Q 716.67 470.16 716.67 466.48
  Q 716.68 375.79 716.69 375.60
  Q 716.92 371.13 715.87 368.53
  C 714.28 364.56 711.98 360.97 708.11 359.65
  C 698.93 356.52 691.69 356.74 680.34 356.79
  A 0.59 0.59 0.0 0 0 679.75 357.38
  L 679.75 490.44
  A 0.26 0.26 0.0 0 0 680.06 490.69"
/>
<path stroke="#8fd8ef" vector-effect="non-scaling-stroke" d="
  M 680.37 612.43
  Q 687.21 612.54 698.50 612.41
  C 712.39 612.25 718.50 603.47 718.47 590.24
  Q 718.43 574.25 718.47 501.00
  Q 718.47 498.08 717.25 495.56
  C 714.56 490.01 701.57 495.02 697.01 496.13
  Q 680.96 500.02 680.30 500.20
  A 0.75 0.75 0.0 0 0 679.75 500.92
  L 679.75 611.80
  A 0.63 0.63 0.0 0 0 680.37 612.43"
/>
</g>
<path fill="#1eb1df" d="
  M 1024.00 0.00
  L 1024.00 1024.00
  L 0.00 1024.00
  L 0.00 0.00
  L 1024.00 0.00
  Z
  M 219.65 269.63
  A 0.34 0.34 0.0 0 0 219.10 269.35
  C 209.18 277.27 194.58 288.22 191.32 301.05
  C 187.85 314.70 187.78 331.84 189.13 346.10
  A 0.35 0.35 0.0 0 0 189.77 346.27
  C 206.31 323.11 218.42 297.97 219.65 269.63
  Z
  M 804.33 269.59
  C 805.56 297.96 817.68 323.12 834.24 346.31
  A 0.35 0.35 0.0 0 0 834.88 346.14
  C 836.23 331.86 836.16 314.70 832.69 301.04
  C 829.43 288.20 814.81 277.24 804.88 269.31
  A 0.34 0.34 0.0 0 0 804.33 269.59
  Z
  M 159.50 384.27
  Q 168.17 366.77 172.64 347.66
  C 176.86 329.61 177.30 309.76 169.98 292.62
  A 0.87 0.86 -29.9 0 0 168.67 292.27
  C 163.10 296.43 160.92 301.56 157.92 308.73
  Q 152.41 321.93 152.77 337.01
  C 153.14 352.88 156.10 368.20 159.18 384.23
  A 0.17 0.17 0.0 0 0 159.50 384.27
  Z
  M 864.51 384.29
  A 0.17 0.17 0.0 0 0 864.83 384.25
  C 867.91 368.22 870.87 352.90 871.24 337.03
  Q 871.59 321.95 866.08 308.75
  C 863.08 301.58 860.90 296.45 855.33 292.29
  A 0.87 0.86 29.9 0 0 854.02 292.64
  C 846.70 309.78 847.15 329.63 851.37 347.68
  Q 855.84 366.79 864.51 384.29
  Z
  M 138.26 421.43
  A 0.38 0.38 0.0 0 0 138.87 421.36
  C 150.85 399.04 152.36 361.48 133.63 341.94
  A 0.37 0.37 0.0 0 0 133.01 342.08
  C 124.96 366.35 119.27 400.51 138.26 421.43
  Z
  M 885.74 421.44
  C 904.76 400.49 899.06 366.29 891.00 342.00
  A 0.37 0.37 0.0 0 0 890.38 341.86
  C 871.63 361.42 873.14 399.02 885.13 421.37
  A 0.38 0.38 0.0 0 0 885.74 421.44
  Z
  M 153.16 445.51
  A 0.47 0.47 0.0 0 0 153.99 445.71
  C 171.25 424.84 187.65 404.00 200.42 381.20
  C 205.08 372.87 212.70 356.75 208.16 347.37
  A 0.46 0.46 0.0 0 0 207.39 347.28
  C 188.39 369.71 170.12 391.39 158.25 416.25
  C 153.94 425.28 151.08 435.79 153.16 445.51
  Z
  M 342.65 434.33
  Q 353.91 432.15 367.66 428.36
  C 370.50 427.57 371.92 426.47 371.94 423.49
  Q 372.06 401.12 372.00 376.92
  C 371.99 372.65 371.18 370.30 367.87 368.05
  Q 356.57 360.34 345.97 353.77
  C 331.12 344.57 316.34 345.01 301.48 354.26
  Q 286.63 363.51 280.44 367.79
  Q 275.92 370.92 275.93 376.24
  Q 276.03 420.39 275.96 590.19
  C 275.95 595.28 275.72 598.40 279.51 601.27
  Q 280.25 601.83 295.91 612.31
  Q 306.28 619.26 311.41 620.85
  Q 323.82 624.71 336.32 620.99
  Q 342.19 619.25 352.80 612.01
  Q 363.20 604.91 368.39 601.37
  Q 371.97 598.93 371.98 594.25
  Q 371.99 590.04 371.99 527.75
  Q 371.99 523.14 370.91 518.27
  C 369.43 511.53 361.32 508.89 355.40 507.26
  A 0.26 0.26 0.0 0 1 355.41 506.75
  L 382.00 500.27
  A 0.42 0.42 0.0 0 0 382.32 499.86
  L 382.32 491.01
  A 0.19 0.18 82.8 0 0 382.09 490.83
  L 324.68 504.83
  A 0.32 0.32 0.0 0 0 324.44 505.14
  L 324.44 514.87
  A 0.15 0.14 80.3 0 0 324.63 515.01
  Q 327.53 513.98 332.49 513.37
  Q 338.94 512.58 341.39 516.45
  Q 342.45 518.11 342.45 526.18
  Q 342.47 589.10 342.47 589.27
  Q 342.80 600.10 340.89 604.47
  Q 336.81 613.79 325.03 614.26
  C 312.81 614.75 305.55 607.69 305.55 595.52
  Q 305.50 375.17 305.57 373.25
  C 305.89 363.65 311.17 356.23 321.32 355.40
  Q 327.00 354.94 330.75 356.06
  C 338.26 358.30 342.38 365.59 342.41 373.25
  Q 342.50 398.48 342.43 434.14
  A 0.19 0.19 0.0 0 0 342.65 434.33
  Z
  M 870.85 445.52
  C 872.93 435.80 870.07 425.28 865.75 416.25
  C 853.88 391.39 835.61 369.70 816.61 347.27
  A 0.46 0.46 0.0 0 0 815.83 347.36
  C 811.29 356.74 818.92 372.86 823.58 381.20
  C 836.35 404.00 852.75 424.84 870.02 445.72
  A 0.47 0.47 0.0 0 0 870.85 445.52
  Z
  M 511.90 562.32
  Q 497.66 469.13 483.16 373.97
  C 481.05 360.08 476.97 349.59 460.97 348.72
  Q 452.40 348.25 440.45 348.53
  A 0.45 0.45 0.0 0 0 440.01 348.98
  L 440.01 619.99
  A 1.03 1.02 0.0 0 0 441.04 621.01
  L 448.84 621.01
  A 1.16 1.16 0.0 0 0 450.00 619.85
  L 450.00 373.87
  A 0.55 0.55 0.0 0 1 450.86 373.41
  Q 454.25 375.68 454.96 380.32
  Q 480.00 544.51 491.92 620.38
  A 0.81 0.79 -11.0 0 0 492.90 621.03
  Q 507.45 617.51 510.95 616.42
  C 514.58 615.29 514.81 611.97 515.19 609.48
  Q 518.33 588.66 542.65 421.49
  Q 546.00 398.47 547.88 383.52
  C 548.44 379.08 549.14 374.56 552.62 372.32
  A 0.54 0.54 0.0 0 1 553.45 372.77
  L 553.45 620.34
  A 0.64 0.64 0.0 0 0 554.23 620.96
  Q 568.96 617.60 577.98 615.00
  Q 580.75 614.20 582.10 611.95
  Q 583.02 610.41 583.02 606.87
  Q 582.99 488.15 583.01 348.80
  A 0.39 0.39 0.0 0 0 582.62 348.41
  Q 574.03 348.55 566.42 348.41
  Q 556.03 348.21 552.31 349.95
  C 544.20 353.74 541.87 362.39 540.54 371.01
  Q 531.45 429.45 526.55 463.21
  Q 526.14 466.03 512.16 562.32
  A 0.13 0.13 0.0 0 1 511.90 562.32
  Z
  M 724.10 488.72
  C 732.32 486.67 741.75 483.44 744.87 474.90
  C 745.61 472.87 745.77 470.68 746.17 468.70
  A 7.49 7.29 -40.2 0 0 746.31 467.27
  Q 746.34 425.31 746.33 399.26
  C 746.32 394.22 745.82 388.11 745.28 383.24
  C 744.33 374.65 740.40 366.97 733.27 362.25
  Q 728.30 358.96 728.16 358.87
  Q 713.72 349.25 696.51 348.79
  Q 678.57 348.31 650.78 348.48
  A 0.32 0.32 0.0 0 0 650.46 348.80
  L 650.46 620.61
  A 0.35 0.35 0.0 0 0 650.81 620.96
  Q 672.11 621.15 697.73 620.90
  Q 710.63 620.78 721.93 614.91
  C 731.72 609.83 741.12 604.78 744.53 594.76
  Q 747.97 584.64 747.97 572.24
  Q 747.96 564.92 748.01 510.25
  C 748.01 506.17 747.46 500.70 744.65 497.85
  C 739.67 492.80 731.01 491.23 724.10 489.25
  A 0.28 0.27 45.7 0 1 724.10 488.72
  Z
  M 128.93 527.29
  A 0.11 0.11 0.0 0 0 129.13 527.26
  Q 131.91 513.92 136.00 496.49
  Q 140.01 479.39 135.98 459.51
  Q 135.08 455.03 131.46 439.50
  A 0.25 0.25 0.0 0 0 131.01 439.41
  Q 112.56 464.63 117.71 495.64
  Q 120.55 512.75 128.93 527.29
  Z
  M 895.07 527.29
  Q 903.45 512.74 906.29 495.63
  Q 911.44 464.61 892.98 439.39
  A 0.25 0.25 0.0 0 0 892.53 439.48
  Q 888.91 455.01 888.01 459.49
  Q 883.99 479.38 888.00 496.48
  Q 892.09 513.92 894.87 527.26
  A 0.11 0.11 0.0 0 0 895.07 527.29
  Z
  M 90.45 449.86
  Q 89.18 452.52 88.66 456.51
  C 87.14 468.13 87.79 479.52 93.77 489.96
  Q 99.47 499.92 108.94 506.73
  A 0.50 0.50 0.0 0 0 109.70 506.13
  C 104.95 494.72 104.71 483.29 104.95 471.35
  A 5.74 5.69 -53.7 0 0 104.67 469.46
  C 102.29 462.09 97.37 457.17 91.13 449.77
  A 0.41 0.41 0.0 0 0 90.45 449.86
  Z
  M 933.55 449.88
  A 0.41 0.40 52.0 0 0 932.87 449.79
  C 926.63 457.18 921.72 462.10 919.34 469.46
  A 5.73 5.69 53.6 0 0 919.06 471.35
  C 919.31 483.28 919.07 494.70 914.33 506.10
  A 0.50 0.50 0.0 0 0 915.09 506.70
  Q 924.55 499.89 930.24 489.94
  C 936.21 479.51 936.86 468.13 935.34 456.52
  Q 934.82 452.53 933.55 449.88
  Z
  M 147.54 607.25
  A 0.34 0.33 27.0 0 0 148.13 607.06
  Q 149.58 589.53 154.22 571.95
  Q 157.89 558.08 164.48 534.25
  Q 168.04 521.35 169.59 508.53
  C 171.72 490.90 169.07 474.28 159.23 459.35
  A 0.43 0.43 0.0 0 0 158.46 459.48
  Q 152.58 481.17 147.74 501.47
  C 142.89 521.78 138.93 543.40 138.05 564.99
  C 137.47 579.50 138.42 596.51 147.54 607.25
  Z
  M 876.47 607.25
  C 885.59 596.51 886.54 579.50 885.96 564.99
  C 885.08 543.40 881.12 521.78 876.27 501.47
  Q 871.43 481.17 865.55 459.48
  A 0.43 0.43 0.0 0 0 864.78 459.35
  C 854.94 474.28 852.29 490.90 854.42 508.53
  Q 855.97 521.35 859.53 534.25
  Q 866.12 558.08 869.79 571.95
  Q 874.43 589.53 875.88 607.06
  A 0.34 0.33 -27.0 0 0 876.47 607.25
  Z
  M 74.63 507.55
  A 0.47 0.47 0.0 0 0 74.16 508.15
  Q 86.02 548.44 123.25 566.57
  A 0.45 0.45 0.0 0 0 123.90 566.18
  L 124.83 544.71
  A 2.10 2.02 -57.9 0 0 124.61 543.66
  C 116.28 527.05 101.34 515.25 83.86 509.42
  Q 78.70 507.70 74.63 507.55
  Z
  M 949.38 507.54
  Q 945.31 507.69 940.15 509.41
  C 922.67 515.24 907.72 527.04 899.39 543.65
  A 2.10 2.02 57.9 0 0 899.17 544.70
  L 900.10 566.17
  A 0.45 0.45 0.0 0 0 900.75 566.56
  Q 937.99 548.43 949.85 508.14
  A 0.47 0.47 0.0 0 0 949.38 507.54
  Z
  M 180.87 662.55
  A 0.80 0.80 0.0 0 0 181.95 662.35
  C 202.22 634.69 188.89 604.23 167.10 583.11
  A 0.31 0.31 0.0 0 0 166.59 583.23
  Q 161.45 598.49 160.53 614.50
  C 159.50 632.31 165.34 652.25 180.87 662.55
  Z
  M 843.14 662.55
  C 858.67 652.25 864.51 632.31 863.47 614.50
  Q 862.55 598.49 857.41 583.23
  A 0.31 0.31 0.0 0 0 856.90 583.11
  C 835.11 604.23 821.79 634.69 842.06 662.35
  A 0.80 0.80 0.0 0 0 843.14 662.55
  Z
  M 154.92 653.30
  A 0.18 0.18 0.0 0 0 155.16 653.05
  Q 148.21 640.71 146.44 626.74
  A 1.41 1.38 19.4 0 0 146.04 625.93
  C 134.38 614.35 116.39 605.18 99.68 608.20
  A 0.56 0.55 -11.0 0 0 99.23 608.86
  C 102.86 625.31 119.54 634.77 133.27 641.99
  Q 133.62 642.17 154.92 653.30
  Z
  M 869.08 653.30
  Q 890.38 642.17 890.73 641.99
  C 904.46 634.77 921.14 625.31 924.78 608.86
  A 0.56 0.55 11.0 0 0 924.33 608.20
  C 907.62 605.18 889.62 614.35 877.96 625.93
  A 1.41 1.38 -19.4 0 0 877.56 626.74
  Q 875.79 640.71 868.84 653.05
  A 0.18 0.18 0.0 0 0 869.08 653.30
  Z
  M 207.51 692.28
  A 0.26 0.26 0.0 0 0 207.98 692.27
  Q 214.06 677.51 215.68 662.29
  Q 217.35 646.64 211.54 632.46
  A 0.53 0.53 0.0 0 0 210.70 632.26
  C 203.61 638.28 199.34 648.19 197.44 657.50
  Q 195.23 668.32 195.74 673.00
  A 1.31 1.30 22.9 0 0 196.02 673.68
  Q 202.93 682.35 207.51 692.28
  Z
  M 816.48 692.28
  Q 821.06 682.35 827.97 673.69
  A 1.31 1.30 -22.9 0 0 828.25 673.01
  Q 828.76 668.33 826.56 657.52
  C 824.66 648.21 820.40 638.30 813.31 632.28
  A 0.53 0.53 0.0 0 0 812.47 632.48
  Q 806.66 646.65 808.32 662.30
  Q 809.94 677.51 816.01 692.27
  A 0.26 0.26 0.0 0 0 816.48 692.28
  Z
  M 102.47 659.21
  A 0.09 0.09 0.0 0 0 102.40 659.36
  C 125.63 686.67 160.01 704.18 196.53 695.90
  A 0.57 0.57 0.0 0 0 196.88 695.03
  C 187.97 681.34 172.44 672.34 156.69 667.31
  Q 130.85 659.04 102.47 659.21
  Z
  M 921.55 659.19
  Q 893.16 659.02 867.32 667.30
  C 851.56 672.34 836.03 681.34 827.12 695.04
  A 0.57 0.57 0.0 0 0 827.47 695.91
  C 864.00 704.18 898.39 686.66 921.62 659.34
  A 0.09 0.09 0.0 0 0 921.55 659.19
  Z
  M 371.99 685.29
  Q 371.86 685.38 371.85 685.38
  Q 351.10 688.39 349.03 688.72
  A 0.24 0.15 -66.1 0 0 348.90 688.81
  Q 348.88 688.84 348.87 688.87
  Q 348.85 688.91 348.85 688.95
  A 0.24 0.15 -78.0 0 0 348.91 689.09
  Q 350.39 690.58 365.41 705.20
  Q 365.42 705.21 365.47 705.36
  Q 365.52 705.52 365.52 705.54
  Q 361.97 726.20 361.64 728.27
  A 0.24 0.15 41.9 0 0 361.69 728.42
  Q 361.71 728.45 361.74 728.47
  Q 361.77 728.49 361.81 728.51
  A 0.24 0.15 30.0 0 0 361.96 728.50
  Q 363.83 727.55 382.38 717.78
  Q 382.39 717.77 382.55 717.77
  Q 382.72 717.77 382.73 717.78
  Q 401.29 727.54 403.15 728.49
  A 0.24 0.15 -30.1 0 0 403.31 728.50
  Q 403.35 728.49 403.38 728.46
  Q 403.41 728.44 403.43 728.41
  A 0.24 0.15 -42.0 0 0 403.47 728.26
  Q 403.15 726.19 399.59 705.53
  Q 399.58 705.51 399.63 705.37
  Q 399.68 705.21 399.70 705.19
  Q 414.71 690.57 416.19 689.08
  A 0.24 0.15 77.9 0 0 416.25 688.94
  Q 416.25 688.90 416.24 688.86
  Q 416.23 688.83 416.20 688.80
  A 0.24 0.15 66.0 0 0 416.07 688.71
  Q 414.00 688.38 393.25 685.38
  Q 393.24 685.38 393.11 685.29
  Q 392.98 685.19 392.97 685.17
  Q 383.70 666.37 382.74 664.50
  A 0.24 0.15 5.9 0 0 382.62 664.41
  Q 382.59 664.39 382.55 664.39
  Q 382.51 664.39 382.47 664.41
  A 0.24 0.15 -6.0 0 0 382.35 664.50
  Q 381.40 666.37 372.13 685.18
  Q 372.13 685.19 371.99 685.29
  Z
  M 501.44 685.31
  Q 501.32 685.40 501.30 685.40
  Q 480.58 688.40 478.51 688.73
  A 0.24 0.15 -66.1 0 0 478.38 688.82
  Q 478.36 688.85 478.35 688.88
  Q 478.33 688.92 478.33 688.96
  A 0.24 0.15 -77.9 0 0 478.39 689.10
  Q 479.87 690.58 494.87 705.19
  Q 494.88 705.20 494.93 705.35
  Q 494.98 705.51 494.98 705.53
  Q 491.43 726.16 491.10 728.23
  A 0.24 0.15 41.9 0 0 491.14 728.38
  Q 491.17 728.41 491.20 728.43
  Q 491.23 728.46 491.26 728.47
  A 0.24 0.15 30.1 0 0 491.42 728.46
  Q 493.29 727.51 511.81 717.76
  Q 511.83 717.75 511.98 717.75
  Q 512.15 717.75 512.17 717.76
  Q 530.69 727.51 532.56 728.46
  A 0.24 0.15 -30.1 0 0 532.72 728.47
  Q 532.75 728.46 532.79 728.43
  Q 532.81 728.41 532.84 728.38
  A 0.24 0.15 -41.9 0 0 532.88 728.23
  Q 532.55 726.16 529.00 705.53
  Q 529.00 705.51 529.05 705.36
  Q 529.10 705.20 529.11 705.19
  Q 544.11 690.58 545.59 689.10
  A 0.24 0.15 77.9 0 0 545.65 688.96
  Q 545.65 688.92 545.63 688.88
  Q 545.62 688.85 545.60 688.82
  A 0.24 0.15 66.1 0 0 545.47 688.73
  Q 543.40 688.40 522.68 685.40
  Q 522.66 685.40 522.54 685.31
  Q 522.40 685.21 522.39 685.19
  Q 513.14 666.41 512.19 664.55
  A 0.24 0.15 5.9 0 0 512.06 664.45
  Q 512.03 664.44 511.99 664.44
  Q 511.95 664.44 511.92 664.45
  A 0.24 0.15 -5.9 0 0 511.79 664.55
  Q 510.84 666.41 501.59 685.19
  Q 501.58 685.21 501.44 685.31
  Z
  M 630.88 685.29
  Q 630.76 685.38 630.74 685.38
  Q 609.99 688.37 607.92 688.70
  A 0.24 0.15 -66.0 0 0 607.79 688.79
  Q 607.77 688.82 607.76 688.86
  Q 607.74 688.89 607.75 688.93
  A 0.24 0.15 -77.9 0 0 607.80 689.08
  Q 609.28 690.56 624.30 705.19
  Q 624.31 705.20 624.35 705.35
  Q 624.41 705.51 624.40 705.53
  Q 620.84 726.19 620.51 728.26
  A 0.24 0.15 42.0 0 0 620.56 728.41
  Q 620.58 728.44 620.61 728.46
  Q 620.64 728.48 620.68 728.50
  A 0.24 0.15 30.1 0 0 620.83 728.49
  Q 622.70 727.54 641.26 717.78
  Q 641.27 717.77 641.43 717.77
  Q 641.60 717.77 641.61 717.78
  Q 660.16 727.55 662.03 728.50
  A 0.24 0.15 -30.0 0 0 662.18 728.51
  Q 662.22 728.50 662.25 728.48
  Q 662.28 728.46 662.30 728.42
  A 0.24 0.15 -41.9 0 0 662.34 728.27
  Q 662.02 726.20 658.47 705.54
  Q 658.47 705.52 658.52 705.38
  Q 658.57 705.22 658.58 705.20
  Q 673.61 690.58 675.09 689.10
  A 0.24 0.15 78.0 0 0 675.14 688.95
  Q 675.14 688.92 675.13 688.88
  Q 675.12 688.84 675.10 688.81
  A 0.24 0.15 66.1 0 0 674.97 688.73
  Q 672.90 688.40 652.15 685.39
  Q 652.13 685.38 652.01 685.29
  Q 651.87 685.19 651.86 685.18
  Q 642.60 666.37 641.65 664.50
  A 0.24 0.15 6.0 0 0 641.53 664.41
  Q 641.49 664.39 641.45 664.39
  Q 641.41 664.39 641.38 664.41
  A 0.24 0.15 -5.9 0 0 641.26 664.50
  Q 640.30 666.37 631.03 685.17
  Q 631.02 685.19 630.88 685.29
  Z
  M 190.31 708.66
  A 0.26 0.25 56.6 0 0 190.22 709.11
  C 200.05 716.63 206.59 724.94 214.73 735.71
  C 220.49 743.32 230.49 749.94 238.97 754.46
  A 3.06 3.04 42.9 0 0 242.02 754.36
  C 245.81 752.00 253.59 746.20 248.30 740.96
  Q 246.49 739.17 245.56 738.71
  Q 235.86 733.95 229.06 727.08
  C 226.53 724.52 224.00 718.13 221.62 715.00
  Q 217.18 709.16 210.18 704.14
  A 0.91 0.90 55.4 0 0 209.44 704.00
  L 190.31 708.66
  Z
  M 833.66 708.67
  L 814.54 704.01
  A 0.91 0.90 -55.4 0 0 813.80 704.16
  Q 806.80 709.17 802.37 715.01
  C 799.99 718.14 797.46 724.53 794.94 727.09
  Q 788.14 733.95 778.45 738.71
  Q 777.52 739.17 775.71 740.96
  C 770.43 746.20 778.20 752.00 781.99 754.35
  A 3.06 3.04 -42.9 0 0 785.04 754.45
  C 793.51 749.93 803.51 743.31 809.26 735.71
  C 817.39 724.94 823.93 716.63 833.75 709.12
  A 0.26 0.25 -56.6 0 0 833.66 708.67
  Z"
/>
<path fill="#ffffff" d="
  M 219.65 269.63
  C 218.42 297.97 206.31 323.11 189.77 346.27
  A 0.35 0.35 0.0 0 1 189.13 346.10
  C 187.78 331.84 187.85 314.70 191.32 301.05
  C 194.58 288.22 209.18 277.27 219.10 269.35
  A 0.34 0.34 0.0 0 1 219.65 269.63
  Z"
/>
<path fill="#ffffff" d="
  M 804.33 269.59
  A 0.34 0.34 0.0 0 1 804.88 269.31
  C 814.81 277.24 829.43 288.20 832.69 301.04
  C 836.16 314.70 836.23 331.86 834.88 346.14
  A 0.35 0.35 0.0 0 1 834.24 346.31
  C 817.68 323.12 805.56 297.96 804.33 269.59
  Z"
/>
<path fill="#ffffff" d="
  M 159.50 384.27
  A 0.17 0.17 0.0 0 1 159.18 384.23
  C 156.10 368.20 153.14 352.88 152.77 337.01
  Q 152.41 321.93 157.92 308.73
  C 160.92 301.56 163.10 296.43 168.67 292.27
  A 0.87 0.86 -29.9 0 1 169.98 292.62
  C 177.30 309.76 176.86 329.61 172.64 347.66
  Q 168.17 366.77 159.50 384.27
  Z"
/>
<path fill="#ffffff" d="
  M 864.51 384.29
  Q 855.84 366.79 851.37 347.68
  C 847.15 329.63 846.70 309.78 854.02 292.64
  A 0.87 0.86 29.9 0 1 855.33 292.29
  C 860.90 296.45 863.08 301.58 866.08 308.75
  Q 871.59 321.95 871.24 337.03
  C 870.87 352.90 867.91 368.22 864.83 384.25
  A 0.17 0.17 0.0 0 1 864.51 384.29
  Z"
/>
<path fill="#ffffff" d="
  M 138.26 421.43
  C 119.27 400.51 124.96 366.35 133.01 342.08
  A 0.37 0.37 0.0 0 1 133.63 341.94
  C 152.36 361.48 150.85 399.04 138.87 421.36
  A 0.38 0.38 0.0 0 1 138.26 421.43
  Z"
/>
<path fill="#ffffff" d="
  M 885.74 421.44
  A 0.38 0.38 0.0 0 1 885.13 421.37
  C 873.14 399.02 871.63 361.42 890.38 341.86
  A 0.37 0.37 0.0 0 1 891.00 342.00
  C 899.06 366.29 904.76 400.49 885.74 421.44
  Z"
/>
<path fill="#ffffff" d="
  M 153.16 445.51
  C 151.08 435.79 153.94 425.28 158.25 416.25
  C 170.12 391.39 188.39 369.71 207.39 347.28
  A 0.46 0.46 0.0 0 1 208.16 347.37
  C 212.70 356.75 205.08 372.87 200.42 381.20
  C 187.65 404.00 171.25 424.84 153.99 445.71
  A 0.47 0.47 0.0 0 1 153.16 445.51
  Z"
/>
<path fill="#ffffff" d="
  M 342.65 434.33
  A 0.19 0.19 0.0 0 1 342.43 434.14
  Q 342.50 398.48 342.41 373.25
  C 342.38 365.59 338.26 358.30 330.75 356.06
  Q 327.00 354.94 321.32 355.40
  C 311.17 356.23 305.89 363.65 305.57 373.25
  Q 305.50 375.17 305.55 595.52
  C 305.55 607.69 312.81 614.75 325.03 614.26
  Q 336.81 613.79 340.89 604.47
  Q 342.80 600.10 342.47 589.27
  Q 342.47 589.10 342.45 526.18
  Q 342.45 518.11 341.39 516.45
  Q 338.94 512.58 332.49 513.37
  Q 327.53 513.98 324.63 515.01
  A 0.15 0.14 80.3 0 1 324.44 514.87
  L 324.44 505.14
  A 0.32 0.32 0.0 0 1 324.68 504.83
  L 382.09 490.83
  A 0.19 0.18 82.8 0 1 382.32 491.01
  L 382.32 499.86
  A 0.42 0.42 0.0 0 1 382.00 500.27
  L 355.41 506.75
  A 0.26 0.26 0.0 0 0 355.40 507.26
  C 361.32 508.89 369.43 511.53 370.91 518.27
  Q 371.99 523.14 371.99 527.75
  Q 371.99 590.04 371.98 594.25
  Q 371.97 598.93 368.39 601.37
  Q 363.20 604.91 352.80 612.01
  Q 342.19 619.25 336.32 620.99
  Q 323.82 624.71 311.41 620.85
  Q 306.28 619.26 295.91 612.31
  Q 280.25 601.83 279.51 601.27
  C 275.72 598.40 275.95 595.28 275.96 590.19
  Q 276.03 420.39 275.93 376.24
  Q 275.92 370.92 280.44 367.79
  Q 286.63 363.51 301.48 354.26
  C 316.34 345.01 331.12 344.57 345.97 353.77
  Q 356.57 360.34 367.87 368.05
  C 371.18 370.30 371.99 372.65 372.00 376.92
  Q 372.06 401.12 371.94 423.49
  C 371.92 426.47 370.50 427.57 367.66 428.36
  Q 353.91 432.15 342.65 434.33
  Z"
/>
<path fill="#ffffff" d="
  M 870.85 445.52
  A 0.47 0.47 0.0 0 1 870.02 445.72
  C 852.75 424.84 836.35 404.00 823.58 381.20
  C 818.92 372.86 811.29 356.74 815.83 347.36
  A 0.46 0.46 0.0 0 1 816.61 347.27
  C 835.61 369.70 853.88 391.39 865.75 416.25
  C 870.07 425.28 872.93 435.80 870.85 445.52
  Z"
/>
<path fill="#ffffff" d="
  M 511.90 562.32
  A 0.13 0.13 0.0 0 0 512.16 562.32
  Q 526.14 466.03 526.55 463.21
  Q 531.45 429.45 540.54 371.01
  C 541.87 362.39 544.20 353.74 552.31 349.95
  Q 556.03 348.21 566.42 348.41
  Q 574.03 348.55 582.62 348.41
  A 0.39 0.39 0.0 0 1 583.01 348.80
  Q 582.99 488.15 583.02 606.87
  Q 583.02 610.41 582.10 611.95
  Q 580.75 614.20 577.98 615.00
  Q 568.96 617.60 554.23 620.96
  A 0.64 0.64 0.0 0 1 553.45 620.34
  L 553.45 372.77
  A 0.54 0.54 0.0 0 0 552.62 372.32
  C 549.14 374.56 548.44 379.08 547.88 383.52
  Q 546.00 398.47 542.65 421.49
  Q 518.33 588.66 515.19 609.48
  C 514.81 611.97 514.58 615.29 510.95 616.42
  Q 507.45 617.51 492.90 621.03
  A 0.81 0.79 -11.0 0 1 491.92 620.38
  Q 480.00 544.51 454.96 380.32
  Q 454.25 375.68 450.86 373.41
  A 0.55 0.55 0.0 0 0 450.00 373.87
  L 450.00 619.85
  A 1.16 1.16 0.0 0 1 448.84 621.01
  L 441.04 621.01
  A 1.03 1.02 -0.0 0 1 440.01 619.99
  L 440.01 348.98
  A 0.45 0.45 0.0 0 1 440.45 348.53
  Q 452.40 348.25 460.97 348.72
  C 476.97 349.59 481.05 360.08 483.16 373.97
  Q 497.66 469.13 511.90 562.32
  Z"
/>
<path fill="#ffffff" d="
  M 724.10 489.25
  C 731.01 491.23 739.67 492.80 744.65 497.85
  C 747.46 500.70 748.01 506.17 748.01 510.25
  Q 747.96 564.92 747.97 572.24
  Q 747.97 584.64 744.53 594.76
  C 741.12 604.78 731.72 609.83 721.93 614.91
  Q 710.63 620.78 697.73 620.90
  Q 672.11 621.15 650.81 620.96
  A 0.35 0.35 0.0 0 1 650.46 620.61
  L 650.46 348.80
  A 0.32 0.32 0.0 0 1 650.78 348.48
  Q 678.57 348.31 696.51 348.79
  Q 713.72 349.25 728.16 358.87
  Q 728.30 358.96 733.27 362.25
  C 740.40 366.97 744.33 374.65 745.28 383.24
  C 745.82 388.11 746.32 394.22 746.33 399.26
  Q 746.34 425.31 746.31 467.27
  A 7.49 7.29 -40.2 0 1 746.17 468.70
  C 745.77 470.68 745.61 472.87 744.87 474.90
  C 741.75 483.44 732.32 486.67 724.10 488.72
  A 0.28 0.27 45.7 0 0 724.10 489.25
  Z
  M 680.06 490.69
  Q 694.20 487.94 700.94 486.15
  C 707.25 484.47 713.28 481.51 715.29 474.80
  Q 716.67 470.16 716.67 466.48
  Q 716.68 375.79 716.69 375.60
  Q 716.92 371.13 715.87 368.53
  C 714.28 364.56 711.98 360.97 708.11 359.65
  C 698.93 356.52 691.69 356.74 680.34 356.79
  A 0.59 0.59 0.0 0 0 679.75 357.38
  L 679.75 490.44
  A 0.26 0.26 0.0 0 0 680.06 490.69
  Z
  M 680.37 612.43
  Q 687.21 612.54 698.50 612.41
  C 712.39 612.25 718.50 603.47 718.47 590.24
  Q 718.43 574.25 718.47 501.00
  Q 718.47 498.08 717.25 495.56
  C 714.56 490.01 701.57 495.02 697.01 496.13
  Q 680.96 500.02 680.30 500.20
  A 0.75 0.75 0.0 0 0 679.75 500.92
  L 679.75 611.80
  A 0.63 0.63 0.0 0 0 680.37 612.43
  Z"
/>
<path fill="#1eb1df" d="
  M 680.06 490.69
  A 0.26 0.26 0.0 0 1 679.75 490.44
  L 679.75 357.38
  A 0.59 0.59 0.0 0 1 680.34 356.79
  C 691.69 356.74 698.93 356.52 708.11 359.65
  C 711.98 360.97 714.28 364.56 715.87 368.53
  Q 716.92 371.13 716.69 375.60
  Q 716.68 375.79 716.67 466.48
  Q 716.67 470.16 715.29 474.80
  C 713.28 481.51 707.25 484.47 700.94 486.15
  Q 694.20 487.94 680.06 490.69
  Z"
/>
<path fill="#ffffff" d="
  M 128.93 527.29
  Q 120.55 512.75 117.71 495.64
  Q 112.56 464.63 131.01 439.41
  A 0.25 0.25 0.0 0 1 131.46 439.50
  Q 135.08 455.03 135.98 459.51
  Q 140.01 479.39 136.00 496.49
  Q 131.91 513.92 129.13 527.26
  A 0.11 0.11 0.0 0 1 128.93 527.29
  Z"
/>
<path fill="#ffffff" d="
  M 895.07 527.29
  A 0.11 0.11 0.0 0 1 894.87 527.26
  Q 892.09 513.92 888.00 496.48
  Q 883.99 479.38 888.01 459.49
  Q 888.91 455.01 892.53 439.48
  A 0.25 0.25 0.0 0 1 892.98 439.39
  Q 911.44 464.61 906.29 495.63
  Q 903.45 512.74 895.07 527.29
  Z"
/>
<path fill="#ffffff" d="
  M 91.13 449.77
  C 97.37 457.17 102.29 462.09 104.67 469.46
  A 5.74 5.69 -53.7 0 1 104.95 471.35
  C 104.71 483.29 104.95 494.72 109.70 506.13
  A 0.50 0.50 0.0 0 1 108.94 506.73
  Q 99.47 499.92 93.77 489.96
  C 87.79 479.52 87.14 468.13 88.66 456.51
  Q 89.18 452.52 90.45 449.86
  A 0.41 0.41 0.0 0 1 91.13 449.77
  Z"
/>
<path fill="#ffffff" d="
  M 933.55 449.88
  Q 934.82 452.53 935.34 456.52
  C 936.86 468.13 936.21 479.51 930.24 489.94
  Q 924.55 499.89 915.09 506.70
  A 0.50 0.50 0.0 0 1 914.33 506.10
  C 919.07 494.70 919.31 483.28 919.06 471.35
  A 5.73 5.69 53.6 0 1 919.34 469.46
  C 921.72 462.10 926.63 457.18 932.87 449.79
  A 0.41 0.40 52.0 0 1 933.55 449.88
  Z"
/>
<path fill="#ffffff" d="
  M 147.54 607.25
  C 138.42 596.51 137.47 579.50 138.05 564.99
  C 138.93 543.40 142.89 521.78 147.74 501.47
  Q 152.58 481.17 158.46 459.48
  A 0.43 0.43 0.0 0 1 159.23 459.35
  C 169.07 474.28 171.72 490.90 169.59 508.53
  Q 168.04 521.35 164.48 534.25
  Q 157.89 558.08 154.22 571.95
  Q 149.58 589.53 148.13 607.06
  A 0.34 0.33 27.0 0 1 147.54 607.25
  Z"
/>
<path fill="#ffffff" d="
  M 876.47 607.25
  A 0.34 0.33 -27.0 0 1 875.88 607.06
  Q 874.43 589.53 869.79 571.95
  Q 866.12 558.08 859.53 534.25
  Q 855.97 521.35 854.42 508.53
  C 852.29 490.90 854.94 474.28 864.78 459.35
  A 0.43 0.43 0.0 0 1 865.55 459.48
  Q 871.43 481.17 876.27 501.47
  C 881.12 521.78 885.08 543.40 885.96 564.99
  C 886.54 579.50 885.59 596.51 876.47 607.25
  Z"
/>
<path fill="#1eb1df" d="
  M 679.75 611.80
  L 679.75 500.92
  A 0.75 0.75 0.0 0 1 680.30 500.20
  Q 680.96 500.02 697.01 496.13
  C 701.57 495.02 714.56 490.01 717.25 495.56
  Q 718.47 498.08 718.47 501.00
  Q 718.43 574.25 718.47 590.24
  C 718.50 603.47 712.39 612.25 698.50 612.41
  Q 687.21 612.54 680.37 612.43
  A 0.63 0.63 0.0 0 1 679.75 611.80
  Z"
/>
<path fill="#ffffff" d="
  M 74.63 507.55
  Q 78.70 507.70 83.86 509.42
  C 101.34 515.25 116.28 527.05 124.61 543.66
  A 2.10 2.02 -57.9 0 1 124.83 544.71
  L 123.90 566.18
  A 0.45 0.45 0.0 0 1 123.25 566.57
  Q 86.02 548.44 74.16 508.15
  A 0.47 0.47 0.0 0 1 74.63 507.55
  Z"
/>
<path fill="#ffffff" d="
  M 949.38 507.54
  A 0.47 0.47 0.0 0 1 949.85 508.14
  Q 937.99 548.43 900.75 566.56
  A 0.45 0.45 0.0 0 1 900.10 566.17
  L 899.17 544.70
  A 2.10 2.02 57.9 0 1 899.39 543.65
  C 907.72 527.04 922.67 515.24 940.15 509.41
  Q 945.31 507.69 949.38 507.54
  Z"
/>
<path fill="#ffffff" d="
  M 180.87 662.55
  C 165.34 652.25 159.50 632.31 160.53 614.50
  Q 161.45 598.49 166.59 583.23
  A 0.31 0.31 0.0 0 1 167.10 583.11
  C 188.89 604.23 202.22 634.69 181.95 662.35
  A 0.80 0.80 0.0 0 1 180.87 662.55
  Z"
/>
<path fill="#ffffff" d="
  M 843.14 662.55
  A 0.80 0.80 0.0 0 1 842.06 662.35
  C 821.79 634.69 835.11 604.23 856.90 583.11
  A 0.31 0.31 0.0 0 1 857.41 583.23
  Q 862.55 598.49 863.47 614.50
  C 864.51 632.31 858.67 652.25 843.14 662.55
  Z"
/>
<path fill="#ffffff" d="
  M 154.92 653.30
  Q 133.62 642.17 133.27 641.99
  C 119.54 634.77 102.86 625.31 99.23 608.86
  A 0.56 0.55 -11.0 0 1 99.68 608.20
  C 116.39 605.18 134.38 614.35 146.04 625.93
  A 1.41 1.38 19.4 0 1 146.44 626.74
  Q 148.21 640.71 155.16 653.05
  A 0.18 0.18 0.0 0 1 154.92 653.30
  Z"
/>
<path fill="#ffffff" d="
  M 869.08 653.30
  A 0.18 0.18 0.0 0 1 868.84 653.05
  Q 875.79 640.71 877.56 626.74
  A 1.41 1.38 -19.4 0 1 877.96 625.93
  C 889.62 614.35 907.62 605.18 924.33 608.20
  A 0.56 0.55 11.0 0 1 924.78 608.86
  C 921.14 625.31 904.46 634.77 890.73 641.99
  Q 890.38 642.17 869.08 653.30
  Z"
/>
<path fill="#ffffff" d="
  M 207.51 692.28
  Q 202.93 682.35 196.02 673.68
  A 1.31 1.30 22.9 0 1 195.74 673.00
  Q 195.23 668.32 197.44 657.50
  C 199.34 648.19 203.61 638.28 210.70 632.26
  A 0.53 0.53 0.0 0 1 211.54 632.46
  Q 217.35 646.64 215.68 662.29
  Q 214.06 677.51 207.98 692.27
  A 0.26 0.26 0.0 0 1 207.51 692.28
  Z"
/>
<path fill="#ffffff" d="
  M 816.48 692.28
  A 0.26 0.26 0.0 0 1 816.01 692.27
  Q 809.94 677.51 808.32 662.30
  Q 806.66 646.65 812.47 632.48
  A 0.53 0.53 0.0 0 1 813.31 632.28
  C 820.40 638.30 824.66 648.21 826.56 657.52
  Q 828.76 668.33 828.25 673.01
  A 1.31 1.30 -22.9 0 1 827.97 673.69
  Q 821.06 682.35 816.48 692.28
  Z"
/>
<path fill="#ffffff" d="
  M 102.47 659.21
  Q 130.85 659.04 156.69 667.31
  C 172.44 672.34 187.97 681.34 196.88 695.03
  A 0.57 0.57 0.0 0 1 196.53 695.90
  C 160.01 704.18 125.63 686.67 102.40 659.36
  A 0.09 0.09 0.0 0 1 102.47 659.21
  Z"
/>
<path fill="#ffffff" d="
  M 921.55 659.19
  A 0.09 0.09 0.0 0 1 921.62 659.34
  C 898.39 686.66 864.00 704.18 827.47 695.91
  A 0.57 0.57 0.0 0 1 827.12 695.04
  C 836.03 681.34 851.56 672.34 867.32 667.30
  Q 893.16 659.02 921.55 659.19
  Z"
/>
<path fill="#ffffff" d="
  M 382.55 664.39
  Q 382.59 664.39 382.62 664.41
  A 0.24 0.15 5.9 0 1 382.74 664.50
  Q 383.70 666.37 392.97 685.17
  Q 392.98 685.19 393.11 685.29
  Q 393.24 685.38 393.25 685.38
  Q 414.00 688.38 416.07 688.71
  A 0.24 0.15 66.0 0 1 416.20 688.80
  Q 416.23 688.83 416.24 688.86
  Q 416.25 688.90 416.25 688.94
  A 0.24 0.15 77.9 0 1 416.19 689.08
  Q 414.71 690.57 399.70 705.19
  Q 399.68 705.21 399.63 705.37
  Q 399.58 705.51 399.59 705.53
  Q 403.15 726.19 403.47 728.26
  A 0.24 0.15 -42.0 0 1 403.43 728.41
  Q 403.41 728.44 403.38 728.46
  Q 403.35 728.49 403.31 728.50
  A 0.24 0.15 -30.1 0 1 403.15 728.49
  Q 401.29 727.54 382.73 717.78
  Q 382.72 717.77 382.55 717.77
  Q 382.39 717.77 382.38 717.78
  Q 363.83 727.55 361.96 728.50
  A 0.24 0.15 30.0 0 1 361.81 728.51
  Q 361.77 728.49 361.74 728.47
  Q 361.71 728.45 361.69 728.42
  A 0.24 0.15 41.9 0 1 361.64 728.27
  Q 361.97 726.20 365.52 705.54
  Q 365.52 705.52 365.47 705.36
  Q 365.42 705.21 365.41 705.20
  Q 350.39 690.58 348.91 689.09
  A 0.24 0.15 -78.0 0 1 348.85 688.95
  Q 348.85 688.91 348.87 688.87
  Q 348.88 688.84 348.90 688.81
  A 0.24 0.15 -66.1 0 1 349.03 688.72
  Q 351.10 688.39 371.85 685.38
  Q 371.86 685.38 371.99 685.29
  Q 372.13 685.19 372.13 685.18
  Q 381.40 666.37 382.35 664.50
  A 0.24 0.15 -6.0 0 1 382.47 664.41
  Q 382.51 664.39 382.55 664.39
  Z"
/>
<path fill="#ffffff" d="
  M 501.44 685.31
  Q 501.58 685.21 501.59 685.19
  Q 510.84 666.41 511.79 664.55
  A 0.24 0.15 -5.9 0 1 511.92 664.45
  Q 511.95 664.44 511.99 664.44
  Q 512.03 664.44 512.06 664.45
  A 0.24 0.15 5.9 0 1 512.19 664.55
  Q 513.14 666.41 522.39 685.19
  Q 522.40 685.21 522.54 685.31
  Q 522.66 685.40 522.68 685.40
  Q 543.40 688.40 545.47 688.73
  A 0.24 0.15 66.1 0 1 545.60 688.82
  Q 545.62 688.85 545.63 688.88
  Q 545.65 688.92 545.65 688.96
  A 0.24 0.15 77.9 0 1 545.59 689.10
  Q 544.11 690.58 529.11 705.19
  Q 529.10 705.20 529.05 705.36
  Q 529.00 705.51 529.00 705.53
  Q 532.55 726.16 532.88 728.23
  A 0.24 0.15 -41.9 0 1 532.84 728.38
  Q 532.81 728.41 532.79 728.43
  Q 532.75 728.46 532.72 728.47
  A 0.24 0.15 -30.1 0 1 532.56 728.46
  Q 530.69 727.51 512.17 717.76
  Q 512.15 717.75 511.98 717.75
  Q 511.83 717.75 511.81 717.76
  Q 493.29 727.51 491.42 728.46
  A 0.24 0.15 30.1 0 1 491.26 728.47
  Q 491.23 728.46 491.20 728.43
  Q 491.17 728.41 491.14 728.38
  A 0.24 0.15 41.9 0 1 491.10 728.23
  Q 491.43 726.16 494.98 705.53
  Q 494.98 705.51 494.93 705.35
  Q 494.88 705.20 494.87 705.19
  Q 479.87 690.58 478.39 689.10
  A 0.24 0.15 -77.9 0 1 478.33 688.96
  Q 478.33 688.92 478.35 688.88
  Q 478.36 688.85 478.38 688.82
  A 0.24 0.15 -66.1 0 1 478.51 688.73
  Q 480.58 688.40 501.30 685.40
  Q 501.32 685.40 501.44 685.31
  Z"
/>
<path fill="#ffffff" d="
  M 630.88 685.29
  Q 631.02 685.19 631.03 685.17
  Q 640.30 666.37 641.26 664.50
  A 0.24 0.15 -5.9 0 1 641.38 664.41
  Q 641.41 664.39 641.45 664.39
  Q 641.49 664.39 641.53 664.41
  A 0.24 0.15 6.0 0 1 641.65 664.50
  Q 642.60 666.37 651.86 685.18
  Q 651.87 685.19 652.01 685.29
  Q 652.13 685.38 652.15 685.39
  Q 672.90 688.40 674.97 688.73
  A 0.24 0.15 66.1 0 1 675.10 688.81
  Q 675.12 688.84 675.13 688.88
  Q 675.14 688.92 675.14 688.95
  A 0.24 0.15 78.0 0 1 675.09 689.10
  Q 673.61 690.58 658.58 705.20
  Q 658.57 705.22 658.52 705.38
  Q 658.47 705.52 658.47 705.54
  Q 662.02 726.20 662.34 728.27
  A 0.24 0.15 -41.9 0 1 662.30 728.42
  Q 662.28 728.46 662.25 728.48
  Q 662.22 728.50 662.18 728.51
  A 0.24 0.15 -30.0 0 1 662.03 728.50
  Q 660.16 727.55 641.61 717.78
  Q 641.60 717.77 641.43 717.77
  Q 641.27 717.77 641.26 717.78
  Q 622.70 727.54 620.83 728.49
  A 0.24 0.15 30.1 0 1 620.68 728.50
  Q 620.64 728.48 620.61 728.46
  Q 620.58 728.44 620.56 728.41
  A 0.24 0.15 42.0 0 1 620.51 728.26
  Q 620.84 726.19 624.40 705.53
  Q 624.41 705.51 624.35 705.35
  Q 624.31 705.20 624.30 705.19
  Q 609.28 690.56 607.80 689.08
  A 0.24 0.15 -77.9 0 1 607.75 688.93
  Q 607.74 688.89 607.76 688.86
  Q 607.77 688.82 607.79 688.79
  A 0.24 0.15 -66.0 0 1 607.92 688.70
  Q 609.99 688.37 630.74 685.38
  Q 630.76 685.38 630.88 685.29
  Z"
/>
<path fill="#ffffff" d="
  M 190.31 708.66
  L 209.44 704.00
  A 0.91 0.90 55.4 0 1 210.18 704.14
  Q 217.18 709.16 221.62 715.00
  C 224.00 718.13 226.53 724.52 229.06 727.08
  Q 235.86 733.95 245.56 738.71
  Q 246.49 739.17 248.30 740.96
  C 253.59 746.20 245.81 752.00 242.02 754.36
  A 3.06 3.04 42.9 0 1 238.97 754.46
  C 230.49 749.94 220.49 743.32 214.73 735.71
  C 206.59 724.94 200.05 716.63 190.22 709.11
  A 0.26 0.25 56.6 0 1 190.31 708.66
  Z"
/>
<path fill="#ffffff" d="
  M 833.66 708.67
  A 0.26 0.25 -56.6 0 1 833.75 709.12
  C 823.93 716.63 817.39 724.94 809.26 735.71
  C 803.51 743.31 793.51 749.93 785.04 754.45
  A 3.06 3.04 -42.9 0 1 781.99 754.35
  C 778.20 752.00 770.43 746.20 775.71 740.96
  Q 777.52 739.17 778.45 738.71
  Q 788.14 733.95 794.94 727.09
  C 797.46 724.53 799.99 718.14 802.37 715.01
  Q 806.80 709.17 813.80 704.16
  A 0.91 0.90 -55.4 0 1 814.54 704.01
  L 833.66 708.67
  Z"
/>
</svg>
