<svg width="138" height="381" viewBox="0 0 138 381" fill="none" xmlns="http://www.w3.org/2000/svg">
<path d="M69.0575 368.124H68.8911C37.8695 368.124 12.5561 343.159 12.5561 312.137V218.629C12.5561 203.055 19.0808 188.177 30.4707 177.555L68.8112 141.819L107.356 177.555C118.746 188.18 125.446 203.055 125.446 218.629V312.137C125.446 343.159 100.079 368.124 69.0575 368.124ZM12.5561 65.8257V65.8811C12.8711 80.814 18.8035 94.773 29.6099 104.852L68.9488 141.437L108.283 104.841C119.09 94.7596 125.128 80.5921 125.444 65.8545V65.8257C125.444 36.3925 101.146 12.4746 71.7109 12.4746H65.9626C36.5295 12.4746 12.5539 36.3925 12.5539 65.8257H12.5561Z" stroke="url(#paint0_linear_2_52)" stroke-width="24.0577" stroke-miterlimit="10"/>
<defs>
<linearGradient id="paint0_linear_2_52" x1="178.504" y1="79.9887" x2="-40.5974" y2="299.088" gradientUnits="userSpaceOnUse">
<stop stop-color="#01E2E0"/>
<stop offset="1" stop-color="#01A9F2"/>
</linearGradient>
</defs>
</svg>
