<?xml version="1.0" encoding="UTF-8" standalone="no"?>
<!DOCTYPE svg PUBLIC "-//W3C//DTD SVG 1.1//EN" "http://www.w3.org/Graphics/SVG/1.1/DTD/svg11.dtd">
<svg xmlns="http://www.w3.org/2000/svg" version="1.1" viewBox="0.00 0.00 200.00 200.00">
<g stroke-width="2.00" fill="none" stroke-linecap="butt">
<path stroke="#7ce2f3" vector-effect="non-scaling-stroke" d="
  M 100.22 176.65
  C 115.98 176.65 127.56 164.41 127.83 148.74
  Q 127.89 145.15 127.80 110.75
  C 127.77 96.50 116.66 89.99 107.67 80.93
  A 0.54 0.54 0.0 0 1 107.67 80.17
  C 111.44 76.33 121.25 68.92 124.57 62.57
  C 129.73 52.68 128.66 41.37 121.47 32.95
  C 116.17 26.74 108.94 23.68 100.21 23.68
  C 91.47 23.68 84.24 26.74 78.95 32.95
  C 71.76 41.38 70.69 52.69 75.85 62.57
  C 79.17 68.92 88.98 76.33 92.75 80.17
  A 0.54 0.54 0.0 0 1 92.75 80.93
  C 83.76 89.99 72.66 96.51 72.63 110.76
  Q 72.55 145.16 72.61 148.75
  C 72.88 164.42 84.47 176.66 100.22 176.65"
/>
<path stroke="#7fe2f3" vector-effect="non-scaling-stroke" d="
  M 100.29 73.65
  Q 100.34 73.65 100.38 73.65
  A 0.24 0.10 2.8 0 0 100.55 73.59
  Q 102.19 71.86 109.26 65.59
  Q 115.08 60.42 116.71 56.62
  C 121.86 44.60 112.72 33.28 100.20 33.30
  C 87.67 33.33 78.59 44.70 83.79 56.69
  Q 85.44 60.49 91.28 65.63
  Q 98.38 71.87 100.02 73.59
  A 0.24 0.10 -3.0 0 0 100.19 73.65
  Q 100.24 73.65 100.29 73.65"
/>
<path stroke="#7fe2f3" vector-effect="non-scaling-stroke" d="
  M 100.25 166.93
  C 108.01 166.93 114.67 162.20 117.24 154.88
  Q 118.18 152.18 118.16 146.00
  Q 118.09 124.57 118.16 115.02
  C 118.22 107.66 116.97 102.73 111.88 98.04
  Q 106.79 93.35 100.69 87.75
  Q 100.41 87.48 100.22 87.48
  Q 100.04 87.48 99.75 87.75
  Q 93.65 93.35 88.57 98.05
  C 83.48 102.74 82.23 107.67 82.30 115.03
  Q 82.37 124.58 82.32 146.01
  Q 82.30 152.19 83.25 154.89
  C 85.82 162.21 92.48 166.93 100.25 166.93"
/>
</g>
<path fill="#f6feff" d="
  M 200.00 0.00
  L 200.00 200.00
  L 0.00 200.00
  L 0.00 0.00
  L 200.00 0.00
  Z
  M 100.22 176.65
  C 115.98 176.65 127.56 164.41 127.83 148.74
  Q 127.89 145.15 127.80 110.75
  C 127.77 96.50 116.66 89.99 107.67 80.93
  A 0.54 0.54 0.0 0 1 107.67 80.17
  C 111.44 76.33 121.25 68.92 124.57 62.57
  C 129.73 52.68 128.66 41.37 121.47 32.95
  C 116.17 26.74 108.94 23.68 100.21 23.68
  C 91.47 23.68 84.24 26.74 78.95 32.95
  C 71.76 41.38 70.69 52.69 75.85 62.57
  C 79.17 68.92 88.98 76.33 92.75 80.17
  A 0.54 0.54 0.0 0 1 92.75 80.93
  C 83.76 89.99 72.66 96.51 72.63 110.76
  Q 72.55 145.16 72.61 148.75
  C 72.88 164.42 84.47 176.66 100.22 176.65
  Z"
/>
<path fill="#01c6e7" d="
  M 100.21 23.68
  C 108.94 23.68 116.17 26.74 121.47 32.95
  C 128.66 41.37 129.73 52.68 124.57 62.57
  C 121.25 68.92 111.44 76.33 107.67 80.17
  A 0.54 0.54 0.0 0 0 107.67 80.93
  C 116.66 89.99 127.77 96.50 127.80 110.75
  Q 127.89 145.15 127.83 148.74
  C 127.56 164.41 115.98 176.65 100.22 176.65
  C 84.47 176.66 72.88 164.42 72.61 148.75
  Q 72.55 145.16 72.63 110.76
  C 72.66 96.51 83.76 89.99 92.75 80.93
  A 0.54 0.54 0.0 0 0 92.75 80.17
  C 88.98 76.33 79.17 68.92 75.85 62.57
  C 70.69 52.69 71.76 41.38 78.95 32.95
  C 84.24 26.74 91.47 23.68 100.21 23.68
  Z
  M 100.29 73.65
  Q 100.34 73.65 100.38 73.65
  A 0.24 0.10 2.8 0 0 100.55 73.59
  Q 102.19 71.86 109.26 65.59
  Q 115.08 60.42 116.71 56.62
  C 121.86 44.60 112.72 33.28 100.20 33.30
  C 87.67 33.33 78.59 44.70 83.79 56.69
  Q 85.44 60.49 91.28 65.63
  Q 98.38 71.87 100.02 73.59
  A 0.24 0.10 -3.0 0 0 100.19 73.65
  Q 100.24 73.65 100.29 73.65
  Z
  M 100.25 166.93
  C 108.01 166.93 114.67 162.20 117.24 154.88
  Q 118.18 152.18 118.16 146.00
  Q 118.09 124.57 118.16 115.02
  C 118.22 107.66 116.97 102.73 111.88 98.04
  Q 106.79 93.35 100.69 87.75
  Q 100.41 87.48 100.22 87.48
  Q 100.04 87.48 99.75 87.75
  Q 93.65 93.35 88.57 98.05
  C 83.48 102.74 82.23 107.67 82.30 115.03
  Q 82.37 124.58 82.32 146.01
  Q 82.30 152.19 83.25 154.89
  C 85.82 162.21 92.48 166.93 100.25 166.93
  Z"
/>
<path fill="#fdfeff" d="
  M 100.20 33.30
  C 112.72 33.28 121.86 44.60 116.71 56.62
  Q 115.08 60.42 109.26 65.59
  Q 102.19 71.86 100.55 73.59
  A 0.24 0.10 2.8 0 1 100.38 73.65
  Q 100.34 73.65 100.29 73.65
  Q 100.24 73.65 100.19 73.65
  A 0.24 0.10 -3.0 0 1 100.02 73.59
  Q 98.38 71.87 91.28 65.63
  Q 85.44 60.49 83.79 56.69
  C 78.59 44.70 87.67 33.33 100.20 33.30
  Z"
/>
<path fill="#fdfeff" d="
  M 100.22 87.48
  Q 100.41 87.48 100.69 87.75
  Q 106.79 93.35 111.88 98.04
  C 116.97 102.73 118.22 107.66 118.16 115.02
  Q 118.09 124.57 118.16 146.00
  Q 118.18 152.18 117.24 154.88
  C 114.67 162.20 108.01 166.93 100.25 166.93
  C 92.48 166.93 85.82 162.21 83.25 154.89
  Q 82.30 152.19 82.32 146.01
  Q 82.37 124.58 82.30 115.03
  C 82.23 107.67 83.48 102.74 88.57 98.05
  Q 93.65 93.35 99.75 87.75
  Q 100.04 87.48 100.22 87.48
  Z"
/>
</svg>
