<?xml version="1.0" encoding="UTF-8" standalone="no"?>
<!DOCTYPE svg PUBLIC "-//W3C//DTD SVG 1.1//EN" "http://www.w3.org/Graphics/SVG/1.1/DTD/svg11.dtd">
<svg xmlns="http://www.w3.org/2000/svg" version="1.1" viewBox="0.00 0.00 225.00 225.00">
<g stroke-width="2.00" fill="none" stroke-linecap="butt">
<path stroke="#ab82c5" vector-effect="non-scaling-stroke" d="
  M 158.31 46.68
  A 0.72 0.72 0.0 0 0 157.59 45.96
  L 66.95 45.96
  A 0.72 0.72 0.0 0 0 66.23 46.68
  L 66.23 137.32
  A 0.72 0.72 0.0 0 0 66.95 138.04
  L 157.59 138.04
  A 0.72 0.72 0.0 0 0 158.31 137.32
  L 158.31 46.68"
/>
<path stroke="#ab82c5" vector-effect="non-scaling-stroke" d="
  M 93.37 147.13
  L 87.62 147.13
  A 0.46 0.45 0.0 0 0 87.16 147.58
  L 87.16 165.23
  A 0.34 0.33 -63.9 0 1 86.56 165.44
  L 73.13 147.80
  A 1.72 1.70 -18.4 0 0 71.77 147.13
  L 66.89 147.13
  A 0.69 0.69 0.0 0 0 66.20 147.82
  L 66.20 177.77
  A 0.53 0.53 0.0 0 0 66.73 178.30
  L 72.45 178.30
  A 0.58 0.58 0.0 0 0 73.03 177.72
  L 73.03 159.34
  A 0.22 0.22 0.0 0 1 73.36 159.15
  Q 73.71 159.36 74.01 159.75
  Q 86.90 176.78 87.63 177.74
  A 1.28 1.25 -16.8 0 0 88.61 178.25
  L 93.13 178.34
  A 0.76 0.76 0.0 0 0 93.91 177.58
  L 93.91 147.67
  A 0.54 0.54 0.0 0 0 93.37 147.13"
/>
<path stroke="#ab82c5" vector-effect="non-scaling-stroke" d="
  M 112.79 178.32
  Q 115.13 178.32 115.62 178.28
  A 0.70 0.70 0.0 0 0 116.26 177.58
  L 116.26 167.31
  A 4.81 4.77 61.3 0 1 117.00 164.75
  L 128.15 147.26
  A 0.08 0.08 0.0 0 0 128.08 147.14
  L 120.36 147.14
  A 0.27 0.27 0.0 0 0 120.13 147.27
  L 113.14 159.01
  A 0.42 0.22 -4.3 0 1 112.92 159.15
  Q 112.86 159.16 112.80 159.16
  Q 112.73 159.16 112.68 159.15
  A 0.42 0.22 4.4 0 1 112.45 159.01
  L 105.48 147.26
  A 0.27 0.27 0.0 0 0 105.25 147.13
  L 97.53 147.12
  A 0.08 0.08 0.0 0 0 97.46 147.24
  L 108.59 164.75
  A 4.81 4.77 -61.3 0 1 109.32 167.31
  L 109.31 177.58
  A 0.70 0.70 0.0 0 0 109.95 178.27
  Q 110.44 178.32 112.79 178.32"
/>
<path stroke="#ab82c5" vector-effect="non-scaling-stroke" d="
  M 144.71 178.78
  C 152.21 178.77 157.62 174.79 158.18 166.96
  Q 158.49 162.57 158.26 147.79
  A 0.68 0.68 0.0 0 0 157.58 147.12
  L 152.04 147.12
  A 0.68 0.67 -90.0 0 0 151.37 147.80
  Q 151.35 160.57 151.39 165.02
  C 151.43 169.43 149.11 172.41 144.70 172.41
  C 140.30 172.41 137.97 169.44 138.00 165.03
  Q 138.04 160.58 138.00 147.81
  A 0.68 0.67 89.9 0 0 137.33 147.13
  L 131.79 147.14
  A 0.68 0.68 0.0 0 0 131.11 147.81
  Q 130.90 162.59 131.22 166.98
  C 131.79 174.81 137.20 178.78 144.71 178.78"
/>
<path stroke="#ab82c5" vector-effect="non-scaling-stroke" d="
  M 113.97 61.19
  Q 110.94 66.73 106.21 71.96
  C 99.48 79.37 99.39 87.53 108.44 93.18
  A 0.36 0.36 0.0 0 0 108.96 92.73
  C 105.62 85.26 109.49 77.49 115.79 73.07
  A 3.05 3.04 65.0 0 0 116.98 69.79
  L 114.70 61.27
  A 0.40 0.39 -38.3 0 0 113.97 61.19"
/>
<path stroke="#ab82c5" vector-effect="non-scaling-stroke" d="
  M 111.23 92.28
  C 113.60 84.57 117.42 81.41 124.04 78.57
  A 2.25 2.24 -9.1 0 0 125.39 76.71
  Q 125.80 72.10 123.71 66.93
  A 0.47 0.47 0.0 0 0 122.86 66.91
  Q 120.83 71.07 117.56 73.91
  C 111.65 79.03 107.78 84.34 110.63 92.29
  A 0.32 0.32 0.0 0 0 111.23 92.28"
/>
<path stroke="#ab82c5" vector-effect="non-scaling-stroke" d="
  M 106.16 93.67
  Q 95.21 86.42 101.82 74.91
  A 1.88 1.87 -37.7 0 0 102.00 73.52
  L 100.75 68.87
  A 0.62 0.62 0.0 0 0 99.56 68.85
  Q 98.49 72.40 96.45 75.64
  Q 93.81 79.86 93.59 82.42
  C 92.89 90.60 98.97 93.81 106.00 94.16
  A 0.27 0.27 0.0 0 0 106.16 93.67"
/>
<path stroke="#ab82c5" vector-effect="non-scaling-stroke" d="
  M 130.55 74.47
  C 128.06 78.28 126.08 79.76 121.72 81.93
  Q 114.79 85.38 112.94 93.40
  A 0.62 0.62 0.0 0 0 113.54 94.16
  Q 125.97 94.26 129.63 83.13
  Q 131.02 78.87 131.19 74.68
  A 0.35 0.35 0.0 0 0 130.55 74.47"
/>
<path stroke="#ab82c5" vector-effect="non-scaling-stroke" d="
  M 116.82 96.47
  A 0.32 0.32 0.0 0 0 116.50 96.15
  L 103.96 96.15
  A 0.32 0.32 0.0 0 0 103.64 96.47
  L 103.64 99.53
  A 0.32 0.32 0.0 0 0 103.96 99.85
  L 116.50 99.85
  A 0.32 0.32 0.0 0 0 116.82 99.53
  L 116.82 96.47"
/>
<path stroke="#ab82c5" vector-effect="non-scaling-stroke" d="
  M 109.97 127.81
  Q 110.55 127.81 110.76 127.46
  A 0.83 0.79 -27.6 0 0 110.87 127.14
  L 113.97 102.27
  A 0.36 0.35 -86.0 0 0 113.62 101.87
  Q 112.14 101.83 110.20 101.81
  Q 108.26 101.80 106.78 101.80
  A 0.36 0.35 87.1 0 0 106.42 102.20
  L 109.08 127.12
  A 0.83 0.79 28.6 0 0 109.19 127.45
  Q 109.39 127.80 109.97 127.81"
/>
</g>
<path fill="#57058b" d="
  M 225.00 0.00
  L 225.00 225.00
  L 0.00 225.00
  L 0.00 0.00
  L 225.00 0.00
  Z
  M 158.31 46.68
  A 0.72 0.72 0.0 0 0 157.59 45.96
  L 66.95 45.96
  A 0.72 0.72 0.0 0 0 66.23 46.68
  L 66.23 137.32
  A 0.72 0.72 0.0 0 0 66.95 138.04
  L 157.59 138.04
  A 0.72 0.72 0.0 0 0 158.31 137.32
  L 158.31 46.68
  Z
  M 93.37 147.13
  L 87.62 147.13
  A 0.46 0.45 0.0 0 0 87.16 147.58
  L 87.16 165.23
  A 0.34 0.33 -63.9 0 1 86.56 165.44
  L 73.13 147.80
  A 1.72 1.70 -18.4 0 0 71.77 147.13
  L 66.89 147.13
  A 0.69 0.69 0.0 0 0 66.20 147.82
  L 66.20 177.77
  A 0.53 0.53 0.0 0 0 66.73 178.30
  L 72.45 178.30
  A 0.58 0.58 0.0 0 0 73.03 177.72
  L 73.03 159.34
  A 0.22 0.22 0.0 0 1 73.36 159.15
  Q 73.71 159.36 74.01 159.75
  Q 86.90 176.78 87.63 177.74
  A 1.28 1.25 -16.8 0 0 88.61 178.25
  L 93.13 178.34
  A 0.76 0.76 0.0 0 0 93.91 177.58
  L 93.91 147.67
  A 0.54 0.54 0.0 0 0 93.37 147.13
  Z
  M 112.79 178.32
  Q 115.13 178.32 115.62 178.28
  A 0.70 0.70 0.0 0 0 116.26 177.58
  L 116.26 167.31
  A 4.81 4.77 61.3 0 1 117.00 164.75
  L 128.15 147.26
  A 0.08 0.08 0.0 0 0 128.08 147.14
  L 120.36 147.14
  A 0.27 0.27 0.0 0 0 120.13 147.27
  L 113.14 159.01
  A 0.42 0.22 -4.3 0 1 112.92 159.15
  Q 112.86 159.16 112.80 159.16
  Q 112.73 159.16 112.68 159.15
  A 0.42 0.22 4.4 0 1 112.45 159.01
  L 105.48 147.26
  A 0.27 0.27 0.0 0 0 105.25 147.13
  L 97.53 147.12
  A 0.08 0.08 0.0 0 0 97.46 147.24
  L 108.59 164.75
  A 4.81 4.77 -61.3 0 1 109.32 167.31
  L 109.31 177.58
  A 0.70 0.70 0.0 0 0 109.95 178.27
  Q 110.44 178.32 112.79 178.32
  Z
  M 144.71 178.78
  C 152.21 178.77 157.62 174.79 158.18 166.96
  Q 158.49 162.57 158.26 147.79
  A 0.68 0.68 0.0 0 0 157.58 147.12
  L 152.04 147.12
  A 0.68 0.67 -90.0 0 0 151.37 147.80
  Q 151.35 160.57 151.39 165.02
  C 151.43 169.43 149.11 172.41 144.70 172.41
  C 140.30 172.41 137.97 169.44 138.00 165.03
  Q 138.04 160.58 138.00 147.81
  A 0.68 0.67 89.9 0 0 137.33 147.13
  L 131.79 147.14
  A 0.68 0.68 0.0 0 0 131.11 147.81
  Q 130.90 162.59 131.22 166.98
  C 131.79 174.81 137.20 178.78 144.71 178.78
  Z"
/>
<path fill="#ffffff" d="
  M 158.31 137.32
  A 0.72 0.72 0.0 0 1 157.59 138.04
  L 66.95 138.04
  A 0.72 0.72 0.0 0 1 66.23 137.32
  L 66.23 46.68
  A 0.72 0.72 0.0 0 1 66.95 45.96
  L 157.59 45.96
  A 0.72 0.72 0.0 0 1 158.31 46.68
  L 158.31 137.32
  Z
  M 113.97 61.19
  Q 110.94 66.73 106.21 71.96
  C 99.48 79.37 99.39 87.53 108.44 93.18
  A 0.36 0.36 0.0 0 0 108.96 92.73
  C 105.62 85.26 109.49 77.49 115.79 73.07
  A 3.05 3.04 65.0 0 0 116.98 69.79
  L 114.70 61.27
  A 0.40 0.39 -38.3 0 0 113.97 61.19
  Z
  M 111.23 92.28
  C 113.60 84.57 117.42 81.41 124.04 78.57
  A 2.25 2.24 -9.1 0 0 125.39 76.71
  Q 125.80 72.10 123.71 66.93
  A 0.47 0.47 0.0 0 0 122.86 66.91
  Q 120.83 71.07 117.56 73.91
  C 111.65 79.03 107.78 84.34 110.63 92.29
  A 0.32 0.32 0.0 0 0 111.23 92.28
  Z
  M 106.16 93.67
  Q 95.21 86.42 101.82 74.91
  A 1.88 1.87 -37.7 0 0 102.00 73.52
  L 100.75 68.87
  A 0.62 0.62 0.0 0 0 99.56 68.85
  Q 98.49 72.40 96.45 75.64
  Q 93.81 79.86 93.59 82.42
  C 92.89 90.60 98.97 93.81 106.00 94.16
  A 0.27 0.27 0.0 0 0 106.16 93.67
  Z
  M 130.55 74.47
  C 128.06 78.28 126.08 79.76 121.72 81.93
  Q 114.79 85.38 112.94 93.40
  A 0.62 0.62 0.0 0 0 113.54 94.16
  Q 125.97 94.26 129.63 83.13
  Q 131.02 78.87 131.19 74.68
  A 0.35 0.35 0.0 0 0 130.55 74.47
  Z
  M 116.82 96.47
  A 0.32 0.32 0.0 0 0 116.50 96.15
  L 103.96 96.15
  A 0.32 0.32 0.0 0 0 103.64 96.47
  L 103.64 99.53
  A 0.32 0.32 0.0 0 0 103.96 99.85
  L 116.50 99.85
  A 0.32 0.32 0.0 0 0 116.82 99.53
  L 116.82 96.47
  Z
  M 109.97 127.81
  Q 110.55 127.81 110.76 127.46
  A 0.83 0.79 -27.6 0 0 110.87 127.14
  L 113.97 102.27
  A 0.36 0.35 -86.0 0 0 113.62 101.87
  Q 112.14 101.83 110.20 101.81
  Q 108.26 101.80 106.78 101.80
  A 0.36 0.35 87.1 0 0 106.42 102.20
  L 109.08 127.12
  A 0.83 0.79 28.6 0 0 109.19 127.45
  Q 109.39 127.80 109.97 127.81
  Z"
/>
<path fill="#57058b" d="
  M 113.97 61.19
  A 0.40 0.39 -38.3 0 1 114.70 61.27
  L 116.98 69.79
  A 3.05 3.04 65.0 0 1 115.79 73.07
  C 109.49 77.49 105.62 85.26 108.96 92.73
  A 0.36 0.36 0.0 0 1 108.44 93.18
  C 99.39 87.53 99.48 79.37 106.21 71.96
  Q 110.94 66.73 113.97 61.19
  Z"
/>
<path fill="#57058b" d="
  M 110.63 92.29
  C 107.78 84.34 111.65 79.03 117.56 73.91
  Q 120.83 71.07 122.86 66.91
  A 0.47 0.47 0.0 0 1 123.71 66.93
  Q 125.80 72.10 125.39 76.71
  A 2.25 2.24 -9.1 0 1 124.04 78.57
  C 117.42 81.41 113.60 84.57 111.23 92.28
  A 0.32 0.32 0.0 0 1 110.63 92.29
  Z"
/>
<path fill="#57058b" d="
  M 106.00 94.16
  C 98.97 93.81 92.89 90.60 93.59 82.42
  Q 93.81 79.86 96.45 75.64
  Q 98.49 72.40 99.56 68.85
  A 0.62 0.62 0.0 0 1 100.75 68.87
  L 102.00 73.52
  A 1.88 1.87 -37.7 0 1 101.82 74.91
  Q 95.21 86.42 106.16 93.67
  A 0.27 0.27 0.0 0 1 106.00 94.16
  Z"
/>
<path fill="#57058b" d="
  M 130.55 74.47
  A 0.35 0.35 0.0 0 1 131.19 74.68
  Q 131.02 78.87 129.63 83.13
  Q 125.97 94.26 113.54 94.16
  A 0.62 0.62 0.0 0 1 112.94 93.40
  Q 114.79 85.38 121.72 81.93
  C 126.08 79.76 128.06 78.28 130.55 74.47
  Z"
/>
<rect fill="#57058b" x="103.64" y="96.15" width="13.18" height="3.70" rx="0.32"/>
<path fill="#57058b" d="
  M 110.20 101.81
  Q 112.14 101.83 113.62 101.87
  A 0.36 0.35 -86.0 0 1 113.97 102.27
  L 110.87 127.14
  A 0.83 0.79 -27.6 0 1 110.76 127.46
  Q 110.55 127.81 109.97 127.81
  Q 109.39 127.80 109.19 127.45
  A 0.83 0.79 28.6 0 1 109.08 127.12
  L 106.42 102.20
  A 0.36 0.35 87.1 0 1 106.78 101.80
  Q 108.26 101.80 110.20 101.81
  Z"
/>
<path fill="#ffffff" d="
  M 93.37 147.13
  A 0.54 0.54 0.0 0 1 93.91 147.67
  L 93.91 177.58
  A 0.76 0.76 0.0 0 1 93.13 178.34
  L 88.61 178.25
  A 1.28 1.25 -16.8 0 1 87.63 177.74
  Q 86.90 176.78 74.01 159.75
  Q 73.71 159.36 73.36 159.15
  A 0.22 0.22 0.0 0 0 73.03 159.34
  L 73.03 177.72
  A 0.58 0.58 0.0 0 1 72.45 178.30
  L 66.73 178.30
  A 0.53 0.53 0.0 0 1 66.20 177.77
  L 66.20 147.82
  A 0.69 0.69 0.0 0 1 66.89 147.13
  L 71.77 147.13
  A 1.72 1.70 -18.4 0 1 73.13 147.80
  L 86.56 165.44
  A 0.34 0.33 -63.9 0 0 87.16 165.23
  L 87.16 147.58
  A 0.46 0.45 -0.0 0 1 87.62 147.13
  L 93.37 147.13
  Z"
/>
<path fill="#ffffff" d="
  M 112.80 159.16
  Q 112.86 159.16 112.92 159.15
  A 0.42 0.22 -4.3 0 0 113.14 159.01
  L 120.13 147.27
  A 0.27 0.27 0.0 0 1 120.36 147.14
  L 128.08 147.14
  A 0.08 0.08 0.0 0 1 128.15 147.26
  L 117.00 164.75
  A 4.81 4.77 61.3 0 0 116.26 167.31
  L 116.26 177.58
  A 0.70 0.70 0.0 0 1 115.62 178.28
  Q 115.13 178.32 112.79 178.32
  Q 110.44 178.32 109.95 178.27
  A 0.70 0.70 0.0 0 1 109.31 177.58
  L 109.32 167.31
  A 4.81 4.77 -61.3 0 0 108.59 164.75
  L 97.46 147.24
  A 0.08 0.08 0.0 0 1 97.53 147.12
  L 105.25 147.13
  A 0.27 0.27 0.0 0 1 105.48 147.26
  L 112.45 159.01
  A 0.42 0.22 4.4 0 0 112.68 159.15
  Q 112.73 159.16 112.80 159.16
  Z"
/>
<path fill="#ffffff" d="
  M 144.70 172.41
  C 149.11 172.41 151.43 169.43 151.39 165.02
  Q 151.35 160.57 151.37 147.80
  A 0.68 0.67 -90.0 0 1 152.04 147.12
  L 157.58 147.12
  A 0.68 0.68 0.0 0 1 158.26 147.79
  Q 158.49 162.57 158.18 166.96
  C 157.62 174.79 152.21 178.77 144.71 178.78
  C 137.20 178.78 131.79 174.81 131.22 166.98
  Q 130.90 162.59 131.11 147.81
  A 0.68 0.68 0.0 0 1 131.79 147.14
  L 137.33 147.13
  A 0.68 0.67 89.9 0 1 138.00 147.81
  Q 138.04 160.58 138.00 165.03
  C 137.97 169.44 140.30 172.41 144.70 172.41
  Z"
/>
</svg>
