<?xml version="1.0" encoding="UTF-8" standalone="no"?>
<!DOCTYPE svg PUBLIC "-//W3C//DTD SVG 1.1//EN" "http://www.w3.org/Graphics/SVG/1.1/DTD/svg11.dtd">
<svg xmlns="http://www.w3.org/2000/svg" version="1.1" viewBox="0.00 0.00 200.00 200.00">
<g stroke-width="2.00" fill="none" stroke-linecap="butt">
<path stroke="#808080" vector-effect="non-scaling-stroke" d="
  M 73.56 138.09
  L 71.83 136.02"
/>
<path stroke="#fd81a8" vector-effect="non-scaling-stroke" d="
  M 71.83 136.02
  Q 66.72 125.56 71.82 117.08
  C 76.27 109.71 84.29 106.44 92.66 108.50
  A 0.58 0.58 0.0 0 0 93.37 107.94
  L 93.37 86.49
  A 0.42 0.42 0.0 0 0 92.96 86.07
  L 87.15 85.96"
/>
<path stroke="#808080" vector-effect="non-scaling-stroke" d="
  M 87.15 85.96
  Q 87.01 86.02 86.67 85.71"
/>
<path stroke="#82f7f3" vector-effect="non-scaling-stroke" d="
  M 86.67 85.71
  L 86.92 81.46
  A 1.09 1.08 4.1 0 0 85.92 80.32
  C 69.96 78.93 54.80 85.94 46.57 99.66
  Q 41.82 107.58 40.91 115.49
  Q 38.35 137.73 55.49 151.99"
/>
<path stroke="#808080" vector-effect="non-scaling-stroke" d="
  M 55.49 151.99
  L 60.07 155.11"
/>
<path stroke="#fd81a8" vector-effect="non-scaling-stroke" d="
  M 60.07 155.11
  Q 60.05 155.39 60.04 155.60
  A 1.19 1.17 23.0 0 0 60.40 156.47
  Q 62.69 158.68 65.37 160.37
  C 89.63 175.74 121.98 162.89 127.76 134.52
  Q 128.63 130.25 128.61 123.25
  Q 128.56 111.66 128.61 82.23
  A 0.31 0.30 -72.4 0 1 129.09 81.98
  Q 142.36 91.09 158.79 91.40
  A 0.56 0.55 0.5 0 0 159.36 90.85
  L 159.36 69.90
  A 0.62 0.62 0.0 0 0 158.79 69.28
  L 152.87 68.80"
/>
<path stroke="#808080" vector-effect="non-scaling-stroke" d="
  M 152.87 68.80
  Q 152.87 68.63 152.78 68.52"
/>
<path stroke="#82f7f3" vector-effect="non-scaling-stroke" d="
  M 152.78 68.52
  L 153.11 65.31
  A 1.52 1.52 0.0 0 0 151.79 63.65
  Q 144.67 62.77 137.27 59.74"
/>
<path stroke="#808080" vector-effect="non-scaling-stroke" d="
  M 137.27 59.74
  L 134.79 57.55"
/>
<path stroke="#fd81a8" vector-effect="non-scaling-stroke" d="
  M 134.79 57.55
  Q 128.84 48.46 128.60 39.14
  A 0.56 0.56 0.0 0 0 128.02 38.59
  L 122.65 38.75"
/>
<path stroke="#808080" vector-effect="non-scaling-stroke" d="
  M 122.65 38.75
  L 122.00 38.62"
/>
<path stroke="#82f7f3" vector-effect="non-scaling-stroke" d="
  M 122.00 38.62
  Q 122.73 36.11 121.92 33.36
  A 0.68 0.68 0.0 0 0 121.27 32.87
  L 100.52 32.87
  A 0.61 0.61 0.0 0 0 99.91 33.48
  Q 99.89 49.13 99.84 120.75
  C 99.84 132.23 89.37 141.25 77.88 138.79
  Q 75.81 138.34 73.56 138.09"
/>
<path stroke="#027874" vector-effect="non-scaling-stroke" d="
  M 122.00 38.62
  L 106.78 38.63
  A 0.32 0.32 0.0 0 0 106.46 38.95
  Q 106.35 117.60 106.42 120.52
  Q 106.66 129.80 105.04 133.44
  C 101.25 141.98 92.36 146.51 83.36 144.40
  Q 77.58 143.04 73.56 138.09"
/>
<path stroke="#7d0228" vector-effect="non-scaling-stroke" d="
  M 122.65 38.75
  Q 122.83 40.90 124.17 44.36
  Q 127.53 53.05 134.79 57.55"
/>
<path stroke="#027874" vector-effect="non-scaling-stroke" d="
  M 137.27 59.74
  Q 143.44 66.83 152.78 68.52"
/>
<path stroke="#7d0228" vector-effect="non-scaling-stroke" d="
  M 152.87 68.80
  L 152.81 84.92
  A 0.77 0.76 -89.3 0 1 152.04 85.68
  C 141.68 85.63 131.52 81.94 122.72 76.32
  A 0.35 0.35 0.0 0 0 122.19 76.57
  Q 122.08 77.48 121.99 81.25
  Q 121.87 86.09 121.98 114.23
  Q 122.03 126.13 120.95 130.22
  C 117.39 143.77 108.42 153.98 95.16 158.91
  Q 78.14 165.24 60.07 155.11"
/>
<path stroke="#027874" vector-effect="non-scaling-stroke" d="
  M 55.49 151.99
  Q 54.61 149.60 53.28 147.45
  Q 51.13 143.99 50.75 143.10
  C 43.79 126.90 47.16 109.19 59.75 97.01
  Q 70.35 86.77 86.67 85.71"
/>
<path stroke="#7d0228" vector-effect="non-scaling-stroke" d="
  M 87.15 85.96
  L 86.80 86.90
  A 1.34 1.29 56.6 0 0 86.71 87.38
  L 86.71 102.10
  A 0.55 0.55 0.0 0 1 86.07 102.64
  Q 73.42 100.49 66.59 109.50
  C 59.97 118.24 62.06 129.05 70.35 135.90
  Q 71.22 136.62 71.83 136.02"
/>
</g>
<path fill="#ffffff" d="
  M 200.00 0.00
  L 200.00 200.00
  L 0.00 200.00
  L 0.00 0.00
  L 200.00 0.00
  Z
  M 73.56 138.09
  L 71.83 136.02
  Q 66.72 125.56 71.82 117.08
  C 76.27 109.71 84.29 106.44 92.66 108.50
  A 0.58 0.58 0.0 0 0 93.37 107.94
  L 93.37 86.49
  A 0.42 0.42 0.0 0 0 92.96 86.07
  L 87.15 85.96
  Q 87.01 86.02 86.67 85.71
  L 86.92 81.46
  A 1.09 1.08 4.1 0 0 85.92 80.32
  C 69.96 78.93 54.80 85.94 46.57 99.66
  Q 41.82 107.58 40.91 115.49
  Q 38.35 137.73 55.49 151.99
  L 60.07 155.11
  Q 60.05 155.39 60.04 155.60
  A 1.19 1.17 23.0 0 0 60.40 156.47
  Q 62.69 158.68 65.37 160.37
  C 89.63 175.74 121.98 162.89 127.76 134.52
  Q 128.63 130.25 128.61 123.25
  Q 128.56 111.66 128.61 82.23
  A 0.31 0.30 -72.4 0 1 129.09 81.98
  Q 142.36 91.09 158.79 91.40
  A 0.56 0.55 0.5 0 0 159.36 90.85
  L 159.36 69.90
  A 0.62 0.62 0.0 0 0 158.79 69.28
  L 152.87 68.80
  Q 152.87 68.63 152.78 68.52
  L 153.11 65.31
  A 1.52 1.52 0.0 0 0 151.79 63.65
  Q 144.67 62.77 137.27 59.74
  L 134.79 57.55
  Q 128.84 48.46 128.60 39.14
  A 0.56 0.56 0.0 0 0 128.02 38.59
  L 122.65 38.75
  L 122.00 38.62
  Q 122.73 36.11 121.92 33.36
  A 0.68 0.68 0.0 0 0 121.27 32.87
  L 100.52 32.87
  A 0.61 0.61 0.0 0 0 99.91 33.48
  Q 99.89 49.13 99.84 120.75
  C 99.84 132.23 89.37 141.25 77.88 138.79
  Q 75.81 138.34 73.56 138.09
  Z"
/>
<path fill="#04efe7" d="
  M 122.00 38.62
  L 106.78 38.63
  A 0.32 0.32 0.0 0 0 106.46 38.95
  Q 106.35 117.60 106.42 120.52
  Q 106.66 129.80 105.04 133.44
  C 101.25 141.98 92.36 146.51 83.36 144.40
  Q 77.58 143.04 73.56 138.09
  Q 75.81 138.34 77.88 138.79
  C 89.37 141.25 99.84 132.23 99.84 120.75
  Q 99.89 49.13 99.91 33.48
  A 0.61 0.61 0.0 0 1 100.52 32.87
  L 121.27 32.87
  A 0.68 0.68 0.0 0 1 121.92 33.36
  Q 122.73 36.11 122.00 38.62
  Z"
/>
<path fill="#000000" d="
  M 122.00 38.62
  L 122.65 38.75
  Q 122.83 40.90 124.17 44.36
  Q 127.53 53.05 134.79 57.55
  L 137.27 59.74
  Q 143.44 66.83 152.78 68.52
  Q 152.87 68.63 152.87 68.80
  L 152.81 84.92
  A 0.77 0.76 -89.3 0 1 152.04 85.68
  C 141.68 85.63 131.52 81.94 122.72 76.32
  A 0.35 0.35 0.0 0 0 122.19 76.57
  Q 122.08 77.48 121.99 81.25
  Q 121.87 86.09 121.98 114.23
  Q 122.03 126.13 120.95 130.22
  C 117.39 143.77 108.42 153.98 95.16 158.91
  Q 78.14 165.24 60.07 155.11
  L 55.49 151.99
  Q 54.61 149.60 53.28 147.45
  Q 51.13 143.99 50.75 143.10
  C 43.79 126.90 47.16 109.19 59.75 97.01
  Q 70.35 86.77 86.67 85.71
  Q 87.01 86.02 87.15 85.96
  L 86.80 86.90
  A 1.34 1.29 56.6 0 0 86.71 87.38
  L 86.71 102.10
  A 0.55 0.55 0.0 0 1 86.07 102.64
  Q 73.42 100.49 66.59 109.50
  C 59.97 118.24 62.06 129.05 70.35 135.90
  Q 71.22 136.62 71.83 136.02
  L 73.56 138.09
  Q 77.58 143.04 83.36 144.40
  C 92.36 146.51 101.25 141.98 105.04 133.44
  Q 106.66 129.80 106.42 120.52
  Q 106.35 117.60 106.46 38.95
  A 0.32 0.32 0.0 0 1 106.78 38.63
  L 122.00 38.62
  Z"
/>
<path fill="#fa0350" d="
  M 134.79 57.55
  Q 127.53 53.05 124.17 44.36
  Q 122.83 40.90 122.65 38.75
  L 128.02 38.59
  A 0.56 0.56 0.0 0 1 128.60 39.14
  Q 128.84 48.46 134.79 57.55
  Z"
/>
<path fill="#04efe7" d="
  M 152.78 68.52
  Q 143.44 66.83 137.27 59.74
  Q 144.67 62.77 151.79 63.65
  A 1.52 1.52 0.0 0 1 153.11 65.31
  L 152.78 68.52
  Z"
/>
<path fill="#fa0350" d="
  M 152.87 68.80
  L 158.79 69.28
  A 0.62 0.62 0.0 0 1 159.36 69.90
  L 159.36 90.85
  A 0.56 0.55 0.5 0 1 158.79 91.40
  Q 142.36 91.09 129.09 81.98
  A 0.31 0.30 -72.4 0 0 128.61 82.23
  Q 128.56 111.66 128.61 123.25
  Q 128.63 130.25 127.76 134.52
  C 121.98 162.89 89.63 175.74 65.37 160.37
  Q 62.69 158.68 60.40 156.47
  A 1.19 1.17 23.0 0 1 60.04 155.60
  Q 60.05 155.39 60.07 155.11
  Q 78.14 165.24 95.16 158.91
  C 108.42 153.98 117.39 143.77 120.95 130.22
  Q 122.03 126.13 121.98 114.23
  Q 121.87 86.09 121.99 81.25
  Q 122.08 77.48 122.19 76.57
  A 0.35 0.35 0.0 0 1 122.72 76.32
  C 131.52 81.94 141.68 85.63 152.04 85.68
  A 0.77 0.76 -89.3 0 0 152.81 84.92
  L 152.87 68.80
  Z"
/>
<path fill="#04efe7" d="
  M 86.67 85.71
  Q 70.35 86.77 59.75 97.01
  C 47.16 109.19 43.79 126.90 50.75 143.10
  Q 51.13 143.99 53.28 147.45
  Q 54.61 149.60 55.49 151.99
  Q 38.35 137.73 40.91 115.49
  Q 41.82 107.58 46.57 99.66
  C 54.80 85.94 69.96 78.93 85.92 80.32
  A 1.09 1.08 4.1 0 1 86.92 81.46
  L 86.67 85.71
  Z"
/>
<path fill="#fa0350" d="
  M 71.83 136.02
  Q 71.22 136.62 70.35 135.90
  C 62.06 129.05 59.97 118.24 66.59 109.50
  Q 73.42 100.49 86.07 102.64
  A 0.55 0.55 0.0 0 0 86.71 102.10
  L 86.71 87.38
  A 1.34 1.29 56.6 0 1 86.80 86.90
  L 87.15 85.96
  L 92.96 86.07
  A 0.42 0.42 0.0 0 1 93.37 86.49
  L 93.37 107.94
  A 0.58 0.58 0.0 0 1 92.66 108.50
  C 84.29 106.44 76.27 109.71 71.82 117.08
  Q 66.72 125.56 71.83 136.02
  Z"
/>
</svg>
