<svg width="12" height="12" viewBox="0 0 12 12" fill="none" xmlns="http://www.w3.org/2000/svg">
<path d="M11.7098 10.29L3.4198 2H8.9998C9.26502 2 9.51937 1.89464 9.70691 1.70711C9.89445 1.51957 9.9998 1.26522 9.9998 1C9.9998 0.734784 9.89445 0.48043 9.70691 0.292893C9.51937 0.105357 9.26502 0 8.9998 0H1.0498C0.784588 0 0.530234 0.105357 0.342698 0.292893C0.155161 0.48043 0.0498047 0.734784 0.0498047 1V9C0.0498047 9.26522 0.155161 9.51957 0.342698 9.70711C0.530234 9.89464 0.784588 10 1.0498 10H0.999804C1.26502 10 1.51937 9.89464 1.70691 9.70711C1.89445 9.51957 1.9998 9.26522 1.9998 9V3.45L10.2598 11.71C10.3528 11.8037 10.4634 11.8781 10.5852 11.9289C10.7071 11.9797 10.8378 12.0058 10.9698 12.0058C11.1018 12.0058 11.2325 11.9797 11.3544 11.9289C11.4762 11.8781 11.5868 11.8037 11.6798 11.71C11.7755 11.619 11.8523 11.51 11.9056 11.3892C11.959 11.2684 11.9879 11.1383 11.9907 11.0063C11.9935 10.8742 11.9701 10.743 11.9219 10.62C11.8737 10.4971 11.8016 10.3849 11.7098 10.29Z" fill="#F9F8EB"/>
</svg>
