<?xml version="1.0" encoding="UTF-8"?>
<svg id="Layer_1" data-name="Layer 1" xmlns="http://www.w3.org/2000/svg" viewBox="0 0 1190.73 507.72">
  <polygon points="889.71 261.93 889.6 261.84 884.21 257.46 888.47 253.86 889.71 252.82 1188.18 .5 983.1 .59 787.76 166.66 786.54 167.7 780.55 172.76 780.55 .5 780.55 .5 618.4 .5 456.25 .5 294.1 .5 162.68 .5 1.33 142.38 294.1 142.38 294.1 507.22 456.25 507.22 456.25 142.38 618.4 142.38 618.4 310.61 618.4 345.07 618.4 507.22 780.55 507.22 780.55 345.07 780.55 339.07 781.68 340 787.67 344.89 787.78 344.97 984.25 506.01 1189.33 506.09 889.71 261.93" stroke="#000" stroke-miterlimit="10"/>
</svg>