<svg width="49" height="35" viewBox="0 0 49 35" fill="none" xmlns="http://www.w3.org/2000/svg">
<path d="M24.5 10.875C22.7429 10.875 21.0578 11.573 19.8154 12.8154C18.573 14.0578 17.875 15.7429 17.875 17.5C17.875 19.2571 18.573 20.9422 19.8154 22.1846C21.0578 23.427 22.7429 24.125 24.5 24.125C26.257 24.125 27.9421 23.427 29.1846 22.1846C30.427 20.9422 31.125 19.2571 31.125 17.5C31.125 15.7429 30.427 14.0578 29.1846 12.8154C27.9421 11.573 26.257 10.875 24.5 10.875ZM24.5 28.5417C21.5715 28.5417 18.7631 27.3784 16.6923 25.3076C14.6216 23.2369 13.4583 20.4284 13.4583 17.5C13.4583 14.5716 14.6216 11.7631 16.6923 9.69236C18.7631 7.62165 21.5715 6.45833 24.5 6.45833C27.4284 6.45833 30.2369 7.62165 32.3076 9.69236C34.3783 11.7631 35.5416 14.5716 35.5416 17.5C35.5416 20.4284 34.3783 23.2369 32.3076 25.3076C30.2369 27.3784 27.4284 28.5417 24.5 28.5417ZM24.5 0.9375C13.4583 0.9375 4.02873 7.80542 0.208313 17.5C4.02873 27.1946 13.4583 34.0625 24.5 34.0625C35.5416 34.0625 44.9712 27.1946 48.7916 17.5C44.9712 7.80542 35.5416 0.9375 24.5 0.9375Z" fill="black"/>
</svg>
