<svg width="45" height="43" viewBox="0 0 45 43" fill="none" xmlns="http://www.w3.org/2000/svg">
<path d="M40.4999 32.125C41.7183 32.125 42.7454 32.55 43.5812 33.4C44.417 34.25 44.8279 35.2417 44.8137 36.375L27.7499 42.75L12.8749 38.5V19.375H17.0187L32.4674 25.0912C33.5724 25.5304 34.1249 26.3238 34.1249 27.4713C34.1249 28.1371 33.8841 28.7179 33.4024 29.2138C32.9208 29.7096 32.3116 29.9717 31.5749 30H25.6249L21.9062 28.5763L21.2049 30.5738L25.6249 32.125H40.4999ZM31.9999 2.86375C33.5016 1.12125 35.4141 0.25 37.7374 0.25C39.6641 0.25 41.2933 0.958333 42.6249 2.375C43.9566 3.79167 44.6649 5.42083 44.7499 7.2625C44.7499 8.72167 44.0416 10.4642 42.6249 12.49C41.2083 14.5158 39.8129 16.2087 38.4387 17.5687C37.0645 18.9287 34.9183 20.9475 31.9999 23.625C29.0533 20.9475 26.8858 18.9287 25.4974 17.5687C24.1091 16.2087 22.7137 14.5158 21.3112 12.49C19.9087 10.4642 19.2216 8.72167 19.2499 7.2625C19.2499 5.33583 19.937 3.70667 21.3112 2.375C22.6854 1.04333 24.3429 0.335 26.2837 0.25C28.5504 0.25 30.4558 1.12125 31.9999 2.86375ZM0.0909424 19.375H8.62494V42.75H0.0909424V19.375Z" fill="black"/>
</svg>
