<svg width="16" height="12" viewBox="0 0 16 12" fill="none" xmlns="http://www.w3.org/2000/svg">
<path d="M4.51 0.600275L0.25 11.6703H1.59L3.08 7.81028H7.08L8.6 11.6703H9.94L5.68 0.600275C5.63326 0.483332 5.55254 0.383082 5.44826 0.312464C5.34399 0.241846 5.22094 0.204102 5.095 0.204102C4.96906 0.204102 4.84601 0.241846 4.74174 0.312464C4.63746 0.383082 4.55674 0.483332 4.51 0.600275ZM3.56 6.60028L5.1 2.60027L6.63 6.60028H3.56ZM12.91 4.06027C12.2438 3.99086 11.5748 4.16254 11.0244 4.54416C10.474 4.92579 10.0786 5.49207 9.91 6.14028L11.12 6.45027C11.2274 6.07633 11.4673 5.75431 11.7949 5.54449C12.1226 5.33466 12.5154 5.2514 12.9 5.31027C13.67 5.31027 14.49 5.57028 14.49 6.31028V7.06028C14.22 7.06028 13.86 7.15027 13.55 7.19027C12.6964 7.24525 11.8548 7.4203 11.05 7.71027C10.5912 7.85825 10.1988 8.16246 9.94115 8.56993C9.68351 8.9774 9.57694 9.46233 9.64 9.94027C9.66876 10.2311 9.76284 10.5116 9.91522 10.761C10.0676 11.0103 10.2743 11.222 10.52 11.3803C11.0082 11.6746 11.5701 11.8238 12.14 11.8103C12.6021 11.8088 13.061 11.7346 13.5 11.5903C13.8641 11.484 14.2039 11.3073 14.5 11.0703V11.6803H15.75V6.30027C15.75 5.00027 14.61 4.06027 12.91 4.06027ZM13.13 10.3903C12.8238 10.5101 12.4963 10.5656 12.1677 10.5536C11.8392 10.5416 11.5166 10.4621 11.22 10.3203C11.1276 10.2671 11.0499 10.1917 10.994 10.1009C10.9381 10.0101 10.9058 9.90675 10.9 9.80027C10.8 8.91027 11.72 8.64028 13.7 8.42027L14.46 8.32027C14.27 10.0003 13.52 10.2603 13.13 10.3903Z" fill="black"/>
</svg>
